<svg xmlns="http://www.w3.org/2000/svg" viewBox="0 0 261.66 87.23"><defs><style>.cls-1{fill:#383736;fill-rule:evenodd;}</style></defs><g id="レイヤー_2" data-name="レイヤー 2"><g id="レイヤー_1-2" data-name="レイヤー 1"><g id="twin_birds_on_member" data-name="twin birds on member"><path id="Path_324" data-name="Path 324" class="cls-1" d="M174.27,0c5.6,1.73,7.18,5.21,10.45,9.56,1.58,2.1,3.45,3.67,4.73,6,1.19,2.19,1.78,4.45,3.55,6.29,7.89,8.19,19.6,12.7,26,22.35,1.43,2.16,2.23,3.93,4.22,5.63s3.49,3.85,5.47,5.52c4.26,3.59,10,5,14.91,7.44,2,1,5,1.88,6.46,3.71.59.72.56,1.74,1.13,2.42s2.54.58,3.48.89c1.91.61,3.61,1.73.51,1.68s-6.21-.15-9.3-.42c3.08,1.69,5.93,3.75,9.06,5.34,1.11.55,9.57,4.39,5.65,5-3.53.58-7.68-.13-11.23-.41a101.84,101.84,0,0,1-11.64-1.88c-3.76-.74-7.6-1.35-11.3-2.4-3.16-.9-6.55-3-9.79-1.22-2.29,1.23-7.48.62-10,.33-1.21-.14-2.7-1.23-3.53.1s-1.9,2.62-3.66,2.63c2.62,2.82-1.43.85-2.61,3.14a12.1,12.1,0,0,1,3.18-.11c.82,0,1.4,1.59.44,1.69-1.33.14-2.74,0-4.05.25-1.53.22-2.23,1.34-3.47,2-1,.59-1.93.45-2.77,1.35s-1-1.58-1.11-1.7c-.73-.64-3.85.08-4.8.09-1.35,0-2.71-.3-4-.24-1.94.09-.54-.81.72-1.3,2.08-.81,3.7-2.2,6-2,1.39.12,1.31-1.06,1.82-2a16.72,16.72,0,0,1,3.12-3.59c.68-.66,2.95-2,1.65-3s-2.8-2-4.24-2.94C184.46,67.13,179,63.91,175.66,59c-3.61-5.36-6.48-10.58-7.61-17a48.32,48.32,0,0,1,.84-19.38c.54-2.13,2.55-7.08-.26-8.45a8.23,8.23,0,0,0-3.72-.25c-.86.06-2.62,1.36-3.26,1.14,0-2.53,1.25-3.25,2.64-5.2,1.14-1.61-.3-2.65-.49-4.25C163.17.36,170.83,0,174.27,0,176.81.79,172.8,0,174.27,0Z"/><path id="Path_325" data-name="Path 325" class="cls-1" d="M0,78.09c3.45-2.79,7.09-5.34,10.43-8.26-.82-.18-2.84.62-3.37-.41-.63-1.2,1.66-2.43,2.36-2.8-1.41-.27-3.18.7-4.36-.53.23.24-.44-2.74-.44-2.63.15-4.36,10.77-4.78,13.53-5.09,10.13-1.13,17.24-11.78,24.77-17.51a121,121,0,0,1,13.94-9.72C61.6,28.51,67,26.49,71,22.6s3.46-10.08,5.3-14.89,7.38-9,12.68-6.59c2.1.95,3,2.67,4.41,4.29S97.59,7.8,99.21,9.5c2.51,2.64-1.61,1.55-3,1.4-1.92-.22-5.26-.08-6.53,1.7-2.12,3,2.85,11,3.35,14.31a34.15,34.15,0,0,1-1.8,16.58c-4.23,10.59-16.38,12.6-24,19.7a5.45,5.45,0,0,0-1.67,5.46c1,3,3.94.57,4.46,2.12s3.74-.3,4.45-.86c2.38-1.9,4.13,2.8,3.35,3-.27.06-.71-.79-1.07-.85a4.53,4.53,0,0,0-3.51.94c-1,.76-3.42.54-.8,1.93,2,1.08,5.64,2.12,7.77.88,1.2-.7,2-2,3.4-.84.44.36,1.89,2.56.68,3-.28.1-1.39-1-2.07-.91a9.15,9.15,0,0,0-2.49,1.22c-.86.6-.38,1.46-1.49,1.46.22-1.74-1.46-.77-2.38-.61a24.54,24.54,0,0,1-10.27-1.31c-2.34-1-.54-2.83,1.43-2.2-.84-1.4-3.8-2.28-5.34-1.66-.9.36-.73,1.77-1.8-.12-1.28-2.25,1-1.67,1.16-2.76s-4-2.12-4.72-2.76c-1-.81-2-2.08-2.89-1.22-.15.15-3.79,0-4.37,0-3.24.21-6.15-.62-9.35-.09-7.31,1.23-13.91,1.38-20.82,4.3-3.38,1.43-6.76,3-10,4.72C8.13,76.39,0,80.77,0,78.1,3.41,75.33,0,78.15,0,78.09Z"/></g></g></g></svg>