<svg xmlns="http://www.w3.org/2000/svg" viewBox="0 0 367.04 333.21"><defs><style>.cls-1{fill:#373736;fill-rule:evenodd;}</style></defs><g id="レイヤー_2" data-name="レイヤー 2"><g id="レイヤー_1-2" data-name="レイヤー 1"><path id="bird_service" data-name="bird service" class="cls-1" d="M100.32,218.59c-11.59-7.85-4.8-15.53,1.6-9.12,8.28,8.29,30.46.09,39.92-1.75,11.47-2.24,29.62,1.92,21.38-11.41-5.77-9.31-10.29-22.68,2.42-28.75,15.65-7.46,24.05,7.64,38.34,9.24,12.06,1.34,15.81-4.9,25.82-9.29,12.44-5.45,17.19-17.85,20.34-30.11,1.87-7.3.73-44.27,11-23.21,21.09-21.49,25.55-60.46,22.33-88.8-.67-6-.26-34.51,10.31-17.72,6.84,10.88,7.22,27.39,5.49,39.67,2.52-6.71,6.3-45.09,13.11-47.07,13.72-4,7.33,37.26,6.57,42,5.79-6.84,8.13-17.54,14.78-23.09C349.56,6,342.19,29.83,342.37,35.8,350.53,33.45,357,37,353.09,46.37c-1.46,3.47,5.55,10.39,5,17.05-.72,9.27,5.2,7,7,14.68a12.86,12.86,0,0,1-2.82,9.1c-3,4.94,1.89,4.47,2.82,9.12,1.45,7.18-9.74,12-3.8,18.06q3.22,5.06-1,9.38c-3.32,4.15,2.2,6.21,3.52,10.13,3.87,11.43-11.73,15.81-11,23.78.73,7.63,5.46,13.82-6.12,13.25,8.24,11.81,3.29,10.24-1.84,19.75-2,3.69-3.07,8.15-6.17,11.18-1.62,1.58-9.42,2.34-9.6,2.68-3.89,7.83-17.23,20.33-25.86,21.43-3.78.49-13.48,4.51-17,2.68-3.32-1.73-5.63-5.84-9.68-6.18,14.12,19.07,41.27,17.86,62.89,14.11,15.37-2.67,39.23,25.95,20.89,30.67,7,5.89,5.4,18.39-1.93,24-4.78,3.66,1.23,10.79-4,13.7-4.78,2.69-11.65.89-13.91,7.3-1.37,3.88-6.52.89-8.8.7-.59,0-9.46,12.16-13.39,13.21-7.67,2.06-8.15,2.91-15.11,6-9.22,4.06-9.67-4.65-16.07-6.24-5-1.24-8,3.62-14.14.59-8.74-4.33-3.86-5.77-14.26-4.9-8.66.72-7.91-1.27-14.16-5.24-2.92-1.85-10.09,3.3-15.06.13-11.27-7.19-18.37-24.12-7.91-34.08,19.09-18.19-15.09-15.84-23.63-16.37-7.18-.45-31.7,2.46-36-.73-6.88-5.11-30.67-10.52-32.94-20.34-1.3-5.62-28.28-.59-35.07-4.77-5.67-3.5-7.12-8.55-14.42-10.54-8.41-2.29-18.87-.72-27.57-1.21-18.74-1.05-31.93-1.3-46.82-13.69-16.66-13.86,10.93-4.6,16.26-4.9,7-.4,18.36-4.77,24.79-2.81,21.48,6.53,31.33,15.51,54,11.55C97.86,216.92,94.75,219.56,100.32,218.59Z"/></g></g></svg>