<svg xmlns="http://www.w3.org/2000/svg" viewBox="0 0 319.79 266.19"><defs><style>.cls-1{fill:#373736;fill-rule:evenodd;}</style></defs><g id="レイヤー_2" data-name="レイヤー 2"><g id="レイヤー_1-2" data-name="レイヤー 1"><path id="bird_who_we_are" data-name="bird who we are" class="cls-1" d="M98.08,210.51c-3.45,4.06-14.85-1.5-8.75,6.38-3.59,2.28-10-2.47-8.94-6.61,2.46-9.51-9.88-3.59-7.46,1.12-6.72-3.3-.31-11.1,3-14.47,1.35-1.39,22-.73,14.14-3.4-10.26-3.48-19.51-5.95-28.27-12.54-10.12-7.62-20.49-14.92-30.23-23-6.87-5.72-14.42-17.62-22.22-6.19s-5.78,0-7.44-8.67c-2.28-12-4.55-18.66,6.38-27.36,9.14-7.27,20.79-6,31.49-3.62,4.64,1,23.32,7.21,25.64-.63,3.19-10.82,7.88-20.77,10.25-31.87C80.23,58.08,100,46.08,119.39,38.16c22.59-9.24,43.86-21.36,66.84-30C192.94,5.68,209.14-2.53,216.4.77c7.64,3.48-16.34,11.47-17.83,12,7.94-.92,19.81-5.22,27.51-1.73,6.44,2.91-6.39,6.94-8.18,7.45,15.94,1.55,9.87,7.39-2.39,10.17,3.25.73,10.7,1.08,6.85,6.54,25-3.95,50.34-9.59,75.73-9.46,1.86,0,12.65-.82,13.05,2.44.34,2.74-9.53,5.32-11.12,5.84-6.23,2-33.3,1.65-36,6.59,6.32,3.4,18.71,1.47,25.78,2,9.59.68,18.7,1.36,28,3.72,7.68,1.94-9.38,6.34-10.19,6.51-9.56,2-19.47,1.75-29.13,3.27,4.62.33,32.65.93,34.12,6.54,2,7.71-35.09,4-38.11,6.76,2.49.45,26.34,3,19.46,8.9-5.4,4.6-16.46,3.43-23.1,4.48,9.73,3.17,4,7.55-3,9.95-7.64,2.63-10.81,8.69-19.46,10.19-4.19.73-5.55,3.91-8.88,6.1-3.72,2.44-8.86,2.29-11.92,5.63-6.69,7.3-18,6.39-25.89,11.91-13.89,9.68-31.57,18.33-37.92,35.86-1.81,5-16.08,8.24-16.1,13.3,0,9.12,5.63,16.06.9,25.73-1.44,2.93-4.47,4.1-5.92,7-1.73,3.49-3.36,7.86-5.57,11-1.62,2.33-3.42.16-3.69,3.67-.45,6.08-1.31,12.12-1.77,18.2-.32,4.25,3.48,23.64-2.26,24.82-2.27.46-2.47-3.52-4.76-1.17-1.24,1.27-5,.17-6.62.09-3.73-.18-11.63-.43-14.81-3.42-6.1-5.73-3.48-23-1.32-29.89,1.31-4.16,9.72-22.76,5.71-25.9-8.6-6.71-15.47,6.7-9.54,4.64C95.65,213.37,94.49,211.76,98.08,210.51Z"/></g></g></svg>