<svg xmlns="http://www.w3.org/2000/svg" viewBox="0 0 170.79 215.15"><defs><style>.cls-1{fill:#383736;fill-rule:evenodd;}</style></defs><g id="レイヤー_2" data-name="レイヤー 2"><g id="レイヤー_1-2" data-name="レイヤー 1"><path id="Path_326" data-name="Path 326" class="cls-1" d="M3.55,152.41l5.3-1.3c1.12,1.73-10.13,3.45-8.73,7.24s14.36-2.73,16.83-3.58c6.51-2.26,13.09-5.56,19.82-7.05,3.9-.86,6.71.86,10.48,1,3.09.12,6.63-1.43,9.64-.28,4.15,1.6,4.92,10.64,7.58,14.17,3.85,5.09,9.66,8.15,13.84,12.95,4.36,5,6,10.42,6.38,17,.18,3.26,2.2,7.16,1.86,10.27s-3.2,5.94-5.21,8.16c2.41.32,5.29.28,7-1.73,1.57-1.83,2-5.35,5.19-3.85,7,3.29,12.65,8,20.46,9.76.35-4.51-4.1-5.63-6.73-8.2,3.86,0,9,.49,11.22-3.58,1.49-2.77-.1-9,4.89-5.64s10.27,6,15.49,8.84c5.37,2.94,2.69-3.19.72-6.25,1.5-.4,9.36-.73,6.89-3.81-2.64-3.3-11.45-2.32-15.28-3.75-7.37-2.74-13.08-13.33-12.32-21,.81-8.17,18.35-14.79,24-20a100.84,100.84,0,0,0,21.1-27.7c6-11.46,8.87-22.85,5-35.52-3.51-11.56-10.85-20-16.42-30.46-5.87-11-11.75-22-16.45-33.58-3.51-8.65-7.71-21.18-17.85-24-8-2.24-18.06,2.31-20.33,10.54C96.66,16,97,21,95.63,25.9c-1,3.55-3.26,9.66-2.88,13.37.56,5.46,5.16-3,6.29,1.92,1,4.29-1.43,10.83-2.5,15-1.28,5-3.41,10.72-7.93,13.65-4,2.59-8.78,3.49-12.76,6.26a37.15,37.15,0,0,0-9.68,10c-2.32,3.5-3.47,8.61-6.38,11.58-3.1,3.17-7.89,2.75-10.93,6.74-2.91,3.81-4.19,8.27-7.78,11.68-5.91,5.61-21.76,8.42-21.37,18.33.24,6,3.67,5.44-2.58,9.14-4.32,2.55-10.44,4.73-13.58,8.82C6.32,151.73,5.64,149.68,3.55,152.41Zm96.19,35.7a27.23,27.23,0,0,0,5.11,2.29c2.57.6,5.54-.91,7.46,1.65,1.69,2.25,3.07,8.56-.66,9.5-9.5,2.4-17.92-6.71-18.42-15.27-.28-4.88,7.42-25.5,14.1-18.27,2.75,3,4.82,11.51,5.17,15.47.46,5.16-9.93,2.42-12.76,4.63,2.14,1,3.12-2.44,0,0Z"/></g></g></svg>