<svg xmlns="http://www.w3.org/2000/svg" viewBox="0 0 530.89 97.38"><defs><style>.cls-1{fill:#383736;}</style></defs><g id="レイヤー_2" data-name="レイヤー 2"><g id="レイヤー_1-2" data-name="レイヤー 1"><path class="cls-1" d="M52.14,10.75a2,2,0,0,0,.56-1.69A3.19,3.19,0,0,0,52,7.75L50.83,6.5A2.15,2.15,0,0,1,50.27,5,42.12,42.12,0,0,1,56.2,7.31a31.4,31.4,0,0,1,5.44,3.44,1.2,1.2,0,0,1-1,.75c-.5.08-.62.58-.37,1.5,1.58.42,2.2-.21,1.87-1.88A45.13,45.13,0,0,1,69.45,19a23.79,23.79,0,0,1,4.07,11.12C72,30,70.22,30,68.14,30h-6.5q-3.37,0-6.62-.06t-5.75-.32c0-.58.14-.93.43-1.06a1.87,1.87,0,0,1,.94-.12,3.69,3.69,0,0,0,.94,0c.29,0,.48-.27.56-.69a1.51,1.51,0,0,0-1.56-1.31c-.88,0-1.77-.06-2.69-.06a8.47,8.47,0,0,0-5.31-4.13A15.19,15.19,0,0,0,35.33,22a17,17,0,0,0-6.75,3,10,10,0,0,0-3.94,5.62,38.07,38.07,0,0,0-.81,5.13q-.31,3.12-.5,6.75T23,49.94c-.09,2.54-.17,4.94-.25,7.18a32,32,0,0,0,.5,8.19A17.13,17.13,0,0,0,25.7,71.5,9,9,0,0,0,30,75a10.3,10.3,0,0,0,6,.25,7.16,7.16,0,0,0,4.93.44,9,9,0,0,0,3.82-2.38,15.18,15.18,0,0,0,2.75-4.06,31.13,31.13,0,0,0,1.75-4.5,53.45,53.45,0,0,0,11.12.37q5.88-.36,12.63-1.37a31.72,31.72,0,0,1-2.94,12.81A28.08,28.08,0,0,1,62.77,86,34.78,34.78,0,0,1,52,92.06a45.82,45.82,0,0,1-13.13,2.56c-.5,0-.77-.12-.81-.37A4.74,4.74,0,0,1,38,93.5a2.46,2.46,0,0,0-.13-.75c-.08-.25-.37-.42-.87-.5-.59.08-.8.48-.63,1.19a4.14,4.14,0,0,1,.13,1.68,39.3,39.3,0,0,1-15.25-3.74,46.46,46.46,0,0,1-10.88-7.63q-.87-.87-.12-1.56a2,2,0,0,0,.62-1.81c-.5-.26-.83-.3-1-.13a1.17,1.17,0,0,0-.31.69,2.07,2.07,0,0,1-.25.75c-.13.21-.4.27-.81.19C7.6,80,6.64,78.15,5.64,76.19S3.7,72.17,2.83,70A43.92,43.92,0,0,1,.7,63.06,31.45,31.45,0,0,1,0,55.25c0-2.83,0-5.69.12-8.56S.35,41,.52,38.25a43.31,43.31,0,0,1,2-12.06,63.36,63.36,0,0,1,4.12-9.81,41.42,41.42,0,0,0,6.25-4.82,32.25,32.25,0,0,1,6.5-4.68C22,7.12,23.72,6.5,24.64,5c1.67,0,3.38-.06,5.13-.19s3.52-.27,5.31-.43,3.64-.26,5.56-.26a47.41,47.41,0,0,1,5.88.38c.66,1.33,1.35,2.62,2.06,3.88A5,5,0,0,0,52.14,10.75ZM1.39,52a2.57,2.57,0,0,0,.5,1.38c1.08.08,1.54-.55,1.38-1.88A2.68,2.68,0,0,0,1.39,52Zm1.88,4.25c1.33-.08,1.95-.87,1.87-2.37a1.77,1.77,0,0,1-.81-.44c-.21-.21-.56-.23-1.06-.06a2.31,2.31,0,0,0,0,2.87ZM5.14,67.62a2.34,2.34,0,0,1,1.56.44c.63.38,1.07.23,1.32-.44A6.84,6.84,0,0,0,8,66.81a2.45,2.45,0,0,0-.37-1.06,2.38,2.38,0,0,0-.88-.81,2.56,2.56,0,0,0-1.56-.19Zm1.5-12.87c-.17.58-.33,1.19-.5,1.81a1.4,1.4,0,0,0,.5,1.56c1.17-.41,2.27-.83,3.31-1.24a4.29,4.29,0,0,0,2.32-2.13c-.25-.58-.59-.87-1-.87a3.17,3.17,0,0,0-1.32.31,11.21,11.21,0,0,1-1.56.56A3.07,3.07,0,0,1,6.64,54.75ZM8,47.25c.16-.58.31-1.19.43-1.81A4.89,4.89,0,0,1,9,43.88a1.46,1.46,0,0,0-1.44.18,1.73,1.73,0,0,0-.5,1.06,3,3,0,0,0,.19,1.32A1.1,1.1,0,0,0,8,47.25ZM9.89,50a1.49,1.49,0,0,0,.31,1.06,1,1,0,0,1,.19.94q1.13,0,2.13-.06t.75-1.44c0-.67-.48-1-1.44-1A2.79,2.79,0,0,0,9.89,50Zm0,29a2.11,2.11,0,0,1,.94.38,1.41,1.41,0,0,0,1.06.12A1.37,1.37,0,0,1,12,78,7.15,7.15,0,0,1,13,77a2,2,0,0,0,.57-.69q.12-.3-.75-.69c-.67.92-1.13,1.59-1.38,2A4.89,4.89,0,0,1,9.89,79Zm1-6.12h2.88c.16-1.26-.17-1.92-1-2a.72.72,0,0,1-.32.68,4.05,4.05,0,0,1-.62.32,3.67,3.67,0,0,0-.63.31A.74.74,0,0,0,10.89,72.88Zm3.38-27.13c1.08.08,1.54-.54,1.37-1.87C14.47,43.79,14,44.42,14.27,45.75ZM17,67.12H15.14c-.25,1.17-.19,2,.19,2.38a1.17,1.17,0,0,0,1.12.5,1.46,1.46,0,0,0,.94-.88A2.11,2.11,0,0,0,17,67.12Zm.5-19c.91,0,1.35-.14,1.31-.43s-.15-.77-.31-1.44c-.92.08-1.36.27-1.32.56A11.76,11.76,0,0,0,17.52,48.12Zm0-15.12a.85.85,0,0,0,.12,1,1.48,1.48,0,0,0,1.81.25.81.81,0,0,0,.44-.75,7.49,7.49,0,0,1-1.12-.81C18.43,32.4,18,32.5,17.52,33Zm1.37,39.38c.33-.76.54-1.07.63-.94a1.72,1.72,0,0,1,.12.81c0,.42,0,.83.06,1.25s.27.5.69.25a3.22,3.22,0,0,1,.06-1.37c.13-.5.23-1,.32-1.38a1.48,1.48,0,0,0-.13-1.06c-.17-.29-.58-.44-1.25-.44a1,1,0,0,1,0,1,4.69,4.69,0,0,1-.56.69,2.17,2.17,0,0,0-.44.56C18.31,71.92,18.47,72.12,18.89,72.38Zm.5-46.5c.92.16,1.38-.15,1.38-.94s-.46-1.11-1.38-.94Zm5.25,59.24a2.93,2.93,0,0,1,.75-1.06c.33-.29.42-.89.25-1.81a3.33,3.33,0,0,0-2.37-.37C23,83.71,23.47,84.79,24.64,85.12Zm-1-69.74a2.19,2.19,0,0,0,1.19.12,1,1,0,0,0,.62-.44,7.18,7.18,0,0,1,.44-.62,1.32,1.32,0,0,1,.63-.44c.41.75.93,1,1.56.88a6,6,0,0,1,2.69.12c.08-1.25-.21-2-.88-2.38a3.56,3.56,0,0,0-2.31-.24,5.69,5.69,0,0,0-2.5,1.18A3.91,3.91,0,0,0,23.64,15.38Zm5.25,68.87a4.31,4.31,0,0,0,1.81,4.13,5.87,5.87,0,0,0,3.94,1,1.91,1.91,0,0,0-.56,1.24,7.59,7.59,0,0,0,.06,1.63c.75-.08,1.17-.31,1.25-.69a3.91,3.91,0,0,0,0-1.37c-.08-.54-.17-1.08-.25-1.63A2.13,2.13,0,0,1,35.52,87a4.28,4.28,0,0,1-1.5-.94c-.5-.45-1-.89-1.5-1.31a4.31,4.31,0,0,0-1.63-.87A2.59,2.59,0,0,0,28.89,84.25ZM37,15a1,1,0,0,0,1.06-.31,1.58,1.58,0,0,0,.31-.94,1.29,1.29,0,0,0-.31-.87A1.05,1.05,0,0,0,37,12.62Zm2.37-6.25a1,1,0,0,0,.94-.19,1,1,0,0,1,.94-.18c0-.67-.25-1.07-.75-1.19a14.32,14.32,0,0,0-1.63-.31,1,1,0,0,0,.19.93A1.27,1.27,0,0,1,39.39,8.75ZM40.27,15a2.66,2.66,0,0,1,1.43-.31c.46,0,.88.06,1.25.06a1.18,1.18,0,0,0,.88-.31A2.2,2.2,0,0,0,44.14,13a5.1,5.1,0,0,1-1.25.25,1.73,1.73,0,0,1-.69-.13c-.2-.08-.43-.18-.68-.31a3.1,3.1,0,0,0-1.25-.19c-.42.42-.52.76-.32,1A2.23,2.23,0,0,1,40.27,15Zm2.87,62.5V79h2.38c.25-.92,0-1.5-.69-1.75A1.5,1.5,0,0,0,43.14,77.5Zm6.13,1a6.13,6.13,0,0,0-2.38,1.56,8.6,8.6,0,0,0-1.56,2.25,4.7,4.7,0,0,0-.44,2.5A3.18,3.18,0,0,0,46,87a2.42,2.42,0,0,0,.25-1.25V83.94a9.06,9.06,0,0,1,.18-1.82,1.71,1.71,0,0,1,.94-1.24,1.27,1.27,0,0,0,1,.81,3.5,3.5,0,0,0,1.31-.13,5.68,5.68,0,0,1,1.44-.18,2.64,2.64,0,0,1,1.5.5c-.17.5-.46.74-.87.74a9,9,0,0,1-1.19-.06,2.31,2.31,0,0,0-.94.06c-.25.09-.37.46-.37,1.13a12.63,12.63,0,0,0,5.06-.25c1.54-.42,2.39-1.62,2.56-3.62-1.17-.42-2.17-.76-3-1a4.14,4.14,0,0,0-3.12.62.77.77,0,0,0-.19-.56,1.52,1.52,0,0,1-.31-.44,11.1,11.1,0,0,1,1-1.69,7.81,7.81,0,0,0,.81-1.37,5.94,5.94,0,0,0,.44-1.63,19.75,19.75,0,0,0,.12-2.43,8.8,8.8,0,0,0-2.06,3.24C50.12,75.88,49.68,77.17,49.27,78.5Zm-.38,9c1.33.25,2-.38,1.88-1.88a1.53,1.53,0,0,0-1.07-.5,1.27,1.27,0,0,0-.93.38,1.51,1.51,0,0,0-.44.94A1.19,1.19,0,0,0,48.89,87.5Zm5.13,0a1.2,1.2,0,0,0,.5-1.19A2.07,2.07,0,0,0,54,85.19a2.11,2.11,0,0,0-1.12-.57,1.2,1.2,0,0,0-1.19.5,1.15,1.15,0,0,1,.19.57,4,4,0,0,0,.25.93,1.85,1.85,0,0,0,.56.82Q53,87.76,54,87.5Zm1.5-73a5.51,5.51,0,0,1,1.37.69,2.47,2.47,0,0,0,1.88.19,5.45,5.45,0,0,0-.63-2.13,2.45,2.45,0,0,0-1.75-1.13,1.66,1.66,0,0,1-.56,1A1.5,1.5,0,0,0,55.52,14.5Zm5.12,3.25a1.53,1.53,0,0,0,1.63.06,2,2,0,0,0,.81-1.06,1.52,1.52,0,0,0-.19-1.25,1.14,1.14,0,0,0-1.25-.5,1.78,1.78,0,0,0-.44,1.44A1.27,1.27,0,0,1,60.64,17.75Zm1,6.75a3.55,3.55,0,0,0,2.5.19c1.17-.21,1.75-.77,1.75-1.69a3.16,3.16,0,0,0-1.56-.12,4.82,4.82,0,0,1-2.19-.38,1.07,1.07,0,0,1-.25,1.06A.91.91,0,0,0,61.64,24.5Z"/><path class="cls-1" d="M86.39,33c-.42.33-.6.65-.56.94a3.74,3.74,0,0,0,.31,1c.17.37.35.75.56,1.12a1.71,1.71,0,0,1,.19,1.19c-.67-.08-1.1.11-1.31.56a4.25,4.25,0,0,0-.31,1.75,7.56,7.56,0,0,0,.25,2c.16.63.29,1.06.37,1.32h1.38c.5.16.83.14,1-.07a1.5,1.5,0,0,0,.31-.75c0-.29.08-.6.12-.94a.67.67,0,0,1,.44-.62,1.79,1.79,0,0,1,.69,1.56,15.54,15.54,0,0,0,.25,2.19,3,3,0,0,0,.81,1.63c.42.41,1.13.37,2.13-.13a4.2,4.2,0,0,0-.32-2.25c-.29-.58-.6-1.14-.93-1.69A6,6,0,0,1,91,40a6.3,6.3,0,0,1,.12-2.75c1.33-.17,2.46-.27,3.38-.31s1.75-.06,2.5-.06a11,11,0,0,0,2.31-.26,14.53,14.53,0,0,0,2.69-.87,15.1,15.1,0,0,1,.5,3.87v3.94q0,1.95.18,3.75a6.47,6.47,0,0,0,1.19,3.19,1.37,1.37,0,0,1-1.37,1,20,20,0,0,1,.75,4.31q.12,2.19.18,4.44c0,1.5.15,3,.32,4.5A14.41,14.41,0,0,0,104.89,69a8.87,8.87,0,0,0,4.63,4.75,15.39,15.39,0,0,0,7.06,1.56,13.11,13.11,0,0,0,6.87-2.06,9.5,9.5,0,0,0,4.19-6.13,27.21,27.21,0,0,0,.81-5.68c0-1.71.07-3.33.07-4.88s0-3.1.12-4.68a24.21,24.21,0,0,1,.88-5.13,1.69,1.69,0,0,0,1.75-.37,1.94,1.94,0,0,1,1.62-.63c-.17-.5-.65-.67-1.44-.5a3.67,3.67,0,0,1-1.93,0,35,35,0,0,1-.19-7.56,14.5,14.5,0,0,0-.81-6.57c2.66-.24,5.31-.54,7.93-.87s5.52-.83,8.69-1.5a2.63,2.63,0,0,1,.5,2.5,4.59,4.59,0,0,1-1,2.13c.08.33.21.5.38.5a1.65,1.65,0,0,0,.56-.13l.56-.19c.17,0,.33.06.5.32-.58,1.33-1.15,2.62-1.69,3.87a10.73,10.73,0,0,0-.68,4.75c-1.34-.25-2.19-.12-2.57.38a2.69,2.69,0,0,0-.5,1.81c0,.71.11,1.42.19,2.12s-.08,1.15-.5,1.31c0,.92.31,1.49.94,1.69A2.6,2.6,0,0,1,143.27,51a2.13,2.13,0,0,0-.5,2.12,2.17,2.17,0,0,1-.5,2.13,9.33,9.33,0,0,1,1.93,1.69,9.66,9.66,0,0,0,1.94,1.68,2.54,2.54,0,0,0,.06-1,6.06,6.06,0,0,0-.25-1.24,2.92,2.92,0,0,0-.62-1.13,1.37,1.37,0,0,0-1.06-.5c1.25-.42,1.7-1.5,1.37-3.25,0-.42-.1-.67-.31-.75a1.14,1.14,0,0,0-.63-.06l-.62.12c-.21,0-.31-.06-.31-.31a2.63,2.63,0,0,1,.87-2.19,7.64,7.64,0,0,0,1.5-1.56,3.57,3.57,0,0,1,1.75.87,5.7,5.7,0,0,1,1.06,1.5c.29.59.57,1.17.82,1.76a4,4,0,0,0,1.12,1.5,25.25,25.25,0,0,0-1,6.06c-.08,2-.19,4-.31,5.87a31.07,31.07,0,0,1-.81,5.31,10.49,10.49,0,0,1-2.63,4.63,4.15,4.15,0,0,1-.37,1.87,15.39,15.39,0,0,1-.82,1.44q-.44.69-.81,1.44a4.17,4.17,0,0,0-.37,1.88,15.17,15.17,0,0,0-3.07,2.5c-1,1-2,2-3,2.93a17,17,0,0,1-3.25,2.38,6.51,6.51,0,0,1-3.93.69,27.77,27.77,0,0,1-8.25,4.24,29.38,29.38,0,0,1-11.25,1c-.59-.74-1.09-1.43-1.5-2.06a1.88,1.88,0,0,0-1.88-.81.6.6,0,0,0-.44.5,5.57,5.57,0,0,0-.06.87v.94a.52.52,0,0,1-.37.56,36.15,36.15,0,0,1-14.25-7.37,53.39,53.39,0,0,1-10-11.63,1.57,1.57,0,0,1,1.18-.74,10.74,10.74,0,0,1,1.75-.13,10.65,10.65,0,0,0,1.75-.13,1.24,1.24,0,0,0,1.07-.87,1.66,1.66,0,0,0-1-1.56,5.09,5.09,0,0,0-2-.25q-1.12.06-2.25.18a3.38,3.38,0,0,1-1.88-.24,15.78,15.78,0,0,0-.56-4c-.38-1.42-.69-2.84-.94-4.26a19.72,19.72,0,0,1-.31-4.06,5,5,0,0,1,1.31-3.31,6.43,6.43,0,0,1-1.25-3.31,30.16,30.16,0,0,1-.19-4.44c0-1.58.11-3.17.19-4.75a22.53,22.53,0,0,0-.12-4.13,4.81,4.81,0,0,0,2.31-.5c.62-.33,1.27-.66,1.94-1-.09-.5-.3-.74-.63-.74a7.12,7.12,0,0,0-1.19.12l-1.31.25a1.1,1.1,0,0,1-1.12-.5A38.47,38.47,0,0,1,82.83,20.5,24.6,24.6,0,0,1,93,9.25c.5-.08.66-.46.5-1.13s0-1.08.37-1.24a2,2,0,0,1,1.06,0,1,1,0,0,1,.5.37c.13.17.25.36.38.56a1,1,0,0,0,.44.44A7.7,7.7,0,0,1,97.33,5.5,5.21,5.21,0,0,1,99,3.94a6.89,6.89,0,0,1,2.13-.82c.79-.16,1.56-.33,2.31-.5a1.72,1.72,0,0,1,.5,1.63,1.72,1.72,0,0,0,.5,1.63.9.9,0,0,0,.5-1c-.08-.42-.19-.86-.31-1.32a3,3,0,0,1-.13-1.18c0-.34.32-.59.82-.76a18.4,18.4,0,0,1,2.87,2.76l2.38,3c.66-.59.87-1.07.62-1.44A7,7,0,0,0,110,4.69q-.75-.69-1.5-1.44a1.87,1.87,0,0,1-.38-2q3-.25,7.13-.25a63.16,63.16,0,0,1,8.31.56,38.86,38.86,0,0,1,7.87,1.88,11.85,11.85,0,0,1,5.69,3.94v3.24a1.8,1.8,0,0,0,.44,1.32,8.17,8.17,0,0,0,.94.81,6.32,6.32,0,0,1,.93.87,2.06,2.06,0,0,1,.44,1.38,2.57,2.57,0,0,1-1.12,0l-1.63-.25a4.35,4.35,0,0,0-1.62.06,2,2,0,0,0-1.25,1.07c1.83.83,3.16,1.12,4,.87A11.09,11.09,0,0,0,141.39,15c.25.25.35.46.31.62a1,1,0,0,1-.31.5l-.56.57a1.66,1.66,0,0,0-.44.69,6.41,6.41,0,0,1,1.38,1.24,2.18,2.18,0,0,0,2,.63,4.62,4.62,0,0,0,.37,3.75,21.21,21.21,0,0,1,1.5,3.75.74.74,0,0,1-.5.5,1.89,1.89,0,0,1-.87.06,3.18,3.18,0,0,1-.94-.25,2,2,0,0,1-.56-.31,4.25,4.25,0,0,1-2.88,1.75,14.56,14.56,0,0,1-3.62.06c-1.25-.12-2.53-.2-3.82-.25a6.3,6.3,0,0,0-3.43.81,33.94,33.94,0,0,1-3-3.68,20.88,20.88,0,0,0-3.13-3.5,13.64,13.64,0,0,0-4.12-2.5,13.34,13.34,0,0,0-5.88-.69,6.67,6.67,0,0,0-2.62.81,11.5,11.5,0,0,1-2.63,1.06c-.42-.08-.6-.24-.56-.5a4.4,4.4,0,0,1,.25-.87,5.76,5.76,0,0,0,.25-.81c0-.21-.06-.27-.31-.19a15,15,0,0,0-3.63,7.37,62.48,62.48,0,0,0-1.12,8.76c-1.59.33-3.15.66-4.69,1a21.2,21.2,0,0,1-4.44.5,13.07,13.07,0,0,1-3.94-.57A5.8,5.8,0,0,1,86.39,33Zm-1.5,14.62c-.08-.58,0-.95.31-1.12s.36-.58.19-1.25H83a2.08,2.08,0,0,0,.56,1.63A3.6,3.6,0,0,0,84.89,47.62Zm2-14.62a8.8,8.8,0,0,1-.44-2.38,21.26,21.26,0,0,0-.25-2.43,6.08,6.08,0,0,0-.68-2.07A2.8,2.8,0,0,0,84,24.88a23.65,23.65,0,0,0,.06,3.93c.12,1.38.27,2.77.44,4.19a1.38,1.38,0,0,0,.81,0c.21-.08.39-.17.56-.25a1.07,1.07,0,0,1,.44-.13C86.45,32.62,86.64,32.75,86.89,33Zm0,20.88a3,3,0,0,1-.5,1.87,5.61,5.61,0,0,0,2.44-.56c.46-.29,1.06-.11,1.81.56a3.74,3.74,0,0,1,3.13-2.13,10.26,10.26,0,0,1,4.5.26,2.22,2.22,0,0,0,.31-2.76,3.06,3.06,0,0,0-2.69-1.62,1.58,1.58,0,0,0-.56,1.44c0,.62.06,1.27.06,1.94a27.87,27.87,0,0,0-4,.74A12.85,12.85,0,0,1,86.89,53.88Zm2.25,19.87q-.37,3,2.38,2.87a2,2,0,0,1,.37-1.31A1.84,1.84,0,0,0,92,73.75c-.75-.25-1.19-.31-1.32-.19S90.06,73.75,89.14,73.75ZM90.64,32a2,2,0,0,1,.38-.81,1.43,1.43,0,0,0,.12-1.07h-1.5C89.47,31.29,89.81,31.92,90.64,32Zm4.25,37c-.08,1.08.54,1.54,1.88,1.38.16-1.34-.3-2-1.38-1.88C95.39,68.92,95.22,69.08,94.89,69Zm3.75-37.88c.17-1.41-.29-2.08-1.37-2C97.1,30.54,97.56,31.21,98.64,31.12Zm1-23.24a1.17,1.17,0,0,0,.25-1.44c-.25-.54-.79-.73-1.62-.56C98.1,7.29,98.56,8,99.64,7.88Zm.5,67.74a2.31,2.31,0,0,0-.81,1.76A3,3,0,0,0,100,79a4.52,4.52,0,0,0,1.5,1.25,5.81,5.81,0,0,0,1.94.63,2.89,2.89,0,0,0,.94-1.82,2.48,2.48,0,0,0-.5-1.68,4.51,4.51,0,0,0-1.56-1.26A4.76,4.76,0,0,0,100.14,75.62Zm1.38-23.74H99.64c-.17.91.15,1.37.94,1.37S101.68,52.79,101.52,51.88Zm0-27.88a.81.81,0,0,1,1-.5c.16-1,0-1.58-.63-1.75a6.27,6.27,0,0,0-2.25-.13C99.56,23.12,100.18,23.92,101.52,24ZM99.64,74.75c.67.08,1-.19,1.06-.81a4.92,4.92,0,0,1,.32-1.56H99.64Zm1-15.25h.88c0-.67.1-1,.31-1.06s.1-.32-.31-.82h-.88c-.42.5-.52.78-.31.82S100.64,58.83,100.64,59.5ZM103,15c.5-.17,1-.33,1.37-.5a1.53,1.53,0,0,0,.88-1,1,1,0,0,0-1.5-.19A1.62,1.62,0,0,0,103,15Zm2.25,3.75a2,2,0,0,0,.75-1.94A2.09,2.09,0,0,0,104.89,15a3.29,3.29,0,0,1,0,1.25,7.66,7.66,0,0,1-.31,1.13,1.67,1.67,0,0,0-.13.87C104.49,18.5,104.77,18.67,105.27,18.75Zm.5,63.5a1.91,1.91,0,0,1,1-.31.75.75,0,0,1,.43.31,2.8,2.8,0,0,1,.32.56.8.8,0,0,0,.62.44,10.87,10.87,0,0,0,.44-1,3,3,0,0,0,.06-1.37c-.67,0-1.35,0-2.06.06S105.6,81.42,105.77,82.25Zm8.62-74.37a2.14,2.14,0,0,0,.13.74c.08.26.33.3.75.13a1.16,1.16,0,0,0-.07-1.13,2.72,2.72,0,0,0-.81-.62c-.33-.17-.73-.35-1.19-.56A3.14,3.14,0,0,1,112,5.5a2.58,2.58,0,0,0,.43,2.31C112.91,8.27,113.56,8.29,114.39,7.88Zm-.5,83.37c.75.17,1.23,0,1.44-.37a5.1,5.1,0,0,0,.44-1.5A2.15,2.15,0,0,1,115,89a1.32,1.32,0,0,0-1.06-.12,12.34,12.34,0,0,0-.25,1.24A9.31,9.31,0,0,0,113.89,91.25Zm2.88-77.75a.5.5,0,0,0,.75-.19,2,2,0,0,0,.25-1,2.09,2.09,0,0,0-.25-1,.51.51,0,0,0-.75-.19Zm1.87-.88c-.08,1.09.54,1.55,1.88,1.38.16-1.33-.3-2-1.38-1.88C119,12.46,118.81,12.62,118.64,12.62Zm1.88-7.12c-.17.67,0,1,.43,1.12s.61.5.44,1.26q1.24-.75,1.38-.63a8.66,8.66,0,0,0,1.5.63q1.13-1.38,0-2.07a14.74,14.74,0,0,1-1.88-1.31,5,5,0,0,0-.56,1.5C121.87,6.08,121.43,5.92,120.52,5.5Zm.5,4.75a5.08,5.08,0,0,0,.93,2.81,5.14,5.14,0,0,1,.94,2.82,1.64,1.64,0,0,0,1-.07,7.5,7.5,0,0,1,.81-.25.46.46,0,0,1,.5.19,1.73,1.73,0,0,1,.07,1.13,6.51,6.51,0,0,0,1.5-.63c.41-.25.87-.54,1.37-.87a6,6,0,0,1-3.56-2.5,18.07,18.07,0,0,1-1.69-3.63c.08.33,0,.5-.19.5a5.6,5.6,0,0,1-.75-.06,2.34,2.34,0,0,0-.75,0C121,9.73,120.93,9.92,121,10.25ZM121.39,79l1.06.5c.54.25.86.08.94-.5-.25,0-.4-.1-.44-.31a3.69,3.69,0,0,1-.06-.69.73.73,0,0,0-.19-.56q-.18-.19-.81.06a2.78,2.78,0,0,1-.12.94A1.74,1.74,0,0,1,121.39,79Zm3.88-58.38a3,3,0,0,0,1.87-.74,4.46,4.46,0,0,0,1-1.63C126,17.83,125,18.62,125.27,20.62Zm3.25-11.87c.25-1.5-.38-2.13-1.88-1.87C126.39,8.38,127,9,128.52,8.75Zm-.88,13.75A6.68,6.68,0,0,0,129,23.56c.5.3.66.9.5,1.82-.42.24-.75.27-1,.06s-.48-.4-.69-.56a2.18,2.18,0,0,0-.5-.32c-.13,0-.19.23-.19.82A2.32,2.32,0,0,0,129,26.69a6.5,6.5,0,0,0,3.37-.31,6.06,6.06,0,0,1-1-1.5,15.58,15.58,0,0,0-1.06-1.82,3.18,3.18,0,0,0-1.25-1.12C128.62,21.73,128.14,21.92,127.64,22.5Zm3.25,59.25a1.5,1.5,0,0,0,.94-1.75,1.63,1.63,0,0,0-1.31-1.5c-.17.08-.32.33-.44.75a6.15,6.15,0,0,0-.25,1.25,1.72,1.72,0,0,0,.19,1.06C130.18,81.86,130.47,81.92,130.89,81.75Zm2-69.63a.91.91,0,0,0,.94-.24.89.89,0,0,1,.94-.26c.16-1.33-.34-1.95-1.5-1.87.08.58,0,1-.32,1.13S132.64,11.46,132.89,12.12Zm7.5,32.76a2.09,2.09,0,0,0-1.94-.26,2.91,2.91,0,0,1-2.31-.24.84.84,0,0,0,.44,1.12,3.68,3.68,0,0,0,1.5.44,3.33,3.33,0,0,0,1.56-.25Q140.39,45.38,140.39,44.88Zm.5,27.5c.5-.76.65-1.34.44-1.76a3,3,0,0,0-1.06-1.12,13.41,13.41,0,0,0-1.57-.88,2.51,2.51,0,0,1-1.18-1,1.25,1.25,0,0,0,0,1.32,5.93,5.93,0,0,0,1,1.12c.41.38.85.75,1.31,1.13A4.48,4.48,0,0,1,140.89,72.38ZM139.52,60.5a2,2,0,0,1,.81.38,1.41,1.41,0,0,0,1.06.12V59.5C140.22,59.33,139.6,59.67,139.52,60.5Zm.37,19a1,1,0,0,0,1-.25,1.43,1.43,0,0,0,.44-.81,1.37,1.37,0,0,0-.19-.88.82.82,0,0,0-.75-.44A3.52,3.52,0,0,0,139.89,79.5Zm0-70.25Q149,14,151.27,24.88c-.84.16-1.4.1-1.69-.19a3.24,3.24,0,0,0-1.06-.69c-.42,0-.63.11-.63.31a1.5,1.5,0,0,0,.19.69c.12.25.23.46.31.62s0,.26-.37.26a12.92,12.92,0,0,1-2.13-4.13,8,8,0,0,1-.25-4.37,1.83,1.83,0,0,0-.37-1.69A12.05,12.05,0,0,0,143.64,14c-.67-.58-1.35-1.25-2.06-2A8.34,8.34,0,0,1,139.89,9.25Zm4.75,52.13V60a3.24,3.24,0,0,0-1.25.31c-.17.13-.21-.31-.12-1.31h-1.38a1.7,1.7,0,0,0,.88,1.69A9.24,9.24,0,0,0,144.64,61.38Zm2,6.24c-.33,0-.54-.08-.62-.24a5.12,5.12,0,0,1-.25-.57,2.8,2.8,0,0,0-.32-.56c-.12-.17-.39-.21-.81-.13a1.33,1.33,0,0,0,.5,1.82C145.81,68.4,146.31,68.29,146.64,67.62Zm5.63-39.87a19.19,19.19,0,0,0-.19,3.56c0,1.3.1,2.61.19,3.94s.14,2.63.18,3.87a17.87,17.87,0,0,1-.18,3.38,7.25,7.25,0,0,0-2.69-1.38A21.33,21.33,0,0,0,147,41a6.17,6.17,0,0,1,.75-3.31A12,12,0,0,0,149,34.88c-.17-.84-.36-1.73-.57-2.69a10,10,0,0,1-.25-2.63,2.09,2.09,0,0,1,.94-1.75C149.72,27.44,150.77,27.42,152.27,27.75Zm-1,15.13c.91.5,1.33,1.08,1.25,1.74s-.17,1.55-.25,2.63c-1.34.17-2.25-.14-2.75-.94a2.32,2.32,0,0,1-.13-2.43,6.33,6.33,0,0,1,1.5.37C151.31,44.42,151.43,44,151.27,42.88Z"/><path class="cls-1" d="M204.27,56.38a3.52,3.52,0,0,1,1,1.18,10.43,10.43,0,0,1,.43,1.19,3.76,3.76,0,0,0,.57,1.13,3,3,0,0,0,1.37.87c.42-.42.56-.79.44-1.13a4.4,4.4,0,0,0-.56-1q-.37-.49-.63-.87c-.17-.25-.08-.54.25-.87a7.6,7.6,0,0,0,3.69-.57,7.51,7.51,0,0,0,2.44-1.81.39.39,0,0,1,.43.38c0,.24.09.5.13.74a1.33,1.33,0,0,0,.25.63c.12.17.35.21.69.13a3.72,3.72,0,0,0,2.5-2.82,28.91,28.91,0,0,0,.25-3.81,28.15,28.15,0,0,0,7.5-.56q4.13-.81,8.62-1.31a35,35,0,0,0-.56,7.18q.06,3.94.06,8.44a33.8,33.8,0,0,1-4.69,1,24.28,24.28,0,0,0-5.18,1.38,6.38,6.38,0,0,0,2.56.43A11.22,11.22,0,0,0,228,66c.66-.17,1.35-.38,2.06-.62a6.31,6.31,0,0,1,2.19-.38q.38,7.13.93,13.88A71.76,71.76,0,0,1,233.14,92c-1.25.17-2.85.29-4.81.38s-4,.1-6,.06-4-.15-5.88-.32a38,38,0,0,1-4.56-.62q-4-6.25-7.56-12.62a54.2,54.2,0,0,0-8.56-11.5V64.5a3.42,3.42,0,0,1,3.25-.69c1,.38,2.12.77,3.37,1.19a1,1,0,0,0,.88-.75,2.74,2.74,0,0,1,.5-1.13A4.06,4.06,0,0,0,202,60.5a4.25,4.25,0,0,0-2.75-.56,5.43,5.43,0,0,0-2.75,1.25A4.79,4.79,0,0,0,194.77,64,6,6,0,0,1,192,60.88a29.85,29.85,0,0,0-2-4,9.49,9.49,0,0,1,4.75-1.19,9.65,9.65,0,0,0,4.75-1.19,6.09,6.09,0,0,1-1.88-.44,13.28,13.28,0,0,0-2.56-.62,6.25,6.25,0,0,0-2.38.06,1.51,1.51,0,0,0-1.18,1.5,1.76,1.76,0,0,1-.94-.44l-.63-.62a1.71,1.71,0,0,0-.87-.44,3.13,3.13,0,0,0-1.44.12A16.2,16.2,0,0,0,186.08,49a6.79,6.79,0,0,0-3.19-3,4.1,4.1,0,0,0-2.25,2.38,7.11,7.11,0,0,0-.12,3c.16,1.08.35,2.2.56,3.37a9.67,9.67,0,0,1-.06,3.63,3.2,3.2,0,0,1-1.44.5,3.73,3.73,0,0,1-1-.13l-.94-.25a2.3,2.3,0,0,0-1.37.25,1.06,1.06,0,0,0,.75.94,2.87,2.87,0,0,0,1.31.06c.46-.08.94-.19,1.44-.31a5.06,5.06,0,0,1,1.25-.19c-.09,2-.17,3.73-.25,5.19s-.19,2.87-.32,4.25-.25,2.77-.37,4.19-.27,3-.44,4.87c-.67.08-1.1,0-1.31-.37a11.3,11.3,0,0,1-.56-1c-.17-.42-.19-.69-.07-.82a.7.7,0,0,1,.5-.18,2.7,2.7,0,0,0,.63-.07.38.38,0,0,0,.31-.43c-.17-.67-.5-.8-1-.38a1.34,1.34,0,0,1-1.37.38,1.77,1.77,0,0,1-.25,1.31c-.25.37-.55.77-.88,1.19a7.6,7.6,0,0,0-.87,1.37,4.18,4.18,0,0,0-.38,1.87,1.2,1.2,0,0,0,1.38.88c.66.08,1.06-.12,1.18-.62s.23-1,.32-1.63a1.47,1.47,0,0,0,.75.37.45.45,0,0,0,.62-.37,1.8,1.8,0,0,1,1.19,1.63,7.41,7.41,0,0,1-.31,2.43,10.83,10.83,0,0,1-1.07,2.5c-.46.8-.85,1.44-1.18,1.94A4.57,4.57,0,0,0,180.52,91a2.55,2.55,0,0,1-1.88,1.94,10.33,10.33,0,0,1-3.25.37c-1.17,0-2.37-.12-3.62-.25a15.59,15.59,0,0,0-3-.06,4.45,4.45,0,0,1,.62-2.31,13.53,13.53,0,0,1,1.44-2c.54-.63,1.1-1.29,1.69-2a8.76,8.76,0,0,0,1.37-2.31c.08-.76-.1-1.19-.56-1.32a1.12,1.12,0,0,1-.81-1.06,20.33,20.33,0,0,0-2.13,1.56,9.88,9.88,0,0,0-2,2.32A13.59,13.59,0,0,0,167,89a13.24,13.24,0,0,0-.56,4,5,5,0,0,0-2.44-.12,3.54,3.54,0,0,1-2.31-.38c-.25-.67-.52-1.31-.81-1.94a3.77,3.77,0,0,1-.19-2.31c0-.58.06-.87.19-.87a1,1,0,0,1,.5.24l.69.57a.92.92,0,0,0,1,.06,1.22,1.22,0,0,0,.12-1.56,1.37,1.37,0,0,0-1.5-.81,2.56,2.56,0,0,0,.88-1.76,8.58,8.58,0,0,0-.19-1.74,18.82,18.82,0,0,1-.31-2,5.28,5.28,0,0,1,.5-2.63c1.33-.25,2.45-.42,3.37-.5l2.63-.25c.83-.08,1.62-.19,2.37-.31a10.75,10.75,0,0,0,2.5-.81,4.48,4.48,0,0,1-2.12-.63,8.86,8.86,0,0,1-1.13-1.75c-.67,0-1,.31-.94.94a1.8,1.8,0,0,1-.43,1.44,9.33,9.33,0,0,0-3.5.12c-.92.25-1.84.54-2.75.88a10.59,10.59,0,0,1-2-2.94,12.47,12.47,0,0,1-.88-3,21,21,0,0,1-.25-3.38c0-1.2,0-2.56-.12-4.06,1.16-.17,2.5-.39,4-.69l4.56-.87c1.54-.29,3-.58,4.5-.88s2.77-.56,3.94-.81a5.42,5.42,0,0,0-3.63-.75,37.88,37.88,0,0,0-4.25.81c-1.5.38-3.06.71-4.69,1a11.43,11.43,0,0,1-4.93-.19c.08-2.08.12-3.68.12-4.81a12.71,12.71,0,0,0-.62-3.69A22.71,22.71,0,0,0,160,45.69a58.37,58.37,0,0,0,.13-7.63q-.2-3.93-.69-8.06t-.62-8.25c1.25.33,2,.21,2.37-.37a4.48,4.48,0,0,1,1.38-1.5c.16-.67.1-1.09-.19-1.26s-.4-.54-.31-1.12a2.58,2.58,0,0,0-1.69,1.12,3.18,3.18,0,0,1-1.56,1.26,5,5,0,0,1-.94-1.94,21.89,21.89,0,0,1-.5-2.38c-.13-.79-.25-1.52-.38-2.18a3.54,3.54,0,0,0-.56-1.5c.33-.34,1-.3,2.06.12a10.36,10.36,0,0,0,2.69.75c.33-.17.67-.35,1-.56s.46-.65.38-1.31A3.18,3.18,0,0,0,160,8.75a15.45,15.45,0,0,1-3.56-1.13c-.17-.66-.31-1.2-.44-1.62a6.92,6.92,0,0,1-.25-1.25c0-.42-.08-.87-.12-1.37s-.11-1.17-.19-2q3.26.12,5.94.12t5.25-.06l5.25-.13q2.68-.06,5.94.07a65.88,65.88,0,0,1,4.93,7.5,51.59,51.59,0,0,0,4.94,7.24,16.84,16.84,0,0,0,3.13,3.07,16.73,16.73,0,0,1,3.12,3.06,45.63,45.63,0,0,1,3.44,5q1.56,2.63,3,5.25t3.06,5.19a36.67,36.67,0,0,0,3.75,4.93,4.21,4.21,0,0,0,.88,2.5c.5.59,1,1.21,1.5,1.88a14.27,14.27,0,0,0,1.62-6.19q.26-3.81.13-8.06c-.09-2.83-.17-5.67-.25-8.5a43.46,43.46,0,0,1,.37-7.63,17.43,17.43,0,0,0,1.56.94,4.53,4.53,0,0,0,2.19.44,3.54,3.54,0,0,0,1-3.25,5,5,0,0,0-1-2.87,2.43,2.43,0,0,0-1,.68,3.62,3.62,0,0,1-.75.69,2,2,0,0,1-.94.31,3.52,3.52,0,0,1-1.56-.31,33.5,33.5,0,0,1-.25-6A26,26,0,0,0,210,.5q3.87,0,6.87.12l5.63.26A42.53,42.53,0,0,0,227.7.81,37.94,37.94,0,0,0,233.14,0c.08.83.13,1.79.13,2.88s-.05,2.2-.13,3.37-.19,2.33-.31,3.5a17.15,17.15,0,0,1-.56,3h-3.38c-.17,1.92.33,3,1.5,3.37a.58.58,0,0,1-.5.44,4.57,4.57,0,0,1-.87.06h-.94a.53.53,0,0,0-.56.38,2.28,2.28,0,0,0,.37,1.38,1.77,1.77,0,0,1,.13,1.5,2.65,2.65,0,0,0,2-1,4.07,4.07,0,0,1,1.75-1.38,60.36,60.36,0,0,1,.43,6.75c0,2.58.07,5.21.07,7.87s.08,5.32.25,7.94A32,32,0,0,0,233.64,47a30,30,0,0,0-7.69.44q-3.44.69-6.93,1.44c-.09-1.42-.69-2.26-1.82-2.5s-2.27-.55-3.43-.88q-1.38.63-2.82,1.38a14.54,14.54,0,0,0-2.62,1.74,6.81,6.81,0,0,0-1.81,2.32,5.19,5.19,0,0,0-.38,3.06,1,1,0,0,0-.94.19,1.21,1.21,0,0,0-.37.69c0,.24-.11.52-.19.81A1.62,1.62,0,0,1,204.27,56.38ZM178.64,15.12c-.83-.08-1.77-.2-2.81-.37l-3.19-.5c-1.08-.17-2.1-.29-3.06-.37s-1.73-.13-2.31-.13a1.84,1.84,0,0,0-1,.5,2,2,0,0,1-.88.5,1.37,1.37,0,0,1-.75-.44,10.59,10.59,0,0,0-1.06-.81,2.7,2.7,0,0,0-1.19-.44,1.5,1.5,0,0,0-1.25.69c-.42.42-.54.79-.37,1.13a5.6,5.6,0,0,1,.37,1.74,2.46,2.46,0,0,1,1.88.69,2.39,2.39,0,0,0,1.87.69,7.31,7.31,0,0,0,.44-.75,1.6,1.6,0,0,1,.56-.63c2.17.5,4.29.92,6.38,1.26a13.4,13.4,0,0,1,5.87,2.5,7.65,7.65,0,0,0,1.5-4.26c.67,0,1,.11,1.06.32s.32.1.82-.32a3.53,3.53,0,0,0-.5-2.37,2.08,2.08,0,0,0-1,0,1.18,1.18,0,0,0-.57.37,2.6,2.6,0,0,0-.31.57A.73.73,0,0,1,178.64,15.12ZM164,72.5a.79.79,0,0,0,1-.19,1.77,1.77,0,0,0,.43-1,1.61,1.61,0,0,0-.25-1.06.94.94,0,0,0-.81-.5c-.5.58-.73,1-.69,1.13S163.85,71.58,164,72.5Zm.87-39.75a10.87,10.87,0,0,0,.44-1,3,3,0,0,0,.06-1.37,1.14,1.14,0,0,0-1,.18,1.18,1.18,0,0,0-.44.75,1.57,1.57,0,0,0,.19.94A.81.81,0,0,0,164.89,32.75Zm3.38,10.87a8.45,8.45,0,0,0-.19-1.81c-.13-.54-.56-.73-1.31-.56a1.59,1.59,0,0,0-.32,1.69C166.66,43.65,167.27,43.88,168.27,43.62Zm-.5,7.63a1.05,1.05,0,0,0,1-.25,1.34,1.34,0,0,0,.25-1.69.81.81,0,0,0-.75-.43A3.42,3.42,0,0,0,167.77,51.25Zm1-2.87c1.75-.17,3.08-.32,4-.44a11,11,0,0,0,3-.94,1.52,1.52,0,0,0-.32-1.38,1.66,1.66,0,0,1-.56-1,6.58,6.58,0,0,1-2.25.13,8.29,8.29,0,0,0-2.25.06,2.2,2.2,0,0,0-1.5.94A3.72,3.72,0,0,0,168.77,48.38Zm2.75,6.12a2.61,2.61,0,0,0,1.93.75,4.89,4.89,0,0,0,2.19-.5,5.1,5.1,0,0,0,1.75-1.44,3.21,3.21,0,0,0,.75-2.06,3.11,3.11,0,0,0-2.06-.94,4.7,4.7,0,0,0-2.25.44,4.29,4.29,0,0,0-1.75,1.5A3.24,3.24,0,0,0,171.52,54.5Zm2.37-43.12a1.35,1.35,0,0,0,.75,1.06,3.82,3.82,0,0,0,1.44.37,10.21,10.21,0,0,0,1.75,0c.62,0,1.23-.06,1.81-.06.75-.83.92-1.56.5-2.19a3.07,3.07,0,0,0-1.87-1.25,4.85,4.85,0,0,0-2.63.13A2.52,2.52,0,0,0,173.89,11.38Zm2.38,50.24A2.25,2.25,0,0,0,178.64,64a2.41,2.41,0,0,0,0-3.25c-.75-.25-1.23-.19-1.44.19A1.32,1.32,0,0,1,176.27,61.62Zm.5-14.24a1.47,1.47,0,0,0,1.12.56,8.93,8.93,0,0,0,1.75-.06c.17-1,0-1.67-.37-2a6.38,6.38,0,0,0-1.5-.88,1.64,1.64,0,0,1-.75,1C176.68,46.17,176.6,46.62,176.77,47.38Zm2.37,20.87c.42-.42.52-.67.31-.75s-.31-.46-.31-1.12c-.92-.17-1.37.14-1.37.93S178.22,68.42,179.14,68.25Zm-.5-42.13a.78.78,0,0,1,.5-.5,2.88,2.88,0,0,1,.88-.12H181a.54.54,0,0,0,.57-.38c.08-.58,0-.95-.32-1.12s-.35-.58-.18-1.25a2.08,2.08,0,0,0,.81-.13,3.37,3.37,0,0,0,.69-.37,11.75,11.75,0,0,1,2.87,2.25,3.81,3.81,0,0,0,3.25,1.12,2,2,0,0,0,.69-1.81,5.44,5.44,0,0,0-.75-1.81c-.38-.58-.77-1.21-1.19-1.88a3.88,3.88,0,0,1-.62-2.12c-.75-.17-1.23-.08-1.44.25a1.93,1.93,0,0,1-.94.75,2.21,2.21,0,0,0-.44-.88,1.12,1.12,0,0,1-.06-1.12,3,3,0,0,0-2.69,1,8,8,0,0,0-1.43,2.62,14.81,14.81,0,0,0-.69,3.07A16.47,16.47,0,0,1,178.64,26.12Zm7.63,15.13a2,2,0,0,1,.37-.81,1.35,1.35,0,0,0,.13-1.06h-1.5C185.1,40.54,185.43,41.17,186.27,41.25Zm3.25-13.75a1.18,1.18,0,0,1,1.06.19,1.27,1.27,0,0,0,.94.31,6.92,6.92,0,0,0,.31-1,9.78,9.78,0,0,0,.25-1.5,2.61,2.61,0,0,0-.19-1.31.71.71,0,0,0-.87-.44,2.36,2.36,0,0,1-1.07,1.5C189.41,25.58,189.27,26.33,189.52,27.5Zm4.37,3.75c.58-1.33.08-2.25-1.5-2.75a2,2,0,0,0-.37,1.94C192.18,31.31,192.81,31.58,193.89,31.25Zm2.38,2.37c0-.58.12-.87.37-.87a1.65,1.65,0,0,0-1.87-1.87,5,5,0,0,0-.32,2.06C194.49,33.65,195.1,33.88,196.27,33.62Zm.37,10.5c.92,0,1.46.24,1.63.69a4.14,4.14,0,0,1,.18,1.63l-.12,1.87a1.49,1.49,0,0,0,.69,1.44,2.78,2.78,0,0,0,1.87-4.06,22.38,22.38,0,0,0-1.25-2.5,9.06,9.06,0,0,1-1-2.44c-.08-.5,0-.83.19-1a3.37,3.37,0,0,1,.75-.44,3.35,3.35,0,0,0,.75-.43c.21-.17.27-.5.19-1q-.63-.63-1.32-1.26a3,3,0,0,0-2.06-.62,4.12,4.12,0,0,0-.56,1.75,13.66,13.66,0,0,0,0,1.81c0,.63.08,1.32.12,2.06A17.9,17.9,0,0,1,196.64,44.12Zm9,8a14.53,14.53,0,0,0-1.62.07,5.21,5.21,0,0,0-.94.19,6.42,6.42,0,0,1-1,.18,13.15,13.15,0,0,1-1.56.06,21.72,21.72,0,0,1,.31,2.82,1.36,1.36,0,0,0,1.56,1.44A2.28,2.28,0,0,1,203,55.5a12,12,0,0,1,1.06-.94,6.9,6.9,0,0,0,1-.94A2.73,2.73,0,0,0,205.64,52.12Zm-1.87,15.26a2,2,0,0,0,1.62-.13,1.64,1.64,0,0,0,.63-1A2.53,2.53,0,0,0,206,65a1.86,1.86,0,0,0-.68-1,5.66,5.66,0,0,1,1-.62,2.49,2.49,0,0,0,.87-.76c-.42-.08-.6-.31-.56-.68a11.28,11.28,0,0,0,.06-1.19,2.74,2.74,0,0,0-1.87.69,2.36,2.36,0,0,0-.57,1.5c0,.62-.06,1.33-.06,2.12A7.31,7.31,0,0,1,203.77,67.38Zm7.12,1.37a2.43,2.43,0,0,1,1.56,0c.63.17.9,0,.82-.5a.77.77,0,0,1-.57-.19.92.92,0,0,1-.25-.44l-.12-.5c0-.16-.19-.24-.44-.24a.69.69,0,0,1-.62.74C210.85,67.71,210.72,68.08,210.89,68.75Zm10.5-56.37a7.89,7.89,0,0,1-2.12,3.06q-1.38,1.19-2.88,2.31a15.92,15.92,0,0,0-2.69,2.56,6.34,6.34,0,0,0-1.31,3.81,5.22,5.22,0,0,1,2.5-.31,23.35,23.35,0,0,0,2.63.31,2.61,2.61,0,0,1,.06-1.74,4.32,4.32,0,0,1,.81-1.13,6.62,6.62,0,0,1,1.06-.87,3.22,3.22,0,0,0,.94-1c-.08,1.58.54,2.37,1.88,2.37.66-.75,1.29-1.48,1.87-2.19a2,2,0,0,1,2.38-.56,1.6,1.6,0,0,0,.56-1.44c0-.62-.06-1.27-.06-1.94a8.06,8.06,0,0,1-2.75-1.68A6.78,6.78,0,0,0,221.39,12.38Zm-6.62,26.5a3,3,0,0,1,2.43-.38A6.45,6.45,0,0,1,219,39.56c.54.46,1.09.94,1.63,1.44a3.1,3.1,0,0,0,2.19.75,4.53,4.53,0,0,0-.5-3.37A8.15,8.15,0,0,0,220,36.06a19,19,0,0,0-2.94-1.62c-1-.46-2-.9-2.81-1.32a2,2,0,0,0-.82,1.32,3.5,3.5,0,0,0,.19,1.44,12,12,0,0,0,.63,1.5A5.52,5.52,0,0,1,214.77,38.88Zm1.87,22.24a7,7,0,0,0-.19-1.74c-.12-.5-.56-.71-1.31-.63a1.5,1.5,0,0,0-.25,1.69C215.14,61.15,215.72,61.38,216.64,61.12Zm.5-28.37a1,1,0,0,1,.69-.37,4.39,4.39,0,0,1,.69.06l.68.12c.21,0,.44-.06.69-.31V29.62c0-.83-.46-1.2-1.37-1.12a3.47,3.47,0,0,0-1.75,1.62A1.92,1.92,0,0,0,217.14,32.75Zm.88,35c.16-1.33-.3-2-1.38-1.87a3,3,0,0,0,.13,1.56C216.93,67.81,217.35,67.92,218,67.75Zm1-63.5c1-1,.83-1.79-.5-2.37a1.25,1.25,0,0,0-.38,1.37A1.53,1.53,0,0,0,219,4.25Zm0,52.63h2.37a1.77,1.77,0,0,0,.44-1.13,8.93,8.93,0,0,0-.06-1.75c-1.34-.67-2.38-.62-3.13.12S218,55.79,219,56.88Zm6.62-44.5A2.54,2.54,0,0,0,227,11.19a17.85,17.85,0,0,1,1.19-1.75,4.87,4.87,0,0,1,1.38-1.25,1.53,1.53,0,0,1,1.75.31c-.17-.83-.09-1.39.25-1.69s.41-.81.25-1.56c-.5-.08-.8,0-.88.25a2.88,2.88,0,0,0-.12.88,3.48,3.48,0,0,1-.13.93c-.08.3-.33.4-.75.31a6,6,0,0,0-1.31-4.24,7.53,7.53,0,0,0-3.44-2A11.9,11.9,0,0,0,223.58,3c-.46.58-1.36.67-2.69.25v2a3.44,3.44,0,0,1,2.5.31,4.38,4.38,0,0,1,1.25,1.56,11.33,11.33,0,0,1-2.06,2.57c-.71.62-1.77.56-3.19-.19v1.88a3.08,3.08,0,0,1,1.56.12l1.38.5a13.37,13.37,0,0,0,1.5.44A4,4,0,0,0,225.64,12.38ZM224.14,36q.5-2.25-.75-2.88a10,10,0,0,0-3-.87,3,3,0,0,0,1.25,2.5A11.46,11.46,0,0,0,224.14,36Zm-2.37,28c.41-.42.47-.79.18-1.12a2.69,2.69,0,0,0-1.06-.76,1.26,1.26,0,0,0-.37,1.38C220.68,64,221.1,64.17,221.77,64Zm-.88,18a1.39,1.39,0,0,1,.94,1.44,16.74,16.74,0,0,1-.06,2.44,6.61,6.61,0,0,0,2.68.5,5.82,5.82,0,0,0,2.57-.5,12.4,12.4,0,0,0,.06-2.13c0-.75.27-1.17.94-1.25a2,2,0,0,0,2-.06,2.57,2.57,0,0,0,1.25-1.82,10.23,10.23,0,0,0-3.13,0,7,7,0,0,1-3.5-.5c.08.92-.06,1.44-.44,1.57a2.81,2.81,0,0,1-1.31.06c-.5-.08-1-.17-1.37-.25S220.89,81.58,220.89,82Zm.88-11.38c.91.17,1.37-.14,1.37-.93s-.46-1.11-1.37-.94c-.42.5-.5.77-.25.81S221.85,70,221.77,70.62Zm4.75-29.87a2,2,0,0,0,1.56-.81,11.34,11.34,0,0,0,.81-1.56,1.37,1.37,0,0,0-1-.82,5,5,0,0,0-1.75-.06,1.94,1.94,0,0,0-.37,1.69A9,9,0,0,0,226.52,40.75Zm2.87,22.37a4.65,4.65,0,0,0,0-2.18c-.17-.54-.33-1.11-.5-1.69h-1.37a2.34,2.34,0,0,0-.44,1.25,3,3,0,0,0,.19,1.38,2.27,2.27,0,0,0,.75,1A1.8,1.8,0,0,0,229.39,63.12Zm1.5-50.74a2.41,2.41,0,0,0,.44-2.07c-.13-1-.61-1.39-1.44-1.31a3,3,0,0,0-.56,2Q229.51,11.63,230.89,12.38Zm-1.5,62.12a2,2,0,0,1,.81.38,1.21,1.21,0,0,0,1.07,0,1.91,1.91,0,0,0-.63-1.57c-.5-.54-.92-.48-1.25.19.33.08.46.21.38.38S229.56,74.25,229.39,74.5Z"/><path class="cls-1" d="M245.77,2.62A36.12,36.12,0,0,0,252.7,3a23.51,23.51,0,0,1,6.32.5,8.79,8.79,0,0,0,1,2.38,8.9,8.9,0,0,1,1,2.37c.58-.25.83-.63.75-1.13a4.62,4.62,0,0,0-.57-1.5c-.29-.5-.56-1-.81-1.43A.91.91,0,0,1,260.52,3q3.38.12,7.06.12c2.46,0,4.91,0,7.37-.06S279.77,3,282,3h6c.33.17.45.58.37,1.25s.08,1,.5,1.13A2,2,0,0,0,289.7,5c0-.08,0-.19-.12-.31l-.44-.44a1,1,0,0,1-.25-.75,46.92,46.92,0,0,1,5.81-.38c1.88,0,3.71,0,5.5.07l5.32.12A30.84,30.84,0,0,0,310.77,3c.08,1.25.16,2.71.25,4.38s.14,3.43.18,5.31.07,3.77.07,5.69v5.5A90.83,90.83,0,0,1,300.7,24a18.32,18.32,0,0,1-8.93-2.5,2.53,2.53,0,0,1-.07,1.31,2.1,2.1,0,0,1-.5.75,3.34,3.34,0,0,1-.75.56,1.15,1.15,0,0,0-.56.76q.5,6.24.44,11.74c0,3.67-.15,7.26-.31,10.76s-.34,6.93-.5,10.31-.21,6.81-.13,10.31q.25,7.62.69,14.81a100,100,0,0,1-.19,14.57q-5.25-.25-10.37-.82A35.85,35.85,0,0,0,269,97q-.88-16.75-.94-33.69t.44-36.06c-.17-.83,0-1.14.43-.94a10.79,10.79,0,0,0,1.07.44c-.42-1.5-.88-3-1.38-4.37a6.2,6.2,0,0,0-2.5-3.26c-.83.76-1,1.34-.62,1.76a6.07,6.07,0,0,1,1.12,1.62,42.21,42.21,0,0,1-4.75.25c-1.67,0-3.4,0-5.19-.13s-3.64-.1-5.56-.06-3.87.19-5.87.44c-.09-1.33-.11-2.85-.07-4.56s.09-3.48.13-5.32.1-3.66.19-5.5S245.68,4.12,245.77,2.62Zm20,15.63a9.1,9.1,0,0,0-1.19-5.13,16,16,0,0,0-3.19-4.37,8.07,8.07,0,0,0,1.13,5.19A17.28,17.28,0,0,0,265.77,18.25Zm3.75,31.25a9.67,9.67,0,0,1,1.31-.88,2.62,2.62,0,0,0,1.06-1,1.12,1.12,0,0,1-.81-.43,1.7,1.7,0,0,0-.69-.57,1.87,1.87,0,0,1-.5.57,5,5,0,0,0-.69.69,1.21,1.21,0,0,0-.31.81Q268.89,49.13,269.52,49.5Zm3.75-8h-1.38c-.5.5-.67,1-.5,1.38a1,1,0,0,0,.75.68,1.09,1.09,0,0,0,.94-.37C273.37,42.9,273.43,42.33,273.27,41.5ZM271.39,32c1.17.08,1.63-.54,1.38-1.88h-1.38Zm1.38-17.12a14.68,14.68,0,0,1,2.5.24A1.52,1.52,0,0,0,277.14,14a1.92,1.92,0,0,0-1.06-.5,4.35,4.35,0,0,0-1.44,0,3.23,3.23,0,0,0-1.31.5A1,1,0,0,0,272.77,14.88Zm2,20.37c-.67.92-.82,1.52-.44,1.81a2.72,2.72,0,0,0,1.31.56,4.31,4.31,0,0,0-2,1.63q-.75,1.13.63,2.25.12-.75.87,0a5.28,5.28,0,0,0,.5-1.75c.08-.67.58-.87,1.5-.63a2.17,2.17,0,0,0,1.38,2.76,3.35,3.35,0,0,0,.68-.63q.32-.37.69-.75a8.14,8.14,0,0,0-2.06-3.06A18.15,18.15,0,0,0,274.77,35.25Zm-.5,26.63c1.33.16,2-.34,1.87-1.5C274.81,60.21,274.18,60.71,274.27,61.88Zm1.87-42.76a2,2,0,0,1,.75-.93c.33-.21.42-.69.25-1.44h-1.5a2.43,2.43,0,0,1,0,1.56C275.47,18.94,275.64,19.21,276.14,19.12Zm0,28.5a1.08,1.08,0,0,1,1-.68c.5,0,.63-.44.38-1.19a1.9,1.9,0,0,0-1.57.63C275.41,46.88,275.47,47.29,276.14,47.62Zm1,19a1.66,1.66,0,0,0,.25-1.93,1.58,1.58,0,0,0-1.75-.94c0,.67,0,1.36.06,2.06S276.22,66.79,277.14,66.62Zm0,16.13a.6.6,0,0,0,.44-.5,3.15,3.15,0,0,0,0-.87,1.64,1.64,0,0,0-.31-.82.53.53,0,0,0-.63-.18,2,2,0,0,0-.31.56,3.17,3.17,0,0,0-.25.87.92.92,0,0,0,.19.75C276.43,82.77,276.72,82.83,277.14,82.75Zm-1,1.37a1,1,0,0,0,.19.94,1.27,1.27,0,0,1,.31.94c.75.17,1.19,0,1.31-.56a5.17,5.17,0,0,0,.07-1.82A2.68,2.68,0,0,0,276.14,84.12Zm1.38-31.74V50.5h-1.38C276,51.83,276.43,52.46,277.52,52.38Zm.5-15.26a1.55,1.55,0,0,1,.75-.87c.33-.17.41-.63.25-1.37a.92.92,0,0,0-1,.06,1.49,1.49,0,0,0-.5.75,1.44,1.44,0,0,0,0,.87A.74.74,0,0,0,278,37.12ZM279.52,77a2.09,2.09,0,0,0,.18-1.44,2.48,2.48,0,0,0-1.18-.94,1.83,1.83,0,0,0-.5,1.63Q278.14,77.26,279.52,77Zm3.75-32.75a19.14,19.14,0,0,1-1.13-1.75c-.33-.58-1.08-.79-2.25-.62a3,3,0,0,0,1.44,2.06C282.2,44.56,282.85,44.67,283.27,44.25Zm-1.38-19.37a1.81,1.81,0,0,0,.44-1.44c0-.63-.36-.94-.94-.94a1.87,1.87,0,0,0-.5,1.38C280.89,24.46,281.22,24.79,281.89,24.88Zm0,8a2.16,2.16,0,0,0,.44,1.24,3.52,3.52,0,0,0,1,1,1.86,1.86,0,0,0,1.06.38c.33,0,.58-.21.75-.62a2.9,2.9,0,0,1-.75-.82,12.39,12.39,0,0,0-.75-1,1.68,1.68,0,0,0-.81-.56A1,1,0,0,0,281.89,32.88Zm3.25-21.26h-2.37c-.17.5-.11.86.18,1.07a1.67,1.67,0,0,0,1,.31,1.4,1.4,0,0,0,.94-.31A1.09,1.09,0,0,0,285.14,11.62Zm0,36c.17-1.33-.29-1.95-1.37-1.87C283.6,47.08,284.06,47.71,285.14,47.62Zm2.38-19.5a1.91,1.91,0,0,1-.57-1.56,8.37,8.37,0,0,1,.32-1.81c.16-.58.29-1.1.37-1.56s-.12-.69-.62-.69a8.89,8.89,0,0,1-.57,1.62,9.44,9.44,0,0,0-.62,1.94,2.59,2.59,0,0,0,.12,1.63C286.16,28.15,286.68,28.29,287.52,28.12Zm1-14.12h1.87c.58,0,.88-.33.88-1-.84-.08-1.48-.17-1.94-.25A1.84,1.84,0,0,0,288,13C288.35,13.08,288.52,13.42,288.52,14Zm4.25,3.25a1.56,1.56,0,0,1-1.57-.5c-.29-.42-.89-.54-1.81-.37a2.69,2.69,0,0,1-.31,2.18A10.91,10.91,0,0,0,288,20.12c1.16-.16,1.6,0,1.31.57a10.26,10.26,0,0,1-.81,1.31,2.16,2.16,0,0,0,2.75-1.38,6.92,6.92,0,0,1-1-.74c-.5-.42-.46-.67.12-.76q.63.89,1.5-.06A2.74,2.74,0,0,0,292.77,17.25Zm-2.88-6.13c.92-.66,1.38-.83,1.38-.5s.33.8,1,1.38a4.06,4.06,0,0,0,.06-1.25,3.15,3.15,0,0,0-.5-1.44,4.21,4.21,0,0,0-1.19-1.19,2.52,2.52,0,0,0-1.75-.37c-.25,1-.15,1.63.31,1.87A1.57,1.57,0,0,1,289.89,11.12Zm4.75.5c0,1.17,0,2.24.13,3.19a4.62,4.62,0,0,0,.87,2.44,2.85,2.85,0,0,1,0-1.69c.17-.62.35-1.23.56-1.81a5,5,0,0,0,.32-1.69,2.27,2.27,0,0,0-.5-1.44,2.39,2.39,0,0,1-.07.82s-.12,0-.25,0l-.5-.13C295,11.27,294.81,11.38,294.64,11.62Zm.5-1.5a4.39,4.39,0,0,1,1-1.31A3,3,0,0,0,297,7.25c-.34,0-.55-.08-.63-.25s-.33-.21-.75-.12a7.26,7.26,0,0,0-.31.74c-.13.34-.25.67-.38,1a2.83,2.83,0,0,0-.18.94A.52.52,0,0,0,295.14,10.12Z"/><path class="cls-1" d="M349.76,4.25A3.63,3.63,0,0,1,349,5.88,6.84,6.84,0,0,1,347.64,7a9.38,9.38,0,0,0-1.38,1.12,2.92,2.92,0,0,0-.75,1.76c-.66.16-1,0-1.12-.44s-.5-.61-1.25-.44a1.91,1.91,0,0,0-.75,1.12,6.45,6.45,0,0,0-.13,1.19,2.72,2.72,0,0,1-.25,1.13,1.71,1.71,0,0,1-1.25.81,1.14,1.14,0,0,0,1.25.25,13.58,13.58,0,0,0,1.5-.62,7.08,7.08,0,0,1,1.5-.57,1.66,1.66,0,0,1,1.5.44,2,2,0,0,1-.87,1.13c-.42.24-.86.5-1.31.74a4.3,4.3,0,0,0-1.13.88,2.22,2.22,0,0,0-.44,1.5c0,.92.3,1.48.88,1.69a2.32,2.32,0,0,0,1.87-.19,6.64,6.64,0,0,0,.07,2.06,1.41,1.41,0,0,0,.93,1.19,9.18,9.18,0,0,1,.82-2.5,17.23,17.23,0,0,1,1.25-2.13c.45-.66.93-1.39,1.43-2.18a12.12,12.12,0,0,0,1.25-2.69c1.09-.17,1.82,0,2.19.5a2.75,2.75,0,0,0,1.56,1,27.2,27.2,0,0,1,2.63,6.44A35.67,35.67,0,0,0,360.26,27a9.25,9.25,0,0,0,2.5,3.06,12.9,12.9,0,0,1,2.75,3.06c.5.92,1.15,2.15,1.94,3.69S369,40,369.76,41.75s1.46,3.48,2.13,5.19,1.21,3.1,1.62,4.18a8,8,0,0,1,.57,3.19A6,6,0,0,1,373,57.38a13.36,13.36,0,0,1,1.63,2.93A7.88,7.88,0,0,0,376.39,63a.91.91,0,0,0,.75-.06,1.1,1.1,0,0,0,.37-.5.8.8,0,0,1,.38-.44,1.23,1.23,0,0,1,.87.12,15.25,15.25,0,0,0,1.69,5.07c.88,1.62,1.77,3.21,2.69,4.75a34.93,34.93,0,0,1,2.31,4.56,7.31,7.31,0,0,1,.44,4.5,35,35,0,0,1,3.5,5.31,21.23,21.23,0,0,1,2.12,6.57q-3.87.24-10,0a90.94,90.94,0,0,0-13.25.5,5.54,5.54,0,0,0-1-2.5,5.13,5.13,0,0,1-.87-2.76,2,2,0,0,1,1.31-.24,4.36,4.36,0,0,1,1.13.43c.37.21.77.42,1.18.63a2.79,2.79,0,0,0,1.63.18c.33-.24.46-.47.37-.68a1.48,1.48,0,0,0-.37-.56,1.66,1.66,0,0,1-.38-.63c-.08-.25.05-.58.38-1a14.81,14.81,0,0,0-6.13,0,18.32,18.32,0,0,0-.87-3.69,9.52,9.52,0,0,0-1.63-3,4.66,4.66,0,0,0-2.5-1.56,5.53,5.53,0,0,0-3.62.62c0-.66,0-1.29.06-1.87s-.27-.87-.94-.87c-.25,0-.39.14-.43.43a5.3,5.3,0,0,0-.07.88,6.36,6.36,0,0,1-.06.87.62.62,0,0,1-.44.56,22.68,22.68,0,0,1-4.43.07c-1.46-.13-2.88-.29-4.25-.5l-4.07-.63a26.06,26.06,0,0,0-3.87-.31q-3.5.12-5,1.5a7.59,7.59,0,0,0-2.13,3.56c-.41,1.46-.79,3.13-1.12,5A16.49,16.49,0,0,1,328,92.88a105,105,0,0,0-12.18.18,58.45,58.45,0,0,1-11.07-.18c.17-1.76.42-3.46.75-5.13a4.28,4.28,0,0,1,2.63-3.37,1.44,1.44,0,0,1-.5-.94,2.58,2.58,0,0,1,.19-.94,8.2,8.2,0,0,0,.31-1.06,3.64,3.64,0,0,0,0-1.32,56.43,56.43,0,0,0,3.62-8.81q1.5-4.68,2.94-9.43t3-9.44a61.84,61.84,0,0,1,3.69-8.82,5.09,5.09,0,0,1,.44-3.62,6.41,6.41,0,0,0,.93-3.12c.42-.17.88-.34,1.38-.5a1.53,1.53,0,0,0,1-.88,1,1,0,0,0-.13-.88,7.26,7.26,0,0,0-.56-.5,3.3,3.3,0,0,1-.56-.56,1.11,1.11,0,0,1-.13-.94,85,85,0,0,0,5.63-16.5.46.46,0,0,1,.56-.31c.29,0,.58.11.88.19a7.73,7.73,0,0,0,.81.19c.25,0,.46-.15.62-.57,0-.58-.08-.87-.25-.87a1.9,1.9,0,0,0-.62.13,1.4,1.4,0,0,1-.69.06c-.21,0-.31-.32-.31-.82a19,19,0,0,0,1.94-4.62Q333,7,333.64,4.25c1.75-.08,3.27-.13,4.56-.13s2.52,0,3.69.07l3.56.12C346.66,4.36,348.1,4.33,349.76,4.25Zm-35,74c.42-.67.75-1.21,1-1.63a4,4,0,0,1,1.75-1.24,5.36,5.36,0,0,1-1.75-.44c-.75-.29-1.25-.15-1.5.44.25,0,.4.1.44.31a4.47,4.47,0,0,1,.06.81,7,7,0,0,1-.06.94A1.81,1.81,0,0,0,314.76,78.25Zm6.13,4.25h1.87c.17-1.25-.12-1.88-.87-1.88a.71.71,0,0,1-.63.76C320.85,81.46,320.72,81.83,320.89,82.5Zm20.37-34.12c-.25,0-.39-.09-.43-.26a5.22,5.22,0,0,1-.13-.56,1,1,0,0,0-.25-.5.77.77,0,0,0-.56-.18,3.73,3.73,0,0,0-.25,1.43c0,.55,0,1.07.06,1.57s.11,1,.19,1.43.08.73,0,.81a1.45,1.45,0,0,1-1.25-.5,5.39,5.39,0,0,1-.63-1.06,4.09,4.09,0,0,0-.62-1,1.52,1.52,0,0,0-1.38-.31,4.65,4.65,0,0,0,.44,2.19,5.06,5.06,0,0,0,1.06,1.37,8.33,8.33,0,0,0,1.25.94,12.31,12.31,0,0,1,1.13.75,3.72,3.72,0,0,0-.06,1.19.57.57,0,0,1-.44.69,5.28,5.28,0,0,1-1-1.38A2,2,0,0,0,337,54a1.32,1.32,0,0,1-1,.81,4.9,4.9,0,0,0-1.37.57.64.64,0,0,0,.06.81,7.65,7.65,0,0,1,.56.62,2.18,2.18,0,0,1,.32.5c0,.13-.11.27-.44.44a2.65,2.65,0,0,0-1-.37,6.26,6.26,0,0,0-1.31-.13,3,3,0,0,0-1.25.25,1.11,1.11,0,0,0-.69.75c.25-.75.19-1.14-.19-1.19a1,1,0,0,1-.81-.68,3.84,3.84,0,0,1-2.75.81,5.46,5.46,0,0,0-2.88.56v2.37q4.88-.12,8.69-.31a15.7,15.7,0,0,1,7.81,1.81,7.65,7.65,0,0,1,5.44,0q2.19,1,4.56,2.38a13.4,13.4,0,0,0,1.82-1.94,3.26,3.26,0,0,1,2.93-.94,29.44,29.44,0,0,0-.56-7A33.05,33.05,0,0,0,346,37.38a2.58,2.58,0,0,0-1.81,2.12,29.57,29.57,0,0,0-.44,3.5,20.3,20.3,0,0,1-.5,3.44A2.47,2.47,0,0,1,341.26,48.38Zm-15.62,1.37a9.36,9.36,0,0,1,1.75-.44,5.22,5.22,0,0,1,1.12,0c.34,0,.73.09,1.19.13a8.29,8.29,0,0,0,2.06-.19,2.65,2.65,0,0,1,.5-1.87,8.31,8.31,0,0,1-3.56.56,10.65,10.65,0,0,1-3.06-1.06,2.31,2.31,0,0,0,0,2.87Zm4.25-18a1.87,1.87,0,0,0-1.38-.5h-1.87a6.31,6.31,0,0,1-.38,1.5,4.77,4.77,0,0,0-.31,1.19A2,2,0,0,0,327,36a3.38,3.38,0,0,1,1.44-1.5,6.18,6.18,0,0,1,1.94-.5c.75-.08,1.56-.14,2.44-.19a8.29,8.29,0,0,0,2.81-.69,5.07,5.07,0,0,1,.31,1.57c0,.62.4.89,1.06.81a1.67,1.67,0,0,0,.5-1.62,9.47,9.47,0,0,1,0-2.13c.92-.17,1.77-.35,2.57-.56s1-1,.68-2.31a25,25,0,0,1-2.81.37c-1,.08-2.08.19-3.12.31a15.06,15.06,0,0,0-2.88.63A3.88,3.88,0,0,0,329.89,31.75Zm-1.38-1.5a5.88,5.88,0,0,1,1.57-.69,7.28,7.28,0,0,0,1.68-.68V27a5.45,5.45,0,0,0-3,.88C327.85,28.46,327.76,29.25,328.51,30.25Zm1.38,12.87a5.4,5.4,0,0,0-.06-1.81c-.13-.54-.57-.73-1.32-.56a5.12,5.12,0,0,0,.07,1.81C328.7,43.11,329.14,43.29,329.89,43.12Zm-.5,24.63a1.18,1.18,0,0,0,1.06-.19,1,1,0,0,0,.31-.75,1.7,1.7,0,0,0-.25-.87,1.11,1.11,0,0,0-.62-.56,3.61,3.61,0,0,1-.69,1.24C328.91,67,329,67.33,329.39,67.75Zm2-22.75h2.25c.33-.67.44-1.14.31-1.44s-.35-.77-.69-1.44h-1.87a4.9,4.9,0,0,0-.38,1.44A4.82,4.82,0,0,0,331.39,45Zm0,7.62a1.52,1.52,0,0,0,.94.38,7.75,7.75,0,0,0,.93-.06l.94-.13a1.58,1.58,0,0,1,.94.19,1.19,1.19,0,0,0-.5-1,1.83,1.83,0,0,0-1.13-.38,3.33,3.33,0,0,0-1.25.26A1.58,1.58,0,0,0,331.39,52.62Zm2.75-37.5a2,2,0,0,1,.37-1.31,3.77,3.77,0,0,0,.63-1.06c-.5,0-.79-.19-.88-.56s-.41-.52-1-.44a2,2,0,0,0-.43,2A1.74,1.74,0,0,0,334.14,15.12Zm.5.5c.58-.08,1,0,1.12.32s.59.35,1.25.18a1.16,1.16,0,0,0-.18-1,1.25,1.25,0,0,0-.82-.43,1.45,1.45,0,0,0-.93.19A.78.78,0,0,0,334.64,15.62Zm1.87-2.87a1.46,1.46,0,0,0,.38-1.69,1.86,1.86,0,0,0-1.25-1.18,2.31,2.31,0,0,0-.56,1.87C335.12,12.58,335.6,12.92,336.51,12.75Zm-.87,10.87a2,2,0,0,1,1.5.94c.33.55.75.56,1.25.06a9.35,9.35,0,0,1-.75-2.12A1.6,1.6,0,0,0,336,21.25c-.25.75-.29,1.19-.12,1.31S336,23,335.64,23.62Zm3.25,43.63h-2.38a1.14,1.14,0,0,0,.32,1.13,1.45,1.45,0,0,0,.93.37,1.23,1.23,0,0,0,.88-.37A1.25,1.25,0,0,0,338.89,67.25Zm-.5-51.13a3.34,3.34,0,0,0,2.37-.68c.75-.54.63-1-.37-1.32a2,2,0,0,1-1.06.88A1.55,1.55,0,0,0,338.39,16.12Zm0,49.76c1-.34,1.64-.3,1.94.12a2.37,2.37,0,0,0,1.43.88,2.6,2.6,0,0,1-.43-1.82q.06-1.19-.57-1.56c.09.5.05.83-.12,1a2.28,2.28,0,0,1-.69.44c-.29.12-.6.25-.94.37A.94.94,0,0,0,338.39,65.88Zm2.87-43.63a1.65,1.65,0,0,0-1.87,1.87,4.86,4.86,0,0,1,.81,2.19,3.24,3.24,0,0,0,1.06,2.07,16.74,16.74,0,0,0,4.5.12c1.42-.17,2.82-.35,4.19-.56s2.75-.4,4.13-.56a15,15,0,0,1,4.31.12c.5-1.5.46-2.54-.13-3.12a3.67,3.67,0,0,0-2.43-1,8.54,8.54,0,0,0-3.32.43,9.66,9.66,0,0,0-2.75,1.31,2.7,2.7,0,0,0-1-1.56,3.31,3.31,0,0,0-2.25-.44c-.33.17-.48.38-.43.63a3.48,3.48,0,0,0,.18.69,3.13,3.13,0,0,1,.19.62c0,.21-.1.36-.44.44a2.12,2.12,0,0,1-1.31-.75,5.14,5.14,0,0,1-.5-1.06,3.66,3.66,0,0,0-.56-1.07,3,3,0,0,0-1.38-.87c.5,0,.67-.37.5-1.13a3.15,3.15,0,0,1,0-1.74q-.75,0-.87-.57c-.08-.37-.46-.48-1.13-.31a3,3,0,0,0-.68,2.25A3.92,3.92,0,0,0,341.26,22.25Zm-.87,47.87a2.26,2.26,0,0,1,.31-1.31,2,2,0,0,0,.06-1.56h-1.37v1.94C339.39,69.81,339.72,70.12,340.39,70.12ZM339.89,8h1.37c.17-1.33-.29-2-1.37-1.88Zm5.25,65.88a8.12,8.12,0,0,0,.37,1.56c.17.46.67.6,1.5.44V73.5A2.33,2.33,0,0,0,345.14,73.88ZM349.39,64a1.14,1.14,0,0,0-.81-.38,3.29,3.29,0,0,0-.88.13c-.29.08-.6.17-.94.25a3.25,3.25,0,0,1-1.25,0,8.74,8.74,0,0,0,.57,6.06A5.87,5.87,0,0,0,350.76,73a5.91,5.91,0,0,0-.18-2.38,4,4,0,0,0-.94-1.5A9.38,9.38,0,0,0,348.26,68,5.67,5.67,0,0,1,347,66.88a2.62,2.62,0,0,1,.19-1.26,1.17,1.17,0,0,1,.5-.37l.75-.31A2.5,2.5,0,0,0,349.39,64Zm.87,12.75a2.29,2.29,0,0,0,1.94-.13,2,2,0,0,0,1.44-1.74,1.19,1.19,0,0,0-.94-.88,2.67,2.67,0,0,0-1.37.12,1.93,1.93,0,0,0-1.07,1A1.86,1.86,0,0,0,350.26,76.75ZM353.14,18a1.85,1.85,0,0,0,.5-1.62c-.08-.67-.58-.92-1.5-.76A1,1,0,0,0,352,17,2.15,2.15,0,0,0,353.14,18Zm1,31.25c.33.08.46.42.37,1,1.17-.58,2-.69,2.44-.31a4.11,4.11,0,0,1,1.13,1.62q.44,1.06.93,2.19A2,2,0,0,0,360.76,55a4.15,4.15,0,0,0,.38-2.81,15.36,15.36,0,0,0-.88-3.44,15.69,15.69,0,0,1-3.62-.37A2.27,2.27,0,0,0,354.14,49.25Zm2.37,24.25a1.57,1.57,0,0,0,.75-1.81A2,2,0,0,0,356,70.12a1.16,1.16,0,0,0-.75.69,3.21,3.21,0,0,0-.25,1.25,1.68,1.68,0,0,0,.38,1.13A1.14,1.14,0,0,0,356.51,73.5Zm0-3.88a4.19,4.19,0,0,0,2.32-.12,1.66,1.66,0,0,0,.93-1.75,1.05,1.05,0,0,1-.37-.94c0-.45-.33-.6-1-.43a9.1,9.1,0,0,0-1.81,1.18C356,68,356,68.71,356.51,69.62Zm.38-6.62h2a18.71,18.71,0,0,0,.5-1.88c.17-.74-.17-1.2-1-1.37a3.22,3.22,0,0,0-1.75,1.19C356.14,61.56,356.22,62.25,356.89,63Zm3.87.5a13.93,13.93,0,0,1,1.88,1.12,4.71,4.71,0,0,0,2.37.76,1.77,1.77,0,0,0,.44-1.13c0-.5.06-1.08.06-1.75a16.51,16.51,0,0,0-2.93-.69C361.62,61.69,361,62.25,360.76,63.5Zm5.63-6.12a2.27,2.27,0,0,0-.81-2.44,6.65,6.65,0,0,0-2.44-.94,3.86,3.86,0,0,0,.62,3.25C364.43,58.08,365.31,58.12,366.39,57.38Zm1.5,3.24a.75.75,0,0,0,.94-.18,2.46,2.46,0,0,0,.62-1.06,1.49,1.49,0,0,0-.12-1.19,2,2,0,0,0-1.44-.81,2.5,2.5,0,0,0-.88,1.68A1.43,1.43,0,0,0,367.89,60.62Zm.37-15.12c.92.17,1.38-.14,1.38-.94s-.46-1.1-1.38-.94Zm2,23.62V67.25c-.91-.17-1.37.15-1.37.94S369.35,69.29,370.26,69.12Zm.88-8.5a1,1,0,0,0,.25,1,1.33,1.33,0,0,0,1.69.26.82.82,0,0,0,.43-.76,3.26,3.26,0,0,1-1.12-.74C372.06,60,371.64,60.12,371.14,60.62Zm8.62,7.13a4.58,4.58,0,0,0-2.31-2.87c-1.12-.59-2.27-1.21-3.44-1.88a3.86,3.86,0,0,0,.63,2.19,5.35,5.35,0,0,0,1.5,1.5,7.58,7.58,0,0,0,1.87.87A3.85,3.85,0,0,0,379.76,67.75ZM374.51,72c1.34.58,2.13.12,2.38-1.38a2.13,2.13,0,0,1-.88-.43.94.94,0,0,0-1-.07,1.25,1.25,0,0,1-.31.94A1,1,0,0,0,374.51,72Zm3.75,12.38c.59-.09,1,0,1.13.31s.58.35,1.25.19a2.26,2.26,0,0,0,.44-2,1.54,1.54,0,0,0-1-1.07,1.5,1.5,0,0,0-1.38.38C378.24,82.56,378.1,83.29,378.26,84.38ZM381.14,81a4,4,0,0,0-.13-1.75c-.16-.5-.58-.71-1.25-.63a1.63,1.63,0,0,0-.37,1.82C379.64,81.15,380.22,81.33,381.14,81Zm-1.38,8.62h1.88c.58-1.41.08-2.54-1.5-3.37q-.87.87-.75,1.44C379.47,88.06,379.6,88.71,379.76,89.62ZM383,73.88a.55.55,0,0,0-.68-.44,11.28,11.28,0,0,1-1.19.06c-.25.42-.27.75-.06,1a1.46,1.46,0,0,0,.81.5.94.94,0,0,0,.87-.19A.87.87,0,0,0,383,73.88Z"/><path class="cls-1" d="M441.77,10.75a2.07,2.07,0,0,0,.56-1.69,3.44,3.44,0,0,0-.75-1.31L440.45,6.5a2.2,2.2,0,0,1-.56-1.5,41.79,41.79,0,0,1,5.94,2.31,32.17,32.17,0,0,1,5.44,3.44,1.2,1.2,0,0,1-1,.75c-.5.08-.63.58-.38,1.5q2.37.63,1.88-1.88A45.52,45.52,0,0,1,459.08,19a23.78,23.78,0,0,1,4.06,11.12q-2.25-.12-5.37-.12h-6.5q-3.37,0-6.63-.06c-2.17,0-4.08-.15-5.75-.32,0-.58.15-.93.44-1.06a1.84,1.84,0,0,1,.94-.12,3.62,3.62,0,0,0,.93,0q.44-.06.57-.69a1.51,1.51,0,0,0-1.57-1.31c-.87,0-1.77-.06-2.68-.06a8.46,8.46,0,0,0-5.32-4.13A15.18,15.18,0,0,0,425,22a17,17,0,0,0-6.75,3,10,10,0,0,0-3.93,5.62,36.36,36.36,0,0,0-.82,5.13c-.21,2.08-.37,4.33-.5,6.75s-.23,4.9-.31,7.44-.17,4.94-.25,7.18a32,32,0,0,0,.5,8.19,17,17,0,0,0,2.44,6.19,9,9,0,0,0,4.31,3.5,10.3,10.3,0,0,0,6,.25,7.18,7.18,0,0,0,4.94.44,8.89,8.89,0,0,0,3.81-2.38,15.18,15.18,0,0,0,2.75-4.06,31.13,31.13,0,0,0,1.75-4.5,53.55,53.55,0,0,0,11.13.37q5.87-.36,12.62-1.37a31.72,31.72,0,0,1-2.94,12.81A28.08,28.08,0,0,1,452.39,86a34.67,34.67,0,0,1-10.75,6.06,45.75,45.75,0,0,1-13.12,2.56c-.5,0-.78-.12-.82-.37a4.74,4.74,0,0,1-.06-.75,2.45,2.45,0,0,0-.12-.75c-.09-.25-.38-.42-.88-.5-.58.08-.79.48-.62,1.19a4.29,4.29,0,0,1,.12,1.68,39.35,39.35,0,0,1-15.25-3.74A46.4,46.4,0,0,1,400,83.75c-.59-.58-.63-1.1-.13-1.56a2,2,0,0,0,.63-1.81c-.5-.26-.84-.3-1-.13a1.17,1.17,0,0,0-.32.69,1.9,1.9,0,0,1-.25.75c-.12.21-.39.27-.81.19-.92-1.84-1.87-3.73-2.87-5.69s-1.94-4-2.82-6.19a43.91,43.91,0,0,1-2.12-6.94,31.92,31.92,0,0,1-.69-7.81c0-2.83,0-5.69.13-8.56s.2-5.69.37-8.44a43.67,43.67,0,0,1,2-12.06,63.37,63.37,0,0,1,4.13-9.81,41.42,41.42,0,0,0,6.25-4.82A32,32,0,0,1,409,6.88c2.58.24,4.33-.38,5.25-1.88,1.66,0,3.37-.06,5.12-.19s3.52-.27,5.31-.43,3.65-.26,5.57-.26a47.37,47.37,0,0,1,5.87.38c.67,1.33,1.35,2.62,2.06,3.88A5,5,0,0,0,441.77,10.75ZM391,52a2.49,2.49,0,0,0,.5,1.38c1.08.08,1.54-.55,1.37-1.88A2.65,2.65,0,0,0,391,52Zm1.87,4.25c1.33-.08,2-.87,1.88-2.37a1.75,1.75,0,0,1-.82-.44c-.21-.21-.56-.23-1.06-.06a2.31,2.31,0,0,0,0,2.87Zm1.88,11.37a2.36,2.36,0,0,1,1.56.44c.62.38,1.06.23,1.31-.44q0-.24-.06-.81a2.47,2.47,0,0,0-.38-1.06,2.43,2.43,0,0,0-.87-.81,2.59,2.59,0,0,0-1.56-.19Zm1.5-12.87c-.17.58-.34,1.19-.5,1.81a1.4,1.4,0,0,0,.5,1.56c1.16-.41,2.27-.83,3.31-1.24a4.3,4.3,0,0,0,2.31-2.13c-.25-.58-.58-.87-1-.87a3.12,3.12,0,0,0-1.31.31,11.7,11.7,0,0,1-1.56.56A3.07,3.07,0,0,1,396.27,54.75Zm1.37-7.5c.17-.58.31-1.19.44-1.81a4.67,4.67,0,0,1,.56-1.56,1.46,1.46,0,0,0-1.44.18,1.73,1.73,0,0,0-.5,1.06,3,3,0,0,0,.19,1.32A1.14,1.14,0,0,0,397.64,47.25ZM399.52,50a1.44,1.44,0,0,0,.31,1.06A1,1,0,0,1,400,52c.75,0,1.45,0,2.12-.06s.92-.52.75-1.44c0-.67-.48-1-1.44-1A2.76,2.76,0,0,0,399.52,50Zm0,29a2.12,2.12,0,0,1,.93.38,1.43,1.43,0,0,0,1.07.12,1.38,1.38,0,0,1,.12-1.5,7.16,7.16,0,0,1,.94-1,1.9,1.9,0,0,0,.56-.69q.12-.3-.75-.69c-.67.92-1.12,1.59-1.37,2A4.89,4.89,0,0,1,399.52,79Zm1-6.12h2.87c.17-1.26-.17-1.92-1-2a.72.72,0,0,1-.31.68,4.67,4.67,0,0,1-.63.32,3.59,3.59,0,0,0-.62.31A.72.72,0,0,0,400.52,72.88Zm3.37-27.13c1.08.08,1.54-.54,1.38-1.87C404.1,43.79,403.64,44.42,403.89,45.75Zm2.75,21.37h-1.87c-.25,1.17-.19,2,.18,2.38a1.18,1.18,0,0,0,1.13.5,1.48,1.48,0,0,0,.94-.88A2.12,2.12,0,0,0,406.64,67.12Zm.5-19c.92,0,1.35-.14,1.31-.43a14.73,14.73,0,0,0-.31-1.44c-.92.08-1.35.27-1.31.56A9.47,9.47,0,0,0,407.14,48.12Zm0-15.12a.85.85,0,0,0,.13,1,1.46,1.46,0,0,0,.87.44,1.47,1.47,0,0,0,.94-.19.82.82,0,0,0,.44-.75,7.6,7.6,0,0,1-1.13-.81C408.06,32.4,407.64,32.5,407.14,33Zm1.38,39.38c.33-.76.54-1.07.62-.94a1.68,1.68,0,0,1,.13.81c0,.42,0,.83.06,1.25s.27.5.69.25a2.93,2.93,0,0,1,.06-1.37c.12-.5.23-1,.31-1.38a1.54,1.54,0,0,0-.12-1.06c-.17-.29-.59-.44-1.25-.44a1.09,1.09,0,0,1,0,1,4.75,4.75,0,0,1-.57.69,2.1,2.1,0,0,0-.43.56C407.93,71.92,408.1,72.12,408.52,72.38Zm.5-46.5c.91.16,1.37-.15,1.37-.94s-.46-1.11-1.37-.94Zm5.25,59.24a2.71,2.71,0,0,1,.75-1.06c.33-.29.41-.89.25-1.81a3.36,3.36,0,0,0-2.38-.37Q412.52,84.63,414.27,85.12Zm-1-69.74a2.15,2.15,0,0,0,1.18.12,1,1,0,0,0,.63-.44,5.51,5.51,0,0,1,.44-.62,1.25,1.25,0,0,1,.62-.44c.42.75.94,1,1.56.88a6,6,0,0,1,2.69.12c.08-1.25-.21-2-.87-2.38a3.58,3.58,0,0,0-2.32-.24,5.74,5.74,0,0,0-2.5,1.18A3.82,3.82,0,0,0,413.27,15.38Zm5.25,68.87a4.29,4.29,0,0,0,1.81,4.13,5.84,5.84,0,0,0,3.94,1,1.87,1.87,0,0,0-.57,1.24,7,7,0,0,0,.07,1.63c.75-.08,1.16-.31,1.25-.69a3.91,3.91,0,0,0,0-1.37c-.09-.54-.17-1.08-.25-1.63a2.13,2.13,0,0,1,.37-1.56,4.28,4.28,0,0,1-1.5-.94c-.5-.45-1-.89-1.5-1.31a4.27,4.27,0,0,0-1.62-.87A2.58,2.58,0,0,0,418.52,84.25ZM426.64,15a1,1,0,0,0,1.06-.31,1.59,1.59,0,0,0,.32-.94,1.3,1.3,0,0,0-.32-.87,1.05,1.05,0,0,0-1.06-.26ZM429,8.75a1,1,0,0,0,.93-.19,1,1,0,0,1,.94-.18c0-.67-.25-1.07-.75-1.19a14.14,14.14,0,0,0-1.62-.31,1,1,0,0,0,.18.93A1.27,1.27,0,0,1,429,8.75Zm.87,6.25a2.67,2.67,0,0,1,1.44-.31c.46,0,.87.06,1.25.06a1.17,1.17,0,0,0,.87-.31,2.18,2.18,0,0,0,.32-1.44,5.18,5.18,0,0,1-1.25.25,1.73,1.73,0,0,1-.69-.13,6.51,6.51,0,0,1-.69-.31,3.1,3.1,0,0,0-1.25-.19c-.42.42-.52.76-.31,1A2.24,2.24,0,0,1,429.89,15Zm2.88,62.5V79h2.37c.25-.92,0-1.5-.69-1.75A1.48,1.48,0,0,0,432.77,77.5Zm6.12,1a6,6,0,0,0-2.37,1.56A8.89,8.89,0,0,0,435,82.31a4.7,4.7,0,0,0-.43,2.5A3.17,3.17,0,0,0,435.64,87a2.32,2.32,0,0,0,.25-1.25V83.94a8.39,8.39,0,0,1,.19-1.82,1.68,1.68,0,0,1,.94-1.24,1.27,1.27,0,0,0,1,.81,3.54,3.54,0,0,0,1.31-.13,5.68,5.68,0,0,1,1.44-.18,2.64,2.64,0,0,1,1.5.5.91.91,0,0,1-.88.74,9.11,9.11,0,0,1-1.19-.06,2.28,2.28,0,0,0-.93.06c-.25.09-.38.46-.38,1.13A12.63,12.63,0,0,0,444,83.5c1.54-.42,2.4-1.62,2.57-3.62-1.17-.42-2.17-.76-3-1a4.16,4.16,0,0,0-3.13.62.73.73,0,0,0-.19-.56,1.74,1.74,0,0,1-.31-.44,12,12,0,0,1,1-1.69,7.81,7.81,0,0,0,.81-1.37,5.61,5.61,0,0,0,.44-1.63,19.46,19.46,0,0,0,.13-2.43,8.82,8.82,0,0,0-2.07,3.24C439.74,75.88,439.31,77.17,438.89,78.5Zm-.37,9c1.33.25,2-.38,1.87-1.88a1.5,1.5,0,0,0-1.06-.5,1.27,1.27,0,0,0-.94.38,1.51,1.51,0,0,0-.44.94A1.21,1.21,0,0,0,438.52,87.5Zm5.12,0a1.18,1.18,0,0,0,.5-1.19,2.06,2.06,0,0,0-.56-1.12,2.14,2.14,0,0,0-1.13-.57,1.18,1.18,0,0,0-1.18.5,1.17,1.17,0,0,1,.18.57,4.63,4.63,0,0,0,.25.93,2,2,0,0,0,.57.82C442.52,87.65,443,87.67,443.64,87.5Zm1.5-73a5.57,5.57,0,0,1,1.38.69,2.45,2.45,0,0,0,1.87.19,5.29,5.29,0,0,0-.62-2.13A2.47,2.47,0,0,0,446,12.12a1.73,1.73,0,0,1-.57,1A1.53,1.53,0,0,0,445.14,14.5Zm5.13,3.25a1.51,1.51,0,0,0,1.62.06,1.93,1.93,0,0,0,.81-1.06,1.48,1.48,0,0,0-.18-1.25,1.14,1.14,0,0,0-1.25-.5,1.75,1.75,0,0,0-.44,1.44A1.31,1.31,0,0,1,450.27,17.75Zm1,6.75a3.55,3.55,0,0,0,2.5.19c1.16-.21,1.75-.77,1.75-1.69a3.2,3.2,0,0,0-1.57-.12,4.76,4.76,0,0,1-2.18-.38,1.07,1.07,0,0,1-.25,1.06A.89.89,0,0,0,451.27,24.5Z"/><path class="cls-1" d="M465.39,2.62a36.23,36.23,0,0,0,6.94.38,23.43,23.43,0,0,1,6.31.5,8.79,8.79,0,0,0,1,2.38,8.59,8.59,0,0,1,1,2.37c.58-.25.83-.63.75-1.13a4.38,4.38,0,0,0-.56-1.5c-.29-.5-.56-1-.81-1.43A.92.92,0,0,1,480.14,3q3.38.12,7.06.12c2.46,0,4.92,0,7.38-.06S499.39,3,501.64,3h6c.33.17.46.58.38,1.25s.08,1,.5,1.13a2,2,0,0,0,.81-.38c0-.08,0-.19-.13-.31l-.43-.44a1,1,0,0,1-.25-.75,46.8,46.8,0,0,1,5.81-.38c1.87,0,3.71,0,5.5.07l5.31.12A30.84,30.84,0,0,0,530.39,3c.08,1.25.17,2.71.25,4.38s.15,3.43.19,5.31.06,3.77.06,5.69v5.5a90.65,90.65,0,0,1-10.56.12,18.39,18.39,0,0,1-8.94-2.5,2.66,2.66,0,0,1-.06,1.31,2.24,2.24,0,0,1-.5.75,3.34,3.34,0,0,1-.75.56,1.15,1.15,0,0,0-.56.76q.5,6.24.43,11.74t-.31,10.76c-.17,3.5-.33,6.93-.5,10.31S508.93,64.5,509,68q.24,7.62.68,14.81a101.45,101.45,0,0,1-.18,14.57q-5.25-.25-10.38-.82a35.85,35.85,0,0,0-10.5.44q-.87-16.75-.94-33.69t.44-36.06c-.17-.83,0-1.14.44-.94a10.83,10.83,0,0,0,1.06.44c-.42-1.5-.87-3-1.37-4.37a6.25,6.25,0,0,0-2.5-3.26c-.84.76-1,1.34-.63,1.76a6.08,6.08,0,0,1,1.13,1.62,42.34,42.34,0,0,1-4.75.25c-1.67,0-3.4,0-5.19-.13s-3.65-.1-5.56-.06-3.88.19-5.88.44q-.12-2-.06-4.56c0-1.71.08-3.48.12-5.32s.11-3.66.19-5.5S465.31,4.12,465.39,2.62Zm20,15.63a9,9,0,0,0-1.19-5.13A16.19,16.19,0,0,0,481,8.75a8.06,8.06,0,0,0,1.12,5.19A17.28,17.28,0,0,0,485.39,18.25Zm3.75,31.25a10.34,10.34,0,0,1,1.31-.88,2.65,2.65,0,0,0,1.07-1,1.16,1.16,0,0,1-.82-.43,1.6,1.6,0,0,0-.68-.57,2,2,0,0,1-.5.57,5,5,0,0,0-.69.69,1.21,1.21,0,0,0-.31.81C488.52,49,488.72,49.25,489.14,49.5Zm3.75-8h-1.37c-.5.5-.67,1-.5,1.38a.93.93,0,0,0,.75.68,1.07,1.07,0,0,0,.93-.37C493,42.9,493.06,42.33,492.89,41.5ZM491,32c1.16.08,1.62-.54,1.37-1.88H491Zm1.37-17.12a14.68,14.68,0,0,1,2.5.24A1.53,1.53,0,0,0,496.77,14a2,2,0,0,0-1.07-.5,4.29,4.29,0,0,0-1.43,0A3.33,3.33,0,0,0,493,14,1.07,1.07,0,0,0,492.39,14.88Zm2,20.37c-.67.92-.81,1.52-.44,1.81a2.79,2.79,0,0,0,1.32.56,4.27,4.27,0,0,0-2,1.63c-.5.75-.3,1.5.62,2.25.08-.5.38-.5.88,0a5.53,5.53,0,0,0,.5-1.75c.08-.67.58-.87,1.5-.63-.25,1.42.2,2.34,1.37,2.76a3.4,3.4,0,0,0,.69-.63q.32-.37.69-.75a8,8,0,0,0-2.07-3.06A17.37,17.37,0,0,0,494.39,35.25Zm-.5,26.63c1.33.16,2-.34,1.88-1.5C494.43,60.21,493.81,60.71,493.89,61.88Zm1.88-42.76a1.84,1.84,0,0,1,.75-.93c.33-.21.41-.69.25-1.44h-1.5a2.57,2.57,0,0,1,0,1.56C495.1,18.94,495.27,19.21,495.77,19.12Zm0,28.5a1.07,1.07,0,0,1,1-.68c.5,0,.62-.44.37-1.19a1.88,1.88,0,0,0-1.56.63C495,46.88,495.1,47.29,495.77,47.62Zm1,19a1.66,1.66,0,0,0,.25-1.93,1.59,1.59,0,0,0-1.75-.94c0,.67,0,1.36.06,2.06S495.85,66.79,496.77,66.62Zm0,16.13a.59.59,0,0,0,.43-.5,3.15,3.15,0,0,0,0-.87,1.55,1.55,0,0,0-.31-.82.52.52,0,0,0-.62-.18,1.9,1.9,0,0,0-.32.56,3.57,3.57,0,0,0-.25.87.92.92,0,0,0,.19.75A.85.85,0,0,0,496.77,82.75Zm-1,1.37a1,1,0,0,0,.18.94,1.27,1.27,0,0,1,.32.94c.75.17,1.18,0,1.31-.56a5.44,5.44,0,0,0,.06-1.82A2.65,2.65,0,0,0,495.77,84.12Zm1.37-31.74V50.5h-1.37C495.6,51.83,496.06,52.46,497.14,52.38Zm.5-15.26a1.63,1.63,0,0,1,.75-.87c.33-.17.42-.63.25-1.37a.92.92,0,0,0-1,.06,1.49,1.49,0,0,0-.5.75,1.61,1.61,0,0,0,0,.87A.74.74,0,0,0,497.64,37.12ZM499.14,77a2.17,2.17,0,0,0,.19-1.44,2.52,2.52,0,0,0-1.19-.94,1.86,1.86,0,0,0-.5,1.63Q497.76,77.26,499.14,77Zm3.75-32.75a19,19,0,0,1-1.12-1.75c-.34-.58-1.09-.79-2.25-.62A3,3,0,0,0,501,43.94C501.83,44.56,502.47,44.67,502.89,44.25Zm-1.37-19.37a1.8,1.8,0,0,0,.43-1.44c0-.63-.35-.94-.93-.94a1.83,1.83,0,0,0-.5,1.38C500.52,24.46,500.85,24.79,501.52,24.88Zm0,8a2.14,2.14,0,0,0,.43,1.24,3.66,3.66,0,0,0,1,1,1.89,1.89,0,0,0,1.07.38c.33,0,.58-.21.75-.62a2.9,2.9,0,0,1-.75-.82,12.39,12.39,0,0,0-.75-1,1.71,1.71,0,0,0-.82-.56A1,1,0,0,0,501.52,32.88Zm3.25-21.26h-2.38c-.17.5-.1.86.19,1.07a1.65,1.65,0,0,0,1,.31,1.42,1.42,0,0,0,.94-.31A1.09,1.09,0,0,0,504.77,11.62Zm0,36c.16-1.33-.3-1.95-1.38-1.87C503.22,47.08,503.68,47.71,504.77,47.62Zm2.37-19.5a1.9,1.9,0,0,1-.56-1.56,8.36,8.36,0,0,1,.31-1.81c.17-.58.29-1.1.38-1.56s-.13-.69-.63-.69a8,8,0,0,1-.56,1.62,10.16,10.16,0,0,0-.63,1.94,2.66,2.66,0,0,0,.13,1.63C505.79,28.15,506.31,28.29,507.14,28.12Zm1-14.12H510c.58,0,.87-.33.87-1-.83-.08-1.48-.17-1.94-.25a1.85,1.85,0,0,0-1.31.25C508,13.08,508.14,13.42,508.14,14Zm4.25,3.25a1.55,1.55,0,0,1-1.56-.5c-.29-.42-.9-.54-1.81-.37a2.69,2.69,0,0,1-.32,2.18,11.8,11.8,0,0,0-1.06,1.56c1.17-.16,1.6,0,1.31.57a10.26,10.26,0,0,1-.81,1.31,2.15,2.15,0,0,0,2.75-1.38,6.92,6.92,0,0,1-1-.74c-.5-.42-.46-.67.13-.76q.62.89,1.5-.06A2.73,2.73,0,0,0,512.39,17.25Zm-2.87-6.13c.91-.66,1.37-.83,1.37-.5s.33.8,1,1.38a4.06,4.06,0,0,0,.06-1.25,3.15,3.15,0,0,0-.5-1.44,4.17,4.17,0,0,0-1.18-1.19,2.54,2.54,0,0,0-1.75-.37c-.25,1-.15,1.63.31,1.87A1.57,1.57,0,0,1,509.52,11.12Zm4.75.5c0,1.17,0,2.24.12,3.19a4.63,4.63,0,0,0,.88,2.44,2.85,2.85,0,0,1,0-1.69c.16-.62.35-1.23.56-1.81a4.93,4.93,0,0,0,.31-1.69,2.27,2.27,0,0,0-.5-1.44,2.56,2.56,0,0,1-.06.82s-.13,0-.25,0l-.5-.13A.55.55,0,0,0,514.27,11.62Zm.5-1.5a4.39,4.39,0,0,1,1-1.31,3,3,0,0,0,.87-1.56c-.33,0-.54-.08-.62-.25s-.34-.21-.75-.12a6.87,6.87,0,0,0-.32.74c-.12.34-.25.67-.37,1a2.62,2.62,0,0,0-.19.94A.52.52,0,0,0,514.77,10.12Z"/></g></g></svg>