<svg xmlns="http://www.w3.org/2000/svg" viewBox="0 0 1280.36 926.87"><defs><style>.cls-1{opacity:0.7;}.cls-2,.cls-3{fill:#4a4a4a;stroke:#383736;}</style></defs><title>digital_kairo2</title><g id="レイヤー_2" data-name="レイヤー 2"><g id="レイヤー_1-2" data-name="レイヤー 1"><g id="グループ_72" data-name="グループ 72" class="cls-1"><g id="グループ_6" data-name="グループ 6"><g id="グループ_4" data-name="グループ 4"><path id="パス_1" data-name="パス 1" class="cls-2" d="M475.33,338.67,324.61,509.39H144.67L.5,672.71v3.14l145-164.23H325.42L476.71,340.24Z"/></g><g id="グループ_5" data-name="グループ 5"><path id="楕円形_6" data-name="楕円形 6" class="cls-2" d="M475.89,335.43c4.77-.08,4.77,8.43,0,8.35C471.11,343.86,471.11,335.35,475.89,335.43Z"/></g></g><g id="グループ_9" data-name="グループ 9"><g id="グループ_7" data-name="グループ 7"><path id="パス_2" data-name="パス 2" class="cls-2" d="M460.51,417.81,263.23,641.28H134.09L.5,792.61v3.14L134.9,643.5H264L461.9,419.38Z"/></g><g id="グループ_8" data-name="グループ 8"><path id="パス_3" data-name="パス 3" class="cls-2" d="M463.68,421.7c3.33-3.41-1.55-9.89-5.21-5.91C455.14,419.2,460,425.68,463.68,421.7Z"/></g></g><g id="グループ_12" data-name="グループ 12"><g id="グループ_10" data-name="グループ 10"><path id="パス_4" data-name="パス 4" class="cls-2" d="M5.85,926.37,155,757.41h168.3l318-360.2-1.38-1.57L322.5,755.18H154.2L3.08,926.37Z"/></g><g id="グループ_11" data-name="グループ 11"><path id="パス_5" data-name="パス 5" class="cls-2" d="M643.09,399.51c3.32-3.41-1.55-9.88-5.21-5.9C634.55,397,639.42,403.49,643.09,399.51Z"/></g></g><g id="グループ_15" data-name="グループ 15"><g id="グループ_13" data-name="グループ 13"><path id="パス_6" data-name="パス 6" class="cls-2" d="M42.9,926.37,129,828.83l-1.38-1.57-87.5,99.11Z"/></g><g id="グループ_14" data-name="グループ 14"><path id="パス_7" data-name="パス 7" class="cls-2" d="M130.79,831.14c3.33-3.41-1.54-9.88-5.21-5.9C122.25,828.65,127.13,835.12,130.79,831.14Z"/></g></g><g id="グループ_18" data-name="グループ 18"><g id="グループ_16" data-name="グループ 16"><path id="パス_8" data-name="パス 8" class="cls-2" d="M321.8,926.37,565.89,649.88l-1.39-1.57L319,926.37Z"/></g><g id="グループ_17" data-name="グループ 17"><path id="パス_9" data-name="パス 9" class="cls-2" d="M567.67,652.19c3.33-3.41-1.55-9.88-5.21-5.9C559.13,649.7,564,656.17,567.67,652.19Z"/></g></g><g id="グループ_21" data-name="グループ 21"><g id="グループ_19" data-name="グループ 19"><path id="パス_10" data-name="パス 10" class="cls-2" d="M172.52,887.82h-2V825.38l61.87-70.09,1.39,1.57-61.3,69.43Z"/></g><g id="グループ_20" data-name="グループ 20"><path id="パス_11" data-name="パス 11" class="cls-2" d="M167.86,887.61a3.7,3.7,0,1,0,7.36,0A3.7,3.7,0,1,0,167.86,887.61Z"/></g></g><g id="グループ_24" data-name="グループ 24"><g id="グループ_22" data-name="グループ 22"><path id="パス_12" data-name="パス 12" class="cls-2" d="M33,892V837.37L161.61,691.64H322.49l119-134.75,1.38,1.57L323.31,693.86H162.42L34.92,838.29V892Z"/></g><g id="グループ_23" data-name="グループ 23"><path id="パス_13" data-name="パス 13" class="cls-2" d="M444.62,560.77c3.33-3.41-1.54-9.88-5.21-5.9C436.09,558.28,441,564.75,444.62,560.77Z"/></g></g><g id="グループ_27" data-name="グループ 27"><g id="グループ_25" data-name="グループ 25"><path id="パス_14" data-name="パス 14" class="cls-2" d="M151,550.16.5,720.67v3.14L151.84,552.38h115.7v-2.22Z"/></g><g id="グループ_26" data-name="グループ 26"><path id="パス_15" data-name="パス 15" class="cls-2" d="M267.36,555.45c4.77.08,4.77-8.43,0-8.35C262.58,547,262.58,555.53,267.36,555.45Z"/></g></g><g id="グループ_30" data-name="グループ 30"><g id="グループ_28" data-name="グループ 28"><path id="パス_16" data-name="パス 16" class="cls-2" d="M292.13,926.37V882.64l167.65-189.9-1.39-1.57L290.17,881.72v44.65Z"/></g><g id="グループ_29" data-name="グループ 29"><path id="パス_17" data-name="パス 17" class="cls-2" d="M461.56,695.05c3.33-3.41-1.55-9.88-5.21-5.9C453,692.56,457.9,699,461.56,695.05Z"/></g></g><g id="グループ_33" data-name="グループ 33"><g id="グループ_31" data-name="グループ 31"><path id="パス_18" data-name="パス 18" class="cls-2" d="M481,632.71H434v-2.22h46.17L609.75,483.75l1.39,1.57Z"/></g><g id="グループ_32" data-name="グループ 32"><path id="パス_19" data-name="パス 19" class="cls-2" d="M612.92,487.63c3.33-3.4-1.55-9.88-5.21-5.9C604.38,485.14,609.25,491.62,612.92,487.63Z"/></g></g><g id="グループ_36" data-name="グループ 36"><g id="グループ_34" data-name="グループ 34"><path id="パス_20" data-name="パス 20" class="cls-2" d="M353.52,659.18h-2v-66.4L538.38,381.16V311.85h2v70.23L353.52,593.7Z"/></g><g id="グループ_35" data-name="グループ 35"><path id="パス_21" data-name="パス 21" class="cls-2" d="M543,312.06a3.7,3.7,0,1,0-7.37,0A3.7,3.7,0,1,0,543,312.06Z"/></g></g><g id="グループ_39" data-name="グループ 39"><g id="グループ_37" data-name="グループ 37"><path id="パス_22" data-name="パス 22" class="cls-2" d="M409.09,926.37V888.65L613.63,656.94V609.19h-2V656L407.12,887.73v38.64Z"/></g><g id="グループ_38" data-name="グループ 38"><path id="パス_23" data-name="パス 23" class="cls-2" d="M616.34,609.4a3.7,3.7,0,1,0-7.37,0A3.7,3.7,0,1,0,616.34,609.4Z"/></g></g><g id="グループ_42" data-name="グループ 42"><g id="グループ_40" data-name="グループ 40"><path id="パス_24" data-name="パス 24" class="cls-2" d="M187.9,926.37l79.88-90.48V804.61h-2V835l-80.69,91.4Z"/></g><g id="グループ_41" data-name="グループ 41"><path id="楕円形_7" data-name="楕円形 7" class="cls-2" d="M266.8,800.65c4.78-.08,4.78,8.43,0,8.34C262,809.08,262,800.57,266.8,800.65Z"/></g></g><g id="グループ_45" data-name="グループ 45"><g id="グループ_43" data-name="グループ 43"><path id="パス_25" data-name="パス 25" class="cls-2" d="M52.55,816.49v-40l86.67-98.18,1.38,1.57L54.51,777.36v39.13Z"/></g><g id="グループ_44" data-name="グループ 44"><path id="パス_26" data-name="パス 26" class="cls-2" d="M142.39,682.14c3.32-3.41-1.55-9.88-5.21-5.9C133.85,679.65,138.72,686.13,142.39,682.14Z"/></g></g><g id="グループ_48" data-name="グループ 48"><g id="グループ_46" data-name="グループ 46"><path id="パス_27" data-name="パス 27" class="cls-2" d="M377.24,926.37l3.51-4-1.39-1.57-4.9,5.55Z"/></g><g id="グループ_47" data-name="グループ 47"><path id="パス_28" data-name="パス 28" class="cls-2" d="M382.53,924.71c3.33-3.41-1.55-9.89-5.21-5.91C374,922.21,378.87,928.69,382.53,924.71Z"/></g></g><g id="グループ_51" data-name="グループ 51"><g id="グループ_49" data-name="グループ 49"><path id="パス_29" data-name="パス 29" class="cls-2" d="M171,642.41l-1.39-1.57L204,602h59l53.15-60.21,1.39,1.57-53.73,60.86h-59Z"/></g><g id="グループ_50" data-name="グループ 50"><path id="パス_30" data-name="パス 30" class="cls-2" d="M319.24,545.64c3.33-3.41-1.55-9.88-5.21-5.9C310.7,543.15,315.58,549.62,319.24,545.64Z"/></g></g><g id="グループ_54" data-name="グループ 54"><g id="グループ_52" data-name="グループ 52"><path id="パス_31" data-name="パス 31" class="cls-2" d="M344.28,822.2h-2V781.6L418.81,695l1.38,1.57-75.91,86Z"/></g><g id="グループ_53" data-name="グループ 53"><path id="パス_32" data-name="パス 32" class="cls-2" d="M422,698.84c3.33-3.41-1.54-9.88-5.21-5.9C413.44,696.35,418.31,702.82,422,698.84Z"/></g></g><g id="グループ_56" data-name="グループ 56"><g id="グループ_55" data-name="グループ 55"><path id="パス_33" data-name="パス 33" class="cls-2" d="M346.15,223.89,227.37,358.43H112.06L.5,484.8v3.14L112.88,360.65h115.3L348.92,223.89Z"/></g></g><g id="グループ_59" data-name="グループ 59"><g id="グループ_57" data-name="グループ 57"><path id="パス_34" data-name="パス 34" class="cls-2" d="M8.12,666.18h-2V595.26L178.39,400.17H309.24v2.22h-130L8.12,596.18Z"/></g><g id="グループ_58" data-name="グループ 58"><path id="パス_35" data-name="パス 35" class="cls-2" d="M309.05,405.45c4.78.08,4.78-8.43,0-8.35C304.28,397,304.28,405.53,309.05,405.45Z"/></g></g><g id="グループ_62" data-name="グループ 62"><g id="グループ_60" data-name="グループ 60"><path id="パス_36" data-name="パス 36" class="cls-2" d="M201.6,511.07l-1.39-1.57L259,442.89h64.37l65.19-73.84,1.39,1.57L324.2,445.1H259.83Z"/></g><g id="グループ_61" data-name="グループ 61"><path id="パス_37" data-name="パス 37" class="cls-2" d="M391.74,372.93c3.33-3.41-1.55-9.88-5.21-5.9C383.2,370.44,388.07,376.91,391.74,372.93Z"/></g></g><g id="グループ_65" data-name="グループ 65"><g id="グループ_63" data-name="グループ 63"><path id="パス_38" data-name="パス 38" class="cls-2" d="M361.26,295.59H284.78v-2.22h75.67l41.13-46.59,1.38,1.57Z"/></g><g id="グループ_64" data-name="グループ 64"><path id="パス_39" data-name="パス 39" class="cls-2" d="M404.74,250.67c3.33-3.41-1.54-9.89-5.21-5.9C396.2,248.17,401.08,254.65,404.74,250.67Z"/></g></g><g id="グループ_68" data-name="グループ 68"><g id="グループ_66" data-name="グループ 66"><path id="パス_40" data-name="パス 40" class="cls-2" d="M.5,551.78l67.93-76.95L67,473.26.5,548.64Z"/></g><g id="グループ_67" data-name="グループ 67"><path id="パス_41" data-name="パス 41" class="cls-2" d="M70.21,477.15c3.33-3.41-1.54-9.89-5.21-5.9C61.67,474.66,66.55,481.13,70.21,477.15Z"/></g></g><g id="グループ_71" data-name="グループ 71"><g id="グループ_69" data-name="グループ 69"><path id="パス_42" data-name="パス 42" class="cls-2" d="M454.81,836.94v-2.22h89.86l191.6-217h74.07v2.22H737.08l-191.6,217Z"/></g><g id="グループ_70" data-name="グループ 70"><path id="パス_43" data-name="パス 43" class="cls-2" d="M810.15,623c4.78.09,4.78-8.43,0-8.34C805.38,614.53,805.37,623.05,810.15,623Z"/></g></g></g><g id="グループ_224" data-name="グループ 224" class="cls-1"><g id="グループ_175" data-name="グループ 175"><g id="グループ_173" data-name="グループ 173"><path id="パス_104" data-name="パス 104" class="cls-2" d="M1110.59.5,975.9,153.07H796L644.68,324.44l1.38,1.57L796.78,155.29H976.71L1113.36.5Z"/></g><g id="グループ_174" data-name="グループ 174"><path id="パス_105" data-name="パス 105" class="cls-2" d="M648.11,328a3.4,3.4,0,0,1-4.78.44,4.47,4.47,0,0,1-.43-.44,4.57,4.57,0,0,1,0-5.9,3.38,3.38,0,0,1,4.77-.44,3.66,3.66,0,0,1,.44.44A4.59,4.59,0,0,1,648.11,328Z"/></g></g><g id="グループ_178" data-name="グループ 178"><g id="グループ_176" data-name="グループ 176"><path id="パス_106" data-name="パス 106" class="cls-2" d="M1004.75.5,986.49,21.18H857.35L659.49,245.3l1.39,1.57L858.16,23.4H987.3L1007.52.5Z"/></g><g id="グループ_177" data-name="グループ 177"><path id="パス_107" data-name="パス 107" class="cls-2" d="M657.71,243a4.57,4.57,0,0,0,0,5.9,3.38,3.38,0,0,0,4.77.44,3.05,3.05,0,0,0,.44-.44,4.57,4.57,0,0,0,0-5.9,3.38,3.38,0,0,0-4.77-.44A3.66,3.66,0,0,0,657.71,243Z"/></g></g><g id="グループ_181" data-name="グループ 181"><g id="グループ_179" data-name="グループ 179"><path id="パス_108" data-name="パス 108" class="cls-2" d="M715.78.5l-235.7,267,1.39,1.57L718.55.5Z"/></g><g id="グループ_180" data-name="グループ 180"><path id="パス_109" data-name="パス 109" class="cls-2" d="M478.3,265.17a4.57,4.57,0,0,0,0,5.9,3.38,3.38,0,0,0,4.77.44,3.05,3.05,0,0,0,.44-.44,4.57,4.57,0,0,0,0-5.9,3.39,3.39,0,0,0-4.77-.43A3.58,3.58,0,0,0,478.3,265.17Z"/></g></g><g id="グループ_184" data-name="グループ 184"><g id="グループ_182" data-name="グループ 182"><path id="パス_110" data-name="パス 110" class="cls-2" d="M568.13.5,555.5,14.81l1.39,1.57L570.9.5Z"/></g><g id="グループ_183" data-name="グループ 183"><path id="パス_111" data-name="パス 111" class="cls-2" d="M553.72,12.49a4.57,4.57,0,0,0,0,5.9,3.38,3.38,0,0,0,4.77.44,3.05,3.05,0,0,0,.44-.44,4.57,4.57,0,0,0,0-5.9,3.39,3.39,0,0,0-4.77-.44A3.66,3.66,0,0,0,553.72,12.49Z"/></g></g><g id="グループ_187" data-name="グループ 187"><g id="グループ_185" data-name="グループ 185"><path id="パス_112" data-name="パス 112" class="cls-2" d="M771.88.5,678.55,106.23l1.38,1.56L774.65.5Z"/></g><g id="グループ_186" data-name="グループ 186"><path id="パス_113" data-name="パス 113" class="cls-2" d="M676.77,103.91a4.58,4.58,0,0,0,0,5.91,3.39,3.39,0,0,0,4.77.43,4.47,4.47,0,0,0,.44-.43,4.61,4.61,0,0,0,0-5.91,3.4,3.4,0,0,0-4.78-.44A3.57,3.57,0,0,0,676.77,103.91Z"/></g></g><g id="グループ_190" data-name="グループ 190"><g id="グループ_188" data-name="グループ 188"><path id="パス_114" data-name="パス 114" class="cls-2" d="M1068.25.5l-98.7,111.8H853.85v2.22H970.36L1071,.5Z"/></g><g id="グループ_189" data-name="グループ 189"><path id="パス_115" data-name="パス 115" class="cls-2" d="M854,109.23a4.21,4.21,0,1,0,3.68,4.17A4,4,0,0,0,854,109.23Z"/></g></g><g id="グループ_193" data-name="グループ 193"><g id="グループ_191" data-name="グループ 191"><path id="パス_116" data-name="パス 116" class="cls-2" d="M511.64,180.93l-1.39-1.57L640.37,32h47v2.22H641.18Z"/></g><g id="グループ_192" data-name="グループ 192"><path id="パス_117" data-name="パス 117" class="cls-2" d="M508.47,177.05a4.57,4.57,0,0,0,0,5.9,3.38,3.38,0,0,0,4.77.44,3.05,3.05,0,0,0,.44-.44,4.57,4.57,0,0,0,0-5.9,3.38,3.38,0,0,0-4.77-.44A3.05,3.05,0,0,0,508.47,177.05Z"/></g></g><g id="グループ_196" data-name="グループ 196"><g id="グループ_194" data-name="グループ 194"><path id="パス_118" data-name="パス 118" class="cls-2" d="M583,352.84h-2V282.6L767.87,71V5.5h2V71.91L583,283.52Z"/></g><g id="グループ_195" data-name="グループ 195"><path id="パス_119" data-name="パス 119" class="cls-2" d="M578.35,352.63a3.71,3.71,0,1,0,3.68-4.18A4,4,0,0,0,578.35,352.63Z"/></g></g><g id="グループ_199" data-name="グループ 199"><g id="グループ_197" data-name="グループ 197"><path id="パス_120" data-name="パス 120" class="cls-2" d="M514.15.5l-6.39,7.24V55.5h2V8.66L516.92.5Z"/></g><g id="グループ_198" data-name="グループ 198"><path id="パス_170" data-name="パス 170" class="cls-3" d="M506.13,52.34a3.38,3.38,0,0,1,4.77-.44,3.66,3.66,0,0,1,.44.44,4.57,4.57,0,0,1,0,5.9,3.39,3.39,0,0,1-4.77.44,3.05,3.05,0,0,1-.44-.44A4.57,4.57,0,0,1,506.13,52.34Z"/></g></g><g id="グループ_202" data-name="グループ 202"><g id="グループ_200" data-name="グループ 200"><path id="パス_121" data-name="パス 121" class="cls-2" d="M805.32,122.92l-1.39-1.57,53.73-60.86h59l33.75-38.22,1.38,1.57L917.43,62.71h-59Z"/></g><g id="グループ_201" data-name="グループ 201"><path id="パス_122" data-name="パス 122" class="cls-2" d="M802.15,119a4.57,4.57,0,0,0,0,5.9,3.38,3.38,0,0,0,4.77.44,3.05,3.05,0,0,0,.44-.44,4.57,4.57,0,0,0,0-5.9,3.38,3.38,0,0,0-4.77-.44A3.05,3.05,0,0,0,802.15,119Z"/></g></g><g id="グループ_205" data-name="グループ 205"><g id="グループ_203" data-name="グループ 203"><path id="パス_123" data-name="パス 123" class="cls-2" d="M1276.48.5,1008.51,304H893.21L698.87,524.17v52h2V525.09L894,306.25h115.31L1279.25.5Z"/></g><g id="グループ_204" data-name="グループ 204"><path id="パス_171" data-name="パス 171" class="cls-3" d="M697.25,573a3.38,3.38,0,0,1,4.77-.44,3.05,3.05,0,0,1,.44.44,4.57,4.57,0,0,1,0,5.9,3.38,3.38,0,0,1-4.77.44,3.05,3.05,0,0,1-.44-.44A4.57,4.57,0,0,1,697.25,573Z"/></g></g><g id="グループ_208" data-name="グループ 208"><g id="グループ_206" data-name="グループ 206"><path id="パス_124" data-name="パス 124" class="cls-2" d="M1113.27.5v68L942.19,262.3h-130v2.22H943L1115.23,69.43V.5Z"/></g><g id="グループ_207" data-name="グループ 207"><path id="パス_125" data-name="パス 125" class="cls-2" d="M812.33,259.23a4.21,4.21,0,1,0,3.69,4.18A4,4,0,0,0,812.33,259.23Z"/></g></g><g id="グループ_211" data-name="グループ 211"><g id="グループ_209" data-name="グループ 209"><path id="パス_126" data-name="パス 126" class="cls-2" d="M732.82,295.64l-1.39-1.57,65.76-74.49h64.37l58.23-66,1.39,1.57L862.37,221.8H798Z"/></g><g id="グループ_210" data-name="グループ 210"><path id="パス_127" data-name="パス 127" class="cls-2" d="M729.65,291.75a4.58,4.58,0,0,0,0,5.91,3.38,3.38,0,0,0,4.77.43,3,3,0,0,0,.44-.43,4.58,4.58,0,0,0,0-5.91,3.39,3.39,0,0,0-4.77-.43A3.58,3.58,0,0,0,729.65,291.75Z"/></g></g><g id="グループ_214" data-name="グループ 214"><g id="グループ_212" data-name="グループ 212"><path id="パス_128" data-name="パス 128" class="cls-2" d="M719.81,417.9l-1.38-1.57,41.7-47.24h76.48v2.22H760.94Z"/></g><g id="グループ_213" data-name="グループ 213"><path id="パス_129" data-name="パス 129" class="cls-2" d="M716.65,414a4.57,4.57,0,0,0,0,5.9,3.39,3.39,0,0,0,4.77.44,3.66,3.66,0,0,0,.44-.44,4.57,4.57,0,0,0,0-5.9,3.38,3.38,0,0,0-4.77-.44A3.05,3.05,0,0,0,716.65,414Z"/></g></g><g id="グループ_217" data-name="グループ 217"><g id="グループ_215" data-name="グループ 215"><rect id="長方形_2" data-name="長方形 2" class="cls-2" x="1226.41" y="0.5" width="1.96" height="9.02"/></g><g id="グループ_216" data-name="グループ 216"><ellipse id="楕円形_15" data-name="楕円形 15" class="cls-2" cx="1227.39" cy="9.31" rx="3.68" ry="4.17"/></g></g><g id="グループ_220" data-name="グループ 220"><g id="グループ_218" data-name="グループ 218"><path id="パス_130" data-name="パス 130" class="cls-2" d="M1173.09.5V53.78L1053,189.85l1.39,1.57L1175.05,54.7V.5Z"/></g><g id="グループ_219" data-name="グループ 219"><path id="パス_131" data-name="パス 131" class="cls-2" d="M1051.18,187.54a4.57,4.57,0,0,0,0,5.9,3.39,3.39,0,0,0,4.77.44,3.66,3.66,0,0,0,.44-.44,4.57,4.57,0,0,0,0-5.9,3.38,3.38,0,0,0-4.77-.44A3.05,3.05,0,0,0,1051.18,187.54Z"/></g></g><g id="グループ_223" data-name="グループ 223"><g id="グループ_221" data-name="グループ 221"><path id="パス_132" data-name="パス 132" class="cls-2" d="M423.4.5,384.31,44.78H311.05V47h74.07L426.17.5Z"/></g><g id="グループ_222" data-name="グループ 222"><path id="パス_133" data-name="パス 133" class="cls-2" d="M311.24,41.72a4.21,4.21,0,0,0,0,8.35,4,4,0,0,0,3.68-4.18A4,4,0,0,0,311.24,41.72Z"/></g></g></g></g></g></svg>