<svg xmlns="http://www.w3.org/2000/svg" viewBox="0 0 159.31 120.67"><defs><style>.cls-1{fill:#383736;}.cls-2{fill:#51504f;}</style></defs><g id="レイヤー_2" data-name="レイヤー 2"><g id="レイヤー_1-2" data-name="レイヤー 1"><path class="cls-1" d="M0,108.23A7,7,0,0,1,1.87,106l1-1a4.72,4.72,0,0,0,.61-.76,2.3,2.3,0,0,0,.32-.64,1.7,1.7,0,0,0-.08-.68,2.82,2.82,0,0,0-.32-.83L2.8,101c-.87-1.44-1.28-2.32-1.22-2.65a.68.68,0,0,0-.44-.76C.79,97.4.56,97,.45,96.22a4.6,4.6,0,0,1,0-1.73,2.75,2.75,0,0,1,.78-1.25c.53-.48.82-.66.88-.53s0,.27-.25.57-.29.55-.11.51h.13a.43.43,0,0,1,.46.15,4.07,4.07,0,0,1,.51.95q1.14,2.43,2,4a5.53,5.53,0,0,0,1.22,1.73,1,1,0,0,0,1-.27A15.12,15.12,0,0,0,9,98.24c1-1.36,1.85-2.37,2.44-3A9.64,9.64,0,0,0,13,92.61a5.66,5.66,0,0,0,.59-2.47,2.61,2.61,0,0,1,.31-1.4,12.67,12.67,0,0,1,1-1.61c.32-.47.54-.7.66-.7s.24.18.3.52a1.56,1.56,0,0,1-.05.85,1.19,1.19,0,0,0,.15,1,4.57,4.57,0,0,1,.44,1.43,6,6,0,0,1,.12,1.59.73.73,0,0,0,.31.74.61.61,0,0,1,.28.68,9.28,9.28,0,0,0,1,3.13,23.28,23.28,0,0,0,1.95,3.78l1.06,1.49h1.39a9,9,0,0,1,1.41.09,8,8,0,0,1-.87,1.25,7.09,7.09,0,0,1-1.56,1.55c-.51.34-.9.42-1.15.26s-.4-.18-.53-.1q-.54.3-2.77-3.28a21.51,21.51,0,0,1-1.36-2.32,4,4,0,0,1-.34-1.5,8,8,0,0,0-.83-2.73,6.91,6.91,0,0,0-.73-1.24c-.13-.11-.33-.09-.61.05s-.56.36-.58.57a7.69,7.69,0,0,1-1.18,2.22c-.8,1.24-1.64,2.43-2.54,3.58L7.39,102l1.3,2.19a29,29,0,0,0,2.31,3.2,6.87,6.87,0,0,0,1.8,1.77c.17.06.26.32.25.78a3.09,3.09,0,0,1-.29,1.31,2.1,2.1,0,0,1-.95,1.05,1.24,1.24,0,0,1-.63.25c-.11,0-.23-.16-.38-.41s-.41-.54-.59-.51-.55-.43-1.24-1.33a21.46,21.46,0,0,1-1.69-2.45c-.3-.51-.53-.75-.71-.73s-.41-.21-.69-.7a2.07,2.07,0,0,0-.78-.82.78.78,0,0,0-.82,0A7.57,7.57,0,0,0,3,106.71a5.77,5.77,0,0,0-1,1.17c0,.16-.46.55-1.29,1.18q-.3.24-.57-.12A.69.69,0,0,1,0,108.23Z"/><path class="cls-1" d="M29.71,99.9a2.81,2.81,0,0,0-1.4.27,2,2,0,0,1-.81.07,6.71,6.71,0,0,1-1.33-.2,6.16,6.16,0,0,1-1.58-.5,4.64,4.64,0,0,1-1-1.15,6.38,6.38,0,0,1-.83-5.54,1.6,1.6,0,0,0,.08-1c-.08-.14,0-.26.13-.36a19.09,19.09,0,0,0,2.35-3.25,5.49,5.49,0,0,1,2-1.81,4.67,4.67,0,0,1,1.18-.56,2.08,2.08,0,0,1,1,.18,2.57,2.57,0,0,1,.85.48,3,3,0,0,1,.6.91,2.47,2.47,0,0,1,.34,1c0,.14-.23.34-.62.61a4.15,4.15,0,0,1-1.39.67,1.23,1.23,0,0,1-1-.24,1,1,0,0,0-.63-.22,2.55,2.55,0,0,0-.91.24,2.94,2.94,0,0,0-1,.52,3.86,3.86,0,0,0-.67.93,3.38,3.38,0,0,0-.23,2.7A4.56,4.56,0,0,0,26.61,96a5,5,0,0,0,3,.93,4.38,4.38,0,0,0,1.53-.21,17.29,17.29,0,0,0,2.21-1.28,19.1,19.1,0,0,0,3.8-2.83,7.81,7.81,0,0,0,1.68-3A4.21,4.21,0,0,0,39,88a8.18,8.18,0,0,0-.53-1.91A3.91,3.91,0,0,0,35.9,84a15.29,15.29,0,0,0-5.22-.69,6.31,6.31,0,0,0-1.71.2,11.31,11.31,0,0,0-2,1,10.75,10.75,0,0,0-1.82,1.15,4.84,4.84,0,0,0-.83,1.29c-.43.86-.72,1.31-.88,1.36-.53.1-.7-.24-.52-1a4.93,4.93,0,0,1,1.34-2.37c.7-.74,1.17-1.27,1.42-1.59a11.35,11.35,0,0,1,2.57-1.76,17.81,17.81,0,0,1,2.1-1.08,7.23,7.23,0,0,1,1.79-.32,5.88,5.88,0,0,1,2.15,0,.86.86,0,0,0,.74,0q.36-.21,1.83.33a5.53,5.53,0,0,1,2,1.08,9.85,9.85,0,0,1,1.33,1.52.93.93,0,0,1,.16.83,1,1,0,0,0,0,.79,2,2,0,0,1,.16.93,9.43,9.43,0,0,1-.3,2.06c-.21.92-.38,1.42-.52,1.5a4.73,4.73,0,0,0-.69,1.7,4.42,4.42,0,0,1-1.32,2.23c-.55.43-.85.79-.89,1.07a1,1,0,0,1-.55.71c-.33.19-.5.37-.5.54s-.31.5-.93,1l-2.07,1.65a19.58,19.58,0,0,1-1.9,1.47A2.47,2.47,0,0,1,29.71,99.9Z"/><path class="cls-1" d="M48.26,89.2a8.31,8.31,0,0,0-1.43-.73,2.52,2.52,0,0,1-1.29-.94c-.21-.36-.42-.54-.61-.53s-.4-.16-.61-.51a21.42,21.42,0,0,0-2.1-2.42,30.23,30.23,0,0,0-2.41-2.42,7.35,7.35,0,0,1-1.28-1.46l-.8-1.09.51-.87A3,3,0,0,1,39.48,77a1.06,1.06,0,0,1,.8-.13,6,6,0,0,1,1.1.89c.77.75,1.49,1.53,2.17,2.33a14.63,14.63,0,0,0,1.65,1.74c.42.36,1.12,1,2.11,1.94A9.78,9.78,0,0,0,49,85.16a.57.57,0,0,0,.78-.14A3,3,0,0,0,50,83.4a4.52,4.52,0,0,0-.23-1.75,2.93,2.93,0,0,1-.16-1.23,10.87,10.87,0,0,0-.16-2c-.11-.7-.22-1.53-.33-2.48a7,7,0,0,0-.51-2.14l-.65-1.49a2,2,0,0,1-.27-.92c0-.12-.24-.41-.88-.88l-.93-.68.34-.88a2.41,2.41,0,0,1,.36-.73.76.76,0,0,1,.52-.21,1.68,1.68,0,0,0,1.07-.49.85.85,0,0,1,.48-.27.78.78,0,0,1,.5.22,6.66,6.66,0,0,1,1.53,2.11A7.23,7.23,0,0,1,51.57,72a6.44,6.44,0,0,0,.36,1.89,12.39,12.39,0,0,1,.52,2.62c.12,1.12.24,1.9.34,2.36A10.13,10.13,0,0,1,53,82.45a5.68,5.68,0,0,1-.78,2.79c-.22.28-.57.77-1,1.48a15.62,15.62,0,0,1-1.25,1.65,5.58,5.58,0,0,1-1.07,1.07C48.77,89.5,48.57,89.42,48.26,89.2Z"/><path class="cls-1" d="M73.27,58.34c-1.35.33-2.4.61-3.16.85L67.67,60a5.7,5.7,0,0,0-2,1,1.7,1.7,0,0,1-1.06.51A13.5,13.5,0,0,0,61.35,63c-1.34.73-2.16,1.21-2.48,1.44a1.18,1.18,0,0,0-.54.82,3.22,3.22,0,0,0,.07,1.31,2.11,2.11,0,0,1,0,1.22,11.26,11.26,0,0,0-.26,2,3.52,3.52,0,0,0,.08,1.42.33.33,0,0,0,.29.15.62.62,0,0,0,.42-.09c.37-.18.82-.39,1.35-.6a22.79,22.79,0,0,0,3-1.56l1.11-.71c.42-.24,1.89-1.14,4.39-2.7,1.55-1,2.59-1.62,3.11-1.88A1.64,1.64,0,0,1,73,63.44c.57.16.44.63-.38,1.4a63.46,63.46,0,0,1-8.11,5.46Q58.87,73.72,58.75,74t.75,1.77A5.58,5.58,0,0,0,61,77.51a4.28,4.28,0,0,0,1.86.51,3.06,3.06,0,0,0,1.36-.19,23.87,23.87,0,0,0,2.47-1.31,10.56,10.56,0,0,0,2.87-2q.12-.37,3.33-2.4a21.75,21.75,0,0,0,3.76-2.68,1.9,1.9,0,0,1,1-.73c.47-.09.57.13.31.66a3.77,3.77,0,0,1-1.29,1.45A11.35,11.35,0,0,0,75,72.36a9.09,9.09,0,0,1-1.84,1.49,19.18,19.18,0,0,0-2.35,1.79,43,43,0,0,1-4.69,3.3c-1.62,1.07-2.67,1.73-3.17,2a4.17,4.17,0,0,1-1.58.46,4.83,4.83,0,0,1-1.2-.08A5.88,5.88,0,0,1,59,81a3.17,3.17,0,0,1-1.19-.76,12.59,12.59,0,0,1-1.09-2A6.89,6.89,0,0,0,55.1,75.8a.84.84,0,0,1-.52-.76A1.46,1.46,0,0,1,55.07,74a2.83,2.83,0,0,0,.49-2.11,5.89,5.89,0,0,0-.25-1.76,1.52,1.52,0,0,1-.06-1A1.79,1.79,0,0,0,55,67.82a.83.83,0,0,0-.95-.44.73.73,0,0,1-.78-.27.71.71,0,0,1-.08-.82,5.17,5.17,0,0,1,1.65-1.78A45.66,45.66,0,0,1,59,61.9a23.22,23.22,0,0,1,4.62-2.39,23.64,23.64,0,0,0,4.12-1.57q4.56-2.65,6-1.61a1,1,0,0,1,.3,1.35A1.06,1.06,0,0,1,73.27,58.34Z"/><path class="cls-1" d="M96.73,65.8a10.63,10.63,0,0,1-1.67.1c-.35,0-1.28,0-2.81.07s-2.32,0-2.4-.12-.71-.15-1.9,0a6.64,6.64,0,0,1-2.12,0c-.3-.14-.65,0-1,.34a4.25,4.25,0,0,0-1,1.56,3.28,3.28,0,0,1-1.31,1.77l-.76.44-.52-1.36a18.11,18.11,0,0,0-1-2.22,9.49,9.49,0,0,1-.68-1.65,37.91,37.91,0,0,0-2.13-4.37c-.45-.85-.76-1.45-.94-1.81s-.37-.71-.55-1.06a1.9,1.9,0,0,1-.27-.77,3.12,3.12,0,0,1,0-.44,2.85,2.85,0,0,1,.12-.56,2.65,2.65,0,0,1,1.12-1.39,1,1,0,0,1,.74-.21c.18,0,.41.25.72.62a12.76,12.76,0,0,1,1.43,2.08c.43.77.78,1.1,1.08,1s.55-.66.77-1.67a20,20,0,0,1,2.53-5.31,16.77,16.77,0,0,1,3.5-4.35,3.84,3.84,0,0,1,1.1-.67c.18,0,.43.08.74.35a4.39,4.39,0,0,1,1.4,2.25,3.26,3.26,0,0,1,0,2.38.65.65,0,0,0,0,.72c.11.19-.14,1.45-.75,3.8A39.56,39.56,0,0,1,88.69,60l-.46,1,1,.22a22,22,0,0,0,5.16.33c.54,0,.86,0,.95.17s.51.14,1.28,0a20.89,20.89,0,0,1,2.24-.37,11,11,0,0,0,3.21-1.17c1.43-.69,2.18-1,2.25-.85s-.08.42-.44.88a11.86,11.86,0,0,0-1.14,1.77,7.48,7.48,0,0,1-2.66,2.45A8.5,8.5,0,0,1,96.73,65.8Zm-9.85-5.34a4.88,4.88,0,0,1,.81-1.82,7.63,7.63,0,0,0,.69-3.14,12.76,12.76,0,0,0-.1-3.8c-.31-1.35-.88-1.88-1.72-1.57q-.33.12-1,1.35a21.86,21.86,0,0,0-1.37,2.89,7.56,7.56,0,0,0-.42,1.54,11.62,11.62,0,0,0-.19,1.85l-.06,3.18v1.12h1.11a3,3,0,0,0,1.61-.27A2.4,2.4,0,0,0,86.88,60.46Z"/><path class="cls-1" d="M122.47,47a4.35,4.35,0,0,1-3-.76,9.5,9.5,0,0,1-2.35-3.2c-.64-1.26-1.11-2.13-1.4-2.63a4.38,4.38,0,0,1-.54-2,7.44,7.44,0,0,0-.55-2.3,6,6,0,0,1-.29-2.2c0-.91.14-1.43.38-1.57a2.57,2.57,0,0,0,.65-1.09c.27-.63.56-1,.88-1s.56.19.75.74a3.32,3.32,0,0,1,.15,1.32,6.83,6.83,0,0,0,.4,2.53,22.11,22.11,0,0,0,1.36,3.5,17,17,0,0,0,1.25,2.29,7.65,7.65,0,0,0,1.54,1.31A5.43,5.43,0,0,0,124,43a3.17,3.17,0,0,0,2.07-.43,3.61,3.61,0,0,0,1.21-1.74,3.6,3.6,0,0,0,.41-2.06,12.61,12.61,0,0,1-.31-1.67A8.63,8.63,0,0,0,126,34.26a31.63,31.63,0,0,0-3-3.81L121.57,29l.41-1.39a3.33,3.33,0,0,1,1.17-1.85,1.16,1.16,0,0,1,1.48.15,25.15,25.15,0,0,1,1.94,1.94,24.81,24.81,0,0,1,1.8,2.43,19.24,19.24,0,0,1,1.32,2.2,9.75,9.75,0,0,1,.57,1.95,11.64,11.64,0,0,1,.25,2.9,7.42,7.42,0,0,1-.59,2.07,3.57,3.57,0,0,1-.85,1.47,2.77,2.77,0,0,0-.7,1.22,8.07,8.07,0,0,1-2.52,2.67,28.33,28.33,0,0,0-2.35,1.91A1.44,1.44,0,0,1,122.47,47Z"/><path class="cls-1" d="M139,37.13a4.7,4.7,0,0,1-1.23.51.87.87,0,0,1-.64-.3,2.3,2.3,0,0,1-.81-1.23,2.75,2.75,0,0,1,.66-1.43,10.33,10.33,0,0,0,1.1-1.78,1.62,1.62,0,0,1,.71-.82c.24-.14.4-.17.5-.1a1.7,1.7,0,0,1,.35.69,1.85,1.85,0,0,0,.37.73.77.77,0,0,0,.57.19,7,7,0,0,0,2.3-.88c1.13-.57,1.73-1,1.79-1.18s.24-.45.65-.68a7.41,7.41,0,0,0,1.43-1.15c.52-.51.77-.86.76-1,0-.34-.37-.69-1.12-1a5.93,5.93,0,0,0-2.24-.57,4.68,4.68,0,0,1-2.06-.34,1.07,1.07,0,0,0-.53-.15,1,1,0,0,0-.53.13,7.21,7.21,0,0,1-2.3.44,26.09,26.09,0,0,1-3.51.1,17.09,17.09,0,0,0-2.79.06,18.52,18.52,0,0,1-3.13,0,8.13,8.13,0,0,1-1.78-.24,1.42,1.42,0,0,1-.71-.69,3.71,3.71,0,0,1-.51-1.23,2.94,2.94,0,0,1,.76-1.57,13,13,0,0,1,2-2.11,22.87,22.87,0,0,0,1.72-1.61,19.59,19.59,0,0,1,1.9-1.6l2.81-2.16a9.47,9.47,0,0,1,1.93-1.24,5.42,5.42,0,0,1,1.74-.38l.87,0-.49,1.2A5.12,5.12,0,0,1,138,17.6a5,5,0,0,1-2.3.94,4.47,4.47,0,0,0-1.36.39,23.55,23.55,0,0,0-2.15,1.56,22.21,22.21,0,0,0-2.3,1.89c-.36.38-.48.67-.37.87a8.38,8.38,0,0,0,2.83.48,20,20,0,0,0,3.9.1l2.8-.26a15.2,15.2,0,0,1,2.76-.07,13.79,13.79,0,0,0,2.88-.14A12.65,12.65,0,0,1,148,23.3a6.12,6.12,0,0,1,1.49.32,2.07,2.07,0,0,1,1,1.72,6.48,6.48,0,0,1-.65,1.58,25,25,0,0,1-3.42,4.68,24.14,24.14,0,0,1-3,3.1A35.27,35.27,0,0,1,139,37.13Z"/><path class="cls-1" d="M152.57,21.64c-.12.08-.27.06-.44-.07a8.09,8.09,0,0,1-1.15-1.4,14.11,14.11,0,0,0-1.67-2c-.52-.48-1.86-2.65-4-6.49q-2.52-4.44-3.38-6.4a5,5,0,0,1-.66-2.77,1.22,1.22,0,0,0-.11-.95,1.33,1.33,0,0,1,0-1.08q.12-.44.3-.51a1.21,1.21,0,0,1,.67.09,1.67,1.67,0,0,1,.74.45q.48.6,4.81,8.62c.59,1.11,1.5,2.6,2.73,4.5a29.18,29.18,0,0,0,2.19,3.15,1.41,1.41,0,0,1,.61,1,1.72,1.72,0,0,0,.49,1,1,1,0,0,1,.29.88,1.34,1.34,0,0,1-.71.78c-.36.24-.54.47-.54.72S152.69,21.56,152.57,21.64ZM157,31.33a2.32,2.32,0,0,1-.1-1.15,4.56,4.56,0,0,1,.25-1.34,2.38,2.38,0,0,1,1.06-1.05c.5-.29.84-.27,1,.06s0,.81-.4,1.35a2.68,2.68,0,0,0-.67,1.3,1,1,0,0,1-.28.53,1.32,1.32,0,0,1-.52.38C157.2,31.48,157.08,31.45,157,31.33Z"/><path class="cls-2" d="M101.78,84.74c-.1.15-.27.5-.19.46l.34-.57Z"/><path class="cls-2" d="M101.52,86a7.07,7.07,0,0,0,.77-1.28c-.35.54-.24.29-.65.93-.08,0,0-.23.14-.44-.09.14,0-.17-.21.19s-.12.54.15.21A2.84,2.84,0,0,1,101.52,86Z"/><path class="cls-2" d="M105,89.45l0-.08S105,89.44,105,89.45Z"/><path class="cls-2" d="M107,91.59s-.08,0-.12.09A.22.22,0,0,0,107,91.59Z"/><path class="cls-2" d="M106.86,92.46V92.4C106.83,92.46,106.82,92.49,106.86,92.46Z"/><path class="cls-2" d="M105,89.45l-.07.21C105.08,89.5,105,89.51,105,89.45Z"/><path class="cls-2" d="M102.88,84.93a.78.78,0,0,0-.13.13l.08,0Z"/><path class="cls-2" d="M103.66,89.13h0l-.17.21Z"/><path class="cls-2" d="M102.8,88.68a6.46,6.46,0,0,0,.45-.64,1.12,1.12,0,0,1-.25.3Z"/><path class="cls-2" d="M102,87l-.06.06Z"/><path class="cls-2" d="M104.16,89.63l-.11.17Z"/><path class="cls-2" d="M120.59,112.7h0Z"/><polygon class="cls-2" points="117.83 113.94 117.79 113.92 117.48 113.91 117.83 113.94"/><path class="cls-2" d="M107,93.59h0C106.9,93.61,106.92,93.61,107,93.59Z"/><path class="cls-2" d="M112,99.73c.39-.33.64-.18,1.06-.57A4.27,4.27,0,0,0,112,99.73Z"/><path class="cls-2" d="M102.87,85a0,0,0,0,1,0,0S102.89,85,102.87,85Z"/><path class="cls-2" d="M113.09,99.16h0l0,0Z"/><path class="cls-2" d="M108.55,94.84l.18-.18S108.63,94.75,108.55,94.84Z"/><path class="cls-2" d="M108.14,93.17l0,.08A.15.15,0,0,0,108.14,93.17Z"/><path class="cls-2" d="M109.68,94.93s-.08.09,0,.07l0,0C109.66,95,109.62,95,109.68,94.93Z"/><path class="cls-2" d="M110.19,95.59l.08-.09h0Z"/><path class="cls-2" d="M120.13,109.84l-.5.1C120,109.88,120.18,110,120.13,109.84Z"/><path class="cls-2" d="M102.73,85.21a.73.73,0,0,1,.14-.2h0A.58.58,0,0,0,102.73,85.21Z"/><path class="cls-2" d="M113.15,92.17l0,.17A.19.19,0,0,0,113.15,92.17Z"/><path class="cls-2" d="M118.59,103.27h.08S118.66,103.26,118.59,103.27Z"/><path class="cls-2" d="M113.52,92.65a2.27,2.27,0,0,0-.26.3l.13-.07Z"/><path class="cls-2" d="M119.63,109.94Z"/><path class="cls-2" d="M121.05,110.8c0-.14-.73,0-1.16,0-.22-.15.54-.12.91-.22-.2-.09-.89-.11-.87-.19a2.69,2.69,0,0,1,.32,0c-.59,0-.06-.33-.8-.38l.18,0c-.37.06-.74.11-1,.13,0-.06-.47-.06,0-.13,0,0,.19,0,.34,0l-.22,0c.69-.14.25.06.76,0-.24-.11-.82-.18-.63-.3.67-.11.24.2.83,0l-.24.19c1.05-.25-.07.1,1.06-.14.17-.23-.36-.19-.19-.42-.38,0-.55.09-.94.09-.71-.18,1.66-.45.73-.54-.46,0-1.31.12-.89-.09l.77-.07c0-.21-1.11.06-.63-.22.3,0,.28.11.36.07.58-.23-.44,0-.46-.13l.67-.13c-.14-.19-.66-.33-.82-.53a2.2,2.2,0,0,0,.61-.12c-.38-.23,0-.63.3-1h-.6a.93.93,0,0,1,.36-.1c.19-.15-.36.08-.6.08,0,0,.31-.16.49-.16-.53-.08-1.17-.28-.61-.63h.18c.2-.22-1.21.11-.71-.16h.11c.16-.4-.44-.62.33-1.11-.83.19.26-.43-.88-.11.5-.36.72-.36,1-.75,0-.09-.74.12-.88.07l.59-.19-.66.08.69-.29-.18,0a1,1,0,0,1-.41.21c-.31,0,.31-.44.61-.55l-.59-.14a1.58,1.58,0,0,1,.49-.06c-.64,0,.6-.24,0-.2a4.26,4.26,0,0,1-.47.15c.33-.2.27-.37.07-.44l.41-.12c0-.26-.37-.4-.46-.65a2,2,0,0,1-.94.36l.59-.26c-.39.1-.2.16-.69.25,0-.12.66-.34.88-.36l-.25,0c.18-.08.28-.09.51-.17-.39.1.53-.44-.14-.25l.17-.08c-.09-.25-.34-.28-.45-.47-.52.22-.44.09-.88.21.1-.21.43-.55.31-.7-.32,0-.46.16-.79.24.47-.22.34-.37.72-.43-.17-.17-.22-.23-.72-.31a1.51,1.51,0,0,1-.41.25c-.09,0,.15-.2.37-.3h.06c-.83.06,1-1.34,0-1.09l0,0-.62,0c0-.15.37-.12.61-.34-.9.14-.11-.46-.73-.4,1.23-.9-.41-.52.3-1.22l-.3.19c-.33.12.14-.17.19-.25-.24.14-.24.22-.43.28-.63-.25-.15-1.22-.19-1.89,0-.23-1.6.92-1,.24l.59-.31c-.87.09-.45-.73-1.24-.66.13-.07.3-.19.32-.16.33-.35-.17-.27-.49,0,0-.08.28-.23.41-.37s-.62.19-.26-.14a.45.45,0,0,1,.18-.08c-.22.1-.11-.25-.52.13.12-.28-.37-.08-.19-.38-.53.32.08-.39-.62.13.72-.55.41-.67,0-.47.23-.15.16-.24.48-.45-.08-.08-.28,0-.62.26.7-.84-.93.25.06-.73a4.1,4.1,0,0,1-1.38,0c.69-.59.28.18,1-.45-.46,0-1.14.43-1.15.08,0-.14.31-.24.44-.32-.45,0-.31-.45-.83-.29a.92.92,0,0,1,.21-.13s0-.17-.27.12l.11-.05a6.84,6.84,0,0,1-1.26.94c.9-.76,0-.37,1.2-1.31a1.47,1.47,0,0,0-.44.33c0-.09.13-.21.39-.39-.28,0-.55.38-.65.26.14-.14.22-.17.39-.32-.33.21-.66.43-.63.22s.19-.2.22-.17c-.21-.12-1,.46-.9,0,.65-.57.14-.26.64-.81l-.25.07-.21.3c-.07-.09-.52.24-.43,0l.28-.16-.26,0-.1.28c-.35.21-.64.7-.61.45.07,0-.08-.08.18-.44h0c-.2.13-.41.28-.35.09s.56-.6.66-.73c-.46.43-.32,0-.81.4a4.29,4.29,0,0,0,.43-.46l-.37.35a1.35,1.35,0,0,1,.32-.45c0-.17-.58.75-.45.32a.69.69,0,0,1,.15-.13c0-.28-.48,0-.45-.3.45-.61.23,0,.6-.56-.28-.07-1,.34-1,.07l0,.09c-.69.8.18-.52-.23-.21A1.83,1.83,0,0,0,107,88c0-.23-.43,0-.84.11l.2-.2c.06-.25-.13-.27-.14-.43-.18.2-.21.13-.41.47.65-1.45-1,.28-.47-.92,0,0,.21-.15.19-.16l-.36.06a3.45,3.45,0,0,0-.29.58c-.18.2-.36.34-.41.31A2.09,2.09,0,0,0,105,87l-.26.36c.36-.75-.54.76-.37.2l.14-.19c-.12.07-.35.3-.37.2.28-.46.2-.17.45-.53-.1,0-.72.74-.5.25.11-.11.16-.08.28-.18.26-.57.17-.45.16-.57v-.32l-.06.17c-.86,1.1-.35.07-1,.75.59-.64.29-.4.62-.91a1.69,1.69,0,0,1,.2-.5c-.32.37.09-.4-.38.15.1-.17-.06-.07.21-.48-.17.08-.16.31-.29.51-.48.48.08-.88-.59-.21-.36.23-.72.78-1,1a2.09,2.09,0,0,1,.4-.6c0-.29,0-.29-.23-.14a2,2,0,0,0,.23-.48c-.09,0-.38.6-.33.3s.31-.48.44-.65c-.16.11-.41.39-.58.5a2.45,2.45,0,0,1,.43-.6,1.22,1.22,0,0,0-.66.59l0,.21a1.5,1.5,0,0,1,.28-.49c.27-.33,0,.22-.07.4l-.12.08c-.48,1,.32,0,.4.08l-.45.71.45-.54a2.46,2.46,0,0,1-.4.69c-.13.4.21-.22.05.22A.25.25,0,0,1,102,87l.2-.17c-.1.14-.28.52-.27.39-.1.49.54-.42.27.15l0,0c.33-.13.32-.52.83-1l-.67,1.35.33-.52s0,.1-.11.3c.29-.32.13-.23.37-.55-.19.53.4-.06-.09.78.27-.37.1-.36.36-.57-.52.91.21-.08,0,.38s-.24.15-.41.61c.54-.74,0,.28.21.17.4-.61.32-.15.57-.28-.15.2,0,.48,0,.76l-.07.1c.43-.59.47-.4.64-.47a3.27,3.27,0,0,1-.52.62l.07.05a1.08,1.08,0,0,1,.34-.31l-.33.44c.12,0,.58-.4.49,0,.31-.41.73-1.24,1.06-1.41a3.74,3.74,0,0,1-.53.68s.18-.15.13,0l-.32.34c-.07.21.25-.29.27-.22-.23.32-.13.25-.32.5,0,0,.06-.16-.05,0a1.34,1.34,0,0,1-.22.59c.13-.19.31-.43.38-.44s-.25.4-.32.61c.19-.2.08.07.43-.4,0,0-.13.25-.21.38.2-.17.27.12.59-.42l0,0h0c.52-.34.14.53.45.45l-.12.15c.23-.1.3.06.63-.21a1.38,1.38,0,0,1-.32.5c.17,0,.32-.22.22.12-.29.2-.17.25-.24.13,0,.21-.2.47.24.14-.35.36-.34.55-.2.47l.17-.33c.1,0,.11,0,.12.12l-.45.49c-.36.77,1.23-.75.47.39.36-.31.12-.33.52-.7,0,.14-.52.93-.5,1-.14.37.76-.63.71-.33a2.85,2.85,0,0,1,.8-.75c0,.14-.57.82-.75.91s0-.06.06-.12a.64.64,0,0,0-.33.3l.17-.17c-.12.22,0,.3-.29.56a.62.62,0,0,0,.34-.39c-.13.34.16.15.1.42a1.31,1.31,0,0,1,.27-.31c-.06.37.37-.25.55-.22-.19.32-.62.6-.31.49a1.87,1.87,0,0,1-.59.57c.42-.23,0,.39-.05.5l-.18.09c.11,0,.13,0,.15,0l.31-.37a.37.37,0,0,1-.15.26c.25-.19.54-.58.9-.82-.13.21.31-.06-.13.39,0-.27-.44.46-.61.43.07,0,.09,0,.06.08a.76.76,0,0,1-.13.1c-.29.51.56-.44.67-.31-.27.23-.46.49-.38.46s.4-.43.64-.58c-.12.27.23,0,.25,0l0-.14c.27-.22.28-.15.41-.17-.19.19-.18.08-.25.18.51-.36-.34.58.05.38-.14.2-.48.45-.57.6.43-.22-.27.43.1.28a1.73,1.73,0,0,1,.65-.52l-.4,0,.61-.35c0-.06-.32.09-.28,0a1.37,1.37,0,0,0,.51-.42c-.47.55.43-.14.15.27l-.88.79c-.29.47.64-.18.55.18l.12-.19c.37-.28.13.06.32,0a4.62,4.62,0,0,0-.55.56c.22-.19.08.14.69-.36l-.33.41c0,.27,1-.57,1-.35a4.92,4.92,0,0,1-.84.58s0,.12.22,0c-.17.18.51-.22.26.06.15-.09.47-.35.49-.28l-.15.13c.15-.13.27-.09.58-.41-.87.91.36.35-.38,1.11a1.14,1.14,0,0,1,.46.14c-.1.06-.16.12-.14.07-.21.35,1-.59.74-.21-.46.45-.33.13-.49.32-1,.79.27.06-.28.6l-.08,0c-.3.32.53-.12.55.06l-.16.11a1.73,1.73,0,0,1,1.12-.25,2.87,2.87,0,0,0-.67.41c.09,0,.67-.48.86-.45a6.09,6.09,0,0,1-.81.72l-.09-.08c-.56.45.11.11,0,.23l-.27.17c.19.1.84-.33.9-.14l.19-.14c.71-.33-.32.31.23.09l-.65.45a4.77,4.77,0,0,1,1-.16,8.16,8.16,0,0,1-1.22.39c0,.06.18.17.53,0-.08,0-.26.09-.17,0,.57-.26.89-.32,1-.19-1.32.78-.13.51-1.11,1.21.61-.07,0,.54.24.74,1-.67.07,0,1.13-.55.1,0,.1,0,0,.09l-.54.53c-.29.21-.27.07-.51.21,0,.17-.42.3-.67.54.38-.23.58-.26.47-.11l.44-.36c.68-.13-.82.63-.15.5l-.37.12c.25,0,.17.33,1.08,0a1.38,1.38,0,0,1-.5.25c0,.29,1.17,0,.71.48l-.28.11c.1,0,.54-.16.3,0a1.78,1.78,0,0,0-.29.13c.1,0,.53-.11.4,0l-.33.09c-.26.38.9,0,1.18.11a2,2,0,0,0-1.08.78l-.12,0c0,.3.84.16,1.26.28-.83.5-.17.66-.58,1.08a2.41,2.41,0,0,1,.75-.22c-.15.12.63,0-.13.22v0c-.73.32-.48.36-.48.46l1-.34c-1.38.74.73.47-.53,1,.27,0,.29.06.56,0l-.54.16c-.09.21-.13.31.06.47l-.4.07c0,.12,1.61-.32,1.68-.22l-.81.27c.09.19-.59.59.2.59a1.42,1.42,0,0,1-.4.06c0,.1-.47.5.65.19-.73.18,0,.22.33.26l-.55.11c.72-.07.91-.12,1.13,0-.06,0-.43.13-.3.06-.26.17.53,0,.28.15l-.36,0c0,.12.17.07.58,0,.24,0-.08.24-.57.36.3-.05.72-.08.59,0a1.55,1.55,0,0,1-.36,0c-.33.26.68.15.17.38a1.93,1.93,0,0,0-.33.08c0-.14,0-.27,0-.26a6.31,6.31,0,0,1-1.29.28c.4,0,1.25,0,1,.17l-.17,0h-.06s0,0,.09.06c-.08.05-.13.08-.14.12-.41.08-.2.16-.21.22a5,5,0,0,0,.92-.15.09.09,0,0,1-.1,0h0a.81.81,0,0,1-.06-.13c.29,0,.53,0,.24.12l.91-.08c-.76.22-1.16.44-1.63.54a1.75,1.75,0,0,0,1.34.33c.14,0-.29.1-.45.14s-.1-.05-.26,0c.29.06.16.28.89.21-.31.17-.68,0-.54.17h-.22c-1.14.47,1.92.35.45.9a1.26,1.26,0,0,1,.25-.07c-.63.5.73.88-.32,1.38-.21.13.26.12.62.19l-.6,0,.7.1c.51.18-1.48.36-.51.57l.41,0c-.08.09.24.27-.23.26.08,0,.42,0,.21.06h-.31l.54.21c-.22.16-1.25,0-1.31.19a3.35,3.35,0,0,0,1.14.23s.19-.08.51-.08l.16.08a8.3,8.3,0,0,0,2.54-.08l-.57-.16.45,0,0,.13c.42-.07,0-.12-.22-.18a2.14,2.14,0,0,0,.5-.06l-.89-.15a3.28,3.28,0,0,0,.92,0c-.41-.07-.81.06-1.09,0,.43-.07.77,0,.41-.14a1.62,1.62,0,0,1,.5,0c-.29-.07-.13-.2-.62-.23.52-.09-.14-.25.74-.26a2,2,0,0,1-.73-.19c1,.1,0-.26,1.18-.27-1-.06-.42-.33-1-.47.07,0,.23,0,.18,0s.36-.15.53-.22a7.23,7.23,0,0,1-1.46-.14,11.47,11.47,0,0,1,1.65-.08c-.64.05-.66-.16-1.18-.08a3.82,3.82,0,0,1,.86-.18c-1,0-.17-.07-.78-.1.47-.16.92-.11.61-.22A1.41,1.41,0,0,1,121.05,110.8Zm-2.12-3.08h0l0,.06Zm-.05-.27a.13.13,0,0,0,0,.12c-.19.05-.39.08-.39.05A1.4,1.4,0,0,0,118.88,107.45Zm-3.74,1.25c-.09,0,0,0,.13-.08s0,0,.08,0h.07Z"/><path class="cls-2" d="M115.87,108.64h0l.12,0h-.18Z"/><path class="cls-2" d="M105,89.36h0l0-.07Z"/><polygon class="cls-2" points="118.95 103.48 118.82 103.53 118.94 103.51 118.95 103.48"/><path class="cls-2" d="M105,87a.75.75,0,0,0,.06-.13A.81.81,0,0,0,105,87Z"/><path class="cls-2" d="M104.53,86.49l0-.22A.8.8,0,0,0,104.53,86.49Z"/><path class="cls-2" d="M104.26,86l-.13.2h0Z"/><path class="cls-2" d="M110.85,90.56h0C111,90.52,110.94,90.52,110.85,90.56Z"/><path class="cls-2" d="M108.25,89.85l.23-.15C108.48,89.64,108.47,89.61,108.25,89.85Z"/><path class="cls-2" d="M113.15,92.15h0a0,0,0,0,1,0,0Z"/><path class="cls-2" d="M108.56,89.78c0-.11,0-.12-.08-.08S108.47,89.82,108.56,89.78Z"/><path class="cls-2" d="M102.51,84.67v0l0,.07Z"/><path class="cls-2" d="M102.45,84.71l0,.05S102.42,84.77,102.45,84.71Z"/><path class="cls-2" d="M102.28,84.86l.12-.1S102.37,84.72,102.28,84.86Z"/><path class="cls-2" d="M103,85.22l.1-.18Z"/><path class="cls-2" d="M103.17,85.27c0-.07.11-.44,0-.36l-.09.13C103.25,84.8,103,85.54,103.17,85.27Z"/><path class="cls-2" d="M102.59,87.83l0-.22c-.08.2-.21.47-.29.48C102.08,88.74,102.46,87.65,102.59,87.83Z"/><path class="cls-2" d="M102.83,88.36c-.13,0-.17.27-.24.37A.62.62,0,0,0,102.83,88.36Z"/><path class="cls-2" d="M105.61,90.37l-.33.39C105.38,90.74,105.41,90.61,105.61,90.37Z"/><polygon class="cls-2" points="107.83 88.79 107.99 88.5 107.66 88.84 107.83 88.79"/><polygon class="cls-2" points="105.74 91.81 105.67 91.84 105.87 91.77 105.74 91.81"/><path class="cls-2" d="M109.7,95.77l.49-.4C110.08,95.4,109.51,95.83,109.7,95.77Z"/><path class="cls-2" d="M111.64,97.41c-.24.19-.38.36-.09.23C111.55,97.57,111.73,97.39,111.64,97.41Z"/><polygon class="cls-2" points="113.95 104.42 113.74 104.44 113.93 104.47 113.95 104.42"/><path class="cls-2" d="M104.64,109.8c-.1.14-.28.49-.2.45l.35-.57Z"/><path class="cls-2" d="M104.33,111a6.81,6.81,0,0,0,.79-1.27c-.35.53-.24.29-.65.93-.08,0,0-.23.15-.44-.1.14,0-.16-.22.19s-.13.54.15.21A4.27,4.27,0,0,1,104.33,111Z"/><path class="cls-2" d="M108,114.2l0-.09A.2.2,0,0,0,108,114.2Z"/><path class="cls-2" d="M110.33,115.92s-.07,0-.1.11A.27.27,0,0,0,110.33,115.92Z"/><path class="cls-2" d="M110.42,116.8s0,0,0-.06S110.39,116.84,110.42,116.8Z"/><path class="cls-2" d="M108,114.2l0,.22C108,114.23,108,114.26,108,114.2Z"/><path class="cls-2" d="M105.67,109.94a.63.63,0,0,0-.12.14.18.18,0,0,1,.07,0Z"/><path class="cls-2" d="M106.57,114.05h0l-.15.23Z"/><path class="cls-2" d="M105.66,113.66a6.24,6.24,0,0,0,.41-.66,1.42,1.42,0,0,1-.23.31Z"/><path class="cls-2" d="M104.76,112.05l-.06,0Z"/><path class="cls-2" d="M107.13,114.5l-.09.18Z"/><path class="cls-2" d="M125,104.65l.09,0Z"/><polygon class="cls-2" points="127.98 105.12 128 105.15 128.27 105.31 127.98 105.12"/><path class="cls-2" d="M110.87,117.87v0C110.82,117.9,110.83,117.9,110.87,117.87Z"/><path class="cls-2" d="M120.78,120.21c-.35-.38-.12-.71-.55-1.09C120.36,119.3,120.47,120,120.78,120.21Z"/><path class="cls-2" d="M105.65,110h0S105.67,110,105.65,110Z"/><path class="cls-2" d="M120.23,119.12h0l0,0Z"/><path class="cls-2" d="M112.87,118.58l.1-.23A1.38,1.38,0,0,0,112.87,118.58Z"/><path class="cls-2" d="M111.88,117.13v.08S111.89,117.14,111.88,117.13Z"/><path class="cls-2" d="M114,118.27s0,.12,0,.07l0-.06C114,118.34,113.94,118.36,114,118.27Z"/><path class="cls-2" d="M114.7,118.68l0-.11h0Z"/><path class="cls-2" d="M123.91,107a3.19,3.19,0,0,1,.45.23C124,107,124,106.84,123.91,107Z"/><path class="cls-2" d="M105.52,110.22a1.33,1.33,0,0,1,.13-.2h0A.58.58,0,0,0,105.52,110.22Z"/><path class="cls-2" d="M116.12,114.4l.08.14A.14.14,0,0,0,116.12,114.4Z"/><path class="cls-2" d="M120.84,112.21l0-.06S120.79,112.17,120.84,112.21Z"/><path class="cls-2" d="M116.59,114.66a2.06,2.06,0,0,0-.12.37l.08-.11Z"/><path class="cls-2" d="M124.37,107.22h0Z"/><path class="cls-2" d="M123.69,105.77c-.08.1.58.43.93.67.1.24-.5-.22-.85-.37.12.18.66.59.6.64a2.14,2.14,0,0,1-.28-.16c.45.39-.13.27.44.75l-.16-.08c.33.17.65.37.88.51,0,0,.34.33-.08.1,0,0-.14-.13-.26-.22l.15.16c-.62-.31-.16-.19-.6-.46.13.22.55.63.34.61-.6-.34-.09-.3-.67-.51h.29c-1-.46.11,0-.92-.54-.26.05.19.35-.07.41.3.23.48.27.78.51.45.57-1.56-.72-.89-.08.36.27,1.09.73.63.62l-.63-.44c-.16.11.89.66.35.55-.24-.19-.14-.25-.24-.28-.58-.21.33.3.28.38l-.59-.34c0,.22.31.65.31.89a2.41,2.41,0,0,0-.54-.32c.16.4-.36.44-.83.45l.45.38a.86.86,0,0,1-.34-.18c-.24,0,.32.2.49.36,0,.07-.33-.11-.46-.23.34.4.66,1,0,.81l-.13-.12c-.28,0,.94.76.41.59l-.08-.08c-.38.14-.1.71-1,.45.7.48-.48.07.52.7a4.16,4.16,0,0,0-1.21-.3c-.08,0,.58.47.64.61l-.53-.32.5.43-.66-.33.09.15a1.08,1.08,0,0,1,.42.18c.18.25-.52,0-.79-.13l.3.51a1.9,1.9,0,0,1-.38-.33c.46.45-.57-.31-.14.1.12.06.3.2.41.27-.36-.13-.44,0-.37.18l-.35-.24c-.2.13-.06.49-.19.69a2.18,2.18,0,0,1,.86.52l-.57-.31c.32.25.25.07.62.4-.11,0-.66-.33-.82-.49l.14.21c-.17-.09-.25-.17-.45-.3.32.25-.66-.18-.09.24l-.17-.1c-.13.2,0,.41-.07.6.48.29.34.29.7.58-.23,0-.69-.07-.74.1.18.25.39.28.65.5-.45-.26-.49-.09-.76-.35,0,.21-.05.28.17.7a2.45,2.45,0,0,1,.43.22c0,.09-.22-.06-.43-.19l0,0c.29.26-.07.14-.35-.05s-.5-.4-.14,0l0,0c.11.16.22.33.32.51-.08,0-.24-.33-.46-.57.26.37.21.39.15.35s-.13-.13,0,.17c-.41-.72-.39-.69-.37-.58s0,.3-.13-.22l.11.38c.09.38-.07-.21-.1-.3.07.3.1.34.14.55s-.14.11-.2-.15a2,2,0,0,1,0-.76c0-.09-.42,1.85-.28,1l.19-.64c-.13.38-.18.34-.21.31s0,0-.09,0a.47.47,0,0,0-.37.11c.09-.13.19-.3.22-.28.16-.46-.24-.16-.43.18,0-.06.16-.31.22-.5s-.46.44-.27,0a.5.5,0,0,1,.13-.15c-.16.18-.18-.16-.4.34,0-.29-.35.09-.29-.25-.36.51-.06-.37-.5.39.44-.79.14-.76-.14-.43.16-.22.07-.28.28-.6-.09,0-.25.07-.46.49.36-1-.74.59-.16-.68a3.77,3.77,0,0,1-1.22.5c.44-.78.3.07.75-.77-.4.21-.9.81-1,.5,0-.13.22-.32.31-.45-.4.21-.38-.3-.81,0a.74.74,0,0,1,.16-.19c-.06,0,0-.16-.22.2l.09-.08a7.3,7.3,0,0,1-.91,1.28c.63-1,0-.36.77-1.61a2,2,0,0,0-.32.45,1.13,1.13,0,0,1,.26-.49c-.25.12-.41.53-.53.45.1-.17.16-.22.29-.42-.25.3-.5.61-.53.4s.13-.24.16-.22c-.21,0-.8.73-.82.3.47-.73.07-.29.42-.95l-.22.14-.13.34c-.09-.06-.43.37-.39.11l.21-.23-.24,0,0,.3c-.28.28-.44.83-.46.58.06,0-.09-.06.07-.47h0c-.16.18-.33.38-.31.18s.41-.72.48-.87c-.35.53-.3,0-.68.59.09-.13.28-.47.32-.55l-.29.43a1.49,1.49,0,0,1,.23-.51c-.09-.15-.42.85-.37.41a1.11,1.11,0,0,1,.12-.15c0-.27-.45.11-.48-.18.32-.68.22-.09.47-.68-.27,0-.85.56-1,.3V113c-.54.91.1-.54-.24-.16a2.19,2.19,0,0,0,.25-.4c0-.22-.4.08-.77.26l.16-.23c0-.25-.14-.24-.17-.39a1.66,1.66,0,0,0-.34.52c.48-1.51-.91.45-.53-.81,0,0,.18-.18.16-.19l-.32.11a2.86,2.86,0,0,0-.24.6c-.16.23-.32.38-.37.35a2.16,2.16,0,0,0,.44-.9c-.06.13-.15.26-.21.39.29-.78-.47.8-.34.24l.12-.21c-.11.08-.32.33-.34.24.23-.48.18-.19.39-.57-.1,0-.65.8-.47.29.11-.11.16-.08.27-.19.22-.6.13-.46.12-.58h0V111l0,.17c-.77,1.16-.33.1-.9.83.55-.68.26-.43.56-1a1.66,1.66,0,0,1,.18-.5c-.3.39.08-.4-.36.17.09-.17-.06-.05.19-.47-.16.09-.14.31-.27.52-.45.51.09-.88-.54-.18-.34.24-.69.8-1,1a1.81,1.81,0,0,1,.39-.6c0-.3,0-.29-.22-.13a2.38,2.38,0,0,0,.23-.48c-.08,0-.38.59-.32.3s.3-.48.44-.65c-.16.11-.41.39-.57.51a2.46,2.46,0,0,1,.43-.61,1.4,1.4,0,0,0-.66.6l0,.2s.2-.41.27-.48c.28-.33,0,.22-.07.39l-.12.08c-.49,1,.31,0,.38.08l-.44.7.44-.54a2.46,2.46,0,0,1-.4.69c-.12.41.21-.22.06.22a.36.36,0,0,1-.08.13l.2-.18c-.1.15-.27.52-.26.39-.09.5.52-.43.27.16l0,0c.33-.14.31-.52.8-1.07l-.63,1.37.31-.52s0,.09-.1.3c.28-.33.12-.24.35-.57-.17.54.38-.08-.06.78.25-.39.08-.36.33-.59-.47.93.21-.09.06.38s-.23.16-.38.63c.5-.77.07.26.23.15.35-.63.3-.18.54-.32-.12.21,0,.47,0,.76l-.06.11c.38-.63.42-.45.58-.54a2.86,2.86,0,0,1-.45.68l.08,0a1,1,0,0,1,.31-.34l-.29.47c.12,0,.53-.45.49,0a6.23,6.23,0,0,1,.88-1.53,4.35,4.35,0,0,1-.44.74s.16-.18.12-.06l-.28.38c0,.21.22-.33.25-.26-.19.35-.1.27-.26.54,0,0,0-.17-.06,0a1.19,1.19,0,0,1-.14.61,1.69,1.69,0,0,1,.32-.49c.12,0-.19.43-.23.65.16-.23.09.06.38-.46,0,0-.1.26-.17.41.18-.2.3.07.54-.51v0l0,0h0c.47-.42.22.5.51.37l-.09.18c.21-.14.3,0,.58-.32a1.41,1.41,0,0,1-.23.55c.16-.08.27-.27.23.08-.24.26-.12.28-.2.17,0,.21-.11.5.27.09-.29.42-.23.6-.11.5l.1-.36c.09,0,.12,0,.15.1l-.35.57c-.17.82,1.06-1,.57.28.28-.38,0-.35.35-.8.06.13-.3,1-.27,1,0,.39.6-.79.62-.49a2.66,2.66,0,0,1,.6-.92,2.53,2.53,0,0,1-.52,1.07s0-.06,0-.13a.61.61,0,0,0-.24.37l.12-.2c-.06.24.08.29-.14.61a.6.6,0,0,0,.23-.46c0,.37.19.12.21.39,0-.12.16-.38.18-.36,0,.36.3-.35.48-.37-.1.36-.44.74-.16.55a1.79,1.79,0,0,1-.42.71c.34-.34.08.39.11.5l-.15.13c.09-.08.12-.06.15,0l.19-.44a.36.36,0,0,1-.07.29c.19-.25.35-.71.63-1-.06.24.28-.15,0,.42,0-.28-.28.56-.47.58q.1-.09.09.06a1.16,1.16,0,0,1-.09.14c-.13.57.41-.59.56-.49-.2.3-.29.61-.23.55s.25-.53.44-.74c0,.3.21-.12.24-.06V117c.19-.3.21-.23.34-.29-.13.24-.16.13-.19.25.38-.51-.14.66.17.35-.07.24-.32.59-.35.75.34-.33-.11.5.2.24a1.7,1.7,0,0,1,.44-.7l-.36.18.46-.54c-.06,0-.27.19-.27.1a1.34,1.34,0,0,0,.35-.57c-.26.68.37-.27.23.21l-.57,1c-.1.54.56-.39.6,0l0-.21c.25-.4.15,0,.31-.13a3.92,3.92,0,0,0-.32.72c.14-.26.12.1.52-.58l-.16.5c0,.28.72-.89.8-.69-.25.36-.32.64-.57.85,0,0,.06.12.19-.12-.09.23.4-.39.26,0,.11-.14.31-.5.35-.44a1.81,1.81,0,0,1-.09.17,2.29,2.29,0,0,0,.38-.6c-.44,1.17.47.16.09,1.16a1,1,0,0,1,.48-.07c-.06.1-.1.17-.09.13,0,.4.62-.95.58-.5-.23.6-.25.25-.31.49-.61,1.15.27-.05,0,.67l-.06,0c-.12.44.39-.34.55-.15a1.36,1.36,0,0,0-.09.18,2.17,2.17,0,0,1,1-.71,2.12,2.12,0,0,0-.31.72c.1,0,.26-.79.44-.87a8.73,8.73,0,0,1-.14,1.12l-.17,0c-.13.73.22.08.27.23l-.09.3c.3,0,.45-.78.69-.64v-.25c.22-.74.06.47.25-.07l0,.81c.13-.17.37-.71.5-.84a2.86,2.86,0,0,1-.43,1.18c.11,0,.37,0,.41-.39,0,.07-.09.26-.13.13.13-.61.24-.9.4-.88.12,1.54.51.39.9,1.51.23-.63.83,0,1.24-.31-.64-1,.11-.09-.46-1.19,0-.12.07-.12.12,0a7.16,7.16,0,0,0,.59.47c.25.26.06.29.21.53.24-.07.35.38.67.55-.27-.35-.28-.59-.07-.55-.16-.11-.32-.22-.47-.34-.14-.75.83.65.7-.14l.16.39c0-.3.52-.56-.1-1.38.12.07.39.26.41.39.4-.29-.28-1.48.34-1.33l.25.17c0-.09-.44-.36-.15-.26.1.07.24.17.27.16s-.38-.38-.2-.34l.26.22c.46,0-.5-.75-.57-1a2,2,0,0,0,1.27.43l.11.06c.24-.19-.37-.8-.52-1.21.9.35.63-.28,1.23-.23a2.08,2.08,0,0,1-.63-.45c.18,0-.44-.46.25,0l0,0c.71.37.59.15.66.07l-.89-.56c1.45.57-.12-.89,1.13-.3-.19-.19-.15-.26-.34-.45l.48.3c.22-.08.32-.12.32-.37l.32.24c.1-.08-1.31-1-1.28-1.09l.74.41c.1-.19.85,0,.3-.58.11.07.31.2.32.25s.7,0-.31-.61c.64.39.17-.15,0-.42l.47.3c-.56-.45-.73-.55-.82-.77.08,0,.39.2.25.17.3,0-.41-.35-.09-.31l.28.23c.1-.07-.07-.17-.39-.43-.16-.18.23-.11.66.13-.25-.17-.57-.43-.41-.41a1.5,1.5,0,0,1,.3.21c.42,0-.41-.57.12-.4a2,2,0,0,0,.3.15c-.09.12-.18.21-.21.18a6,6,0,0,1,1.14.66c-.28-.28-.92-.86-.65-.83l.16.07,0,0c.06,0,0,0,0-.1s.16,0,.18,0c.37.2.27,0,.32,0a4.67,4.67,0,0,0-.8-.49s0,0,0,.09a.13.13,0,0,0,0,0l0,0a.43.43,0,0,1,0,.14c-.22-.19-.4-.35-.1-.25l-.73-.54c.71.34,1.16.42,1.58.65-.17-.32,0-.47-.8-1.12-.09-.11.29.11.44.18s.05.1.17.19c-.18-.22.07-.31-.55-.72.35.06.54.42.53.2l.18.14c1.19.31-1.31-1.47.19-1a.69.69,0,0,1-.25-.09c.8,0-.06-1.11,1.07-.94.25,0-.14-.25-.41-.5l.53.29-.53-.48c-.34-.42,1.43.5.73-.2l-.36-.19c.11,0-.07-.35.32-.1-.06,0-.34-.24-.15-.16l.28.16-.36-.45c.28,0,1.06.67,1.23.5a3.19,3.19,0,0,0-.85-.77,1,1,0,0,1-.49-.19l-.1-.15a9.39,9.39,0,0,0-2.23-1.21l.42.41-.41-.2,0-.11c-.39-.17-.09.06.1.24a2,2,0,0,0-.45-.21l.69.57a3.83,3.83,0,0,0-.81-.45c.32.27.73.37.91.6-.39-.16-.68-.36-.41-.1a1.92,1.92,0,0,1-.41-.29c.21.2,0,.21.42.5-.48-.21,0,.27-.75-.2.17.13.53.47.52.54-.84-.65-.17.17-1.12-.45.77.57.2.48.57.88-.06,0-.18-.14-.13-.12-.11,0-.37-.1-.55-.14a7,7,0,0,1,1.13.93,13.86,13.86,0,0,1-1.4-.88c.55.32.45.48.92.72a3.86,3.86,0,0,1-.8-.36c.83.52.1.15.58.52-.47-.15-.8-.45-.61-.19A1.37,1.37,0,0,1,123.69,105.77Zm-.1,3.43h0v0Zm-.12.22s0,0,.07-.08.34.2.32.22A1.38,1.38,0,0,0,123.47,109.42Zm3.6,1.57c.05.07,0,0-.15,0a.51.51,0,0,0,0-.09l-.06,0Z"/><path class="cls-2" d="M126.48,110.54l0,0-.12-.05.14.11Z"/><path class="cls-2" d="M108,114.1h0l0-.07Z"/><polygon class="cls-2" points="120.75 111.82 120.87 111.9 120.78 111.81 120.75 111.82"/><path class="cls-2" d="M107.68,111.74a.38.38,0,0,0,.06-.13A.81.81,0,0,0,107.68,111.74Z"/><path class="cls-2" d="M107.22,111.35l0-.22A1.19,1.19,0,0,0,107.22,111.35Z"/><path class="cls-2" d="M107,110.88l-.12.21h0Z"/><path class="cls-2" d="M113.67,113.81h0C113.78,113.72,113.74,113.75,113.67,113.81Z"/><path class="cls-2" d="M111.13,113.92a1.92,1.92,0,0,1,.19-.2C111.31,113.66,111.29,113.64,111.13,113.92Z"/><polygon class="cls-2" points="116.12 114.39 116.11 114.39 116.13 114.4 116.12 114.39"/><path class="cls-2" d="M111.4,113.78c0-.12,0-.11-.08-.06S111.33,113.84,111.4,113.78Z"/><path class="cls-2" d="M105.33,109.7v0l0,.08Z"/><path class="cls-2" d="M105.28,109.75l0,0S105.25,109.8,105.28,109.75Z"/><path class="cls-2" d="M105.11,109.89l.12-.1S105.2,109.76,105.11,109.89Z"/><path class="cls-2" d="M105.74,110.22l.11-.17Z"/><path class="cls-2" d="M105.93,110.26c0-.06.11-.44,0-.35l-.08.14C106,109.79,105.73,110.54,105.93,110.26Z"/><path class="cls-2" d="M105.39,112.84l0-.22c-.08.2-.19.48-.28.49C104.92,113.77,105.26,112.66,105.39,112.84Z"/><path class="cls-2" d="M105.66,113.34c-.12,0-.15.28-.21.39A.56.56,0,0,0,105.66,113.34Z"/><path class="cls-2" d="M108.7,115l-.25.45C108.54,115.43,108.54,115.28,108.7,115Z"/><polygon class="cls-2" points="110.55 113.02 110.65 112.71 110.4 113.1 110.55 113.02"/><polygon class="cls-2" points="109.14 116.4 109.08 116.45 109.27 116.34 109.14 116.4"/><path class="cls-2" d="M114.33,119l.29-.56C114.52,118.56,114.18,119.17,114.33,119Z"/><path class="cls-2" d="M117.37,119.81c0,.33.07.56.17.27C117.46,120,117.42,119.74,117.37,119.81Z"/><polygon class="cls-2" points="124.73 115.01 124.88 115.17 124.78 114.99 124.73 115.01"/></g></g></svg>