<svg xmlns="http://www.w3.org/2000/svg" viewBox="0 0 186.67 94.26"><defs><style>.cls-1{fill:#383736;}.cls-2{fill:#51504f;}</style></defs><g id="レイヤー_2" data-name="レイヤー 2"><g id="レイヤー_1-2" data-name="レイヤー 1"><path class="cls-1" d="M.42,9.61a6.82,6.82,0,0,1,2.87-.26l1.44,0a4.13,4.13,0,0,0,1-.09,2.53,2.53,0,0,0,.68-.22,1.85,1.85,0,0,0,.44-.53,3.06,3.06,0,0,0,.36-.82c.07-.26.19-.66.34-1.21a6.57,6.57,0,0,1,1-2.72.68.68,0,0,0,.24-.85,1.68,1.68,0,0,1,.5-1.44A4.66,4.66,0,0,1,10.54.31,2.84,2.84,0,0,1,12,0c.72,0,1.06.12,1,.25s-.22.17-.58.23-.6.17-.44.27l.09.09a.42.42,0,0,1,.22.43,4.3,4.3,0,0,1-.32,1C11.32,4,10.84,5.4,10.5,6.58a5.61,5.61,0,0,0-.39,2.08,1,1,0,0,0,.92.55A15.24,15.24,0,0,0,13.79,9c1.71-.21,3-.34,3.88-.38a9.36,9.36,0,0,0,3-.65,5.61,5.61,0,0,0,2.17-1.31,2.6,2.6,0,0,1,1.22-.75,13.37,13.37,0,0,1,1.81-.46c.56-.09.89-.1,1,0s0,.3-.16.58a1.6,1.6,0,0,1-.64.57,1.15,1.15,0,0,0-.58.78,4.93,4.93,0,0,1-.72,1.32,6.74,6.74,0,0,1-1.05,1.2.71.71,0,0,0-.31.73.64.64,0,0,1-.3.68,9.44,9.44,0,0,0-1.51,2.92,22.64,22.64,0,0,0-1.34,4L19.9,20l1,1a7.87,7.87,0,0,1,.92,1.08,8.18,8.18,0,0,1-1.5.25,6.56,6.56,0,0,1-2.19,0c-.61-.13-.94-.34-1-.64s-.15-.41-.3-.45c-.39-.11-.26-1.54.4-4.27a22.3,22.3,0,0,1,.72-2.6,3.79,3.79,0,0,1,.83-1.29,8.08,8.08,0,0,0,1.37-2.51,7,7,0,0,0,.37-1.38c0-.17-.16-.3-.45-.4s-.66-.16-.82,0a7.59,7.59,0,0,1-2.42.71c-1.44.3-2.88.53-4.33.69l-2.42.3-.66,2.46a28.62,28.62,0,0,0-.66,3.89,6.73,6.73,0,0,0,0,2.53c.08.16-.05.4-.38.72a3,3,0,0,1-1.14.7,2.08,2.08,0,0,1-1.42.07,1.35,1.35,0,0,1-.62-.28c-.06-.09,0-.28,0-.56s.1-.67,0-.77a4.47,4.47,0,0,1,.08-1.82,21.79,21.79,0,0,1,.57-2.93c.16-.56.17-.9,0-1s-.14-.44,0-1a2,2,0,0,0,0-1.13.8.8,0,0,0-.56-.6,7.45,7.45,0,0,0-1.71-.08,5.5,5.5,0,0,0-1.52.12,4.72,4.72,0,0,1-1.74-.09c-.26,0-.36-.2-.32-.5A.7.7,0,0,1,.42,9.61Z"/><path class="cls-1" d="M27.13,25A2.89,2.89,0,0,0,26,24.16a1.86,1.86,0,0,1-.61-.52,7.29,7.29,0,0,1-.79-1.09,6.2,6.2,0,0,1-.74-1.48,4,4,0,0,1,.12-1.52,6.36,6.36,0,0,1,3.37-4.47c.46-.26.71-.47.76-.63s.16-.21.35-.16a18.6,18.6,0,0,0,4-.6,5.69,5.69,0,0,1,2.67.14,5,5,0,0,1,1.23.46,2.18,2.18,0,0,1,.57.83,2.53,2.53,0,0,1,.25,1,3.07,3.07,0,0,1-.23,1.06,2.32,2.32,0,0,1-.46.92c-.11.08-.4.07-.86,0a4.29,4.29,0,0,1-1.45-.52,1.22,1.22,0,0,1-.53-.88,1,1,0,0,0-.29-.61,2.86,2.86,0,0,0-.8-.49,2.94,2.94,0,0,0-1-.32,4,4,0,0,0-1.13.17,3.38,3.38,0,0,0-2.1,1.73A4.52,4.52,0,0,0,27.74,20a5,5,0,0,0,1.42,2.76,4.25,4.25,0,0,0,1.21.95,17.18,17.18,0,0,0,2.47.69,19.59,19.59,0,0,0,4.68.73,7.79,7.79,0,0,0,3.34-.92,4.24,4.24,0,0,0,1.31-1,7.68,7.68,0,0,0,1-1.72,3.88,3.88,0,0,0-.34-3.3,15.2,15.2,0,0,0-3.16-4.21A6.42,6.42,0,0,0,38.33,13a12.31,12.31,0,0,0-2.08-.72,10.74,10.74,0,0,0-2.1-.49,4.57,4.57,0,0,0-1.5.31,3.59,3.59,0,0,1-1.58.32c-.45-.31-.32-.67.36-1.09a4.92,4.92,0,0,1,2.63-.69c1,0,1.73-.06,2.13-.11a11.42,11.42,0,0,1,3.05.61,14.29,14.29,0,0,1,2.24.75A6.9,6.9,0,0,1,43,12.91a5.64,5.64,0,0,1,1.48,1.57c.14.32.3.51.49.56s.61.58,1,1.54a5.24,5.24,0,0,1,.62,2.18,9,9,0,0,1-.15,2,.93.93,0,0,1-.48.7,1,1,0,0,0-.55.56,2,2,0,0,1-.55.78A10.31,10.31,0,0,1,43.18,24c-.81.5-1.29.73-1.44.68a5,5,0,0,0-1.7.7,4.38,4.38,0,0,1-2.51.62,2.1,2.1,0,0,0-1.39.12,1,1,0,0,1-.9.1c-.36-.11-.61-.1-.73,0s-.57.12-1.35,0-1.65-.21-2.63-.33a17.74,17.74,0,0,1-2.38-.33A2.45,2.45,0,0,1,27.13,25Z"/><path class="cls-1" d="M47.75,30.75a7.4,7.4,0,0,0-.49-1.54A2.5,2.5,0,0,1,47,27.63c.11-.41.09-.68,0-.81s-.16-.39-.05-.79a23.81,23.81,0,0,0,.25-3.2,31,31,0,0,0,0-3.41,7.83,7.83,0,0,1,.14-1.93l.23-1.34,1-.24A3,3,0,0,1,50.3,16a1.07,1.07,0,0,1,.65.49,5.87,5.87,0,0,1,.13,1.4q0,1.62-.15,3.18a15.5,15.5,0,0,0-.09,2.4c0,.55.07,1.5.1,2.87a9.85,9.85,0,0,0,.18,2.12.57.57,0,0,0,.65.45c.22,0,.66-.32,1.31-1a4.58,4.58,0,0,0,1.09-1.4,2.71,2.71,0,0,1,.77-1A11.72,11.72,0,0,0,56.26,24c.42-.57.94-1.23,1.54-2A7.12,7.12,0,0,0,59,20.18l.61-1.51c.2-.51.36-.79.47-.84s.12-.46,0-1.24l-.17-1.14.86-.37a2.33,2.33,0,0,1,.77-.26.81.81,0,0,1,.52.22,1.67,1.67,0,0,0,1.1.43.61.61,0,0,1,.72.66,6.57,6.57,0,0,1-.44,2.57,7.17,7.17,0,0,1-1.09,2.39,6.1,6.1,0,0,0-1.1,1.58,12.27,12.27,0,0,1-1.51,2.2,22,22,0,0,0-1.44,1.9,10.37,10.37,0,0,1-2.4,2.65,5.7,5.7,0,0,1-2.53,1.39c-.36,0-1,.14-1.79.29a14.79,14.79,0,0,1-2,.26,5.7,5.7,0,0,1-1.51,0C47.89,31.32,47.81,31.12,47.75,30.75Z"/><path class="cls-1" d="M87.3,27c-1.18-.73-2.12-1.29-2.82-1.67l-2.25-1.2a5.72,5.72,0,0,0-2-.73,1.61,1.61,0,0,1-1.1-.4,13.72,13.72,0,0,0-3.42-1.29c-1.45-.44-2.37-.7-2.76-.77a1.25,1.25,0,0,0-1,.19,3.4,3.4,0,0,0-.88,1,2.15,2.15,0,0,1-.87.85,11.41,11.41,0,0,0-1.58,1.19,3.37,3.37,0,0,0-1,1.05.35.35,0,0,0,.09.32.68.68,0,0,0,.36.23c.39.13.85.31,1.37.54a22.25,22.25,0,0,0,3.21,1.05l1.28.29c.47.14,2.14.55,5,1.25,1.79.42,3,.72,3.52.91a1.72,1.72,0,0,1,1,.59c.28.53-.14.76-1.27.71a63.53,63.53,0,0,1-9.57-2,49.87,49.87,0,0,0-6.7-1.51c-.26.13-.51.73-.74,1.78A5.68,5.68,0,0,0,65,31.66a4.37,4.37,0,0,0,.93,1.69,3.17,3.17,0,0,0,1.09.83A22.17,22.17,0,0,0,69.7,35c2,.57,3.16.8,3.4.68s1.58.12,4.05.7a22.41,22.41,0,0,0,4.55.82,1.88,1.88,0,0,1,1.25.23c.39.27.31.5-.25.69a3.86,3.86,0,0,1-1.94.09,11.45,11.45,0,0,0-2.26-.17,8.92,8.92,0,0,1-2.36-.28,19,19,0,0,0-2.93-.42,45.33,45.33,0,0,1-5.64-1c-1.89-.41-3.1-.7-3.63-.88a4.41,4.41,0,0,1-1.43-.81,4.48,4.48,0,0,1-.78-.92,5.6,5.6,0,0,1-.6-1.11,3.13,3.13,0,0,1-.29-1.37,13.15,13.15,0,0,1,.63-2.15,6.89,6.89,0,0,0,.64-2.83.83.83,0,0,1,.18-.91A1.46,1.46,0,0,1,63.38,25a2.88,2.88,0,0,0,1.86-1.13,6.27,6.27,0,0,0,1.08-1.42,1.51,1.51,0,0,1,.65-.71,1.82,1.82,0,0,0,.76-1.13.82.82,0,0,0-.35-1,.76.76,0,0,1,.17-1.38A5.32,5.32,0,0,1,70,18.16a45.69,45.69,0,0,1,4.75,1.12,23.87,23.87,0,0,1,4.94,1.63,24.45,24.45,0,0,0,4,1.85c3.39.92,5.18,2,5.35,3.16a1,1,0,0,1-.75,1.16A1,1,0,0,1,87.3,27Z"/><path class="cls-1" d="M98.38,49a11.61,11.61,0,0,1-1.24-1.12c-.23-.26-.9-.91-2-2s-1.64-1.65-1.6-1.8-.39-.61-1.29-1.39a6.54,6.54,0,0,1-1.48-1.51c-.12-.32-.45-.49-1-.52a4.11,4.11,0,0,0-1.8.38,3.31,3.31,0,0,1-2.19.3l-.84-.24.61-1.32a18.48,18.48,0,0,0,.91-2.23,9.29,9.29,0,0,1,.7-1.65,36.46,36.46,0,0,0,1.63-4.58c.3-.91.51-1.56.63-1.94s.26-.75.38-1.12a2,2,0,0,1,.36-.74,2.24,2.24,0,0,1,.33-.3,2.51,2.51,0,0,1,2.26-.48,1.11,1.11,0,0,1,.67.38,1.84,1.84,0,0,1,0,.95A12.66,12.66,0,0,1,93,30.59q-.37,1.26,0,1.47c.28.13.86-.07,1.74-.61a19.86,19.86,0,0,1,5.57-1.92,17.32,17.32,0,0,1,5.55-.55,4.18,4.18,0,0,1,1.25.32c.16.11.24.37.27.78a4.45,4.45,0,0,1-.63,2.58A3.24,3.24,0,0,1,105,34.29a.64.64,0,0,0-.53.49,14.94,14.94,0,0,1-3.24,2.12,38.54,38.54,0,0,1-4.35,2.27l-1,.35.58.89a21.32,21.32,0,0,0,3.37,3.93c.41.35.59.62.54.79s.26.47.92.89a22.37,22.37,0,0,1,1.84,1.34,11,11,0,0,0,3.08,1.48c1.49.53,2.22.86,2.18,1s-.35.24-.93.3a12.65,12.65,0,0,0-2.07.42,7.41,7.41,0,0,1-3.61-.18A8.54,8.54,0,0,1,98.38,49ZM95.3,38.23a4.93,4.93,0,0,1,1.87-.7,7.28,7.28,0,0,0,2.72-1.7,12.49,12.49,0,0,0,2.65-2.73c.75-1.17.73-1.94-.08-2.33a3.52,3.52,0,0,0-1.69.19,21.46,21.46,0,0,0-3,1,7.92,7.92,0,0,0-1.39.79,12.33,12.33,0,0,0-1.47,1.15l-2.31,2.19-.79.78.78.8a3.12,3.12,0,0,0,1.31,1A2.42,2.42,0,0,0,95.3,38.23Z"/><path class="cls-1" d="M144.51,58.29a.79.79,0,0,1,0-.57,1.23,1.23,0,0,0-.1-.85,4.82,4.82,0,0,1,.17-2.31c.27-1.27.5-1.94.7-2s.35-.36.5-.91a2,2,0,0,1,.46-1,2.68,2.68,0,0,0,.6-1c.24-.5.28-.83.11-1s-.49-.13-1,.12a9.58,9.58,0,0,1-1.67.59,3.77,3.77,0,0,1-1.36.23,5.09,5.09,0,0,0-1.35.14,5.41,5.41,0,0,1-3.46-.57,3.78,3.78,0,0,1-1.29-1.35,8.38,8.38,0,0,1-1.1-2.17,1.24,1.24,0,0,0-.23-.48s-.18,0-.39.18a1.65,1.65,0,0,0-.54.82,11.81,11.81,0,0,1-1,1.88,11.44,11.44,0,0,0-.92,1.8,1.34,1.34,0,0,1-.52.72,1.18,1.18,0,0,0-.47.55,3.85,3.85,0,0,1-1.12,1.17c-.68.57-1.09.83-1.22.8a1.65,1.65,0,0,0-.91.2,1.28,1.28,0,0,1-.56.16c-.1,0-.19-.1-.28-.26a.54.54,0,0,1-.09-.4,2.59,2.59,0,0,1,.38-.6,4,4,0,0,0,.68-1.34q.19-.69.42-.75c.16,0,.29-.25.39-.64s.24-.6.38-.64a7.65,7.65,0,0,0,1-2.35,13.48,13.48,0,0,1,1-2.45,14.83,14.83,0,0,0,.88-2.52q.29-.93.45-1.32c.1-.27.21-.53.32-.79a1.07,1.07,0,0,1,.42-.53l.51-.24a5.28,5.28,0,0,1,.84-.22c.67-.14,1.07-.31,1.21-.53s.27-.3.38-.27a2.17,2.17,0,0,0,.91-.29,1.46,1.46,0,0,1,1.18-.18c.28.13.35.39.2.77a2.36,2.36,0,0,0-.08,1.15,5.64,5.64,0,0,1,0,1.71,7.31,7.31,0,0,0,0,3.57,1.1,1.1,0,0,1,.16.71q-.06.26.45,1.08a5.29,5.29,0,0,0,1,1.24,4.77,4.77,0,0,0,2.39.89,4,4,0,0,0,2.42-.28,1.25,1.25,0,0,1,.88-.24,6.52,6.52,0,0,0,2.25-1,5.75,5.75,0,0,1,2.51-1c.25,0,.38.13.39.23a3.72,3.72,0,0,1-.27,1,2.87,2.87,0,0,1-.87,1.43,1.86,1.86,0,0,0-.7,1,2.59,2.59,0,0,1-.52,1,6.09,6.09,0,0,0-.81,1.76,13.34,13.34,0,0,1-.79,1.94,5.09,5.09,0,0,0-.4,1.62,3.43,3.43,0,0,0,0,1.48.58.58,0,0,1,0,.57,1.08,1.08,0,0,1-.51.5,2.28,2.28,0,0,1-1.11.13C144.87,58.49,144.58,58.41,144.51,58.29Z"/><path class="cls-1" d="M176.18,51.84c-1.17-.74-2.11-1.29-2.82-1.67L171.12,49a5.94,5.94,0,0,0-2.05-.72,1.64,1.64,0,0,1-1.11-.4,13.35,13.35,0,0,0-3.41-1.29c-1.46-.45-2.38-.7-2.77-.77a1.16,1.16,0,0,0-1,.19,3.27,3.27,0,0,0-.88,1,2.24,2.24,0,0,1-.88.85A10.67,10.67,0,0,0,157.49,49a3.56,3.56,0,0,0-1,1.06.37.37,0,0,0,.1.31.64.64,0,0,0,.36.24c.39.13.84.31,1.37.54a21.28,21.28,0,0,0,3.2,1l1.29.3q.71.2,5,1.25c1.79.42,3,.72,3.52.9s.89.39,1,.6c.28.52-.14.76-1.26.71a63.82,63.82,0,0,1-9.58-2,49.5,49.5,0,0,0-6.7-1.51c-.26.13-.5.72-.73,1.77a5.54,5.54,0,0,0-.18,2.27,4.27,4.27,0,0,0,.93,1.68,3,3,0,0,0,1.09.84,21.19,21.19,0,0,0,2.66.85,10.74,10.74,0,0,0,3.41.68c.23-.12,1.58.12,4,.7a21.55,21.55,0,0,0,4.55.81,2,2,0,0,1,1.26.23c.39.28.31.5-.25.69a3.78,3.78,0,0,1-2,.1,10.69,10.69,0,0,0-2.26-.17,9.41,9.41,0,0,1-2.36-.28,17.56,17.56,0,0,0-2.92-.42,45.32,45.32,0,0,1-5.64-1c-1.89-.4-3.1-.7-3.63-.87a4.31,4.31,0,0,1-1.43-.81,4.48,4.48,0,0,1-.78-.92,5.2,5.2,0,0,1-.61-1.11,3.1,3.1,0,0,1-.28-1.37,11.33,11.33,0,0,1,.63-2.16,6.84,6.84,0,0,0,.64-2.83.8.8,0,0,1,.18-.91,1.52,1.52,0,0,1,1.09-.38,2.82,2.82,0,0,0,1.85-1.12,5.67,5.67,0,0,0,1.08-1.42,1.54,1.54,0,0,1,.66-.71,1.87,1.87,0,0,0,.75-1.13.82.82,0,0,0-.35-1,.74.74,0,0,1-.35-.75.68.68,0,0,1,.53-.63,5.39,5.39,0,0,1,2.43-.07,45.76,45.76,0,0,1,4.75,1.13,23.83,23.83,0,0,1,4.95,1.63,24.39,24.39,0,0,0,4,1.84q5.09,1.4,5.35,3.17a1,1,0,0,1-.75,1.16A1.07,1.07,0,0,1,176.18,51.84Z"/><path class="cls-1" d="M174.63,70.6a2.23,2.23,0,0,1,.74-.88,5,5,0,0,1,1.14-.76A2.44,2.44,0,0,1,178,69c.56.16.78.41.67.77s-.58.58-1.25.65a2.75,2.75,0,0,0-1.4.43.92.92,0,0,1-.57.18,1.44,1.44,0,0,1-.64-.1C174.63,70.83,174.57,70.72,174.63,70.6Zm3.8-10c-.15,0-.23-.15-.27-.36a9.51,9.51,0,0,1,.2-1.8,14.1,14.1,0,0,0,.23-2.55,46.8,46.8,0,0,1,1.81-7.44q1.41-4.89,2.2-6.89a5,5,0,0,1,1.53-2.41,1.23,1.23,0,0,0,.6-.74,1.28,1.28,0,0,1,.76-.76q.4-.23.57-.15a1.16,1.16,0,0,1,.41.54,1.54,1.54,0,0,1,.19.85q-.09.77-2.79,9.47c-.37,1.19-.81,2.89-1.3,5.09a27.17,27.17,0,0,0-.72,3.77,1.4,1.4,0,0,1-.27,1.11,1.79,1.79,0,0,0-.37,1.06.94.94,0,0,1-.42.82,1.39,1.39,0,0,1-1.06,0,.9.9,0,0,0-.89.12C178.71,60.58,178.57,60.66,178.43,60.63Z"/><path class="cls-2" d="M81,57.06c-.17,0-.55.08-.47.12l.66-.07Z"/><path class="cls-2" d="M79.84,57.58a5.74,5.74,0,0,0,1.49-.12c-.64,0-.38,0-1.13,0-.09,0,.2-.12.44-.14-.17,0,.13-.1-.28-.07s-.51.23-.08.25A2.43,2.43,0,0,1,79.84,57.58Z"/><path class="cls-2" d="M79.09,62.43l.08,0A.13.13,0,0,0,79.09,62.43Z"/><path class="cls-2" d="M78.52,65.31s-.07,0-.13,0Z"/><path class="cls-2" d="M77.74,65.7l.05,0C77.73,65.68,77.69,65.68,77.74,65.7Z"/><path class="cls-2" d="M79.09,62.43l-.21.08C79.1,62.52,79,62.47,79.09,62.43Z"/><path class="cls-2" d="M81.51,58.06l-.18,0,.07,0Z"/><path class="cls-2" d="M78.56,61.16v0h-.27Z"/><path class="cls-2" d="M78.42,60.19a6.34,6.34,0,0,0,.78,0,1.21,1.21,0,0,1-.38,0Z"/><path class="cls-2" d="M79.27,58.56l-.08,0Z"/><path class="cls-2" d="M78.45,61.85h0Z"/><path class="cls-2" d="M69.38,88.69l-.06-.08S69.37,88.69,69.38,88.69Z"/><polygon class="cls-2" points="66.76 87.17 66.76 87.14 66.58 86.88 66.76 87.17"/><path class="cls-2" d="M76.88,66.44h0C76.83,66.41,76.84,66.42,76.88,66.44Z"/><path class="cls-2" d="M74.88,74.14c.49.13.52.42,1.08.53A4.94,4.94,0,0,0,74.88,74.14Z"/><path class="cls-2" d="M81.44,58.1v0S81.46,58.11,81.44,58.1Z"/><path class="cls-2" d="M76,74.67h0Z"/><path class="cls-2" d="M76.81,68.47l.24,0Z"/><path class="cls-2" d="M77.92,67.15l-.08,0Z"/><path class="cls-2" d="M77.39,69.43s-.12,0,0,0h.06C77.33,69.45,77.3,69.43,77.39,69.43Z"/><path class="cls-2" d="M77.16,70.23h.11l0,0Z"/><path class="cls-2" d="M71.44,86.64c-.13-.1-.25-.23-.38-.35C71.34,86.58,71.33,86.78,71.44,86.64Z"/><path class="cls-2" d="M81.19,58.1h.25l0,0Z"/><path class="cls-2" d="M81.66,70.63l-.11.12A.16.16,0,0,0,81.66,70.63Z"/><path class="cls-2" d="M75.86,81.54l0,.07S75.9,81.59,75.86,81.54Z"/><path class="cls-2" d="M81.49,71.21a1.55,1.55,0,0,0-.39,0l.13,0Z"/><path class="cls-2" d="M71.06,86.29Z"/><path class="cls-2" d="M71.19,88c.12-.09-.42-.6-.67-.94,0-.27.41.36.71.61,0-.22-.43-.79-.36-.82a1.31,1.31,0,0,1,.22.24c-.31-.51.23-.24-.17-.88l.14.13c-.27-.26-.52-.54-.7-.74,0,0-.23-.42.12-.08,0,0,.09.16.18.29l-.1-.2c.52.47.1.24.44.61,0-.25-.33-.77-.12-.69.47.49,0,.32.49.68l-.29-.09c.81.71-.12,0,.73.78.29,0,0-.4.23-.4-.23-.31-.4-.4-.62-.7-.28-.69,1.34,1.07.86.26-.28-.36-.86-1-.44-.77l.5.59c.2-.09-.7-.87-.19-.65.19.24.07.29.16.34.52.33-.24-.38-.17-.45l.5.46c.07-.22-.12-.73,0-1A1.84,1.84,0,0,0,73,85c0-.44.5-.39,1-.34l-.37-.47s.23.14.3.23c.24.07-.27-.25-.41-.44s.3.16.41.31c-.24-.48-.45-1.12.16-.87l.11.14c.28,0-.81-.9-.3-.66L74,83c.42-.09.24-.71,1.09-.38-.64-.56.5,0-.42-.78.58.2.71.37,1.19.38.09,0-.52-.52-.57-.67l.5.36-.45-.48.64.38-.08-.16a1,1,0,0,1-.41-.21c-.14-.27.55,0,.81.17L76.05,81a1.39,1.39,0,0,1,.34.37c-.41-.5.55.34.17-.11a4,4,0,0,1-.39-.3c.35.15.45,0,.39-.19l.34.25c.22-.14.1-.53.25-.75a2,2,0,0,1-.84-.55l.56.33c-.31-.26-.25-.07-.61-.42.12,0,.66.34.81.51l-.13-.23c.17.1.24.18.45.32-.32-.26.66.17.11-.26l.17.09c.15-.22,0-.44.11-.64-.48-.3-.32-.3-.68-.59.23,0,.69,0,.75-.17-.18-.25-.4-.27-.66-.48.45.24.5,0,.77.32,0-.24.06-.31-.17-.76a1.49,1.49,0,0,1-.44-.19c0-.08.24,0,.46.13l0,0c-.53-.64,1.68,0,.85-.69l0,0-.39-.49c.13-.07.32.24.64.29-.65-.63.3-.36-.11-.82,1.45.47.18-.64,1.17-.47l-.33-.13c-.3-.2.22,0,.31,0-.26-.1-.32-.06-.48-.18-.16-.66.9-.84,1.41-1.26.17-.17-1.68-.76-.79-.7l.6.3c-.59-.66.32-.8-.2-1.4.14.07.33.13.31.17.49.07.12-.3-.25-.42.06,0,.34.09.54.12s-.52-.39-.05-.29a.38.38,0,0,1,.17.09c-.2-.12.14-.23-.41-.34.3-.07-.15-.35.21-.37-.58-.25.36-.17-.47-.43.86.26.78-.06.39-.27.25.11.29,0,.65.13,0-.11-.13-.25-.58-.35,1.09.07-.75-.61.62-.38a4.49,4.49,0,0,1-.78-1.12c.88.2,0,.33.94.53-.3-.36-1-.68-.74-.89.13-.05.37.11.51.17-.29-.34.18-.51-.25-.85a.94.94,0,0,1,.23.1s.15-.09-.26-.16l.1.07A6.93,6.93,0,0,1,80,67.26c1.14.29.33-.18,1.77.2a1.74,1.74,0,0,0-.53-.15c.09,0,.25,0,.55.08-.2-.21-.64-.23-.6-.38.2,0,.27.08.49.14-.37-.15-.73-.29-.55-.39s.28,0,.27.08c0-.24-1-.53-.55-.72.84.19.3,0,1,0l-.2-.16h-.37c0-.11-.5-.28-.25-.35l.3.12-.12-.23-.3.09c-.37-.16-.93-.11-.71-.23.07,0,0-.11.46-.12h0c-.23-.08-.47-.16-.28-.23s.82.11,1,.11c-.62-.12-.15-.28-.8-.42a4.21,4.21,0,0,0,.62.08l-.5-.1a1.69,1.69,0,0,1,.56,0c.11-.15-1,0-.52-.18a.62.62,0,0,1,.18,0c.24-.17-.28-.39,0-.54.75,0,.16.17.8.16-.1-.27-.85-.59-.67-.82l-.08,0c-1.06-.09.53-.15,0-.3a3.59,3.59,0,0,0,.47,0c.17-.16-.25-.36-.58-.61l.27,0c.25-.09.15-.25.28-.36a1.79,1.79,0,0,0-.62-.06c1.55-.32-.81-.62.46-.91,0,0,.25.08.25,0l-.27-.25a3,3,0,0,0-.63.1c-.28,0-.49-.09-.49-.15a2.16,2.16,0,0,0,1-.07h-.44c.82-.15-.93,0-.38-.19h.24c-.13-.06-.45-.1-.38-.17.53,0,.25,0,.69,0,0-.1-1-.15-.49-.26.15,0,.15.09.3.13.62-.12.47-.13.56-.21h0l.27-.18-.16,0c-1.4,0-.27-.24-1.19-.35.87.1.5,0,1.11,0a1.58,1.58,0,0,1,.52-.12c-.49,0,.38-.16-.34-.23.19,0,0-.08.5-.1-.15-.1-.33,0-.58.06-.66-.11.77-.45-.17-.6-.39-.16-1-.13-1.4-.27a2,2,0,0,1,.71,0c.28-.13.21-.2,0-.26a2,2,0,0,0,.53-.1c-.06-.07-.71,0-.44-.09s.57,0,.79,0c-.19-.07-.56-.11-.75-.18a2.64,2.64,0,0,1,.74,0,1.26,1.26,0,0,0-.87-.19l-.18.1s.45-.09.55-.07c.43,0-.17.15-.36.18l-.13,0c-1.13.22.21.23.16.38l-.83,0,.7,0a2.35,2.35,0,0,1-.8.08c-.4.14.3.05-.15.17a.45.45,0,0,1-.14,0l.26.06c-.18,0-.59.08-.47,0-.46.2.65.19,0,.31h0c.3.19.61,0,1.34.06l-1.49.25.61,0s-.06.08-.3.09c.43.05.26,0,.66,0-.54.15.28.28-.69.38.47,0,.36-.13.68,0-1,.11.19.12-.29.26s-.25-.11-.73,0c.91,0-.19.2,0,.27.72,0,.31.16.55.29-.24,0-.38.28-.64.42h-.12c.73,0,.6.13.76.23a3.2,3.2,0,0,1-.82-.06v.09a1.1,1.1,0,0,1,.45.1h-.55c0,.12.66.23.29.39a6.41,6.41,0,0,1,1.77,0,3.68,3.68,0,0,1-.86,0s.22,0,.11.08l-.47-.06c-.2.07.39,0,.34.09-.39,0-.28.05-.59,0,0,0,.16,0,0-.07a1.3,1.3,0,0,1-.61.16,1.69,1.69,0,0,1,.58,0c0,.12-.47,0-.68.11.27,0,0,.1.58.11a1.67,1.67,0,0,1-.44.05c.26.06.06.29.69.23h.07c.58.22-.35.42-.1.63H79c.23.13.13.27.55.38a1.3,1.3,0,0,1-.6,0c.15.1.38.13,0,.24-.34-.12-.31,0-.25-.11-.17.11-.5.11,0,.28-.5-.08-.64,0-.5.1l.37-.05c.07.07,0,.12,0,.17L77.9,64c-.83.16,1.33.56,0,.61.46.11.34-.1.87,0-.1.11-1.06.12-1.06.16-.38.1,1,.24.68.37a2.86,2.86,0,0,1,1.08.22,2.56,2.56,0,0,1-1.18-.08s.06,0,.14,0a.63.63,0,0,0-.44-.09l.23,0c-.24,0-.23.18-.62.09a.59.59,0,0,0,.51,0c-.35.1,0,.22-.28.33a1.65,1.65,0,0,1,.41,0c-.33.17.43.16.51.32-.38,0-.85-.16-.58,0a1.75,1.75,0,0,1-.81-.14c.43.2-.34.2-.43.26l-.18-.1c.1.06.1.09.09.12l.47,0a.38.38,0,0,1-.29,0c.3.09.79.09,1.19.24-.24,0,.23.22-.4.13.24-.14-.62-.09-.7-.25.07,0,.06.07,0,.1a.5.5,0,0,1-.16,0c-.58.06.69.2.65.36-.35-.08-.67-.08-.6,0a2.13,2.13,0,0,1,.85.19c-.29.06.18.15.14.2l.13,0c.35.09.29.14.39.24-.27,0-.17-.11-.3-.11.6.21-.66.07-.27.27-.25,0-.66-.13-.82-.11.42.22-.51,0-.17.25a1.71,1.71,0,0,1,.8.22l-.28-.29.65.28c0-.06-.26-.2-.17-.23a1.42,1.42,0,0,0,.64.17c-.72,0,.36.27-.14.28l-1.15-.25c-.55,0,.52.41.18.56l.22,0c.45.13,0,.14.2.25a4.14,4.14,0,0,0-.78-.12c.29.07-.06.15.7.36l-.53,0c-.24.12,1,.48.88.61a5.66,5.66,0,0,1-1-.34s-.09.08.17.15c-.25,0,.48.29.1.24.17.07.56.19.52.24a1.09,1.09,0,0,1-.19,0,2.21,2.21,0,0,0,.66.23c-1.23-.17-.06.5-1.12.34a1,1,0,0,1,.16.45c-.11,0-.19-.06-.14-.06-.4,0,1,.43.61.48-.64-.11-.3-.2-.55-.22-1.24-.38.1.26-.65.13l-.07,0c-.44-.06.41.36.27.48a1.08,1.08,0,0,0-.18-.07,1.73,1.73,0,0,1,.85.77,2.57,2.57,0,0,0-.72-.31c0,.09.79.27.88.44a6,6,0,0,1-1.07-.23l0-.12c-.69-.19,0,.15-.17.16L76.22,72c0,.2.76.48.64.65l.22.06c.69.39-.44-.07.06.24l-.74-.26a4.21,4.21,0,0,1,.7.7,8.94,8.94,0,0,1-1-.76c0,.06,0,.24.31.42-.06,0-.22-.16-.1-.14.54.31.78.54.72.67-1.4-.61-.49.2-1.63-.19.41.45-.43.34-.46.63,1.12.41,0,.09,1.11.59,0,.09,0,.11-.06.08l-.75-.13c-.34-.11-.21-.17-.46-.29-.15.09-.5-.17-.83-.22.4.17.54.31.36.31l.56.15c.5.47-1-.3-.5.17L74,74.43c.16.19-.17.33.65.87a1.8,1.8,0,0,1-.5-.26c-.24.14.66,1,0,.85L74,75.73c.05.08.45.34.16.25a1,1,0,0,0-.28-.15c.08.07.4.36.22.33L73.79,76c-.45,0,.54.73.61,1a2.21,2.21,0,0,0-1.27-.42l-.1-.06c-.24.17.37.77.52,1.18-.9-.38-.64.24-1.22.16a2.36,2.36,0,0,1,.61.48c-.18,0,.41.49-.25,0h0c-.68-.41-.57-.19-.65-.12l.86.61c-1.41-.68,0,.88-1.14.18.17.21.12.27.3.47l-.45-.34c-.22,0-.33.07-.34.32l-.3-.28c-.1.07,1.2,1.12,1.16,1.23l-.68-.49c-.11.18-.83-.14-.37.5-.09-.08-.28-.24-.28-.28s-.68-.09.23.63c-.58-.48-.2.11,0,.42l-.41-.38c.48.54.62.67.68.9-.07,0-.35-.27-.22-.21-.29-.11.34.41,0,.32l-.24-.28c-.1.06,0,.18.32.5s-.25.07-.63-.26c.22.22.48.54.33.49a1.68,1.68,0,0,1-.25-.26c-.4-.12.28.64-.2.35a2.55,2.55,0,0,0-.26-.21c.11-.09.22-.15.24-.12a5.94,5.94,0,0,1-1-.87c.22.32.72,1,.46.93L69.79,82l0,0s0,0,0,.1-.15-.06-.18,0c-.31-.28-.25-.06-.31,0,.41.39.29.38.67.66a.1.1,0,0,1,0-.1.08.08,0,0,0,0-.06l0,0a.46.46,0,0,1,.08-.13c.17.23.31.43,0,.26l.59.69c-.62-.49-1-.68-1.39-1a1.75,1.75,0,0,0,.52,1.28c0,.13-.26-.18-.38-.29s0-.11-.12-.23c.12.27-.13.29.36.85-.32-.15-.42-.55-.46-.34L69,83.38c-1-.64.84,1.77-.47.9a.78.78,0,0,1,.21.17c-.77-.23-.28,1.1-1.3.54-.23-.09.05.28.21.61l-.4-.46.33.63c.15.52-1.16-1-.76-.08l.27.31c-.12,0-.07.35-.34,0,0,.06.23.36.08.2l-.19-.25.15.56c-.26-.09-.71-1-.93-.94a3.91,3.91,0,0,0,.48,1s.19.11.37.37l0,.18a8.52,8.52,0,0,0,1.55,2l-.21-.55.3.34-.08.1c.3.3.12,0,0-.28a2.23,2.23,0,0,0,.34.37l-.4-.81c.23.28.37.62.57.73-.18-.38-.53-.62-.6-.91.31.3.49.59.35.24a1.45,1.45,0,0,1,.26.43c-.11-.28.09-.22-.17-.64.37.37.12-.26.64.45a2.44,2.44,0,0,1-.28-.7c.55.91.25-.11.92.8-.51-.8,0-.54-.18-1,0,.06.12.2.08.17.12,0,.33.21.48.31a6.73,6.73,0,0,1-.73-1.28c.56.51.53.76,1,1.3-.41-.49-.25-.63-.62-1a4.52,4.52,0,0,1,.65.6c-.62-.76,0-.19-.38-.69.41.28.62.67.54.36A1.34,1.34,0,0,1,71.19,88Zm1.26-3.53h0l0,.07Zm.19-.2a.23.23,0,0,0-.1.07c-.15-.12-.29-.27-.26-.28S72.49,84.14,72.64,84.22Zm-3.21-2.3c0-.08.06,0,.15.07s0,0,0,.09l0,0Z"/><path class="cls-2" d="M69.91,82.49a.08.08,0,0,1,0,0l.11.07-.12-.13Z"/><path class="cls-2" d="M79.18,62.4h0Z"/><polygon class="cls-2" points="75.89 81.96 75.78 81.88 75.87 81.97 75.89 81.96"/><path class="cls-2" d="M81.11,61l.15,0Z"/><path class="cls-2" d="M81.21,60.31l.2-.1Z"/><path class="cls-2" d="M81.47,59.8h0Z"/><path class="cls-2" d="M81.62,67.82s0,0,0,0S81.7,67.87,81.62,67.82Z"/><path class="cls-2" d="M80.67,65.29a1.69,1.69,0,0,1,.26.11S81,65.33,80.67,65.29Z"/><path class="cls-2" d="M81.68,70.62h0s0,0,0,0Z"/><path class="cls-2" d="M80.91,65.5c.11,0,.09-.06,0-.1S80.83,65.46,80.91,65.5Z"/><path class="cls-2" d="M81.5,57.61l0,0h-.09Z"/><path class="cls-2" d="M81.43,57.59l-.06,0S81.37,57.59,81.43,57.59Z"/><path class="cls-2" d="M81.22,57.54l.15,0S81.38,57.53,81.22,57.54Z"/><path class="cls-2" d="M81.32,58.3h0Z"/><path class="cls-2" d="M81.41,58.49c0-.05.42-.16.28-.22l-.16,0C81.83,58.28,81.06,58.49,81.41,58.49Z"/><path class="cls-2" d="M79,59.53l.15-.17c-.22,0-.5.11-.56,0C78,59.65,79.06,59.32,79,59.53Z"/><path class="cls-2" d="M78.69,60c-.1-.08-.31,0-.43,0A.58.58,0,0,0,78.69,60Z"/><path class="cls-2" d="M78.7,63.46l-.51,0C78.27,63.49,78.39,63.44,78.7,63.46Z"/><polygon class="cls-2" points="81.28 64.34 81.61 64.29 81.14 64.22 81.28 64.34"/><polygon class="cls-2" points="77.61 64.41 77.54 64.38 77.72 64.5 77.61 64.41"/><path class="cls-2" d="M76.72,69.94l.62.16C77.24,70,76.56,69.82,76.72,69.94Z"/><path class="cls-2" d="M76.53,72.48c-.3-.09-.51-.1-.24,0C76.35,72.5,76.6,72.53,76.53,72.48Z"/><polygon class="cls-2" points="72.21 78.45 72.06 78.3 72.15 78.47 72.21 78.45"/><path class="cls-2" d="M62.39,74.06c-.17,0-.56.06-.48.1l.66,0Z"/><path class="cls-2" d="M61.21,74.54a6.67,6.67,0,0,0,1.49-.11c-.64,0-.37,0-1.13,0-.08,0,.2-.11.44-.14-.17,0,.14-.09-.28-.06s-.51.2-.08.23A3.84,3.84,0,0,1,61.21,74.54Z"/><path class="cls-2" d="M60.77,79.33l.07,0S60.78,79.31,60.77,79.33Z"/><path class="cls-2" d="M60.77,82.26a.23.23,0,0,0-.15,0A.37.37,0,0,0,60.77,82.26Z"/><path class="cls-2" d="M60.11,82.85s0,0,0,0S60.06,82.84,60.11,82.85Z"/><path class="cls-2" d="M60.77,79.33l-.2.1C60.79,79.41,60.73,79.37,60.77,79.33Z"/><path class="cls-2" d="M62.88,75l-.18,0,.07,0Z"/><path class="cls-2" d="M60.08,78.12v0h0Z"/><path class="cls-2" d="M59.85,77.15a5.94,5.94,0,0,0,.79-.05,2.2,2.2,0,0,1-.39,0Z"/><path class="cls-2" d="M60.64,75.48l-.08,0Z"/><path class="cls-2" d="M60,78.83l-.19,0Z"/><path class="cls-2" d="M78.5,87.55v.1C78.51,87.59,78.51,87.55,78.5,87.55Z"/><polygon class="cls-2" points="79.86 90.23 79.85 90.27 79.87 90.58 79.86 90.23"/><path class="cls-2" d="M59.5,83.84h0C59.45,83.82,59.46,83.83,59.5,83.84Z"/><path class="cls-2" d="M63.42,93.24c.09-.5.5-.51.55-1.08C63.9,92.37,63.39,92.88,63.42,93.24Z"/><path class="cls-2" d="M62.81,75s0,0,0,0S62.83,75,62.81,75Z"/><path class="cls-2" d="M64,92.16h0v0Z"/><path class="cls-2" d="M60.1,85.88l.24-.06Z"/><path class="cls-2" d="M60.7,84.23l-.07,0Z"/><path class="cls-2" d="M61,86.58s-.12,0,0,.06H61C60.94,86.63,60.9,86.62,61,86.58Z"/><path class="cls-2" d="M61.1,87.42l.11,0,0,0Z"/><path class="cls-2" d="M76,88a4,4,0,0,1,.08.5C76,88.13,76.11,88,76,88Z"/><path class="cls-2" d="M62.56,75h.25l0,0Z"/><path class="cls-2" d="M65.39,86.07l-.06.14A.15.15,0,0,0,65.39,86.07Z"/><path class="cls-2" d="M69.94,88.6l0-.07S69.94,88.54,69.94,88.6Z"/><path class="cls-2" d="M65.46,86.59a1.56,1.56,0,0,0-.38.13h.15Z"/><path class="cls-2" d="M76.05,88.54h0Z"/><path class="cls-2" d="M76.82,87.13c-.13,0,0,.73,0,1.15-.13.23-.11-.53-.19-.9-.08.2-.1.88-.17.86a1.06,1.06,0,0,1,0-.32c-.05.59-.3,0-.35.8l0-.18c0,.36.08.74.1,1-.06,0-.07.47-.13,0,0,0,0-.18,0-.34l0,.22c-.11-.69.06-.25,0-.76-.1.24-.19.82-.29.63-.07-.67.19-.24,0-.84l.16.25c-.19-1.06.09.07-.1-1.07-.2-.18-.17.37-.37.18,0,.38.06.56,0,.94-.21.7-.35-1.69-.46-.77,0,.45,0,1.31-.14.87v-.77c-.18-.06,0,1.11-.24.61,0-.3.12-.26.08-.35-.16-.6,0,.44-.14.45l-.07-.68c-.18.12-.35.63-.54.77a2.18,2.18,0,0,0-.06-.62c-.23.36-.56,0-.85-.42l0,.59a1,1,0,0,1-.05-.38c-.11-.21,0,.38,0,.61,0,0-.1-.33-.08-.51-.13.51-.41,1.11-.64.5l0-.18c-.16-.22-.06,1.21-.24.68L72,89c-.33-.22-.63.34-.94-.52,0,.84-.34-.36-.26.82a4.2,4.2,0,0,0-.47-1.15c-.07,0,0,.74-.11.87l-.06-.62-.06.66L70,88.37l-.07.16a1.36,1.36,0,0,1,.1.45c-.1.29-.33-.4-.36-.72l-.24.54a2.11,2.11,0,0,1,.05-.49c-.1.64-.08-.65-.17-.06a2.75,2.75,0,0,1,0,.49c-.09-.37-.25-.36-.36-.19v-.43c-.22-.09-.43.24-.67.26a2.1,2.1,0,0,1,.08,1l-.08-.65c0,.41.09.24,0,.74a2.27,2.27,0,0,1-.09-1l-.08.23a4.36,4.36,0,0,1,0-.54c0,.41-.24-.64-.25.07l0-.2c-.24,0-.33.25-.52.3a4.06,4.06,0,0,1-.06.9c-.16-.17-.35-.6-.52-.53-.1.28,0,.47,0,.81,0-.51-.22-.45-.16-.82-.2.1-.26.12-.47.56a2.14,2.14,0,0,1,.07.47c0,.09-.08-.21-.1-.46v0c0,.39-.16,0-.17-.31s0-.64-.1-.1v0a5,5,0,0,1-.22.56,7,7,0,0,1,.2-.71c-.16.43-.2.39-.2.32s0-.18-.15.1c.34-.75.34-.73.26-.65s-.23.2.1-.23l-.25.31c-.25.3.14-.18.19-.25-.2.23-.22.28-.36.44s-.17,0,0-.25A2.15,2.15,0,0,1,66,88c.1,0-1.74.74-1,.34l.64-.22c-.39.12-.39,0-.37,0s0,0,0-.1a.51.51,0,0,0-.31-.24c.16,0,.35,0,.36,0,.46-.14,0-.29-.4-.24,0-.06.35-.06.54-.12s-.63-.11-.16-.21a.38.38,0,0,1,.19,0c-.24,0,0-.24-.51-.13.24-.16-.28-.22,0-.37-.62,0,.27-.27-.6-.18.9-.11.69-.33.26-.37.27,0,.27-.1.65-.12,0-.09-.2-.16-.66-.09,1-.31-.91-.25.45-.52a3.8,3.8,0,0,1-1.12-.7c.9-.1.13.28,1.07.15-.4-.2-1.19-.25-1-.52.11-.08.39,0,.54,0-.4-.2,0-.49-.49-.65a1,1,0,0,1,.25,0s.12-.12-.29-.06l.12,0a7.48,7.48,0,0,1-1.57,0c1.17-.07.26-.25,1.75-.32a1.67,1.67,0,0,0-.55,0,1,1,0,0,1,.55-.08c-.24-.13-.67,0-.67-.16a3.94,3.94,0,0,1,.51,0c-.4,0-.79,0-.64-.19s.27,0,.28,0c-.09-.2-1.07-.23-.73-.5.87,0,.27-.11,1-.21L64,82.15l-.36.09c0-.11-.55-.13-.32-.26l.32,0-.17-.18-.26.14c-.4-.06-.94.13-.75,0,.08,0,0-.1.42-.21h0c-.25,0-.5,0-.33-.15s.82-.08,1-.12c-.62,0-.2-.22-.87-.21a3.54,3.54,0,0,0,.63-.06l-.51,0a1.38,1.38,0,0,1,.54-.11c.07-.16-.93.16-.55-.07,0,0,.12,0,.2,0,.18-.21-.37-.3-.14-.5.74-.14.2.12.82,0-.16-.22-1-.37-.8-.62l-.08.06c-1.06.1.5-.24,0-.29a2,2,0,0,0,.47,0c.15-.17-.3-.28-.66-.47h.28c.23-.12.11-.25.22-.37a2,2,0,0,0-.63,0c1.5-.49-.9-.47.35-.9,0,0,.25,0,.25,0l-.28-.2a3.78,3.78,0,0,0-.63.16c-.27,0-.49,0-.5-.09a2.27,2.27,0,0,0,1-.17c-.14,0-.3,0-.44,0,.8-.22-.93.1-.4-.14l.25,0c-.13,0-.46-.06-.4-.13.53-.1.26,0,.69,0,0-.09-1-.06-.51-.21.16,0,.17.08.32.1.61-.17.45-.16.54-.24h0l.26-.19-.16.06c-1.4.06-.29-.2-1.21-.25.87,0,.5,0,1.1-.1a1.55,1.55,0,0,1,.51-.14c-.49,0,.37-.17-.35-.19.19,0,0-.08.49-.13-.16-.07-.33.07-.57.09-.68-.06.76-.44-.18-.54-.39-.14-1.05-.09-1.4-.22a1.84,1.84,0,0,1,.71,0c.28-.13.22-.19,0-.25a2.42,2.42,0,0,0,.53-.1c-.06-.06-.71.05-.44-.08s.57,0,.79,0c-.19-.06-.56-.1-.75-.16a3.09,3.09,0,0,1,.74,0,1.3,1.3,0,0,0-.87-.17l-.18.08a1.85,1.85,0,0,1,.55-.06c.43,0-.17.14-.36.17l-.13,0c-1.13.2.21.22.16.35l-.83,0,.7,0a2.35,2.35,0,0,1-.8.08c-.4.14.3,0-.14.18a.41.41,0,0,1-.15,0l.26.06c-.18,0-.58.08-.47,0-.46.21.65.17,0,.3h-.05c.31.17.61-.06,1.34,0l-1.48.3.61-.06s-.06.08-.31.1c.43,0,.27,0,.66,0-.53.17.3.26-.66.4.46,0,.34-.14.67-.07-1,.16.2.11-.27.27s-.26-.09-.73.06c.91,0-.18.22,0,.28.72-.09.32.14.58.24-.24,0-.37.31-.61.47H60.1c.73-.07.61.08.77.16a3.42,3.42,0,0,1-.81,0v.09a.91.91,0,0,1,.46.05l-.55,0c0,.12.67.16.33.36a6.73,6.73,0,0,1,1.76-.17,4.34,4.34,0,0,1-.86.07s.23,0,.12.07h-.47c-.2.09.39,0,.35,0-.39,0-.27.08-.59.11,0,0,.16-.07,0-.08a1.14,1.14,0,0,1-.58.24,1.74,1.74,0,0,1,.59,0c0,.11-.47.1-.66.19.28,0,0,.11.59,0a2,2,0,0,1-.43.11c.27,0,.11.28.73.13l0,0h0c.61.13-.28.46,0,.63l-.2,0c.24.1.17.25.6.29a1.51,1.51,0,0,1-.58.14c.16.07.38.06.07.23-.35,0-.3.07-.26-.06-.16.14-.47.2.09.26-.51,0-.63.17-.47.21l.35-.13c.08.06,0,.12,0,.18l-.67,0c-.77.35,1.43.27.1.63.47,0,.31-.18.86-.19-.07.13-1,.36-1,.4-.34.2,1,0,.76.21a2.86,2.86,0,0,1,1.09,0,2.5,2.5,0,0,1-1.17.21s0,0,.13,0a.64.64,0,0,0-.44,0h.24c-.24.08-.19.23-.58.25a.63.63,0,0,0,.5-.09c-.32.18,0,.22-.19.4.12,0,.4-.1.4-.07-.27.25.46,0,.58.17-.35.13-.86.08-.54.19a1.82,1.82,0,0,1-.82.09c.47.07-.27.29-.34.37l-.2,0c.12,0,.12.06.12.1l.47-.1a.46.46,0,0,1-.27.11c.31,0,.78-.13,1.21-.1-.23.09.28.14-.34.24.19-.21-.63.09-.75,0,.08,0,.08,0,0,.1a.52.52,0,0,1-.17,0c-.53.23.72,0,.73.16-.36,0-.66.13-.59.14s.59-.1.87-.07c-.26.14.21.09.19.16l.12-.09c.36,0,.32,0,.44.11-.28,0-.2,0-.32,0,.63,0-.61.28-.18.35-.23.08-.66.09-.82.15.47.08-.46.21-.07.31a1.56,1.56,0,0,1,.83,0l-.36-.2.7.07c0-.07-.31-.11-.24-.17a1.38,1.38,0,0,0,.67,0c-.7.19.43.14,0,.31l-1.17.15c-.51.23.63.22.37.47l.19-.09c.47,0,.08.12.28.17a4,4,0,0,0-.77.16c.29,0,0,.17.78.09l-.5.16c-.19.2,1.14.06,1,.25a4.43,4.43,0,0,1-1,0c0,.06-.07.12.21.09-.25.06.54.09.18.19.17,0,.58,0,.56,0l-.2,0a2.5,2.5,0,0,0,.71-.05c-1.2.33.15.48-.88.76a1.06,1.06,0,0,1,.33.35c-.12,0-.2,0-.16,0-.34.2,1.14,0,.75.18-.62.17-.35,0-.58,0-1.29.19.2.19-.54.4l-.08,0c-.42.17.51.12.45.36l-.19,0a2.39,2.39,0,0,1,1.13.35,2.32,2.32,0,0,0-.77.17c.08.07.8-.24,1-.14a8.27,8.27,0,0,1-1,.53l-.07-.16c-.66.32.07.22,0,.35l-.3.11c.18.24.9-.09.92.18l.21-.14c.72-.26-.35.32.2.16l-.67.45c.21,0,.79-.11,1-.08a2.86,2.86,0,0,1-1.2.34c0,.1.22.3.55.1-.08,0-.26.08-.18,0,.57-.26.87-.34,1-.19-1.18,1,0,.63-.7,1.6.65-.17.47.69,1,.83.43-1.11.14,0,.69-1.07.12,0,.14,0,.11.06,0,.25,0,.5,0,.76s-.2.22-.3.48c.2.16-.11.51-.06.87.13-.42.32-.57.41-.38,0-.2,0-.39,0-.58.54-.56,0,1,.53.49l-.22.35c.24-.18.75.1,1.06-.89,0,.14,0,.47-.08.56.47.16,1-1.09,1.28-.5v.3c0-.09,0-.57.12-.27,0,.12,0,.3,0,.31s.08-.53.16-.36l0,.34c.28.37.32-.85.51-1.07a2,2,0,0,0,.4,1.28V94c.3.09.43-.76.67-1.13.25.94.6.35.91.86a2.22,2.22,0,0,1,0-.77c.08.17.13-.63.18.18h0c.11.78.22.56.33.58l-.07-1.06c.39,1.51.65-.62.9.74,0-.27.12-.27.16-.54l0,.57c.19.13.28.19.49,0v.4c.12,0,0-1.64.13-1.68l.1.84c.22,0,.49.69.64-.09a1.3,1.3,0,0,1,0,.41c.11,0,.44.53.31-.62.06.75.23.06.32-.28l0,.55c0-.72,0-.91.15-1.12,0,.07.07.44,0,.31.13.28,0-.54.2-.25l0,.36c.11,0,.09-.16.12-.58,0-.23.22.13.28.63,0-.31,0-.73.09-.59a1.07,1.07,0,0,1,0,.37c.22.36.23-.67.4-.13a1.92,1.92,0,0,0,0,.33c-.15,0-.27,0-.26-.07A6.48,6.48,0,0,1,74,93.52c.06-.39.16-1.24.29-1l0,.17v.06c0,.05.05,0,.06-.09.05.08.07.14.11.15.05.42.16.22.22.23a4.24,4.24,0,0,0-.08-.93.07.07,0,0,1,0,.09.11.11,0,0,0,0,.06v0l-.15,0c0-.29.06-.53.15-.22v-.91c.14.77.33,1.18.39,1.66a1.59,1.59,0,0,0,.44-1.3c0-.14.09.29.12.46s-.06.09-.06.24c.08-.27.3-.13.26-.86.16.32,0,.68.15.55v.22c.44,1.15.41-1.92.93-.44a.89.89,0,0,1-.07-.26c.5.63.87-.7,1.39.32.14.2.12-.27.17-.63l.07.6.08-.71c.14-.52.44,1.46.59.47L79,91c.09.07.24-.26.27.21,0-.08,0-.43,0-.22l0,.32.16-.56c.18.22.08,1.25.32,1.3a3.51,3.51,0,0,0,.12-1.15s-.11-.19-.14-.5l.07-.17a9.92,9.92,0,0,0-.32-2.52l-.09.58-.08-.45.11,0c-.1-.42-.11,0-.14.22a3.14,3.14,0,0,0-.09-.49l-.07.9a3.21,3.21,0,0,0-.1-.92c0,.42.13.81,0,1.09-.09-.42-.1-.76-.15-.4a1.7,1.7,0,0,1,0-.5c0,.3-.16.14-.16.64-.11-.52-.22.15-.28-.73a2.75,2.75,0,0,1-.12.74c0-1.06-.24,0-.3-1.17,0,1-.27.44-.38,1,0-.07,0-.23,0-.18s-.14-.36-.2-.53a7,7,0,0,1-.1,1.46,13.23,13.23,0,0,1-.1-1.64c0,.63-.13.64,0,1.17a3.8,3.8,0,0,1-.18-.87c.07,1-.06.17-.08.78-.15-.47-.1-.91-.2-.61A1.41,1.41,0,0,1,76.82,87.13ZM74,89.07v0L74,89Zm-.25,0a.2.2,0,0,0,.11,0,.92.92,0,0,1,0,.38A1.48,1.48,0,0,0,73.73,89.09Zm.85,3.84c0,.09-.06,0-.07-.14l.06-.07v.21Z"/><path class="cls-2" d="M74.59,92.19a.06.06,0,0,1,0,0l0-.12v.17Z"/><path class="cls-2" d="M60.86,79.28h0l.08,0Z"/><polygon class="cls-2" points="70.19 88.3 70.2 88.44 70.22 88.32 70.19 88.3"/><path class="cls-2" d="M62.6,77.67l.14,0Z"/><path class="cls-2" d="M62.65,77.06l.19-.11A1,1,0,0,0,62.65,77.06Z"/><path class="cls-2" d="M62.87,76.57l-.24,0h0Z"/><path class="cls-2" d="M64.43,83.73h0Z"/><path class="cls-2" d="M62.86,81.74l.27,0S63.17,81.7,62.86,81.74Z"/><path class="cls-2" d="M65.4,86.05h0v0Z"/><path class="cls-2" d="M63.13,81.88c.11-.06.08-.09,0-.11S63,81.85,63.13,81.88Z"/><path class="cls-2" d="M62.88,74.57l0,0h-.09Z"/><path class="cls-2" d="M62.81,74.55h-.07S62.75,74.56,62.81,74.55Z"/><path class="cls-2" d="M62.59,74.5l.15,0S62.75,74.49,62.59,74.5Z"/><path class="cls-2" d="M62.69,75.2l.21,0Z"/><path class="cls-2" d="M62.78,75.38s.41-.16.28-.21H62.9C63.2,75.18,62.43,75.38,62.78,75.38Z"/><path class="cls-2" d="M60.37,76.46l.14-.18c-.21.06-.49.13-.56.06C59.34,76.62,60.43,76.24,60.37,76.46Z"/><path class="cls-2" d="M60.12,77c-.11-.07-.32,0-.44,0A.56.56,0,0,0,60.12,77Z"/><path class="cls-2" d="M60.54,80.41l-.5,0C60.12,80.52,60.23,80.44,60.54,80.41Z"/><polygon class="cls-2" points="63.25 80.74 63.56 80.64 63.09 80.67 63.25 80.74"/><polygon class="cls-2" points="59.68 81.58 59.61 81.56 59.8 81.64 59.68 81.58"/><path class="cls-2" d="M60.58,87.33l.63-.1C61.09,87.21,60.39,87.28,60.58,87.33Z"/><path class="cls-2" d="M61.74,90.24c-.27.19-.41.4-.12.3C61.63,90.44,61.82,90.24,61.74,90.24Z"/><polygon class="cls-2" points="69.94 93.39 69.91 93.61 69.99 93.42 69.94 93.39"/></g></g></svg>