<svg xmlns="http://www.w3.org/2000/svg" viewBox="0 0 581.79 354.91"><defs><style>.cls-1{isolation:isolate;}.cls-2{fill:#363736;}.cls-3{fill:#212020;}</style></defs><g id="レイヤー_2" data-name="レイヤー 2"><g id="レイヤー_1-2" data-name="レイヤー 1"><g id="key4d_lab_title" data-name="key4d lab title"><g id="Hack_the_ordinary." data-name="Hack the ordinary." class="cls-1"><g class="cls-1"><path class="cls-2" d="M47.33,308c.14,2.43.21,4.65.21,6.68s0,4-.1,5.88-.18,3.8-.32,5.71-.26,4-.35,6.16a5.33,5.33,0,0,0-2.69,0,5.93,5.93,0,0,1-2.84,0,2.83,2.83,0,0,0,2.55,1.08,14.82,14.82,0,0,0,2.77-.59,29.37,29.37,0,0,1,.21,3.36c0,1,0,2-.07,3s-.08,1.88-.1,2.79a16.27,16.27,0,0,0,.17,2.84.49.49,0,0,1-.56.24c-.28,0-.44.09-.49.32s0,.21.11.21a.37.37,0,0,0,.24-.11,1.54,1.54,0,0,1,.31-.17.41.41,0,0,1,.39.07,51.05,51.05,0,0,0,.35,5.25,30.69,30.69,0,0,1,.21,4.83,3.67,3.67,0,0,1-1.79.42c-.67,0-1.38,0-2.13-.07l-2.24-.17a6.6,6.6,0,0,0-2.1.1,2,2,0,0,1-.49-1.64,3.85,3.85,0,0,0-.28-1.86,2.27,2.27,0,0,1-.32.95c-.16.25-.31.51-.45.76a2.72,2.72,0,0,0-.28.78,1.63,1.63,0,0,0,.28,1,.94.94,0,0,0-.56-.25c-.23,0-.49,0-.77,0s-.54,0-.77,0a.94.94,0,0,1-.56-.25c.05-1.07.07-2,.07-2.91s0-1.69-.11-2.48-.15-1.59-.24-2.38-.19-1.66-.28-2.59c.47.05.85.09,1.15.14s.46-.26.46-.91a.24.24,0,0,0-.28-.18,2.62,2.62,0,0,0-.49.15c-.19.06-.38.12-.59.17a2.34,2.34,0,0,1-.53.07c0-1.07,0-2,0-2.83s0-1.6-.08-2.35-.07-1.46-.13-2.14-.16-1.41-.25-2.2a1.49,1.49,0,0,0-1.08-.67,1.41,1.41,0,0,1-1.09-.66,8.39,8.39,0,0,0-.77,1.15,1.05,1.05,0,0,1-1.05.67,1.26,1.26,0,0,1-.42-.84,5.77,5.77,0,0,0-.21-1,1.16,1.16,0,0,0-.46-.63c-.21-.14-.57-.12-1.08.07a5,5,0,0,0,.56,1.68,1.78,1.78,0,0,1,0,1.54,17.26,17.26,0,0,0-3.88.14,9,9,0,0,1-3.54-.14,3.67,3.67,0,0,1-.42.95c-.23.39-.44.76-.63,1.12a2.5,2.5,0,0,0-.32.94c0,.28.16.42.53.42a1.69,1.69,0,0,0-1.08.63,1.4,1.4,0,0,1-1.3.42v2.66a.88.88,0,0,0,.63-.07l.42-.28c.14-.09.29-.19.46-.28a1.35,1.35,0,0,1,.66-.14,7.09,7.09,0,0,1,.49,2.42,28.05,28.05,0,0,1,0,2.9,2.55,2.55,0,0,0-1.23-.21,1.83,1.83,0,0,1-.87-.07.7.7,0,0,1,.77-.56c-.42-.23-.83-.48-1.23-.73a4.56,4.56,0,0,0-1.43-.6.63.63,0,0,0-.14.46,1.35,1.35,0,0,0,.17.63,2.58,2.58,0,0,0,.42.55.82.82,0,0,0,.6.25c.05.19,0,.28-.1.28l-.42,0a1,1,0,0,0-.42,0c-.12,0-.16.12-.11.31a7.26,7.26,0,0,0,2.28.35,11.85,11.85,0,0,1,2,.14,17.78,17.78,0,0,0,.11,3.78,20.26,20.26,0,0,1,.17,3.64c-1.63,0-3.56,0-5.77.07a43.72,43.72,0,0,1-6.2-.28Q7.78,344,7.64,331.75t.14-24.6q3.57-.13,6.55-.11c2,0,4.14,0,6.47-.1-.05,2-.11,3.76-.18,5.39s-.14,3.22-.2,4.76-.13,3.07-.18,4.58,0,3.14,0,4.87q2.94-.29,6.44-.28t6.86.28a7.74,7.74,0,0,0,.77-1.86,13.85,13.85,0,0,0,.42-2.13c.09-.75.16-1.48.21-2.21s.09-1.38.14-2a46.08,46.08,0,0,0,.07-5.64,35.12,35.12,0,0,1,.21-5.77,13.83,13.83,0,0,1,2.73,0q1.33.13,2.76.39c1,.16,2,.31,3,.45A26.25,26.25,0,0,0,47.33,308ZM9.6,322.34a3,3,0,0,0,0-.95.44.44,0,0,0-.49-.38.57.57,0,0,0-.24.81A.94.94,0,0,0,9.6,322.34Zm.28,8.19c.09-.61-.16-.86-.77-.77a1,1,0,0,0,.1.87,2.09,2.09,0,0,0,.64.53,2,2,0,0,0,.77.25,1.5,1.5,0,0,0,.59,0,1.77,1.77,0,0,1-.17-1.29,4.73,4.73,0,0,0,.17-1.37H10.16a2.15,2.15,0,0,0,.07.56l.14.56a.58.58,0,0,1,0,.46A.66.66,0,0,1,9.88,330.53ZM9.6,345.16a7.72,7.72,0,0,0,1.78.38,4.2,4.2,0,0,1,1.44.39,1,1,0,0,0-.38-.81,2.22,2.22,0,0,0-.95-.41,2.64,2.64,0,0,0-1.12,0A1.08,1.08,0,0,0,9.6,345.16Zm1.89-33.46a12.58,12.58,0,0,0,2.28.07,1.5,1.5,0,0,0,1.43-1.12,3,3,0,0,1-1.19,0,6.49,6.49,0,0,0-1-.1,1.76,1.76,0,0,0-.85.21A1.74,1.74,0,0,0,11.49,311.7ZM12.26,347a1.49,1.49,0,0,0,.11,1.12,1.26,1.26,0,0,0,.66.49,1.74,1.74,0,0,0,.59-1.16c.07-.48.16-1,.25-1.5H13a1.59,1.59,0,0,1,.24.87C13.25,347,12.91,347.07,12.26,347Zm.56,8a1,1,0,0,1,.1-.38,1.58,1.58,0,0,0,.14-.46.5.5,0,0,0,0-.35c0-.09-.21-.14-.49-.14a4,4,0,0,1-.21.84C12.24,354.7,12.4,354.87,12.82,355Zm-.28-32.41a2.64,2.64,0,0,1,.46.28c.11.09.31.09.59,0,.09-.42,0-.68-.17-.77l-.6-.28A1.4,1.4,0,0,1,12.54,322.55Zm11.69,6.16c-.19.42-.16.64.07.67a.44.44,0,0,1,.42.38,1.47,1.47,0,0,0-.49.81c-.09.35-.37.52-.84.52a1.71,1.71,0,0,1-.91-.25l-.81-.48a2,2,0,0,0-.8-.32,1.34,1.34,0,0,0-.91.21.77.77,0,0,0,.21.84,4.9,4.9,0,0,0,.73.49,2.59,2.59,0,0,1,.6.42c.14.14.07.37-.21.7a4,4,0,0,0-2-.63L17,331.93a16.91,16.91,0,0,1-2.24-.28A2.59,2.59,0,0,1,13,330.53a1.73,1.73,0,0,1-.21.56,4.27,4.27,0,0,0-.28.49A6.74,6.74,0,0,0,14.88,333a13.42,13.42,0,0,0,2.52.52c.87.09,1.74.16,2.63.21a15.68,15.68,0,0,1,2.59.35,1,1,0,0,0,.17-.6.62.62,0,0,0-.14-.31,3.22,3.22,0,0,1-.21-.35,1.65,1.65,0,0,1-.1-.63h2.38v1.61a5.07,5.07,0,0,0,1.33-.56,3.75,3.75,0,0,1,1.33-.49v-1.12a4.39,4.39,0,0,0-.73-.59,5.83,5.83,0,0,1-.74-.57,2.38,2.38,0,0,1-.56-.76,2.12,2.12,0,0,1-.07-1.23A1.48,1.48,0,0,0,24.23,328.71ZM13,321.5c.05-.19.23-.28.56-.28,0-.37-.09-.6-.28-.67a.55.55,0,0,0-.49,0,.54.54,0,0,0-.24.42C12.55,321.2,12.7,321.36,13,321.5Zm-.21,18.34h.49c0-.37.06-.58.17-.63s.06-.19-.17-.42h-.49c-.23.23-.29.37-.17.42S12.82,339.47,12.82,339.84Zm1,5a1.71,1.71,0,0,0,.14-1.33c-.14-.42-.54-.58-1.19-.49a.69.69,0,0,0,.07,1A4.6,4.6,0,0,0,13.87,344.88Zm0-25.2v1.05a1.32,1.32,0,0,0,.49-.24l.39-.32a.77.77,0,0,1,.38-.17.84.84,0,0,1,.56.17v-1.05a.81.81,0,0,0-.77.38Q14.71,319.89,13.87,319.68Zm1.61,22.54c.09-.51,0-.82-.38-.91a5,5,0,0,0-1.23-.14,1.82,1.82,0,0,0,.56,1.05A.68.68,0,0,0,15.48,342.22Zm-1.12-32.13c.05-.14.13-.33.24-.56a2.85,2.85,0,0,0,.25-.66,1.1,1.1,0,0,0,0-.57c0-.16-.21-.26-.49-.31,0,.14-.12.31-.21.52a3.88,3.88,0,0,0-.21.63,1.22,1.22,0,0,0,0,.6A.49.49,0,0,0,14.36,310.09Zm-.21,37.45c.89,0,1.4-.35,1.54-1.05a4.05,4.05,0,0,1-1.09.28C14.21,346.82,14.06,347.07,14.15,347.54Zm0-26c.09.51.36.75.81.7a.74.74,0,0,0,.73-.7.63.63,0,0,0-.7-.21A4,4,0,0,1,14.15,321.5Zm0,6.93v.49c.19.09.26.19.21.28h.56a.24.24,0,0,1,.28-.28v-.49c-.23,0-.33-.09-.28-.28h-.56C14.36,328.38,14.29,328.48,14.15,328.43Zm.77,16.45a1.48,1.48,0,0,1,1.05.28q-.13-.56.21-.63a.4.4,0,0,0,.35-.42,4.49,4.49,0,0,0-.56-.24,1.45,1.45,0,0,0-.77,0A1.48,1.48,0,0,1,14.92,344.88Zm2.94-25.76h.77a2.14,2.14,0,0,1,0-.8c.05-.31-.12-.39-.49-.25a2.64,2.64,0,0,1-.28.46C17.77,318.64,17.77,318.84,17.86,319.12ZM31.37,334.8c.28,0,.43.11.46.32s.22.26.59.17a1.12,1.12,0,0,1-1.19.8c-.65,0-1.31,0-2,0a.63.63,0,0,1,.56-.42h.67a1.16,1.16,0,0,0,.56-.14C31.22,335.48,31.32,335.22,31.37,334.8Zm2.38-.28q.55,0,.63.18c0,.11.21.05.49-.18a.69.69,0,0,0-.1-.6.71.71,0,0,0-.92,0A.69.69,0,0,0,33.75,334.52Zm2.17,17.57a1.53,1.53,0,0,1,.77-1,9.12,9.12,0,0,0,1.05-.63,4,4,0,0,0-.21-.84q-.14-.34-.84-.21a1.72,1.72,0,0,1-.31.6,3.34,3.34,0,0,0-.42.66,2.74,2.74,0,0,0-.25.73A.7.7,0,0,0,35.92,352.09Zm.49-38a1.45,1.45,0,0,0,.77,0,4.27,4.27,0,0,0,.53-.24,1.62,1.62,0,0,1,.45-.18,1.21,1.21,0,0,1,.63.18,1.31,1.31,0,0,0,.31-1.05c0-.47-.29-.65-.8-.56a.94.94,0,0,1-.35.63,3,3,0,0,1-.6.35,4.83,4.83,0,0,0-.59.32A.79.79,0,0,0,36.41,314.08Zm.84,23.1a6,6,0,0,0,.87-.6,2.54,2.54,0,0,1,1-.45.9.9,0,0,1-.45-.25q-.18-.17-.6,0a.58.58,0,0,1,0,.49.61.61,0,0,1-.31.21,1.63,1.63,0,0,0-.35.17C37.23,336.79,37.2,337,37.25,337.18Zm.77-5.81v-1.12a.62.62,0,0,0-.56.11.59.59,0,0,0,0,.9A.62.62,0,0,0,38,331.37Zm0-3.78a1.46,1.46,0,0,0,1.19-.63c.23-.37.47-.77.7-1.19a1,1,0,0,0-.87-.24,1.32,1.32,0,0,0-.77.48,1.78,1.78,0,0,0-.39.85A.92.92,0,0,0,38,327.59Zm.77,18.34.94-.1q.18,0,.39.66a7.55,7.55,0,0,1,1.75-.24,5.8,5.8,0,0,0,1.75-.32c0-.56-.12-.88-.35-.94a1.29,1.29,0,0,0-.81.06,5.68,5.68,0,0,0-.94.49,2.75,2.75,0,0,1-.84.39,1.12,1.12,0,0,0-.74-1.22,8.78,8.78,0,0,0-1.64-.39.55.55,0,0,0,.1.52,2.37,2.37,0,0,0,.39.32.74.74,0,0,1,.28.31C39.12,345.59,39,345.74,38.79,345.93Zm.56,5.32a1.23,1.23,0,0,0-.28,1.05c0,.47.33.65.84.56q-.13-.42,0-.6a1.44,1.44,0,0,1,.39-.27,4.64,4.64,0,0,0,.42-.25.54.54,0,0,0,.21-.49,4.9,4.9,0,0,0-.84.35S39.82,351.53,39.35,351.25Zm1.33-13.51a2.22,2.22,0,0,0,.28-1.33H39.91C39.58,337.16,39.84,337.6,40.68,337.74Zm-.77,11.13h.77c.09-.65-.09-1-.56-1.05a1.31,1.31,0,0,1-.21.46C39.82,348.39,39.82,348.59,39.91,348.87Zm.49-29c.42.09.66,0,.73-.31a4.09,4.09,0,0,0,.11-1H40.4a.93.93,0,0,0,0,1.33Zm-.28,2.94a.45.45,0,0,1,.28.56,2.64,2.64,0,0,1,.81-.21,2.66,2.66,0,0,1,.8.21,4.49,4.49,0,0,0,.24-.56,1.45,1.45,0,0,0,0-.77,7.34,7.34,0,0,1-1.26.18A.91.91,0,0,0,40.12,322.83ZM41.45,316a3.22,3.22,0,0,1,.28-.56,3.22,3.22,0,0,0,.28-.56c-.28,0-.43-.1-.45-.31s-.23-.27-.6-.18v1.05A.51.51,0,0,0,41.45,316Zm.84,10.08a1.55,1.55,0,0,0-.1-1.12,1.32,1.32,0,0,0-.74-.49,1.91,1.91,0,0,0-.35,1.12C41.1,326,41.5,326.14,42.29,326.05Zm-.28,5c.51.09.77-.08.77-.52S42.52,330,42,330Zm.77-21.28c-.05.28,0,.45.21.52a.83.83,0,0,0,.56,0,1.05,1.05,0,0,0,.49-.28.49.49,0,0,0,.07-.56A2.22,2.22,0,0,0,42.78,309.81Zm.56,27.37a.65.65,0,0,0,.21.66,1.72,1.72,0,0,0,.7.36,2.16,2.16,0,0,0,.84,0,1.15,1.15,0,0,0,.63-.28,2.4,2.4,0,0,0-1-.87A1.17,1.17,0,0,0,43.34,337.18Zm0-13.3a1.63,1.63,0,0,1,.28.66c.05.26.11.52.17.78a1.21,1.21,0,0,0,.36.59,1,1,0,0,0,.8.14,7,7,0,0,1-.32-.94,4.55,4.55,0,0,0-.24-.78,1,1,0,0,0-.35-.45A.91.91,0,0,0,43.34,323.88ZM45,346.77c.09-.79-.19-1.17-.84-1.12C44,346.44,44.3,346.82,45,346.77ZM44.39,316h1a8.16,8.16,0,0,0-.07-1.15c0-.36-.28-.51-.7-.46a4.19,4.19,0,0,0-.11.91A1.58,1.58,0,0,1,44.39,316Zm1.33-5.88a1.83,1.83,0,0,0-.28-1.33h-.77C44.2,309.65,44.55,310.09,45.72,310.09Zm-.49,32.13c-.09.37,0,.62.17.74a1.5,1.5,0,0,0,.88.1,1.55,1.55,0,0,0-.38-.88A.42.42,0,0,0,45.23,342.22ZM46,312.75a.52.52,0,0,0,.52-.11.77.77,0,0,1,.53-.17c.05-.61-.3-.86-1-.77Z" transform="translate(-7.13 -11.25)"/><path class="cls-2" d="M85.62,357.13c-2-.05-3.87-.08-5.74-.1s-3.76-.09-5.67-.18a.94.94,0,0,1-.18-.91,1.66,1.66,0,0,0-.1-1.19,1.34,1.34,0,0,0-1,0,2.47,2.47,0,0,0-.77.53c-.23.23-.46.48-.67.73a2.2,2.2,0,0,1-.73.6,11.36,11.36,0,0,1-4.27,1.12,14,14,0,0,1-4.38-.42,13.14,13.14,0,0,1-3.92-1.72,9.62,9.62,0,0,1-2.83-2.69,1.75,1.75,0,0,1-.21-.77c0-.23,0-.47,0-.7s0-.47.07-.7a1.08,1.08,0,0,0-.17-.7c-.14,0-.21.08-.21.25a2,2,0,0,1-.07.52,7.88,7.88,0,0,1-1.93-3.5,10.63,10.63,0,0,1-.24-4.13,14,14,0,0,1,1.19-4.06,9.89,9.89,0,0,1,2.31-3.22,18.59,18.59,0,0,1,3.92-1.33,34.31,34.31,0,0,1,4.41-.7q2.23-.21,4.44-.21c1.47,0,2.79.05,4,.14a2.19,2.19,0,0,0,.63-1.4,5.8,5.8,0,0,0-.14-1.78,10.7,10.7,0,0,0-.56-1.79,9.56,9.56,0,0,0-.7-1.4,21.93,21.93,0,0,0-3-.77,11,11,0,0,0-3,0,5.42,5.42,0,0,0-1.65.42c-.53.23-1.05.48-1.54.73l-1.33.7a1.74,1.74,0,0,1-1.08.25,3.21,3.21,0,0,1-2-.91A11.49,11.49,0,0,1,57,326c-.44-.67-.91-1.35-1.4-2a5.65,5.65,0,0,0-1.85-1.65,3.23,3.23,0,0,1,1.15-1.64,9.21,9.21,0,0,1,1.75-1c.63-.28,1.29-.56,2-.84a7,7,0,0,0,1.79-1c1.35,0,2.93-.08,4.72-.25s3.63-.23,5.5-.21a23.13,23.13,0,0,1,5.42.71,10.16,10.16,0,0,1,4.52,2.41,3.56,3.56,0,0,1,.66.88c.17.3.33.6.49.91a6.13,6.13,0,0,0,.56.84,2.07,2.07,0,0,0,.95.59,31.71,31.71,0,0,1,1.64,7.74q.39,4.15.39,8.54t0,8.78A75.4,75.4,0,0,0,85.62,357.13ZM53.49,344.67a4.12,4.12,0,0,1,.91-.14,1,1,0,0,1,.7.35,4.14,4.14,0,0,1-.42,1q-.28.5.42.63c0-.19.08-.28.24-.28a.3.3,0,0,0,.32-.21c-.09,0-.14-.07-.14-.21a1.61,1.61,0,0,1,.07-.46c0-.16.1-.33.17-.52a1.43,1.43,0,0,0,.11-.42,2.58,2.58,0,0,1-1.16-.52,2.49,2.49,0,0,0-1.22-.53Zm4.83,8a1.23,1.23,0,0,0,.17-.39,2.85,2.85,0,0,0,.14-.63.64.64,0,0,0-.1-.49A.48.48,0,0,0,58,351a1.24,1.24,0,0,0-.28.91A.61.61,0,0,0,58.32,352.65Zm.49,1.54c.33.05.54,0,.63-.11a.42.42,0,0,0,.07-.41,1.4,1.4,0,0,0-.28-.5,1,1,0,0,0-.42-.31Zm2.66-2.1v.77a11.36,11.36,0,0,1,1.54.42,1.22,1.22,0,0,0,1.12-.14v-1.05a1.33,1.33,0,0,1-.81,0l-.7-.17a2.49,2.49,0,0,0-.59-.07A.93.93,0,0,0,61.47,352.09Zm1.89-10.36a5,5,0,0,0-.42,3.71,4,4,0,0,0,1.92,2.2,6.31,6.31,0,0,0,3.19.7,6.51,6.51,0,0,0,3.25-.87A5.3,5.3,0,0,0,73.47,345a5.65,5.65,0,0,0,0-4.06,9.9,9.9,0,0,0-2.28-.49,15.68,15.68,0,0,0-2.66,0,16.22,16.22,0,0,0-2.73.46A13.28,13.28,0,0,0,63.36,341.73Zm0-4a1.47,1.47,0,0,0,.24-1.05c0-.47-.29-.65-.8-.56C62.71,337,62.89,337.55,63.36,337.74Zm.77-15.68a1,1,0,0,1,.45.24c.12.12.32.13.6,0v-.77C64.53,321.48,64.18,321.64,64.13,322.06Zm2.66,2.17a1,1,0,0,0,.28-.91q-.07-.56-.84-.42a.9.9,0,0,0-.21.39.69.69,0,0,0,0,.45,1,1,0,0,0,.24.38A.55.55,0,0,0,66.79,324.23Zm-.28,31.29a.42.42,0,0,0,.35,0,.84.84,0,0,0,.24-.18.61.61,0,0,1,.28-.13.94.94,0,0,1,.46,0v-.45c0-.17-.09-.27-.28-.32,0,.14-.08.22-.25.24l-.49.08a.64.64,0,0,0-.38.17C66.35,355.05,66.37,355.24,66.51,355.52Zm3.71-.28a1.91,1.91,0,0,1-.49-.91q-.14-.56-1-.42a.91.91,0,0,0,0,.73,1.58,1.58,0,0,0,.46.53,1.27,1.27,0,0,0,.59.25A.46.46,0,0,0,70.22,355.24Zm2.17-34.79a1,1,0,0,0,.28-.87c0-.45-.19-.67-.56-.67a1.24,1.24,0,0,0-.28.91C71.83,320.24,72,320.45,72.39,320.45Zm-.28,16a.78.78,0,0,0,1.15.1,1.59,1.59,0,0,0,.67-1.15A1.43,1.43,0,0,0,72.11,336.41ZM73.93,324a1,1,0,0,0,.45-.87,1.63,1.63,0,0,0-.35-.88,3,3,0,0,0-.8-.74,5.11,5.11,0,0,0-.84-.45,1.19,1.19,0,0,0-.11.84,2.33,2.33,0,0,0,.39.81,6,6,0,0,0,.63.7C73.53,323.57,73.74,323.76,73.93,324Zm-1.05,29.47c.23.42.77.58,1.61.49a5.57,5.57,0,0,1-.18-1c0-.35-.22-.52-.59-.52.09.23.08.37,0,.42a.92.92,0,0,1-.38.07,1,1,0,0,0-.39.07C72.8,353,72.79,353.14,72.88,353.42ZM73.93,330h1.12V329h-.84a.52.52,0,0,1-.11.52A.77.77,0,0,0,73.93,330Zm1.89-4.48q.14-.71-.21-.84a8.22,8.22,0,0,0-.84-.28,5,5,0,0,0,.21.88Q75.11,325.7,75.82,325.56Zm.56,3.92q-.21,1.54,1.05,1.89a1.24,1.24,0,0,1,.42-.56,6,6,0,0,1,.59-.39A2.11,2.11,0,0,0,79,330a1,1,0,0,0,.25-.73,1.3,1.3,0,0,0-1.44-.31A8.62,8.62,0,0,1,76.38,329.48Zm1.54,20.23c.51.09.77-.08.77-.53s-.26-.61-.77-.52c-.23.23-.28.37-.14.42S78,349.34,77.92,349.71Zm.56-8.26c0-.19.12-.28.21-.28a.47.47,0,0,1,.28.11,3.22,3.22,0,0,0,.35.21.58.58,0,0,0,.49,0c.09-1.12-.35-1.66-1.33-1.61a5.59,5.59,0,0,0-.42.87C78,341,78.11,341.22,78.48,341.45Zm-.28-13.51c.19,0,.29.07.31.21a.36.36,0,0,0,.25.28c0-.14,0-.22.14-.25l.28-.06a.61.61,0,0,0,.24-.15.4.4,0,0,0,.11-.31.44.44,0,0,1-.35-.49c0-.28-.14-.4-.42-.35a.44.44,0,0,1-.35.49Q78.07,327.39,78.2,327.94Zm.56,11.41a.73.73,0,0,0,.77-.24,2.62,2.62,0,0,1,.56-.6,1.55,1.55,0,0,1-.42-.91A.67.67,0,0,0,79,337a4.32,4.32,0,0,1-.49,1.15A1,1,0,0,0,78.76,339.35Zm.49-4v1.05a.59.59,0,0,0,.63-.07,2.6,2.6,0,0,0,.35-.42.8.8,0,0,1,.35-.31c.14-.07.33,0,.56.24a.55.55,0,0,1,.1-.52.72.72,0,0,0,.18-.53,1.69,1.69,0,0,1-.49-.21.75.75,0,0,0-.63,0c.14.42.09.66-.14.74A2.4,2.4,0,0,1,79.25,335.36Zm1.33-6.65A2.26,2.26,0,0,0,82,328a1.17,1.17,0,0,0,.18-1.36,1.83,1.83,0,0,0-1,0,1.2,1.2,0,0,0-.6.49,1.46,1.46,0,0,0-.14.78A3,3,0,0,0,80.58,328.71Zm0-2.94a1.32,1.32,0,0,1,.49.24.52.52,0,0,0,.56,0V325h-.77A1.4,1.4,0,0,1,80.58,325.77Zm1,21.77a.82.82,0,0,0,.56.84c0-.23.14-.35.42-.35s.4-.16.35-.49c-.42.09-.68.06-.77-.11S81.91,347.31,81.63,347.54Z" transform="translate(-7.13 -11.25)"/><path class="cls-2" d="M96.33,335.71c-.37,0-.6.07-.67.21a.86.86,0,0,0-.07.49c0,.19,0,.38.07.59a1,1,0,0,1-.1.6,3,3,0,0,1-.81.32,5.19,5.19,0,0,0-.87.28,2.29,2.29,0,0,0-.7.42,1,1,0,0,0-.28.8,5.08,5.08,0,0,1-.6-1.79,13.1,13.1,0,0,1-.14-2.3,20.62,20.62,0,0,1,.25-2.53c.14-.86.3-1.66.49-2.41a9,9,0,0,1,.87-2.27,17.31,17.31,0,0,1,1.3-2c.47-.62.91-1.24,1.33-1.85a9.49,9.49,0,0,0,1-1.75,18.29,18.29,0,0,0,2.83-1.44,21.69,21.69,0,0,0,2.49-1.78,2.75,2.75,0,0,0,1.36.07,6.61,6.61,0,0,0,1.33-.42l1.37-.56a7.09,7.09,0,0,1,1.54-.42,16,16,0,0,1,3.85-.1,21.18,21.18,0,0,1,3.78.66,17.39,17.39,0,0,1,3.39,1.3,13.24,13.24,0,0,1,2.77,1.85,22.63,22.63,0,0,1-2.35,3.25,6.56,6.56,0,0,1-3.53,2.07,1.75,1.75,0,0,1-.35,1.61,2.28,2.28,0,0,1-1.19.77,1,1,0,0,1-.74,0,2.2,2.2,0,0,1-.59-.38l-.6-.53A2,2,0,0,0,112,328a5.27,5.27,0,0,0-3.89,0,13.58,13.58,0,0,0-3.32,2.21c-.24.89-.48,2.05-.74,3.5a29.88,29.88,0,0,0-.42,4.52,17,17,0,0,0,.49,4.41,5.6,5.6,0,0,0,2,3.18,1.83,1.83,0,0,0,1.26.38,1.21,1.21,0,0,1,1.12.74,5.53,5.53,0,0,1,1.78-.11,5.41,5.41,0,0,0,2-.17,1.41,1.41,0,0,0,.56-.84,1.07,1.07,0,0,1,.7-.77,7.23,7.23,0,0,1,2.59,1.4,19.79,19.79,0,0,1,2,2c.63.72,1.28,1.42,1.93,2.09a8.92,8.92,0,0,0,2.31,1.72,4.35,4.35,0,0,1-1.61,2,11.19,11.19,0,0,1-2.49,1.26,22.86,22.86,0,0,1-2.76.81c-.93.21-1.75.43-2.45.66-.28,0-.37-.17-.28-.53a1.2,1.2,0,0,0,0-.8c-.24-.05-.39,0-.46.07a.69.69,0,0,0-.1.42v.52a.3.3,0,0,1-.21.32,28,28,0,0,1-7.6-1,18,18,0,0,1-6.09-3,15.13,15.13,0,0,1-4.23-5,19,19,0,0,1-2-7,4.17,4.17,0,0,1,2-1.26q1.26-.42,2.55-.81a13,13,0,0,0,2.28-.87,2.12,2.12,0,0,0,1.19-1.54.58.58,0,0,1,.52-.14,2.75,2.75,0,0,1,.46.17.7.7,0,0,0,.45.08.73.73,0,0,0,.46-.39,1.6,1.6,0,0,0-1.16-.91,2.8,2.8,0,0,0-1.43.25,11.06,11.06,0,0,0-1.54.77,6.9,6.9,0,0,1-1.47.66c-.14,0-.21,0-.21-.11a.56.56,0,0,1,.1-.27,2,2,0,0,0,.18-.42A.72.72,0,0,0,96.33,335.71Zm3.15-11.13a.45.45,0,0,0,.28-.35.92.92,0,0,0,0-.52.81.81,0,0,0-.28-.42.42.42,0,0,0-.49,0,2.64,2.64,0,0,1,0,.95C98.88,324.59,99.06,324.72,99.48,324.58Zm.56,9.8a2.38,2.38,0,0,0-.07-1c-.09-.28-.33-.4-.7-.35a.92.92,0,0,0-.18.95C99.21,334.39,99.52,334.52,100,334.38Zm1-2.87a2.79,2.79,0,0,0,0-1c-.07-.31-.31-.41-.73-.32a.78.78,0,0,0-.21.94C100.25,331.52,100.58,331.65,101.09,331.51Zm-.77-5.11A3.63,3.63,0,0,0,102.7,328a.68.68,0,0,1,.56-.49,3.22,3.22,0,0,0-1.61-2.38.38.38,0,0,1-.28.42c-.19.05-.36.08-.53.11a1.08,1.08,0,0,0-.45.17C100.25,325.93,100.23,326.12,100.32,326.4Zm1.05-2.87h1a1.49,1.49,0,0,0-.11-1.12,1.26,1.26,0,0,0-.66-.49c-.38.23-.51.43-.42.59A2.49,2.49,0,0,1,101.37,323.53Zm1.61,1.82a6.41,6.41,0,0,0,.63.14l.7-.14V324c-.56-.09-.93,0-1.12.24A1.53,1.53,0,0,0,103,325.35Zm.77,6.65a.92.92,0,0,0,.21-.38,1.21,1.21,0,0,0,0-.5.54.54,0,0,0-.21-.38.61.61,0,0,0-.52-.07,3,3,0,0,0,0,.95A.44.44,0,0,0,103.75,332Zm1-7.14c.28,0,.43.1.45.31s.23.27.6.18v-.77a2.49,2.49,0,0,1-.67-.17C105.07,324.33,104.94,324.49,104.8,324.86Zm2.66-.84a1.57,1.57,0,0,0-.28-1.33h-.77a1.59,1.59,0,0,0,.07,1.09C106.62,324,107,324.11,107.46,324Zm1.61.56h1.61c.14-.93-.14-1.47-.84-1.61a.73.73,0,0,1-.25.35l-.31.25a.77.77,0,0,0-.25.35A1,1,0,0,0,109.07,324.58Zm1.33,25.2a15.9,15.9,0,0,1,1.54,1,2.58,2.58,0,0,1,.84,1.19,1.92,1.92,0,0,0,.21-1.26,3,3,0,0,1,.07-1.4A1.3,1.3,0,0,0,112,349a1.09,1.09,0,0,1-1-.28c0,.28-.12.43-.35.45S110.31,349.41,110.4,349.78Zm1.61,4.83a6,6,0,0,1,.84.35.52.52,0,0,0,.7-.14c.09-.47,0-.75-.28-.84a5.77,5.77,0,0,0-1-.21A1.48,1.48,0,0,1,112,354.61Zm.77-5.88.42-.6c0-.06,0-.31-.14-.73h-.77a2.94,2.94,0,0,0,0,.94A.44.44,0,0,0,112.78,348.73Zm1.61-26.25c.09-.79-.19-1.17-.84-1.12C113.46,322.15,113.73,322.53,114.39,322.48Zm-.84,1.33a.83.83,0,0,0,.87.07,1,1,0,0,1,1,.14c.09-.37.06-.61-.11-.7s-.22-.3-.17-.63a5.81,5.81,0,0,1-.88.49A1.72,1.72,0,0,0,113.55,323.81Zm1.12,27.58a2.09,2.09,0,0,0,.17-.77,4.28,4.28,0,0,0,0-.95,2.15,2.15,0,0,0-.32-.84.75.75,0,0,0-.66-.38,3.59,3.59,0,0,1,0,.94c0,.36,0,.67,0,.95a1.58,1.58,0,0,0,.17.74A.7.7,0,0,0,114.67,351.39Zm2.66-25.76a.64.64,0,0,1-.42-.31l-.28-.46a2.37,2.37,0,0,0-.32-.39.83.83,0,0,0-.59-.17,4.22,4.22,0,0,0,.21.63,2.75,2.75,0,0,0,.35.63.87.87,0,0,0,.49.35C117,326,117.14,325.86,117.33,325.63Z" transform="translate(-7.13 -11.25)"/><path class="cls-2" d="M164,356.5a8.89,8.89,0,0,0-1.72-.11c-.58,0-1.14,0-1.68,0a10.13,10.13,0,0,1-1.43-.1,1.76,1.76,0,0,1-1.05-.6,3,3,0,0,1-1.72.73,16.15,16.15,0,0,1-2.48.18c-.89,0-1.74,0-2.56-.1a10.54,10.54,0,0,0-2,0c-.1-.56.09-.82.56-.77a12.21,12.21,0,0,1-2.94-2.56,26.72,26.72,0,0,1-2.31-3.21c-.7-1.15-1.37-2.32-2-3.5a40.11,40.11,0,0,0-2.06-3.47c-1.31-.19-2.16.06-2.56.73a5,5,0,0,0-.63,2.35c0,.89,0,1.75,0,2.59s-.26,1.33-.77,1.47a5.73,5.73,0,0,1,1.26,3.33,8.25,8.25,0,0,1-.49,3.88,7.56,7.56,0,0,0-2.56-.14l-2.73.28a7.91,7.91,0,0,1-2.2,0,1.13,1.13,0,0,1-1-1.16.6.6,0,0,0-.49.17,2,2,0,0,0-.25.39,1.48,1.48,0,0,1-.28.39.66.66,0,0,1-.59.1,21.91,21.91,0,0,1-.81-3.92c-.16-1.4-.29-2.81-.38-4.24s-.22-2.82-.39-4.19a21.94,21.94,0,0,0-.8-3.89c.28-.33.55-.63.8-.91a2.39,2.39,0,0,0,.53-1.19c-.33-.05-.55-.37-.67-1a9.47,9.47,0,0,1-.14-2,7.58,7.58,0,0,1,.28-1.85c.17-.54.34-.81.53-.81q-.5-3.57-.63-6.86c-.1-2.19-.15-4.37-.18-6.54s-.06-4.4-.1-6.69-.19-4.71-.42-7.28a32.31,32.31,0,0,0,3.32.1c1,0,2-.05,2.91-.1l2.8-.14c.93-.05,1.91-.07,2.94-.07a17.1,17.1,0,0,0-.18,3.64c.07,1.21.14,2.42.21,3.61a26,26,0,0,1,0,3.53,10.09,10.09,0,0,1-.84,3.29.49.49,0,0,0,.52-.14c.12-.14.22-.09.32.14a5.91,5.91,0,0,1,.45,3.15c-.11,1.21-.27,2.44-.45,3.67a30.69,30.69,0,0,0-.35,3.54,3.5,3.5,0,0,0,.84,2.66c.88-1.07,1.77-2.23,2.66-3.46s1.78-2.51,2.69-3.82,1.85-2.59,2.8-3.85a33.41,33.41,0,0,1,3.05-3.5,19.06,19.06,0,0,0,6.09.14,50.27,50.27,0,0,1,6.65-.42q-2.67,2.94-5.46,5.6a46.39,46.39,0,0,0-5.18,5.81,3.79,3.79,0,0,1-1.68.35,2,2,0,0,0-1.47.49,6.86,6.86,0,0,0-.42,2.91,5.18,5.18,0,0,0,.7,2.09,9.48,9.48,0,0,0,1.43,1.83,21.64,21.64,0,0,1,1.72,1.92,24.75,24.75,0,0,1,1.54,2.24c.51.84,1,1.69,1.57,2.55s1.08,1.71,1.61,2.53,1.09,1.57,1.65,2.27a47.12,47.12,0,0,0,3.64,3.92A15.19,15.19,0,0,1,164,356.5Zm-38-35.56c.74-.05,1.09-.49,1-1.33a1.38,1.38,0,0,1-.77-.28,1.75,1.75,0,0,0-.42.7A1.8,1.8,0,0,0,125.94,320.94Zm1.61,13.51a.57.57,0,0,1,.1-.53.68.68,0,0,0,.18-.52.41.41,0,0,1-.39-.18c-.07-.11-.22-.15-.45-.1a.7.7,0,0,0-.18.88A.8.8,0,0,0,127.55,334.45Zm0,6.37a.94.94,0,0,1,.21-.45.83.83,0,0,0,.07-.6h-1a1.57,1.57,0,0,0,.07.87C126.94,340.86,127.17,340.91,127.55,340.82ZM127,314.29a1.51,1.51,0,0,0,.35,1.12,2,2,0,0,1,.49,1c.23.09.39.09.49,0a.93.93,0,0,0,.21-.35,1,1,0,0,1,.17-.35c.07-.09.22-.12.46-.07a2.23,2.23,0,0,1,0,1.89.55.55,0,0,1,.52.14c.17.14.32.28.46.42a.91.91,0,0,0,.38.25c.12,0,.27-.09.46-.32-.1,0-.13,0-.11-.11a1.12,1.12,0,0,1,.18-.27c.09-.12.2-.24.31-.36a.46.46,0,0,0,.18-.31c.42.23.64.43.66.59a3.81,3.81,0,0,1-.1,1,1.24,1.24,0,0,1,.87.56,1.17,1.17,0,0,0,.95.49c-.14-.42-.11-.64.1-.66a.58.58,0,0,0,.46-.39,2.56,2.56,0,0,0-.49-1.05c-.24-.28-.48-.55-.74-.8l-.77-.78a3.84,3.84,0,0,1-.66-.87,2,2,0,0,0-1.33.28c-.24-.23-.29-.37-.18-.42s.18-.26.18-.63a5.14,5.14,0,0,1-1.82-.17A2.21,2.21,0,0,0,127,314.29Zm1.12,32.13a1,1,0,0,1,.21-.46c.09-.11.09-.31,0-.59h-.77C127.45,346,127.64,346.37,128.11,346.42Zm0-15.89c-.05-.33.07-.49.35-.49s.42-.12.42-.35c-.14,0-.22-.08-.25-.24a4.45,4.45,0,0,1,0-.53h-1V330C127.55,330.3,127.73,330.48,128.11,330.53Zm.21,5.25a5.33,5.33,0,0,0,.49-.42c.14-.14.16-.44.07-.91h-.77a1.29,1.29,0,0,1,0,.88C128,335.67,128,335.83,128.32,335.78Zm-.21,15.4c-.05.42.07.69.35.81a7.13,7.13,0,0,0,1,.31,2,2,0,0,0-.28-1.33A1.5,1.5,0,0,0,128.11,351.18Zm1.33-17.78a.52.52,0,0,0,.52-.11.75.75,0,0,1,.53-.17.72.72,0,0,0-.28-.66.64.64,0,0,0-.56-.08.76.76,0,0,0-.42.39Q129.08,333.05,129.44,333.4Zm.77,8.54q.56,0,.66-.42a3.72,3.72,0,0,0,.11-.91c-.42-.09-.71-.05-.88.14s-.38.14-.66-.14c-.1.23-.07.37.07.42l.42.14a1.9,1.9,0,0,1,.35.17C130.37,341.42,130.35,341.61,130.21,341.94Zm.28-30.31a.55.55,0,0,0,.52-.1.58.58,0,0,0,.18-.42.58.58,0,0,0-.18-.43.55.55,0,0,0-.52-.1Zm0,37.17a1.62,1.62,0,0,0,1-.21q.06-1-1-.84Zm.28-24.71c.56.14.88,0,1-.31a3.73,3.73,0,0,0,.07-1.23h-1c.09.47.06.78-.11.95S130.53,323.86,130.77,324.09Zm1.54,10.64a.64.64,0,0,1-.49-.39c-.1-.21-.38-.24-.84-.1a1.72,1.72,0,0,0-.14,1.33,9,9,0,0,0,.49,1,4.49,4.49,0,0,1,.42,1.12,3.06,3.06,0,0,1-.21,1.61,1.17,1.17,0,0,1,.87.31,2,2,0,0,1,.46.74,1.17,1.17,0,0,0-1,.1,2.07,2.07,0,0,1-.63.39,11.28,11.28,0,0,0-.21,1.57,7.49,7.49,0,0,0,0,1.65,3.58,3.58,0,0,0,.46,1.37,1.49,1.49,0,0,0,1.05.73c.18-.19.27-.35.24-.49a.69.69,0,0,0-.21-.39l-.38-.38a.58.58,0,0,1-.14-.56c.42,0,.66-.09.73-.28a1,1,0,0,0,0-.66l-.28-.74c-.1-.23-.07-.4.07-.49a2.86,2.86,0,0,1,1,2c0,.68,0,1.63.07,2.84h1.12c-.19-1.07-.38-2.12-.56-3.15a3.84,3.84,0,0,1,.77-3,.68.68,0,0,0-.67-.45.7.7,0,0,1-.66-.6,2.75,2.75,0,0,0,.38-1.36,2.12,2.12,0,0,1,.46-1.3,1.85,1.85,0,0,0-.46-.73,5.85,5.85,0,0,1-.56-.67,1.79,1.79,0,0,1-.31-.77,1.39,1.39,0,0,1,.28-1,.43.43,0,0,1-.39-.17c-.07-.12-.22-.16-.45-.11-.19.37-.22.62-.11.74S132.54,334.64,132.31,334.73Zm.28,18.06a3.85,3.85,0,0,0,.63-1.37,1.31,1.31,0,0,1,1-1q-.15-1.05-1-1.05a1.5,1.5,0,0,1-.28,1.05l-.67.91a1.32,1.32,0,0,0-.31.77C131.89,352.32,132.12,352.56,132.59,352.79Zm.84-30.52c-.1-.47,0-.65.21-.56a3.22,3.22,0,0,1,.56.28.42.42,0,0,1,0-.35.85.85,0,0,1,.17-.25.47.47,0,0,0,.14-.27,1.08,1.08,0,0,0,0-.46l-.56-.24a1.46,1.46,0,0,0-.77,0,5.76,5.76,0,0,1-.21,1.12C132.84,321.78,133,322,133.43,322.27Zm-.28,1.82a1,1,0,0,0,1.12-.49.72.72,0,0,0-.07-1.05.46.46,0,0,1-.21.42l-.42.24a1.8,1.8,0,0,0-.39.29C133.07,323.61,133.05,323.81,133.15,324.09Zm1.82,24.5a1,1,0,0,0-.14-.91,1.83,1.83,0,0,0-.63-.42.77.77,0,0,0-.42.91C133.87,348.54,134.27,348.68,135,348.59Zm0,5.25a2.15,2.15,0,0,1,.28-.46c.09-.11.09-.31,0-.59a1.31,1.31,0,0,1-.46-.21.74.74,0,0,0-.59-.07,2.87,2.87,0,0,0,0,1C134.3,353.83,134.55,353.93,135,353.84ZM136,341.1a1.41,1.41,0,0,0,.42-.73,2.33,2.33,0,0,0,0-1.05,2.27,2.27,0,0,0-.42-.95,1,1,0,0,0-.8-.42,2.12,2.12,0,0,0-.28.88,3.69,3.69,0,0,0,0,1.05,1.66,1.66,0,0,0,.35.87A.86.86,0,0,0,136,341.1Zm2.17-.49a.58.58,0,0,0,.56-.14A.77.77,0,0,0,139,340a.7.7,0,0,0-.1-.48.46.46,0,0,0-.42-.25c-.24.33-.38.52-.42.6S138.05,340.19,138.19,340.61Zm2.1-1.05c0-.28.32-.37.84-.28a2.67,2.67,0,0,0-.11-1.5,2.15,2.15,0,0,0-.73-.88,1.18,1.18,0,0,0-.49.52,2.44,2.44,0,0,0-.28.81,1.41,1.41,0,0,0,.1.81A1,1,0,0,0,140.29,339.56Zm1.89-3.5q-.08,1,1,.84c.09-.79-.17-1.17-.77-1.12C142.36,336,142.27,336.11,142.18,336.06Zm1.33-2.1a1,1,0,0,0,.84-.35.48.48,0,0,0-.07-.7C143.67,332.86,143.41,333.21,143.51,334Zm.28.77a8.63,8.63,0,0,1,.59,1.12,4.55,4.55,0,0,0,.67,1,1.36,1.36,0,0,0,.31-1.08c0-.49,0-.95,0-1.37-.38-.09-.63-.05-.77.14S144.16,334.82,143.79,334.73Zm2.87,15.4c.32-.05.53,0,.63.17s.32.2.7.11a3.78,3.78,0,0,0-.07-1.26c-.1-.33-.42-.44-1-.35.09.33,0,.54-.14.63S146.56,349.76,146.66,350.13Zm.84-23.1a.94.94,0,0,1,.45.25q.18.17.6,0a2.63,2.63,0,0,0-.07-1c-.1-.3-.35-.4-.77-.31a.55.55,0,0,1-.11.52A.57.57,0,0,0,147.5,327Zm2.66,20.44a.58.58,0,0,0-.11.49,5.6,5.6,0,0,0,.14.74,2,2,0,0,0,.35.69.64.64,0,0,0,.67.25c.65-.19.91-.82.77-1.89a7.31,7.31,0,0,1-.88-.42A.72.72,0,0,0,150.16,347.47Zm1.33-27.09v-1.05h-.84a2.21,2.21,0,0,0,0,.91C150.75,320.47,151,320.52,151.49,320.38ZM153,355a2,2,0,0,0,.63-1.4,3.53,3.53,0,0,1,.42-1.54,4.27,4.27,0,0,1-.49-.28,3.22,3.22,0,0,0-.56-.28c-.1.23-.21.53-.35.87a6.28,6.28,0,0,0-.32,1.05,2.36,2.36,0,0,0,0,1A.8.8,0,0,0,153,355Zm0-32.69a.52.52,0,0,1,.52.11.75.75,0,0,0,.53.17c0-.37,0-.73,0-1.09s-.15-.52-.52-.52a1.11,1.11,0,0,1-.42.52C153,321.58,152.93,321.85,153,322.27Zm4.27,26.53a4.63,4.63,0,0,1-.21.87.65.65,0,0,0,.21.74.51.51,0,0,0,.63-.14,1.08,1.08,0,0,0,.21-.66,1,1,0,0,0-.21-.64A.63.63,0,0,0,157.3,348.8Z" transform="translate(-7.13 -11.25)"/><path class="cls-2" d="M192.86,309.53c-.1,2.1-.12,4-.07,5.77s.16,3.45.35,5.08l2.73.17a4.79,4.79,0,0,0,2.59-.45,4,4,0,0,1,.63,1.68c.09.65.16,1.36.21,2.14s.07,1.59.07,2.48a25.48,25.48,0,0,0,.14,2.73,24.2,24.2,0,0,0-3.08-.46,13.36,13.36,0,0,0-3.29.25,9.28,9.28,0,0,1,0,1.5,5,5,0,0,1-.25,1.09,3.88,3.88,0,0,1-.52,1c-.24.33-.52.72-.84,1.19q.06.21.21.18a2,2,0,0,0,.28-.11.64.64,0,0,1,.31-.07c.12,0,.22.09.32.28a5.82,5.82,0,0,0,.17,1.47c.12.42.22.84.32,1.26s.17.86.24,1.33a8.8,8.8,0,0,1,0,1.75,1.16,1.16,0,0,1-1-.18c-.25-.21-.55-.15-.87.18a1.84,1.84,0,0,0,.52,1.26,3,3,0,0,0,1.09.63.52.52,0,0,1-.32.38,2.63,2.63,0,0,1-.56.18c-.21,0-.41.11-.59.17a.51.51,0,0,0-.35.32,1,1,0,0,0,.59.7,1.74,1.74,0,0,1,.74.63,13.54,13.54,0,0,1-.84,1.85,1.38,1.38,0,0,0,0,1.58,1.42,1.42,0,0,0,.42-.52,6.61,6.61,0,0,0,.24-.67,2.08,2.08,0,0,1,.32-.63.73.73,0,0,1,.63-.28,1.27,1.27,0,0,1,.21,1.33,2,2,0,0,1-.77,1.05,3.66,3.66,0,0,0,.77.59c.28.17.56.32.84.46a10,10,0,0,1,2.66-.84,8.35,8.35,0,0,1,3.22.07,8.81,8.81,0,0,0-.14,2.27c0,.82.08,1.64.1,2.45s0,1.64,0,2.46a8.07,8.07,0,0,1-.49,2.34,25.58,25.58,0,0,1-3.92-.14,5.18,5.18,0,0,1-3-1.4,6.68,6.68,0,0,1-1.61.45,1.54,1.54,0,0,1-1.54-.45c0-.33.17-.5.38-.52a1.92,1.92,0,0,1,.7.06,3,3,0,0,0,.77.11c.26,0,.43-.16.53-.49a3.55,3.55,0,0,0-.42-.67,4,4,0,0,1-.35-.45,2,2,0,0,1-.25-.49,1.58,1.58,0,0,1,0-.77c-.56-.05-.82.13-.77.53a5.74,5.74,0,0,0,.21,1.08c-.47-.09-.78,0-.95.14s-.45.23-.87.14a1.59,1.59,0,0,0-.18-.84.59.59,0,0,0-.45-.31,2.71,2.71,0,0,0-.7,0,8,8,0,0,0-.84.1,1.47,1.47,0,0,1-.39-.7q-.1-.42-.66-.42a1.08,1.08,0,0,0,.8-.94,2.43,2.43,0,0,0-.24-1.44,1.51,1.51,0,0,1,.63-.28.54.54,0,0,0,.42-.49.72.72,0,0,0-.18-.53.55.55,0,0,1-.1-.52c0-.09-.08-.1-.25,0l-.56.21a1.23,1.23,0,0,1-.63,0A.51.51,0,0,1,185,348c-.38.14-.55.28-.53.42a1.75,1.75,0,0,0,.21.49,5.76,5.76,0,0,0,.35.49.28.28,0,0,1,0,.42,1.74,1.74,0,0,1-.84-.91,5,5,0,0,1-.39-1.3,8.62,8.62,0,0,1-.1-1.36v-1.19c-.1-2-.14-4-.14-6.13a69.16,69.16,0,0,0-.42-7.17,4.75,4.75,0,0,1,1.22.63,5.49,5.49,0,0,0,1.44.7,1.32,1.32,0,0,0-.32-1.33c-.35-.37-.73-.76-1.15-1.16a8.76,8.76,0,0,1-1.09-1.22,1.54,1.54,0,0,1-.1-1.54,4.53,4.53,0,0,1-1.23.77,4.36,4.36,0,0,1-1.71.28,9.33,9.33,0,0,1-.14-2.31c0-.79.09-1.57.14-2.35s.07-1.5.07-2.2a6.88,6.88,0,0,0-.28-2,.43.43,0,0,1,.45-.14,1.52,1.52,0,0,1,.49.25,4.6,4.6,0,0,0,.53.31,1.39,1.39,0,0,0,.63.14c.37.09.58,0,.63-.17a.48.48,0,0,1,.42-.39c-.1-1-.14-2-.14-2.8s0-1.64,0-2.42.05-1.56.07-2.38,0-1.71,0-2.69a5.24,5.24,0,0,1,2.41.42c.77.33,1.53.66,2.28,1a13.06,13.06,0,0,0,2.24.8,4.17,4.17,0,0,0,2.38-.14,1.68,1.68,0,0,0-1.09-.77,10.11,10.11,0,0,0-1.36-.18,3.68,3.68,0,0,1-1.3-.28,1.48,1.48,0,0,1-.8-1.15l1.33-.14a8,8,0,0,1,1.08-.07,8.86,8.86,0,0,1,1.12.07C191.75,309.44,192.25,309.48,192.86,309.53ZM186.49,347a3.11,3.11,0,0,0,0-1c-.07-.3-.31-.4-.73-.31a.88.88,0,0,0-.18.94C185.66,347,186,347.12,186.49,347Zm-.21-22.89a1.82,1.82,0,0,0,0,1.05,4,4,0,0,1,.21.84c.32-.19.65-.36,1-.52a1.24,1.24,0,0,0,.63-.81v-.56a.87.87,0,0,0-.88-.21C186.87,324,186.56,324,186.28,324.09Zm3.15,9.59a1.57,1.57,0,0,1-1.12-.49,1.72,1.72,0,0,0-1-.56.88.88,0,0,1-.14.53,1,1,0,0,1-.35.27,1.75,1.75,0,0,0-.39.28.77.77,0,0,0-.17.53c.23,0,.3.16.21.49a9.87,9.87,0,0,1,1.4.35,1.17,1.17,0,0,1,.77,1c.37.09.63.05.77-.14s.42-.23.84-.14c0-.79,0-1.45,0-2a2,2,0,0,0-.59-1.47c-.19.09-.28.21-.28.35a1.23,1.23,0,0,0,.07.42c0,.14.08.27.1.38S189.57,333.68,189.43,333.68Zm-2.66-21.49q-.28,1,.42,1.23a1.15,1.15,0,0,0,1.19-.18v-1.05a2.71,2.71,0,0,0-.81-.21A2.66,2.66,0,0,0,186.77,312.19Zm.28,38.22a.89.89,0,0,0,.35.8l.7.53a1.3,1.3,0,0,0,0-1.61A1.45,1.45,0,0,0,187.05,350.41Zm2.66-2.66c.09-.28.18-.43.28-.46a.5.5,0,0,1,.35.08,5.07,5.07,0,0,1,.45.24,1.1,1.1,0,0,0,.53.14,1.16,1.16,0,0,0-.49-.7l-.7-.42a1.32,1.32,0,0,1-.53-.59,1.85,1.85,0,0,1,.11-1.23c-.42-.09-.7-.06-.84.11a3.54,3.54,0,0,1-.49.45,2,2,0,0,0,.38.7l.46.49a2,2,0,0,1,.35.49A1.62,1.62,0,0,1,189.71,347.75ZM191,322a3.73,3.73,0,0,1-.28-1.08c0-.4-.31-.58-.77-.53a1.14,1.14,0,0,0-.28.74,1.3,1.3,0,0,0,.17.66,1,1,0,0,0,.49.39A.7.7,0,0,0,191,322Zm.77,29.75a.7.7,0,0,0,.17-.91,1.15,1.15,0,0,0-.66-.7,1.31,1.31,0,0,0-.32,1.05C191,351.65,191.29,351.83,191.81,351.74Zm0-2.1a1,1,0,0,1,.63.32.73.73,0,0,0,.7.17,1.94,1.94,0,0,0,.31-.7c.12-.37,0-.58-.31-.63,0,.19-.08.28-.25.28h-.52a.41.41,0,0,0-.18-.49c-.16-.09-.29,0-.38.21.23.05.31.17.24.38A1.22,1.22,0,0,1,191.81,349.64Zm1.89,5.81a.8.8,0,0,1,0-.53,1.77,1.77,0,0,0,.14-.45.56.56,0,0,0,0-.35.83.83,0,0,0-.42-.28,1.3,1.3,0,0,0-.28,1C193.14,355.23,193.32,355.45,193.7,355.45Zm4-31.36a.83.83,0,0,0-.18-.88,7.66,7.66,0,0,0-.66-.45c-.33.37-.34.66,0,.87A3.56,3.56,0,0,0,197.69,324.09Z" transform="translate(-7.13 -11.25)"/><path class="cls-2" d="M207.56,310.79c0-.14,0-.2.14-.17l.24.06a.29.29,0,0,0,.25,0c.09,0,.14-.19.14-.42a2,2,0,0,1-1-1.65,16.37,16.37,0,0,0-.63-2.55,30,30,0,0,1,3.25-.21c.91,0,1.77,0,2.59.07s1.66.08,2.52.11a18,18,0,0,0,3.12-.25c.09,1.35.22,2.81.38,4.37s.29,3.12.39,4.66a15.29,15.29,0,0,1-.14,2c-.1.67-.17,1.34-.21,2a7.51,7.51,0,0,0,.07,1.85,2.79,2.79,0,0,0,.84,1.58,10.92,10.92,0,0,1,3.57-2.73,16,16,0,0,1,4.9-1.26,1.78,1.78,0,0,0,.49.63.66.66,0,0,0,.45.11,4.31,4.31,0,0,0,.49-.11,2.4,2.4,0,0,1,.67-.07,6,6,0,0,1,2.48.77,14.85,14.85,0,0,1,2.52,1.75,15,15,0,0,1,2.17,2.28,9,9,0,0,1,1.37,2.34,12.75,12.75,0,0,1,.7,3.57c.09,1.4.11,2.86.07,4.38s-.16,3-.32,4.44-.31,2.73-.45,3.85a26.64,26.64,0,0,0,.56,2.77q.35,1.36.66,2.76c.21.93.39,1.89.53,2.87a13.12,13.12,0,0,1,.07,3,8.48,8.48,0,0,0-1.65-.1,1.18,1.18,0,0,0-1,.87,14.89,14.89,0,0,0-1.89-.63,15.94,15.94,0,0,0-1.75-.32c-.61-.06-1.25-.11-1.93-.13a20.87,20.87,0,0,1-2.34-.25c-.24-2.38-.56-5.1-1-8.16s-.73-6.07-.91-9.06a.57.57,0,0,1,.38-.21,1.08,1.08,0,0,1,.32,0l.28.06c.09,0,.21,0,.35-.17a2.31,2.31,0,0,1-.81-1.05,6.34,6.34,0,0,1-.35-1.33,7.3,7.3,0,0,1-.07-1.4,5.79,5.79,0,0,1,.18-1.26,4.11,4.11,0,0,0-2.07-1.64,8.22,8.22,0,0,0-2.94-.64,5.82,5.82,0,0,0-2.76.6A2.81,2.81,0,0,0,219,331a.61.61,0,0,1-.42.25l-.53.06a1.41,1.41,0,0,0-.45.15.37.37,0,0,0-.21.38c-.05.19,0,.28.1.28l.42,0a2.27,2.27,0,0,1,.42,0c.12,0,.15.09.11.28.14.61,0,1-.28,1.12a1.52,1.52,0,0,0-.77.77c.18.42.36.56.52.42s.43-.12.81.07q.06,6.09.45,11.59a76.9,76.9,0,0,0,1.44,10.46,28.6,28.6,0,0,0-5.46.11,20.3,20.3,0,0,1-5.46-.11A84.82,84.82,0,0,1,208.43,346q-.31-5.75-.42-11.72t-.14-12C207.85,318.26,207.74,314.43,207.56,310.79Zm1.82-3.43c.09.28.08.48,0,.6a1.69,1.69,0,0,1-.38.28.94.94,0,0,0-.35.27c-.1.12-.1.34,0,.67a.71.71,0,0,0,.63.21,1.73,1.73,0,0,0,.56-.28l.56-.42a1.51,1.51,0,0,1,.63-.28,4.07,4.07,0,0,0-.11-1c-.07-.28-.29-.4-.66-.35C210.17,307.27,209.89,307.36,209.38,307.36ZM211,330.18a2.32,2.32,0,0,1-.77-.42,1.26,1.26,0,0,0-1.05-.14.71.71,0,0,0,.17.63,1.13,1.13,0,0,0,.6.38.94.94,0,0,0,.66,0A.55.55,0,0,0,211,330.18Zm1,19.11c.14-1-.38-1.42-1.54-1.33a.62.62,0,0,0-.14.59,1,1,0,0,0,.35.63,1.65,1.65,0,0,0,.63.36A.71.71,0,0,0,212,349.29Zm-.21-12.46q1.11.14,1-.84a1.48,1.48,0,0,0-.88.1C211.79,336.21,211.73,336.46,211.83,336.83Zm1.54,17.5a2.72,2.72,0,0,1-.18-1.19c0-.47,0-.93,0-1.4a4.44,4.44,0,0,0-.21-1.23,1,1,0,0,0-.66-.66,4,4,0,0,0-.25,1.26,7.3,7.3,0,0,0,.07,1.4,3.34,3.34,0,0,0,.39,1.19A1.24,1.24,0,0,0,213.37,354.33Zm-.49-12.46A1.4,1.4,0,0,0,213,343a2.67,2.67,0,0,1,.39.73,1,1,0,0,0,1-.52,2.4,2.4,0,0,0,.07-1.3.86.86,0,0,0-.74-.28A1.05,1.05,0,0,0,212.88,341.87Zm1.33,6.93c0-.14.11-.19.21-.14a2.85,2.85,0,0,1,.31.21,2.74,2.74,0,0,0,.42.25.7.7,0,0,0,.6-.11,1.93,1.93,0,0,0-.21-1.33,1.91,1.91,0,0,1-.74.18.43.43,0,0,1-.28-.22,1.83,1.83,0,0,0-.24-.31,1,1,0,0,0-.63-.14C213.55,348,213.74,348.57,214.21,348.8Zm-.56-17.29a1.35,1.35,0,0,1,.87.14l.77.42a3.68,3.68,0,0,0,.7.31.6.6,0,0,0,.6-.1,1.78,1.78,0,0,1-1.16-.66,3,3,0,0,0-1-.88c0,.14,0,.22-.14.25l-.28.06a.5.5,0,0,0-.25.15A.4.4,0,0,0,213.65,331.51Zm.77,22.33a1.27,1.27,0,0,0,.7.24,3.54,3.54,0,0,0,.91,0c.18-.37.23-.63.14-.77a6.16,6.16,0,0,1-.42-.77H214.7A1.91,1.91,0,0,0,214.42,353.84Zm.28-12.74a1.14,1.14,0,0,0,.94-.21.82.82,0,0,0,.32-.6.8.8,0,0,0-.32-.59,1.14,1.14,0,0,0-.94-.21.64.64,0,0,0-.21.73A5,5,0,0,1,214.7,341.1Zm.56-7.21a.92.92,0,0,0,.35.32,1.55,1.55,0,0,0,.59.21,1,1,0,0,0,.56-.08.57.57,0,0,0,.32-.45,4.49,4.49,0,0,1-.49-.21,3.52,3.52,0,0,0-.56-.21.81.81,0,0,0-.49,0A.49.49,0,0,0,215.26,333.89ZM216.31,348a1,1,0,0,0,.91-.14,1.07,1.07,0,0,0,.31-.66,1,1,0,0,0-.21-.7.87.87,0,0,0-.73-.32,1.69,1.69,0,0,0-.53.84A.91.91,0,0,0,216.31,348Zm0,3.5c.18,0,.29.11.31.32a.57.57,0,0,0,.25.45,1.37,1.37,0,0,0,.7-.39,1.57,1.57,0,0,0,.31-.55,6.55,6.55,0,0,0,.18-.67,2.06,2.06,0,0,1,.35-.77.5.5,0,0,1-.53-.14.49.49,0,0,0-.52-.14,1.13,1.13,0,0,1-.49.94A1.33,1.33,0,0,0,216.31,351.46Zm1.89,2.59a1,1,0,0,1,.21-.77,1.42,1.42,0,0,1-.6-.42c-.16-.19-.48-.23-.94-.14a1.24,1.24,0,0,0,0,.87.63.63,0,0,0,.38.32,1.66,1.66,0,0,0,.49.07A1.39,1.39,0,0,1,218.2,354.05Zm6.09-26.81c.37,0,.57.06.59.18s.18.05.46-.18a.57.57,0,0,0-.11-.53.6.6,0,0,0-.84,0A.55.55,0,0,0,224.29,327.24Zm0-6.65a4.44,4.44,0,0,0,.73.49,1.65,1.65,0,0,0,1.09.07,3.25,3.25,0,0,0-.18-1.12.81.81,0,0,0-.87-.49.69.69,0,0,1-.39.56A.62.62,0,0,0,224.29,320.59Zm5.6,33.74,3.57,1.05a14.64,14.64,0,0,0,3.57.56c.6.05.86-.3.77-1.05a1.49,1.49,0,0,0,.77.56,2,2,0,0,0,.77,0c.28-.05.58-.12.91-.21a3.5,3.5,0,0,1,1.26-.07.56.56,0,0,0,0,.8,1.79,1.79,0,0,1,.32,1c-2.1,0-4-.08-5.74-.24a31.19,31.19,0,0,0-5.39,0c-.14-.37-.3-.74-.46-1.09A3.76,3.76,0,0,1,229.89,354.33ZM233.81,336c.28-.09.56-.2.84-.32a.83.83,0,0,0,.49-.73,2.68,2.68,0,0,0-1.58-.18,2.13,2.13,0,0,1-1.57-.31,1,1,0,0,0,.66,1A6.18,6.18,0,0,1,233.81,336Zm-.21,16.52a1.28,1.28,0,0,1,.21-.49.61.61,0,0,0,0-.56H233C232.94,352.11,233.13,352.46,233.6,352.51Zm2.38-6.93a1.55,1.55,0,0,0,1.29.21,1.18,1.18,0,0,0,.63-.74,3.14,3.14,0,0,0,.14-1.18,4,4,0,0,0-.24-1.23H237a1.43,1.43,0,0,1-.21.81c-.14.21-.28.4-.42.59a2.75,2.75,0,0,0-.35.63A1.74,1.74,0,0,0,236,345.58Z" transform="translate(-7.13 -11.25)"/><path class="cls-2" d="M278.89,336.76c-.33,0-.49,0-.49-.1a.59.59,0,0,1,.14-.32l.31-.49a.67.67,0,0,0,0-.63,1.46,1.46,0,0,0-.95,0,1.27,1.27,0,0,0-.45.39c-.1.14-.2.2-.32.18s-.27-.23-.45-.6c-.28-.05-.37.11-.25.45a1.29,1.29,0,0,1,0,.88,2.57,2.57,0,0,0,1.5.7,3.75,3.75,0,0,1,1.65.63,6.66,6.66,0,0,1-.18,2.07,5.58,5.58,0,0,0-.1,2.13,8.92,8.92,0,0,0-1.44.14,9.2,9.2,0,0,1-1.5.14,2.93,2.93,0,0,1-1.23-.24,1.19,1.19,0,0,1-.59-1.09,4,4,0,0,1-1.86.7,14.36,14.36,0,0,1-2.31.1c-.82,0-1.64-.07-2.48-.13s-1.64-.11-2.38-.11a4.9,4.9,0,0,1-.49-.73,1.78,1.78,0,0,1-.07-1.16.83.83,0,0,0-.49.42c-.1.19-.28.14-.56-.14a2.1,2.1,0,0,0-.53.88,4,4,0,0,1-.52,1,7.65,7.65,0,0,0-2-.32,7.57,7.57,0,0,0-2,.21,5.76,5.76,0,0,0-1.79.78A2.81,2.81,0,0,0,256,344c-.56.09-.89,0-1-.35a3.32,3.32,0,0,1-.07-1.26.88.88,0,0,0-.39.56,2.91,2.91,0,0,0,0,.59c0,.21,0,.47,0,.78a4.36,4.36,0,0,1-.14,1,.85.85,0,0,0,.8.53,8.31,8.31,0,0,0,1.3,0q.06.84,0,1.89c0,.7,0,1.39-.07,2.07a12.65,12.65,0,0,0,.07,1.88,2.52,2.52,0,0,0,.53,1.37,2.37,2.37,0,0,0,.7-1.16,10.23,10.23,0,0,0,.31-1.54,10.77,10.77,0,0,1,.32-1.54,1.78,1.78,0,0,1,.77-1.08,2.81,2.81,0,0,1,1.78.77c.4.42.78.86,1.16,1.33a.61.61,0,0,0,.56,0,1.11,1.11,0,0,0,.35-.39,5.28,5.28,0,0,1,.35-.52,1.19,1.19,0,0,1,.56-.42.32.32,0,0,0,.21.35l.45.14a1.92,1.92,0,0,1,.46.21q.21.14.21.63a2.31,2.31,0,0,1,1.12-1.16,4,4,0,0,1,1.82.11,9.3,9.3,0,0,0,1.36-1.57,2.64,2.64,0,0,1,1.86-1.09.88.88,0,0,1,.17,1,2.14,2.14,0,0,0-.17,1.16,7,7,0,0,1,3.53.49,16.51,16.51,0,0,1,3.05,1.61,3.88,3.88,0,0,1-.81,1.61,7.84,7.84,0,0,1-1.29,1.33,22.68,22.68,0,0,1-16.45,4,2.19,2.19,0,0,1-.28-1.12.7.7,0,0,0-.56-.77c-.28-.05-.37.11-.25.45a1.29,1.29,0,0,1,0,.88c-2.94-.09-5.2-.83-6.76-2.21a10.15,10.15,0,0,1-3.11-5.77c0-.14-.05-.2-.14-.18a1.36,1.36,0,0,0-.28.11.68.68,0,0,1-.32.07c-.12,0-.22-.09-.31-.28a24,24,0,0,1-1.47-7.14,30.38,30.38,0,0,1,.49-7.45,32.05,32.05,0,0,1,2.13-7,25.37,25.37,0,0,1,3.4-5.74,16.16,16.16,0,0,1,5-1.61,19.33,19.33,0,0,1,5,0,23.07,23.07,0,0,1,5,1.2q2.44.87,4.83,2c.88.84,1.83,1.8,2.83,2.87a20.06,20.06,0,0,1,2.59,3.43A14.79,14.79,0,0,1,279,332.8,6.94,6.94,0,0,1,278.89,336.76Zm-30.31,9.59a.55.55,0,0,1,.42.56q0,.42.63.21a.68.68,0,0,0,.17-.49c0-.14-.05-.28-.07-.42a.56.56,0,0,1,0-.35.74.74,0,0,1,.42-.28,2.94,2.94,0,0,1,.59.31c.16.12.22.37.18.74a6.9,6.9,0,0,0-1.33,1.82.39.39,0,0,1,.28.56,1.48,1.48,0,0,1,1.05.28l.63-.63a1.64,1.64,0,0,1,.7-.42,6.36,6.36,0,0,0-.77-2.56,2.53,2.53,0,0,0-2.1-1.22,1.9,1.9,0,0,1,.17.8.64.64,0,0,1-.17.39,2.19,2.19,0,0,1-.39.28A1.47,1.47,0,0,0,248.58,346.35Zm1.33-2.38a1,1,0,0,0,.14-.8c-.05-.4-.26-.58-.63-.53a1,1,0,0,0-.28.91C249.18,343.92,249.44,344.06,249.91,344Zm3.5-16.24a1.07,1.07,0,0,1-.07-.7,5.78,5.78,0,0,0,.07-.81,2.74,2.74,0,0,0-.07-.63c-.05-.16-.21-.24-.49-.24a5.31,5.31,0,0,1-.07.81,6.81,6.81,0,0,0-.11.73.82.82,0,0,0,.11.56A.88.88,0,0,0,253.41,327.73Zm.21,14.35c-.05-.19,0-.3.14-.35a3,3,0,0,1,.45-.11,1,1,0,0,0,.39-.13c.09-.07.11-.23.07-.46a.79.79,0,0,0-.81-.11,1.1,1.1,0,0,1-1-.17q-.15.71.24.84A.86.86,0,0,1,253.62,342.08Zm-.49-2.38a1,1,0,0,1,.45.25q.18.17.6,0a5.88,5.88,0,0,1,0-1.33c0-.51-.14-.77-.56-.77.18.56.16.91-.07,1.05A.94.94,0,0,0,253.13,339.7Zm.28,8.75a.68.68,0,0,0,.77.84.55.55,0,0,1,.1-.53.68.68,0,0,0,.18-.52A1.28,1.28,0,0,0,253.41,348.45Zm1.26-11.9a5.08,5.08,0,0,0,.94-.07A.44.44,0,0,0,256,336a2.19,2.19,0,0,1-.46-.45.85.85,0,0,0-.59-.32A1.91,1.91,0,0,0,254.67,336.55ZM255,326.4a1.06,1.06,0,0,0,0,.84,1.09,1.09,0,0,0,.46.42l.59.28a1.69,1.69,0,0,1,.53.35,1.92,1.92,0,0,0,.21-.87v-.84a.89.89,0,0,1,.14-.57c.09-.11.32-.15.7-.1.09-.65-.07-1-.49-1.05a2.13,2.13,0,0,0-1.05.84A1.6,1.6,0,0,1,255,326.4Zm1.89,4a.91.91,0,0,1-.56-.39c-.1-.16-.26-.1-.49.18a2.34,2.34,0,0,1,.52,1.33,11.62,11.62,0,0,1,0,1.44c0,.48-.09,1-.11,1.54a2.68,2.68,0,0,0,.39,1.5,7.72,7.72,0,0,1,2.62-.91,15,15,0,0,1,2.77-.17,17,17,0,0,1,2.87.31c1,.19,1.93.35,2.87.49a2.2,2.2,0,0,0,.66-1.19,4,4,0,0,0,0-1.3A5,5,0,0,0,268,332l-.49-1c.09-.14.18-.2.28-.17l.28.06a.25.25,0,0,0,.24,0,1.13,1.13,0,0,0,.25-.42,21.72,21.72,0,0,0-2.91-1.61,11.14,11.14,0,0,0-3.29-1,6.49,6.49,0,0,0-3.11.32A4.32,4.32,0,0,0,256.84,330.39Zm3.43-5v-.77a1.08,1.08,0,0,1-.7,0c-.28-.08-.54-.13-.77-.18a.67.67,0,0,0-.49,0c-.1.07-.05.3.14.67a.61.61,0,0,1,.91-.25A6,6,0,0,0,260.27,325.35Zm-1.82,12.74.56-.21a2,2,0,0,0,.59-.35A1.2,1.2,0,0,0,260,337a.4.4,0,0,0-.17-.49c0,.28,0,.45-.18.53a4.73,4.73,0,0,1-.56.17,1.66,1.66,0,0,0-.52.21C258.38,337.55,258.35,337.76,258.45,338.09Zm0,16a1,1,0,0,0,.77.28h1a2.82,2.82,0,0,1,.14-.87,1.47,1.47,0,0,0-.14-.74A1.41,1.41,0,0,0,258.45,354.05Zm1.33-29.75a5.22,5.22,0,0,0,.8-.21.69.69,0,0,1,.74.21A2.61,2.61,0,0,0,261,323a1.25,1.25,0,0,0-1.05-.56.79.79,0,0,0-.25.73C259.76,323.57,259.78,323.93,259.78,324.3Zm.49,27.37a2,2,0,0,0,1.33-.28,1.65,1.65,0,0,0-.46-1.26,2.31,2.31,0,0,0-1.15-.56,5.52,5.52,0,0,1,0,1.15A1.06,1.06,0,0,0,260.27,351.67Zm5-24.15v-1.33a7.92,7.92,0,0,1-1.3.14,1.8,1.8,0,0,1-1.08-.42,1.14,1.14,0,0,0,.35.84,1.52,1.52,0,0,0,.66.28l.77.14A.92.92,0,0,1,265.31,327.52Zm-1.05,28.63a1.4,1.4,0,0,1,.28-.77l-.56-.25a1.72,1.72,0,0,0-.77,0A.93.93,0,0,0,264.26,356.15Zm-.56-17.5a2,2,0,0,0,.45-1.15,8.06,8.06,0,0,1,.11-1.51h-.77a8.35,8.35,0,0,1,.1,1.58A2.89,2.89,0,0,0,263.7,338.65ZM264.82,324c.32,0,.51,0,.56.24s.21.32.49.32a1.3,1.3,0,0,1,0-.8c.07-.26.13-.49.18-.7a1.67,1.67,0,0,0,0-.53c0-.14-.17-.26-.45-.35a4.71,4.71,0,0,0-.35.94A2.49,2.49,0,0,1,264.82,324Zm0,14.91c.32,0,.52-.09.59-.28a1.3,1.3,0,0,0,0-.66,1.62,1.62,0,0,0-.28-.67c-.14-.19-.26-.28-.35-.28Zm2.1-14.07a2.27,2.27,0,0,1,.63.1,3.55,3.55,0,0,0,.63.15,1.28,1.28,0,0,0,.52,0c.16-.05.27-.21.32-.49a5.12,5.12,0,0,0-.56-.46,1.64,1.64,0,0,0-.7-.28.77.77,0,0,0-.6.18A1.11,1.11,0,0,0,266.92,324.86ZM268,339.7q-.08,1,1,.84c.09-.79-.17-1.17-.77-1.12C268.25,339.65,268.15,339.75,268,339.7ZM269,324a1,1,0,0,1,.52.7q.1.5.81.42a1,1,0,0,0,.66-.73,1.6,1.6,0,0,1,.46-.88.94.94,0,0,1-.91-.14,1.71,1.71,0,0,0-.7-.42c0,.23,0,.39-.07.45a.78.78,0,0,1-.32.15.94.94,0,0,0-.31.1C269.06,323.72,269,323.83,269,324Zm5,9.59a2,2,0,0,0-.63-.73,4.6,4.6,0,0,0-.91-.53,3,3,0,0,0-.95-.24.78.78,0,0,0-.66.17q.27.29.63.6a4.85,4.85,0,0,0,.77.55,2.42,2.42,0,0,0,.87.32A1.42,1.42,0,0,0,274.06,333.61Z" transform="translate(-7.13 -11.25)"/><path class="cls-2" d="M302.48,330.67h1c.19-.14.24-.26.15-.35s-.23-.2-.39-.32a2.74,2.74,0,0,1-.45-.38.49.49,0,0,1-.08-.56,5,5,0,0,1,.32-1.85,14.42,14.42,0,0,1,.7-1.54c.26-.5.51-1,.77-1.44a6.33,6.33,0,0,0,.6-1.54,20,20,0,0,1,5.25-3.15,24.68,24.68,0,0,1,5.66-1.68,13.84,13.84,0,0,1,7.36,1.26,15.64,15.64,0,0,1,5.52,4.45,18.39,18.39,0,0,1,3.29,6.64,23.61,23.61,0,0,1,.78,7.88,1.13,1.13,0,0,1-.67.07l-.6-.17a1.47,1.47,0,0,0-.52-.11.31.31,0,0,0-.32.21,2.68,2.68,0,0,0-.8-1,8.87,8.87,0,0,0-1.12-.77,7.32,7.32,0,0,1-1.09-.77,2.42,2.42,0,0,1-.7-1.12,1.79,1.79,0,0,1-1.08.77,5.31,5.31,0,0,0-1.3.56,1.38,1.38,0,0,0,.11,1.05,2.91,2.91,0,0,1,.38.77c.29.14.47.13.56,0a1.77,1.77,0,0,0,.21-.57c.05-.21.09-.38.11-.52s.08-.12.17.07c.33,0,.51.07.53.21a1.15,1.15,0,0,1-.07.52c-.07.21-.14.44-.21.67a1.05,1.05,0,0,0,0,.7c.29-.28.53-.4.74-.35a1.44,1.44,0,0,1,.6.31c.18.17.4.35.66.57a1.44,1.44,0,0,0,.94.31c.24.47.27.78.11.95a1.77,1.77,0,0,0-.38.87.87.87,0,0,0,.76-.28,1.15,1.15,0,0,0,.25-.63,3,3,0,0,0,0-.77,1.21,1.21,0,0,1,.07-.7c.29-.19.67-.14,1.16.14a3,3,0,0,0,1.51.42q-.28,1.89-.39,4a18.15,18.15,0,0,1-.66,4,9.22,9.22,0,0,1-1.48,3,14.29,14.29,0,0,0-1.68,2.83,11,11,0,0,1-4,2.55,18,18,0,0,1-4.94,1.09,21.16,21.16,0,0,1-5.25-.24,19.94,19.94,0,0,1-4.93-1.51,14.87,14.87,0,0,1-4-2.66,8.84,8.84,0,0,1-2.41-3.71c0-.33.09-.51.27-.56a5.72,5.72,0,0,1-1.11-3.08A40.17,40.17,0,0,1,302,340c0-1.84,0-3.63.11-5.39S302.33,331.56,302.48,330.67Zm1.33,2.66a3.91,3.91,0,0,1,.21,1.37.94.94,0,0,0,.56,1,2.79,2.79,0,0,0,.63-1.29,1.51,1.51,0,0,1,.7-1.09c-.19-.09-.26-.19-.21-.28h-.56a1.56,1.56,0,0,1-.08.7c0,.05-.12,0-.24-.07l-.42-.31A.58.58,0,0,0,303.81,333.33Zm.77,2.87a1,1,0,0,0,1.12,1.05,2.65,2.65,0,0,1,.21-.49,3.19,3.19,0,0,0,.21-.56,1,1,0,0,0,0-.49c-.05-.14-.19-.23-.42-.28a.82.82,0,0,1-.14.56.44.44,0,0,1-.29.14,1.25,1.25,0,0,1-.31,0A.52.52,0,0,0,304.58,336.2Zm1.33-10.57a1.38,1.38,0,0,1,.07-.52.75.75,0,0,1,.21-.32,1.31,1.31,0,0,1-.46-.21.75.75,0,0,0-.59-.07C305,325.3,305.3,325.68,305.91,325.63Zm2.94,14.28q0-.29.27-.21a.46.46,0,0,1,.11-.32.89.89,0,0,0,.18-.24,3.14,3.14,0,0,0-1.54-.6,5.62,5.62,0,0,1-1.68-.45c0,.47.12.75.38.84a2.66,2.66,0,0,0,.88.14,3.85,3.85,0,0,1,.87.1C308.58,339.25,308.75,339.49,308.85,339.91Zm-2.39-5.81v.49c.19.09.29.19.29.28h.48c.1-.19.19-.28.29-.28v-.49c-.19,0-.29-.09-.29-.28h-.48C306.75,334.05,306.65,334.15,306.46,334.1Zm1.06-7.7a1,1,0,0,0,.27-.91c0-.37-.3-.51-.77-.42a1,1,0,0,0-.27.91C306.79,326.35,307.05,326.49,307.52,326.4Zm-.77,15.4a.63.63,0,0,1,.38.24.86.86,0,0,0,.39.32.79.79,0,0,1,.38-.66,2.79,2.79,0,0,1,.74-.28,8.86,8.86,0,0,0,.87-.29,1.15,1.15,0,0,0,.67-.66,1.09,1.09,0,0,0-.81-.28h-1.08a1.14,1.14,0,0,1-.21.77,1.53,1.53,0,0,1-.46.32l-.49.17A.62.62,0,0,0,306.75,341.8Zm1.33-7.42V337c.51.09.77-.09.77-.56v-1.33a1.22,1.22,0,0,1,.77.18c.13.11.32.05.56-.18a1.08,1.08,0,0,0-.14-.84.72.72,0,0,0-.53-.21,2.76,2.76,0,0,0-.74.11Zm1-5a9.38,9.38,0,0,1-.83.87c-.33.31-.24.62.27,1,.1-.19.41-.21.95-.07a3.12,3.12,0,0,0,1.44.07,1.59,1.59,0,0,1,.42-1.05,3.77,3.77,0,0,1,.69-.56,4,4,0,0,0,.67-.49,1.33,1.33,0,0,0,.39-.84,1.5,1.5,0,0,1-1.41,0,3.83,3.83,0,0,1-.87-.88,10.09,10.09,0,0,0-.88-1,1.87,1.87,0,0,0-1.4-.49,1.33,1.33,0,0,0-.35.84,2.12,2.12,0,0,0,.18.84l.38.87A5.42,5.42,0,0,1,309.12,329.34Zm.29,9.24q.9,0,1-1.05a1.31,1.31,0,0,1-.46-.21.75.75,0,0,0-.59-.07,2.08,2.08,0,0,1-.21.77C309.1,338.16,309.17,338.35,309.41,338.58ZM311,343.9v-1a.61.61,0,0,0-.56.11.52.52,0,0,0,0,.83A.61.61,0,0,0,311,343.9Zm8,2.94a3.56,3.56,0,0,0,2-1.89,13.79,13.79,0,0,0,1.39-3.85,21.83,21.83,0,0,0,.49-4.72,17.12,17.12,0,0,0-.55-4.52,6.87,6.87,0,0,0-1.83-3.22,3.89,3.89,0,0,0-3.36-.91,3.75,3.75,0,0,0-2.13,1,6.33,6.33,0,0,0-1.33,2,19.41,19.41,0,0,0-.94,2.48c-.28.89-.59,1.73-.91,2.52a4.48,4.48,0,0,0-1.09.28c-.35.14-.34.4,0,.77.15.23.27.32.39.24a.89.89,0,0,0,.32-.38l.27-.56a.69.69,0,0,1,.35-.35,29.35,29.35,0,0,1,.39,3.18,28.7,28.7,0,0,0,.35,3,11.78,11.78,0,0,0,.77,2.63,5.1,5.1,0,0,0,1.64,2.06,14.52,14.52,0,0,0,2,.11A6.41,6.41,0,0,1,318.92,346.84Zm-5.53,6.09a1.23,1.23,0,0,0,.57.11,2.14,2.14,0,0,0,.42-.15,5,5,0,0,1,.52-.21,2.17,2.17,0,0,1,.87,0c.19-1.12.12-1.83-.21-2.14a.9.9,0,0,0-1.08-.17,2.41,2.41,0,0,0-1,1.05A1.65,1.65,0,0,0,313.39,352.93Zm2.11-3.71c-.05-.37-.1-.69-.15-.94s-.25-.39-.63-.39a.71.71,0,0,0-.1.87A.77.77,0,0,0,315.5,349.22Zm-.29-24.43c.52.09.77-.08.77-.53s-.25-.61-.77-.52Zm.84,2.38c.57-.56.47-1-.28-1.33a.72.72,0,0,0-.21.77A.87.87,0,0,0,316.05,327.17Zm.49,25.27a3,3,0,0,0,1.51-1.08,1.76,1.76,0,0,0,.38-1.58,1.37,1.37,0,0,0-1.12-.28,1.28,1.28,0,0,0-.77.63,2.62,2.62,0,0,0-.31,1.16A1.8,1.8,0,0,0,316.54,352.44Zm.77-3.71a1,1,0,0,0,.28-.91c0-.37-.3-.51-.76-.42a2.59,2.59,0,0,0,0,.88A.53.53,0,0,0,317.31,348.73Zm3.5-1.89a.54.54,0,0,1,.53.11.75.75,0,0,0,.53.17.77.77,0,0,0,.1-.91,1.16,1.16,0,0,0-.67-.7,3.46,3.46,0,0,1-.42.49C320.75,346.14,320.72,346.42,320.81,346.84Zm0,6.09v.56a.24.24,0,0,1,.28.28h.49c0-.23.1-.33.29-.28v-.56c-.24,0-.33-.09-.29-.28h-.49C321,352.88,320.91,353,320.81,352.93Zm2.11-22.82h.55c.24-.28.28-.43.15-.45s-.19-.23-.15-.6h-.55q0,.56-.18.6T322.92,330.11Zm.28-4.48a1.14,1.14,0,0,0,.9-.17,1.9,1.9,0,0,1,.7-.39,1.43,1.43,0,0,0-.38-1.12,2.15,2.15,0,0,0-.95-.49,1.79,1.79,0,0,0-.42,1A6.67,6.67,0,0,0,323.2,325.63Zm0,20.16c-.05.56.08.88.38.95a1.15,1.15,0,0,0,.91-.21,1.44,1.44,0,0,0,.59-.81c.1-.33-.09-.58-.56-.77Q324.46,346.42,323.2,345.79Zm0-6.37a3,3,0,0,1,1.53-.17,1.52,1.52,0,0,0,1.4-.67,2.29,2.29,0,0,0-.87-.28,2.66,2.66,0,0,0-1,0,2.18,2.18,0,0,0-.77.35A.88.88,0,0,0,323.2,339.42Zm.27-3.5a.63.63,0,0,0,.53-.07.52.52,0,0,0,.21-.35c0-.14.06-.3.1-.49a.92.92,0,0,1,.21-.42c-.42,0-.67.14-.77.42S323.57,335.59,323.47,335.92Zm.28,8.82a.69.69,0,0,0,.63,0,.92.92,0,0,0,.39-.5,1.13,1.13,0,0,0,0-.63.65.65,0,0,0-.28-.45c-.09.28-.19.56-.31.84A3.14,3.14,0,0,1,323.75,344.74Zm2.1,3.71V347.4c-.51-.09-.77.08-.77.52S325.34,348.54,325.85,348.45Zm-.56-14.35a1.91,1.91,0,0,1,.63-.31.86.86,0,0,1,.39,0,1.54,1.54,0,0,1,.35.1.74.74,0,0,0,.52-.07A1.59,1.59,0,0,1,327,333a6.88,6.88,0,0,1,.11-.81,2.23,2.23,0,0,0,0-.73.82.82,0,0,0-.5-.56,2.58,2.58,0,0,1-.59,1.68A3.18,3.18,0,0,0,325.29,334.1Zm.84,7.42c.47.09.79,0,.95-.18a3.65,3.65,0,0,1,.59-.59,1.83,1.83,0,0,0-1-.11C326.36,340.71,326.18,341,326.13,341.52Zm.78,3.22a2,2,0,0,1,0-.66c0-.26.05-.51.07-.74a1.83,1.83,0,0,0,0-.59.68.68,0,0,0-.29-.39,4.48,4.48,0,0,0-.17.52,4.29,4.29,0,0,0-.14.81,1.43,1.43,0,0,0,.11.73A.49.49,0,0,0,326.91,344.74Zm-.29,2.1q1,.07.84-1a1.12,1.12,0,0,0-.87.35A.45.45,0,0,0,326.62,346.84Zm1.05-.28a1,1,0,0,0,1.12,1.05,1.39,1.39,0,0,0,.21-1.33A2.23,2.23,0,0,0,327.67,346.56Zm4-4.76c-.1-.37-.06-.61.1-.7s.22-.3.18-.63h-.78a3.15,3.15,0,0,0,0,.87A.54.54,0,0,0,331.67,341.8Z" transform="translate(-7.13 -11.25)"/><path class="cls-2" d="M370.65,321a38.76,38.76,0,0,0-4.13,4.37,41.21,41.21,0,0,1-4.06,4.38,26.83,26.83,0,0,0-3-1.33,11.93,11.93,0,0,0-2.91-.77,4.88,4.88,0,0,0-2.52,2,9.21,9.21,0,0,0-1.19,3,16.43,16.43,0,0,0-.31,3.57c0,1.26,0,2.47,0,3.64q.15,4.34.18,9c0,3.08.06,5.95.1,8.61a8.11,8.11,0,0,0-3-.45c-1,0-2.08.07-3.08.13a22.87,22.87,0,0,1-3,0,5.72,5.72,0,0,1-2.66-.77q.07-4.83,0-9.41c0-3.06-.08-6.13-.18-9.21s-.2-6.22-.31-9.41-.22-6.53-.32-10a36.22,36.22,0,0,0,6,.07,47.75,47.75,0,0,1,5.7-.07,3.13,3.13,0,0,1-.07,1.54,1.37,1.37,0,0,0,.07,1.12,2.24,2.24,0,0,0,.95-.18,1.68,1.68,0,0,0,.63-.49l.49-.63a2.11,2.11,0,0,1,.59-.52,17.66,17.66,0,0,1,4.31-1.12,17.21,17.21,0,0,1,4.3,0,15.94,15.94,0,0,1,4,1A11.76,11.76,0,0,1,370.65,321Zm-28.42,8a1.49,1.49,0,0,1,.28-.77,2.52,2.52,0,0,1-.45-.28.68.68,0,0,0-.6,0,2.3,2.3,0,0,1,.18.73C341.66,328.93,341.86,329,342.23,329Zm-.49,14.63.67-.14.66.14a.68.68,0,0,1,.07-.53,1.15,1.15,0,0,1,.32-.27c.12-.07.23-.15.35-.21a1.06,1.06,0,0,0,.31-.32.44.44,0,0,1-.35-.49c0-.28-.14-.4-.42-.35a.84.84,0,0,1-.17.77,1.87,1.87,0,0,1-.63.32,2,2,0,0,0-.67.31C341.7,343,341.65,343.25,341.74,343.62Zm2.1-3.22a4,4,0,0,1,.21-.84c.1-.23-.07-.4-.49-.49a1,1,0,0,0-.24.81A.48.48,0,0,0,343.84,340.4Zm.84-8h-1.12c-.09.33-.08.55,0,.66a.48.48,0,0,0,.45.14.79.79,0,0,0,.49-.24A.58.58,0,0,0,344.68,332.42ZM344.4,342a.85.85,0,0,0,.7-.25,2,2,0,0,0,.35-.59,1.41,1.41,0,0,0-1.33-.21A1.69,1.69,0,0,0,344.4,342Zm2.1-20.72a3.19,3.19,0,0,1,.7-.14.76.76,0,0,1,.39.1,3.41,3.41,0,0,0,.38.21,1.32,1.32,0,0,0,.63.11c0-.7-.11-1.14-.49-1.33,0,.33-.09.49-.28.49a1.65,1.65,0,0,1-.59-.11.91.91,0,0,0-.56,0C346.51,320.64,346.46,320.87,346.5,321.29Zm0,17.22c.38.09.62,0,.74-.18a1.46,1.46,0,0,0,.1-.87h-.84Zm1.61,2.66a1.41,1.41,0,0,0,.25-1.16,8.64,8.64,0,0,0-.25-1.22h-1.05a6,6,0,0,0-.17,1.68C346.91,341,347.32,341.26,348.11,341.17Zm.77-18.06v-1.05a.62.62,0,0,0-.56.11.52.52,0,0,0,0,.83A.62.62,0,0,0,348.88,323.11Zm.28,14.14a.66.66,0,0,1,.11-.59.77.77,0,0,0,.17-.53.55.55,0,0,1-.52-.1.54.54,0,0,0-.53-.11,2.83,2.83,0,0,0,0,1C348.5,337.18,348.74,337.3,349.16,337.25Zm.77-1.89c.52.09.77-.08.77-.53s-.25-.61-.77-.52Zm0,3.71c.52.09.77-.08.77-.53s-.25-.61-.77-.52Zm8-14.07a.53.53,0,0,0,.63-.11.83.83,0,0,0,.21-.56.7.7,0,0,0-.21-.52.68.68,0,0,0-.63-.14c-.09.42-.14.64-.14.66S357.82,324.58,357.91,325Z" transform="translate(-7.13 -11.25)"/><path class="cls-2" d="M403.2,306.24a5.25,5.25,0,0,1,.42,2.1,2.68,2.68,0,0,1-.7,1.89,6.38,6.38,0,0,1,.95,2.27,13,13,0,0,1,.24,2.49c0,.84,0,1.69-.1,2.55a19,19,0,0,0,0,2.49q.15,3.15.49,6.79c.24,2.43.42,4.88.56,7.35.24,3.83.36,7.82.39,12s.08,8.31.17,12.46c-1.68-.19-3.37-.34-5.07-.46s-3.75-.15-6.13-.1a2.33,2.33,0,0,0-.1-1.37,3.69,3.69,0,0,0-.63-.91l-.77-.73a2.21,2.21,0,0,1-.6-1q-.55.34-.21.84a1.18,1.18,0,0,1,.21,1.05,9.38,9.38,0,0,1-5.18,2.14,17.29,17.29,0,0,1-6-.42,15.8,15.8,0,0,1-5.32-2.42,8.6,8.6,0,0,1-3.22-3.85v-1.61a19.66,19.66,0,0,1-1.43-4.37,44.3,44.3,0,0,1-.77-5.15c-.17-1.77-.26-3.54-.28-5.29s0-3.34.1-4.79c0-.51.15-.76.32-.73a5.71,5.71,0,0,1,.73.17,7.78,7.78,0,0,1,0-4.83,8.25,8.25,0,0,1,2.52-3.54,11.75,11.75,0,0,1,4.17-2.13,18.79,18.79,0,0,1,5-.74,15.16,15.16,0,0,1,4.9.74,10.68,10.68,0,0,1,4,2.24,10.16,10.16,0,0,0,.7-3.4c.05-1.18,0-2.41,0-3.67s-.11-2.54-.11-3.85a16.44,16.44,0,0,1,.49-3.92,16.8,16.8,0,0,0,4.94.1A53.31,53.31,0,0,1,403.2,306.24Zm-27.37,19.11a7.81,7.81,0,0,1-.45-.88,5.69,5.69,0,0,0-.56-.94,2.1,2.1,0,0,0-.74-.63.91.91,0,0,0-.91.07,3,3,0,0,1,1.3,1.23A2.58,2.58,0,0,0,375.83,325.35Zm-.77,24.22a2.32,2.32,0,0,1-.84-.45c-.32-.26-.58-.2-.77.17l.74.49A.55.55,0,0,0,375.06,349.57Zm.77-9.87a1.1,1.1,0,0,0-1.33-1.05c-.32.47-.29.85.11,1.15A.86.86,0,0,0,375.83,339.7Zm.49-11.69a9.17,9.17,0,0,1,2.28.56,6.09,6.09,0,0,1,2.27,1.82l-.42-1.54a3.9,3.9,0,0,0-.63-1.33q-.06.35-.84.21a1.26,1.26,0,0,0-.38-1,2.8,2.8,0,0,1-.67-.8c-.23.23-.42.3-.56.21a2.6,2.6,0,0,1-.42-.35,2.26,2.26,0,0,0-.38-.31c-.12-.08-.27,0-.46.17a3.32,3.32,0,0,1,.63,1.12A1.51,1.51,0,0,1,376.32,328Zm1.61-4.76c.1-.42,0-.67-.31-.74a3.11,3.11,0,0,0-1,0c0,.37.14.6.42.66A3.78,3.78,0,0,0,377.93,323.25Zm2.66,3.43a.45.45,0,0,0,.56-.14,1.52,1.52,0,0,0,.39-.59,1,1,0,0,0,0-.6q-.06-.28-.42-.21a.7.7,0,0,1-.28.77A.73.73,0,0,0,380.59,326.68Zm8.26,1.89a5.26,5.26,0,0,0-2.27-.07,4.29,4.29,0,0,0-2,.95,5,5,0,0,0-1.4,2,6.25,6.25,0,0,0-.39,3,1.43,1.43,0,0,1-.52.32l-.63.17a1.24,1.24,0,0,0-.53.25.72.72,0,0,0-.21.59c0,.23,0,.37.11.42a1.15,1.15,0,0,0,.45.07,1.45,1.45,0,0,1,.49.07.41.41,0,0,1,.28.28,1.37,1.37,0,0,0,.11,1.08,1.44,1.44,0,0,1,.17,1,.45.45,0,0,1-.38,0,2.42,2.42,0,0,0-.39-.21.49.49,0,0,0-.35-.08c-.09,0-.16.13-.21.32a1.47,1.47,0,0,0,.74.49.83.83,0,0,1,.59.56,7.68,7.68,0,0,0-.07,2.34,10.94,10.94,0,0,0,.6,2.63,8.6,8.6,0,0,0,1.22,2.28,3.44,3.44,0,0,0,2,1.29.83.83,0,0,1,1.19-.11,2.55,2.55,0,0,1,.91.88,2.08,2.08,0,0,1,.74-.67,6.72,6.72,0,0,1,1-.42,8.68,8.68,0,0,0,1-.38,2.28,2.28,0,0,0,.8-.63,6.93,6.93,0,0,0,.35-1.79,1.92,1.92,0,0,1,.7-1.43.63.63,0,0,1,.56.31q.21.31.39.63a1.82,1.82,0,0,0,.35.49c.11.12.29.09.52-.1a1,1,0,0,0-.14-.77,1.25,1.25,0,0,0-.52-.42l-.63-.25a1.05,1.05,0,0,1-.53-.38c.1-1,.18-2.23.25-3.74a24.74,24.74,0,0,0-.21-4.55,12.75,12.75,0,0,0-1.23-4.07A4.23,4.23,0,0,0,388.85,328.57Zm-6.09-5a1.81,1.81,0,0,1-.7.18,3.38,3.38,0,0,0-.91.1c.28.7.67,1,1.16.77a2.38,2.38,0,0,0,1.19-1.08,2.72,2.72,0,0,0,.35-1.68c-.07-.59-.53-.9-1.37-.95,0,.33.1.58.14.77s.1.36.14.53a1.72,1.72,0,0,1,.07.52A6.62,6.62,0,0,1,382.76,323.53Zm-1.12,30c.52.09.77-.08.77-.53s-.25-.61-.77-.52Zm7.7-31.29a2.36,2.36,0,0,1-1.78,1.09,7.85,7.85,0,0,1-2.42,0,2.06,2.06,0,0,1,.28.8,7.65,7.65,0,0,0,.18.84,1.2,1.2,0,0,0,.42.64,1.13,1.13,0,0,0,.94.1,1.72,1.72,0,0,1,.39-1,2,2,0,0,0,.45-.84.71.71,0,0,0,.53-.18.55.55,0,0,1,.52-.1,4.09,4.09,0,0,0,0,.63c0,.19.17.23.45.14a.48.48,0,0,0,.42-.38,2.49,2.49,0,0,0,0-.74,3.86,3.86,0,0,0-.21-.88c-.12-.3-.2-.52-.25-.66Zm.84,2.38a1.9,1.9,0,0,1,.74-.11l.56.07a.41.41,0,0,0,.38-.1c.1-.09.14-.3.14-.63a.81.81,0,0,1-.59.18,5.33,5.33,0,0,1-.6-.11.49.49,0,0,0-.45.07Q390.18,324.09,390.18,324.58Zm5.53,17.5a1.07,1.07,0,0,1,0-.8c.11-.36,0-.53-.25-.53,0,.33-.25.43-.63.32a2.2,2.2,0,0,1-.7-.32c0,.51.11.84.46,1A8,8,0,0,0,395.71,342.08Zm-.77-31.57a1.86,1.86,0,0,0,.18,1.54,3.86,3.86,0,0,1,.59,1.12.8.8,0,0,0,.6,0,1.38,1.38,0,0,0,.28-.25,3,3,0,0,1,.24-.28.54.54,0,0,1,.49-.07,2.08,2.08,0,0,0-.45-1,1.65,1.65,0,0,1-.32-1.12,1.19,1.19,0,0,1-1-.1C395.39,310.24,395.18,310.28,394.94,310.51Zm0,35.84a.49.49,0,0,0,.07.56.82.82,0,0,0,1,.14.45.45,0,0,0,.24-.42,4.25,4.25,0,0,1-.63-.46C395.46,346,395.22,346.07,394.94,346.35ZM396,352c.61-.09,1-.28,1.05-.56a.6.6,0,0,1-.38-.25.63.63,0,0,0-.39-.24,1,1,0,0,1-.21.46A.79.79,0,0,0,396,352Zm0-16.52h.84c.1-.42,0-.67-.17-.73a4.45,4.45,0,0,1-.67-.32Zm1.05,9.31a.72.72,0,0,1,.18-.53.55.55,0,0,0,.1-.52.34.34,0,0,1-.35-.18c0-.11-.18-.15-.42-.1-.28.28-.32.55-.14.8A1.47,1.47,0,0,0,397,344.74Zm.84,3.5c0-.37,0-.69,0-.95s-.2-.38-.53-.38a.92.92,0,0,0-.21.38.89.89,0,0,0,0,.46.93.93,0,0,0,.25.38A.52.52,0,0,0,397.88,348.24Zm.28-34.58c.28,0,.36-.11.25-.45a1.29,1.29,0,0,1,0-.88h-.77a1.1,1.1,0,0,1,0,.49,3.1,3.1,0,0,0,0,.49.56.56,0,0,0,.11.35Q397.81,313.79,398.16,313.66Zm1,27.37c-.14-.09-.39-.26-.77-.49a.52.52,0,0,0-.84.21l.74.49A.55.55,0,0,0,399.21,341Zm-1,11.2q1.13.13,1-.84a.41.41,0,0,1-.38-.18c-.07-.11-.22-.15-.46-.1a1.28,1.28,0,0,1-.21.49A.75.75,0,0,0,398.16,352.23Zm0-21.56a.86.86,0,0,0,.74,0,1.18,1.18,0,0,0,.38-.42,1.78,1.78,0,0,1,.35-.42,1,1,0,0,1,.63-.17c0-.42,0-.82,0-1.19s-.27-.51-.74-.42a1.62,1.62,0,0,1-.7,1.37A1.38,1.38,0,0,0,398.16,330.67Zm0-1.61c.38.09.61,0,.7-.18a1.57,1.57,0,0,0,.07-.87h-.77Zm.49-18.83.67-.14.66.14v-.77l-.66.14-.67-.14Zm.28,4.76c.52-.05.74-.26.67-.63a.83.83,0,0,0-.67-.7Zm.77-3.15a8.54,8.54,0,0,0,.95,0c.25,0,.38-.19.38-.52a.72.72,0,0,1-.52-.39c-.12-.21-.39-.24-.81-.1ZM401,348a9.13,9.13,0,0,1,1.16-.35,2.45,2.45,0,0,0,1-.49,1.13,1.13,0,0,0-1.26-.07A1.75,1.75,0,0,0,401,348Zm2.17-34q.15-1.12-.84-1.05Q402.23,314,403.2,313.94Z" transform="translate(-7.13 -11.25)"/><path class="cls-2" d="M411.6,320.59q3.15.35,5.88.38t6.09.18q-.13,8.48.28,17.74t.49,18.38c-1.07-.09-1.89-.14-2.45-.14a3.19,3.19,0,0,1-1.82-.7,4.62,4.62,0,0,1-2,.81,4.13,4.13,0,0,1-2.45-.25c0-.51-.09-.79-.28-.84a.87.87,0,0,1,.67-.24,1.8,1.8,0,0,1,.66.21c.24.11.48.22.74.31a1.43,1.43,0,0,0,.87,0,.76.76,0,0,0,.25-.18.33.33,0,0,1,.24-.1,2.22,2.22,0,0,0-1.29-1.51q-1-.45-2.07-.87a4.88,4.88,0,0,1-1.71-1.09,2,2,0,0,1-.25-2.06.82.82,0,0,1,.49.56,2.22,2.22,0,0,1,.07,1,1.55,1.55,0,0,1,.7-1.05,5.46,5.46,0,0,0,1.19-1.05,1.69,1.69,0,0,0-1.36-.14,1.52,1.52,0,0,1-1.3-.14c0-1.59-.13-3.08-.24-4.48s-.21-2.74-.28-4-.11-2.56-.11-3.82a22.23,22.23,0,0,1,.35-3.85q.36.08.42.21a.56.56,0,0,1,0,.35,3.48,3.48,0,0,1-.14.49,1,1,0,0,0,0,.56h1.05a3.36,3.36,0,0,1,2.94-2.66,1.52,1.52,0,0,1,.42,0q.08,0,0,.15l-.17.24a.38.38,0,0,0,0,.35,2,2,0,0,0,1.33-.28l-.42-.84a5.31,5.31,0,0,1-.35-1c-.6.28-1,.39-1.05.31a2,2,0,0,1-.28-.87c-.18-.05-.28,0-.28.11a2.43,2.43,0,0,0,0,.42,1.47,1.47,0,0,1,0,.42c0,.11-.13.15-.32.1s-.36-.06-.38-.18a3.25,3.25,0,0,1-.07-.38.89.89,0,0,0-.18-.38c-.09-.12-.33-.16-.7-.11s-.32.22-.14.53a1.74,1.74,0,0,0,.42.52,2.7,2.7,0,0,1-1.4.63,5.29,5.29,0,0,1-1.47-.07,5.08,5.08,0,0,1,.35-1.08q.21-.46.42-1a.84.84,0,0,0-.56-.42.67.67,0,0,1-.49-.42,2.32,2.32,0,0,0,0-1.3c-.12-.3,0-.57.45-.8a1.23,1.23,0,0,1-.7-1.05,12,12,0,0,1-.14-1.89c0-.7,0-1.39.07-2.06A9,9,0,0,0,411.6,320.59Zm.28,4c.1.14.19.2.28.17l.32-.07a2,2,0,0,1,.35,0,.59.59,0,0,1,.38.21c.1-.42.05-.69-.14-.81s-.23-.38-.14-.8c-.51-.09-.81,0-.91.32A3.52,3.52,0,0,0,411.88,324.58Zm11.69-18.83c-.09,1.31-.11,2.61-.07,3.92s.07,2.73.07,4.27c-1.16,0-2.21,0-3.15-.07l-2.66-.14c-.84-.05-1.7-.08-2.59-.11s-1.89,0-3,0c0-.51-.09-1.13-.14-1.86s-.06-1.47,0-2.23.08-1.54.17-2.32a8.76,8.76,0,0,1,.49-2.06,39.55,39.55,0,0,0,5.25.67A35.89,35.89,0,0,0,423.57,305.75Zm-10.15,49.07a1.08,1.08,0,0,1,1.12,1.12.7.7,0,0,0-.56.49c-.37,0-.55-.18-.52-.52A5.71,5.71,0,0,0,413.42,354.82ZM413.7,328c-.09.51.08.77.53.77s.62-.26.52-.77c-.37.05-.57,0-.59-.14S414,327.78,413.7,328Zm1.61,14.91c-.09-.37-.08-.63,0-.77a1.33,1.33,0,0,1,.45-.35l.56-.28a.5.5,0,0,0,.28-.49.39.39,0,0,0-.24-.39,2.94,2.94,0,0,0-.53-.14,2.2,2.2,0,0,1-.52-.13A.55.55,0,0,1,415,340a9.82,9.82,0,0,0-.42,1.68A1.06,1.06,0,0,0,415.31,342.92Zm0-14.63h.77a1.54,1.54,0,0,1,.28-1.05Q415.39,327.24,415.31,328.29Zm.56,9.31a2.22,2.22,0,0,0,1.33-.28,1.12,1.12,0,0,0-1.12-1.33A2.27,2.27,0,0,0,415.87,337.6Zm1.05-10.08c.37.05.58-.06.63-.31s.1-.53.14-.81a1.26,1.26,0,0,0-.84.42A.48.48,0,0,0,416.92,327.52Zm.28,2.38a4.65,4.65,0,0,1,.84.94,1.73,1.73,0,0,0,1.26.67c-.09-.47-.07-.77.07-.91a5.33,5.33,0,0,1,.49-.42,1,1,0,0,0-.35-.1q-.21,0-.21-.18a6.2,6.2,0,0,0,1.75-1.54,9.54,9.54,0,0,1,1.68-1.68H421.4a2.34,2.34,0,0,1-.49,1.4,3.25,3.25,0,0,1-1.05.8,8.19,8.19,0,0,1-1.33.53A11,11,0,0,0,417.2,329.9Zm3.15,14.56c-.37-.51-.76-1-1.15-1.61a2.13,2.13,0,0,0-2-.77,8.73,8.73,0,0,0,1.23,1.58A3.09,3.09,0,0,0,420.35,344.46Zm.56,3.5a4.14,4.14,0,0,0-.28.56c-.09.23-.17.48-.24.73a1.22,1.22,0,0,0,0,.71.59.59,0,0,0,.52.38,1.76,1.76,0,0,1,.07-1.12,2.35,2.35,0,0,1,.53-.7,6.55,6.55,0,0,1,.66-.52,2,2,0,0,0,.56-.6c-.28-.28-.35-.54-.21-.77a1.2,1.2,0,0,0-.07-1.05c-.65.09-1.08,0-1.29-.28a1.67,1.67,0,0,0-1.09-.56,1.17,1.17,0,0,0,.18.91,2,2,0,0,1,.38.7.44.44,0,0,0-.49.35c0,.23-.23.3-.56.21a4.6,4.6,0,0,0-1.22-.53,2.78,2.78,0,0,1-1.16-.59,2.25,2.25,0,0,0,1.51,1.64Zm-2.17-12a1.71,1.71,0,0,0,.63.84,2.23,2.23,0,0,0,.95.35,3.09,3.09,0,0,0,1.05,0,1.82,1.82,0,0,0,.87-.38,2.14,2.14,0,0,1-.91-.38,5.56,5.56,0,0,0-.84-.53,2.22,2.22,0,0,0-.84-.24A1.25,1.25,0,0,0,418.74,336Zm0,16a.53.53,0,0,0,.56.59,5.47,5.47,0,0,1,1.05.18c.14-.56,0-.89-.49-1A1.3,1.3,0,0,0,418.74,352Zm1.33-20.23a1,1,0,0,0,1.12-1.05h-1.12Zm.84,2.66a.93.93,0,0,0,.21-.49,2.2,2.2,0,0,0,0-.67,1.06,1.06,0,0,0-.21-.52.6.6,0,0,0-.6-.14.89.89,0,0,0-.17,1.05A1.13,1.13,0,0,0,420.91,334.38Zm-.28-11.13c.37-.05.69-.09.95-.14s.38-.26.38-.63a1,1,0,0,0-.91.14A2.17,2.17,0,0,0,420.63,323.25Zm1.05,6.93V331a6.46,6.46,0,0,0,1.09-.81c.39-.35.48-.71.24-1.08-.37-.05-.58,0-.63.14a1,1,0,0,0,0,.49.89.89,0,0,1,0,.45C422.27,330.26,422.06,330.27,421.68,330.18Z" transform="translate(-7.13 -11.25)"/><path class="cls-2" d="M453.74,317.16a.76.76,0,0,1,0,1.12,15.58,15.58,0,0,0,2.94-.84,9.65,9.65,0,0,1,5,3.29,15.21,15.21,0,0,1,2.62,5.49,30.71,30.71,0,0,1,.95,7q.11,3.78-.11,7.7t-.52,7.77a68,68,0,0,0-.25,7.07,6.24,6.24,0,0,1-3,.49,7.38,7.38,0,0,0-2.84.28c-.42.14-.61.06-.56-.25a2.14,2.14,0,0,0,0-.8,2.54,2.54,0,0,1-1.64,1c-.73.14-1.51.26-2.35.35a31.91,31.91,0,0,1-.35-4.73c0-1.6,0-3.22.11-4.83s.14-3.24.21-4.89.08-3.31,0-4.94c0-.28,0-.42.14-.42a1.61,1.61,0,0,1,.46.07,1.15,1.15,0,0,0,.49,0c.16,0,.24-.2.24-.53-.23-.47-.47-.61-.7-.42a2.26,2.26,0,0,1-.91.42,7.93,7.93,0,0,0,.35-4.2,6.29,6.29,0,0,0-1.5-3,6.14,6.14,0,0,0-2.63-1.65,6.24,6.24,0,0,0-3-.24,5,5,0,0,0-2.59,1.26,4.82,4.82,0,0,0-1.47,2.76,14.67,14.67,0,0,0-.1,3.11c.07,1.2.18,2.46.35,3.79s.32,2.66.49,4,.26,2.58.31,3.75c.05,2,0,3.8,0,5.53s-.16,3.34-.25,4.83a50.82,50.82,0,0,0-5.11-.17c-1.73,0-3.73.08-6,.17a11.53,11.53,0,0,1-.17-1.33c0-.37,0-.74,0-1.09v-1c0-.36,0-.79-.07-1.3.37-.05.58,0,.63.14s.19.09.42-.14c.05-.19,0-.32-.07-.38a.86.86,0,0,0-.35-.15l-.42-.07a.22.22,0,0,1-.21-.24,63.24,63.24,0,0,0,0-6.86q-.18-3.15-.42-6.23t-.39-6.27a51.21,51.21,0,0,1,.21-6.89,11.54,11.54,0,0,0,0-3.22,15,15,0,0,1-.18-3.15,13.27,13.27,0,0,1,2.56-.21c1,0,2,0,3,0l3,0a20,20,0,0,0,2.52-.14,2.83,2.83,0,0,1-.21,1.12,2.24,2.24,0,0,0-.07,1.26,4.69,4.69,0,0,0,1.23.42.81.81,0,0,1,.66.91,5,5,0,0,1,1.37-2.21,7.17,7.17,0,0,1,2.27-1.39,11.85,11.85,0,0,1,2.84-.74A21.86,21.86,0,0,1,453.74,317.16Zm-19.6,16.52a1.69,1.69,0,0,0,.42-.73c.09-.31.2-.61.32-.91a2.29,2.29,0,0,1,.45-.78,1,1,0,0,1,.91-.24c-.33-.79-.77-1.14-1.33-1a2.29,2.29,0,0,0-1.43.84,2.4,2.4,0,0,0-.6,1.61Q432.88,333.33,434.14,333.68Zm-.28,2.38c.56,0,.92-.13,1.09-.39a.91.91,0,0,0,0-.94h-1.05Zm1.05,4a2.63,2.63,0,0,1,.77-.17.62.62,0,0,0,.56-.39c-.28.05-.45,0-.52-.14a2.52,2.52,0,0,1-.18-.49,2.54,2.54,0,0,0-.17-.49.47.47,0,0,0-.46-.21Zm.56,11.13a1,1,0,0,0,.28.91,1.49,1.49,0,0,1,.49.7c-.65-.05-1,.22-1,.8s0,1.21,0,1.86a2.1,2.1,0,0,1,.88-1,11.29,11.29,0,0,0,1.08-.73,2.09,2.09,0,0,0,.7-2.56,9.92,9.92,0,0,0-1.22-.25A1.48,1.48,0,0,0,435.47,351.18Zm0-31.36a.58.58,0,1,0,1-.49.72.72,0,0,0-.77-.21C435.47,319.21,435.38,319.45,435.47,319.82Zm4.76,9.31V327.8a6.9,6.9,0,0,1-1.64-.46,4.25,4.25,0,0,1-1.3-1.15,1.8,1.8,0,0,0-.24.84c0,.33-.06.65-.11,1a7.47,7.47,0,0,1-.17.87.75.75,0,0,1-.53.53,1.71,1.71,0,0,1,.42.7c.09.28.19.56.28.84a2,2,0,0,0,.42.73,1.24,1.24,0,0,0,.77.39c0-.42.16-.61.49-.56a1.49,1.49,0,0,1,.11-1.64A2.34,2.34,0,0,1,440.23,329.13ZM437.85,326a2.48,2.48,0,0,0,.11-.84,4.34,4.34,0,0,0-.14-.7c-.07-.23-.14-.48-.21-.73a2.43,2.43,0,0,1,0-.95h-1.05a9.64,9.64,0,0,1,.28,2C436.8,325.3,437.15,325.7,437.85,326ZM437,347.75h.84a1.44,1.44,0,0,0-.1-.87c-.12-.21-.37-.27-.74-.18Zm1.33-24.15h1.05a1.42,1.42,0,0,0-.21-1.33h-.84Zm1.05,9.52a8.56,8.56,0,0,0,.42-1.58,2.48,2.48,0,0,1,.7-1.36c-.23,0-.35-.14-.35-.42s-.16-.4-.49-.35a2.2,2.2,0,0,1-.28,1c-.19.37-.36.73-.52,1.08a1.87,1.87,0,0,0-.21,1C438.68,332.76,438.92,333,439.39,333.12Zm1.33-6.65a2,2,0,0,0,.28,1.33,7.48,7.48,0,0,1,1.26-.18.91.91,0,0,0,.91-.59c-.09-.37-.43-.63-1-.77A1.65,1.65,0,0,0,440.72,326.47Zm1.12,13.86.49.25.56.24c0-.37,0-.76,0-1.15s-.3-.55-.81-.46a.66.66,0,0,1-.1.59A.55.55,0,0,0,441.84,340.33Zm2.38-13.86a.94.94,0,0,1,.35-.63l.6-.42a2,2,0,0,0,.52-.49,1.14,1.14,0,0,0,.14-.84,1.24,1.24,0,0,0-1.22-.28,1.7,1.7,0,0,0-.91.73,1.74,1.74,0,0,0-.25,1.13A1,1,0,0,0,444.22,326.47Zm5-5.81a1.76,1.76,0,0,0-.14.63v.49a.64.64,0,0,1-.14.39,1.23,1.23,0,0,1-.56.31,1.34,1.34,0,0,0-1.26-.21,2.33,2.33,0,0,1-.52.7,1.08,1.08,0,0,0-.32.84,1,1,0,0,0,.7.31,1.4,1.4,0,0,0,.56-.2,5.17,5.17,0,0,0,.53-.39.87.87,0,0,1,.59-.21,1.83,1.83,0,0,1,.63.7,1.32,1.32,0,0,0,.7.63,1.34,1.34,0,0,1,.28-.66,2.58,2.58,0,0,0,.32-.46.77.77,0,0,0,.07-.45,1.26,1.26,0,0,0-.39-.6,7.67,7.67,0,0,1,1-.35,3,3,0,0,0,.91-.42.57.57,0,0,0-.14-.42l-.28-.25a3,3,0,0,1-.28-.24.57.57,0,0,1-.14-.42c.42.09.68,0,.77-.17s.19-.41.28-.6c-.23-.09-.3-.28-.21-.56h-1.12C451.27,320.26,450.66,320.8,449.26,320.66Zm5.32,18.55a3,3,0,0,1,.18.77.61.61,0,0,0,.31.56,1.44,1.44,0,0,1,.6-.7c.21-.09.19-.37,0-.84A1.3,1.3,0,0,0,454.58,339.21Zm1.33,6.93c0-.14.08-.22.25-.25a4.17,4.17,0,0,1,.52,0,9.76,9.76,0,0,1-.28-1.15,2.36,2.36,0,0,1,0-.84c.05-.26.11-.55.18-.88a6.72,6.72,0,0,0,.1-1.33,1.4,1.4,0,0,1-.77-.28,11,11,0,0,0-.52,2.28A3.73,3.73,0,0,0,455.91,346.14Zm-.28,4q1.26.21,1.05-1.05a.9.9,0,0,1-.45-.25q-.18-.16-.6,0Zm.77-23.38c.42-.14.67-.19.74-.14l.59.42c.19-.89-.16-1.33-1.05-1.33a1.31,1.31,0,0,1-.21.46A.74.74,0,0,0,456.4,326.75Zm1.05,13.58a.84.84,0,0,0-.14.77,1.3,1.3,0,0,0,.42.49,5.6,5.6,0,0,0,.67.42,5.42,5.42,0,0,1,.66.42c-.14,0-.23.08-.28.24a1.17,1.17,0,0,0,0,.53,1.73,1.73,0,0,0,.14.52,1.08,1.08,0,0,0,.17.32.87.87,0,0,0,.74-.25,2.94,2.94,0,0,0,.31-.59,1.18,1.18,0,0,1-.52-.74,4,4,0,0,1-.11-.91,3.57,3.57,0,0,0-.1-.87.94.94,0,0,0-.6-.63c.05.28-.1.37-.45.28A1.45,1.45,0,0,0,457.45,340.33Zm1.12,5.25c.28.05.36-.11.25-.46a1.26,1.26,0,0,1,0-.87H458a1.1,1.1,0,0,1,0,.49,3.1,3.1,0,0,0,0,.49.56.56,0,0,0,.11.35Q458.23,345.72,458.57,345.58Zm.21-9.8h1.12q.14-.76.18-1.08c0-.21-.13-.48-.46-.81a.88.88,0,0,0-1,.66A1.18,1.18,0,0,0,458.78,335.78Zm3.5,15.12a5.52,5.52,0,0,1,.63-1.61,6.44,6.44,0,0,1,1-1.26,1.13,1.13,0,0,0-1.29-.24,1.92,1.92,0,0,0-.88.94,2.24,2.24,0,0,0-.17,1.3A1,1,0,0,0,462.28,350.9Z" transform="translate(-7.13 -11.25)"/><path class="cls-2" d="M502.39,357.13c-2-.05-3.87-.08-5.74-.1s-3.76-.09-5.67-.18a.91.91,0,0,1-.17-.91,1.73,1.73,0,0,0-.11-1.19,1.34,1.34,0,0,0-1,0,2.47,2.47,0,0,0-.77.53c-.23.23-.45.48-.66.73a2.23,2.23,0,0,1-.74.6,11.36,11.36,0,0,1-4.27,1.12,13.92,13.92,0,0,1-4.37-.42,13,13,0,0,1-3.92-1.72,9.66,9.66,0,0,1-2.84-2.69,1.75,1.75,0,0,1-.21-.77,5.48,5.48,0,0,1,0-.7c0-.23,0-.47.07-.7a1.15,1.15,0,0,0-.18-.7c-.14,0-.21.08-.21.25a2,2,0,0,1-.07.52,7.87,7.87,0,0,1-1.92-3.5,10.63,10.63,0,0,1-.25-4.13,14,14,0,0,1,1.19-4.06,9.89,9.89,0,0,1,2.31-3.22,18.59,18.59,0,0,1,3.92-1.33,34.31,34.31,0,0,1,4.41-.7c1.49-.14,3-.21,4.45-.21s2.78.05,3.95.14a2.19,2.19,0,0,0,.63-1.4,5.8,5.8,0,0,0-.14-1.78,10.7,10.7,0,0,0-.56-1.79,9.56,9.56,0,0,0-.7-1.4,22.19,22.19,0,0,0-3-.77,11.07,11.07,0,0,0-3,0,5.29,5.29,0,0,0-1.64.42c-.54.23-1,.48-1.54.73l-1.33.7a1.79,1.79,0,0,1-1.09.25,3.21,3.21,0,0,1-2-.91A10.9,10.9,0,0,1,473.8,326c-.45-.67-.91-1.35-1.4-2a5.68,5.68,0,0,0-1.86-1.65,3.19,3.19,0,0,1,1.16-1.64,8.91,8.91,0,0,1,1.75-1c.63-.28,1.28-.56,2-.84a7.09,7.09,0,0,0,1.78-1c1.35,0,2.93-.08,4.73-.25s3.62-.23,5.49-.21a23.22,23.22,0,0,1,5.43.71,10.13,10.13,0,0,1,4.51,2.41,3.87,3.87,0,0,1,.67.88l.49.91a5.34,5.34,0,0,0,.56.84,2,2,0,0,0,.94.59,32.19,32.19,0,0,1,1.65,7.74q.38,4.15.38,8.54t0,8.78A73.14,73.14,0,0,0,502.39,357.13Zm-32.13-12.46a4.12,4.12,0,0,1,.91-.14,1,1,0,0,1,.7.35,4.14,4.14,0,0,1-.42,1q-.29.5.42.63c0-.19.08-.28.25-.28a.3.3,0,0,0,.31-.21c-.09,0-.14-.07-.14-.21a1.61,1.61,0,0,1,.07-.46c.05-.16.11-.33.18-.52a1.34,1.34,0,0,0,.1-.42,2.49,2.49,0,0,1-1.15-.52,2.58,2.58,0,0,0-1.23-.53Zm4.83,8a1.18,1.18,0,0,0,.18-.39,3.56,3.56,0,0,0,.14-.63.68.68,0,0,0-.11-.49.48.48,0,0,0-.49-.1,1.24,1.24,0,0,0-.28.91A.61.61,0,0,0,475.09,352.65Zm.49,1.54c.33.05.54,0,.63-.11a.42.42,0,0,0,.07-.41,1.4,1.4,0,0,0-.28-.5,1,1,0,0,0-.42-.31Zm2.66-2.1v.77a11.36,11.36,0,0,1,1.54.42,1.22,1.22,0,0,0,1.12-.14v-1.05a1.3,1.3,0,0,1-.8,0l-.7-.17a2.58,2.58,0,0,0-.6-.07A.93.93,0,0,0,478.24,352.09Zm1.89-10.36a5,5,0,0,0-.42,3.71,4,4,0,0,0,1.93,2.2,6.27,6.27,0,0,0,3.18.7,6.58,6.58,0,0,0,3.26-.87,5.36,5.36,0,0,0,2.17-2.45,5.66,5.66,0,0,0,0-4.06,9.93,9.93,0,0,0-2.27-.49,15.69,15.69,0,0,0-2.66,0,16.22,16.22,0,0,0-2.73.46A13.39,13.39,0,0,0,480.13,341.73Zm0-4a1.52,1.52,0,0,0,.25-1.05c0-.47-.3-.65-.81-.56C479.48,337,479.66,337.55,480.13,337.74Zm.77-15.68a1.06,1.06,0,0,1,.46.24c.11.12.31.13.59,0v-.77C481.3,321.48,481,321.64,480.9,322.06Zm2.66,2.17a1,1,0,0,0,.28-.91q-.07-.56-.84-.42a.9.9,0,0,0-.21.39.69.69,0,0,0,0,.45.93.93,0,0,0,.25.38A.52.52,0,0,0,483.56,324.23Zm-.28,31.29a.42.42,0,0,0,.35,0,.88.88,0,0,0,.25-.18.56.56,0,0,1,.28-.13.91.91,0,0,1,.45,0v-.45c0-.17-.09-.27-.28-.32q0,.21-.24.24l-.49.08a.64.64,0,0,0-.39.17C483.12,355.05,483.14,355.24,483.28,355.52Zm3.71-.28a1.91,1.91,0,0,1-.49-.91q-.13-.56-1.05-.42a.87.87,0,0,0,0,.73,1.45,1.45,0,0,0,.45.53,1.31,1.31,0,0,0,.6.25A.44.44,0,0,0,487,355.24Zm2.17-34.79a1,1,0,0,0,.28-.87c0-.45-.19-.67-.56-.67a1.24,1.24,0,0,0-.28.91C488.6,320.24,488.79,320.45,489.16,320.45Zm-.28,16a.79.79,0,0,0,1.16.1,1.62,1.62,0,0,0,.66-1.15A1.43,1.43,0,0,0,488.88,336.41ZM490.7,324a1.06,1.06,0,0,0,.46-.87,1.71,1.71,0,0,0-.35-.88,3,3,0,0,0-.81-.74,5.11,5.11,0,0,0-.84-.45,1.18,1.18,0,0,0-.1.84,2.3,2.3,0,0,0,.38.81,6,6,0,0,0,.63.7C490.3,323.57,490.51,323.76,490.7,324Zm-1.05,29.47c.23.42.77.58,1.61.49a4.83,4.83,0,0,1-.17-1,.52.52,0,0,0-.6-.52q.13.35,0,.42a1,1,0,0,1-.39.07.92.92,0,0,0-.38.07C489.57,353,489.56,353.14,489.65,353.42ZM490.7,330h1.12V329H491a.55.55,0,0,1-.1.52A.72.72,0,0,0,490.7,330Zm1.89-4.48q.14-.71-.21-.84a8.22,8.22,0,0,0-.84-.28,5,5,0,0,0,.21.88Q491.89,325.7,492.59,325.56Zm.56,3.92q-.21,1.54,1.05,1.89a1.24,1.24,0,0,1,.42-.56,6.17,6.17,0,0,1,.6-.39,2.28,2.28,0,0,0,.56-.42,1,1,0,0,0,.24-.73,1.29,1.29,0,0,0-1.43-.31A9.08,9.08,0,0,1,493.15,329.48Zm1.54,20.23c.51.09.77-.08.77-.53s-.26-.61-.77-.52c-.23.23-.28.37-.14.42S494.74,349.34,494.69,349.71Zm.56-8.26c.05-.19.12-.28.21-.28a.47.47,0,0,1,.28.11,3.22,3.22,0,0,0,.35.21.58.58,0,0,0,.49,0c.09-1.12-.35-1.66-1.33-1.61a5.59,5.59,0,0,0-.42.87C494.74,341,494.88,341.22,495.25,341.45ZM495,327.94c.19,0,.29.07.32.21a.33.33,0,0,0,.24.28c0-.14.05-.22.14-.25l.28-.06a.64.64,0,0,0,.25-.15.4.4,0,0,0,.1-.31.44.44,0,0,1-.35-.49c0-.28-.14-.4-.42-.35a.44.44,0,0,1-.35.49Q494.84,327.39,495,327.94Zm.56,11.41a.73.73,0,0,0,.77-.24,2.62,2.62,0,0,1,.56-.6,1.55,1.55,0,0,1-.42-.91.67.67,0,0,0-.63-.63,4.32,4.32,0,0,1-.49,1.15A1,1,0,0,0,495.53,339.35Zm.49-4v1.05a.59.59,0,0,0,.63-.07,2.6,2.6,0,0,0,.35-.42.8.8,0,0,1,.35-.31c.14-.07.33,0,.56.24a.52.52,0,0,1,.11-.52.77.77,0,0,0,.17-.53,1.69,1.69,0,0,1-.49-.21.75.75,0,0,0-.63,0c.14.42.09.66-.14.74A2.4,2.4,0,0,1,496,335.36Zm1.33-6.65a2.28,2.28,0,0,0,1.44-.74,1.17,1.17,0,0,0,.17-1.36,1.83,1.83,0,0,0-1,0,1.13,1.13,0,0,0-.59.49,1.29,1.29,0,0,0-.14.78A2.69,2.69,0,0,0,497.35,328.71Zm0-2.94a1.32,1.32,0,0,1,.49.24.52.52,0,0,0,.56,0V325h-.77A1.4,1.4,0,0,1,497.35,325.77Zm1,21.77a.82.82,0,0,0,.56.84c0-.23.14-.35.42-.35s.4-.16.35-.49c-.42.09-.68.06-.77-.11S498.68,347.31,498.4,347.54Z" transform="translate(-7.13 -11.25)"/><path class="cls-2" d="M539.84,321a38.76,38.76,0,0,0-4.13,4.37,41.21,41.21,0,0,1-4.06,4.38,27.7,27.7,0,0,0-3-1.33,11.93,11.93,0,0,0-2.91-.77,4.88,4.88,0,0,0-2.52,2,9,9,0,0,0-1.19,3,15.83,15.83,0,0,0-.31,3.57c0,1.26,0,2.47,0,3.64q.13,4.34.18,9t.1,8.61a8.11,8.11,0,0,0-3-.45c-1.05,0-2.08.07-3.08.13a22.87,22.87,0,0,1-3,0,5.69,5.69,0,0,1-2.66-.77q.08-4.83,0-9.41t-.18-9.21c-.09-3.08-.2-6.22-.31-9.41s-.23-6.53-.32-10a36.22,36.22,0,0,0,6,.07,47.75,47.75,0,0,1,5.7-.07,3.26,3.26,0,0,1-.07,1.54,1.34,1.34,0,0,0,.07,1.12,2.27,2.27,0,0,0,1-.18,1.68,1.68,0,0,0,.63-.49l.49-.63a2.11,2.11,0,0,1,.59-.52,17.66,17.66,0,0,1,4.31-1.12,17.21,17.21,0,0,1,4.3,0,15.94,15.94,0,0,1,4,1A11.76,11.76,0,0,1,539.84,321Zm-28.42,8a1.4,1.4,0,0,1,.28-.77,2.2,2.2,0,0,1-.45-.28.68.68,0,0,0-.6,0,3,3,0,0,1,.18.73C510.85,328.93,511.05,329,511.42,329Zm-.49,14.63.67-.14.66.14a.64.64,0,0,1,.07-.53,1,1,0,0,1,.32-.27,4.05,4.05,0,0,1,.35-.21,1.06,1.06,0,0,0,.31-.32.44.44,0,0,1-.35-.49c0-.28-.14-.4-.42-.35a.84.84,0,0,1-.17.77,1.87,1.87,0,0,1-.63.32,2,2,0,0,0-.67.31C510.88,343,510.84,343.25,510.93,343.62Zm2.1-3.22a4,4,0,0,1,.21-.84c.09-.23-.07-.4-.49-.49a1,1,0,0,0-.24.81A.48.48,0,0,0,513,340.4Zm.84-8h-1.12c-.09.33-.08.55,0,.66a.47.47,0,0,0,.45.14.79.79,0,0,0,.49-.24A.58.58,0,0,0,513.87,332.42Zm-.28,9.59a.85.85,0,0,0,.7-.25,2,2,0,0,0,.35-.59,1.42,1.42,0,0,0-1.33-.21A1.63,1.63,0,0,0,513.59,342Zm2.1-20.72a3.19,3.19,0,0,1,.7-.14.76.76,0,0,1,.39.1,2.7,2.7,0,0,0,.38.21,1.32,1.32,0,0,0,.63.11c.05-.7-.12-1.14-.49-1.33,0,.33-.09.49-.28.49a1.61,1.61,0,0,1-.59-.11.91.91,0,0,0-.56,0C515.7,320.64,515.64,320.87,515.69,321.29Zm0,17.22c.37.09.62,0,.74-.18a1.46,1.46,0,0,0,.1-.87h-.84Zm1.61,2.66a1.44,1.44,0,0,0,.25-1.16,10.33,10.33,0,0,0-.25-1.22h-1a5.65,5.65,0,0,0-.17,1.68C516.1,341,516.51,341.26,517.3,341.17Zm.77-18.06v-1.05a.62.62,0,0,0-.56.11.52.52,0,0,0,0,.83A.62.62,0,0,0,518.07,323.11Zm.28,14.14a.63.63,0,0,1,.11-.59.77.77,0,0,0,.17-.53.55.55,0,0,1-.52-.1.55.55,0,0,0-.53-.11,2.61,2.61,0,0,0,0,1C517.69,337.18,517.93,337.3,518.35,337.25Zm.77-1.89c.51.09.77-.08.77-.53s-.26-.61-.77-.52Zm0,3.71c.51.09.77-.08.77-.53s-.26-.61-.77-.52Zm8-14.07a.53.53,0,0,0,.63-.11.83.83,0,0,0,.21-.56.7.7,0,0,0-.21-.52.68.68,0,0,0-.63-.14c-.09.42-.14.64-.14.66S527,324.58,527.1,325Z" transform="translate(-7.13 -11.25)"/><path class="cls-2" d="M549.15,319.68a6.41,6.41,0,0,1,.14.63c0,.05,0,.28-.14.7a1,1,0,0,0,.56-.31c.14-.17.28-.32.42-.46a3.23,3.23,0,0,1,.45-.38,1.26,1.26,0,0,1,.74-.18,17.18,17.18,0,0,0,.77,2.87c.33.89.68,1.77,1,2.66a2.7,2.7,0,0,1-1.19.59,3.25,3.25,0,0,1-1.12,0c-.37,0-.76-.12-1.15-.21a5.89,5.89,0,0,0-1.3-.14c-.23-.28-.28-.45-.14-.53s.09-.24-.14-.52q-.35,0-.66,0c-.21,0-.34.08-.39.31a1.08,1.08,0,0,1-.45-.91.66.66,0,0,0-.6-.7,1.66,1.66,0,0,0-.35.94,3.14,3.14,0,0,0,.14.91c.09.31.19.61.28.92a1.34,1.34,0,0,1-.07.94,1.22,1.22,0,0,1-.38.46l-.5.34a1.37,1.37,0,0,0-.38.42,1,1,0,0,0-.07.67,4.31,4.31,0,0,1-2.2-1.43,9.53,9.53,0,0,1-1.33-2.28c-.35-.84-.67-1.71-.95-2.62a10.27,10.27,0,0,0-1.12-2.49,34,34,0,0,0,5.39-.25A16.7,16.7,0,0,1,549.15,319.68ZM542,321.22a.56.56,0,0,0,.28.66,1.06,1.06,0,0,0,.77.08,2.57,2.57,0,0,0,.77-.35.57.57,0,0,0,.28-.6,4.46,4.46,0,0,0-.63.14,2.53,2.53,0,0,0-.35.14.81.81,0,0,1-.38.07A3.14,3.14,0,0,1,542,321.22Zm1,3.71a5.83,5.83,0,0,1,.35-1c.19-.45.16-.72-.07-.81a2,2,0,0,1-.28.49,5.28,5.28,0,0,0-.35.52.68.68,0,0,0-.1.46C542.63,324.72,542.78,324.84,543.06,324.93Zm4.27.84a3.64,3.64,0,0,0,1,.39c.33.06.65.15,1,.24a2.25,2.25,0,0,1,.88.46,2,2,0,0,1,.59,1c.42-.05.83-.08,1.23-.11a.65.65,0,0,0,.66-.66,4.33,4.33,0,0,1,2.56,2.59c.58,1.35,1.13,2.71,1.64,4.06a1.21,1.21,0,0,1-.42.63l-.6.45a4,4,0,0,0-.55.53,1.1,1.1,0,0,0-.25.77,3.16,3.16,0,0,1-1.36-.67,3.33,3.33,0,0,0-1.3-.66,10.29,10.29,0,0,0-1.68,1.5,2.57,2.57,0,0,0-.21,2.49.79.79,0,0,0-.84.28c-.14.23-.47.3-1,.21a41.09,41.09,0,0,0-4.83-8.47,1.23,1.23,0,0,1,.84-.56,6.46,6.46,0,0,1,1-.07,4.94,4.94,0,0,0,1-.1,1.18,1.18,0,0,0,.73-.6,1.86,1.86,0,0,1,1,.52,1.81,1.81,0,0,0,1,.53,1.56,1.56,0,0,0,.25-.17.42.42,0,0,1,.31-.11,1.88,1.88,0,0,0-.45-1.37,6.72,6.72,0,0,0-1-.8,4.44,4.44,0,0,1-.95-.84A1.82,1.82,0,0,1,547.33,325.77Zm7.14,29.47a1.62,1.62,0,0,0,.67.28,1.63,1.63,0,0,1,.66.28.45.45,0,0,1,.28-.56c-.09-.28-.22-.44-.38-.49a1.21,1.21,0,0,0-.6,0l-.7.17a1.29,1.29,0,0,1-.7,0,7.27,7.27,0,0,1,.25-1.5c.11-.4.23-.76.34-1.09a4.39,4.39,0,0,0,.18-2.45,14.66,14.66,0,0,0,1.54-.67c.51-.25.7-.82.56-1.71a4.25,4.25,0,0,0,3.19.28,3.17,3.17,0,0,0,2.13-1.89c.09-.37,0-.57-.17-.6s-.32-.17-.32-.45l-1.5.24a7,7,0,0,0-1.37.35,3.46,3.46,0,0,0-1.08.67,2,2,0,0,0-.6,1.12l-.77-.77a2.93,2.93,0,0,0-2.1,2.38,11.21,11.21,0,0,1-2.38-3.46,21.07,21.07,0,0,0-1.89-3.47,3.33,3.33,0,0,1,1.33-1.86,3,3,0,0,1,2.1-.52,7.62,7.62,0,0,1,.56,1.57,14,14,0,0,0,.49,1.65c1-.09,1.56-.33,1.75-.7a2.26,2.26,0,0,0,.14-1.4,12.45,12.45,0,0,0-.46-1.82,3.84,3.84,0,0,1-.1-2c.75-.19,1.33-.33,1.75-.42a2.9,2.9,0,0,1,1.75.42,5.41,5.41,0,0,0,1-1.82,14.67,14.67,0,0,0,.49-2c.11-.7.24-1.4.38-2.1a6.79,6.79,0,0,1,.77-2,6.31,6.31,0,0,0,1.05.14,2.93,2.93,0,0,0,.67-.07l.7-.17a3.87,3.87,0,0,1,1-.11v-1.09a1.08,1.08,0,0,0-.28-.8q-.84-.21-1.05.18a.81.81,0,0,1-.77.38,14.19,14.19,0,0,1,.07-2.49c.09-.72.21-1.42.35-2.1s.29-1.36.46-2.06a19.5,19.5,0,0,0,.38-2.38,39.61,39.61,0,0,0,5.67.63c2,.09,3.8.14,5.25.14a.75.75,0,0,1,.14.59,2.75,2.75,0,0,1-.17.46,5.46,5.46,0,0,0-.25.53,1.2,1.2,0,0,0,0,.8c-.23.05-.38,0-.45,0a.5.5,0,0,1-.14-.28,1.42,1.42,0,0,0-.11-.31c-.05-.09-.16-.14-.35-.14a.31.31,0,0,0-.24.14.4.4,0,0,1-.32.14,3.08,3.08,0,0,1,.67,1.54,6.69,6.69,0,0,1,0,1.78c-.09.63-.21,1.28-.35,1.93a14.64,14.64,0,0,0-.28,1.89.79.79,0,0,1-.49.24,2.33,2.33,0,0,0-.56.15,1.23,1.23,0,0,0-.46.28q-.16.17,0,.66c-.33.09-.54,0-.63-.14s-.33-.23-.7-.14V330a.46.46,0,0,0,.42.07c.14-.05.3-.09.49-.14a1.52,1.52,0,0,1,.56,0,1.34,1.34,0,0,1,.63.32q-1.54,4.9-3,9.8t-2.84,9.87a.93.93,0,0,1-.7,0,2.57,2.57,0,0,1-.49-.31,1,1,0,0,0-.42-.22.81.81,0,0,0-.56.25.55.55,0,0,0,.56.42c.28,0,.37.23.28.7a1,1,0,0,0-1-.46c-.4.08-.6.39-.6.95a1.07,1.07,0,0,0,1.37,0,2.32,2.32,0,0,0,1-1.05q-.55,2.1-1.26,4.38a24,24,0,0,1-1.82,4.34,15.85,15.85,0,0,1-2.69,3.63,9.21,9.21,0,0,1-3.82,2.28q-.42.14-.42-.21a.31.31,0,0,0-.35-.35c-.23.05-.36.11-.38.18a.33.33,0,0,0,0,.24,1.33,1.33,0,0,1,0,.28.58.58,0,0,1-.21.35,27.94,27.94,0,0,1-4.06.35,16.84,16.84,0,0,0-3.85.49,2,2,0,0,1-.38-1.37,14.55,14.55,0,0,1,.17-1.67c.09-.59.17-1.22.25-1.9a4,4,0,0,0-.32-2c1.77-.65,3.33-1.25,4.66-1.78A5.22,5.22,0,0,0,554.47,355.24Zm-7.42-23.87a1.57,1.57,0,0,0,.28,1.33,1.4,1.4,0,0,0,1.54-1.33c-.37-.19-.63-.22-.77-.11A1.65,1.65,0,0,1,547.05,331.37Zm0-8.54a.35.35,0,0,1,.28.1,1.18,1.18,0,0,0,.18.21l.21.22a.41.41,0,0,0,.38,0,.63.63,0,0,0,.56-.39,2.54,2.54,0,0,0,.28-.87,2,2,0,0,0-.07-.91.66.66,0,0,0-.49-.49l-.87.84A1.61,1.61,0,0,0,547.05,322.83Zm5,19.67a1.18,1.18,0,0,1,.45.21.78.78,0,0,0,.6.07c.37-.84.12-1.28-.77-1.33a.49.49,0,0,1-.14.52A.51.51,0,0,0,552.09,342.5Zm.56,16.45a1.57,1.57,0,0,0,1.33-.28v-1.05C553,357.57,552.56,358,552.65,359ZM555,360c.05-.19.21-.28.49-.28.05-.37-.06-.57-.31-.6a2.58,2.58,0,0,1-.74-.17C554.38,359.6,554.56,360,555,360Zm-.56-15.68a.66.66,0,0,0,.49.49,3.11,3.11,0,0,0,.95.14,4.68,4.68,0,0,0,1.05-.11,2,2,0,0,0,.73-.24v-1.05a4.46,4.46,0,0,0-.73-.14,4,4,0,0,0-1.09,0,3.13,3.13,0,0,0-1,.28A.67.67,0,0,0,554.47,344.32Zm3.43-5.81a1.42,1.42,0,0,1,.67.14,4.08,4.08,0,0,0,.42.21.5.5,0,0,0,.34,0c.12,0,.27-.15.46-.38a1.28,1.28,0,0,0-.63-1,3.51,3.51,0,0,0-1.26-.32Zm.84,4a.55.55,0,0,0,.53-.11.57.57,0,0,0,.17-.42.61.61,0,0,0-.17-.42.57.57,0,0,0-.53-.1c0,.37-.06.57-.17.59S558.51,342.22,558.74,342.5Zm1.82.28a.72.72,0,0,1,.18-.53.55.55,0,0,0,.1-.52q-.35,0-.66,0a.31.31,0,0,0-.39.24.44.44,0,0,1,.35.49C560.14,342.71,560.28,342.83,560.56,342.78Zm-.21-2.17a.55.55,0,0,0,.53-.11.57.57,0,0,0,.17-.42.57.57,0,0,0-.17-.41.55.55,0,0,0-.53-.11Zm1.82-6.65c0-.37,0-.75,0-1.12s-.27-.51-.74-.42a.74.74,0,0,0-.28.49,1.51,1.51,0,0,0,0,.67.64.64,0,0,0,.32.45A.85.85,0,0,0,562.17,334Zm0,15.68a1,1,0,0,1,.25-.46c.11-.11.12-.31,0-.59a1.18,1.18,0,0,1-.45-.21.78.78,0,0,0-.6-.07,2.86,2.86,0,0,0,0,1C561.51,349.63,561.75,349.73,562.17,349.64Zm0-6.65c.09.37.06.61-.1.7s-.23.3-.18.63c.33.19.64.35.94.49a2.12,2.12,0,0,0,1.23.07.58.58,0,0,1,0-.46,1.83,1.83,0,0,1,.24-.31,1,1,0,0,0,.21-.32.89.89,0,0,0,0-.52,1.06,1.06,0,0,0-1-.49C563.14,342.83,562.68,342.9,562.17,343Zm.28,2.66c.09.37.19.7.28,1s.35.4.77.35a1,1,0,0,0,.25-.63c0-.28,0-.58,0-.91A1.42,1.42,0,0,0,562.45,345.65Zm1.61-12.95a.91.91,0,0,0,1-.32,1.72,1.72,0,0,0,.31-1,1.63,1.63,0,0,0-.35-1,.89.89,0,0,0-1-.32,4.16,4.16,0,0,0-.42,1.4A1.57,1.57,0,0,0,564.06,332.7Zm2.38-9.87a2.5,2.5,0,0,0,0-1.16c-.09-.3-.19-.61-.28-.94h-1a1.51,1.51,0,0,0,0,1.4A1.34,1.34,0,0,0,566.44,322.83Zm-1.05,2.94c-.14.56-.08.93.18,1.12a4,4,0,0,0,.87.49.79.79,0,0,0,.42-.63,1.2,1.2,0,0,0-.21-.67,1,1,0,0,0-.56-.41A.81.81,0,0,0,565.39,325.77Zm1.33,8.47c.23-.61.23-1,0-1.19a5.27,5.27,0,0,0-1.12-.63,1.53,1.53,0,0,0-.21,1.37C565.53,334.32,566,334.47,566.72,334.24Zm1-7.7a4.83,4.83,0,0,1,0,1,1.7,1.7,0,0,0,.07.73.87.87,0,0,0,.41.5,2.59,2.59,0,0,0,1.09.17.7.7,0,0,0,.21-.67,3.58,3.58,0,0,0-.21-.7,2,2,0,0,1-.17-.59c0-.19.1-.33.38-.42a.88.88,0,0,1,.35.46,1.5,1.5,0,0,1,.07.45.59.59,0,0,0,.14.38,1.14,1.14,0,0,0,.56.32.59.59,0,0,1,.39-.21l.38,0a1,1,0,0,0,.42,0c.14,0,.26-.15.35-.38s0-.47-.14-.56a1.69,1.69,0,0,0-.49-.21,2.18,2.18,0,0,1-.52-.21c-.17-.09-.23-.28-.18-.56a1.2,1.2,0,0,1,.53.11,3.1,3.1,0,0,1,.45.21,1.69,1.69,0,0,0,.42.13c.14,0,.3-.05.49-.24a3,3,0,0,0-1.89-2.59.32.32,0,0,0-.35.21,3.69,3.69,0,0,1-.17.42,1.37,1.37,0,0,1-.25.35.65.65,0,0,1-.56.07.85.85,0,0,1-.1-1.05,1.71,1.71,0,0,0,.1-1.33h-1.05c.14.61.09,1-.14,1.05a2,2,0,0,1-.84.11,5.79,5.79,0,0,0-1,0c-.34,0-.57.24-.66.66a1.42,1.42,0,0,1,.53.56l.35.74a4.66,4.66,0,0,0,.38.7A.9.9,0,0,0,567.77,326.54Zm-1.89,3.71c.14.23.27.43.39.59a.73.73,0,0,0,.66.25.39.39,0,0,1,.56-.28,4.09,4.09,0,0,0,0-.91,1.11,1.11,0,0,0-.32-.7A1.1,1.1,0,0,0,565.88,330.25Zm2.17,2.66a.7.7,0,0,0,.6-.24,4.27,4.27,0,0,1,.35-.46.81.81,0,0,1,.42-.28,1,1,0,0,1,.73.21c.09-.75,0-1.2-.38-1.36a1.23,1.23,0,0,0-1.09,0,1.75,1.75,0,0,0-.87.87A1.07,1.07,0,0,0,568.05,332.91Zm3.43-9.52c.37-.09.61-.06.7.11s.3.22.63.17a1.39,1.39,0,0,0,.25-1.16.85.85,0,0,0-.6-.55.78.78,0,0,0-.77.21C571.46,322.38,571.39,322.78,571.48,323.39Z" transform="translate(-7.13 -11.25)"/><path class="cls-2" d="M587.79,344c.14,1.49.25,3.28.32,5.35a39.34,39.34,0,0,0,.8,6.62,25.31,25.31,0,0,0-3.18.07c-1.24.09-2.48.14-3.71.14a14,14,0,0,1-3.5-.42,4.68,4.68,0,0,1-2.63-1.68,1.1,1.1,0,0,0,1.05-.49c-.05-.7-.26-1-.63-.77l-1,.49a10.22,10.22,0,0,0,0-1.75c-.05-.61-.07-1.19-.07-1.75a9.28,9.28,0,0,1,.14-1.61,3.14,3.14,0,0,1,.49-1.26.91.91,0,0,0-.39-.56,1,1,0,0,0-.48-.14l-.53,0a.74.74,0,0,1-.49-.32,4.91,4.91,0,0,1,.35-.7,1.67,1.67,0,0,0,.18-.35.42.42,0,0,0-.07-.31A3.84,3.84,0,0,0,574,344q4.13-.21,7.25-.21T587.79,344Zm-11.9,7.7c.14,0,.22.05.24.14s0,.2.08.32a.53.53,0,0,0,.13.27.3.3,0,0,0,.32,0,4.27,4.27,0,0,1,.28-.49,3.22,3.22,0,0,0,.28-.56,1.07,1.07,0,0,0-.8-.28C576.07,351.18,575.89,351.37,575.89,351.74Zm1.82-1.89a.32.32,0,0,1-.35-.21c-.05-.14-.11-.28-.17-.42a1.37,1.37,0,0,0-.25-.35.65.65,0,0,0-.56-.07v1.08c0,.36.19.53.56.53,0-.23,0-.36.14-.38a.36.36,0,0,1,.25,0,.88.88,0,0,0,.24,0C577.66,350.06,577.71,350,577.71,349.85Zm1.61,5.6h.77c.14-.65,0-1-.49-1.05a1.06,1.06,0,0,1-.24.46C579.24,355,579.23,355.17,579.32,355.45Zm.77-2.66c-.05.65.33.93,1.12.84.09-.79-.19-1.17-.84-1.12C580.37,352.74,580.28,352.84,580.09,352.79Zm1.89-5c0-.23.18-.33.39-.28a1.47,1.47,0,0,0,.66,0v-.77a1.19,1.19,0,0,0-.49.14,4.27,4.27,0,0,0-.49.28.74.74,0,0,0-.28.31C581.72,347.55,581.79,347.66,582,347.75Zm.28,5.6a.67.67,0,0,1,.63,0,3.59,3.59,0,0,1,.39.39,1.8,1.8,0,0,0,.31.31c.09.08.26,0,.49-.24a1,1,0,0,0-.8-.88,1.67,1.67,0,0,1-1-.66Zm2.38-6.93q.21-1.26-1-1.05Q583.38,346.63,584.64,346.42Zm1.61,8.75c0-.61-.3-.86-1-.77-.05.56,0,.86.21.91A1.51,1.51,0,0,0,586.25,355.17Z" transform="translate(-7.13 -11.25)"/></g></g><g id="Group_352" data-name="Group 352"><g id="KEY4d_LAB." data-name="KEY4d LAB." class="cls-1"><g class="cls-1"><path class="cls-3" d="M93.75,17.5v1.88L57.62,62.5l36.13,43.12v1.88h-16L45.62,69.25h-25V107.5H7.12v-90h13.5V55.75h25L77.75,17.5Z" transform="translate(-7.13 -11.25)"/><path class="cls-3" d="M189.37,31h-69V55.75h55.5v13.5h-55.5V94h69v13.5h-82.5v-90h82.5Z" transform="translate(-7.13 -11.25)"/><path class="cls-3" d="M294,17.5,252.5,73.75V107.5H239V73.75L197.5,17.5h15.87l32.38,41L278,17.5Z" transform="translate(-7.13 -11.25)"/><path class="cls-3" d="M383.12,71.12v13.5H369.87V107.5h-13.5V84.62h-59.5V71.12l59.5-53.62h13.5V71.12Zm-66.62,0h39.87V38.75Z" transform="translate(-7.13 -11.25)"/><path class="cls-3" d="M464,11.25V107.5H406.5a16.22,16.22,0,0,1-16.25-16.25v-40A16.22,16.22,0,0,1,406.5,35h44V11.25ZM447.75,94a2.77,2.77,0,0,0,2.75-2.75v-40a2.77,2.77,0,0,0-2.75-2.75H406.5a2.77,2.77,0,0,0-2.75,2.75v40A2.77,2.77,0,0,0,406.5,94Z" transform="translate(-7.13 -11.25)"/></g><g class="cls-1"><path class="cls-3" d="M7.12,156.38h13.5V233h76.5v13.5h-90Z" transform="translate(-7.13 -11.25)"/><path class="cls-3" d="M178.37,156.5a16.22,16.22,0,0,1,16.25,16.25V246.5h-13.5V215h-63v31.5h-13.5V172.75a16.22,16.22,0,0,1,16.25-16.25Zm2.75,45V172.75a2.77,2.77,0,0,0-2.75-2.75h-57.5a2.77,2.77,0,0,0-2.75,2.75V201.5Z" transform="translate(-7.13 -11.25)"/><path class="cls-3" d="M299.25,210.12v20.13A16.22,16.22,0,0,1,283,246.5H209.25v-90h70a16.22,16.22,0,0,1,16.25,16.25v18.37a16.44,16.44,0,0,1-1.63,7A16.16,16.16,0,0,1,299.25,210.12ZM225.5,170a2.77,2.77,0,0,0-2.75,2.75v18.37a2.78,2.78,0,0,0,2.75,2.76h53.75a2.78,2.78,0,0,0,2.75-2.76V172.75a2.77,2.77,0,0,0-2.75-2.75Zm60.25,40.12a2.77,2.77,0,0,0-2.75-2.74H225.5a2.77,2.77,0,0,0-2.75,2.74v20.13A2.77,2.77,0,0,0,225.5,233H283a2.77,2.77,0,0,0,2.75-2.75Z" transform="translate(-7.13 -11.25)"/><path class="cls-3" d="M326.12,246.5h-13.5V233h13.5Z" transform="translate(-7.13 -11.25)"/></g></g></g></g></g></g></svg>