<svg xmlns="http://www.w3.org/2000/svg" viewBox="0 0 513 95.25"><defs><style>.cls-1{fill:#383736;}</style></defs><g id="レイヤー_2" data-name="レイヤー 2"><g id="レイヤー_1-2" data-name="レイヤー 1"><path class="cls-1" d="M94.38,87.62a3.3,3.3,0,0,0-1.26-.5c-.66-.16-1,0-1.12.5a2,2,0,0,0,2,.19c.67-.29,1.42-.64,2.25-1.06a14.67,14.67,0,0,1,.25,1.63A15,15,0,0,1,96.25,90a24.21,24.21,0,0,1-6.25.38c-1.75-.17-3.46-.38-5.12-.63s-3.4-.44-5.19-.56a25.54,25.54,0,0,0-6.19.43,71.77,71.77,0,0,0-1.38-12q-1.25-6.5-2.37-12.74a5.14,5.14,0,0,1-.06-2.13c.12-.67.25-1.29.37-1.87a4.41,4.41,0,0,0,.06-1.69,2.31,2.31,0,0,0-.87-1.44,2.18,2.18,0,0,0,1.31-2.69,7.83,7.83,0,0,0-1.31-2.94,1.81,1.81,0,0,0,1.19-1.56,2.5,2.5,0,0,1,1.18-1.81,3.11,3.11,0,0,0-1.81-.81,1.25,1.25,0,0,0-1.56.81q-.75.12-.75-.06a1.47,1.47,0,0,1,.12-.5,2.91,2.91,0,0,0,.19-.69c0-.25-.1-.46-.43-.62a36.41,36.41,0,0,0-2.13,4.5q-1,2.49-2.06,5.24T60.94,62a35,35,0,0,1-2.69,4.88c-.42.08-.67,0-.75-.19a3.41,3.41,0,0,1-.19-.75,2.6,2.6,0,0,0-.25-.82.52.52,0,0,0-.68-.24,5,5,0,0,0,.5,2.43,4.93,4.93,0,0,1,.5,2.31,62.2,62.2,0,0,0-8.07.26,21.89,21.89,0,0,1-6.69-.26,34.61,34.61,0,0,0-3.12-5.31c-1.17-1.62-2.38-3.25-3.62-4.87a60,60,0,0,1-3.5-5.06,21.59,21.59,0,0,1-2.5-6H27.5a4.16,4.16,0,0,0-1.75,3.18,10.49,10.49,0,0,1-1.13,3.82c.42.33.71.48.88.43a1.06,1.06,0,0,0,.5-.31,1.74,1.74,0,0,1,.56-.38c.21-.08.52,0,.94.26a5.29,5.29,0,0,1,.56,2.87,7.74,7.74,0,0,1-.62,2.06l-.94,2a6.07,6.07,0,0,0-.5,2.57c.42.41.81.54,1.19.37s.77,0,1.19.63c0,2.24-.05,4.43-.13,6.56s-.15,4.25-.19,6.37S28,83.15,28,85.44s.12,4.77.38,7.44a17.67,17.67,0,0,1-2.94.5,13.56,13.56,0,0,1-2.94-.07,9.78,9.78,0,0,1-2.44-.62A3.35,3.35,0,0,1,18.5,91.5c-.25-.08-.4,0-.44.19a3.62,3.62,0,0,0-.06.69.76.76,0,0,1-.19.56q-.18.18-.81-.06c.08-.67,0-1-.31-1.13a3,3,0,0,0-1.07-.06,3.55,3.55,0,0,1-1.18-.07c-.38-.08-.61-.45-.69-1.12A2.27,2.27,0,0,1,12,92.62l-3,.76a20.5,20.5,0,0,1-.88-5.57c-.08-2.2-.1-4.56-.06-7.06s.08-5,.13-7.63,0-5-.19-7.24l3.38,1.81a7.47,7.47,0,0,1,2.37,1.93c.5-.08.77-.22.81-.43a1.67,1.67,0,0,0-.06-.75c-.08-.29-.19-.61-.31-.94a1.47,1.47,0,0,1,.06-1.12,1.64,1.64,0,0,1,1.25.74,6.66,6.66,0,0,1,.62,1.38,7.25,7.25,0,0,0,.63,1.38,1.64,1.64,0,0,0,1.25.74,1.32,1.32,0,0,0,1.56-1.12c.21-.83.15-1.42-.18-1.75a15.56,15.56,0,0,0-2.13-.87,10.9,10.9,0,0,1-2.13-1,1,1,0,0,1,.76-.82,4.43,4.43,0,0,1,1.24-.18h1.26a1.38,1.38,0,0,0,1-.38c.08-.75-.09-1.1-.5-1.06a10.41,10.41,0,0,0-1.44.25,3.16,3.16,0,0,1-1.5,0c-.46-.13-.73-.65-.82-1.57a4.67,4.67,0,0,1-1.87.5c-.5,0-1,0-1.5-.06s-1-.1-1.63-.18A6.12,6.12,0,0,0,8,62.5a30.33,30.33,0,0,0-.38-6.12q-.5-3.14-.87-6.07a32.75,32.75,0,0,1-.25-5.62A10.17,10.17,0,0,1,8,39.75c.08-.17,0-.29-.19-.37a1.9,1.9,0,0,0-.75-.13,1.9,1.9,0,0,0-.75.13c-.21.08-.27.2-.19.37-.41-1.42-.85-2.94-1.31-4.56a28.11,28.11,0,0,1-.93-4.81,17.71,17.71,0,0,1,.06-4.5,6.65,6.65,0,0,1,1.68-3.63,22.86,22.86,0,0,1-4-9.13Q.75,8.38,0,2.75a30.3,30.3,0,0,0,5.56.56c2.13,0,4.32,0,6.56-.06s4.4-.19,6.44-.31,3.77-.19,5.19-.19a9.62,9.62,0,0,0,.81,2.75A21.86,21.86,0,0,1,25.62,8a3.47,3.47,0,0,0-2.37.5,4.26,4.26,0,0,0,.37,1.94,6.33,6.33,0,0,0,1,1.31,1.29,1.29,0,0,1-.93.81,7.42,7.42,0,0,1-1.38.25,5.22,5.22,0,0,0-1.31.31,1,1,0,0,0-.62,1,1.89,1.89,0,0,0,1.43.44,5.72,5.72,0,0,0,1.63-.37L25,13.56a4,4,0,0,1,1.5-.31V9.38q3.75,4.62,7.06,9.56a43.73,43.73,0,0,1,5.32,11.31c0,.25.08.36.24.31l.5-.12a2.49,2.49,0,0,1,.57-.06.7.7,0,0,1,.56.37,22.34,22.34,0,0,0,2.75,6.31,40.85,40.85,0,0,0,3.88,5.06,11.77,11.77,0,0,0,2.12-2.93c.58-1.13,1.14-2.31,1.69-3.57l1.62-3.74A13.68,13.68,0,0,1,55,28.38a.73.73,0,0,1,.75.12,1.79,1.79,0,0,1,.37.5,1.31,1.31,0,0,0,.38.44c.17.12.46.1.88-.06A1.84,1.84,0,0,0,58,28.12a2.3,2.3,0,0,0-.38-1.24c-.24-.42-.5-.82-.74-1.19a3.19,3.19,0,0,1-.5-1.07q3.36-6.75,6.12-12.31c1.83-3.7,3.75-7.69,5.75-11.93A74.14,74.14,0,0,1,79,.38,55.71,55.71,0,0,0,90.12,0,121.6,121.6,0,0,0,90,12.31q.25,6.57.62,13.25c.26,4.46.44,8.88.57,13.25s.06,8.48-.19,12.31a4.46,4.46,0,0,1-1.56,1,1.91,1.91,0,0,0-1.19,1.38q.5.75.81.81a.88.88,0,0,0,.69-.19,4.55,4.55,0,0,0,.75-.62,1.35,1.35,0,0,1,1-.38,12.53,12.53,0,0,0-.62,4.69,35.37,35.37,0,0,0,.62,5q.5,2.56,1.19,5.13c.45,1.71.85,3.39,1.19,5.06a34.87,34.87,0,0,1-4.82,1.56l-4.62,1.13c-1.55.37-3.06.77-4.56,1.19a25.26,25.26,0,0,0-4.5,1.74,22.22,22.22,0,0,0,8.74-1q4.38-1.37,9.76-2.74A48.73,48.73,0,0,1,95.06,80c.29,1.67.69,3.58,1.19,5.75a.63.63,0,0,1-.56.44l-.81.12a1.21,1.21,0,0,0-.63.31C94.08,86.79,94.12,87.12,94.38,87.62ZM7.12,18.88a6.54,6.54,0,0,0,1.5-.38,1.12,1.12,0,0,1,1.26.38,2.37,2.37,0,0,1,.68-1,1.52,1.52,0,0,0,.32-1.38,2.9,2.9,0,0,0-2.32.81C8.1,17.86,7.62,18.38,7.12,18.88Zm3.76,28.5A3.45,3.45,0,0,1,11.19,46a.37.37,0,0,1,.5-.12,6.73,6.73,0,0,0,.75.24.9.9,0,0,0,.81-.12c-.17-.92-.11-1.52.19-1.81s.23-.65-.19-1.07c-.42-.08-.69,0-.81.26a4.56,4.56,0,0,0-.32.81,2.87,2.87,0,0,1-.31.75q-.18.31-.93.06a1.62,1.62,0,0,0-.5-.81,2.21,2.21,0,0,0-.88-.44l-1-.25a2.79,2.79,0,0,1-.88-.38,2.88,2.88,0,0,0,1,2.76Zm-.5,17.5a6,6,0,0,0-.82.06,6.36,6.36,0,0,1-.87.06A1.09,1.09,0,0,1,8,64.81q-.25-.18,0-.81a1.85,1.85,0,0,1,1.62-.5C10.29,63.58,10.54,64,10.38,64.88ZM8,27.88c-.17,1.24.17,1.91,1,2A1.17,1.17,0,0,1,9.62,29a11,11,0,0,0,1-.56,4.8,4.8,0,0,0,.88-.69,1.73,1.73,0,0,0,.38-1.25.72.72,0,0,1-.69-.31c-.13-.21-.4-.27-.81-.19a1.12,1.12,0,0,1-.13.94,1.34,1.34,0,0,1-.63.44,4.57,4.57,0,0,1-.87.18A1.3,1.3,0,0,0,8,27.88Zm.5-7c.75,0,1.21.12,1.38.37a3,3,0,0,1,.37.81,2.19,2.19,0,0,0,.44.82c.2.24.73.37,1.56.37a2.36,2.36,0,0,0,.63-1.75,1.94,1.94,0,0,0-.63-1.62,2.43,2.43,0,0,1-1.19.18l-1-.12a1.81,1.81,0,0,0-.81.06C9,20.08,8.75,20.38,8.5,20.88Zm1.38,17.5A1.73,1.73,0,0,1,11,37.06c.58-.2.88-.73.88-1.56a2,2,0,0,0-1.38.25,3.43,3.43,0,0,0-1,.87,1.44,1.44,0,0,0-.31,1.07A.77.77,0,0,0,9.88,38.38Zm1.5,12.74a2.56,2.56,0,0,1,.24-1.68c.26-.38-.16-.61-1.24-.69a1.7,1.7,0,0,0-.44,1.63C10.06,51,10.54,51.29,11.38,51.12Zm0,23.26a1.83,1.83,0,0,0,.43-1.13c0-.5.07-1.08.07-1.75h-1.5v1.94C10.38,74.06,10.71,74.38,11.38,74.38ZM14.62,36a4.84,4.84,0,0,0,.32-2.06c0-.71-.61-1-1.69-.82a9.46,9.46,0,0,0,.19,1.94A1.07,1.07,0,0,0,14.62,36Zm-.87-8.12c.58.58,1.08.77,1.5.56a3.28,3.28,0,0,0,1.19-1.19c.37-.58.77-1.19,1.18-1.81A3.81,3.81,0,0,1,19,24.12a1.94,1.94,0,0,1-1.44-.74,1.62,1.62,0,0,0-1.44-.63,16.88,16.88,0,0,1-1.37,2.5A6.71,6.71,0,0,0,13.75,27.88ZM14.25,90a1.93,1.93,0,0,1,.94.75c.2.33.69.42,1.43.25a1,1,0,0,1,.82-1.25A1.68,1.68,0,0,1,19,90a1.45,1.45,0,0,0-.94-1.19,2.92,2.92,0,0,0-1.44,0,5.7,5.7,0,0,0-1.43.57A4,4,0,0,0,14.25,90Zm3.25-2.38a5,5,0,0,0,.75-2.24c.08-.84-.46-1.34-1.63-1.5a2.42,2.42,0,0,0-.43,2.24C16.39,87,16.83,87.54,17.5,87.62ZM18,75.38c.17-.34.35-.5.56-.5a1.61,1.61,0,0,1,.69.18l.75.38a1,1,0,0,0,.88-.06.76.76,0,0,1,0-.63,1.52,1.52,0,0,1,.31-.44,1,1,0,0,0,.25-.5,2,2,0,0,0-.06-.81,2.57,2.57,0,0,0-1.82-.94,2.65,2.65,0,0,0-1.75.44,1.66,1.66,0,0,0-.75,1.25A2.12,2.12,0,0,0,18,75.38ZM18,36.5a4,4,0,0,0,1.44.94,4.13,4.13,0,0,1,1.44.94,3.6,3.6,0,0,0-.38,2.43,2.67,2.67,0,0,0,1.25,1.81,11.61,11.61,0,0,1,1.5-.74,4.66,4.66,0,0,1,1.87.24c.17-.58.32-1.14.44-1.68a6.18,6.18,0,0,0,.06-2.06,6.75,6.75,0,0,0-1.43-.32c-.46,0-.61-.39-.44-1.06q-.63-.12-.81.12a2.32,2.32,0,0,0-.32.63,1.53,1.53,0,0,1-.37.63q-.26.24-.87,0a4.12,4.12,0,0,1,.18-1.13c.13-.42.25-.81.38-1.19a2.07,2.07,0,0,0,.12-.94c0-.24-.27-.41-.68-.5a.69.69,0,0,1-.5.76,8.6,8.6,0,0,1-1.19.18,9.61,9.61,0,0,0-1.19.19A.67.67,0,0,0,18,36.5Zm1.88-24.75a1.62,1.62,0,0,0,.43-1,3.33,3.33,0,0,0-.12-1.25,2.52,2.52,0,0,0-.63-1.06A1.44,1.44,0,0,0,18.5,8a4.28,4.28,0,0,1,.44,1.31,9.65,9.65,0,0,1,.06,1,2.55,2.55,0,0,0,.12.81A1.19,1.19,0,0,0,19.88,11.75Zm1.5,76.37a4.56,4.56,0,0,1-.88-.81q-.37-.44-1.5-.06v1.87a2,2,0,0,1,.88-.24h.62a1.2,1.2,0,0,0,.44-.07C21.06,88.77,21.21,88.54,21.38,88.12Zm-1.5-28A1.6,1.6,0,0,1,21,59.88a1.81,1.81,0,0,1,.69.43,5,5,0,0,0,.75.63,1.76,1.76,0,0,0,1.31.18c-.25-.66-.23-1.08.06-1.24s.4-.55.31-1.13c-.58-.42-1.14-.79-1.68-1.13a4,4,0,0,0-2.56-.24c-.26.74-.32,1.18-.19,1.31A2.9,2.9,0,0,1,19.88,60.12Zm3.37-13.74c-.58.16-1,.08-1.13-.26s-.58-.37-1.24-.12A.85.85,0,0,0,21,47a1.43,1.43,0,0,0,.81.44,1.58,1.58,0,0,0,.94-.19A.9.9,0,0,0,23.25,46.38ZM20.88,63a.39.39,0,0,1,.43.31c0,.21.08.4.13.57a.86.86,0,0,0,.25.43.73.73,0,0,0,.56.19c.08-.5.58-.67,1.5-.5a1.49,1.49,0,0,0-.13-1.38,1.56,1.56,0,0,0-1-.62,2,2,0,0,0-1.18.12A.88.88,0,0,0,20.88,63Zm.5,8.12a2.5,2.5,0,0,0,1.06-.87,3.64,3.64,0,0,0,.44-1.19q.12-.68.24-1.5a5.12,5.12,0,0,1,.63-1.68,6.16,6.16,0,0,1-1-.5,4.87,4.87,0,0,0-1-.5,2.82,2.82,0,0,0-.56,2.68A8.74,8.74,0,0,1,21.38,71.12Zm2.37-36.5c.67.09,1.06-.12,1.19-.62a3.57,3.57,0,0,1,.68-1.38,1,1,0,0,1-.93-.18,1,1,0,0,0-.94-.19Zm0,14.63a1.93,1.93,0,0,0,1.19-.63,9.56,9.56,0,0,0,.81-1.06,5.53,5.53,0,0,1,.87-1A2.64,2.64,0,0,1,28,46a1.85,1.85,0,0,0-.12-1.56,1.93,1.93,0,0,1-.38-1.32,2.55,2.55,0,0,0-2.12.69,3.41,3.41,0,0,0-.63,1.63c-.08.62-.15,1.29-.19,2A2.69,2.69,0,0,1,23.75,49.25ZM29.88,44a3,3,0,0,0,.5-1.12.94.94,0,0,1,.87-.76,2,2,0,0,0,.37,1.32c.26.29.3.81.13,1.56h2.37a12.5,12.5,0,0,0,.19-2.81,3.32,3.32,0,0,0-1.19-2.44,1.69,1.69,0,0,0-1.12.13,3.41,3.41,0,0,0-.88.62,3.43,3.43,0,0,1-.68.56c-.21.13-.4,0-.56-.31.16-.58.31-1.14.43-1.69A6.42,6.42,0,0,0,30.38,37a1.81,1.81,0,0,0-1.69,1.06A6.25,6.25,0,0,0,28,40.5a4.62,4.62,0,0,0,.38,2.44A1.59,1.59,0,0,0,29.88,44Zm-.5,2.88c.41.41.76.54,1.06.37a3.69,3.69,0,0,1,1.31-.37,1.26,1.26,0,0,0-.37-1.26,8.51,8.51,0,0,0-1-.62q0,.75-.63.81C29.33,45.86,29.21,46.21,29.38,46.88Zm5.24-6.63a2.15,2.15,0,0,1,1.76-.37,7.82,7.82,0,0,0,2,.37V37.38a2.77,2.77,0,0,1-1.76-.26,3,3,0,0,0-2-.12,3.91,3.91,0,0,0,.5-2.38h-2a5.47,5.47,0,0,0,.44,1.76,10.08,10.08,0,0,1,.5,1.12c.13.33.25.69.38,1.06A6,6,0,0,1,34.62,40.25ZM33.12,53.5a2.72,2.72,0,0,1,1.88.38c.5.33.83.08,1-.76a.82.82,0,0,0-1-.5c-.5.09-.79-.08-.88-.5A9.47,9.47,0,0,0,34.06,51c0-.33-.35-.42-.94-.25a2.73,2.73,0,0,0,.13.94l.19.5a1,1,0,0,1,0,.5A3.69,3.69,0,0,1,33.12,53.5Zm1.5-20.38c.76.17,1.19,0,1.32-.56A5.38,5.38,0,0,0,36,30.75H34.12c-.16.67-.1,1.08.19,1.25S34.71,32.54,34.62,33.12Zm3.26,2.38c1.41.17,2.08-.29,2-1.38a.72.72,0,0,1-.69-.31c-.13-.2-.4-.27-.81-.19a1,1,0,0,1-.19.94A1.27,1.27,0,0,0,37.88,35.5Zm.5,25.12a1.59,1.59,0,0,1,1.18-.24,5.14,5.14,0,0,0,1.06.12.91.91,0,0,0,.76-.31,3.3,3.3,0,0,0,.37-1.44,3.33,3.33,0,0,0-2.19.13,1.8,1.8,0,0,1-1.68-.13A2.6,2.6,0,0,0,38.38,60.62Zm1-13.74a2.7,2.7,0,0,0,1.18-2.07,1.33,1.33,0,0,0-1.18-1.69,1.19,1.19,0,0,0-.94.63,2.63,2.63,0,0,0-.5,1.31,2.45,2.45,0,0,0,.18,1.25Q38.38,46.88,39.38,46.88Zm-.5,4.24a1,1,0,0,0,1.18-.43,2.12,2.12,0,0,0,.25-1.25A4.54,4.54,0,0,0,40,48.12a1.19,1.19,0,0,0-.62-.74,3,3,0,0,0-.26,1.12,4.69,4.69,0,0,0,.07.88,5,5,0,0,1,.06.81A1.63,1.63,0,0,1,38.88,51.12Zm6.12,9h1.5c.17-1.33-.33-1.95-1.5-1.87Zm1.88,0a.83.83,0,0,0,1.24.13,2.18,2.18,0,0,0,.76-1.5C47.46,58.58,46.79,59,46.88,60.12Zm2.87,1a19,19,0,0,1,3.56-.37,5.63,5.63,0,0,1,3.07.87c.16-.41.33-.58.5-.5v-1a7.72,7.72,0,0,0-1.76-.31c-.66,0-1.35-.1-2.06-.19a13.39,13.39,0,0,1-2-.37,2,2,0,0,1-1.31-1Zm3.37-21.37c-1-.58-1.6-.71-1.81-.37a1.05,1.05,0,0,0-.06,1.06,1.15,1.15,0,0,0,.87.68C52.54,41.21,52.88,40.75,53.12,39.75Zm-1.5,25.13c.09-.42.26-.61.5-.57a2.22,2.22,0,0,1,.76.31,2.89,2.89,0,0,0,.74.38c.26.08.38-.08.38-.5-.42-.17-.54-.5-.38-1a3.47,3.47,0,0,1-2.37-.5,11.28,11.28,0,0,1-.06,1.19A.56.56,0,0,0,51.62,64.88Zm3.88-17a2,2,0,0,0,.5-1.44c0-.63-.33-.94-1-.94a1.87,1.87,0,0,0-.5,1.38C54.5,47.46,54.83,47.79,55.5,47.88Zm0-9.5a1,1,0,0,0,.94-.19,1.25,1.25,0,0,1,.94-.31,2.85,2.85,0,0,0-.07-1.38,10.75,10.75,0,0,0-.43-1H55.5c-.5.42-.65.86-.44,1.31A5.55,5.55,0,0,1,55.5,38.38ZM78.25,25.5a2.84,2.84,0,0,0-3.19-1.56,36.06,36.06,0,0,1-4.44.68,3.26,3.26,0,0,1-1.5-1.87,4.5,4.5,0,0,1,.13-1.81c.17-.63.33-1.29.5-2a3.45,3.45,0,0,0-.5-2.44,2.5,2.5,0,0,0-2.25.94,2.53,2.53,0,0,1-2,1.06,1.66,1.66,0,0,0-.06,1.19,3,3,0,0,0,.44.75,4.34,4.34,0,0,1,.43.68,1.9,1.9,0,0,1,.07,1.13c-.67.92-1.38,1.79-2.13,2.63a32,32,0,0,0-2.13,2.62,1.46,1.46,0,0,0-1.12-.56,8.93,8.93,0,0,0-1.75.06.92.92,0,0,0-.37,1c.08.42.16.79.24,1.12a1.46,1.46,0,0,1,0,.88c-.08.25-.5.33-1.24.25a4.48,4.48,0,0,1,.5,2v1.94a7.3,7.3,0,0,0,.18,1.69A1.7,1.7,0,0,0,59.25,37a6.84,6.84,0,0,0,1.44-3.5c.12-1.25.27-2.46.43-3.62a.68.68,0,0,1,.76.5c.08.33.16.68.24,1.06a5.88,5.88,0,0,0,.32,1c.12.29.48.35,1.06.18V29.38c.75-.09,1.35-.17,1.81-.26a6.2,6.2,0,0,0,1.19-.31,5.19,5.19,0,0,0,1-.5c.33-.2.75-.48,1.25-.81-.17.67,0,1,.44,1a1,1,0,0,1,.93.38,3.53,3.53,0,0,1,2.38-.82l2.44.13A4,4,0,0,0,77,27.81C77.58,27.52,78,26.75,78.25,25.5ZM59.25,63a.55.55,0,0,1,.63-.62c.41,0,.54-.26.37-.76a2.06,2.06,0,0,1-1.75-.18,9,9,0,0,0-1.12-.82v1a.44.44,0,0,0,.5.5c0-.41.12-.58.37-.5A5.28,5.28,0,0,0,59.25,63Zm-.5-14.25c-.08-.58,0-1,.31-1.13s.36-.58.19-1.24H57.88a5.22,5.22,0,0,0,0,1.68A.78.78,0,0,0,58.75,48.75Zm6.63-.37c.16-1.42-.3-2.09-1.38-2C63.83,47.79,64.29,48.46,65.38,48.38Zm4.37-24.26c.08.67-.06,1.05-.44,1.13a.68.68,0,0,0-.56.75H66.12c-.83,0-1.2-.46-1.12-1.38a.91.91,0,0,0,1.12.19c.34-.2.69-.43,1.07-.69a5.33,5.33,0,0,1,1.12-.56C68.69,23.44,69.17,23.62,69.75,24.12Zm-2,11.38V33.19c0-.79-.46-1.11-1.37-.94a1.18,1.18,0,0,0-.88.87,2.69,2.69,0,0,0,.06,1.26,1.8,1.8,0,0,0,.82,1A1.59,1.59,0,0,0,67.75,35.5Zm.5,4.75c.5.17.85.11,1.06-.19A2.21,2.21,0,0,0,69.69,39a2,2,0,0,0-.19-1.12.8.8,0,0,0-.75-.5,2.31,2.31,0,0,0-.44,1.24C68.27,39.12,68.25,39.67,68.25,40.25ZM73.5,5.12a1.93,1.93,0,0,1,.38-1.31A1.6,1.6,0,0,0,74,2.38a2,2,0,0,0-1-.44,2.44,2.44,0,0,0-.94.06,3.51,3.51,0,0,1-.94.12,2.33,2.33,0,0,1-1-.24Q69.63,5.63,73.5,5.12ZM70.12,9a1.21,1.21,0,0,1,1.07.19,1,1,0,0,0,.93.19,2.46,2.46,0,0,1,.07-.57c0-.2.14-.31.31-.31a1.66,1.66,0,0,0-1.88-1.88A3.57,3.57,0,0,0,70.12,9Zm1.5,12.75c1.09.08,1.55-.54,1.38-1.87H71.62ZM73,47.88c.25-.42.46-.59.62-.5a2.36,2.36,0,0,1,.57.43,3.88,3.88,0,0,0,.69.57,1.08,1.08,0,0,0,1,0q.75-.75.24-1.26a1.68,1.68,0,0,1-.24-1.62,3.2,3.2,0,0,0-2.32.81C72.77,46.94,72.58,47.46,73,47.88ZM73,54c-.17.92,0,1.48.5,1.69a9.87,9.87,0,0,1,1.38.69,2,2,0,0,0,.5-1.44,2,2,0,0,0-.5-1.44A2.68,2.68,0,0,0,73,54Zm3.75-12.75a2,2,0,0,1,.37-1.31,1.78,1.78,0,0,0,.13-1.56,1.13,1.13,0,0,0-1.25.24,2.2,2.2,0,0,0-.62,1.13,1.37,1.37,0,0,0,.24,1.13A1.1,1.1,0,0,0,76.75,41.25Zm-1.37,27.5a5.42,5.42,0,0,0,.74,1.87c.34.5,1,.67,2.13.5.33-1.58.14-2.56-.56-2.93A1.94,1.94,0,0,0,75.38,68.75Zm1.37-17.13a5.38,5.38,0,0,0,.94,3.13,5.89,5.89,0,0,0,1.87,1.56,21.36,21.36,0,0,0,2.38,1.07,9.65,9.65,0,0,1,2.44,1.37,2.13,2.13,0,0,0,1.56-1.56,2.87,2.87,0,0,1,1.31-1.81,5.88,5.88,0,0,1-2.63-1.13c-.74-.58-1.52-1.14-2.31-1.69a8.28,8.28,0,0,0-2.5-1.18A5,5,0,0,0,76.75,51.62Zm1,8.13c1.08-1.08.92-1.87-.5-2.37a1.53,1.53,0,0,0-.5,1.31A1,1,0,0,0,77.75,59.75Zm-.5-9.5h1.87a4.24,4.24,0,0,1-.18-1.56c0-.46.06-.88.06-1.25a2.27,2.27,0,0,0-.25-1.06,2.1,2.1,0,0,0-1-.88c-.17.67-.42,1.46-.75,2.38A2.38,2.38,0,0,0,77.25,50.25ZM80.12,26a2.76,2.76,0,0,0-.06-1.38,9.54,9.54,0,0,0-.44-1H78.25c.17.67.33,1.26.5,1.76S79.38,26.08,80.12,26Zm-1-2.75a2.12,2.12,0,0,1,1.69.37,3.37,3.37,0,0,1,.88,1.32,7.86,7.86,0,0,1,.43,1.75,9.58,9.58,0,0,0,.38,1.69,2.41,2.41,0,0,1,1.31.12,13.76,13.76,0,0,0,1.5.38,3.28,3.28,0,0,0,1.25,0c.38-.09.61-.42.69-1,.08-.42,0-.69-.25-.82a3.06,3.06,0,0,0-.81-.25,5.31,5.31,0,0,1-.88-.19.57.57,0,0,1-.43-.62,10.33,10.33,0,0,0,1.18-1.12,2.31,2.31,0,0,0,.19-2.13c-1.08-.42-2.15-.85-3.19-1.31a15.74,15.74,0,0,0-3.44-1.06c.17.66.09,1.12-.24,1.37S79,22.5,79.12,23.25Zm1.5,47.87c0-.33.15-.5.44-.5H82a3.26,3.26,0,0,0-.5-2.37H80.12a2.35,2.35,0,0,0-.5,1.69C79.62,70.73,80,71.12,80.62,71.12Zm-.5-55.5a4.78,4.78,0,0,0,1.82.82,1.45,1.45,0,0,0,1.56-.82,1.78,1.78,0,0,1-.5-.87,9.57,9.57,0,0,0-.31-1,2.48,2.48,0,0,0-.5-.81,1.21,1.21,0,0,0-1.07-.19A3.06,3.06,0,0,1,80.38,14,1.68,1.68,0,0,0,80.12,15.62Zm1.38,45.5c.17-1.33-.29-1.95-1.38-1.87C80,60.58,80.42,61.21,81.5,61.12Zm-.88-12.74a2,2,0,0,0,2.38-2q-.75,0-.81-.57c0-.37-.4-.48-1.07-.31a7.65,7.65,0,0,1-.68,1.5A1,1,0,0,0,80.62,48.38Zm.5-42.26a2.78,2.78,0,0,1,1.5-.24,2.6,2.6,0,0,1,.88.37,4.64,4.64,0,0,1,.75.63,3,3,0,0,0,1.13.62c.58-.75.81-1.33.68-1.75a1.29,1.29,0,0,0-.87-.87,16.24,16.24,0,0,0-1.63-.5A6.33,6.33,0,0,1,82,3.75a1.31,1.31,0,0,1-.69.94C80.94,4.9,80.88,5.38,81.12,6.12ZM84.88,64c-.26-.58-.49-1.17-.69-1.75a15.36,15.36,0,0,0-.69-1.63,1.38,1.38,0,0,0-.25,2A4.07,4.07,0,0,0,84.88,64Zm-1-32.25a1.17,1.17,0,0,1,.81.44,1,1,0,0,0,.69.43.74.74,0,0,1,0-.62,1.52,1.52,0,0,1,.31-.44,1,1,0,0,0,.25-.5,2,2,0,0,0-.06-.81.79.79,0,0,1-.69-.25q-.19-.26-.81-.12a1,1,0,0,1-.19.93A1.27,1.27,0,0,0,83.88,31.75Zm0,16.63c.41.16.74.31,1,.43a10.92,10.92,0,0,0,1,.44c-.67-.92-.69-1.52-.07-1.81a1.7,1.7,0,0,1,1.94.44,2,2,0,0,1,.19-1.76,2.09,2.09,0,0,0,.31-1.62H84.38a3,3,0,0,1-.13,2A3.74,3.74,0,0,0,83.88,48.38Zm.5,4.74a5.13,5.13,0,0,1,1.68-.37,5.24,5.24,0,0,1,1.69.37,1.61,1.61,0,0,0,.5-1.18,1.63,1.63,0,0,0-.5-1.19,4.61,4.61,0,0,0-1.87.63c-.34.24-.84,0-1.5-.63a1.59,1.59,0,0,0-.5,1.19A1.57,1.57,0,0,0,84.38,53.12Zm4.74-33.74a1.74,1.74,0,0,0,.38-1.32A2.38,2.38,0,0,0,88.94,17a3.69,3.69,0,0,0-1.06-.81l-1.13-.57a2.48,2.48,0,0,0,1.06,2.07A2.89,2.89,0,0,1,89.12,19.38Zm.5,41.24a2,2,0,0,0-.37-1.31,1.84,1.84,0,0,1-.13-1.56H87.25Q86.88,60.75,89.62,60.62Zm-.5-29.37a1.81,1.81,0,0,1-.06-.81,6.4,6.4,0,0,0,.06-.88.87.87,0,0,0-.18-.62q-.19-.2-.69-.06a1.83,1.83,0,0,0-.5,1.62C87.83,31.17,88.29,31.42,89.12,31.25Zm.5,19.5c0-.67,0-1.23-.06-1.69s-.35-.68-.94-.68c-.24.16-.31.6-.18,1.31A1.11,1.11,0,0,0,89.62,50.75Z"/><path class="cls-1" d="M122.75,21.88c.17.58.35.91.56,1a1.32,1.32,0,0,0,.69.06,2.76,2.76,0,0,0,.75-.25.78.78,0,0,1,.87.19,12.3,12.3,0,0,0-.31,3c0,.83.08,1.62.13,2.37s.06,1.5.06,2.25a12,12,0,0,1-.38,2.75c-.66-.17-.89-.5-.68-1s.1-.79-.32-.87a11.79,11.79,0,0,1-.37,3.74,11.7,11.7,0,0,1-1.5,3.57,8.45,8.45,0,0,1-2.56,2.56,4.8,4.8,0,0,1-3.57.63c-.16.5-.18.83-.06,1a1.77,1.77,0,0,0,.5.43,1.67,1.67,0,0,1,.5.44c.13.17.11.5-.06,1-.5.5-.92.48-1.25-.06a1.94,1.94,0,0,0-1.5-.94,2.14,2.14,0,0,0-.13,2.81,12.31,12.31,0,0,1,1.5,2.44,1.37,1.37,0,0,1-1.5.81c-.58-.12-1.2-.27-1.87-.43a3,3,0,0,0-1.63,1.87,11.38,11.38,0,0,0-.43,2.69,26.34,26.34,0,0,0,0,2.81,4.56,4.56,0,0,1-.31,2.13A4.77,4.77,0,0,1,106,57.19a9.14,9.14,0,0,1-1.5-4,29,29,0,0,1-.25-5.5c.08-2,.08-4.15,0-6.31-.17-3.76-.37-7.42-.63-11s-.37-6.71-.37-9.38a1.16,1.16,0,0,1,1.37-.31q.75.31,1.5-.69a1.06,1.06,0,0,0-.81-.44l-1.12-.12a1.27,1.27,0,0,1-.88-.44q-.32-.37-.06-1.38c.25-.24.46-.35.63-.31a1,1,0,0,1,.43.25l.44.44a.92.92,0,0,0,.87.12,1.73,1.73,0,0,0-.93-1.18q-.69-.32-1.44-.69a3.75,3.75,0,0,0,.06-1.19c0-.45-.08-.89-.12-1.31a1.8,1.8,0,0,1,.12-1c.13-.25.44-.33.94-.25a4.63,4.63,0,0,1-1.19-2.44,14,14,0,0,1-.12-2.68q.06-1.38.18-2.82a9.9,9.9,0,0,0-.24-3.06q3.5.12,7.5.62c2.66.34,5.39.69,8.18,1.07s5.67.69,8.63.93a76.46,76.46,0,0,0,8.81.26,17.81,17.81,0,0,1,.12,4.68c-.16,1.38-1.16,2.19-3,2.44a1.84,1.84,0,0,0,.13,1.56,2,2,0,0,1,.37,1.32,1.65,1.65,0,0,1-1.37.43c-.58,0-1.21-.06-1.87-.06a4.16,4.16,0,0,1-.5,2.81,7.63,7.63,0,0,1-1.94,2.25,10.07,10.07,0,0,1-2.63,1.5A7.06,7.06,0,0,1,122.75,21.88Zm-15.63,3.87a1.39,1.39,0,0,0-.5-1.44,1.41,1.41,0,0,1-.5-1.43,2.34,2.34,0,0,1-1.5,0c-.66-.17-1,0-.87.5a2.08,2.08,0,0,1,1.56,1.24A2,2,0,0,0,107.12,25.75Zm-1.5,1.87a.89.89,0,0,0,.26.94.91.91,0,0,1,.24.94A1.66,1.66,0,0,0,108,27.62a1.63,1.63,0,0,0-1.19-.5A1.65,1.65,0,0,0,105.62,27.62Zm57,10.38a18.81,18.81,0,0,0-.5,5.19c.09,1.71.19,3.37.32,5s.2,3.23.25,4.81a14.48,14.48,0,0,1-.57,4.5q-9.36-.87-18.37-1.19T128,55.62a31.83,31.83,0,0,0-1,8,33.21,33.21,0,0,0,1,8.13c0,.25.08.4.25.44l.5.12a1.07,1.07,0,0,1,.44.25.81.81,0,0,1,.19.56,27.3,27.3,0,0,1,7.68-.43q4.06.32,8.32.87t8.62,1a44.38,44.38,0,0,0,8.62.06,1.72,1.72,0,0,0,1.32.76,15.7,15.7,0,0,0,2,.12c.7,0,1.41,0,2.12.06a3.83,3.83,0,0,1,1.69.44,13.85,13.85,0,0,0-.5,4.62c.08,1.67.19,3.36.31,5.07s.19,3.37.19,5a9,9,0,0,1-1,4.31,76.16,76.16,0,0,1-7.87-.38c-2.5-.24-5-.54-7.38-.87l-7.12-1a69.19,69.19,0,0,0-7-.63q-9.63-.36-17.38-.62t-15.88-.75c0-1.75,0-3.44-.06-5.06s-.1-3.33-.18-5.13-.15-3.75-.19-5.87-.07-4.52-.07-7.19a8.5,8.5,0,0,1,2.32-2A19.31,19.31,0,0,1,111,64a15.7,15.7,0,0,1,3.25-.88,7.87,7.87,0,0,1,2.75,0,2.68,2.68,0,0,0,1.12-.62c.26-.25.5-.48.76-.69a1.73,1.73,0,0,1,.93-.37,3.69,3.69,0,0,1,1.57.31,2.59,2.59,0,0,0-.19-2.25,4.39,4.39,0,0,0-1.31-1,4.43,4.43,0,0,1-1.32-1c-.37-.42-.39-1.21-.06-2.38a2.31,2.31,0,0,1,1.62.76A5.73,5.73,0,0,0,121.38,57a4.39,4.39,0,0,0-.32-3c-.46-.92-.94-1.81-1.44-2.69a9.49,9.49,0,0,1-1.06-2.87,5.6,5.6,0,0,1,.82-3.69c.5-.5.83-.6,1-.31a1.66,1.66,0,0,0,1,.68c.41-.33.45-.81.12-1.43a1.5,1.5,0,0,1,.25-1.81c.75-.26,1.14-.11,1.19.43s.27.86.68.94a2.26,2.26,0,0,0,.38-1.87,4.85,4.85,0,0,1,.12-2.38A16.93,16.93,0,0,1,132,36.38a52.82,52.82,0,0,1,9.31.06c3.29.29,6.73.67,10.31,1.12A63.68,63.68,0,0,0,162.62,38Zm-56.5-2.38c.59,2.17,2.17,3.46,4.76,3.88a4.9,4.9,0,0,0-.32-2.44,11.1,11.1,0,0,0-1.06-1.81c-.67,0-1.31,0-1.94-.06A1.8,1.8,0,0,0,106.12,35.62Zm4.26,37a3.12,3.12,0,0,0-1.82.19c-.29.21-.77.15-1.44-.19V75a5.91,5.91,0,0,0,4.76,0,10.55,10.55,0,0,1-.19-2.25,3.36,3.36,0,0,1,1.06-1.5.73.73,0,0,1,.56.19,2,2,0,0,1,.31.37,2.69,2.69,0,0,0,.32.38c.12.12.35.14.68.06V69.88a13.16,13.16,0,0,0-3,.74A2,2,0,0,0,110.38,72.62Zm6.24-40.74c-.41-1.5-1.12-2.34-2.12-2.5a35.61,35.61,0,0,0-4.12-.38,3.65,3.65,0,0,1,.31-2.38c.29-.33,1-.33,2.06,0V24.75c0-.58.33-.87,1-.87a3.63,3.63,0,0,0,1.94,1.06,16.18,16.18,0,0,0,2.81-.19,1.31,1.31,0,0,0-.69-1.25,4.54,4.54,0,0,0-1.56-.5c-.58-.08-1.17-.19-1.75-.31a1.86,1.86,0,0,1-1.25-.81c.17-1.09.29-2.3.37-3.63a3.7,3.7,0,0,0-.87-3,7.08,7.08,0,0,1-.69,3.5l-1.68,3.63a17.39,17.39,0,0,0-1.32,4,8.18,8.18,0,0,0,.44,4.5,11.13,11.13,0,0,1,4.12-.57A5.56,5.56,0,0,1,116.62,31.88Zm-1.5-18.5a1.86,1.86,0,0,0,.5-1.38c0-.58-.33-.92-1-1a1.75,1.75,0,0,0-.43,1.44C114.23,13.06,114.54,13.38,115.12,13.38Zm1.5,61.24H118a2.33,2.33,0,0,0,.5-1.68c0-.79-.33-1.19-1-1.19a5.11,5.11,0,0,0-1.25,1.13C115.83,73.38,116,74,116.62,74.62Zm3.26-50.37c-.09-.33,0-.54.24-.63a4.94,4.94,0,0,1,.82-.18,1.47,1.47,0,0,0,.68-.25c.17-.13.21-.4.13-.81a2.46,2.46,0,0,0-1.44-.07,2.28,2.28,0,0,0-1.06.57.7.7,0,0,0-.25.74C119.08,23.88,119.38,24.08,119.88,24.25Zm.5,39.37a1,1,0,0,0,1,.5h3.12a1.3,1.3,0,0,1,1.12.5,1.49,1.49,0,0,0-.68-1.24,3.93,3.93,0,0,0-1.63-.69,4.25,4.25,0,0,0-1.81,0A1.36,1.36,0,0,0,120.38,63.62Zm2.87-13.74a16.34,16.34,0,0,0-.31-1.63c-.13-.5-.52-.75-1.19-.75a7.74,7.74,0,0,0,.19,1.81C122.06,49.86,122.5,50,123.25,49.88Zm.87,30.87V78.38h-1.37a1.54,1.54,0,0,0,.25,1.56A8,8,0,0,0,124.12,80.75ZM126,84a3,3,0,0,0,2-.38,1.93,1.93,0,0,0-2-2c-.42.5-.52.88-.31,1.13A2,2,0,0,1,126,84Zm-.38-9c.42,0,.59.23.5.69s0,.73.38.81l.88-.88c.24-.24.29-.74.12-1.5C126.33,74,125.71,74.25,125.62,75ZM166.38,4.88c.08,1,.2,2.23.37,3.68s.31,3,.44,4.75.2,3.44.25,5.19,0,3.38-.06,4.88q-4.5-.75-8.82-1.13c-2.87-.25-5.75-.46-8.62-.63s-5.77-.35-8.69-.56-5.92-.56-9-1.06c0-.25.17-.38.5-.38a2.81,2.81,0,0,0,.87-.12,14.32,14.32,0,0,1,3.69-4.5,50.18,50.18,0,0,1,4.81-3.44c1.67-1,3.27-2.08,4.82-3.12a15.71,15.71,0,0,0,3.81-3.56q3.75.36,6.5.56c1.83.12,4.25.23,7.25.31q.5.25.69.06a1,1,0,0,0,.25-.5,1.54,1.54,0,0,1,.18-.5C165.71,4.69,166,4.71,166.38,4.88ZM140.25,43.75q0-.75.63-.81c.41,0,.54-.4.37-1.06a1.72,1.72,0,0,1-.81-.44c-.21-.21-.56-.23-1.06-.06a1.91,1.91,0,0,0-.32,1.43A2.41,2.41,0,0,0,140.25,43.75Zm4.75,1a7.43,7.43,0,0,0-.38-1.56c-.16-.46-.66-.61-1.5-.44a1.22,1.22,0,0,0-.56,1.06,1.52,1.52,0,0,0,1.38,1.38A1.29,1.29,0,0,0,145,44.75Zm-.88,44.5a4.33,4.33,0,0,1,1.44,0c.54.08.69-.21.44-.87a.39.39,0,0,0-.38-.44l-.74-.13a1.33,1.33,0,0,1-.63-.25c-.17-.12-.21-.35-.13-.68a6.58,6.58,0,0,1,1-.63,2.51,2.51,0,0,0,.88-.75,1.06,1.06,0,0,1-.94.06,2.65,2.65,0,0,1-.56-.44l-.56-.5a.94.94,0,0,0-.82-.12c-.41.5-.56.92-.43,1.25a3.88,3.88,0,0,0,.56,1c.25.33.5.69.75,1.06A1.67,1.67,0,0,1,144.12,89.25ZM144.5,48c.67-.17,1.08-.1,1.25.19s.54.39,1.13.31a6.91,6.91,0,0,1,.24-.81c.09-.21.34-.27.76-.19a2,2,0,0,0-2.38-1.88,2.82,2.82,0,0,0-.5,1.19A2.72,2.72,0,0,1,144.5,48ZM146,12.88h1.88c0-1.09-.63-1.71-1.88-1.88Zm3.75,37.5a13.54,13.54,0,0,0-.13-1.94c-.08-.63-.5-.94-1.24-.94a4.87,4.87,0,0,0-.32,2.06C148.1,50.27,148.67,50.54,149.75,50.38Zm4.75-2.88c.58.58,1.12.77,1.62.56a3.39,3.39,0,0,0,1.38-1.12,13.23,13.23,0,0,0,1.19-1.88c.37-.7.73-1.31,1.06-1.81a5.43,5.43,0,0,0-3.31,1.44A9.52,9.52,0,0,0,154.5,47.5Zm3.38-37V12a3.53,3.53,0,0,0,2.5.44q1.62-.19,1.74-1.44A4.26,4.26,0,0,0,157.88,10.5Zm4.24,71.12c-.08.59,0,1,.26,1.19a1,1,0,0,0,.93.19,2.75,2.75,0,0,0,1.07-.5,1.55,1.55,0,0,0,.62-.88c-.5-.5-.92-.58-1.25-.24A1.69,1.69,0,0,1,162.12,81.62Z"/><path class="cls-1" d="M271.37,87.62a3.16,3.16,0,0,0-1.25-.5c-.66-.16-1,0-1.12.5a2,2,0,0,0,2,.19c.66-.29,1.41-.64,2.25-1.06.16.92.25,1.46.25,1.63s-.09.7-.25,1.62a24.21,24.21,0,0,1-6.25.38q-2.62-.25-5.13-.63c-1.66-.25-3.39-.44-5.18-.56a25.54,25.54,0,0,0-6.19.43,72.83,72.83,0,0,0-1.38-12q-1.25-6.5-2.37-12.74a5.14,5.14,0,0,1-.06-2.13c.12-.67.25-1.29.37-1.87a4.41,4.41,0,0,0,.06-1.69,2.31,2.31,0,0,0-.87-1.44,2.19,2.19,0,0,0,1.31-2.69,7.83,7.83,0,0,0-1.31-2.94,1.83,1.83,0,0,0,1.19-1.56,2.5,2.5,0,0,1,1.18-1.81,3.11,3.11,0,0,0-1.81-.81,1.25,1.25,0,0,0-1.56.81q-.75.12-.75-.06a1.47,1.47,0,0,1,.12-.5,2.91,2.91,0,0,0,.19-.69c0-.25-.1-.46-.44-.62a36.43,36.43,0,0,0-2.12,4.5q-1,2.49-2.06,5.24T237.94,62a35,35,0,0,1-2.69,4.88c-.42.08-.67,0-.75-.19a2.93,2.93,0,0,1-.19-.75,2.6,2.6,0,0,0-.25-.82.53.53,0,0,0-.69-.24,5.16,5.16,0,0,0,.5,2.43,4.81,4.81,0,0,1,.5,2.31,62.1,62.1,0,0,0-8.06.26,21.89,21.89,0,0,1-6.69-.26,35.44,35.44,0,0,0-3.12-5.31c-1.17-1.62-2.38-3.25-3.63-4.87s-2.41-3.32-3.5-5.06a22.21,22.21,0,0,1-2.5-6H204.5a4.13,4.13,0,0,0-1.75,3.18,10.49,10.49,0,0,1-1.13,3.82c.42.33.71.48.88.43a1.11,1.11,0,0,0,.5-.31,1.64,1.64,0,0,1,.56-.38c.21-.08.52,0,.94.26a5.29,5.29,0,0,1,.56,2.87,7.74,7.74,0,0,1-.62,2.06l-.94,2a5.92,5.92,0,0,0-.5,2.57,1,1,0,0,0,1.19.37c.37-.17.77,0,1.18.63q0,3.36-.12,6.56c-.09,2.12-.15,4.25-.19,6.37s-.06,4.34-.06,6.63.12,4.77.37,7.44a17.37,17.37,0,0,1-2.93.5,13.54,13.54,0,0,1-2.94-.07,9.78,9.78,0,0,1-2.44-.62,3.35,3.35,0,0,1-1.56-1.19c-.25-.08-.4,0-.44.19a3.62,3.62,0,0,0-.06.69.76.76,0,0,1-.19.56c-.12.12-.4.1-.81-.06.08-.67,0-1-.31-1.13a3,3,0,0,0-1.07-.06,3.55,3.55,0,0,1-1.18-.07c-.38-.08-.61-.45-.69-1.12A2.27,2.27,0,0,1,189,92.62l-3,.76a20.5,20.5,0,0,1-.88-5.57c-.08-2.2-.1-4.56-.06-7.06s.08-5,.13-7.63,0-5-.19-7.24c1.25.66,2.37,1.27,3.37,1.81a7.63,7.63,0,0,1,2.38,1.93c.5-.08.77-.22.81-.43a1.67,1.67,0,0,0-.06-.75c-.09-.29-.19-.61-.31-.94a1.47,1.47,0,0,1,.06-1.12,1.64,1.64,0,0,1,1.25.74,6.66,6.66,0,0,1,.62,1.38,7.25,7.25,0,0,0,.63,1.38,1.62,1.62,0,0,0,1.25.74,1.32,1.32,0,0,0,1.56-1.12c.21-.83.15-1.42-.19-1.75a14.92,14.92,0,0,0-2.12-.87,10.9,10.9,0,0,1-2.13-1,1,1,0,0,1,.75-.82,4.55,4.55,0,0,1,1.25-.18h1.25a1.35,1.35,0,0,0,1-.38c.09-.75-.08-1.1-.5-1.06a10.55,10.55,0,0,0-1.43.25,3.16,3.16,0,0,1-1.5,0c-.46-.13-.73-.65-.82-1.57a4.71,4.71,0,0,1-1.87.5c-.5,0-1,0-1.5-.06s-1-.1-1.63-.18a6.12,6.12,0,0,0-2.12.12,30.33,30.33,0,0,0-.38-6.12q-.5-3.14-.87-6.07a31.77,31.77,0,0,1-.25-5.62,10.17,10.17,0,0,1,1.5-4.94c.08-.17,0-.29-.19-.37a2.23,2.23,0,0,0-1.5,0c-.21.08-.27.2-.19.37-.41-1.42-.85-2.94-1.31-4.56a29.16,29.16,0,0,1-.94-4.81,18.17,18.17,0,0,1,.07-4.5,6.65,6.65,0,0,1,1.68-3.63,22.86,22.86,0,0,1-4-9.13Q177.75,8.38,177,2.75a30.3,30.3,0,0,0,5.56.56c2.13,0,4.31,0,6.56-.06s4.4-.19,6.44-.31,3.77-.19,5.19-.19a9.31,9.31,0,0,0,.81,2.75A21.86,21.86,0,0,1,202.62,8a3.47,3.47,0,0,0-2.37.5,4.13,4.13,0,0,0,.37,1.94,6,6,0,0,0,1,1.31,1.29,1.29,0,0,1-.93.81,7.42,7.42,0,0,1-1.38.25,5.12,5.12,0,0,0-1.31.31,1,1,0,0,0-.63,1,1.93,1.93,0,0,0,1.44.44,5.72,5.72,0,0,0,1.63-.37l1.56-.63a4,4,0,0,1,1.5-.31V9.38q3.75,4.62,7.06,9.56a43.39,43.39,0,0,1,5.31,11.31c0,.25.09.36.25.31l.5-.12a2.49,2.49,0,0,1,.57-.06.7.7,0,0,1,.56.37,22.06,22.06,0,0,0,2.75,6.31,40.78,40.78,0,0,0,3.87,5.06,11.8,11.8,0,0,0,2.13-2.93c.58-1.13,1.14-2.31,1.69-3.57l1.62-3.74a13.68,13.68,0,0,1,2.19-3.5.73.73,0,0,1,.75.12,2,2,0,0,1,.37.5,1.31,1.31,0,0,0,.38.44c.16.12.46.1.87-.06a1.82,1.82,0,0,0,.63-1.26,2.39,2.39,0,0,0-.38-1.24c-.25-.42-.5-.82-.75-1.19a3.64,3.64,0,0,1-.5-1.07q3.38-6.75,6.13-12.31c1.83-3.7,3.75-7.69,5.75-11.93A74.13,74.13,0,0,1,256,.38,55.71,55.71,0,0,0,267.12,0,118.75,118.75,0,0,0,267,12.31q.24,6.57.62,13.25t.57,13.25q.18,6.57-.19,12.31a4.46,4.46,0,0,1-1.56,1,1.89,1.89,0,0,0-1.19,1.38q.5.75.81.81a.88.88,0,0,0,.69-.19,4.55,4.55,0,0,0,.75-.62,1.35,1.35,0,0,1,1-.38,12.74,12.74,0,0,0-.63,4.69,35.42,35.42,0,0,0,.63,5q.5,2.56,1.19,5.13c.45,1.71.85,3.39,1.18,5.06a34.33,34.33,0,0,1-4.81,1.56l-4.62,1.13c-1.55.37-3.07.77-4.57,1.19a25.26,25.26,0,0,0-4.5,1.74,22.25,22.25,0,0,0,8.75-1q4.38-1.37,9.75-2.74A48.83,48.83,0,0,1,272.06,80c.29,1.67.69,3.58,1.19,5.75a.64.64,0,0,1-.56.44l-.82.12a1.18,1.18,0,0,0-.62.31C271.08,86.79,271.12,87.12,271.37,87.62ZM184.12,18.88a6.54,6.54,0,0,0,1.5-.38,1.1,1.1,0,0,1,1.25.38,2.48,2.48,0,0,1,.69-1,1.5,1.5,0,0,0,.31-1.38,2.89,2.89,0,0,0-2.31.81C185.1,17.86,184.62,18.38,184.12,18.88Zm3.75,28.5a3.57,3.57,0,0,1,.32-1.38.37.37,0,0,1,.5-.12,6.73,6.73,0,0,0,.75.24.9.9,0,0,0,.81-.12c-.17-.92-.11-1.52.19-1.81s.22-.65-.19-1.07c-.42-.08-.69,0-.81.26a4.56,4.56,0,0,0-.32.81,2.87,2.87,0,0,1-.31.75c-.12.21-.44.23-.94.06a1.49,1.49,0,0,0-.5-.81,2.11,2.11,0,0,0-.87-.44l-1-.25a2.61,2.61,0,0,1-.88-.38,2.85,2.85,0,0,0,1,2.76Zm-.5,17.5a6,6,0,0,0-.81.06,6.36,6.36,0,0,1-.87.06,1.07,1.07,0,0,1-.69-.19q-.25-.18,0-.81a1.84,1.84,0,0,1,1.62-.5Q187.63,63.62,187.37,64.88Zm-2.37-37c-.17,1.24.16,1.91,1,2a1.17,1.17,0,0,1,.62-.88,11,11,0,0,0,1-.56,4.8,4.8,0,0,0,.88-.69,1.73,1.73,0,0,0,.37-1.25.72.72,0,0,1-.68-.31c-.13-.21-.4-.27-.82-.19a1.12,1.12,0,0,1-.12.94,1.39,1.39,0,0,1-.63.44,4.74,4.74,0,0,1-.87.18A1.24,1.24,0,0,0,185,27.88Zm.5-7c.75,0,1.21.12,1.37.37a3,3,0,0,1,.38.81,2.19,2.19,0,0,0,.44.82c.2.24.72.37,1.56.37a2.4,2.4,0,0,0,.62-1.75,2,2,0,0,0-.62-1.62,2.43,2.43,0,0,1-1.19.18l-1-.12a1.81,1.81,0,0,0-.81.06C186,20.08,185.75,20.38,185.5,20.88Zm1.37,17.5A1.74,1.74,0,0,1,188,37.06c.58-.2.87-.73.87-1.56a2,2,0,0,0-1.37.25,3.43,3.43,0,0,0-1,.87,1.44,1.44,0,0,0-.31,1.07A.77.77,0,0,0,186.87,38.38Zm1.5,12.74a2.55,2.55,0,0,1,.25-1.68c.25-.38-.16-.61-1.25-.69a1.72,1.72,0,0,0-.43,1.63C187.06,51,187.54,51.29,188.37,51.12Zm0,23.26a1.77,1.77,0,0,0,.44-1.13c0-.5.06-1.08.06-1.75h-1.5v1.94C187.37,74.06,187.71,74.38,188.37,74.38ZM191.62,36a5,5,0,0,0,.32-2.06c-.05-.71-.61-1-1.69-.82a9.46,9.46,0,0,0,.19,1.94A1.07,1.07,0,0,0,191.62,36Zm-.87-8.12c.58.58,1.08.77,1.5.56a3.35,3.35,0,0,0,1.19-1.19c.37-.58.77-1.19,1.18-1.81A3.81,3.81,0,0,1,196,24.12a1.94,1.94,0,0,1-1.44-.74,1.62,1.62,0,0,0-1.44-.63,16.88,16.88,0,0,1-1.37,2.5A6.56,6.56,0,0,0,190.75,27.88Zm.5,62.12a2,2,0,0,1,.94.75c.2.33.68.42,1.43.25a1,1,0,0,1,.82-1.25A1.68,1.68,0,0,1,196,90a1.45,1.45,0,0,0-.94-1.19,2.92,2.92,0,0,0-1.44,0,5.7,5.7,0,0,0-1.43.57A3.83,3.83,0,0,0,191.25,90Zm3.25-2.38a5.27,5.27,0,0,0,.75-2.24c.08-.84-.46-1.34-1.63-1.5a2.42,2.42,0,0,0-.43,2.24C193.39,87,193.83,87.54,194.5,87.62Zm.5-12.24c.16-.34.35-.5.56-.5a1.61,1.61,0,0,1,.69.18l.75.38a1,1,0,0,0,.87-.06.85.85,0,0,1,0-.63,1.78,1.78,0,0,1,.32-.44,1,1,0,0,0,.25-.5,1.85,1.85,0,0,0-.07-.81,2.55,2.55,0,0,0-1.81-.94,2.65,2.65,0,0,0-1.75.44,1.66,1.66,0,0,0-.75,1.25A2.12,2.12,0,0,0,195,75.38Zm0-38.88a4,4,0,0,0,1.44.94,4,4,0,0,1,1.43.94,3.65,3.65,0,0,0-.37,2.43,2.64,2.64,0,0,0,1.25,1.81,11.61,11.61,0,0,1,1.5-.74,4.66,4.66,0,0,1,1.87.24c.17-.58.32-1.14.44-1.68a6.18,6.18,0,0,0,.06-2.06,6.75,6.75,0,0,0-1.43-.32c-.46,0-.61-.39-.44-1.06q-.63-.12-.81.12a2.32,2.32,0,0,0-.32.63,1.64,1.64,0,0,1-.37.63c-.17.16-.46.16-.88,0a4.17,4.17,0,0,1,.19-1.13c.13-.42.25-.81.38-1.19a2.07,2.07,0,0,0,.12-.94c0-.24-.27-.41-.69-.5a.68.68,0,0,1-.5.76,8.21,8.21,0,0,1-1.18.18,9.61,9.61,0,0,0-1.19.19C195.16,35.83,195,36.08,195,36.5Zm1.87-24.75a1.57,1.57,0,0,0,.44-1,3.33,3.33,0,0,0-.12-1.25,2.52,2.52,0,0,0-.63-1.06A1.46,1.46,0,0,0,195.5,8a4.28,4.28,0,0,1,.44,1.31,9.65,9.65,0,0,1,.06,1,2.55,2.55,0,0,0,.12.81A1.19,1.19,0,0,0,196.87,11.75Zm1.5,76.37a4.8,4.8,0,0,1-.87-.81q-.37-.44-1.5-.06v1.87a2,2,0,0,1,.87-.24h.63a1.23,1.23,0,0,0,.44-.07C198.06,88.77,198.21,88.54,198.37,88.12Zm-1.5-28a1.63,1.63,0,0,1,1.13-.24,1.81,1.81,0,0,1,.69.43,5,5,0,0,0,.75.63,1.75,1.75,0,0,0,1.31.18c-.25-.66-.23-1.08.06-1.24s.4-.55.31-1.13c-.58-.42-1.14-.79-1.68-1.13a4,4,0,0,0-2.57-.24c-.25.74-.31,1.18-.18,1.31A3,3,0,0,1,196.87,60.12Zm3.38-13.74c-.59.16-1,.08-1.13-.26s-.58-.37-1.25-.12a.87.87,0,0,0,.13,1,1.43,1.43,0,0,0,.81.44,1.59,1.59,0,0,0,.94-.19A.9.9,0,0,0,200.25,46.38ZM197.87,63a.39.39,0,0,1,.44.31c0,.21.08.4.13.57a.86.86,0,0,0,.25.43.73.73,0,0,0,.56.19c.08-.5.58-.67,1.5-.5a1.55,1.55,0,0,0-.13-1.38,1.58,1.58,0,0,0-1-.62,2,2,0,0,0-1.18.12A.89.89,0,0,0,197.87,63Zm.5,8.12a2.54,2.54,0,0,0,1.07-.87,3.42,3.42,0,0,0,.43-1.19c.09-.45.17-1,.25-1.5a4.91,4.91,0,0,1,.63-1.68,6.16,6.16,0,0,1-1-.5,5.15,5.15,0,0,0-1-.5,2.82,2.82,0,0,0-.56,2.68A8.59,8.59,0,0,1,198.37,71.12Zm2.38-36.5c.66.09,1.06-.12,1.19-.62a3.57,3.57,0,0,1,.68-1.38,1,1,0,0,1-.93-.18,1,1,0,0,0-.94-.19Zm0,14.63a1.93,1.93,0,0,0,1.19-.63,9.56,9.56,0,0,0,.81-1.06,5.53,5.53,0,0,1,.87-1A2.6,2.6,0,0,1,205,46a1.84,1.84,0,0,0-.13-1.56,2,2,0,0,1-.37-1.32,2.57,2.57,0,0,0-2.13.69,3.5,3.5,0,0,0-.62,1.63c-.09.62-.15,1.29-.19,2A2.69,2.69,0,0,1,200.75,49.25ZM206.87,44a2.7,2.7,0,0,0,.5-1.12,1,1,0,0,1,.88-.76,2,2,0,0,0,.37,1.32,1.84,1.84,0,0,1,.13,1.56h2.37a12.5,12.5,0,0,0,.19-2.81,3.35,3.35,0,0,0-1.19-2.44,1.69,1.69,0,0,0-1.12.13,3.1,3.1,0,0,0-.88.62,3.75,3.75,0,0,1-.68.56c-.21.13-.4,0-.57-.31.17-.58.32-1.14.44-1.69a6.18,6.18,0,0,0,.06-2.06,1.8,1.8,0,0,0-1.68,1.06A6.25,6.25,0,0,0,205,40.5a4.62,4.62,0,0,0,.37,2.44A1.61,1.61,0,0,0,206.87,44Zm-.5,2.88c.42.41.77.54,1.07.37a3.63,3.63,0,0,1,1.31-.37,1.24,1.24,0,0,0-.38-1.26,7.14,7.14,0,0,0-1-.62c0,.5-.21.77-.62.81S206.21,46.21,206.37,46.88Zm5.25-6.63a2.13,2.13,0,0,1,1.75-.37,8,8,0,0,0,2,.37V37.38a2.75,2.75,0,0,1-1.75-.26,3,3,0,0,0-2-.12,3.91,3.91,0,0,0,.5-2.38h-2a5.47,5.47,0,0,0,.44,1.76,10.08,10.08,0,0,1,.5,1.12c.13.33.25.69.38,1.06A6,6,0,0,1,211.62,40.25Zm-1.5,13.25a2.74,2.74,0,0,1,1.88.38c.5.33.83.08,1-.76a.82.82,0,0,0-1-.5c-.5.09-.79-.08-.88-.5a9.47,9.47,0,0,0-.06-1.12c0-.33-.35-.42-.94-.25a2.51,2.51,0,0,0,.13.94l.19.5a1,1,0,0,1,0,.5A3.69,3.69,0,0,1,210.12,53.5Zm1.5-20.38c.75.17,1.19,0,1.32-.56a5.38,5.38,0,0,0,.06-1.81h-1.88c-.16.67-.1,1.08.19,1.25S211.71,32.54,211.62,33.12Zm3.25,2.38c1.42.17,2.09-.29,2-1.38a.72.72,0,0,1-.68-.31c-.13-.2-.4-.27-.82-.19a1,1,0,0,1-.18.94A1.27,1.27,0,0,0,214.87,35.5Zm.5,25.12a1.62,1.62,0,0,1,1.19-.24,5.14,5.14,0,0,0,1.06.12.88.88,0,0,0,.75-.31,3.26,3.26,0,0,0,.38-1.44,3.32,3.32,0,0,0-2.19.13,1.82,1.82,0,0,1-1.69-.13A2.65,2.65,0,0,0,215.37,60.62Zm1-13.74a2.68,2.68,0,0,0,1.19-2.07,1.33,1.33,0,0,0-1.19-1.69,1.19,1.19,0,0,0-.93.63,2.63,2.63,0,0,0-.5,1.31,2.45,2.45,0,0,0,.18,1.25C215.29,46.69,215.71,46.88,216.37,46.88Zm-.5,4.24a1,1,0,0,0,1.19-.43,2.12,2.12,0,0,0,.25-1.25,4.89,4.89,0,0,0-.31-1.32,1.17,1.17,0,0,0-.63-.74,3.17,3.17,0,0,0-.25,1.12,4.69,4.69,0,0,0,.07.88,5,5,0,0,1,.06.81A1.58,1.58,0,0,1,215.87,51.12Zm6.13,9h1.5c.16-1.33-.34-1.95-1.5-1.87Zm1.87,0a.85.85,0,0,0,1.25.13,2.13,2.13,0,0,0,.75-1.5C224.46,58.58,223.79,59,223.87,60.12Zm2.88,1a19,19,0,0,1,3.56-.37,5.57,5.57,0,0,1,3.06.87c.17-.41.34-.58.5-.5v-1a7.63,7.63,0,0,0-1.75-.31c-.66,0-1.35-.1-2.06-.19a13.39,13.39,0,0,1-2-.37,2,2,0,0,1-1.31-1Zm3.37-21.37c-1-.58-1.6-.71-1.81-.37a1.05,1.05,0,0,0-.06,1.06,1.13,1.13,0,0,0,.87.68C229.54,41.21,229.87,40.75,230.12,39.75Zm-1.5,25.13c.09-.42.25-.61.5-.57a2.18,2.18,0,0,1,.75.31,3,3,0,0,0,.75.38c.25.08.38-.08.38-.5-.42-.17-.54-.5-.38-1a3.47,3.47,0,0,1-2.37-.5,11.28,11.28,0,0,1-.06,1.19A.56.56,0,0,0,228.62,64.88Zm3.88-17a2,2,0,0,0,.5-1.44c0-.63-.34-.94-1-.94a1.83,1.83,0,0,0-.5,1.38C231.5,47.46,231.83,47.79,232.5,47.88Zm0-9.5a1,1,0,0,0,.94-.19,1.24,1.24,0,0,1,.93-.31,2.75,2.75,0,0,0-.06-1.38,8.7,8.7,0,0,0-.44-1H232.5c-.5.42-.65.86-.44,1.31A5.9,5.9,0,0,1,232.5,38.38ZM255.25,25.5a2.84,2.84,0,0,0-3.19-1.56,36.06,36.06,0,0,1-4.44.68,3.26,3.26,0,0,1-1.5-1.87,4.5,4.5,0,0,1,.13-1.81c.16-.63.33-1.29.5-2a3.5,3.5,0,0,0-.5-2.44,2.48,2.48,0,0,0-2.25.94,2.54,2.54,0,0,1-2,1.06,1.66,1.66,0,0,0-.06,1.19,3.35,3.35,0,0,0,.43.75,3.76,3.76,0,0,1,.44.68,1.84,1.84,0,0,1,.06,1.13,31.65,31.65,0,0,1-2.12,2.63,32,32,0,0,0-2.13,2.62,1.47,1.47,0,0,0-1.12-.56,8.91,8.91,0,0,0-1.75.06.93.93,0,0,0-.38,1c.09.42.17.79.25,1.12a1.46,1.46,0,0,1,0,.88c-.08.25-.5.33-1.25.25a4.35,4.35,0,0,1,.5,2v1.94a7.28,7.28,0,0,0,.19,1.69A1.7,1.7,0,0,0,236.25,37a6.84,6.84,0,0,0,1.44-3.5c.12-1.25.27-2.46.43-3.62.42,0,.67.16.75.5s.17.68.25,1.06a5.88,5.88,0,0,0,.32,1c.12.29.47.35,1.06.18V29.38c.75-.09,1.35-.17,1.81-.26a6.4,6.4,0,0,0,1.19-.31,5.49,5.49,0,0,0,1-.5c.33-.2.75-.48,1.25-.81-.17.67,0,1,.44,1a1,1,0,0,1,.93.38,3.49,3.49,0,0,1,2.38-.82l2.44.13a4,4,0,0,0,2.06-.38C254.58,27.52,255,26.75,255.25,25.5Zm-19,37.5a.55.55,0,0,1,.62-.62c.42,0,.54-.26.38-.76a2,2,0,0,1-1.75-.18,9.12,9.12,0,0,0-1.13-.82v1a.44.44,0,0,0,.5.5c0-.41.13-.58.38-.5A5.28,5.28,0,0,0,236.25,63Zm-.5-14.25c-.09-.58,0-1,.31-1.13s.35-.58.19-1.24h-1.38a5.86,5.86,0,0,0,0,1.68A.79.79,0,0,0,235.75,48.75Zm6.62-.37c.17-1.42-.29-2.09-1.37-2C240.83,47.79,241.29,48.46,242.37,48.38Zm4.38-24.26c.08.67-.06,1.05-.44,1.13a.68.68,0,0,0-.56.75h-2.63c-.83,0-1.21-.46-1.12-1.38a.9.9,0,0,0,1.12.19c.34-.2.69-.43,1.07-.69a5.33,5.33,0,0,1,1.12-.56C245.69,23.44,246.16,23.62,246.75,24.12Zm-2,11.38V33.19c0-.79-.46-1.11-1.38-.94a1.16,1.16,0,0,0-.87.87,2.57,2.57,0,0,0,.06,1.26,1.83,1.83,0,0,0,.81,1A1.62,1.62,0,0,0,244.75,35.5Zm.5,4.75c.5.17.85.11,1.06-.19a2.21,2.21,0,0,0,.38-1.06,2.06,2.06,0,0,0-.19-1.12.8.8,0,0,0-.75-.5,2.31,2.31,0,0,0-.44,1.24C245.27,39.12,245.25,39.67,245.25,40.25ZM250.5,5.12a2,2,0,0,1,.37-1.31A1.6,1.6,0,0,0,251,2.38a2,2,0,0,0-1-.44,2.43,2.43,0,0,0-.94.06,3.51,3.51,0,0,1-.94.12,2.33,2.33,0,0,1-1-.24C246.79,4.38,247.91,5.46,250.5,5.12ZM247.12,9a1.21,1.21,0,0,1,1.07.19,1,1,0,0,0,.93.19,2.46,2.46,0,0,1,.07-.57c0-.2.14-.31.31-.31a1.66,1.66,0,0,0-1.88-1.88A3.57,3.57,0,0,0,247.12,9Zm1.5,12.75c1.09.08,1.54-.54,1.38-1.87h-1.38ZM250,47.88c.25-.42.46-.59.62-.5a2.36,2.36,0,0,1,.57.43,4.19,4.19,0,0,0,.68.57,1.09,1.09,0,0,0,1,0c.5-.5.59-.92.25-1.26a1.7,1.7,0,0,1-.25-1.62,3.19,3.19,0,0,0-2.31.81C249.77,46.94,249.58,47.46,250,47.88ZM250,54c-.17.92,0,1.48.5,1.69a9.22,9.22,0,0,1,1.37.69,1.94,1.94,0,0,0,.5-1.44,1.91,1.91,0,0,0-.5-1.44A2.67,2.67,0,0,0,250,54Zm3.75-12.75a2,2,0,0,1,.37-1.31,1.85,1.85,0,0,0,.13-1.56,1.13,1.13,0,0,0-1.25.24,2.21,2.21,0,0,0-.63,1.13,1.38,1.38,0,0,0,.25,1.13A1.09,1.09,0,0,0,253.75,41.25Zm-1.38,27.5a5.62,5.62,0,0,0,.75,1.87c.34.5,1,.67,2.13.5.33-1.58.14-2.56-.56-2.93A2,2,0,0,0,252.37,68.75Zm1.38-17.13a5.38,5.38,0,0,0,.94,3.13,5.89,5.89,0,0,0,1.87,1.56,21.36,21.36,0,0,0,2.38,1.07,9.43,9.43,0,0,1,2.43,1.37,2.13,2.13,0,0,0,1.57-1.56,2.87,2.87,0,0,1,1.31-1.81,5.83,5.83,0,0,1-2.63-1.13c-.75-.58-1.52-1.14-2.31-1.69a8.28,8.28,0,0,0-2.5-1.18A5,5,0,0,0,253.75,51.62Zm1,8.13q1.62-1.62-.5-2.37a1.5,1.5,0,0,0-.5,1.31A1,1,0,0,0,254.75,59.75Zm-.5-9.5h1.87a4.24,4.24,0,0,1-.18-1.56c0-.46.06-.88.06-1.25a2.4,2.4,0,0,0-.25-1.06,2.1,2.1,0,0,0-1-.88c-.17.67-.42,1.46-.75,2.38A2.36,2.36,0,0,0,254.25,50.25ZM257.12,26a2.76,2.76,0,0,0-.06-1.38,9.54,9.54,0,0,0-.44-1h-1.37c.16.67.33,1.26.5,1.76S256.37,26.08,257.12,26Zm-1-2.75a2.13,2.13,0,0,1,1.69.37,3.37,3.37,0,0,1,.88,1.32,7.86,7.86,0,0,1,.43,1.75,9.58,9.58,0,0,0,.38,1.69,2.41,2.41,0,0,1,1.31.12,13.76,13.76,0,0,0,1.5.38,3.28,3.28,0,0,0,1.25,0c.38-.09.6-.42.69-1,.08-.42,0-.69-.25-.82a3.06,3.06,0,0,0-.81-.25,5.31,5.31,0,0,1-.88-.19.58.58,0,0,1-.44-.62,9.64,9.64,0,0,0,1.19-1.12,2.31,2.31,0,0,0,.19-2.13c-1.09-.42-2.15-.85-3.19-1.31a15.91,15.91,0,0,0-3.44-1.06c.17.66.09,1.12-.25,1.37S256,22.5,256.12,23.25Zm1.5,47.87c0-.33.15-.5.44-.5H259a3.31,3.31,0,0,0-.5-2.37h-1.38a2.35,2.35,0,0,0-.5,1.69C256.62,70.73,257,71.12,257.62,71.12Zm-.5-55.5a4.78,4.78,0,0,0,1.82.82,1.45,1.45,0,0,0,1.56-.82,1.78,1.78,0,0,1-.5-.87c-.09-.33-.19-.67-.31-1a2.48,2.48,0,0,0-.5-.81,1.21,1.21,0,0,0-1.07-.19,3,3,0,0,1-.75,1.25A1.71,1.71,0,0,0,257.12,15.62Zm1.38,45.5c.16-1.33-.29-1.95-1.38-1.87C257,60.58,257.41,61.21,258.5,61.12Zm-.88-12.74a2,2,0,0,0,2.38-2q-.75,0-.81-.57c-.05-.37-.4-.48-1.07-.31a7.65,7.65,0,0,1-.68,1.5A1,1,0,0,0,257.62,48.38Zm.5-42.26a2.78,2.78,0,0,1,1.5-.24,2.6,2.6,0,0,1,.88.37,4.64,4.64,0,0,1,.75.63,3,3,0,0,0,1.12.62c.59-.75.82-1.33.69-1.75a1.29,1.29,0,0,0-.87-.87,16.24,16.24,0,0,0-1.63-.5A6.17,6.17,0,0,1,259,3.75a1.33,1.33,0,0,1-.69.94C257.94,4.9,257.87,5.38,258.12,6.12ZM261.87,64c-.25-.58-.48-1.17-.68-1.75a15.36,15.36,0,0,0-.69-1.63,1.38,1.38,0,0,0-.25,2A4.11,4.11,0,0,0,261.87,64Zm-1-32.25a1.17,1.17,0,0,1,.82.44,1,1,0,0,0,.68.43.83.83,0,0,1,0-.62,1.78,1.78,0,0,1,.32-.44,1,1,0,0,0,.25-.5,1.85,1.85,0,0,0-.07-.81.78.78,0,0,1-.68-.25c-.13-.17-.4-.21-.82-.12a1,1,0,0,1-.18.93A1.27,1.27,0,0,0,260.87,31.75Zm0,16.63c.42.16.75.31,1,.43s.59.27,1,.44c-.66-.92-.68-1.52-.06-1.81a1.7,1.7,0,0,1,1.94.44,2,2,0,0,1,.19-1.76,2.09,2.09,0,0,0,.31-1.62h-3.88a3,3,0,0,1-.12,2A3.72,3.72,0,0,0,260.87,48.38Zm.5,4.74a4,4,0,0,1,3.38,0,1.61,1.61,0,0,0,.5-1.18,1.63,1.63,0,0,0-.5-1.19,4.73,4.73,0,0,0-1.88.63c-.33.24-.83,0-1.5-.63a1.63,1.63,0,0,0-.5,1.19A1.61,1.61,0,0,0,261.37,53.12Zm4.75-33.74a1.74,1.74,0,0,0,.38-1.32,2.48,2.48,0,0,0-.56-1.06,3.6,3.6,0,0,0-1.07-.81l-1.12-.57a2.48,2.48,0,0,0,1.06,2.07A2.93,2.93,0,0,1,266.12,19.38Zm.5,41.24a2,2,0,0,0-.37-1.31,1.84,1.84,0,0,1-.13-1.56h-1.87Q263.88,60.75,266.62,60.62Zm-.5-29.37a1.81,1.81,0,0,1-.06-.81,6.4,6.4,0,0,0,.06-.88.87.87,0,0,0-.18-.62q-.19-.2-.69-.06a1.8,1.8,0,0,0-.5,1.62C264.83,31.17,265.29,31.42,266.12,31.25Zm.5,19.5c0-.67,0-1.23-.06-1.69s-.35-.68-.94-.68c-.25.16-.31.6-.18,1.31A1.11,1.11,0,0,0,266.62,50.75Z"/><path class="cls-1" d="M346.37,84.38a2.51,2.51,0,0,0-.43-2.13,21.36,21.36,0,0,0-1.5-1.69A12.35,12.35,0,0,1,343,78.88a2.42,2.42,0,0,1-.38-2,6.4,6.4,0,0,0,1.75.62c.5.08,1,.15,1.5.19a7.47,7.47,0,0,1,1.44.25,3.78,3.78,0,0,1,1.44.81,2.69,2.69,0,0,0,.69-1.25,1.87,1.87,0,0,1,.68-1.12,3,3,0,0,1-1.5.81,4.3,4.3,0,0,1-1.75,0,2.48,2.48,0,0,1-1.43-.88A2.28,2.28,0,0,1,345,74.5a3.1,3.1,0,0,1-2.44-.44,4.86,4.86,0,0,1-1.5-1.87,9,9,0,0,1-.75-2.63,11.58,11.58,0,0,1-.06-2.68,19.12,19.12,0,0,1,3.31,1.56,12.65,12.65,0,0,0,3.31,1.31A14.14,14.14,0,0,0,343,66.06a11.56,11.56,0,0,0-5.13-1.56,30.89,30.89,0,0,1,.44,4.25,37.55,37.55,0,0,1-.06,5.75,3.11,3.11,0,0,0-2.31.56,4.47,4.47,0,0,0-1.25,1.69,13.4,13.4,0,0,0-.75,2.19,10.82,10.82,0,0,1-.82,2.18.8.8,0,0,0,.19.57,1,1,0,0,0,.44.25l.5.12c.16,0,.25.19.25.44.41-.33.87-.67,1.37-1s.67-1,.5-1.88a2.66,2.66,0,0,1,1,1.69,8.41,8.41,0,0,1,0,2.13c-.08.79-.16,1.67-.25,2.62a9.89,9.89,0,0,0,.25,3.06,21,21,0,0,1-7.62,2.44,59.53,59.53,0,0,1-8.88.5q-4.62-.06-9.25-.37t-8.87-.19c-2.09.08-4.15.15-6.19.19a10.43,10.43,0,0,1-5.19-1.07,11.32,11.32,0,0,1-2.93.88,13.34,13.34,0,0,1-3.69,0q-.25-12.25-1.63-24.12t-2.25-25.13a.9.9,0,0,1,.75.06,1.26,1.26,0,0,1,.38.5.78.78,0,0,0,.37.44,1.22,1.22,0,0,0,.88-.13,1.52,1.52,0,0,0,.75-1.06,2.55,2.55,0,0,0-.19-1.44,3.65,3.65,0,0,0-.94-1.31,1.74,1.74,0,0,0-1.5-.43c0-.59.17-1,.5-1.13a8.55,8.55,0,0,1,1.07-.44,3.75,3.75,0,0,0,1-.5c.29-.2.39-.6.31-1.19-.75-.66-1.09-.37-1,.88a21.26,21.26,0,0,1-1.75-7.44c-.17-2.7-.21-5.54-.13-8.5s.13-6,.13-9.06a42.33,42.33,0,0,0-1-9.12,26.78,26.78,0,0,1,4.75-.44c1.91,0,3.87-.11,5.87-.19s3.94-.21,5.82-.37A16.87,16.87,0,0,0,301.37.5a2.17,2.17,0,0,0,2.19.69,2.71,2.71,0,0,1,2.44.69c.75,0,1.73-.07,2.94-.19s2.47-.23,3.81-.31a24.31,24.31,0,0,1,4,.06,9.74,9.74,0,0,1,3.5.94,4.7,4.7,0,0,1,1.25.87c.33.33.64.65.94.94a4.44,4.44,0,0,0,1,.75,3.19,3.19,0,0,0,1.56.31c.16,1.08.33,2.13.5,3.13a12.75,12.75,0,0,1,0,3.5c0,.33.06.48.19.43a1.42,1.42,0,0,0,.43-.25,2.6,2.6,0,0,1,.57-.31.71.71,0,0,1,.68.13,11.45,11.45,0,0,0-.68,5c.12,1.83.31,3.73.56,5.68s.46,3.92.62,5.88a16.09,16.09,0,0,1-.5,5.68,5.06,5.06,0,0,1-1.43-2.74,27.82,27.82,0,0,1-.44-3.44,26.08,26.08,0,0,0-.5-3.56,5.27,5.27,0,0,0-1.88-3,7.66,7.66,0,0,0-3.5-1l-3.81-.26a13.33,13.33,0,0,1-3.31-.62,3.38,3.38,0,0,1-2.13-2,6,6,0,0,1-2.81,1.56,9.19,9.19,0,0,0-2.94,1.32,44.75,44.75,0,0,1-.25,4.5c-.16,1.66-.29,3.31-.37,4.93a19.17,19.17,0,0,0,.25,4.5A5.11,5.11,0,0,0,306,37.5a8.93,8.93,0,0,1,4.69-1c1.7.08,3.39.21,5.06.38a24.15,24.15,0,0,0,4.81,0,5.78,5.78,0,0,0,3.94-2.26,2.69,2.69,0,0,1,1.87,1.94,7,7,0,0,1,.07,3.06,11.71,11.71,0,0,1-1.13,3.19A6,6,0,0,1,323.62,45c-.16.83,0,1.25.5,1.25A.81.81,0,0,1,325,47a2.67,2.67,0,0,0,1-1.5c.41.92.73,1.56.94,1.94s1,.35,2.31-.06c.58,1.16.54,2.08-.13,2.74a20.68,20.68,0,0,0-1.75,2,5.25,5.25,0,0,0,1.57,2.13,2,2,0,0,0,2.31.25,6.16,6.16,0,0,0,1.5,2.75,5.07,5.07,0,0,1,1.25,3,3.49,3.49,0,0,0,1.06-1.44,6.12,6.12,0,0,0,.38-1.75c0-.62.1-1.27.18-1.94a5.18,5.18,0,0,1,.75-2c.59-.16,1-.08,1.13.26s.58.41,1.25.24a16.92,16.92,0,0,1-.81-4.68c-.05-1.54-.09-3-.13-4.38a15.69,15.69,0,0,0-.56-3.81A6.88,6.88,0,0,0,335,37.5a16.86,16.86,0,0,0,.5-3.06,5,5,0,0,1,.87-2.69,4,4,0,0,1,3.38,0c.5-2.83-.63-3.92-3.38-3.25a.68.68,0,0,0-.75.5,4.81,4.81,0,0,0-.12,1.12q0,.63-.06,1.26a1.15,1.15,0,0,1-.44.87,16.9,16.9,0,0,1-2.63-.69,16.76,16.76,0,0,0-2.62-.68,12.24,12.24,0,0,0,.56-2.94,13.53,13.53,0,0,0-.12-2.56,21.3,21.3,0,0,0-.57-2.57c-.25-.87-.5-1.85-.75-2.93a2.57,2.57,0,0,0,1.38.5q-.75-3.63-1.38-7.44a58.42,58.42,0,0,0-2-8.19,51.75,51.75,0,0,1,8.63,3.63,27.14,27.14,0,0,1,7.31,5.56,21.35,21.35,0,0,1,4.56,7.75,19.27,19.27,0,0,1,.38,10.06,1.38,1.38,0,0,0,.5,1.44,1.41,1.41,0,0,1,.5,1.43,7.69,7.69,0,0,1-1.69,3.32c-.79.87-1.6,1.73-2.44,2.56a18.22,18.22,0,0,0-2.25,2.75A8.45,8.45,0,0,0,341.12,47a32,32,0,0,0,4.44,3.19,27.07,27.07,0,0,1,4.56,3.43,35.06,35.06,0,0,1,2.82,5.69,30,30,0,0,1,1.68,6.38,25.37,25.37,0,0,1,.13,6.69A20.91,20.91,0,0,1,353,78.75a2.16,2.16,0,0,1-1.56.31,4.12,4.12,0,0,1-1.32-.81c-.5.5-.46.86.13,1.06a3.69,3.69,0,0,1,1.37.81c-.25.76-.54.86-.87.32s-.67-.82-1-.82a4.2,4.2,0,0,1-.69,4,33.59,33.59,0,0,1-2.69,2.76,2.68,2.68,0,0,1-2.12-1.76,12.65,12.65,0,0,1-.75-2.12c.25-.33.46-.39.62-.19a8.93,8.93,0,0,1,.57.81,10.39,10.39,0,0,0,.68,1A.78.78,0,0,0,346.37,84.38Zm-62.62-27.5c-.17.66-.06,1.08.31,1.24a1.45,1.45,0,0,0,1.19,0,1.54,1.54,0,0,0,.87-.74c.17-.34,0-.63-.5-.88,0,.33-.21.48-.62.44S284.16,56.88,283.75,56.88Zm1,7.12a1.87,1.87,0,0,0,.5-1.38c0-.58-.34-.91-1-1a1.28,1.28,0,0,0-.38,1.38A1.53,1.53,0,0,0,284.75,64Zm1.87-30.38h-1.37a5.71,5.71,0,0,1-.25,3,4.84,4.84,0,0,0-.25,2.76,3.41,3.41,0,0,0,1.94-2.5A4.53,4.53,0,0,0,286.62,33.62Zm5.63-7.5a2.93,2.93,0,0,1-1.88-.5,3.49,3.49,0,0,1-1.06,1.69,5.75,5.75,0,0,1-1.44.88l-1.5.62a2.16,2.16,0,0,0-1.12,1.07,2,2,0,0,0,1.19-.26c.2-.16.43.09.68.76-.75.58-1,1.12-.68,1.62a6.59,6.59,0,0,1,.68,2.12c.75-.33,1.52-.7,2.32-1.12a8.87,8.87,0,0,0,2.12-1.56,4.26,4.26,0,0,0,1.19-2.25A5.4,5.4,0,0,0,292.25,26.12Zm-5.63,55.5H288a3,3,0,0,1,.37-1.31q.25-.3-.75-.69c-.08.5-.31.8-.68.88S286.46,81,286.62,81.62Zm5.25-43.24a4.59,4.59,0,0,1,1.75.5c.75.33,1.25.16,1.5-.5-.33-.59-.66-1.19-1-1.82a4.35,4.35,0,0,1-.37-2.44c-1.34-.5-2.31-.43-2.94.19A5.32,5.32,0,0,0,289.5,37a2.61,2.61,0,0,1-.88-.38,1.34,1.34,0,0,0-1-.12c.09.58,0,1-.31,1.12s-.35.59-.19,1.26a5.23,5.23,0,0,0,1.57.37,17.36,17.36,0,0,0,1.93.13,3.08,3.08,0,0,0,1.38-.26C292.33,39,292.29,38.71,291.87,38.38ZM288.5,77.25v1a1.44,1.44,0,0,1,.12.63.34.34,0,0,0,.38.37,1.11,1.11,0,0,1,.81-.75,3.58,3.58,0,0,1,1.13-.06,9.83,9.83,0,0,0,1.06.06,1,1,0,0,0,.75-.25.69.69,0,0,1-.44-.75,9.17,9.17,0,0,1,.19-1.06,1.45,1.45,0,0,0-.06-.94c-.13-.25-.48-.42-1.07-.5.25,1.17,0,2-.75,2.38A1.82,1.82,0,0,1,288.5,77.25Zm1.37-29.87a1.46,1.46,0,0,0,.32,1.06,1,1,0,0,1,.18.94,7.44,7.44,0,0,1,2.13.81,18,18,0,0,0,1.87.93,3.65,3.65,0,0,0,1.75.32A3,3,0,0,0,298,50.25a9.42,9.42,0,0,0,1.87,2.37c.67.59.84,1.55.5,2.88h1.88c.08-1.08.14-1.75.19-2a7.49,7.49,0,0,0-.19-1.75A3.27,3.27,0,0,0,303.5,51a1.68,1.68,0,0,1,1.62-.25,2.06,2.06,0,0,0-.18-1.75,7.35,7.35,0,0,1-.82-1.12,13.21,13.21,0,0,0-6.62,1.5,12.46,12.46,0,0,0-3.56-1.82A6,6,0,0,0,289.87,47.38Zm4.38-27.88h-2.38a3,3,0,0,0-.18,2.69,1.6,1.6,0,0,0,1.37.93,1.64,1.64,0,0,0,1.38-.87C294.81,21.67,294.75,20.75,294.25,19.5Zm-2,63c1.33-.17,2.12-.62,2.37-1.38a4.46,4.46,0,0,1-.75-1.37c-.16-.5-.71-.67-1.62-.5a5.41,5.41,0,0,0,0,3.25Zm0-65h2V15.12h-1.5A3.94,3.94,0,0,0,292.25,17.5Zm2,10.5c.16-.17.46-.19.87-.06s.88.25,1.38.37a3.37,3.37,0,0,0,1.44.07A1.51,1.51,0,0,0,299,27.5a8.29,8.29,0,0,0-.75-2.19c-.34-.62-1-.85-2.13-.69a6.51,6.51,0,0,1-1.5,1.76C293.87,27,293.75,27.58,294.25,28Zm1.37,4.75a2.69,2.69,0,0,0-.18-2,2.27,2.27,0,0,0-1.19-.87,1,1,0,0,1,.25.74,8.26,8.26,0,0,0,.06,1,2.15,2.15,0,0,0,.25.82A.88.88,0,0,0,295.62,32.75Zm.5,37a2.7,2.7,0,0,0,1.88-.5c.08-1.08-.54-1.54-1.88-1.37ZM298.5,8.5c0-.67,0-1.33-.06-2s-.53-.92-1.44-.75a2.09,2.09,0,0,0-.63,1.94Q296.63,8.62,298.5,8.5Zm.5,8.12c1.5.26,2.12-.37,1.87-1.87H299Zm2.37-10a1.65,1.65,0,0,0,0,1.26,1.62,1.62,0,0,0,.75.56,2.66,2.66,0,0,0,1.19.12c.46,0,.9-.06,1.31-.06.25-1.17,0-1.77-.75-1.81S302.29,6.62,301.37,6.62Zm1.88,63.13a1.81,1.81,0,0,0,1.31-.19,1,1,0,0,0,.44-.81,1.18,1.18,0,0,0-.38-.87,1.75,1.75,0,0,0-.87-.5A2.63,2.63,0,0,0,303.25,69.75Zm10.37-55.5a14.92,14.92,0,0,1-2-2.87c-.58-1.09-1.18-2.13-1.81-3.13a15.24,15.24,0,0,0-2.12-2.69,7.83,7.83,0,0,0-3.07-1.81,2.23,2.23,0,0,1-.37,1.37,1.78,1.78,0,0,0-.13,1.5,1.82,1.82,0,0,0,1.75.32c.59-.21,1-.15,1.13.18a3.74,3.74,0,0,0-1.69,2.32,26.48,26.48,0,0,0-.69,3.31c1.17.17,1.82-.06,1.94-.69a2.54,2.54,0,0,1,.44-1.18,6.53,6.53,0,0,0,2.81,2.81A4.44,4.44,0,0,0,313.62,14.25Zm17.63,47.87a9.08,9.08,0,0,0-4.63-4.06,24.81,24.81,0,0,0-6.56-1.56q-3.56-.37-7.37-.5a31.07,31.07,0,0,1-7.07-1,12.57,12.57,0,0,0-.81,4.38A42.4,42.4,0,0,0,305,64.5c.16,1.75.39,3.46.69,5.12s.56,3.13.81,4.38a32.78,32.78,0,0,0,5.44.06c1.87-.12,3.72-.23,5.56-.31s3.56-.1,5.19-.06a11.26,11.26,0,0,1,4.18.81,1.5,1.5,0,0,1,.88-1.31,2.16,2.16,0,0,0,1.12-1.07,1.6,1.6,0,0,0,.88,1.26,1.24,1.24,0,0,0,1.5-.38.85.85,0,0,0-.19-.88,1.74,1.74,0,0,0-.81-.31,4,4,0,0,1-.88-.19.74.74,0,0,1-.5-.5,2.48,2.48,0,0,0,1.57-1.31,6.89,6.89,0,0,0,.56-2.19c.08-.83.12-1.72.12-2.68S331.16,63,331.25,62.12ZM307.5,18a.77.77,0,0,0,.5-.56,2.7,2.7,0,0,0,.06-1,1.76,1.76,0,0,0-.37-.94.91.91,0,0,0-.69-.38,2,2,0,0,0-.31.69,5.1,5.1,0,0,0-.25,1.13,1.38,1.38,0,0,0,.18.94C306.79,18.12,307.08,18.17,307.5,18Zm-1,33.25a3,3,0,0,1,1.94.19,7.55,7.55,0,0,0,.87.31,2.35,2.35,0,0,0,1.06,0c-.16-.58-.08-1,.25-1.13s.38-.58.13-1.24a2.29,2.29,0,0,0-1.25-.44,3.49,3.49,0,0,0-1.44.18,2.63,2.63,0,0,0-1.12.76A2,2,0,0,0,306.5,51.25Zm2.37-3.87a2.78,2.78,0,0,0-.5-2.38H307a2.88,2.88,0,0,0,.12,1.94C307.37,47.4,308,47.54,308.87,47.38Zm4.25-36.5A2.43,2.43,0,0,0,314,9.31a2.89,2.89,0,0,0-.25-1.69,3,3,0,0,0-3.38-1.5,2.61,2.61,0,0,0,.32,2.94A5.6,5.6,0,0,0,313.12,10.88ZM317,83c.75.25,1.19.33,1.31.25s.48-.33,1.06-.75a.89.89,0,0,0-.25-.94.9.9,0,0,1-.25-.94H317Zm3.25,1.88c.66.16,1.08.1,1.25-.19s.54-.4,1.12-.31a2.78,2.78,0,0,0-.5-2.38C320.62,82,320,83,320.25,84.88Zm.5,4.24c.5.17.85.11,1.06-.18a1.58,1.58,0,0,0,.31-.94,1.6,1.6,0,0,0-.31-.94,1,1,0,0,0-1.06-.31c.08.75,0,1.23-.25,1.44S320.33,88.71,320.75,89.12Zm1-46.37a1,1,0,0,1,.94.19,1,1,0,0,0,.93.18,2.47,2.47,0,0,0,.5-2.06,15,15,0,0,1,0-2.68h-1.5a17.62,17.62,0,0,1-.62,2A5.22,5.22,0,0,0,321.75,42.75Zm1.37,44.5c.75.17,1.19,0,1.32-.56a5.39,5.39,0,0,0,.06-1.81h-1.38a1.65,1.65,0,0,0,0,2.37Zm1-9v1c.42.67.79.67,1.13,0s.58-1.17.75-1.5a.91.91,0,0,0-.94.25A.91.91,0,0,1,324.12,78.25ZM325,90.62c.91.17,1.37-.14,1.37-.93s-.46-1.11-1.37-.94Zm.5-6.24a3.16,3.16,0,0,0,.75,1.12,6.49,6.49,0,0,0,1.12.88,4.53,4.53,0,0,1,1.5-2.88c.42.83,1,1.11,1.69.81a2.36,2.36,0,0,1,2.06.07,1.2,1.2,0,0,0,.13-.57c0-.2.12-.31.37-.31a2.44,2.44,0,0,0-.43-1.62,2.69,2.69,0,0,0-1.19-.76,7.73,7.73,0,0,0-1.75-.31c-.67,0-1.29-.1-1.88-.19a2.55,2.55,0,0,1-1,2A4.15,4.15,0,0,0,325.5,84.38Zm3.37-45a9.67,9.67,0,0,1,1.44.87,2.52,2.52,0,0,1,.94,1.5,5,5,0,0,1-1.75,2.13A8.36,8.36,0,0,1,326.87,45c.67-1.08,1.19-1.92,1.57-2.5A5.57,5.57,0,0,0,328.87,39.38Zm2.38-14.76h1.87c.25-1.5-.37-2.12-1.87-1.87Zm.87-4.24H334a5.45,5.45,0,0,0-.06-1.82c-.13-.54-.57-.73-1.32-.56a10.75,10.75,0,0,0-.43,1A2.85,2.85,0,0,0,332.12,20.38Zm2.88,66v-2h-1.38C333.37,85.79,333.83,86.46,335,86.38Zm-1.38-23.76a1.38,1.38,0,0,1,1.19.44,3.47,3.47,0,0,1,.5,1.13c.13.46.25.89.38,1.31a1.35,1.35,0,0,0,.68.88c.34-.34.48-.63.44-.88a2.45,2.45,0,0,0-.25-.75c-.12-.25-.27-.54-.44-.87a2.06,2.06,0,0,1-.12-1.26c.41-1.08,1-1.62,1.69-1.62a7,7,0,0,1,2.56.62,1.6,1.6,0,0,0-.25-2.06,5.22,5.22,0,0,0-2.13-1.18,4.08,4.08,0,0,1-.93,1.24,6.86,6.86,0,0,1-1.25.88,6.23,6.23,0,0,0-1.25.88A2.79,2.79,0,0,0,333.62,62.62Zm3.75-41.24c.42-.5.52-.77.32-.82s-.32-.39-.32-1.06c-.91-.17-1.37.15-1.37.94S336.46,21.54,337.37,21.38Zm-1,14.24a2.61,2.61,0,0,0,2.25,1.69,4.08,4.08,0,0,0,3-.81V34.12a2.65,2.65,0,0,0-1.37-.68,3.71,3.71,0,0,0-1.69,0,3.13,3.13,0,0,0-1.44.75A2.35,2.35,0,0,0,336.37,35.62Zm7.13-13.74a1.76,1.76,0,0,1,.44-.94c.2-.21.22-.56.06-1.06a2,2,0,0,1-.81-.38c-.21-.17-.57-.17-1.07,0a4.74,4.74,0,0,0,.07,1.75C342.31,21.75,342.75,22,343.5,21.88Zm-1.38,39.74a2,2,0,0,1,1.32.38,1.81,1.81,0,0,0,1.56.12,1.49,1.49,0,0,0-.31-1.31,1.71,1.71,0,0,0-.94-.5,1.4,1.4,0,0,0-1,.31A1.65,1.65,0,0,0,342.12,61.62ZM345.37,75a2.2,2.2,0,0,1,1.19-.31,1.9,1.9,0,0,1,.75.25,2.07,2.07,0,0,0,.63.25,1.33,1.33,0,0,0,.81-.19,1.92,1.92,0,0,0-.5-1.19l-.75-.62a1.53,1.53,0,0,1-.5-.69c-.09-.25,0-.71.37-1.38a2.42,2.42,0,0,0-1.25-.43c-.5,0-1-.07-1.62-.07,0,1.34-.06,1.88-.19,1.63s-.56-.46-1.31-.63c0,.76.12,1.24.37,1.44a1.59,1.59,0,0,0,.82.38,2.47,2.47,0,0,1,.81.25C345.25,73.81,345.37,74.25,345.37,75Zm3.88-11.5V61.62c0-.58-.34-.87-1-.87a1.91,1.91,0,0,0-.63.81,2.76,2.76,0,0,0-.25,1.06,1,1,0,0,0,.44.82A1.77,1.77,0,0,0,349.25,63.5Zm0,9.12c2.25-.5,3.66-1.62,4.25-3.37a1.12,1.12,0,0,1-.81-.44,2,2,0,0,0-.57-.56,15.88,15.88,0,0,0-2.06,1.63A3.26,3.26,0,0,0,349.25,72.62Zm.87-10.5v1c.42,0,.59.13.5.38h1c0-.33.17-.46.5-.38v-1c-.41,0-.58-.16-.5-.5h-1C350.62,62,350.46,62.21,350.12,62.12Z"/><path class="cls-1" d="M381.37,21.88c.17.58.36.91.57,1a1.27,1.27,0,0,0,.68.06,2.76,2.76,0,0,0,.75-.25.8.8,0,0,1,.88.19,11.38,11.38,0,0,0-.31,3q.06,1.25.12,2.37t.06,2.25a12.51,12.51,0,0,1-.37,2.75c-.67-.17-.9-.5-.69-1s.1-.79-.31-.87a11.81,11.81,0,0,1-.38,3.74,11.7,11.7,0,0,1-1.5,3.57,8.34,8.34,0,0,1-2.56,2.56,4.78,4.78,0,0,1-3.56.63c-.17.5-.19.83-.06,1a1.64,1.64,0,0,0,.5.43,2,2,0,0,1,.5.44c.12.17.1.5-.07,1-.5.5-.91.48-1.25-.06a1.94,1.94,0,0,0-1.5-.94,2.13,2.13,0,0,0-.12,2.81,13.34,13.34,0,0,1,1.5,2.44,1.38,1.38,0,0,1-1.5.81c-.59-.12-1.21-.27-1.88-.43a3,3,0,0,0-1.62,1.87,10.89,10.89,0,0,0-.44,2.69c0,1,0,1.89,0,2.81a4.44,4.44,0,0,1-.31,2.13,4.77,4.77,0,0,1-3.88-1.69,9.14,9.14,0,0,1-1.5-4,29,29,0,0,1-.25-5.5c.09-2,.09-4.15,0-6.31-.16-3.76-.37-7.42-.62-11s-.38-6.71-.38-9.38a1.17,1.17,0,0,1,1.38-.31q.75.31,1.5-.69a1.09,1.09,0,0,0-.81-.44l-1.13-.12a1.25,1.25,0,0,1-.87-.44c-.21-.25-.23-.71-.07-1.38.25-.24.46-.35.63-.31a1.14,1.14,0,0,1,.44.25l.43.44a.93.93,0,0,0,.88.12,1.74,1.74,0,0,0-.94-1.18q-.69-.32-1.44-.69a3.45,3.45,0,0,0,.07-1.19c-.05-.45-.09-.89-.13-1.31a1.79,1.79,0,0,1,.13-1c.12-.25.43-.33.93-.25a4.61,4.61,0,0,1-1.18-2.44,14,14,0,0,1-.13-2.68c0-.92.1-1.86.19-2.82a9.92,9.92,0,0,0-.25-3.06q3.5.12,7.5.62c2.66.34,5.39.69,8.19,1.07s5.66.69,8.62.93a76.59,76.59,0,0,0,8.81.26,18.29,18.29,0,0,1,.13,4.68c-.17,1.38-1.17,2.19-3,2.44a1.81,1.81,0,0,0,.12,1.56,2,2,0,0,1,.38,1.32,1.67,1.67,0,0,1-1.38.43c-.58,0-1.21-.06-1.87-.06a4.16,4.16,0,0,1-.5,2.81,7.63,7.63,0,0,1-1.94,2.25,10,10,0,0,1-2.62,1.5A7.11,7.11,0,0,1,381.37,21.88Zm-15.62,3.87a1.43,1.43,0,0,0-.5-1.44,1.37,1.37,0,0,1-.5-1.43,2.35,2.35,0,0,1-1.5,0c-.67-.17-1,0-.88.5a2.11,2.11,0,0,1,1.57,1.24A2,2,0,0,0,365.75,25.75Zm-1.5,1.87a.88.88,0,0,0,.25.94.91.91,0,0,1,.25.94,1.65,1.65,0,0,0,1.87-1.88,1.65,1.65,0,0,0-2.37,0Zm57,10.38a18.08,18.08,0,0,0-.5,5.19c.08,1.71.19,3.37.31,5s.21,3.23.25,4.81a14.78,14.78,0,0,1-.56,4.5q-9.37-.87-18.38-1.19t-15.75-.69a32.29,32.29,0,0,0-1,8,33.7,33.7,0,0,0,1,8.13c0,.25.09.4.25.44l.5.12a1,1,0,0,1,.44.25.76.76,0,0,1,.19.56,27.37,27.37,0,0,1,7.69-.43q4.05.32,8.31.87c2.83.38,5.71.71,8.62,1a44.48,44.48,0,0,0,8.63.06,1.7,1.7,0,0,0,1.31.76,15.81,15.81,0,0,0,2,.12q1.06,0,2.13.06a3.78,3.78,0,0,1,1.68.44,14.12,14.12,0,0,0-.5,4.62c.09,1.67.19,3.36.32,5.07s.18,3.37.18,5a9,9,0,0,1-1,4.31,76.16,76.16,0,0,1-7.87-.38c-2.5-.24-5-.54-7.38-.87l-7.12-1a69.19,69.19,0,0,0-7-.63q-9.63-.36-17.38-.62c-5.16-.17-10.46-.42-15.87-.75,0-1.75,0-3.44-.06-5.06s-.11-3.33-.19-5.13-.15-3.75-.19-5.87-.06-4.52-.06-7.19a8.3,8.3,0,0,1,2.31-2,19.74,19.74,0,0,1,3.06-1.5,15.87,15.87,0,0,1,3.25-.88,7.87,7.87,0,0,1,2.75,0,2.79,2.79,0,0,0,1.13-.62q.38-.37.75-.69a1.76,1.76,0,0,1,.94-.37,3.67,3.67,0,0,1,1.56.31c.25-1.08.19-1.83-.19-2.25a4.27,4.27,0,0,0-1.31-1,4.27,4.27,0,0,1-1.31-1c-.38-.42-.4-1.21-.07-2.38a2.35,2.35,0,0,1,1.63.76A5.45,5.45,0,0,0,380,57a4.39,4.39,0,0,0-.31-3c-.46-.92-.94-1.81-1.44-2.69a9.23,9.23,0,0,1-1.06-2.87,5.65,5.65,0,0,1,.81-3.69c.5-.5.83-.6,1-.31a1.66,1.66,0,0,0,1,.68c.41-.33.46-.81.12-1.43a1.5,1.5,0,0,1,.25-1.81c.75-.26,1.15-.11,1.19.43s.27.86.69.94a2.29,2.29,0,0,0,.37-1.87,4.88,4.88,0,0,1,.13-2.38,16.89,16.89,0,0,1,7.87-2.62,52.93,52.93,0,0,1,9.32.06c3.29.29,6.72.67,10.31,1.12A63.6,63.6,0,0,0,421.25,38Zm-56.5-2.38q.87,3.26,4.75,3.88a4.91,4.91,0,0,0-.31-2.44,11.94,11.94,0,0,0-1.07-1.81c-.66,0-1.31,0-1.93-.06A1.78,1.78,0,0,0,364.75,35.62Zm4.25,37a3.09,3.09,0,0,0-1.81.19c-.3.21-.78.15-1.44-.19V75a5.89,5.89,0,0,0,4.75,0,11.31,11.31,0,0,1-.19-2.25,3.45,3.45,0,0,1,1.06-1.5.77.77,0,0,1,.57.19,3.38,3.38,0,0,1,.31.37,2.59,2.59,0,0,0,.31.38c.13.12.35.14.69.06V69.88a12.89,12.89,0,0,0-3,.74A1.94,1.94,0,0,0,369,72.62Zm6.25-40.74c-.42-1.5-1.13-2.34-2.13-2.5A35.39,35.39,0,0,0,369,29a3.71,3.71,0,0,1,.31-2.38c.29-.33,1-.33,2.06,0V24.75c0-.58.34-.87,1-.87a3.66,3.66,0,0,0,1.94,1.06,16.18,16.18,0,0,0,2.81-.19,1.32,1.32,0,0,0-.68-1.25,4.53,4.53,0,0,0-1.57-.5c-.58-.08-1.16-.19-1.75-.31a1.86,1.86,0,0,1-1.25-.81c.17-1.09.29-2.3.38-3.63a3.73,3.73,0,0,0-.88-3,7,7,0,0,1-.68,3.5c-.55,1.17-1.11,2.37-1.69,3.63a17.37,17.37,0,0,0-1.31,4,8.08,8.08,0,0,0,.43,4.5,11.17,11.17,0,0,1,4.13-.57A5.56,5.56,0,0,1,375.25,31.88Zm-1.5-18.5a1.9,1.9,0,0,0,.5-1.38c0-.58-.34-.92-1-1a1.75,1.75,0,0,0-.44,1.44C372.85,13.06,373.16,13.38,373.75,13.38Zm1.5,61.24h1.37a2.28,2.28,0,0,0,.5-1.68c0-.79-.33-1.19-1-1.19a5.3,5.3,0,0,0-1.25,1.13C374.46,73.38,374.58,74,375.25,74.62Zm3.25-50.37c-.09-.33,0-.54.25-.63a4.81,4.81,0,0,1,.81-.18,1.56,1.56,0,0,0,.69-.25c.16-.13.21-.4.12-.81a2.43,2.43,0,0,0-1.43-.07,2.32,2.32,0,0,0-1.07.57.7.7,0,0,0-.25.74C377.71,23.88,378,24.08,378.5,24.25Zm.5,39.37a1,1,0,0,0,1,.5h3.12a1.33,1.33,0,0,1,1.13.5,1.47,1.47,0,0,0-.69-1.24,4,4,0,0,0-1.62-.69,4.29,4.29,0,0,0-1.82,0A1.36,1.36,0,0,0,379,63.62Zm2.87-13.74a13.91,13.91,0,0,0-.31-1.63c-.12-.5-.52-.75-1.19-.75a8.31,8.31,0,0,0,.19,1.81C380.69,49.86,381.12,50,381.87,49.88Zm.88,30.87V78.38h-1.38c-.16.74-.08,1.27.25,1.56A8.15,8.15,0,0,0,382.75,80.75ZM384.62,84a3,3,0,0,0,2-.38,1.93,1.93,0,0,0-2-2c-.41.5-.52.88-.31,1.13A2,2,0,0,1,384.62,84Zm-.37-9c.41,0,.58.23.5.69s0,.73.37.81l.88-.88q.38-.36.12-1.5C385,74,384.33,74.25,384.25,75ZM425,4.88c.08,1,.21,2.23.37,3.68s.32,3,.44,4.75.21,3.44.25,5.19,0,3.38-.06,4.88q-4.5-.75-8.81-1.13c-2.88-.25-5.75-.46-8.63-.63s-5.77-.35-8.69-.56-5.91-.56-9-1.06c0-.25.17-.38.5-.38a2.88,2.88,0,0,0,.88-.12,14.06,14.06,0,0,1,3.69-4.5,49,49,0,0,1,4.81-3.44c1.66-1,3.27-2.08,4.81-3.12a15.71,15.71,0,0,0,3.81-3.56q3.75.36,6.5.56c1.84.12,4.25.23,7.25.31q.51.25.69.06a.88.88,0,0,0,.25-.5,1.34,1.34,0,0,1,.19-.5C424.33,4.69,424.58,4.71,425,4.88ZM398.87,43.75q0-.75.63-.81c.41,0,.54-.4.37-1.06a1.77,1.77,0,0,1-.81-.44c-.21-.21-.56-.23-1.06-.06-.34.66-.44,1.14-.31,1.43A2.37,2.37,0,0,0,398.87,43.75Zm4.75,1a8.12,8.12,0,0,0-.37-1.56c-.17-.46-.67-.61-1.5-.44a1.17,1.17,0,0,0-.56,1.06,1.5,1.5,0,0,0,.43.94,1.53,1.53,0,0,0,.94.44A1.28,1.28,0,0,0,403.62,44.75Zm-.87,44.5a4.33,4.33,0,0,1,1.44,0c.54.08.68-.21.43-.87a.39.39,0,0,0-.37-.44l-.75-.13a1.37,1.37,0,0,1-.63-.25c-.16-.12-.21-.35-.12-.68a5.73,5.73,0,0,1,1-.63,2.57,2.57,0,0,0,.87-.75,1,1,0,0,1-.93.06,2.71,2.71,0,0,1-.57-.44,7.26,7.26,0,0,0-.56-.5.92.92,0,0,0-.81-.12c-.42.5-.56.92-.44,1.25a4.2,4.2,0,0,0,.56,1c.25.33.5.69.75,1.06A1.7,1.7,0,0,1,402.75,89.25ZM403.12,48c.67-.17,1.09-.1,1.25.19s.54.39,1.13.31a5.29,5.29,0,0,1,.25-.81c.08-.21.33-.27.75-.19a2,2,0,0,0-2.38-1.88,3,3,0,0,0-.5,1.19A2.72,2.72,0,0,1,403.12,48Zm1.5-35.12h1.88c0-1.09-.63-1.71-1.88-1.88Zm3.75,37.5a15.2,15.2,0,0,0-.12-1.94c-.09-.63-.5-.94-1.25-.94a4.86,4.86,0,0,0-.31,2.06C406.73,50.27,407.29,50.54,408.37,50.38Zm4.75-2.88c.59.58,1.13.77,1.63.56a3.31,3.31,0,0,0,1.37-1.12,12.4,12.4,0,0,0,1.19-1.88c.38-.7.73-1.31,1.06-1.81a5.45,5.45,0,0,0-3.31,1.44A9.71,9.71,0,0,0,413.12,47.5Zm3.38-37V12a3.53,3.53,0,0,0,2.5.44c1.08-.13,1.66-.61,1.75-1.44A4.28,4.28,0,0,0,416.5,10.5Zm4.25,71.12c-.09.59,0,1,.25,1.19a1,1,0,0,0,.94.19,2.78,2.78,0,0,0,1.06-.5,1.55,1.55,0,0,0,.62-.88c-.5-.5-.91-.58-1.25-.24A1.68,1.68,0,0,1,420.75,81.62Z"/><path class="cls-1" d="M506.37,78.12a4.64,4.64,0,0,0,.44,3.19,26.94,26.94,0,0,0,2,3.44l2.37,3.5A14.88,14.88,0,0,1,513,91.88q-4.87.24-11.25.24t-12,.26V90.5a1.19,1.19,0,0,0-.88.06,1.13,1.13,0,0,0-.37.56,2.18,2.18,0,0,1-.32.63c-.12.17-.39.21-.81.13q-2.13-4.14-4.12-8.44t-3.94-8.63q-1.94-4.31-4.06-8.5t-4.5-8.06a19.41,19.41,0,0,0-5.07.13,3.55,3.55,0,0,0-2.93,2.24q-.13,4.38,0,8.69t.18,8.5c0,2.8,0,5.46-.18,8a44.75,44.75,0,0,1-1,7.07,28.67,28.67,0,0,1-5.13.81l-5.56.37c-1.88.13-3.73.27-5.56.44a45.71,45.71,0,0,0-5.13.75q-.5-9.75-.25-21t.56-22.87q.31-11.64.32-23.19T440,6a3.64,3.64,0,0,1,2.31-.31c1,.12,1.94.21,2.94.25a9,9,0,0,0,2.68-.25q1.19-.32,1.44-2.07a4.11,4.11,0,0,1-4,1.38,33.67,33.67,0,0,0-5-.38,1.86,1.86,0,0,0-.19-.87,2.49,2.49,0,0,0-.43-.63,1.45,1.45,0,0,1-.38-.68,2.11,2.11,0,0,1,.13-1.19,121.55,121.55,0,0,1,12.25-.13q6.24.25,12.31.63t11.69.56A52.83,52.83,0,0,0,486,1.75a2.72,2.72,0,0,1,1.31.75c.29.33.64.71,1.06,1.12a34.09,34.09,0,0,1,7.81,2.5,21.17,21.17,0,0,1,5.94,4.13,27,27,0,0,1,3.75,5.25,33.44,33.44,0,0,1,2.88,6.94A32.14,32.14,0,0,1,510,30.56a26.55,26.55,0,0,1-1.25,8.69,11.45,11.45,0,0,1-1.44,2.69,31.74,31.74,0,0,1-2.5,3.18q-1.44,1.64-2.94,3.13a28.68,28.68,0,0,1-2.62,2.37,8.09,8.09,0,0,1-1.63.94l-1.44.63a3.27,3.27,0,0,0-1.12.81,2.57,2.57,0,0,0-.56,1.38,5.1,5.1,0,0,0,.5,3.18q.75,1.44,1.68,2.88c.63,1,1.19,1.89,1.69,2.81a4.13,4.13,0,0,1,.38,3c.5.67,1.12,1.48,1.87,2.44s1.48,2,2.19,3a34.52,34.52,0,0,1,1.87,3.06c.54,1,.94,1.79,1.19,2.37a.53.53,0,0,1-.19.63,6.42,6.42,0,0,0-.5.44c-.12.12-.12.19,0,.19A8.57,8.57,0,0,0,506.37,78.12ZM442.37,33a.53.53,0,0,0,.75-.12,1.67,1.67,0,0,0,.25-.94,1.93,1.93,0,0,0-.25-1,.5.5,0,0,0-.75-.19Zm4.63.5a1.74,1.74,0,0,0,.75,1.38,3.39,3.39,0,0,0,1.5.43c.58,0,1.22.07,1.93.07h2.07A1.56,1.56,0,0,0,452.5,34a4.87,4.87,0,0,0-1.82-.69,9,9,0,0,0-2.06-.12A5.11,5.11,0,0,0,447,33.5Zm3.87,57.38a3.89,3.89,0,0,0,.25-2.44,13.84,13.84,0,0,1-.25-2.32h-1.5a4.2,4.2,0,0,0,.06,2.57A4.11,4.11,0,0,0,450.87,90.88Zm.5-7.5a.89.89,0,0,0,.94-.26.91.91,0,0,1,.94-.24c0-.67,0-1.23-.07-1.69s-.35-.69-.93-.69a3.89,3.89,0,0,1-.69,1.12A2.07,2.07,0,0,0,451.37,83.38ZM453.75,5.5a16.48,16.48,0,0,1,2.56.25A4.53,4.53,0,0,1,458.87,7a3.44,3.44,0,0,1,1.56-.88c.63-.16.9-.66.82-1.5-1.34-.16-2.71-.31-4.13-.43A3.67,3.67,0,0,0,453.75,5.5Zm1.87,75.88V77.62h-1.5c.08.92.13,1.8.13,2.63S454.7,81.46,455.62,81.38Zm0-20.38a1.73,1.73,0,0,0,.38-1.5c-.09-.67-.55-1-1.38-.88a1.73,1.73,0,0,0-.44,1.63Q454.38,61.26,455.62,61Zm1.88-22.75a1,1,0,0,0,.68-.44,1.09,1.09,0,0,1,.69-.43,5.46,5.46,0,0,0-4.25-3.88,5.18,5.18,0,0,1,.63,1.62,8,8,0,0,0,.31,1.32,2.9,2.9,0,0,0,.56,1A3.41,3.41,0,0,0,457.5,38.25Zm-2.88,36.5a.7.7,0,0,1,.5,1,1.62,1.62,0,0,0,1.44-.63c.29-.41.6-.83.94-1.24h-1.88A.91.91,0,0,0,454.62,74.75Zm1.88,9.5a1.87,1.87,0,0,0,.43-1.5c0-.67-.48-1-1.31-.87a1.22,1.22,0,0,0-.37,1.5A1.54,1.54,0,0,0,456.5,84.25Zm0-37.37c.5,0,.66.29.5.87a2.79,2.79,0,0,0,1.93-.13c.46-.24.61-.83.44-1.74H457.5C456.91,45.88,456.58,46.21,456.5,46.88Zm2.37,36a1.54,1.54,0,0,1,1.44,1,3,3,0,0,0,.94,1.37c.33-.33.47-.6.43-.81a1.87,1.87,0,0,0-.31-.69l-.5-.75a1.26,1.26,0,0,1,0-1.12C459.62,81.71,459,82,458.87,82.88Zm1.5-23.26a2.39,2.39,0,0,0,2.38-1c-.5,0-.67-.29-.5-.87A1.66,1.66,0,0,0,460.37,59.62Zm.88-14.74a.88.88,0,0,1,.37-.69l.69-.57a.92.92,0,0,0,.37-.56c0-.2-.1-.39-.43-.56a1.47,1.47,0,0,1-.5.5,5.44,5.44,0,0,0-.69.56,1.26,1.26,0,0,0-.38.69Q460.62,44.63,461.25,44.88Zm20.37-4.26a26.31,26.31,0,0,0,2.81-2.06,10.06,10.06,0,0,0,2.38-2.87,12.35,12.35,0,0,0,1.31-3.94,15,15,0,0,0-.25-5.37,9,9,0,0,0-4.25-3.5,21.58,21.58,0,0,0-6.44-1.63,41.94,41.94,0,0,0-7.18-.13,33.26,33.26,0,0,0-6.38,1,53.32,53.32,0,0,1,.56,10,54.38,54.38,0,0,0,.44,9.5q3.87-.61,8.13-.87T481.62,40.62ZM466.5,4.12V5.5c.41,0,.89,0,1.43.06s.69-.27.44-.94a1.67,1.67,0,0,1-.81-.43C467.35,4,467,4,466.5,4.12Zm4.75,5.76c.5-.09.66-.48.5-1.19a2.82,2.82,0,0,1,0-1.69h-1.5a2.31,2.31,0,0,1,.06.94,9.49,9.49,0,0,0-.06,1,1.49,1.49,0,0,0,.18.75C470.56,9.9,470.83,10,471.25,9.88Zm6.62,5.62a2.7,2.7,0,0,0,1.88-.5c.08-1.08-.55-1.54-1.88-1.38Zm2.38,59.75a11.09,11.09,0,0,1,3.18.87,14.51,14.51,0,0,0,3.94,1,3.47,3.47,0,0,0,.5-2.37,8,8,0,0,0-3.62-1.06,6.45,6.45,0,0,0-2.19.25A3.45,3.45,0,0,0,480.25,75.25Zm1.37-62.13V15a3.45,3.45,0,0,0,.94-.56,5.91,5.91,0,0,0,1-1,1.75,1.75,0,0,0,.44-1c0-.29-.3-.52-.88-.69C483.37,12.92,482.87,13.38,481.62,13.12Zm6.75,30.38V41.62a4,4,0,0,0-2.37-.5A2.45,2.45,0,0,0,488.37,43.5Zm.38,31.25v2a3.43,3.43,0,0,1,2.37-.13c.75.26,1.4.44,1.94.57a1.57,1.57,0,0,0,1.37-.25c.38-.29.57-1.15.57-2.56a15.73,15.73,0,0,0-3.25-.13C491.08,74.33,490.08,74.5,488.75,74.75ZM495.37,35a3.17,3.17,0,0,0,1.06-2.38,12.83,12.83,0,0,1,.44-2.87,2.26,2.26,0,0,0-1.56,1,3.07,3.07,0,0,0-.44,1.56,6.2,6.2,0,0,0,.19,1.57C495.18,34.38,495.29,34.75,495.37,35Zm2,38.88a2,2,0,0,1,.38-.82c.16-.2.16-.56,0-1.06-.59-.33-.94-.44-1.07-.31s-.56.06-1.31-.19c-.17.92,0,1.52.38,1.81A3.49,3.49,0,0,0,497.37,73.88ZM495.87,44c-.17.75,0,1.17.56,1.25a2.28,2.28,0,0,1,1.32.63V43.5A3,3,0,0,0,495.87,44Z"/></g></g></svg>