<svg xmlns="http://www.w3.org/2000/svg" viewBox="0 0 492.87 98"><defs><style>.cls-1{fill:#373736;}</style></defs><g id="レイヤー_2" data-name="レイヤー 2"><g id="レイヤー_1-2" data-name="レイヤー 1"><g id="レイヤー_2-2" data-name="レイヤー 2"><g id="レイヤー_1-2-2" data-name="レイヤー 1-2"><g id="SERVICE"><path class="cls-1" d="M0,84.25q3.38-3.12,6.44-6.56T12.75,71a28.8,28.8,0,0,0,6,3.44,36,36,0,0,0,6.32,2c2.12.46,4.27.81,6.43,1.06s4.29.46,6.38.63a2,2,0,0,1,2.06-.81,3.07,3.07,0,0,0,2.19-.19A8.25,8.25,0,0,0,46.25,73a10.59,10.59,0,0,0,1.07-5.75,8.34,8.34,0,0,0-2.38-5c-1.37-1.41-3.4-2-6.06-1.75-.42-.33-.56-.64-.44-.93a2.55,2.55,0,0,1,.56-.82,3.37,3.37,0,0,0,.57-.68c.12-.21,0-.48-.32-.82-.5-.08-.83,0-1,.25a2.84,2.84,0,0,0-.37.88,7.08,7.08,0,0,0-.19,1.12,2.21,2.21,0,0,1-.31,1q-6.51-.75-12.19-1.5a37.85,37.85,0,0,1-11.06-3.25c.08-.58,0-1-.31-1.12s-.32-.58-.07-1.25q-.62-.12-.75.06a3.33,3.33,0,0,0-.25.5,1.8,1.8,0,0,1-.25.5q-.12.2-.75-.06a16.05,16.05,0,0,1-6-7.44A28.82,28.82,0,0,1,3.57,36.82,36.6,36.6,0,0,1,4.75,26.25,23.89,23.89,0,0,1,9,17.38a24.48,24.48,0,0,1,2.88-2.88A50.75,50.75,0,0,1,16,11.32q2.25-1.56,4.5-2.82a36.55,36.55,0,0,1,4.13-2,27.43,27.43,0,0,1,7.25-1.75,24.52,24.52,0,0,1,7,.25,21.38,21.38,0,0,1,.62,2.63,13.29,13.29,0,0,0,.75,2.62c.42.09.69.05.82-.12a1.15,1.15,0,0,1,.56-.38,1.16,1.16,0,0,0,.56-1,3.12,3.12,0,0,0-.37-1.06c-.21-.37-.42-.77-.63-1.19A1.72,1.72,0,0,1,41.25,5c1.59.17,2.69.25,3.32.25A3.92,3.92,0,0,1,46.88,6.5a9.22,9.22,0,0,1,4.69-.25,8.56,8.56,0,0,1,3.31,1.63,11.26,11.26,0,0,1,2.37,2.69l2,3.06c.67-.33,1.36-.67,2.07-1a2.11,2.11,0,0,0,1.18-1.88c.67.42,1.32.82,1.94,1.19s1.27.77,1.94,1.19a1.06,1.06,0,0,1-.13.87,3.31,3.31,0,0,1-.62.5,2.85,2.85,0,0,0-.63.57,1.09,1.09,0,0,0-.12.93c.25.34.48.42.69.25s.47.05.81.63a51.4,51.4,0,0,1-5.63,5.31,32.55,32.55,0,0,0-5.38,5.56A30.28,30.28,0,0,1,52,26.32a30.16,30.16,0,0,0-3.42-1.44,22.16,22.16,0,0,0-3.94-.94,17.35,17.35,0,0,0-4.88.06c-.75.17-1.16,0-1.25-.5a3,3,0,0,0-.62-1.37c-.42.08-.59.37-.5.87a.81.81,0,0,1-.5,1c-3.34-.75-5.94-.43-7.81.94a8.94,8.94,0,0,0-3.57,5.25,11.23,11.23,0,0,0,.5,6.56,8.56,8.56,0,0,0,4.25,4.88l1.5-1.5a14.94,14.94,0,0,0,4.38,1.25c1.41.17,2.85.27,4.31.31s2.88,0,4.25,0a19.07,19.07,0,0,1,4.06.31,28.67,28.67,0,0,1,10.5,3.88,22.78,22.78,0,0,1,7.44,7.37,26,26,0,0,1,3.63,10.32,35.39,35.39,0,0,1-.69,12.56,16.54,16.54,0,0,1-1.31,3.69,23.22,23.22,0,0,1-1.88,3c-.71,1-1.44,1.91-2.19,2.87A23,23,0,0,0,62.13,89a51.22,51.22,0,0,1-7,3.94A54.43,54.43,0,0,1,46.82,96,51.2,51.2,0,0,1,27,97.5a17.77,17.77,0,0,1-4.37-1.12A7.35,7.35,0,0,0,18,96.13a1.61,1.61,0,0,1-.56-1.44c0-.62.06-1.27.06-1.94-.5-.16-.83-.18-1-.06a1.11,1.11,0,0,0-.37.56,4.64,4.64,0,0,0-.19.82.69.69,0,0,1-.31.56c-1.75-.83-3.36-1.56-4.81-2.19a34.7,34.7,0,0,1-4-2,23.94,23.94,0,0,1-3.5-2.5A20.8,20.8,0,0,1,0,84.25ZM48.37,15c.16-1.33-.34-1.95-1.5-1.87C46.71,14.46,47.21,15.09,48.37,15Zm2.25,2.38a1.88,1.88,0,0,0,.5-1.63c-.09-.66-.54-.91-1.38-.75a5.17,5.17,0,0,0,0,1.57,1,1,0,0,0,.89.81Zm2.87,1.87a.58.58,0,0,0,.81-.16v0a1.77,1.77,0,0,0,0-2,.58.58,0,0,0-.79-.21l0,0ZM29.87,23.13a2.66,2.66,0,0,1,0-1.19c.08-.54.14-1.08.19-1.62a3.9,3.9,0,0,0-.13-1.44c-.12-.42-.48-.58-1.06-.5A8.86,8.86,0,0,0,29,21a5.35,5.35,0,0,0,.89,2.13ZM15.62,25.5c.08-1.16-.54-1.66-1.88-1.5a2,2,0,0,0,.63,1.57.81.81,0,0,0,1.14.06.49.49,0,0,0,.12-.13ZM12.24,39.25c.34.17.61,0,.82-.37a3.13,3.13,0,0,0,.31-1.38,2.69,2.69,0,0,0-.31-1.31c-.21-.37-.48-.48-.82-.31Zm10-1a3.41,3.41,0,0,0,.5-2.37,1.13,1.13,0,0,0-1,.19,1.2,1.2,0,0,0-.43.81,1.47,1.47,0,0,0,.18.94.8.8,0,0,0,.76.43Zm-4.75,1.38c1.09.08,1.54-.54,1.38-1.88-1.08-.08-1.5.55-1.37,1.88ZM46,51.5a1.76,1.76,0,0,0,1.5-.62.84.84,0,0,0,0-1.19l-.08-.06c-1.16-.08-1.62.54-1.37,1.87Zm-5.25,5.25c1.09-.41,2.15-.85,3.19-1.31A3.61,3.61,0,0,0,46,53c-.33,0-.52-.14-.56-.43A.65.65,0,0,0,45,52a2.19,2.19,0,0,1-.93,1.32l-1.38.87a14.92,14.92,0,0,0-1.31.94,1.93,1.93,0,0,0-.62,1.62Zm9,.5c.67-.66.73-1.18.19-1.56a6.61,6.61,0,0,0-1.56-.81,4.68,4.68,0,0,0,.06,1.75c.14.5.57.71,1.32.62ZM49.24,61c1.17.09,1.63-.54,1.38-1.87H49.24Zm6.13,1c1.16.09,1.66-.58,1.5-2h-1.5Zm-5.63,8A19.17,19.17,0,0,0,53,71.88c-.08-.42,0-.69.19-.81a3.34,3.34,0,0,1,.81-.32,2.72,2.72,0,0,0,.82-.31c.2-.12.27-.44.18-.94a2.79,2.79,0,0,1-1.56-.75,4.94,4.94,0,0,1-.69-1c-.16-.33-.35-.68-.56-1.06a2.42,2.42,0,0,0-1.06-.94,3.87,3.87,0,0,1-.31,2.07c-.3.62-.65,1.35-1.07,2.18Zm9.5,1.88c.17-.75.07-1.21-.31-1.38s-.77-.33-1.19-.5q-.87,1.38-.06,1.5a9.45,9.45,0,0,1,1.57.38Zm1.88,2c.75.25,1.14.19,1.19-.19a1,1,0,0,1,.68-.81c.09-.67,0-1.1-.37-1.31s-.67-.4-1-.57a1.47,1.47,0,0,0-.56,1.13,7.9,7.9,0,0,0,.07,1.75ZM7,83.75A1.57,1.57,0,0,0,8.37,83,3.89,3.89,0,0,0,9,81.32a5,5,0,0,0-.12-1.88A2.07,2.07,0,0,0,8,78.13a15.49,15.49,0,0,0-.12,3.19A3.59,3.59,0,0,1,7,83.75Zm29.89-2.37c1.16.08,1.73-.06,1.69-.44s-.11-1-.19-1.94h-1.5Zm16.62.5c.17,0,.32-.15.44-.44a2.47,2.47,0,0,0,.19-1,1.21,1.21,0,0,0-.31-.87A.66.66,0,0,0,53,79.5a1.71,1.71,0,0,0-.25.57,7.62,7.62,0,0,0-.18.93,1.29,1.29,0,0,0,.12.82Q52.89,82.14,53.5,81.88Zm-34.62,9c.16-.33.35-.75.56-1.25a9.75,9.75,0,0,1,.63-1.25,1,1,0,0,1,.68-.56c.25,0,.59.18,1,.68a5.23,5.23,0,0,0-.56-1.93c-.29-.54-.58-1.07-.87-1.57s-.59-1-.88-1.56a5.45,5.45,0,0,1-.56-2.06H17.5q.38,3.12.63,5.69A14.15,14.15,0,0,0,18.88,90.88Zm24.75-5.63h2.74a2.77,2.77,0,0,0-.19-2A2.31,2.31,0,0,0,45,82.38a1.34,1.34,0,0,1-.43.62,5.47,5.47,0,0,1-.63.44,1.05,1.05,0,0,0-.44.63A2.07,2.07,0,0,0,43.63,85.25ZM55,88c.84.17,1.4.11,1.69-.18a3,3,0,0,0,.69-1.19,4,4,0,0,0-2.38-.5Z"/><path class="cls-1" d="M97.25,24.63c.17.58.36.92.57,1a1.31,1.31,0,0,0,.68.06,2.46,2.46,0,0,0,.75-.25.84.84,0,0,1,.88.19,11.21,11.21,0,0,0-.31,3L99.94,31q.06,1.13.06,2.25A12.73,12.73,0,0,1,99.63,36c-.67-.16-.9-.5-.69-1s.1-.79-.31-.87a12.15,12.15,0,0,1-.38,3.75,11.88,11.88,0,0,1-1.5,3.56A8.45,8.45,0,0,1,94.19,44a4.75,4.75,0,0,1-3.56.63c-.17.5-.19.83-.06,1a1.74,1.74,0,0,0,.5.44,1.87,1.87,0,0,1,.5.43c.12.17.1.5-.07,1-.5.5-.92.48-1.25-.06a2,2,0,0,0-1.5-.94,2.15,2.15,0,0,0-.12,2.82,12.93,12.93,0,0,1,1.5,2.43,1.4,1.4,0,0,1-1.5.82c-.59-.13-1.21-.27-1.88-.44A3,3,0,0,0,85.13,54a10.65,10.65,0,0,0-.44,2.69V59.5a4.43,4.43,0,0,1-.31,2.13,4.74,4.74,0,0,1-3.88-1.69,9.2,9.2,0,0,1-1.5-4,28.89,28.89,0,0,1-.25-5.5q.12-3.06,0-6.31c-.17-3.75-.37-7.42-.62-11s-.38-6.71-.38-9.38a1.18,1.18,0,0,1,1.38-.31q.75.31,1.5-.69a1,1,0,0,0-.81-.43,10.86,10.86,0,0,1-1.13-.13,1.23,1.23,0,0,1-.87-.44c-.21-.25-.24-.7-.07-1.37.25-.25.46-.35.63-.31a.92.92,0,0,1,.44.25l.43.43a1,1,0,0,0,.88.13,1.74,1.74,0,0,0-.94-1.19q-.69-.32-1.44-.69a3.61,3.61,0,0,0,.07-1.18l-.13-1.32a1.8,1.8,0,0,1,.13-1c.12-.25.43-.33.93-.25a4.56,4.56,0,0,1-1.18-2.43,14.23,14.23,0,0,1-.13-2.69c0-.92.1-1.85.19-2.81a9.9,9.9,0,0,0-.25-3.07q3.5.13,7.5.63c2.66.33,5.39.69,8.19,1.06s5.66.69,8.62.94a78.49,78.49,0,0,0,8.81.25,18.41,18.41,0,0,1,.13,4.69q-.25,2.05-3,2.43a1.84,1.84,0,0,0,.12,1.57,2,2,0,0,1,.38,1.31,1.74,1.74,0,0,1-1.38.44c-.58,0-1.21-.07-1.87-.07a4.2,4.2,0,0,1-.5,2.82,7.91,7.91,0,0,1-1.94,2.25,10.66,10.66,0,0,1-2.62,1.5A7.36,7.36,0,0,1,97.25,24.63Zm43.63-17c.08,1,.2,2.23.37,3.69s.32,3,.44,4.75.21,3.43.25,5.18,0,3.38-.06,4.88q-4.5-.75-8.81-1.13c-2.88-.25-5.75-.45-8.63-.62s-5.77-.35-8.69-.56-5.92-.57-9-1.07c0-.25.17-.37.5-.37a2.61,2.61,0,0,0,.88-.13,14.08,14.08,0,0,1,3.69-4.5,47.7,47.7,0,0,1,4.81-3.43c1.66-1,3.27-2.09,4.81-3.13a15.74,15.74,0,0,0,3.81-3.56q3.75.37,6.5.56T139,8.5c.33.17.57.19.69.07a1,1,0,0,0,.25-.5,1.27,1.27,0,0,1,.19-.5Q140.25,7.38,140.88,7.63Zm-8.5,5.62v1.5a3.48,3.48,0,0,0,2.5.44c1.08-.12,1.66-.6,1.75-1.44a4.32,4.32,0,0,0-4.26-.5ZM120.5,15.63h1.87c0-1.08-.63-1.71-1.88-1.88Zm-30.87.5a1.85,1.85,0,0,0,.5-1.38c0-.58-.34-.91-1-1a1.8,1.8,0,0,0-.44,1.44C88.73,15.82,89,16.13,89.63,16.13Zm1.5,18.5c-.42-1.5-1.13-2.33-2.13-2.5a38,38,0,0,0-4.12-.38,3.66,3.66,0,0,1,.31-2.37c.29-.33,1-.33,2.06,0V27.5c0-.58.33-.87,1-.87a3.59,3.59,0,0,0,1.94,1.06A16.52,16.52,0,0,0,93,27.5a1.32,1.32,0,0,0-.68-1.25,4.81,4.81,0,0,0-1.57-.5c-.58-.08-1.17-.18-1.75-.31a1.81,1.81,0,0,1-1.25-.81c.17-1.08.29-2.29.38-3.63a3.72,3.72,0,0,0-.88-3,7,7,0,0,1-.68,3.5l-1.69,3.63a17.19,17.19,0,0,0-1.31,4,8,8,0,0,0,.43,4.5,10.93,10.93,0,0,1,4.13-.56A5.49,5.49,0,0,1,91.13,34.63ZM94.37,27c-.09-.33,0-.54.25-.62a4.54,4.54,0,0,1,.81-.19,1.41,1.41,0,0,0,.69-.25q.24-.18.12-.81a2.33,2.33,0,0,0-1.43-.06,2.3,2.3,0,0,0-1.07.56.72.72,0,0,0-.25.75A1.18,1.18,0,0,0,94.37,27ZM81.62,28.5a1.4,1.4,0,0,0-.5-1.43,1.38,1.38,0,0,1-.5-1.44,2.27,2.27,0,0,1-1.5,0c-.67-.17-1,0-.88.5a2.13,2.13,0,0,1,1.57,1.25,2,2,0,0,0,1.82,1.12Zm-1.5,1.88a.89.89,0,0,0,.25.94.9.9,0,0,1,.25.93,1.65,1.65,0,0,0,1.87-1.4,1.85,1.85,0,0,0,0-.47,1.65,1.65,0,0,0-2.33,0Zm.5,8q.87,3.25,4.75,3.87a4.81,4.81,0,0,0-.31-2.43A11.43,11.43,0,0,0,84,38c-.67,0-1.31,0-1.93-.06a1.78,1.78,0,0,0-1.43.44Zm56.5,2.37a18.13,18.13,0,0,0-.5,5.19c.08,1.71.19,3.38.31,5s.21,3.23.25,4.81a14.56,14.56,0,0,1-.56,4.5q-9.37-.87-18.38-1.18t-15.75-.69a31.72,31.72,0,0,0-1,8,33.19,33.19,0,0,0,1,8.12c0,.25.08.4.25.44l.5.13a.85.85,0,0,1,.44.25.71.71,0,0,1,.19.56,27.19,27.19,0,0,1,7.69-.44q4.05.32,8.31.88c2.83.37,5.7.71,8.62,1a46.08,46.08,0,0,0,8.63.06,1.69,1.69,0,0,0,1.31.75,16.65,16.65,0,0,0,2,.12c.71,0,1.42,0,2.13.07a3.77,3.77,0,0,1,1.68.43,13.65,13.65,0,0,0-.5,4.63c.08,1.67.19,3.35.32,5.06s.18,3.38.18,5a9,9,0,0,1-1,4.31c-2.75,0-5.38-.12-7.87-.37s-5-.54-7.38-.88l-7.12-1a65.69,65.69,0,0,0-7-.62q-9.63-.37-17.38-.63T80.62,93.5c0-1.75,0-3.43-.06-5.06s-.11-3.33-.19-5.12-.15-3.75-.19-5.88-.06-4.52-.06-7.19a8.51,8.51,0,0,1,2.31-2,19.27,19.27,0,0,1,3.06-1.5,16.59,16.59,0,0,1,3.25-.87,7.48,7.48,0,0,1,2.75,0,2.87,2.87,0,0,0,1.13-.63c.25-.25.5-.47.75-.68a1.73,1.73,0,0,1,.94-.38,3.63,3.63,0,0,1,1.56.31c.25-1.08.19-1.83-.19-2.25a4.43,4.43,0,0,0-1.31-1,4.27,4.27,0,0,1-1.31-1c-.38-.41-.4-1.2-.07-2.37a2.31,2.31,0,0,1,1.63.75,5.13,5.13,0,0,0,1.25,1.12,4.44,4.44,0,0,0-.31-3c-.46-.91-.94-1.81-1.44-2.68a9.34,9.34,0,0,1-1.06-2.88,5.63,5.63,0,0,1,.81-3.69c.5-.5.83-.6,1-.31a1.73,1.73,0,0,0,1,.69q.61-.5.12-1.44a1.5,1.5,0,0,1,.25-1.81c.75-.25,1.15-.1,1.19.44s.27.85.69.93a2.26,2.26,0,0,0,.37-1.87,4.8,4.8,0,0,1,.13-2.38,17,17,0,0,1,7.87-2.62,53.72,53.72,0,0,1,9.32.06c3.29.29,6.72.67,10.31,1.13a63.28,63.28,0,0,0,11,.43ZM114.74,46.5q0-.75.63-.81c.41,0,.54-.39.37-1.06a1.65,1.65,0,0,1-.81-.44c-.21-.21-.56-.23-1.06-.06-.34.67-.44,1.15-.31,1.44a2.34,2.34,0,0,0,1.19.93Zm4.75,1a8.43,8.43,0,0,0-.37-1.56c-.17-.46-.67-.6-1.5-.44a1.19,1.19,0,0,0-.56,1.07,1.5,1.5,0,0,0,1.37,1.37,1.24,1.24,0,0,0,1.07-.44Zm9.5,2.75c.58.59,1.13.78,1.63.57A3.42,3.42,0,0,0,132,49.69a12.58,12.58,0,0,0,1.19-1.87c.38-.71.73-1.32,1.06-1.82a5.45,5.45,0,0,0-3.31,1.44A9.84,9.84,0,0,0,129,50.25Zm-10,.5c.67-.16,1.08-.1,1.25.19s.54.4,1.13.31a5.44,5.44,0,0,1,.25-.81c.08-.21.33-.27.75-.19a2,2,0,0,0-2.09-1.9,1.43,1.43,0,0,0-.29,0,2.73,2.73,0,0,0-.5,1.19,2.68,2.68,0,0,1-.49,1.18Zm5.25,2.38a15.67,15.67,0,0,0-.12-1.94c-.09-.62-.5-.94-1.25-.94a4.88,4.88,0,0,0-.31,2.07c0,.71.61,1,1.69.81Zm-26.5-.5A15.1,15.1,0,0,0,97.43,51c-.12-.5-.52-.75-1.19-.75a8.59,8.59,0,0,0,.19,1.82c.14.54.57.73,1.32.56ZM94.87,66.38a1,1,0,0,0,1,.5H99a1.33,1.33,0,0,1,1.13.5,1.47,1.47,0,0,0-.69-1.25,4.23,4.23,0,0,0-1.62-.69,4.65,4.65,0,0,0-1.82,0,1.38,1.38,0,0,0-1.11.94Zm-10,9a3,3,0,0,0-1.81.19c-.3.21-.78.14-1.44-.19v2.37a5.11,5.11,0,0,0,2.37.5,5.28,5.28,0,0,0,2.38-.5,11.34,11.34,0,0,1-.19-2.25A3.33,3.33,0,0,1,87.24,74a.84.84,0,0,1,.57.19,3.68,3.68,0,0,1,.31.38,2.76,2.76,0,0,0,.31.37c.13.13.35.15.69.06V72.63a12.93,12.93,0,0,0-3,.75,1.94,1.94,0,0,0-1.24,2Zm6.25,2h1.37a2.34,2.34,0,0,0,.5-1.69c0-.79-.33-1.19-1-1.19a5,5,0,0,0-1.25,1.13c-.37.5-.28,1.08.39,1.75Zm9,.37c.41,0,.58.23.5.69s0,.73.37.81l.88-.87q.38-.37.12-1.5-1.74-.25-1.86.87Zm-1.5,5.75V81.13H97.24c-.17.75-.08,1.27.25,1.56a7.59,7.59,0,0,0,1.14.81Zm38,.88a1.26,1.26,0,0,0,.25,1.19,1,1,0,0,0,.94.18,2.8,2.8,0,0,0,1.06-.5,1.6,1.6,0,0,0,.62-.87c-.5-.5-.92-.58-1.25-.25a1.67,1.67,0,0,1-1.61.25Zm-36.13,2.37a3,3,0,0,0,2-.37,1.92,1.92,0,0,0-1.84-2h-.16c-.42.5-.52.87-.31,1.12a2,2,0,0,1,.32,1.25ZM118.62,92a4.35,4.35,0,0,1,1.44,0c.54.09.68-.2.43-.87a.4.4,0,0,0-.36-.44h0l-.75-.12a1.44,1.44,0,0,1-.63-.25q-.26-.19-.12-.69a6.47,6.47,0,0,1,1-.63,2.25,2.25,0,0,0,.87-.75,1.09,1.09,0,0,1-.93.07,2.71,2.71,0,0,1-.57-.44,6.66,6.66,0,0,0-.56-.5.9.9,0,0,0-.81-.13c-.42.5-.56.92-.44,1.25a4.08,4.08,0,0,0,.56,1c.25.34.5.69.75,1.07a1.67,1.67,0,0,1,.14,1.43Z"/><path class="cls-1" d="M222.25,80.88a4.65,4.65,0,0,0,.44,3.19,26.68,26.68,0,0,0,2,3.43l2.37,3.5a14.88,14.88,0,0,1,1.82,3.63q-4.87.25-11.25.25t-12,.25V93.25a1.12,1.12,0,0,0-.88.07,1.07,1.07,0,0,0-.37.56,2.15,2.15,0,0,1-.32.62c-.12.17-.39.21-.81.13q-2.13-4.12-4.12-8.44t-3.94-8.62q-1.94-4.32-4.06-8.5T186.63,61a20.49,20.49,0,0,0-5.07.13,3.55,3.55,0,0,0-2.93,2.25c-.09,2.92-.09,5.81,0,8.69s.14,5.71.18,8.5,0,5.46-.18,8a45.29,45.29,0,0,1-1,7.06,27,27,0,0,1-5.13.81l-5.56.38c-1.87.13-3.73.27-5.56.43a44.34,44.34,0,0,0-5.13.75q-.5-9.75-.25-21t.56-22.87q.31-11.62.32-23.19t-1-22.19a3.69,3.69,0,0,1,2.31-.31c1,.13,1.94.21,2.94.25a9,9,0,0,0,2.68-.25c.79-.21,1.27-.89,1.44-2.06a4.11,4.11,0,0,1-4,1.37,33.56,33.56,0,0,0-5-.37,1.91,1.91,0,0,0-.19-.88,2.45,2.45,0,0,0-.43-.62,1.52,1.52,0,0,1-.38-.69A2.11,2.11,0,0,1,155.38,4a119.19,119.19,0,0,1,12.25-.12q6.24.25,12.31.62t11.69.57a53.25,53.25,0,0,0,10.25-.57,2.7,2.7,0,0,1,1.31.75c.29.34.64.71,1.06,1.13a33.41,33.41,0,0,1,7.81,2.5A21.23,21.23,0,0,1,218,13a27,27,0,0,1,3.75,5.25,33.66,33.66,0,0,1,2.88,6.94,32.48,32.48,0,0,1,1.25,8.13A26.34,26.34,0,0,1,224.63,42a11.42,11.42,0,0,1-1.44,2.69,30.79,30.79,0,0,1-2.5,3.19q-1.44,1.62-2.94,3.12a28.12,28.12,0,0,1-2.62,2.38,8.52,8.52,0,0,1-1.63.94c-.5.21-1,.41-1.44.62a3.22,3.22,0,0,0-1.12.81,2.62,2.62,0,0,0-.56,1.38,5.1,5.1,0,0,0,.5,3.19,29.81,29.81,0,0,0,1.68,2.87c.62,1,1.19,1.9,1.69,2.81a4.13,4.13,0,0,1,.38,3c.5.67,1.12,1.48,1.87,2.44s1.48,2,2.19,3a34.28,34.28,0,0,1,1.87,3.06c.54,1,.94,1.8,1.19,2.38a.52.52,0,0,1-.19.62c-.21.17-.37.32-.5.44s-.12.19,0,.19A8.12,8.12,0,0,0,222.25,80.88Zm-39.88-74V8.25a10.71,10.71,0,0,1,1.43.07c.54.07.69-.27.44-.94a1.65,1.65,0,0,1-.81-.44C183.23,6.73,182.88,6.71,182.37,6.88ZM169.62,8.25a18.34,18.34,0,0,1,2.56.25,4.63,4.63,0,0,1,2.56,1.25,3.5,3.5,0,0,1,1.56-.87c.63-.17.9-.67.82-1.5-1.34-.17-2.71-.31-4.13-.44a3.69,3.69,0,0,0-3.36,1.31Zm17.5,4.38c.5-.08.66-.48.5-1.19a2.86,2.86,0,0,1,0-1.69h-1.5a2.49,2.49,0,0,1,.06.94,8.39,8.39,0,0,0-.06,1,1.51,1.51,0,0,0,.18.75c.14.21.41.27.83.19Zm10.38,3.25v1.87a3.44,3.44,0,0,0,.94-.56,5.91,5.91,0,0,0,1-1,1.72,1.72,0,0,0,.44-1c0-.29-.3-.52-.88-.69Q199.38,16.26,197.5,15.88Zm-3.75,2.37a2.63,2.63,0,0,0,1.88-.5c.08-1.08-.55-1.54-1.88-1.37Zm3.75,25.13a28.54,28.54,0,0,0,2.81-2.06,10,10,0,0,0,2.38-2.88A12.2,12.2,0,0,0,204,34.5a14.93,14.93,0,0,0-.25-5.37,9,9,0,0,0-4.25-3.5A21.71,21.71,0,0,0,193.06,24a41,41,0,0,0-7.18-.12,33.63,33.63,0,0,0-6.38,1,53.14,53.14,0,0,1,.56,10,54.88,54.88,0,0,0,.44,9.5c2.69-.43,5.41-.72,8.13-.88S194.41,43.3,197.5,43.38Zm13.75-5.63a3.15,3.15,0,0,0,1.06-2.37,13.38,13.38,0,0,1,.44-2.88,2.27,2.27,0,0,0-1.56,1,3.1,3.1,0,0,0-.44,1.57,6.29,6.29,0,0,0,.19,1.56C211.06,37.13,211.17,37.5,211.25,37.75Zm-53-2q.5.26.75-.12a1.64,1.64,0,0,0,.25-.94,2,2,0,0,0-.25-1,.51.51,0,0,0-.68-.23l-.07,0Zm4.63.5a1.71,1.71,0,0,0,.75,1.38,3.19,3.19,0,0,0,1.5.44c.58,0,1.22.06,1.93.06h2.07a1.59,1.59,0,0,0-.75-1.38,4.72,4.72,0,0,0-1.82-.68,8.37,8.37,0,0,0-2.06-.13A5.29,5.29,0,0,0,162.88,36.25ZM173.37,41a1,1,0,0,0,.68-.43,1.07,1.07,0,0,1,.69-.44,5.49,5.49,0,0,0-4.25-3.88,5.31,5.31,0,0,1,.63,1.63,7.55,7.55,0,0,0,.31,1.31,2.9,2.9,0,0,0,.56,1A3.39,3.39,0,0,0,173.37,41Zm30.87,5.25V44.38a4,4,0,0,0-2.37-.5,2.44,2.44,0,0,0,2.38,2.37Zm-27.12,1.38a.91.91,0,0,1,.37-.69l.69-.56a.91.91,0,0,0,.37-.56c0-.21-.1-.4-.43-.57a1.33,1.33,0,0,1-.5.5,4.75,4.75,0,0,0-.69.57,1.22,1.22,0,0,0-.38.68c0,.25.16.46.58.63Zm34.62-.88c-.17.75,0,1.17.56,1.25a2.44,2.44,0,0,1,1.32.63V46.25a3,3,0,0,0-1.87.5Zm-39.37,2.88c.5,0,.66.29.5.87a2.85,2.85,0,0,0,1.93-.12c.46-.25.61-.83.44-1.75h-1.87C172.79,48.63,172.46,49,172.37,49.63Zm3.87,12.75a2.43,2.43,0,0,0,2.38-1c-.5,0-.67-.29-.5-.88a1.65,1.65,0,0,0-1.87,1.42,1.77,1.77,0,0,0,0,.46Zm-4.75,1.37a1.71,1.71,0,0,0,.38-1.5q-.13-1-1.38-.87a1.73,1.73,0,0,0-.44,1.62c.13.67.62.92,1.45.75Zm41.75,12.88a1.89,1.89,0,0,1,.38-.81,1.19,1.19,0,0,0,0-1.07c-.59-.33-.94-.43-1.07-.31s-.56.06-1.31-.19c-.17.92,0,1.53.38,1.82a3.53,3.53,0,0,0,1.63.56ZM196.12,78a11.65,11.65,0,0,1,3.18.88,14.91,14.91,0,0,0,3.94,1,3.49,3.49,0,0,0,.5-2.38,8.29,8.29,0,0,0-1.56-.68,7.64,7.64,0,0,0-2.06-.38,6.48,6.48,0,0,0-2.19.25,3.49,3.49,0,0,0-1.8,1.31Zm-25.63-.5a.7.7,0,0,1,.56.82.64.64,0,0,1-.06.18,1.64,1.64,0,0,0,1.44-.62c.29-.42.6-.83.94-1.25h-1.88a.92.92,0,0,0-1,.83v0Zm34.13,0v2a3.34,3.34,0,0,1,2.37-.12c.75.25,1.4.44,1.94.56a1.53,1.53,0,0,0,1.37-.25c.38-.29.57-1.14.57-2.56a15.39,15.39,0,0,0-3.25-.13c-.66.09-1.66.25-3,.5Zm-33.13,6.63V80.38H170c.08.92.13,1.79.13,2.62s.46,1.21,1.38,1.13Zm-4.25,2a.89.89,0,0,0,.94-.25.89.89,0,0,1,.94-.25,12,12,0,0,0-.07-1.69c-.07-.46-.35-.69-.93-.69a4,4,0,0,1-.69,1.13,2,2,0,0,0-.18,1.75Zm7.5-.5a1.55,1.55,0,0,1,1.44,1,3,3,0,0,0,.94,1.37c.33-.33.47-.6.43-.81a2,2,0,0,0-.31-.69l-.5-.75a1.23,1.23,0,0,1,0-1.12c-1.24-.17-1.91.17-2,1ZM172.37,87a1.86,1.86,0,0,0,.43-1.5c0-.66-.48-1-1.31-.87a1.23,1.23,0,0,0-.37,1.5A1.54,1.54,0,0,0,172.37,87Zm-5.63,6.63a3.94,3.94,0,0,0,.25-2.44,13.72,13.72,0,0,1-.25-2.31h-1.5a4.15,4.15,0,0,0,.06,2.56,4.09,4.09,0,0,0,1.45,2.19Z"/><path class="cls-1" d="M284,0h1.37a7.48,7.48,0,0,0,1.5,7.13,5.6,5.6,0,0,0,2.63,1.69,4,4,0,0,0,3-.32,2.57,2.57,0,0,0,1.06-.87,4.24,4.24,0,0,0,.5-1.13c.13-.41.27-.85.44-1.31a5.18,5.18,0,0,1,.87-1.44,1.63,1.63,0,0,1,1-.31,2.48,2.48,0,0,0,1.38-.56A28.42,28.42,0,0,1,300.94.5q1.56-1,4.93,0-3.75,11.76-7.43,23.44T290.62,47a3.39,3.39,0,0,1-1.75-1.25,13.55,13.55,0,0,1-1.18-2.06c-.38-.79-.73-1.6-1.07-2.44a12.48,12.48,0,0,0-1.25-2.37c-.5-.75-1-1.54-1.56-2.38a16.54,16.54,0,0,0-1.75-2.25,6.82,6.82,0,0,0-2-1.5,2.55,2.55,0,0,0-2.19,0q3.25,3.89,6.32,8.07a71.55,71.55,0,0,1,5.56,8.93q-2.13,5.88-3.94,11.13T282.12,72.5l-1.87-1.18a4.09,4.09,0,0,0-2.88-.19,7.7,7.7,0,0,0-1.06,1,5.39,5.39,0,0,0-.87,1.25,2.29,2.29,0,0,0-.25,1.31,1.63,1.63,0,0,0,.81,1.19,6.21,6.21,0,0,1,2.19-2.13,5.9,5.9,0,0,1,3.93-.25c-.67,2.17-1.37,4.23-2.12,6.19a9.9,9.9,0,0,1-3.63,4.69A28,28,0,0,1,274,94.88a2.78,2.78,0,0,0-2,.25,3.36,3.36,0,0,1-2.25.25,3.16,3.16,0,0,1-1.06-1.06,3.35,3.35,0,0,0-.82-.94,6.61,6.61,0,0,0-1.81.31q-1.06.32-2.19.69a10.6,10.6,0,0,1-2.43.5,4.66,4.66,0,0,1-2.57-.5,93.46,93.46,0,0,0-4.31-18q-2.94-8.37-7.06-18a7.65,7.65,0,0,0,.37-3,11.7,11.7,0,0,0-.56-2.69l-.87-2.62a7.79,7.79,0,0,1-.32-3.07c-.58-.08-.77.19-.56.82a2.21,2.21,0,0,1,.06,1.56,32.45,32.45,0,0,0-1.43-5.75q-.94-2.62-2.07-5.13t-2.37-5.12a41.41,41.41,0,0,1-2.25-5.88,10.76,10.76,0,0,1,1.5.07,4.11,4.11,0,0,0,1.31-.07,1.54,1.54,0,0,0,.88-.5,1.87,1.87,0,0,0,.18-1.37,1.1,1.1,0,0,0-.87-.5,2.18,2.18,0,0,0-1,.25l-1,.5a2.18,2.18,0,0,1-1,.25q-2.25-6.37-4.19-12.94T229,.5a45.23,45.23,0,0,0,5.81.38q2.94,0,6.06-.13c2.09-.08,4.19-.12,6.32-.12a55.19,55.19,0,0,1,6.43.37,10.07,10.07,0,0,0,.32,3.5q.44,1.5.87,2.88c.29.92.54,1.83.75,2.75a7.14,7.14,0,0,1-.06,3.12c.08.42.35.59.81.5s.69.09.69.5q2.12,9.26,5.19,18.94t5.68,19.44h1.38q4.5-13.25,8.5-26.38A214.94,214.94,0,0,0,284,0Zm16.12,8.5a.69.69,0,0,1,.57-.75c.37-.08.52-.45.43-1.12h-2C299,7.8,299.29,8.42,300.12,8.5Zm-64.5,9a1.25,1.25,0,0,0,.94-.31,1.35,1.35,0,0,0,.38-.75,4.42,4.42,0,0,1,.18-.94,1.62,1.62,0,0,1,.38-.75.9.9,0,0,1-.63-.37c-.08-.17-.33-.21-.75-.13a1.08,1.08,0,0,0-.37.75,2.86,2.86,0,0,0,.12.82,5.19,5.19,0,0,1,.19.87A.87.87,0,0,1,235.62,17.5Zm16.63-1.87a1.47,1.47,0,0,0-1.63-1.25,25.39,25.39,0,0,1-2.62-.13,1,1,0,0,0,.56,1,3,3,0,0,0,1.25.25h1.38A3.43,3.43,0,0,1,252.25,15.63Zm35.12,1.5h1.38c.17-1.42-.29-2.08-1.38-2Zm-6.75,6.12c.5-.16.84-.18,1-.06a1.74,1.74,0,0,1,.44.5l.38.63a.61.61,0,0,0,.56.31,6.71,6.71,0,0,0,.62-2.44c.09-1,.21-1.89.38-2.81a1,1,0,0,1-.94-.19,1,1,0,0,0-.94-.19,6.15,6.15,0,0,0-.37,2.44C281.83,22,281.46,22.59,280.62,23.25Zm-25.12-1.5a1.16,1.16,0,0,0,1.19-.12,1.76,1.76,0,0,0,.56-.88,1.48,1.48,0,0,0-.06-.93.7.7,0,0,0-.69-.44,2.73,2.73,0,0,0-.5,1.19A2.69,2.69,0,0,1,255.5,21.75Zm39.87,7.63V27.5c-.91-.16-1.37.15-1.37.94S294.46,29.55,295.37,29.38Zm-54,2.37a.63.63,0,0,0,.44-.56,4.18,4.18,0,0,0,0-1,2.27,2.27,0,0,0-.31-.94.72.72,0,0,0-.63-.37,2.15,2.15,0,0,0-.31.69,6.05,6.05,0,0,0-.25,1.12,1.35,1.35,0,0,0,.19.94C240.66,31.88,241,31.88,241.37,31.75Zm17,1a2.17,2.17,0,0,1,.44-.87.91.91,0,0,0,.06-1H257.5C257.37,32.05,257.62,32.67,258.37,32.75Zm0,3.75a3.41,3.41,0,0,0,.5-2.37,1.13,1.13,0,0,0-1,.19,1.2,1.2,0,0,0-.43.81,1.47,1.47,0,0,0,.18.94A.81.81,0,0,0,258.37,36.5Zm-.5,1.88v1c.42,0,.59.17.5.5h1c0-.42.17-.58.5-.5v-1c-.41,0-.58-.17-.5-.5h-1C258.37,38.3,258.21,38.46,257.87,38.38Zm2.88,5.75a1.06,1.06,0,0,0,.19-1.38,2.31,2.31,0,0,0-1.07-1,1.36,1.36,0,0,0-.37,1.5,1,1,0,0,0,1.08.91Zm-.5,3.75a1.51,1.51,0,0,0,1.31-.06.92.92,0,0,0,.44-.75,1.11,1.11,0,0,0-.44-.82,1.61,1.61,0,0,0-1.31-.25Zm16.12,3.75c.25-2.08-.66-3-2.75-2.75a2.3,2.3,0,0,0,.75,2.56A1.59,1.59,0,0,0,276.37,51.63Zm-15.62.5h1.5c.16-1.17-.17-1.79-1-1.88a2.2,2.2,0,0,1-.38.82A1.36,1.36,0,0,0,260.75,52.13Zm-10.38,10.5a1.59,1.59,0,0,1,1.44.12,2,2,0,0,0,1.31.38,3.21,3.21,0,0,1,.5-2,1.31,1.31,0,0,1-1.06.06,1.92,1.92,0,0,1-.56-.5,1.5,1.5,0,0,0-.56-.44,2.42,2.42,0,0,0-1.07,0,9.8,9.8,0,0,0-.25,1.13C250.12,61.51,250.21,61.88,250.37,62.63Zm7.5,2.37c.75-.16,1.25-.08,1.5.25s.71.42,1.38.25a7.57,7.57,0,0,0-.5-2.25c-.25-.58-.88-.79-1.88-.62A3.53,3.53,0,0,0,257.87,65Zm-2.75-1,1.32-.25c.46-.09.64-.45.56-1.12h-1.88Zm8,1.5a4.63,4.63,0,0,1,.32,1.32c0,.46.39.64,1.06.56a1,1,0,0,0,1-.81,5.17,5.17,0,0,0,0-1.57A3.55,3.55,0,0,0,263.12,65.5Zm5.25,1.88q1.38,1.38,2.19,2.31a29.78,29.78,0,0,1,2.06,2.81c.5-.66.9-1.16,1.19-1.5s1-.29,2.19.13V68.75a4.88,4.88,0,0,1-2.06-.43c-.63-.29-1.23-.57-1.82-.82a6.77,6.77,0,0,0-1.81-.5A3.35,3.35,0,0,0,268.37,67.38Zm8,.87c-.16.92,0,1.5.44,1.75a2.88,2.88,0,0,0,1.94.13V67.75a2.81,2.81,0,0,0-1.38.07C277,67.94,276.71,68.09,276.37,68.25Zm-12.75,2.88H265c.16-1.33-.29-2-1.38-1.88ZM266,77.75a3,3,0,0,0,.06-2.87A2.78,2.78,0,0,0,264.12,73a10.44,10.44,0,0,1,.69,2.69A2.65,2.65,0,0,0,266,77.75Zm1.37,10a11.26,11.26,0,0,0,.25-4.62,30.71,30.71,0,0,0-1.12-3.88H265a3.79,3.79,0,0,1,.75,2.32v2.5a8.9,8.9,0,0,0,.25,2.18A2.21,2.21,0,0,0,267.37,87.75Zm-8,2.38a2.36,2.36,0,0,0,.44-1.25c0-.5.06-1,.06-1.63a1.15,1.15,0,0,1-1.06-.18,1.26,1.26,0,0,0-.94-.32l.5,1.94A2.42,2.42,0,0,0,259.37,90.13Zm8,2.37a3,3,0,0,0,.25-2.12A1.6,1.6,0,0,0,266,89.13C265.83,90.88,266.29,92,267.37,92.5Zm-8,.5a2.46,2.46,0,0,1,1.25.25q.38.25.63-.75a5.64,5.64,0,0,1-.88-.81,2.57,2.57,0,0,0-1-.69Z"/><path class="cls-1" d="M316.25,93q-.75.25-.63.63a2.47,2.47,0,0,0,.44.75,4.85,4.85,0,0,1,.5.69c.13.2,0,.31-.31.31a2.74,2.74,0,0,1-1.38-1.88,11.74,11.74,0,0,1-.37-3.12,32.53,32.53,0,0,1,.19-3.56,18.4,18.4,0,0,0,.06-3.32,48.34,48.34,0,0,0-.56-5.5,5.4,5.4,0,0,1,1.06-4.5q-.37-5.75-.63-12.18t-.31-13.07q-.06-6.61.06-13.25t.38-12.62a2,2,0,0,1,1.12.31c.34.21.65.4.94.56a2.52,2.52,0,0,0,.88.32,1.26,1.26,0,0,0,.93-.32c-.41-2-1.83-2.95-4.25-2.87a16.27,16.27,0,0,0,.57-3.25c0-.92.06-1.79.06-2.63a17.44,17.44,0,0,1,.12-2.5,17,17,0,0,1,.63-3,2.47,2.47,0,0,0,1.69.69,1.91,1.91,0,0,1,1.56.81,14.67,14.67,0,0,1,4.75-1.43c1.66-.21,3.25-.36,4.75-.44s2.81-.19,3.94-.31a2.9,2.9,0,0,0,2.31-1.19,2.7,2.7,0,0,1,1.31.75c.29.33.65.71,1.06,1.12a98.17,98.17,0,0,0-2.37,15.63,133,133,0,0,0-.19,14.81q.31,7.32,1.13,14.5t1.43,14.81a7.24,7.24,0,0,0-2.12.75l-1.75,1a7.52,7.52,0,0,1-1.81.75,5,5,0,0,1-2.44-.12c-.17.92-.06,1.54.31,1.87a2.22,2.22,0,0,0,1.56.5c1-.66,2-1.31,2.88-1.93a8.77,8.77,0,0,1,3.37-1.32,33.93,33.93,0,0,0,.07,6.13,12.63,12.63,0,0,1-.07,4.25,1.71,1.71,0,0,1-1.5-.94c-.25-.54-.87-.69-1.87-.44-.5.67-.67,1.21-.5,1.63a2,2,0,0,0,.87,1,8.47,8.47,0,0,0,1.5.69,11.16,11.16,0,0,0,1.5.43,43.26,43.26,0,0,0,0,6.44,16.31,16.31,0,0,1-.5,5.94,13.29,13.29,0,0,0-5.75-.25c-2,.33-3.93.62-5.81.87a17.57,17.57,0,0,1-5.12,0A5.09,5.09,0,0,1,316.25,93Zm6.62-80.62a2.07,2.07,0,0,0-.56,1.69,5.62,5.62,0,0,0,.56,1.31c.25.42.5.87.75,1.37a2.52,2.52,0,0,1,.13,1.75c.66.17,1,.07,1.12-.31a.79.79,0,0,1,.88-.56,8.1,8.1,0,0,1-.88-2.44c-.16-.87.25-1.52,1.25-1.94a1.5,1.5,0,0,1-.93.32,1,1,0,0,1-.57-.38,2.54,2.54,0,0,0-.62-.56A2,2,0,0,0,322.87,12.38Zm5.63,3.25a4.2,4.2,0,0,1,.5-.81,1.19,1.19,0,0,0,0-1.07,1.87,1.87,0,0,1-.81-.37,1.38,1.38,0,0,0-1.07-.13,5.3,5.3,0,0,0,.07,1.82C327.31,15.61,327.75,15.8,328.5,15.63Zm-11.88-.38a4.88,4.88,0,0,0,1.82.19,3.08,3.08,0,0,1,2.06.69.77.77,0,0,1,0-.63,1.62,1.62,0,0,1,.31-.43,1,1,0,0,0,.25-.5,1.91,1.91,0,0,0-.06-.82l-1.44-.25a11.65,11.65,0,0,0-1.44-.12,1.46,1.46,0,0,0-1.06.44A2,2,0,0,0,316.62,15.25Zm1,3.75H319c.25-1.33-.21-1.95-1.38-1.87Zm-1,11.88a1.79,1.79,0,0,0,.44,1.31,1.11,1.11,0,0,0,.94.38,1.27,1.27,0,0,0,.87-.57,2,2,0,0,0,.13-1.62A4,4,0,0,0,316.62,30.88Zm8.63,6.62c.66.09,1-.1,1.12-.56l.25-1.31h-1.37Zm-2.38,3.38v1.37h1.38a.63.63,0,0,1,.06-.62l.38-.5a.5.5,0,0,0,.12-.44c0-.12-.23-.23-.56-.31C324,41.3,323.54,41.46,322.87,40.88Zm-.5,7.5h1.88a12.64,12.64,0,0,0,.06-2.13c0-.75.27-1.12.94-1.12a.69.69,0,0,1,.75.56c.08.38.46.48,1.12.31q-.24-.61,0-.87a1.69,1.69,0,0,1,.63-.38,1.9,1.9,0,0,0,.62-.31c.17-.12.21-.39.13-.81a22.34,22.34,0,0,0-2.31.12,5.74,5.74,0,0,1-2.82-.62,8,8,0,0,0-.62,2.5C322.66,46.55,322.54,47.46,322.37,48.38Zm-4.25-.5a1.08,1.08,0,0,0,1.07-.25,1,1,0,0,0,.25-.81,1.84,1.84,0,0,0-.44-.88,1.12,1.12,0,0,0-.88-.44,1.67,1.67,0,0,0,0,2.38Zm10.38,2.37a4.88,4.88,0,0,1,1.81-1.5A3.06,3.06,0,0,0,331.87,47c-1-.66-1.77-.52-2.31.44A8.86,8.86,0,0,0,328.5,50.25Zm-4.25-1.37a1.49,1.49,0,0,1-.31.69,5.19,5.19,0,0,0-.5.81,1.64,1.64,0,0,0-.19.75c0,.25.16.46.5.62a1.66,1.66,0,0,1,.87-.93c.5-.29,1-.57,1.38-.82a2.08,2.08,0,0,0,.81-.75q.19-.37-.69-.87c0,.42-.21.6-.62.56S324.66,48.88,324.25,48.88Zm-7.63,1.37a1.89,1.89,0,0,0,.75,1.5,2.34,2.34,0,0,0,1.44.32,3.15,3.15,0,0,0,1.56-.57,2.38,2.38,0,0,0,1-1.25.92.92,0,0,0-.87-.43,6.35,6.35,0,0,0-1.13.25,11.86,11.86,0,0,1-1.31.31A2.83,2.83,0,0,1,316.62,50.25Zm5.75,2.88c-.25.92-.16,1.52.25,1.81A6,6,0,0,1,323.75,56a4.93,4.93,0,0,0,2.69-2.25c.62-1.08.52-1.91-.32-2.5q.25,1-.06,1.38a1.51,1.51,0,0,1-.87.5,4.86,4.86,0,0,1-1.32.06Q323.12,53.13,322.37,53.13Zm8.5,5.25c1.25-.08,1.88-.71,1.88-1.88a8,8,0,0,0-1.44.38C330.85,57.05,330.71,57.55,330.87,58.38Zm-7.5-1a4.16,4.16,0,0,1-.62,3.25,5.38,5.38,0,0,1-2.25,1.5c.33.25.66.48,1,.69a3.36,3.36,0,0,1,.87.81c-.75.58-1.08,1.15-1,1.69a1.91,1.91,0,0,0,.88,1.31,4,4,0,0,0,1.69.62,1.31,1.31,0,0,0,1.31-.37c.16,1.5-.17,2.46-1,2.87a.82.82,0,0,0-.44-.75,2,2,0,0,0-1-.25,2.06,2.06,0,0,0-1,.25.82.82,0,0,0-.44.75.53.53,0,0,0,.57.38h.93a3.73,3.73,0,0,1,.94.12c.29.09.44.25.44.5a1,1,0,0,1-.13.88,5.27,5.27,0,0,1-.56.5,5.27,5.27,0,0,0-.56.5,1,1,0,0,0-.13.87h2.88a6.24,6.24,0,0,1-.25-3.06l.5-3.06a18.46,18.46,0,0,0,.25-2.88,3.31,3.31,0,0,0-1-2.37c.66.17,1,.06,1.06-.31s.31-.57.81-.57c-.41-.91-.48-1.45-.18-1.62a1.91,1.91,0,0,0,.68-1.25,2,2,0,0,0-1.81-1.13C325,57.25,324.21,57.3,323.37,57.38Zm7.13,3.37c.08-.75-.13-1.18-.63-1.31a7.33,7.33,0,0,0-1.75-.19c-.16.75.09,1.13.75,1.13A3.08,3.08,0,0,1,330.5,60.75Zm-13.88,6.13a1.21,1.21,0,0,0,1.63,0,3.94,3.94,0,0,0,1.25-1.38,9,9,0,0,1-1.69.38A1.32,1.32,0,0,0,316.62,66.88Zm1,2.87a3.44,3.44,0,0,0,2.38.5,2.62,2.62,0,0,1,.5-1.5,1.37,1.37,0,0,0-1.63-.18A2.11,2.11,0,0,0,317.62,69.75ZM319,73.13a2.46,2.46,0,0,1-.63-.31c-.16-.13-.25.1-.25.68,0,.17.15.25.44.25a5.58,5.58,0,0,0,1-.12l1.06-.25a3.89,3.89,0,0,0,.75-.25v-1.5a1.89,1.89,0,0,1-.81-.38,1.39,1.39,0,0,0-1.06-.12,3.07,3.07,0,0,1-.38.87A1.58,1.58,0,0,0,319,73.13Zm7.62.87q1.38.25,1.38-.93c0-.79-.46-1.11-1.38-.94-.41.42-.52.67-.31.75S326.62,73.34,326.62,74Zm4.75,1.38a4.28,4.28,0,0,1,.82.5c.2.17.56.17,1.06,0,.16-1.33-.29-2-1.38-1.88A2.47,2.47,0,0,1,331.37,75.38Zm-.87,2.87a2.74,2.74,0,0,0,.44-1.87c0-.83-.53-1.17-1.44-1C329.37,77,329.66,77.88,330.5,78.25Zm-10,10a5.82,5.82,0,0,0-1.38.13,4.24,4.24,0,0,1-.87.12h-.81a3.72,3.72,0,0,1-1.19-.25c0,.75.21,1.23.62,1.44a2.54,2.54,0,0,0,1.38.25,2.82,2.82,0,0,0,1.44-.56A1.94,1.94,0,0,0,320.5,88.25ZM335.12,93c.25-.5.27-.85.07-1.06a1.73,1.73,0,0,0-.82-.44,2.11,2.11,0,0,0-1,0,.8.8,0,0,0-.62.5.73.73,0,0,1,.75.13,2.23,2.23,0,0,1,.37.5,1.33,1.33,0,0,0,.38.44C334.37,93.19,334.71,93.17,335.12,93Z"/><path class="cls-1" d="M399.37,12.63a2.11,2.11,0,0,0,.57-1.69,3.3,3.3,0,0,0-.75-1.31l-1.13-1.25a2.19,2.19,0,0,1-.56-1.5,42.44,42.44,0,0,1,5.94,2.31,31.7,31.7,0,0,1,5.43,3.44,1.19,1.19,0,0,1-1,.75c-.5.08-.62.58-.37,1.5,1.58.42,2.2-.21,1.87-1.88a45.58,45.58,0,0,1,7.32,7.88A24,24,0,0,1,420.75,32c-1.5-.12-3.3-.12-5.38-.12h-6.5q-3.37,0-6.62-.06t-5.75-.32c0-.58.14-.93.44-1.06a1.83,1.83,0,0,1,.93-.12,3.7,3.7,0,0,0,.94,0c.29,0,.48-.27.56-.69a1.5,1.5,0,0,0-1.56-1.31c-.87,0-1.77-.07-2.69-.07a8.47,8.47,0,0,0-5.31-4.12,15.2,15.2,0,0,0-7.25-.25,17,17,0,0,0-6.75,3,10,10,0,0,0-3.94,5.62,37,37,0,0,0-.81,5.13c-.21,2.08-.37,4.33-.5,6.75s-.23,4.9-.31,7.44L370,59a31.69,31.69,0,0,0,.5,8.19,17.11,17.11,0,0,0,2.44,6.19,9,9,0,0,0,4.31,3.5,10.32,10.32,0,0,0,6,.25,7.2,7.2,0,0,0,4.94.44A9.05,9.05,0,0,0,392,75.19a15.31,15.31,0,0,0,2.75-4.06,31.51,31.51,0,0,0,1.75-4.5,54.4,54.4,0,0,0,11.12.37q5.88-.37,12.63-1.37a31.87,31.87,0,0,1-2.94,12.81A28.08,28.08,0,0,1,410,87.88a35.16,35.16,0,0,1-10.75,6.06,46,46,0,0,1-13.13,2.56c-.5,0-.77-.12-.81-.37a4.74,4.74,0,0,1-.06-.75,2.36,2.36,0,0,0-.13-.75c-.08-.25-.37-.42-.87-.5-.59.08-.8.48-.63,1.19a4.16,4.16,0,0,1,.13,1.68,39.18,39.18,0,0,1-15.25-3.75,46,46,0,0,1-10.88-7.62q-.87-.87-.12-1.56a2,2,0,0,0,.62-1.82c-.5-.25-.83-.29-1-.12a1.12,1.12,0,0,0-.31.69,2,2,0,0,1-.25.75c-.12.21-.4.27-.81.18l-2.88-5.68c-1-2-1.93-4-2.81-6.19a43.09,43.09,0,0,1-2.12-6.94,31,31,0,0,1-.69-7.81c0-2.83,0-5.69.12-8.56s.21-5.69.38-8.44a43.38,43.38,0,0,1,2-12.06,63.52,63.52,0,0,1,4.12-9.82,41.56,41.56,0,0,0,6.25-4.81,33,33,0,0,1,6.5-4.69q3.87.38,5.25-1.87c1.67,0,3.38-.06,5.13-.19s3.52-.27,5.31-.44S386,6,387.87,6a46.2,46.2,0,0,1,5.88.38c.66,1.33,1.35,2.62,2.06,3.87A4.93,4.93,0,0,0,399.37,12.63Zm-12.75-2a1,1,0,0,0,.94-.19,1,1,0,0,1,.94-.19c0-.66-.25-1.06-.75-1.18s-1-.23-1.63-.32a1,1,0,0,0,.19.94A1.25,1.25,0,0,1,386.62,10.63Zm16.13,5.75a5.68,5.68,0,0,1,1.37.69,2.42,2.42,0,0,0,1.88.18,5.48,5.48,0,0,0-.63-2.12A2.46,2.46,0,0,0,403.62,14a1.66,1.66,0,0,1-.56,1A1.48,1.48,0,0,0,402.75,16.38Zm-31.88.87a2.11,2.11,0,0,0,1.19.13,1,1,0,0,0,.63-.44,4.55,4.55,0,0,1,.43-.62,1.27,1.27,0,0,1,.63-.44,1.37,1.37,0,0,0,1.56.87,6.26,6.26,0,0,1,2.69.13c.08-1.25-.21-2-.88-2.38a3.67,3.67,0,0,0-2.31-.25,5.85,5.85,0,0,0-2.5,1.19A4,4,0,0,0,370.87,17.25Zm13.38-.37a1,1,0,0,0,1.06-.31,1.58,1.58,0,0,0,.31-.94,1.3,1.3,0,0,0-.31-.88,1.06,1.06,0,0,0-1.06-.25Zm3.25,0a2.67,2.67,0,0,1,1.44-.31c.45,0,.87.06,1.25.06a1.17,1.17,0,0,0,.87-.31,2.15,2.15,0,0,0,.31-1.44,4.78,4.78,0,0,1-1.25.25,1.59,1.59,0,0,1-.68-.13,5.37,5.37,0,0,1-.69-.31,3.12,3.12,0,0,0-1.25-.19c-.42.42-.52.75-.31,1A2.31,2.31,0,0,1,387.5,16.88Zm20.37,2.75a1.55,1.55,0,0,0,1.63.06,2,2,0,0,0,.81-1.06,1.46,1.46,0,0,0-.19-1.25,1.15,1.15,0,0,0-1.25-.5,1.76,1.76,0,0,0-.43,1.44A1.29,1.29,0,0,1,407.87,19.63Zm1,6.75a3.54,3.54,0,0,0,2.5.19c1.17-.21,1.75-.77,1.75-1.69a3.3,3.3,0,0,0-1.56-.13,4.57,4.57,0,0,1-2.19-.37,1.06,1.06,0,0,1-.25,1.06A.89.89,0,0,0,408.87,26.38Zm-42.25,1.37Q368,28,368,26.82c0-.79-.46-1.11-1.38-.94Zm-1.87,7.13a.86.86,0,0,0,.12,1,1.49,1.49,0,0,0,1.82.25.81.81,0,0,0,.43-.75,7.42,7.42,0,0,1-1.12-.81C365.66,34.28,365.25,34.38,364.75,34.88Zm-9.5,14.25c.16-.58.31-1.19.44-1.81a4.69,4.69,0,0,1,.56-1.57,1.49,1.49,0,0,0-1.44.19,1.7,1.7,0,0,0-.5,1.06,3,3,0,0,0,.19,1.32A1.12,1.12,0,0,0,355.25,49.13Zm6.25-1.5c1.08.08,1.54-.54,1.37-1.88C361.7,45.67,361.25,46.3,361.5,47.63ZM364.75,50c.91,0,1.35-.14,1.31-.43s-.15-.77-.31-1.44c-.92.08-1.36.27-1.31.56A10,10,0,0,0,364.75,50Zm-7.63,1.88a1.46,1.46,0,0,0,.32,1.06,1,1,0,0,1,.18.94q1.13,0,2.13-.06t.75-1.44c0-.67-.48-1-1.44-1A2.78,2.78,0,0,0,357.12,51.88Zm-8.5,2a2.52,2.52,0,0,0,.5,1.37c1.08.09,1.54-.54,1.38-1.87A2.68,2.68,0,0,0,348.62,53.88Zm1.88,4.25c1.33-.08,2-.88,1.87-2.38a1.6,1.6,0,0,1-.81-.43c-.21-.21-.56-.23-1.06-.07a2.32,2.32,0,0,0,0,2.88Zm3.37-1.5-.5,1.81a1.39,1.39,0,0,0,.5,1.56c1.17-.41,2.27-.83,3.32-1.25a4.25,4.25,0,0,0,2.31-2.12c-.25-.58-.59-.88-1-.88a3.16,3.16,0,0,0-1.31.32,12.2,12.2,0,0,1-1.57.56A2.83,2.83,0,0,1,353.87,56.63Zm-1.5,12.87a2.37,2.37,0,0,1,1.57.44c.62.38,1.06.23,1.31-.44q0-.24-.06-.81a2.65,2.65,0,0,0-.38-1.06,2.41,2.41,0,0,0-.87-.81,2.65,2.65,0,0,0-1.57-.19Zm11.88-.5h-1.88c-.25,1.17-.18,2,.19,2.38a1.17,1.17,0,0,0,1.13.5,1.45,1.45,0,0,0,.93-.88A2.1,2.1,0,0,0,364.25,69Zm1.87,5.25q.5-1.12.63-.93a1.72,1.72,0,0,1,.12.81,10.36,10.36,0,0,0,.07,1.25c0,.42.26.5.68.25a3.07,3.07,0,0,1,.07-1.38l.31-1.37a1.5,1.5,0,0,0-.13-1.06c-.17-.29-.58-.44-1.25-.44a1,1,0,0,1,0,1,4.12,4.12,0,0,1-.56.69,2,2,0,0,0-.44.56C365.54,73.8,365.7,74,366.12,74.25Zm-8,.5H361c.16-1.25-.17-1.91-1-2a.75.75,0,0,1-.31.69,3.68,3.68,0,0,1-.63.31,4.54,4.54,0,0,0-.62.32A.71.71,0,0,0,358.12,74.75Zm38.38,5.63a6,6,0,0,0-2.38,1.56,8.79,8.79,0,0,0-1.56,2.25,4.79,4.79,0,0,0-.44,2.5,3.18,3.18,0,0,0,1.13,2.19,2.46,2.46,0,0,0,.25-1.25V85.82a8.59,8.59,0,0,1,.19-1.82,1.71,1.71,0,0,1,.93-1.25,1.28,1.28,0,0,0,1,.82,3.48,3.48,0,0,0,1.32-.13,5.35,5.35,0,0,1,1.43-.19,2.69,2.69,0,0,1,1.5.5q-.25.75-.87.75a11.85,11.85,0,0,1-1.19-.06,2.49,2.49,0,0,0-.94.06c-.25.09-.37.46-.37,1.13a12.69,12.69,0,0,0,5.06-.25q2.31-.63,2.56-3.63c-1.17-.41-2.17-.75-3-1a4.2,4.2,0,0,0-3.12.63.71.71,0,0,0-.19-.56,1.67,1.67,0,0,1-.31-.44,11,11,0,0,1,1-1.69,8.22,8.22,0,0,0,.81-1.37,6.15,6.15,0,0,0,.44-1.63,19.84,19.84,0,0,0,.12-2.44,8.83,8.83,0,0,0-2.06,3.25C397.37,77.75,396.91,79.05,396.5,80.38Zm-39.38.5a2.26,2.26,0,0,1,.94.37,1.35,1.35,0,0,0,1.06.13,1.37,1.37,0,0,1,.13-1.5,6.83,6.83,0,0,1,.94-1,2,2,0,0,0,.56-.69q.12-.31-.75-.69c-.67.92-1.13,1.59-1.38,2A4.94,4.94,0,0,1,357.12,80.88Zm33.25-1.5v1.5h2.38c.25-.92,0-1.5-.69-1.75A1.49,1.49,0,0,0,390.37,79.38ZM371.87,87a2.85,2.85,0,0,1,.75-1.06c.33-.29.42-.89.25-1.81a3.38,3.38,0,0,0-2.37-.38C370.25,85.59,370.7,86.67,371.87,87Zm4.25-.87a4.26,4.26,0,0,0,1.82,4.12,5.71,5.71,0,0,0,3.93,1,2,2,0,0,0-.56,1.25,7.42,7.42,0,0,0,.06,1.63c.75-.08,1.17-.31,1.25-.69a3.94,3.94,0,0,0,0-1.37l-.25-1.63a2.12,2.12,0,0,1,.38-1.56,4.42,4.42,0,0,1-1.5-.94c-.5-.46-1-.89-1.5-1.31a4.61,4.61,0,0,0-1.63-.88A2.62,2.62,0,0,0,376.12,86.13Zm25.13,3.25a1.21,1.21,0,0,0,.5-1.19,2.1,2.1,0,0,0-.56-1.12,2.14,2.14,0,0,0-1.13-.57,1.21,1.21,0,0,0-1.19.5,1.17,1.17,0,0,1,.19.57,4.26,4.26,0,0,0,.25.93,1.94,1.94,0,0,0,.56.82Q400.25,89.64,401.25,89.38Zm-5.13,0c1.33.25,2-.38,1.88-1.88a1.52,1.52,0,0,0-1.06-.5,1.28,1.28,0,0,0-.94.38,1.51,1.51,0,0,0-.44.94A1.2,1.2,0,0,0,396.12,89.38Z"/><path class="cls-1" d="M445.87,24.63c.17.58.36.92.56,1a1.35,1.35,0,0,0,.69.06,2.46,2.46,0,0,0,.75-.25.84.84,0,0,1,.88.19,12.1,12.1,0,0,0-.32,3l.13,2.37q.06,1.13.06,2.25a12.73,12.73,0,0,1-.37,2.75c-.67-.16-.9-.5-.69-1s.1-.79-.31-.87a12.15,12.15,0,0,1-.38,3.75,11.88,11.88,0,0,1-1.5,3.56A8.45,8.45,0,0,1,442.81,44a4.75,4.75,0,0,1-3.56.63c-.17.5-.19.83-.07,1a2.11,2.11,0,0,0,.5.44,1.71,1.71,0,0,1,.5.43c.13.17.11.5-.06,1-.5.5-.92.48-1.25-.06a2,2,0,0,0-1.5-.94,2.15,2.15,0,0,0-.12,2.82,12.93,12.93,0,0,1,1.5,2.43,1.4,1.4,0,0,1-1.5.82c-.59-.13-1.21-.27-1.88-.44A3,3,0,0,0,433.75,54a10.65,10.65,0,0,0-.44,2.69V59.5a4.43,4.43,0,0,1-.31,2.13,4.74,4.74,0,0,1-3.88-1.69,9.2,9.2,0,0,1-1.5-4,28.89,28.89,0,0,1-.25-5.5q.12-3.06,0-6.31c-.17-3.75-.37-7.42-.62-11s-.38-6.71-.38-9.38a1.18,1.18,0,0,1,1.38-.31q.75.31,1.5-.69a1.07,1.07,0,0,0-.82-.43,10.67,10.67,0,0,1-1.12-.13,1.25,1.25,0,0,1-.88-.44,1.64,1.64,0,0,1-.06-1.37c.25-.25.46-.35.63-.31a.94.94,0,0,1,.43.25l.44.43a1,1,0,0,0,.88.13,1.74,1.74,0,0,0-.94-1.19q-.69-.32-1.44-.69a3.35,3.35,0,0,0,.06-1.18l-.12-1.32a1.9,1.9,0,0,1,.12-1c.13-.25.44-.33.94-.25a4.65,4.65,0,0,1-1.19-2.43,15.11,15.11,0,0,1-.12-2.69c0-.92.1-1.85.19-2.81A9.9,9.9,0,0,0,426,4.25q3.5.13,7.5.63c2.66.33,5.39.69,8.18,1.06s5.67.69,8.63.94a78.49,78.49,0,0,0,8.81.25,18.41,18.41,0,0,1,.13,4.69q-.25,2.05-3,2.43a1.84,1.84,0,0,0,.12,1.57,2,2,0,0,1,.38,1.31,1.74,1.74,0,0,1-1.38.44c-.58,0-1.21-.07-1.87-.07a4.2,4.2,0,0,1-.5,2.82,7.91,7.91,0,0,1-1.94,2.25,10.72,10.72,0,0,1-2.63,1.5A7.26,7.26,0,0,1,445.87,24.63Zm43.63-17c.08,1,.2,2.23.37,3.69s.31,3,.44,4.75.21,3.43.25,5.18,0,3.38-.06,4.88q-4.5-.75-8.82-1.13c-2.87-.25-5.75-.45-8.62-.62s-5.77-.35-8.69-.56-5.92-.57-9-1.07c0-.25.17-.37.5-.37a2.61,2.61,0,0,0,.88-.13,14.18,14.18,0,0,1,3.68-4.5,49,49,0,0,1,4.82-3.43c1.66-1,3.27-2.09,4.81-3.13a15.74,15.74,0,0,0,3.81-3.56q3.75.37,6.5.56t7.25.31c.33.17.56.19.69.07a1,1,0,0,0,.25-.5,1.27,1.27,0,0,1,.19-.5Q488.87,7.38,489.5,7.63ZM481,13.25v1.5a3.48,3.48,0,0,0,2.5.44c1.08-.12,1.66-.6,1.75-1.44A4.3,4.3,0,0,0,481,13.25Zm-11.88,2.38H471c0-1.08-.63-1.71-1.88-1.88Zm-30.87.5a1.85,1.85,0,0,0,.5-1.38c0-.58-.34-.91-1-1a1.8,1.8,0,0,0-.44,1.44C437.37,15.82,437.66,16.13,438.25,16.13Zm1.5,18.5c-.42-1.5-1.13-2.33-2.13-2.5a38,38,0,0,0-4.12-.38,3.66,3.66,0,0,1,.31-2.37c.29-.33,1-.33,2.06,0V27.5c0-.58.33-.87,1-.87a3.59,3.59,0,0,0,1.94,1.06,16.52,16.52,0,0,0,2.81-.19,1.29,1.29,0,0,0-.69-1.25,4.53,4.53,0,0,0-1.56-.5c-.58-.08-1.17-.18-1.75-.31a1.81,1.81,0,0,1-1.25-.81c.17-1.08.29-2.29.38-3.63a3.72,3.72,0,0,0-.88-3,6.94,6.94,0,0,1-.69,3.5l-1.68,3.63a18.22,18.22,0,0,0-1.32,4,8.14,8.14,0,0,0,.44,4.5,10.93,10.93,0,0,1,4.13-.56A5.49,5.49,0,0,1,439.75,34.63ZM443,27c-.09-.33,0-.54.25-.62a4.54,4.54,0,0,1,.81-.19,1.41,1.41,0,0,0,.69-.25q.24-.18.12-.81a2.36,2.36,0,0,0-1.44-.06,2.27,2.27,0,0,0-1.06.56.72.72,0,0,0-.25.75A1.14,1.14,0,0,0,443,27Zm-12.75,1.5a1.4,1.4,0,0,0-.5-1.43,1.38,1.38,0,0,1-.5-1.44,2.27,2.27,0,0,1-1.5,0c-.67-.17-1,0-.88.5a2.08,2.08,0,0,1,1.56,1.25A2,2,0,0,0,430.25,28.5Zm-1.5,1.88a.89.89,0,0,0,.25.94.9.9,0,0,1,.25.93,1.65,1.65,0,0,0,1.87-1.4,1.85,1.85,0,0,0,0-.47,1.65,1.65,0,0,0-2.33,0Zm.5,8q.87,3.25,4.75,3.87a4.71,4.71,0,0,0-.32-2.43A11.37,11.37,0,0,0,432.62,38c-.67,0-1.31,0-1.94-.06A1.78,1.78,0,0,0,429.25,38.38Zm56.5,2.37a18.13,18.13,0,0,0-.5,5.19c.08,1.71.18,3.38.31,5s.21,3.23.25,4.81a14.56,14.56,0,0,1-.56,4.5q-9.37-.87-18.38-1.18t-15.75-.69a31.72,31.72,0,0,0-1,8,33.13,33.13,0,0,0,1,8.12c0,.25.08.4.25.44l.5.13a.92.92,0,0,1,.44.25.77.77,0,0,1,.19.56,27.12,27.12,0,0,1,7.68-.44q4.06.32,8.32.88c2.83.37,5.7.71,8.62,1a46.08,46.08,0,0,0,8.63.06,1.63,1.63,0,0,0,1.31.75,16.65,16.65,0,0,0,2,.12c.71,0,1.42,0,2.12.07a3.69,3.69,0,0,1,1.69.43,13.65,13.65,0,0,0-.5,4.63c.08,1.67.19,3.35.31,5.06s.19,3.38.19,5a9,9,0,0,1-1,4.31c-2.75,0-5.38-.12-7.87-.37s-4.95-.54-7.38-.88l-7.12-1a65.69,65.69,0,0,0-7-.62q-9.63-.37-17.38-.63t-15.87-.75c0-1.75,0-3.43-.07-5.06s-.1-3.33-.18-5.12-.15-3.75-.19-5.88-.06-4.52-.06-7.19a8.51,8.51,0,0,1,2.31-2,19.27,19.27,0,0,1,3.06-1.5,16.59,16.59,0,0,1,3.25-.87,7.48,7.48,0,0,1,2.75,0,2.87,2.87,0,0,0,1.13-.63c.25-.25.5-.47.75-.68a1.67,1.67,0,0,1,.93-.38,3.67,3.67,0,0,1,1.57.31,2.55,2.55,0,0,0-.19-2.25,4.56,4.56,0,0,0-1.31-1,4.48,4.48,0,0,1-1.32-1q-.56-.61-.06-2.37a2.31,2.31,0,0,1,1.63.75,5.13,5.13,0,0,0,1.25,1.12,4.32,4.32,0,0,0-.32-3c-.45-.91-.93-1.81-1.43-2.68a9.63,9.63,0,0,1-1.07-2.88,5.75,5.75,0,0,1,.82-3.69c.5-.5.83-.6,1-.31a1.73,1.73,0,0,0,1,.69q.62-.5.12-1.44a1.5,1.5,0,0,1,.25-1.81c.75-.25,1.15-.1,1.19.44s.27.85.69.93a2.26,2.26,0,0,0,.37-1.87,4.8,4.8,0,0,1,.13-2.38,17,17,0,0,1,7.87-2.62,53.61,53.61,0,0,1,9.31.06c3.3.29,6.73.67,10.32,1.13A64.21,64.21,0,0,0,485.75,40.75ZM463.37,46.5q0-.75.63-.81c.41,0,.54-.39.37-1.06a1.65,1.65,0,0,1-.81-.44c-.21-.21-.56-.23-1.06-.06a1.94,1.94,0,0,0-.32,1.44A2.48,2.48,0,0,0,463.37,46.5Zm4.75,1a8.43,8.43,0,0,0-.37-1.56c-.17-.46-.67-.6-1.5-.44a1.22,1.22,0,0,0-.57,1.07,1.56,1.56,0,0,0,.44.93,1.51,1.51,0,0,0,.94.44A1.26,1.26,0,0,0,468.12,47.5Zm9.5,2.75c.58.59,1.13.78,1.63.57a3.42,3.42,0,0,0,1.37-1.13,12.58,12.58,0,0,0,1.19-1.87c.32-.62.68-1.23,1.06-1.82a5.45,5.45,0,0,0-3.31,1.44A9.74,9.74,0,0,0,477.62,50.25Zm-10,.5c.67-.16,1.08-.1,1.25.19s.54.4,1.13.31a5.44,5.44,0,0,1,.25-.81c.08-.21.33-.27.75-.19a2,2,0,0,0-2.09-1.9,1.43,1.43,0,0,0-.29,0,2.73,2.73,0,0,0-.5,1.19A2.69,2.69,0,0,1,467.62,50.75Zm5.25,2.38a15.67,15.67,0,0,0-.12-1.94c-.09-.62-.5-.94-1.25-.94a5.05,5.05,0,0,0-.32,2.07C471.23,53,471.79,53.3,472.87,53.13Zm-26.5-.5c-.08-.58-.19-1.13-.31-1.63s-.52-.75-1.19-.75a8,8,0,0,0,.19,1.82C445.18,52.61,445.62,52.8,446.37,52.63ZM443.5,66.38a1,1,0,0,0,1,.5h3.12a1.33,1.33,0,0,1,1.13.5,1.47,1.47,0,0,0-.69-1.25,4.21,4.21,0,0,0-1.63-.69,4.6,4.6,0,0,0-1.81,0A1.41,1.41,0,0,0,443.5,66.38Zm-10,9a3.07,3.07,0,0,0-1.82.19c-.29.21-.77.14-1.43-.19v2.37a5.11,5.11,0,0,0,2.37.5,5.28,5.28,0,0,0,2.38-.5,11.34,11.34,0,0,1-.19-2.25,3.33,3.33,0,0,1,1.06-1.5.77.77,0,0,1,.56.19,2.3,2.3,0,0,1,.32.38,1.85,1.85,0,0,0,.31.37q.18.19.69.06V72.63a13.46,13.46,0,0,0-3,.75A2,2,0,0,0,433.5,75.38Zm6.25,2h1.37a2.34,2.34,0,0,0,.5-1.69c0-.79-.33-1.19-1-1.19a5,5,0,0,0-1.25,1.13C439,76.13,439.08,76.71,439.75,77.38Zm9,.37c.41,0,.58.23.5.69s0,.73.37.81l.88-.87q.38-.37.12-1.5C449.45,76.71,448.83,77,448.75,77.75Zm-1.5,5.75V81.13h-1.38c-.17.75-.08,1.27.25,1.56A7.51,7.51,0,0,0,447.25,83.5Zm38,.88a1.26,1.26,0,0,0,.25,1.19,1,1,0,0,0,.93.18,2.84,2.84,0,0,0,1.07-.5,1.6,1.6,0,0,0,.62-.87c-.5-.5-.92-.58-1.25-.25A1.69,1.69,0,0,1,485.25,84.38Zm-36.13,2.37a3,3,0,0,0,2-.37,1.92,1.92,0,0,0-1.84-2h-.16c-.42.5-.52.87-.31,1.12A2,2,0,0,1,449.12,86.75ZM467.25,92a4.29,4.29,0,0,1,1.43,0c.55.09.69-.2.44-.87a.4.4,0,0,0-.36-.44h0l-.75-.12a1.44,1.44,0,0,1-.63-.25q-.25-.19-.12-.69a6.47,6.47,0,0,1,1-.63,2.25,2.25,0,0,0,.87-.75,1.11,1.11,0,0,1-.94.07,3.39,3.39,0,0,1-.56-.44,6.66,6.66,0,0,0-.56-.5.9.9,0,0,0-.81-.13c-.42.5-.57.92-.44,1.25a3.52,3.52,0,0,0,.56,1c.25.34.5.69.75,1.07A1.67,1.67,0,0,1,467.25,92Z"/></g></g></g></g></g></svg>