<svg xmlns="http://www.w3.org/2000/svg" viewBox="0 0 98 492.87"><defs><style>.cls-1{isolation:isolate;}.cls-2{fill:#373736;}</style></defs><g id="レイヤー_2" data-name="レイヤー 2"><g id="レイヤー_1-2" data-name="レイヤー 1"><g id="SERVICE" class="cls-1"><g class="cls-1"><path class="cls-2" d="M95.37,497.37q-3.12-3.37-6.56-6.44t-6.69-6.31a28.74,28.74,0,0,0,3.44-6,35.58,35.58,0,0,0,2-6.32c.46-2.12.81-4.27,1.06-6.43s.46-4.29.63-6.38a2,2,0,0,1-.81-2.06,3.11,3.11,0,0,0-.19-2.19,8.25,8.25,0,0,0-4.13-4.12,10.54,10.54,0,0,0-5.75-1.07,8.3,8.3,0,0,0-5,2.38c-1.41,1.37-2,3.4-1.75,6.06-.33.42-.64.56-.93.44a2.72,2.72,0,0,1-.82-.56,3.94,3.94,0,0,0-.68-.57c-.21-.12-.48,0-.82.32-.08.5,0,.83.25,1a2.92,2.92,0,0,0,.88.37,6.86,6.86,0,0,0,1.12.19,2.23,2.23,0,0,1,1,.31q-.75,6.51-1.5,12.19a37.7,37.7,0,0,1-3.25,11.06c-.58-.08-1,0-1.12.31s-.58.32-1.25.07q-.12.61.06.75a3.85,3.85,0,0,0,.5.25,2.1,2.1,0,0,1,.5.25q.19.12-.06.75a16,16,0,0,1-7.44,6,28.76,28.76,0,0,1-10.12,2.18,36.52,36.52,0,0,1-10.57-1.18,23.93,23.93,0,0,1-8.87-4.25,24.19,24.19,0,0,1-2.88-2.88,49,49,0,0,1-3.18-4.12q-1.56-2.25-2.82-4.5a37.23,37.23,0,0,1-2-4.13,27.34,27.34,0,0,1-1.75-7.25,24.46,24.46,0,0,1,.25-7,23,23,0,0,1,2.63-.62,13.89,13.89,0,0,0,2.62-.75c.09-.42.05-.69-.12-.82a1.12,1.12,0,0,1-.38-.56,1.16,1.16,0,0,0-1-.56,3.13,3.13,0,0,0-1.06.37c-.37.21-.77.42-1.19.63a1.73,1.73,0,0,1-1.5-.06c.17-1.59.25-2.69.25-3.32a3.9,3.9,0,0,1,1.25-2.31,9.26,9.26,0,0,1-.25-4.69A8.63,8.63,0,0,1,19,442.49a11.37,11.37,0,0,1,2.69-2.37l3.06-2c-.33-.67-.67-1.36-1-2.07a2.11,2.11,0,0,0-1.88-1.18c.42-.67.82-1.32,1.19-1.94s.77-1.27,1.19-1.94c.42-.08.71,0,.87.13a3.29,3.29,0,0,1,.5.62,2.9,2.9,0,0,0,.57.63,1.11,1.11,0,0,0,.93.12c.34-.25.42-.48.25-.69s.05-.47.63-.81a51.29,51.29,0,0,1,5.31,5.63A32.51,32.51,0,0,0,38.87,442a29.78,29.78,0,0,1-1.43,3.38A29.39,29.39,0,0,0,36,448.8a21.85,21.85,0,0,0-.94,3.94,17.47,17.47,0,0,0,.06,4.88c.17.75,0,1.16-.5,1.25a2.94,2.94,0,0,0-1.37.62c.08.42.37.59.87.5a.81.81,0,0,1,1,.5c-.75,3.34-.43,5.94.94,7.81a8.92,8.92,0,0,0,5.25,3.57,11.2,11.2,0,0,0,6.56-.5,8.55,8.55,0,0,0,4.88-4.25l-1.5-1.5a15.14,15.14,0,0,0,1.25-4.38c.17-1.41.27-2.85.31-4.31s0-2.88,0-4.25a18.92,18.92,0,0,1,.31-4.06A28.8,28.8,0,0,1,57,438.12a22.79,22.79,0,0,1,7.37-7.44,26.07,26.07,0,0,1,10.32-3.63,35.31,35.31,0,0,1,12.56.69,16.2,16.2,0,0,1,3.69,1.31,23.5,23.5,0,0,1,3,1.88c1,.71,1.91,1.44,2.87,2.19a22.19,22.19,0,0,0,3.31,2.12,50.84,50.84,0,0,1,3.94,7,54.42,54.42,0,0,1,3.06,8.31,51.17,51.17,0,0,1,1.5,19.82,17.7,17.7,0,0,1-1.12,4.37,7.33,7.33,0,0,0-.25,4.63,1.6,1.6,0,0,1-1.44.56c-.62,0-1.27-.06-1.94-.06-.16.5-.18.83-.06,1a1.15,1.15,0,0,0,.56.37,4.1,4.1,0,0,0,.82.19.69.69,0,0,1,.56.31c-.83,1.75-1.56,3.36-2.19,4.81a33.88,33.88,0,0,1-2,4,24.16,24.16,0,0,1-2.5,3.5A21,21,0,0,1,95.37,497.37ZM26.12,449c-1.33-.16-1.95.34-1.87,1.5C25.58,450.66,26.21,450.16,26.12,449Zm2.38-2.25a1.89,1.89,0,0,0-1.63-.5c-.66.09-.91.54-.75,1.38a5.15,5.15,0,0,0,1.57,0A1,1,0,0,0,28.5,446.74Zm1.87-2.87a.58.58,0,0,0-.18-.82,1.74,1.74,0,0,0-1-.31,1.72,1.72,0,0,0-1,.31.58.58,0,0,0-.19.82Zm3.88,23.62a2.57,2.57,0,0,1-1.19,0c-.54-.08-1.08-.14-1.62-.19a3.89,3.89,0,0,0-1.44.13c-.42.12-.58.48-.5,1.06a9.08,9.08,0,0,0,2.62-.12A5.41,5.41,0,0,0,34.25,467.49Zm2.37,14.25c-1.16-.08-1.66.54-1.5,1.88a2,2,0,0,0,1.57-.63A.81.81,0,0,0,36.62,481.74Zm13.75,3.38c.17-.34.05-.61-.37-.82a3.17,3.17,0,0,0-1.38-.31,2.76,2.76,0,0,0-1.31.31c-.37.21-.48.48-.31.82Zm-1-10a3.42,3.42,0,0,0-2.37-.5,1.15,1.15,0,0,0,.19,1,1.2,1.2,0,0,0,.81.43,1.47,1.47,0,0,0,.94-.18A.81.81,0,0,0,49.37,475.12Zm1.38,4.75c.08-1.09-.54-1.54-1.88-1.38C48.79,479.58,49.42,480,50.75,479.87Zm11.87-28.5a1.78,1.78,0,0,0-.62-1.5.84.84,0,0,0-1.25.12C60.67,451.16,61.29,451.62,62.62,451.37Zm5.25,5.25c-.41-1.09-.85-2.15-1.31-3.19a3.58,3.58,0,0,0-2.44-2.06c0,.33-.14.52-.43.56a.65.65,0,0,0-.57.44,2.19,2.19,0,0,1,1.32.93l.87,1.38a14.07,14.07,0,0,0,.94,1.31A1.94,1.94,0,0,0,67.87,456.62Zm.5-9c-.66-.67-1.18-.73-1.56-.19A6.49,6.49,0,0,0,66,449a4.76,4.76,0,0,0,1.75-.06C68.25,448.8,68.46,448.37,68.37,447.62Zm3.75.5c.09-1.17-.54-1.63-1.87-1.38v1.38Zm1-6.13c.09-1.16-.58-1.66-2-1.5V442Zm8,5.63A19.33,19.33,0,0,0,83,444.37c-.42.08-.69,0-.81-.19a3.1,3.1,0,0,1-.32-.81,2.76,2.76,0,0,0-.31-.82c-.12-.2-.44-.27-.94-.18a2.77,2.77,0,0,1-.75,1.56,4.72,4.72,0,0,1-1,.69c-.33.16-.68.35-1.06.56a2.41,2.41,0,0,0-.94,1.06,3.88,3.88,0,0,1,2.07.31C79.56,446.85,80.29,447.2,81.12,447.62Zm1.88-9.5c-.75-.17-1.21-.07-1.38.31s-.33.77-.5,1.19q1.38.87,1.5.06A9.87,9.87,0,0,1,83,438.12Zm2-1.88c.25-.75.19-1.14-.19-1.19a1,1,0,0,1-.81-.68c-.67-.09-1.1,0-1.31.37s-.4.67-.57,1a1.46,1.46,0,0,0,1.13.56A7.6,7.6,0,0,0,85,436.24Zm9.87,54.13a1.58,1.58,0,0,0-.75-1.38,3.92,3.92,0,0,0-1.68-.62,4.79,4.79,0,0,0-1.88.12,2.07,2.07,0,0,0-1.31.88,14.83,14.83,0,0,0,3.19.12A3.56,3.56,0,0,1,94.87,490.37ZM92.5,460.49c.08-1.16-.06-1.73-.44-1.69s-1,.11-1.94.19v1.5Zm.5-16.62c0-.17-.15-.32-.44-.44a2.41,2.41,0,0,0-1-.19,1.21,1.21,0,0,0-.87.31.66.66,0,0,0-.07.82,1.74,1.74,0,0,0,.57.25,6.39,6.39,0,0,0,.93.18,1.25,1.25,0,0,0,.82-.12Q93.26,444.49,93,443.87Zm9,34.62c-.33-.16-.75-.35-1.25-.56a8.49,8.49,0,0,1-1.25-.63,1,1,0,0,1-.56-.68c0-.25.18-.59.68-1a5.21,5.21,0,0,0-1.93.56c-.54.29-1.07.58-1.57.87s-1,.59-1.56.88a5.47,5.47,0,0,1-2.06.56v1.38q3.12-.37,5.69-.63A14.2,14.2,0,0,0,102,478.49Zm-5.63-24.75V451a2.74,2.74,0,0,0-2,.19,2.34,2.34,0,0,0-.87,1.19,1.29,1.29,0,0,1,.62.43,4.81,4.81,0,0,1,.44.63,1.07,1.07,0,0,0,.63.44A2.08,2.08,0,0,0,96.37,453.74Zm2.75-11.37c.17-.84.11-1.4-.18-1.69a3,3,0,0,0-1.19-.69,4,4,0,0,0-.5,2.38Z" transform="translate(-11.12 -4.5)"/><path class="cls-2" d="M35.75,400.12c.58-.17.92-.36,1-.57a1.27,1.27,0,0,0,.06-.68,2.45,2.45,0,0,0-.25-.75.84.84,0,0,1,.19-.88,11.46,11.46,0,0,0,3,.31l2.37-.12q1.13-.06,2.25-.06a12.51,12.51,0,0,1,2.75.37c-.16.67-.5.9-1,.69s-.79-.1-.87.31a12.14,12.14,0,0,1,3.75.38,11.75,11.75,0,0,1,3.56,1.5,8.34,8.34,0,0,1,2.56,2.56,4.73,4.73,0,0,1,.63,3.56c.5.17.83.19,1,.06a1.67,1.67,0,0,0,.44-.5,1.92,1.92,0,0,1,.43-.5c.17-.12.5-.1,1,.07.5.5.48.92-.06,1.25a2,2,0,0,0-.94,1.5,2.14,2.14,0,0,0,2.82.12,13,13,0,0,1,2.43-1.5,1.4,1.4,0,0,1,.82,1.5c-.13.59-.27,1.21-.44,1.88a3,3,0,0,0,1.87,1.62,11,11,0,0,0,2.69.44c1,0,1.9,0,2.81,0a4.44,4.44,0,0,1,2.13.31,4.74,4.74,0,0,1-1.69,3.88,9.1,9.1,0,0,1-4,1.5,29,29,0,0,1-5.5.25q-3.06-.12-6.31,0c-3.75.17-7.42.37-11,.62s-6.71.38-9.38.38a1.19,1.19,0,0,1-.31-1.38q.31-.75-.69-1.5a1.05,1.05,0,0,0-.43.81c0,.38-.09.75-.13,1.13a1.25,1.25,0,0,1-.44.87c-.25.21-.7.24-1.37.07-.25-.25-.35-.46-.31-.63a.93.93,0,0,1,.25-.44l.43-.43a1,1,0,0,0,.13-.88,1.76,1.76,0,0,0-1.19.94q-.31.69-.69,1.44a3.66,3.66,0,0,0-1.18-.07l-1.32.13a1.81,1.81,0,0,1-1-.13c-.25-.12-.33-.43-.25-.93a4.54,4.54,0,0,1-2.43,1.18,14.11,14.11,0,0,1-2.69.13c-.92,0-1.85-.1-2.81-.19a10,10,0,0,0-3.07.25q.14-3.5.63-7.5c.33-2.66.69-5.39,1.06-8.19s.69-5.66.94-8.62a78.83,78.83,0,0,0,.25-8.81,18.37,18.37,0,0,1,4.69-.13q2.05.25,2.43,3a1.84,1.84,0,0,0,1.57-.12,2,2,0,0,1,1.31-.38,1.72,1.72,0,0,1,.44,1.38c0,.58-.07,1.21-.07,1.87a4.2,4.2,0,0,1,2.82.5,7.89,7.89,0,0,1,2.25,1.94,10.61,10.61,0,0,1,1.5,2.62A7.29,7.29,0,0,1,35.75,400.12Zm-17-43.63c1-.08,2.23-.2,3.69-.37s3-.32,4.75-.44,3.43-.21,5.18-.25,3.38,0,4.88.06q-.75,4.5-1.13,8.81c-.25,2.88-.45,5.75-.62,8.63s-.35,5.77-.56,8.69-.57,5.92-1.07,9c-.25,0-.37-.17-.37-.5a2.63,2.63,0,0,0-.13-.88,14.06,14.06,0,0,1-4.5-3.69,47.25,47.25,0,0,1-3.43-4.81c-1-1.66-2.09-3.27-3.13-4.81a15.71,15.71,0,0,0-3.56-3.81q.38-3.75.56-6.5t.31-7.25c.17-.33.19-.57.07-.69a.92.92,0,0,0-.5-.25,1.22,1.22,0,0,1-.5-.19Q18.49,357.12,18.75,356.49Zm5.62,8.5h1.5a3.48,3.48,0,0,0,.44-2.5c-.12-1.08-.6-1.66-1.44-1.75A4.3,4.3,0,0,0,24.37,365Zm2.38,11.88V375c-1.08,0-1.71.63-1.88,1.88Zm.5,30.87a1.87,1.87,0,0,0-1.38-.5c-.58,0-.91.34-1,1a1.77,1.77,0,0,0,1.44.44C26.94,408.64,27.25,408.33,27.25,407.74Zm18.5-1.5c-1.5.42-2.33,1.13-2.5,2.13a37.75,37.75,0,0,0-.38,4.12,3.66,3.66,0,0,1-2.37-.31c-.33-.29-.33-1,0-2.06H38.62c-.58,0-.87-.33-.87-1a3.59,3.59,0,0,0,1.06-1.94,16.18,16.18,0,0,0-.19-2.81,1.32,1.32,0,0,0-1.25.68,4.82,4.82,0,0,0-.5,1.57c-.08.58-.18,1.17-.31,1.75a1.79,1.79,0,0,1-.81,1.25c-1.08-.17-2.29-.29-3.63-.38a3.73,3.73,0,0,0-3,.88,7.05,7.05,0,0,1,3.5.68l3.63,1.69a17.53,17.53,0,0,0,4,1.31,8.06,8.06,0,0,0,4.5-.43,10.92,10.92,0,0,1-.56-4.13A5.47,5.47,0,0,1,45.75,406.24ZM38.12,403c-.33.09-.54,0-.62-.25a4.8,4.8,0,0,1-.19-.81,1.44,1.44,0,0,0-.25-.69q-.18-.24-.81-.12a2.35,2.35,0,0,0-.06,1.43,2.31,2.31,0,0,0,.56,1.07.72.72,0,0,0,.75.25C37.75,403.79,38,403.49,38.12,403Zm1.5,12.75a1.41,1.41,0,0,0-1.43.5,1.38,1.38,0,0,1-1.44.5,2.22,2.22,0,0,1,0,1.5c-.17.67,0,1,.5.88a2.12,2.12,0,0,1,1.25-1.57A2,2,0,0,0,39.62,415.74Zm1.88,1.5a.89.89,0,0,0,.94-.25.9.9,0,0,1,.93-.25,1.65,1.65,0,0,0-1.87-1.87,1.65,1.65,0,0,0,0,2.37Zm8-.5q3.26-.87,3.87-4.75a4.85,4.85,0,0,0-2.43.31,12,12,0,0,0-1.82,1.07c0,.67,0,1.31-.06,1.93A1.78,1.78,0,0,0,49.5,416.74Zm2.37-56.5a18.08,18.08,0,0,0,5.19.5c1.71-.08,3.38-.19,5-.31s3.23-.21,4.81-.25a14.7,14.7,0,0,1,4.5.56q-.87,9.38-1.18,18.38t-.69,15.75a31.71,31.71,0,0,0,8,1,33.13,33.13,0,0,0,8.12-1c.25,0,.4-.08.44-.25s.09-.33.13-.5a.85.85,0,0,1,.25-.44.73.73,0,0,1,.56-.19,27.36,27.36,0,0,1-.44-7.69q.31-4.05.88-8.31c.37-2.83.71-5.7,1-8.62a46.12,46.12,0,0,0,.06-8.63,1.67,1.67,0,0,0,.75-1.31,15.81,15.81,0,0,0,.12-2c0-.71,0-1.42.07-2.13a3.69,3.69,0,0,1,.43-1.68,13.88,13.88,0,0,0,4.63.5c1.67-.08,3.35-.19,5.06-.32s3.38-.18,5-.18a9,9,0,0,1,4.31,1q0,4.13-.37,7.87t-.88,7.38q-.5,3.63-1,7.12a66.38,66.38,0,0,0-.62,7q-.37,9.63-.63,17.38t-.75,15.87c-1.75,0-3.43,0-5.06.06s-3.33.11-5.12.19-3.75.15-5.88.19-4.52.06-7.19.06a8.47,8.47,0,0,1-2-2.31,19.74,19.74,0,0,1-1.5-3.06,16.32,16.32,0,0,1-.87-3.25,7.42,7.42,0,0,1,0-2.75,2.92,2.92,0,0,0-.63-1.13c-.25-.25-.47-.5-.68-.75a1.7,1.7,0,0,1-.38-.94,3.67,3.67,0,0,1,.31-1.56c-1.08-.25-1.83-.19-2.25.19a4.43,4.43,0,0,0-1,1.31,4.27,4.27,0,0,1-1,1.31c-.41.38-1.2.4-2.37.07a2.31,2.31,0,0,1,.75-1.63,5.23,5.23,0,0,0,1.12-1.25,4.39,4.39,0,0,0-3,.31c-.91.46-1.81.94-2.68,1.44a9.38,9.38,0,0,1-2.88,1.06,5.65,5.65,0,0,1-3.69-.81c-.5-.5-.6-.83-.31-1a1.71,1.71,0,0,0,.69-1q-.49-.62-1.44-.12a1.5,1.5,0,0,1-1.81-.25c-.25-.75-.1-1.15.44-1.19s.85-.27.93-.69a2.28,2.28,0,0,0-1.87-.37,4.76,4.76,0,0,1-2.38-.13,17,17,0,0,1-2.62-7.87,53.92,53.92,0,0,1,.06-9.32c.29-3.29.67-6.72,1.13-10.31A63.61,63.61,0,0,0,51.87,360.24Zm5.75,22.38q-.75,0-.81-.63c0-.41-.39-.54-1.06-.37a1.68,1.68,0,0,1-.44.81c-.21.21-.23.56-.06,1.06.67.34,1.15.44,1.44.31A2.37,2.37,0,0,0,57.62,382.62Zm1-4.75a8.12,8.12,0,0,0-1.56.37c-.46.17-.6.67-.44,1.5a1.19,1.19,0,0,0,1.07.56,1.5,1.5,0,0,0,.93-.43,1.53,1.53,0,0,0,.44-.94A1.25,1.25,0,0,0,58.62,377.87Zm2.75-9.5c.59-.58.78-1.13.57-1.63a3.49,3.49,0,0,0-1.13-1.37,12.28,12.28,0,0,0-1.87-1.19c-.71-.38-1.32-.73-1.82-1.06a5.43,5.43,0,0,0,1.44,3.31A9.71,9.71,0,0,0,61.37,368.37Zm.5,10c-.16-.67-.1-1.08.19-1.25s.4-.54.31-1.13a5.29,5.29,0,0,1-.81-.25c-.21-.08-.27-.33-.19-.75a2,2,0,0,0-1.87,2.38,2.72,2.72,0,0,0,1.19.5A2.68,2.68,0,0,1,61.87,378.37Zm2.38-5.25a15.31,15.31,0,0,0-1.94.12c-.62.09-.94.5-.94,1.25a4.88,4.88,0,0,0,2.07.31Q64.51,374.74,64.25,373.12Zm-.5,26.5a14.32,14.32,0,0,0-1.63.31c-.5.12-.75.52-.75,1.19a8.41,8.41,0,0,0,1.82-.19C63.73,400.8,63.92,400.37,63.75,399.62Zm13.75,2.87a1,1,0,0,0,.5-1v-3.12a1.33,1.33,0,0,1,.5-1.13,1.49,1.49,0,0,0-1.25.69,4.23,4.23,0,0,0-.69,1.62,4.64,4.64,0,0,0,0,1.82A1.39,1.39,0,0,0,77.5,402.49Zm9,10a3,3,0,0,0,.19,1.81c.21.3.14.78-.19,1.44h2.37a5.12,5.12,0,0,0,.5-2.37,5.19,5.19,0,0,0-.5-2.38,11.22,11.22,0,0,1-2.25.19,3.36,3.36,0,0,1-1.5-1.06.81.81,0,0,1,.19-.57,3.45,3.45,0,0,1,.38-.31,2.53,2.53,0,0,0,.37-.31c.13-.13.15-.35.06-.69H83.75a13.39,13.39,0,0,0,.75,3A1.94,1.94,0,0,0,86.5,412.49Zm2-6.25v-1.37a2.35,2.35,0,0,0-1.69-.5c-.79,0-1.19.33-1.19,1a5.11,5.11,0,0,0,1.13,1.25C87.25,407,87.83,406.91,88.5,406.24Zm.37-9c0-.41.23-.58.69-.5s.73,0,.81-.37l-.87-.88q-.37-.37-1.5-.12C87.83,396.54,88.12,397.16,88.87,397.24Zm5.75,1.5H92.25v1.38c.75.17,1.27.08,1.56-.25A7.6,7.6,0,0,0,94.62,398.74Zm.88-38a1.25,1.25,0,0,0,1.19-.25,1,1,0,0,0,.18-.94,2.78,2.78,0,0,0-.5-1.06,1.56,1.56,0,0,0-.87-.62c-.5.5-.58.92-.25,1.25A1.68,1.68,0,0,1,95.5,360.74Zm2.37,36.13a3,3,0,0,0-.37-2,1.92,1.92,0,0,0-2,2c.5.42.87.52,1.12.31A2,2,0,0,1,97.87,396.87Zm5.25-18.13a4.33,4.33,0,0,1,0-1.44c.09-.54-.2-.68-.87-.43a.4.4,0,0,0-.44.37l-.12.75a1.49,1.49,0,0,1-.25.63q-.19.25-.69.12a6.39,6.39,0,0,1-.63-1,2.36,2.36,0,0,0-.75-.87,1.08,1.08,0,0,1,.07.93,3.09,3.09,0,0,1-.44.57,7.05,7.05,0,0,0-.5.56.89.89,0,0,0-.13.81c.5.42.92.56,1.25.44a4,4,0,0,0,1-.56c.34-.25.69-.5,1.07-.75A1.68,1.68,0,0,1,103.12,378.74Z" transform="translate(-11.12 -4.5)"/><path class="cls-2" d="M92,275.12a4.65,4.65,0,0,0,3.19-.44,26.85,26.85,0,0,0,3.43-2l3.5-2.37a15.06,15.06,0,0,1,3.63-1.82q.25,4.88.25,11.25t.25,12h-1.88a1.14,1.14,0,0,0,.07.88,1,1,0,0,0,.56.37,2.12,2.12,0,0,1,.62.32c.17.12.21.39.13.81q-4.12,2.13-8.44,4.12t-8.62,3.94q-4.32,1.94-8.5,4.06t-8.07,4.5a20.32,20.32,0,0,0,.13,5.07,3.56,3.56,0,0,0,2.25,2.93c2.92.09,5.81.09,8.69,0s5.71-.14,8.5-.18,5.46,0,8,.18a44.78,44.78,0,0,1,7.06,1,27,27,0,0,1,.81,5.13c.13,1.83.25,3.69.38,5.56s.27,3.73.43,5.56a45.71,45.71,0,0,0,.75,5.13q-9.75.5-21,.25t-22.87-.56q-11.62-.31-23.19-.32t-22.19,1a3.7,3.7,0,0,1-.31-2.31c.13-1,.21-1.94.25-2.94a9,9,0,0,0-.25-2.68c-.21-.79-.89-1.27-2.06-1.44a4.11,4.11,0,0,1,1.37,4,33.65,33.65,0,0,0-.37,5,1.9,1.9,0,0,0-.88.19,2.43,2.43,0,0,0-.62.43,1.53,1.53,0,0,1-.69.38,2.11,2.11,0,0,1-1.19-.13A118.71,118.71,0,0,1,15,329.74q.25-6.24.62-12.31t.57-11.69a53.59,53.59,0,0,0-.57-10.25,2.72,2.72,0,0,1,.75-1.31c.34-.29.71-.64,1.13-1.06a33.61,33.61,0,0,1,2.5-7.81,21.14,21.14,0,0,1,4.12-5.94,27,27,0,0,1,5.25-3.75,33.67,33.67,0,0,1,6.94-2.88,32.15,32.15,0,0,1,8.13-1.25,26.49,26.49,0,0,1,8.68,1.25,11.45,11.45,0,0,1,2.69,1.44,31.81,31.81,0,0,1,3.19,2.5q1.62,1.44,3.12,2.94a29,29,0,0,1,2.38,2.62,8.6,8.6,0,0,1,.94,1.63c.21.5.41,1,.62,1.44a3.27,3.27,0,0,0,.81,1.12,2.64,2.64,0,0,0,1.38.56,5.13,5.13,0,0,0,3.19-.5c1-.5,1.91-1.06,2.87-1.68s1.9-1.19,2.81-1.69a4.13,4.13,0,0,1,3-.38c.67-.5,1.48-1.12,2.44-1.87s2-1.48,3-2.19a34.52,34.52,0,0,1,3.06-1.87c1-.54,1.8-.94,2.38-1.19a.52.52,0,0,1,.62.19c.17.21.32.37.44.5s.19.12.19,0A7.84,7.84,0,0,0,92,275.12ZM18,315h1.37c0-.41,0-.89.07-1.43s-.27-.69-.94-.44a1.68,1.68,0,0,1-.44.81C17.85,314.14,17.83,314.49,18,315Zm1.37,12.75a17.82,17.82,0,0,1,.25-2.56,4.6,4.6,0,0,1,1.25-2.56,3.52,3.52,0,0,1-.87-1.56c-.17-.63-.67-.9-1.5-.82-.17,1.34-.31,2.71-.44,4.13A3.7,3.7,0,0,0,19.37,327.74Zm4.38-17.5c-.08-.5-.48-.66-1.19-.5a2.82,2.82,0,0,1-1.69,0v1.5a2.33,2.33,0,0,1,.94-.06,9.65,9.65,0,0,0,1,.06,1.49,1.49,0,0,0,.75-.18C23.77,310.93,23.83,310.66,23.75,310.24ZM27,299.87h1.87a3.45,3.45,0,0,0-.56-.94,5.57,5.57,0,0,0-1-1,1.72,1.72,0,0,0-1-.44c-.29,0-.52.3-.69.88Q27.38,298,27,299.87Zm2.37,3.75a2.65,2.65,0,0,0-.5-1.88c-1.08-.08-1.54.55-1.37,1.88Zm25.13-3.75a27.77,27.77,0,0,0-2.06-2.81,10,10,0,0,0-2.88-2.38,12.27,12.27,0,0,0-3.94-1.31,15,15,0,0,0-5.37.25,9,9,0,0,0-3.5,4.25,21.89,21.89,0,0,0-1.63,6.44,41,41,0,0,0-.12,7.18,33.26,33.26,0,0,0,1,6.38,53.28,53.28,0,0,1,10-.56,54.42,54.42,0,0,0,9.5-.44,80.62,80.62,0,0,1-.88-8.13Q54.38,304.5,54.5,299.87Zm-5.63-13.75a3.15,3.15,0,0,0-2.37-1.06,12.92,12.92,0,0,1-2.88-.44,2.26,2.26,0,0,0,1,1.56,3.11,3.11,0,0,0,1.57.44,6.17,6.17,0,0,0,1.56-.19C48.25,286.31,48.62,286.2,48.87,286.12Zm-2,53q.26-.5-.12-.75a1.63,1.63,0,0,0-.94-.25,2,2,0,0,0-1,.25.51.51,0,0,0-.19.75Zm.5-4.63a1.73,1.73,0,0,0,1.38-.75,3.27,3.27,0,0,0,.44-1.5c0-.58.06-1.22.06-1.93v-2.07a1.59,1.59,0,0,0-1.38.75,4.7,4.7,0,0,0-.68,1.82,8.53,8.53,0,0,0-.13,2.06A5.41,5.41,0,0,0,47.37,334.49ZM52.12,324a1,1,0,0,0-.43-.68,1.06,1.06,0,0,1-.44-.69,5.48,5.48,0,0,0-3.88,4.25,5.33,5.33,0,0,1,1.63-.63,7.67,7.67,0,0,0,1.31-.31,2.81,2.81,0,0,0,1-.56A3.41,3.41,0,0,0,52.12,324Zm5.25-30.87H55.5a4,4,0,0,0-.5,2.37A2.45,2.45,0,0,0,57.37,293.12Zm1.38,27.12a.89.89,0,0,1-.69-.37l-.56-.69a.94.94,0,0,0-.56-.37c-.21,0-.4.1-.57.43a1.39,1.39,0,0,1,.5.5,4.75,4.75,0,0,0,.57.69,1.23,1.23,0,0,0,.68.38Q58.5,320.87,58.75,320.24Zm-.88-34.62c.75.17,1.17,0,1.25-.56a2.41,2.41,0,0,1,.63-1.32H57.37A3,3,0,0,0,57.87,285.62ZM60.75,325c0-.5.29-.66.87-.5a2.85,2.85,0,0,0-.12-1.93c-.25-.46-.83-.61-1.75-.44V324C59.75,324.58,60.08,324.91,60.75,325Zm12.75-3.87a2.42,2.42,0,0,0-1-2.38c0,.5-.29.67-.88.5A1.66,1.66,0,0,0,73.5,321.12Zm1.37,4.75a1.73,1.73,0,0,0-1.5-.38q-1,.13-.87,1.38a1.72,1.72,0,0,0,1.62.44Q75.13,327.12,74.87,325.87Zm12.88-41.75a2,2,0,0,1-.81-.38,1.21,1.21,0,0,0-1.07,0c-.33.59-.43.94-.31,1.07s.06.56-.19,1.31c.92.17,1.53,0,1.82-.38A3.49,3.49,0,0,0,87.75,284.12Zm1.37,17.12a11.48,11.48,0,0,1,.88-3.18,14.89,14.89,0,0,0,1-3.94,3.5,3.5,0,0,0-2.38-.5,8.26,8.26,0,0,0-.68,1.56,7.77,7.77,0,0,0-.38,2.06,6.45,6.45,0,0,0,.25,2.19A3.5,3.5,0,0,0,89.12,301.24Zm-.5,25.63a.7.7,0,0,1,1-.5,1.62,1.62,0,0,0-.62-1.44c-.42-.29-.83-.6-1.25-.94v1.88A.91.91,0,0,0,88.62,326.87Zm0-34.13h2a3.37,3.37,0,0,1-.12-2.37c.25-.75.44-1.4.56-1.94a1.54,1.54,0,0,0-.25-1.37c-.29-.38-1.14-.57-2.56-.57a15.73,15.73,0,0,0-.13,3.25C88.21,290.41,88.37,291.41,88.62,292.74Zm6.63,33.13H91.5v1.5c.92-.08,1.79-.13,2.62-.13S95.33,326.79,95.25,325.87Zm2,4.25a.91.91,0,0,0-.25-.94.91.91,0,0,1-.25-.94c-.67,0-1.23,0-1.69.07s-.69.35-.69.93a3.94,3.94,0,0,1,1.13.69A2,2,0,0,0,97.25,330.12Zm-.5-7.5a1.55,1.55,0,0,1,1-1.44,3,3,0,0,0,1.37-.94c-.33-.33-.6-.47-.81-.43a1.87,1.87,0,0,0-.69.31l-.75.5a1.26,1.26,0,0,1-1.12,0C95.58,321.87,95.92,322.54,96.75,322.62ZM98.12,325a1.87,1.87,0,0,0-1.5-.43c-.66,0-1,.48-.87,1.31a1.22,1.22,0,0,0,1.5.37A1.54,1.54,0,0,0,98.12,325Zm6.63,5.63a3.89,3.89,0,0,0-2.44-.25,13.84,13.84,0,0,1-2.31.25v1.5a4.17,4.17,0,0,0,2.56-.06A4.11,4.11,0,0,0,104.75,330.62Z" transform="translate(-11.12 -4.5)"/><path class="cls-2" d="M11.12,213.37V212a7.49,7.49,0,0,0,7.13-1.5,5.64,5.64,0,0,0,1.69-2.63,4,4,0,0,0-.32-3,2.57,2.57,0,0,0-.87-1.06,4.31,4.31,0,0,0-1.13-.5c-.41-.13-.85-.27-1.31-.44a5.12,5.12,0,0,1-1.44-.87,1.69,1.69,0,0,1-.31-1,2.53,2.53,0,0,0-.56-1.38,29,29,0,0,1-2.38-3.19q-1-1.56,0-4.93,11.76,3.75,23.44,7.43t23.06,7.82a3.38,3.38,0,0,1-1.25,1.75,13.5,13.5,0,0,1-2.06,1.18c-.79.38-1.6.73-2.44,1.07A12.79,12.79,0,0,0,50,212c-.75.5-1.54,1-2.38,1.56a16,16,0,0,0-2.25,1.75,6.77,6.77,0,0,0-1.5,2,2.55,2.55,0,0,0,0,2.19q3.89-3.25,8.07-6.32a72.46,72.46,0,0,1,8.93-5.56q5.88,2.13,11.13,3.94t11.62,3.69c-.41.66-.81,1.29-1.18,1.87a4.09,4.09,0,0,0-.19,2.88,7.89,7.89,0,0,0,1,1.06,5.55,5.55,0,0,0,1.25.87,2.3,2.3,0,0,0,1.31.25,1.6,1.6,0,0,0,1.19-.81,6.19,6.19,0,0,1-2.13-2.19,5.88,5.88,0,0,1-.25-3.93q3.25,1,6.19,2.12A9.91,9.91,0,0,1,95.5,221a27.94,27.94,0,0,1,10.5,2.37,2.81,2.81,0,0,0,.25,2,3.41,3.41,0,0,1,.25,2.25,3.1,3.1,0,0,1-1.06,1.06,3.32,3.32,0,0,0-.94.82,6.52,6.52,0,0,0,.31,1.81q.31,1.06.69,2.19a10.79,10.79,0,0,1,.5,2.43,4.68,4.68,0,0,1-.5,2.57,94,94,0,0,0-18,4.31q-8.37,2.94-18,7.06a7.72,7.72,0,0,0-3-.37,11.81,11.81,0,0,0-2.69.56l-2.62.87a7.83,7.83,0,0,1-3.07.32c-.08.58.19.77.82.56a2.23,2.23,0,0,1,1.56-.06,32.45,32.45,0,0,0-5.75,1.43q-2.62.94-5.13,2.07t-5.12,2.37a41.52,41.52,0,0,1-5.88,2.25c0-.5,0-1,.07-1.5a4.2,4.2,0,0,0-.07-1.31,1.51,1.51,0,0,0-.5-.88,1.85,1.85,0,0,0-1.37-.18,1.09,1.09,0,0,0-.5.87,2.15,2.15,0,0,0,.25,1c.17.34.33.67.5,1a2.21,2.21,0,0,1,.25,1q-6.37,2.25-12.94,4.19t-12.69,4.31a44.76,44.76,0,0,0,.38-5.81q0-2.94-.13-6.06c-.08-2.09-.12-4.19-.12-6.32a56,56,0,0,1,.37-6.43,10.09,10.09,0,0,0,3.5-.32q1.5-.44,2.88-.87c.92-.29,1.83-.54,2.75-.75a7.19,7.19,0,0,1,3.12.06c.42-.08.59-.35.5-.81s.09-.69.5-.69q9.25-2.12,18.94-5.19t19.44-5.68v-1.38q-13.24-4.5-26.38-8.5A213.44,213.44,0,0,0,11.12,213.37Zm8.5-16.12a.69.69,0,0,1-.75-.57c-.08-.37-.45-.52-1.12-.43v2C18.92,198.41,19.54,198.08,19.62,197.25Zm9,64.5a1.27,1.27,0,0,0-.31-.94,1.35,1.35,0,0,0-.75-.38c-.29,0-.6-.1-.94-.18a1.65,1.65,0,0,1-.75-.38.89.89,0,0,1-.37.63c-.17.08-.21.33-.13.75a1.07,1.07,0,0,0,.75.37,3.13,3.13,0,0,0,.82-.12,5.42,5.42,0,0,1,.87-.19A.86.86,0,0,1,28.62,261.75Zm-1.87-16.63a1.47,1.47,0,0,0-1.25,1.63,24.45,24.45,0,0,1-.13,2.62,1,1,0,0,0,1-.56,3,3,0,0,0,.25-1.25v-1.38A3.62,3.62,0,0,1,26.75,245.12ZM28.25,210v-1.38c-1.42-.17-2.08.29-2,1.38Zm6.12,6.75c-.16-.5-.18-.84-.06-1a1.65,1.65,0,0,1,.5-.44l.63-.38a.6.6,0,0,0,.31-.56,6.76,6.76,0,0,0-2.44-.62c-1-.09-1.89-.21-2.81-.38a1,1,0,0,1-.19.94,1,1,0,0,0-.19.94,6.14,6.14,0,0,0,2.44.37C33.1,215.54,33.71,215.91,34.37,216.75Zm-1.5,25.12a1.16,1.16,0,0,0-.12-1.19,1.71,1.71,0,0,0-.88-.56,1.47,1.47,0,0,0-.93.06.7.7,0,0,0-.44.69,2.72,2.72,0,0,0,1.19.5A2.8,2.8,0,0,1,32.87,241.87ZM40.5,202H38.62c-.16.91.15,1.37.94,1.37S40.67,202.91,40.5,202Zm2.37,54a.63.63,0,0,0-.56-.44,4.16,4.16,0,0,0-1,0,2.18,2.18,0,0,0-.94.31.74.74,0,0,0-.37.63,2.27,2.27,0,0,0,.69.31,5.64,5.64,0,0,0,1.12.25,1.36,1.36,0,0,0,.94-.19C43,256.71,43,256.41,42.87,256Zm1-17a2.24,2.24,0,0,1-.87-.44.92.92,0,0,0-1-.06v1.37C43.17,240,43.79,239.75,43.87,239Zm3.75,0a3.42,3.42,0,0,0-2.37-.5,1.15,1.15,0,0,0,.19,1,1.2,1.2,0,0,0,.81.43,1.47,1.47,0,0,0,.94-.18A.81.81,0,0,0,47.62,239Zm1.88.5h1c0-.42.17-.59.5-.5v-1c-.42,0-.58-.17-.5-.5h-1c0,.41-.17.58-.5.5v1C49.42,239,49.58,239.16,49.5,239.5Zm5.75-2.88a1.05,1.05,0,0,0-1.38-.19,2.26,2.26,0,0,0-1,1.07,1.36,1.36,0,0,0,1.5.37A1,1,0,0,0,55.25,236.62Zm3.75.5a1.5,1.5,0,0,0-.06-1.31.92.92,0,0,0-.75-.44,1.1,1.1,0,0,0-.82.44,1.61,1.61,0,0,0-.25,1.31ZM62.75,221c-2.08-.25-3,.66-2.75,2.75a2.29,2.29,0,0,0,2.56-.75A1.6,1.6,0,0,0,62.75,221Zm.5,15.62v-1.5c-1.17-.16-1.79.17-1.88,1a2.15,2.15,0,0,1,.82.38A1.36,1.36,0,0,0,63.25,236.62ZM73.75,247a1.59,1.59,0,0,1,.12-1.44,2,2,0,0,0,.38-1.31,3.23,3.23,0,0,1-2-.5,1.32,1.32,0,0,1,.06,1.06,1.89,1.89,0,0,1-.5.56,1.51,1.51,0,0,0-.44.56,2.32,2.32,0,0,0,0,1.07c.67.16,1,.25,1.13.25S73,247.16,73.75,247Zm2.37-7.5c-.16-.75-.08-1.25.25-1.5s.42-.71.25-1.38a7.83,7.83,0,0,0-2.25.5c-.58.25-.79.88-.62,1.88A3.53,3.53,0,0,0,76.12,239.5Zm-1,2.75c-.08-.42-.16-.86-.25-1.32s-.45-.64-1.12-.56v1.88Zm1.5-8a4.9,4.9,0,0,1,1.32-.32c.46,0,.64-.39.56-1.06a1,1,0,0,0-.81-1,5.15,5.15,0,0,0-1.57,0A3.57,3.57,0,0,0,76.62,234.25ZM78.5,229q1.38-1.38,2.31-2.19a29.89,29.89,0,0,1,2.81-2.06c-.66-.5-1.16-.9-1.5-1.19s-.29-1,.13-2.19H79.87a4.81,4.81,0,0,1-.43,2.06c-.29.63-.57,1.23-.82,1.82a7,7,0,0,0-.5,1.81A3.38,3.38,0,0,0,78.5,229Zm.87-8c.92.16,1.5,0,1.75-.44a2.88,2.88,0,0,0,.13-1.94H78.87a2.87,2.87,0,0,0,.07,1.38C79.06,220.33,79.21,220.66,79.37,221Zm2.88,12.75v-1.38c-1.33-.16-2,.29-1.88,1.38Zm6.62-2.38a3,3,0,0,0-2.87-.06,2.8,2.8,0,0,0-1.88,1.94,10.63,10.63,0,0,1,2.69-.69A2.67,2.67,0,0,0,88.87,231.37Zm10-1.37a11.29,11.29,0,0,0-4.62-.25,31.74,31.74,0,0,0-3.88,1.12v1.5a3.77,3.77,0,0,1,2.32-.75h2.5a8.76,8.76,0,0,0,2.18-.25A2.19,2.19,0,0,0,98.87,230Zm2.38,8a2.34,2.34,0,0,0-1.25-.44c-.5,0-1-.06-1.63-.06a1.16,1.16,0,0,1-.18,1.06,1.27,1.27,0,0,0-.32.94l1.94-.5A2.4,2.4,0,0,0,101.25,238Zm2.37-8a3,3,0,0,0-2.12-.25,1.59,1.59,0,0,0-1.25,1.62C102,231.54,103.12,231.08,103.62,230Zm.5,8a2.39,2.39,0,0,1,.25-1.25q.25-.37-.75-.63a5.29,5.29,0,0,1-.81.88,2.55,2.55,0,0,0-.69,1Z" transform="translate(-11.12 -4.5)"/><path class="cls-2" d="M104.12,181.12q.25.75.63.63a2.45,2.45,0,0,0,.75-.44,4.88,4.88,0,0,1,.69-.5c.2-.13.31,0,.31.31a2.75,2.75,0,0,1-1.88,1.38,11.82,11.82,0,0,1-3.12.37,33.2,33.2,0,0,1-3.56-.19,18.73,18.73,0,0,0-3.32-.06,47.37,47.37,0,0,0-5.5.56,5.42,5.42,0,0,1-4.5-1.06q-5.75.38-12.18.63t-13.07.31q-6.61.06-13.25-.06t-12.62-.38a2.05,2.05,0,0,1,.31-1.12c.21-.34.4-.65.56-.94a2.35,2.35,0,0,0,.32-.88,1.27,1.27,0,0,0-.32-.93c-2,.41-2.95,1.83-2.87,4.25a15.8,15.8,0,0,0-3.25-.57c-.92,0-1.79-.06-2.63-.06s-1.66,0-2.5-.12a17.8,17.8,0,0,1-3-.63,2.47,2.47,0,0,0,.69-1.69,1.9,1.9,0,0,1,.81-1.56,14.6,14.6,0,0,1-1.43-4.75c-.21-1.66-.36-3.25-.44-4.75s-.19-2.81-.31-3.94a2.93,2.93,0,0,0-1.19-2.31,2.72,2.72,0,0,1,.75-1.31c.33-.29.71-.65,1.12-1.06a98.49,98.49,0,0,0,15.63,2.37,133.46,133.46,0,0,0,14.81.19q7.32-.31,14.5-1.13t14.81-1.43a7.21,7.21,0,0,0,.75,2.12l1,1.75a7.23,7.23,0,0,1,.75,1.81,5,5,0,0,1-.12,2.44c.92.17,1.54.06,1.87-.31a2.25,2.25,0,0,0,.5-1.56c-.66-1-1.31-2-1.93-2.88a8.68,8.68,0,0,1-1.32-3.37,33.64,33.64,0,0,0,6.13-.07,12.61,12.61,0,0,1,4.25.07,1.71,1.71,0,0,1-.94,1.5c-.54.25-.69.87-.44,1.87.67.5,1.21.67,1.63.5a2,2,0,0,0,1-.87,8.79,8.79,0,0,0,.69-1.5,10.68,10.68,0,0,0,.43-1.5,43.21,43.21,0,0,0,6.44,0,16.51,16.51,0,0,1,5.94.5,13.35,13.35,0,0,0-.25,5.75c.33,2,.62,3.93.87,5.81a17.53,17.53,0,0,1,0,5.12A5.08,5.08,0,0,1,104.12,181.12ZM23.5,174.5a2.07,2.07,0,0,0,1.69.56,5.39,5.39,0,0,0,1.31-.56c.42-.25.87-.5,1.37-.75a2.51,2.51,0,0,1,1.75-.13c.17-.66.07-1-.31-1.12s-.56-.38-.56-.88a8.08,8.08,0,0,1-2.44.88c-.87.16-1.52-.25-1.94-1.25a1.53,1.53,0,0,1,.32.93,1,1,0,0,1-.38.57,2.6,2.6,0,0,0-.56.62A2,2,0,0,0,23.5,174.5Zm3.25-5.63a4.21,4.21,0,0,1-.81-.5,1.21,1.21,0,0,0-1.07,0,1.9,1.9,0,0,1-.37.81,1.38,1.38,0,0,0-.13,1.07,5.17,5.17,0,0,0,1.82-.07C26.73,170.06,26.92,169.62,26.75,168.87Zm-.38,11.88a4.85,4.85,0,0,0,.19-1.82,3.11,3.11,0,0,1,.69-2.06.76.76,0,0,1-.63,0,1.69,1.69,0,0,1-.43-.31.92.92,0,0,0-.5-.25,2,2,0,0,0-.82.06c-.08.42-.16.9-.25,1.44a10,10,0,0,0-.12,1.44,1.46,1.46,0,0,0,.44,1.06A2,2,0,0,0,26.37,180.75Zm3.75-1v-1.38c-1.33-.25-1.95.21-1.87,1.38Zm11.88,1a1.79,1.79,0,0,0,1.31-.44,1.11,1.11,0,0,0,.38-.94,1.27,1.27,0,0,0-.57-.87,2,2,0,0,0-1.62-.13A4,4,0,0,0,42,180.75Zm6.62-8.63c.09-.66-.1-1-.56-1.12l-1.31-.25v1.37ZM52,174.5h1.37v-1.38a.63.63,0,0,1-.62-.06l-.5-.38a.5.5,0,0,0-.44-.12c-.12,0-.23.23-.31.56C52.42,173.37,52.58,173.83,52,174.5Zm7.5.5v-1.88a12.4,12.4,0,0,0-2.13-.06c-.75,0-1.12-.27-1.12-.94a.69.69,0,0,1,.56-.75c.38-.08.48-.46.31-1.12q-.61.24-.87,0a1.66,1.66,0,0,1-.38-.63,1.89,1.89,0,0,0-.31-.62c-.12-.17-.39-.21-.81-.13a20.44,20.44,0,0,0,.12,2.31,5.78,5.78,0,0,1-.62,2.82,7.84,7.84,0,0,0,2.5.62C57.67,174.71,58.58,174.83,59.5,175Zm-.5,4.25a1.09,1.09,0,0,0-.25-1.07,1,1,0,0,0-.81-.25,1.83,1.83,0,0,0-.88.44,1.13,1.13,0,0,0-.44.88,1.65,1.65,0,0,0,1.19.5A1.63,1.63,0,0,0,59,179.25Zm2.37-10.38a4.91,4.91,0,0,1-1.5-1.81,3.05,3.05,0,0,0-1.75-1.56c-.66,1-.52,1.77.44,2.31A8.94,8.94,0,0,0,61.37,168.87ZM60,173.12a1.41,1.41,0,0,1,.69.31,5.42,5.42,0,0,0,.81.5,1.61,1.61,0,0,0,.75.19c.25,0,.46-.16.62-.5a1.65,1.65,0,0,1-.93-.87c-.29-.5-.57-1-.82-1.38a2.06,2.06,0,0,0-.75-.81q-.37-.19-.87.69c.42,0,.6.21.56.62S60,172.71,60,173.12Zm1.37,7.63a1.9,1.9,0,0,0,1.5-.75,2.4,2.4,0,0,0,.32-1.44,3.16,3.16,0,0,0-.57-1.56,2.36,2.36,0,0,0-1.25-1,.92.92,0,0,0-.43.87,6.31,6.31,0,0,0,.25,1.13,12,12,0,0,1,.31,1.31A2.88,2.88,0,0,1,61.37,180.75ZM64.25,175c.92.25,1.52.16,1.81-.25a5.65,5.65,0,0,1,1.06-1.13,4.92,4.92,0,0,0-2.25-2.69c-1.08-.62-1.91-.52-2.5.32q1-.25,1.38.06a1.52,1.52,0,0,1,.5.87,4.65,4.65,0,0,1,.06,1.32Q64.25,174.25,64.25,175Zm5.25-8.5c-.08-1.25-.71-1.88-1.88-1.88a8.46,8.46,0,0,0,.38,1.44C68.17,166.52,68.67,166.66,69.5,166.5Zm-1,7.5a4.17,4.17,0,0,1,3.25.62,5.38,5.38,0,0,1,1.5,2.25c.25-.33.48-.66.69-1a3.33,3.33,0,0,1,.81-.87c.58.75,1.15,1.08,1.69,1a1.9,1.9,0,0,0,1.31-.88,3.92,3.92,0,0,0,.62-1.69,1.3,1.3,0,0,0-.37-1.31c1.5-.16,2.46.17,2.87,1a.82.82,0,0,0-.75.44,2,2,0,0,0-.25,1,2.06,2.06,0,0,0,.25,1,.82.82,0,0,0,.75.44.54.54,0,0,0,.38-.57v-.93a3.51,3.51,0,0,1,.12-.94c.09-.29.25-.44.5-.44a1,1,0,0,1,.88.13,5.64,5.64,0,0,1,.5.56,5.64,5.64,0,0,0,.5.56.94.94,0,0,0,.87.13v-2.88a6.24,6.24,0,0,1-3.06.25l-3.06-.5a18.29,18.29,0,0,0-2.88-.25,3.28,3.28,0,0,0-2.37,1c.17-.66.06-1-.31-1.06s-.57-.31-.57-.81c-.91.41-1.45.48-1.62.18a1.91,1.91,0,0,0-1.25-.68,2,2,0,0,0-1.13,1.81C68.37,172.35,68.42,173.16,68.5,174Zm3.37-7.13c-.75-.08-1.18.13-1.31.63a7.5,7.5,0,0,0-.19,1.75c.75.16,1.13-.09,1.13-.75A3.15,3.15,0,0,1,71.87,166.87ZM78,180.75a1.21,1.21,0,0,0,0-1.63,3.91,3.91,0,0,0-1.38-1.25,8.6,8.6,0,0,1,.38,1.69A1.32,1.32,0,0,0,78,180.75Zm2.87-1a3.46,3.46,0,0,0,.5-2.38,2.64,2.64,0,0,1-1.5-.5,1.37,1.37,0,0,0-.18,1.63A2.09,2.09,0,0,0,80.87,179.75Zm3.38-1.38a2.31,2.31,0,0,1-.31.63c-.13.16.1.25.68.25.17,0,.25-.15.25-.44a4.83,4.83,0,0,0-.12-1c-.08-.38-.17-.73-.25-1.06a3.58,3.58,0,0,0-.25-.75h-1.5a2,2,0,0,1-.38.81,1.41,1.41,0,0,0-.12,1.06,2.87,2.87,0,0,1,.87.38A1.59,1.59,0,0,0,84.25,178.37Zm.87-7.62q.25-1.38-.93-1.38c-.79,0-1.11.46-.94,1.38.42.41.67.52.75.31S84.46,170.75,85.12,170.75ZM86.5,166a4.52,4.52,0,0,1,.5-.82c.17-.2.17-.56,0-1.06-1.33-.16-2,.29-1.88,1.38A2.49,2.49,0,0,1,86.5,166Zm2.87.87a2.74,2.74,0,0,0-1.87-.44c-.83,0-1.17.53-1,1.44C88.08,168,89,167.71,89.37,166.87Zm10,10a6.13,6.13,0,0,0,.13,1.38,3.75,3.75,0,0,1,.12.87v.81a3.88,3.88,0,0,1-.25,1.19c.75,0,1.23-.21,1.44-.62a2.57,2.57,0,0,0,.25-1.38,2.84,2.84,0,0,0-.56-1.44A1.92,1.92,0,0,0,99.37,176.87Zm4.75-14.62c-.5-.25-.85-.27-1.06-.07a1.75,1.75,0,0,0-.44.82,2.11,2.11,0,0,0,0,1,.8.8,0,0,0,.5.62.75.75,0,0,1,.13-.75,2,2,0,0,1,.5-.37,1.31,1.31,0,0,0,.44-.38C104.31,163,104.29,162.66,104.12,162.25Z" transform="translate(-11.12 -4.5)"/><path class="cls-2" d="M23.75,98a2.08,2.08,0,0,0-1.69-.57,3.37,3.37,0,0,0-1.31.75L19.5,99.31a2.2,2.2,0,0,1-1.5.56,42.75,42.75,0,0,1,2.31-5.94,31.72,31.72,0,0,1,3.44-5.43,1.2,1.2,0,0,1,.75,1c.08.5.58.62,1.5.37.42-1.58-.21-2.2-1.88-1.87A45.58,45.58,0,0,1,32,80.68a23.89,23.89,0,0,1,11.12-4.06C43,78.12,43,79.92,43,82v6.5q0,3.38-.06,6.62t-.32,5.75c-.58,0-.93-.14-1.06-.44a1.82,1.82,0,0,1-.12-.93,3.69,3.69,0,0,0,0-.94c0-.29-.27-.48-.69-.56a1.5,1.5,0,0,0-1.31,1.56c0,.87-.07,1.77-.07,2.69a8.46,8.46,0,0,0-4.12,5.31,15.18,15.18,0,0,0-.25,7.25,17,17,0,0,0,3,6.75,10,10,0,0,0,5.62,3.94,38.07,38.07,0,0,0,5.13.81c2.08.21,4.33.37,6.75.5s4.9.23,7.44.31l7.18.25a32,32,0,0,0,8.19-.5,17,17,0,0,0,6.19-2.44,9,9,0,0,0,3.5-4.31,10.3,10.3,0,0,0,.25-6,7.18,7.18,0,0,0,.44-4.94,9,9,0,0,0-2.38-3.81,15.18,15.18,0,0,0-4.06-2.75,31.13,31.13,0,0,0-4.5-1.75,54.15,54.15,0,0,0,.37-11.12q-.37-5.88-1.37-12.63a31.76,31.76,0,0,1,12.81,2.94A28.08,28.08,0,0,1,99,87.37a35,35,0,0,1,6.06,10.75,46.16,46.16,0,0,1,2.56,13.13c0,.5-.12.77-.37.81a4.74,4.74,0,0,1-.75.06,2.46,2.46,0,0,0-.75.13c-.25.08-.42.37-.5.87.08.59.48.8,1.19.63a4.14,4.14,0,0,1,1.68-.13,39.12,39.12,0,0,1-3.75,15.25,46.13,46.13,0,0,1-7.62,10.88q-.87.87-1.56.12a2,2,0,0,0-1.82-.62c-.25.5-.29.83-.12,1a1.17,1.17,0,0,0,.69.31,1.9,1.9,0,0,1,.75.25c.21.12.27.4.18.81l-5.68,2.88c-2,1-4,1.93-6.19,2.81a43.91,43.91,0,0,1-6.94,2.12,31,31,0,0,1-7.81.69c-2.83,0-5.69,0-8.56-.12s-5.69-.21-8.44-.38a43.31,43.31,0,0,1-12.06-2,63.48,63.48,0,0,1-9.82-4.12,41.36,41.36,0,0,0-4.81-6.25,32.69,32.69,0,0,1-4.69-6.5q.38-3.87-1.87-5.25c0-1.67-.06-3.38-.19-5.13s-.27-3.52-.44-5.31-.25-3.64-.25-5.56a47.41,47.41,0,0,1,.38-5.88c1.33-.66,2.62-1.35,3.87-2.06A4.94,4.94,0,0,0,23.75,98Zm-2,12.75a1,1,0,0,0-.19-.94,1,1,0,0,1-.19-.94c-.66,0-1.06.25-1.18.75s-.23,1-.32,1.63a1,1,0,0,0,.94-.19A1.27,1.27,0,0,1,21.75,110.75ZM27.5,94.62a5.51,5.51,0,0,1,.69-1.37,2.43,2.43,0,0,0,.18-1.88,5.45,5.45,0,0,0-2.12.63,2.45,2.45,0,0,0-1.13,1.75,1.69,1.69,0,0,1,1,.56A1.49,1.49,0,0,0,27.5,94.62Zm.87,31.88a2.11,2.11,0,0,0,.13-1.19,1,1,0,0,0-.44-.63,4.62,4.62,0,0,1-.62-.43,1.32,1.32,0,0,1-.44-.63c.75-.41,1-.94.87-1.56a6.23,6.23,0,0,1,.13-2.69c-1.25-.08-2,.21-2.38.88a3.62,3.62,0,0,0-.25,2.31,5.87,5.87,0,0,0,1.19,2.5A3.94,3.94,0,0,0,28.37,126.5ZM28,113.12a1,1,0,0,0-.31-1.06,1.58,1.58,0,0,0-.94-.31,1.33,1.33,0,0,0-.88.31,1.07,1.07,0,0,0-.25,1.06Zm0-3.25a2.67,2.67,0,0,1-.31-1.44c0-.45.06-.87.06-1.25a1.17,1.17,0,0,0-.31-.87A2.2,2.2,0,0,0,26,106a5.1,5.1,0,0,1,.25,1.25,1.65,1.65,0,0,1-.13.68,6.51,6.51,0,0,1-.31.69,3.1,3.1,0,0,0-.19,1.25c.42.42.75.52,1,.31A2.29,2.29,0,0,1,28,109.87ZM30.75,89.5a1.55,1.55,0,0,0,.06-1.63,2,2,0,0,0-1.06-.81,1.49,1.49,0,0,0-1.25.19A1.14,1.14,0,0,0,28,88.5a1.75,1.75,0,0,0,1.44.43A1.29,1.29,0,0,1,30.75,89.5Zm6.75-1a3.55,3.55,0,0,0,.19-2.5c-.21-1.17-.77-1.75-1.69-1.75a3.28,3.28,0,0,0-.13,1.56A4.65,4.65,0,0,1,35.5,88a1.07,1.07,0,0,1,1.06.25A.91.91,0,0,0,37.5,88.5Zm1.37,42.25q.26-1.38-.93-1.38c-.79,0-1.11.46-.94,1.38ZM46,132.62a.85.85,0,0,0,1-.12,1.46,1.46,0,0,0,.44-.88,1.49,1.49,0,0,0-.19-.94.81.81,0,0,0-.75-.43,7.49,7.49,0,0,1-.81,1.12C45.4,131.71,45.5,132.12,46,132.62Zm14.25,9.5c-.58-.16-1.19-.31-1.81-.44a4.81,4.81,0,0,1-1.57-.56,1.48,1.48,0,0,0,.19,1.44,1.7,1.7,0,0,0,1.06.5,3,3,0,0,0,1.32-.19A1.1,1.1,0,0,0,60.25,142.12Zm-1.5-6.25c.08-1.08-.54-1.54-1.88-1.37C56.79,135.67,57.42,136.12,58.75,135.87Zm2.37-3.25c0-.91-.14-1.35-.43-1.31s-.77.15-1.44.31c.08.92.27,1.36.56,1.31A9.82,9.82,0,0,0,61.12,132.62ZM63,140.25a1.46,1.46,0,0,0,1.06-.32,1,1,0,0,1,.94-.18q0-1.12-.06-2.13t-1.44-.75c-.67,0-1,.48-1,1.44A2.79,2.79,0,0,0,63,140.25Zm2,8.5a2.54,2.54,0,0,0,1.37-.5c.09-1.08-.54-1.54-1.87-1.38A2.68,2.68,0,0,0,65,148.75Zm4.25-1.88c-.08-1.33-.88-2-2.38-1.87a1.67,1.67,0,0,1-.43.81c-.21.21-.23.56-.07,1.06a1.94,1.94,0,0,0,1.44.5A1.91,1.91,0,0,0,69.25,146.87Zm-1.5-3.37,1.81.5a1.4,1.4,0,0,0,1.56-.5c-.41-1.17-.83-2.27-1.25-3.32a4.25,4.25,0,0,0-2.12-2.31c-.58.25-.88.59-.88,1a3.11,3.11,0,0,0,.32,1.31,11.87,11.87,0,0,1,.56,1.57A3.07,3.07,0,0,1,67.75,143.5ZM80.62,145a2.37,2.37,0,0,1,.44-1.57c.38-.62.23-1.06-.44-1.31q-.24,0-.81.06a2.61,2.61,0,0,0-1.06.38,2.43,2.43,0,0,0-.81.87,2.61,2.61,0,0,0-.19,1.57Zm-.5-11.88V135c1.17.25,2,.18,2.38-.19a1.18,1.18,0,0,0,.5-1.13,1.46,1.46,0,0,0-.88-.93A2.11,2.11,0,0,0,80.12,133.12Zm5.25-1.87q-1.12-.5-.93-.63a1.72,1.72,0,0,1,.81-.12,10.48,10.48,0,0,0,1.25-.07c.42,0,.5-.26.25-.68a3.13,3.13,0,0,1-1.38-.07L84,129.37a1.48,1.48,0,0,0-1.06.13c-.29.17-.44.58-.44,1.25a1,1,0,0,1,1,0,4.69,4.69,0,0,1,.69.56,2.17,2.17,0,0,0,.56.44C84.92,131.83,85.12,131.67,85.37,131.25Zm.5,8v-2.88c-1.25-.16-1.91.17-2,1a.74.74,0,0,1,.69.31,3.67,3.67,0,0,1,.31.63,4.05,4.05,0,0,0,.32.62A.72.72,0,0,0,85.87,139.25Zm5.63-38.38a6,6,0,0,0,1.56,2.38,8.85,8.85,0,0,0,2.25,1.56,4.79,4.79,0,0,0,2.5.44,3.18,3.18,0,0,0,2.19-1.13,2.42,2.42,0,0,0-1.25-.25H96.94a8.39,8.39,0,0,1-1.82-.19,1.71,1.71,0,0,1-1.25-.93,1.28,1.28,0,0,0,.82-1,3.58,3.58,0,0,0-.13-1.32A5.55,5.55,0,0,1,94.37,99a2.71,2.71,0,0,1,.5-1.5q.75.25.75.87a11.28,11.28,0,0,1-.06,1.19,2.33,2.33,0,0,0,.06.94c.09.25.46.37,1.13.37a12.63,12.63,0,0,0-.25-5.06q-.63-2.31-3.63-2.56c-.41,1.17-.75,2.17-1,3a4.2,4.2,0,0,0,.63,3.12.73.73,0,0,0-.56.19,1.74,1.74,0,0,1-.44.31,11.1,11.1,0,0,1-1.69-1,8.19,8.19,0,0,0-1.37-.81,5.94,5.94,0,0,0-1.63-.44,19.93,19.93,0,0,0-2.44-.12,8.84,8.84,0,0,0,3.25,2.06C88.87,100,90.17,100.46,91.5,100.87Zm.5,39.38a2.24,2.24,0,0,1,.37-.94,1.35,1.35,0,0,0,.13-1.06,1.37,1.37,0,0,1-1.5-.13,6.62,6.62,0,0,1-1-.94,2,2,0,0,0-.69-.56q-.32-.12-.69.75c.92.67,1.59,1.13,2,1.38A4.89,4.89,0,0,1,92,140.25ZM90.5,107H92v-2.38c-.92-.25-1.5,0-1.75.69A1.5,1.5,0,0,0,90.5,107Zm7.62,18.5a2.85,2.85,0,0,1-1.06-.75c-.29-.33-.89-.42-1.81-.25a3.39,3.39,0,0,0-.38,2.37C96.71,127.12,97.79,126.67,98.12,125.5Zm-.87-4.25a4.27,4.27,0,0,0,4.12-1.82,5.72,5.72,0,0,0,1-3.93,2,2,0,0,0,1.25.56,7.59,7.59,0,0,0,1.63-.06c-.08-.75-.31-1.17-.69-1.25a3.91,3.91,0,0,0-1.37,0l-1.63.25a2.13,2.13,0,0,1-1.56-.38,4.28,4.28,0,0,1-.94,1.5c-.46.5-.89,1-1.31,1.5a4.48,4.48,0,0,0-.88,1.63A2.64,2.64,0,0,0,97.25,121.25Zm3.25-25.13a1.2,1.2,0,0,0-1.19-.5,2.1,2.1,0,0,0-1.12.56,2.18,2.18,0,0,0-.57,1.13,1.2,1.2,0,0,0,.5,1.19,1.15,1.15,0,0,1,.57-.19,4.63,4.63,0,0,0,.93-.25,1.94,1.94,0,0,0,.82-.56Q100.76,97.13,100.5,96.12Zm0,5.13c.25-1.33-.38-2-1.88-1.88a1.52,1.52,0,0,0-.5,1.06,1.27,1.27,0,0,0,.38.94,1.51,1.51,0,0,0,.94.44A1.19,1.19,0,0,0,100.5,101.25Z" transform="translate(-11.12 -4.5)"/><path class="cls-2" d="M35.75,51.5c.58-.17.92-.36,1-.56a1.32,1.32,0,0,0,.06-.69,2.45,2.45,0,0,0-.25-.75.84.84,0,0,1,.19-.88,12,12,0,0,0,3,.32l2.37-.13q1.13-.06,2.25-.06a12.51,12.51,0,0,1,2.75.37c-.16.67-.5.9-1,.69s-.79-.1-.87.31A12.14,12.14,0,0,1,49,50.5,11.75,11.75,0,0,1,52.56,52a8.34,8.34,0,0,1,2.56,2.56,4.73,4.73,0,0,1,.63,3.56c.5.17.83.19,1,.07a2,2,0,0,0,.44-.5,1.64,1.64,0,0,1,.43-.5c.17-.13.5-.11,1,.06.5.5.48.92-.06,1.25a2,2,0,0,0-.94,1.5,2.14,2.14,0,0,0,2.82.12,13,13,0,0,1,2.43-1.5,1.4,1.4,0,0,1,.82,1.5c-.13.59-.27,1.21-.44,1.88a3,3,0,0,0,1.87,1.62,11,11,0,0,0,2.69.44c1,0,1.9,0,2.81,0a4.44,4.44,0,0,1,2.13.31,4.74,4.74,0,0,1-1.69,3.88,9.1,9.1,0,0,1-4,1.5,29,29,0,0,1-5.5.25q-3.06-.12-6.31,0c-3.75.17-7.42.37-11,.62s-6.71.38-9.38.38a1.19,1.19,0,0,1-.31-1.38q.31-.75-.69-1.5a1.06,1.06,0,0,0-.43.82c0,.37-.09.75-.13,1.12a1.27,1.27,0,0,1-.44.88A1.62,1.62,0,0,1,31.5,71c-.25-.25-.35-.46-.31-.63a.86.86,0,0,1,.25-.43l.43-.44a1,1,0,0,0,.13-.88,1.76,1.76,0,0,0-1.19.94q-.31.69-.69,1.44a3.42,3.42,0,0,0-1.18-.06l-1.32.12a1.91,1.91,0,0,1-1-.12c-.25-.13-.33-.44-.25-.94a4.63,4.63,0,0,1-2.43,1.19,15,15,0,0,1-2.69.12c-.92,0-1.85-.1-2.81-.19a10,10,0,0,0-3.07.25q.14-3.5.63-7.5c.33-2.66.69-5.39,1.06-8.18s.69-5.67.94-8.63a78.83,78.83,0,0,0,.25-8.81,18.37,18.37,0,0,1,4.69-.13q2.05.26,2.43,3A1.84,1.84,0,0,0,26.94,41a2,2,0,0,1,1.31-.38A1.72,1.72,0,0,1,28.69,42c0,.58-.07,1.21-.07,1.87a4.2,4.2,0,0,1,2.82.5,7.89,7.89,0,0,1,2.25,1.94,10.49,10.49,0,0,1,1.5,2.63A7.2,7.2,0,0,1,35.75,51.5Zm-17-43.63c1-.08,2.23-.2,3.69-.37s3-.31,4.75-.44,3.43-.21,5.18-.25,3.38,0,4.88.06q-.75,4.5-1.13,8.82c-.25,2.87-.45,5.75-.62,8.62s-.35,5.77-.56,8.69-.57,5.92-1.07,9c-.25,0-.37-.17-.37-.5a2.63,2.63,0,0,0-.13-.88,14.16,14.16,0,0,1-4.5-3.68,48.52,48.52,0,0,1-3.43-4.82c-1-1.66-2.09-3.27-3.13-4.81a15.71,15.71,0,0,0-3.56-3.81q.38-3.75.56-6.5t.31-7.25c.17-.33.19-.56.07-.69a1,1,0,0,0-.5-.25,1.22,1.22,0,0,1-.5-.19Q18.49,8.5,18.75,7.87Zm5.62,8.5h1.5a3.48,3.48,0,0,0,.44-2.5c-.12-1.08-.6-1.66-1.44-1.75A4.3,4.3,0,0,0,24.37,16.37Zm2.38,11.88V26.37c-1.08,0-1.71.63-1.88,1.88Zm.5,30.87a1.87,1.87,0,0,0-1.38-.5c-.58,0-.91.34-1,1a1.77,1.77,0,0,0,1.44.44C26.94,60,27.25,59.71,27.25,59.12Zm18.5-1.5c-1.5.42-2.33,1.13-2.5,2.13a37.75,37.75,0,0,0-.38,4.12,3.66,3.66,0,0,1-2.37-.31c-.33-.29-.33-1,0-2.06H38.62c-.58,0-.87-.33-.87-1a3.59,3.59,0,0,0,1.06-1.94,16.18,16.18,0,0,0-.19-2.81,1.31,1.31,0,0,0-1.25.69,4.69,4.69,0,0,0-.5,1.56c-.08.58-.18,1.17-.31,1.75A1.79,1.79,0,0,1,35.75,61c-1.08-.17-2.29-.29-3.63-.38a3.73,3.73,0,0,0-3,.88,7,7,0,0,1,3.5.69l3.63,1.68a18.05,18.05,0,0,0,4,1.32,8.16,8.16,0,0,0,4.5-.44,10.92,10.92,0,0,1-.56-4.13A5.47,5.47,0,0,1,45.75,57.62Zm-7.63-3.25c-.33.09-.54,0-.62-.25a4.8,4.8,0,0,1-.19-.81,1.44,1.44,0,0,0-.25-.69q-.18-.24-.81-.12a2.38,2.38,0,0,0-.06,1.44A2.33,2.33,0,0,0,36.75,55a.72.72,0,0,0,.75.25C37.75,55.17,38,54.87,38.12,54.37Zm1.5,12.75a1.41,1.41,0,0,0-1.43.5,1.38,1.38,0,0,1-1.44.5,2.22,2.22,0,0,1,0,1.5c-.17.67,0,1,.5.88a2.09,2.09,0,0,1,1.25-1.56A2,2,0,0,0,39.62,67.12Zm1.88,1.5a.89.89,0,0,0,.94-.25.9.9,0,0,1,.93-.25,1.65,1.65,0,0,0-1.87-1.87,1.65,1.65,0,0,0,0,2.37Zm8-.5q3.26-.87,3.87-4.75a4.73,4.73,0,0,0-2.43.32,11.19,11.19,0,0,0-1.82,1.06c0,.67,0,1.31-.06,1.94A1.77,1.77,0,0,0,49.5,68.12Zm2.37-56.5a18.08,18.08,0,0,0,5.19.5c1.71-.08,3.38-.18,5-.31s3.23-.21,4.81-.25a14.7,14.7,0,0,1,4.5.56Q70.5,21.5,70.19,30.5T69.5,46.25a31.71,31.71,0,0,0,8,1,33.13,33.13,0,0,0,8.12-1c.25,0,.4-.08.44-.25s.09-.33.13-.5a.89.89,0,0,1,.25-.44.77.77,0,0,1,.56-.19,27.31,27.31,0,0,1-.44-7.68q.31-4.06.88-8.32c.37-2.83.71-5.7,1-8.62a46.12,46.12,0,0,0,.06-8.63,1.65,1.65,0,0,0,.75-1.31,15.7,15.7,0,0,0,.12-2c0-.71,0-1.42.07-2.12a3.7,3.7,0,0,1,.43-1.69A13.88,13.88,0,0,0,94.5,5c1.67-.08,3.35-.19,5.06-.31s3.38-.19,5-.19a9,9,0,0,1,4.31,1q0,4.13-.37,7.87t-.88,7.38q-.5,3.63-1,7.12a66.38,66.38,0,0,0-.62,7q-.37,9.63-.63,17.38t-.75,15.87c-1.75,0-3.43,0-5.06.07s-3.33.1-5.12.18-3.75.15-5.88.19-4.52.06-7.19.06a8.47,8.47,0,0,1-2-2.31,19.74,19.74,0,0,1-1.5-3.06A16.32,16.32,0,0,1,77,60a7.42,7.42,0,0,1,0-2.75,2.92,2.92,0,0,0-.63-1.13c-.25-.25-.47-.5-.68-.75a1.7,1.7,0,0,1-.38-.93,3.69,3.69,0,0,1,.31-1.57,2.56,2.56,0,0,0-2.25.19,4.56,4.56,0,0,0-1,1.31,4.43,4.43,0,0,1-1,1.32q-.62.56-2.37.06a2.31,2.31,0,0,1,.75-1.63,5.23,5.23,0,0,0,1.12-1.25,4.33,4.33,0,0,0-3,.32c-.91.45-1.81.93-2.68,1.43a9.67,9.67,0,0,1-2.88,1.07,5.73,5.73,0,0,1-3.69-.82c-.5-.5-.6-.83-.31-1a1.71,1.71,0,0,0,.69-1q-.49-.61-1.44-.12a1.5,1.5,0,0,1-1.81-.25c-.25-.75-.1-1.15.44-1.19s.85-.27.93-.69a2.28,2.28,0,0,0-1.87-.37,4.76,4.76,0,0,1-2.38-.13,17,17,0,0,1-2.62-7.87,53.8,53.8,0,0,1,.06-9.31c.29-3.3.67-6.73,1.13-10.32A63.61,63.61,0,0,0,51.87,11.62ZM57.62,34q-.75,0-.81-.63c0-.41-.39-.54-1.06-.37a1.68,1.68,0,0,1-.44.81c-.21.21-.23.56-.06,1.06a1.94,1.94,0,0,0,1.44.32A2.46,2.46,0,0,0,57.62,34Zm1-4.75a8.12,8.12,0,0,0-1.56.37c-.46.17-.6.67-.44,1.5a1.22,1.22,0,0,0,1.07.57,1.56,1.56,0,0,0,.93-.44,1.51,1.51,0,0,0,.44-.94A1.26,1.26,0,0,0,58.62,29.25Zm2.75-9.5c.59-.58.78-1.13.57-1.63a3.49,3.49,0,0,0-1.13-1.37,13.1,13.1,0,0,0-1.87-1.19,20.7,20.7,0,0,1-1.82-1.06,5.43,5.43,0,0,0,1.44,3.31A9.71,9.71,0,0,0,61.37,19.75Zm.5,10c-.16-.67-.1-1.08.19-1.25s.4-.54.31-1.13a5.29,5.29,0,0,1-.81-.25c-.21-.08-.27-.33-.19-.75a2,2,0,0,0-1.87,2.38,2.72,2.72,0,0,0,1.19.5A2.68,2.68,0,0,1,61.87,29.75Zm2.38-5.25a15.31,15.31,0,0,0-1.94.12c-.62.09-.94.5-.94,1.25a5.05,5.05,0,0,0,2.07.32C64.15,26.14,64.42,25.58,64.25,24.5ZM63.75,51c-.58.08-1.13.19-1.63.31s-.75.52-.75,1.19a7.83,7.83,0,0,0,1.82-.19C63.73,52.19,63.92,51.75,63.75,51ZM77.5,53.87a1,1,0,0,0,.5-1V49.75a1.33,1.33,0,0,1,.5-1.13,1.49,1.49,0,0,0-1.25.69,4.21,4.21,0,0,0-.69,1.63,4.59,4.59,0,0,0,0,1.81A1.39,1.39,0,0,0,77.5,53.87Zm9,10a3.05,3.05,0,0,0,.19,1.82c.21.29.14.77-.19,1.43h2.37a5.12,5.12,0,0,0,.5-2.37,5.19,5.19,0,0,0-.5-2.38,11.22,11.22,0,0,1-2.25.19,3.36,3.36,0,0,1-1.5-1.06.77.77,0,0,1,.19-.56,2.69,2.69,0,0,1,.38-.32,2,2,0,0,0,.37-.31q.19-.18.06-.69H83.75a13.39,13.39,0,0,0,.75,3A1.94,1.94,0,0,0,86.5,63.87Zm2-6.25V56.25a2.35,2.35,0,0,0-1.69-.5c-.79,0-1.19.33-1.19,1A5.11,5.11,0,0,0,86.75,58C87.25,58.42,87.83,58.29,88.5,57.62Zm.37-9c0-.41.23-.58.69-.5s.73,0,.81-.37l-.87-.88q-.37-.37-1.5-.12C87.83,47.92,88.12,48.54,88.87,48.62Zm5.75,1.5H92.25V51.5c.75.17,1.27.08,1.56-.25A7.6,7.6,0,0,0,94.62,50.12Zm.88-38a1.25,1.25,0,0,0,1.19-.25,1,1,0,0,0,.18-.93,2.75,2.75,0,0,0-.5-1.07,1.56,1.56,0,0,0-.87-.62c-.5.5-.58.92-.25,1.25A1.68,1.68,0,0,1,95.5,12.12Zm2.37,36.13a3,3,0,0,0-.37-2,1.92,1.92,0,0,0-2,2c.5.42.87.52,1.12.31A2,2,0,0,1,97.87,48.25Zm5.25-18.13a4.27,4.27,0,0,1,0-1.43c.09-.55-.2-.69-.87-.44a.4.4,0,0,0-.44.37l-.12.75a1.49,1.49,0,0,1-.25.63q-.19.26-.69.12a6.39,6.39,0,0,1-.63-1,2.36,2.36,0,0,0-.75-.87,1.1,1.1,0,0,1,.07.94,3.39,3.39,0,0,1-.44.56,7.05,7.05,0,0,0-.5.56.89.89,0,0,0-.13.81c.5.42.92.57,1.25.44a3.72,3.72,0,0,0,1-.56c.34-.25.69-.5,1.07-.75A1.68,1.68,0,0,1,103.12,30.12Z" transform="translate(-11.12 -4.5)"/></g></g></g></g></svg>