<svg xmlns="http://www.w3.org/2000/svg" viewBox="0 0 510.46 64.93"><defs><style>.cls-1{fill:#383736;}</style></defs><g id="レイヤー_2" data-name="レイヤー 2"><g id="レイヤー_1-2" data-name="レイヤー 1"><path class="cls-1" d="M15.62.34a5.63,5.63,0,0,1,1,1.72,6.66,6.66,0,0,1,.34,1.85c0,.64.05,1.3.08,2A20.17,20.17,0,0,0,17.22,8a21.83,21.83,0,0,0,1,3.49c.42,1.14.78,2.31,1.09,3.48a16.84,16.84,0,0,1,.54,3.61,9,9,0,0,1-.67,3.78,4.38,4.38,0,0,1,1.64,2.44,22.94,22.94,0,0,1,.71,3.36c.17,1.18.38,2.31.63,3.4A4.66,4.66,0,0,0,23.6,34.1q1.86-6.21,4.12-12t4.2-11.88A2.07,2.07,0,0,1,33,10a1.25,1.25,0,0,0,1.09-.76,4.12,4.12,0,0,1-.5-2,8.36,8.36,0,0,1,.25-2.06,19.55,19.55,0,0,1,.63-2c.25-.67.46-1.31.63-1.93,1.79.11,3.67.27,5.63.46A20.52,20.52,0,0,0,46.2,1.6,33.54,33.54,0,0,1,47.88,9a39.35,39.35,0,0,0,1.51,7.31,11.36,11.36,0,0,0,.84,1.76A7,7,0,0,1,51,19.82c.39,1.29.75,2.6,1.09,3.91l1,3.95c.33,1.31.71,2.59,1.13,3.82a24.9,24.9,0,0,0,1.56,3.61,30.08,30.08,0,0,0,2.31-6.42q.79-3.4,1.55-6.85c.5-2.3,1.08-4.54,1.72-6.72A25.6,25.6,0,0,1,64.09,9a1.69,1.69,0,0,1,1.6.59,3.09,3.09,0,0,0,1.26,1q.58-.24.33-1.05c-.16-.53-.39-.82-.67-.88a11.07,11.07,0,0,0,1.09-.54,1.12,1.12,0,0,0,.51-1,3.83,3.83,0,0,0-.88.08,6.68,6.68,0,0,1-.8.13,8.45,8.45,0,0,1-1,0,12.69,12.69,0,0,1-1.43-.21,1.93,1.93,0,0,1,.3-.93.76.76,0,0,1,.5-.29,2.62,2.62,0,0,0,.59-.17A1.24,1.24,0,0,0,66,5.12a.64.64,0,0,0-.21-.67A3,3,0,0,0,65.18,4a1.4,1.4,0,0,1-.46-.33c-.08-.12,0-.28.3-.51a4.6,4.6,0,0,1,2-.71,11.32,11.32,0,0,1,2.27,0l2.48.16a17.66,17.66,0,0,0,2.52,0c.11.51,0,.86-.17,1s-.28.58-.17,1.14a.84.84,0,0,0,.92-.63,4.49,4.49,0,0,0,.09-1.56A1.4,1.4,0,0,0,76,2.69c.45-.11.92-.23,1.43-.34A7.06,7.06,0,0,1,79,2.18a2.25,2.25,0,0,1,1.34.42q-2.1,6.14-3.61,12.31T73,28.06a1.88,1.88,0,0,1-1.35-.26,1.85,1.85,0,0,0-1.17-.33q-.77,1.17.21,1.59a8.25,8.25,0,0,0,2,.59,8,8,0,0,1-.84,2.48,13.39,13.39,0,0,1-1.34,2,51.21,51.21,0,0,1-1.6,7.73q-1.09,3.78-2.39,7.52t-2.65,7.48q-1.35,3.73-2.35,7.6c-1.74-.12-3.57-.18-5.5-.21s-4.13-.07-6.6-.13a52.48,52.48,0,0,0-2.1-5.37,37.44,37.44,0,0,1-2-5.8,4.68,4.68,0,0,1-.17-1.81,4.33,4.33,0,0,0-.17-1.72,1.64,1.64,0,0,0-.63-.92,1.63,1.63,0,0,1-.63-.93,22.4,22.4,0,0,1-1.09-4.41q-.35-2.31-.84-4.32a11,11,0,0,0-1.47-3.45,4.55,4.55,0,0,0-3-1.84,1.18,1.18,0,0,0,.16.71,2.19,2.19,0,0,0,.42.38,2.89,2.89,0,0,1,.47.38,1,1,0,0,1,.21.71q-2.28,7-5.13,14t-5.37,14.4a12.26,12.26,0,0,1-2.57.3c-1,0-2.11,0-3.23,0L19,64.18c-1.06-.06-2-.09-2.68-.09q-3.19-10.5-5.59-21t-5-20.41a.52.52,0,0,1,.59-.42c.34,0,.48-.2.42-.59s-.07-.4-.21-.38a1,1,0,0,0-.38.17,2.86,2.86,0,0,1-.29.21c-.09.06-.13,0-.13-.25Q4.29,15.8,3.07,10.67T0,0C1.34,0,2.62,0,3.82.08s2.41.1,3.61.13l3.78.08C12.53.32,14,.34,15.62.34Zm-12.43,8H4.45c.11-.56,0-.9-.25-1a4.26,4.26,0,0,0-1-.25Zm1.93,3.19c.51.11.83.05,1-.17a1.28,1.28,0,0,1,.63-.5,1.46,1.46,0,0,0,.5,1,4.9,4.9,0,0,0,.93.59l1,.51a1.65,1.65,0,0,1,.75.75,6,6,0,0,0-1.13.09.52.52,0,0,0-.46.58c.22.06.33.29.33.68a1.32,1.32,0,0,1,1.56.16,14.84,14.84,0,0,0,1.3,1.1c.05-.56.47-.79,1.26-.68a1.7,1.7,0,0,1,.17,1,3.16,3.16,0,0,0,.16,1.3,1.84,1.84,0,0,1,1,.42,8,8,0,0,1,.71.72,9.63,9.63,0,0,0,.72.71,1.54,1.54,0,0,0,1.05.34,1.75,1.75,0,0,0,.17-1,3.75,3.75,0,0,1,.16-1.47.72.72,0,0,0-.63,0,2.51,2.51,0,0,0-.42.34,2.23,2.23,0,0,1-.33.29c-.09.06-.16,0-.21-.25a1.94,1.94,0,0,0,0-1.59,5.09,5.09,0,0,0-.76-.89,5,5,0,0,1-.75-.84,1.74,1.74,0,0,1-.09-1.47,2.21,2.21,0,0,1-1.72.55,5.21,5.21,0,0,0-1.72,0,8.15,8.15,0,0,0-2-2.77c-.81-.73-1.66-1.48-2.56-2.27a2.16,2.16,0,0,1,.21.93,1.12,1.12,0,0,1-.25.5,3.58,3.58,0,0,0-.38.55A1.82,1.82,0,0,0,5.12,11.51Zm3.2-7.06A1.7,1.7,0,0,0,6.72,2.6,1.62,1.62,0,0,0,8.32,4.45ZM8,18.23l1.51.84a6.18,6.18,0,0,1,1.35,1,2.7,2.7,0,0,0-.21.92.76.76,0,0,1-.38.67q-.51.16-.63,0a1.18,1.18,0,0,1-.21-.42,1.64,1.64,0,0,0-.21-.42c-.09-.11-.27-.14-.55-.08V22a6.32,6.32,0,0,1,3.19,1.26q.25-.76.72-.84a2.28,2.28,0,0,1,1.09.12,8.87,8.87,0,0,1,1.34.59,4,4,0,0,0,1.31.46c-.06-.61-.05-1,0-1.05s.38,0,.88.13a1.74,1.74,0,0,0-.71-1.05,3.17,3.17,0,0,0-1.31-.5,4.1,4.1,0,0,0-2.77.54,2,2,0,0,0-.38-1.26c-.25-.33-.5-.66-.75-1a3.94,3.94,0,0,1-.59-1,1.57,1.57,0,0,1,.13-1.26,2.34,2.34,0,0,1-1.73.42A.91.91,0,0,0,8,18.23Zm2.52,6.3V23.27a.75.75,0,0,0-.67.12.64.64,0,0,0,0,1A.78.78,0,0,0,10.5,24.53Zm-.59,2.6a1,1,0,0,1,1-.25,7.17,7.17,0,0,0,.92.25,2.09,2.09,0,0,1-.25-1.05.94.94,0,0,0-.42-.88.64.64,0,0,1-.33.55l-.68.42a2,2,0,0,0-.5.42C9.55,26.73,9.63,26.91,9.91,27.13Zm1.6-14.36c1.34.17,2-.37,1.93-1.6a1.26,1.26,0,0,0-1.6-.17Q11.09,11.51,11.51,12.77Zm1.26-2.52a5.55,5.55,0,0,0,1.05-.09.62.62,0,0,0,.54-.58,1.16,1.16,0,0,0-1.09-.3C12.82,9.37,12.66,9.69,12.77,10.25Zm.67,19.4c-.11-.33-.13-.56,0-.67a1,1,0,0,1,.33-.29,2.06,2.06,0,0,1,.42-.21q.21-.09.21-.42c-.33.11-.53.11-.58,0a.85.85,0,0,1,0-.47,3.5,3.5,0,0,0,0-.54c0-.17-.12-.25-.34-.25a14.66,14.66,0,0,0-.63,1.51A1,1,0,0,0,13.44,29.65Zm2.18,17.56c.79,0,1.18-.27,1.18-.8A1.16,1.16,0,0,0,16,45.28c-.22.45-.38.77-.46,1A1.44,1.44,0,0,0,15.62,47.21Zm0-31.59c.23.06.34.28.34.68a3.49,3.49,0,0,1,1.18-.47,4.6,4.6,0,0,0,1-.21c-.05-.39-.18-.63-.37-.71a1.1,1.1,0,0,0-.68,0,2.72,2.72,0,0,0-.79.33Zm14.7,22.94h.93c.11-.79-.11-1.21-.67-1.26a1.36,1.36,0,0,1-.26.54Q30.16,38.05,30.32,38.56Zm1.26-21.68c0,.34,0,.73.05,1.18a3.52,3.52,0,0,0,.33,1.3,3,3,0,0,0,.8,1.05,1.77,1.77,0,0,0,1.34.34,2.78,2.78,0,0,0,.26-1.09c0-.34,0-.68,0-1s-.05-.67-.08-1a1.85,1.85,0,0,1,.21-1,.61.61,0,0,1-.42-.25c-.06-.11-.22-.14-.5-.08q-.26.91-.63.84Zm.93,10.25a2.72,2.72,0,0,0,.71,1.09c.31.28.6.56.88.84a2.19,2.19,0,0,0,0-1.26c-.11-.28-.22-.61-.33-1A2,2,0,0,0,32.51,27.13Zm1.93-11.51H35.7V14.36A1,1,0,0,0,35,14a.82.82,0,0,0-.63.25,1,1,0,0,0-.3.63A.8.8,0,0,0,34.44,15.62Zm.34,15.63a.61.61,0,0,0,.54-.34,2.27,2.27,0,0,0,.3-.75,3,3,0,0,0,0-.84.75.75,0,0,0-.3-.59.89.89,0,0,0-.63.92A10.9,10.9,0,0,0,34.78,31.25Zm.92-18.82q-.42.77.63,1.26a7.87,7.87,0,0,0,1.89.67,2.07,2.07,0,0,0,.34-1.59c-.4-.17-.86-.35-1.39-.55A1.5,1.5,0,0,0,35.7,12.43Zm.67-2.18a.91.91,0,0,0,.55-.42,3.13,3.13,0,0,0,.33-.72,3.57,3.57,0,0,1,.34-.71A1,1,0,0,1,38.22,8a1.66,1.66,0,0,0-1.6-1.6,2.29,2.29,0,0,0-.25,1,4.7,4.7,0,0,0,.09.92c0,.31.09.63.12,1A1.85,1.85,0,0,1,36.37,10.25Zm1.26,7.64a2.83,2.83,0,0,0,.09,1.56,1.11,1.11,0,0,0,1.17.63,1.28,1.28,0,0,1,.38-1,2,2,0,0,1,.88-.46,6.22,6.22,0,0,1,1.14-.17,4.73,4.73,0,0,0,1.13-.21v-1.6c-1,.28-1.72.48-2.31.59A24.66,24.66,0,0,0,37.63,17.89Zm.93-6.38,1.13-.34c.36-.11.52-.42.46-.92-.22-.06-.33-.28-.33-.67h-1.6c0,.39,0,.75,0,1.09A1.63,1.63,0,0,0,38.56,11.51ZM39.23,14v.67c.22,0,.33.11.33.34h.59c0-.28.11-.39.34-.34V14a.3.3,0,0,1-.34-.34h-.59C39.45,14,39.34,14.08,39.23,14Zm1.59-8.91V6.38a1.8,1.8,0,0,0,.8.34,1.87,1.87,0,0,1,.8.34V4.79A2.35,2.35,0,0,0,40.82,5.12Zm1.94,21c.44.4.72.58.84.55a3.31,3.31,0,0,1,1,.13,1.16,1.16,0,0,0,.34-1.22,9.88,9.88,0,0,0-.34-1.3c-.78-.17-1.31-.09-1.59.25A1.94,1.94,0,0,0,42.76,26.12ZM44.35,16c.06-.73-.39-1-1.34-.92a1.42,1.42,0,0,0,.5,1A.56.56,0,0,0,44.35,16Zm1.26,6.38a3.24,3.24,0,0,0,0-2.52,1.42,1.42,0,0,0-1.38.17,1.32,1.32,0,0,0-.47,1,1.41,1.41,0,0,0,1.85,1.34Zm-.33-4.11a6.08,6.08,0,0,0,.21-1.05c0-.31-.27-.49-.89-.55a1.19,1.19,0,0,0-.25.46,1,1,0,0,0,0,.55,1.22,1.22,0,0,0,.3.46A.68.68,0,0,0,45.28,18.23ZM46,14.7H44.6a.78.78,0,0,0,.13.67.72.72,0,0,0,1.09,0A.78.78,0,0,0,46,14.7Zm-.34,17.81a2.37,2.37,0,0,0,.59-1.85,2.24,2.24,0,0,0-1.6-.34,13.34,13.34,0,0,1,.09,1.56C44.69,32.41,45,32.62,45.61,32.51Zm0-21a8.11,8.11,0,0,1,.93-1.09,7,7,0,0,0,.92-1.18,2.54,2.54,0,0,0-1.18.13,2.17,2.17,0,0,0-.92.58,1.23,1.23,0,0,0-.34.8C45,11,45.22,11.28,45.61,11.51Zm-.33,30.57c-.12.62,0,1,.29,1.18a1.88,1.88,0,0,0,1.3.08c.11-.78,0-1.26-.33-1.42A1.32,1.32,0,0,0,45.28,42.08ZM46.2,7.39a2.71,2.71,0,0,0,.17-1.3,1.27,1.27,0,0,0-.76-1c.06.45.11.87.17,1.26A2.09,2.09,0,0,0,46.2,7.39Zm4.79,42a.51.51,0,0,1-.46-.5c0-.28-.3-.31-.8-.09v1.26A3,3,0,0,1,50.9,50c.17.06.31.39.42,1a3,3,0,0,1,.63-.13,2.26,2.26,0,0,0,.68-.17,1.14,1.14,0,0,0,.46-.33,1,1,0,0,0,.17-.63,1.17,1.17,0,0,1-.63-.46,3.64,3.64,0,0,1-.47-.8l-.29-.72q-.12-.28-.21-.21a2,2,0,0,0-.25,1.05C51.41,49,51.27,49.28,51,49.39Zm2.27,2.27a1.82,1.82,0,0,1,.84.59,1.12,1.12,0,0,0,1.09.33,1.89,1.89,0,0,0,.12-.75,5.06,5.06,0,0,1,.13-1.09,2.19,2.19,0,0,0-1.6-.34l-.29.59C53.47,51.16,53.37,51.38,53.26,51.66ZM54.52,59q1.33.16,1.26-.93-.35,0-.42-.21t-.51-.12a1.09,1.09,0,0,1-.29.54C54.42,58.39,54.4,58.63,54.52,59Zm.92,4.45V62.16h-.92a2.54,2.54,0,0,0,0,1.09C54.64,63.53,54.94,63.59,55.44,63.42Zm-.92-8.57a2,2,0,0,0,1.26,1.26,1.38,1.38,0,0,0,.54-1.47,1.56,1.56,0,0,0-.88-1.38,2.13,2.13,0,0,1-.63.67A.88.88,0,0,0,54.52,54.85Zm2.85-2.27a3.19,3.19,0,0,0,1.09-1.13c.28-.47.56-.94.84-1.39a1,1,0,0,0-1-.67,1.56,1.56,0,0,1-.42.76,4.36,4.36,0,0,0-.59.71,2.25,2.25,0,0,0-.34.8A1.09,1.09,0,0,0,57.37,52.58ZM57,41.16a7.2,7.2,0,0,0,1.13-.08.53.53,0,0,0,.46-.59c-.28-.06-.43-.27-.46-.63s-.29-.46-.8-.3c.06.4,0,.65-.21.76S56.92,40.71,57,41.16Zm1.93,13c.61.11.92-.1.92-.63s-.31-.74-.92-.63c0,.45-.07.7-.21.76S58.69,53.9,59,54.18Zm.33-7a1.29,1.29,0,0,0,1.26-.63,3.41,3.41,0,0,0,.34-1.64c-.73-.11-1.18.08-1.34.59A5.2,5.2,0,0,0,59.3,47.21Zm1.26-3.53a3.13,3.13,0,0,0,.8-1.13,1.21,1.21,0,0,0-.12-1.39.9.9,0,0,0-.72.38,3.38,3.38,0,0,0-.46.8,1.43,1.43,0,0,0-.08.84A.62.62,0,0,0,60.56,43.68Zm.34-6.38c.45.05.7-.07.76-.38s.11-.6.16-.88q-.33,0-.42-.21c0-.14-.22-.18-.5-.13-.28.28-.34.49-.17.63S61,36.79,60.9,37.3Zm2.86-10.17a2.52,2.52,0,0,1-.89-.25c-.19-.11-.43,0-.71.25a9.31,9.31,0,0,1,.08,2.14,6.4,6.4,0,0,1-.75,2.31c.73-.39,1.27-.42,1.64-.08A3.73,3.73,0,0,1,64,32.89l.71,1.84A2.16,2.16,0,0,0,66,36c.34-.34.4-.62.17-.84A1.17,1.17,0,0,1,66,34.1h1.85a1,1,0,0,0,.38-.92c0-.39,0-.81,0-1.26-.62.22-1,.22-1.22,0a1.63,1.63,0,0,1-.38-.84,3,3,0,0,0-.29-.92c-.14-.28-.46-.34-1-.17A1.23,1.23,0,0,0,65.44,31a1.36,1.36,0,0,1,.25.88c-.17.22-.32.45-.46.67s-.41.31-.8.25a5.85,5.85,0,0,0,.12-1.51c0-.45-.07-.89-.12-1.34a.64.64,0,0,0-.59.08l-.29.3a.63.63,0,0,1-.3.16q-.16,0-.42-.21a.34.34,0,0,0,.25-.37v-.63a3.33,3.33,0,0,1,.05-.59.39.39,0,0,1,.29-.34,3.43,3.43,0,0,1,1,.3,2,2,0,0,0,1.26,0,1.83,1.83,0,0,1,.33-1,1.66,1.66,0,0,0-.75-.38,1.7,1.7,0,0,1-.59-.17.47.47,0,0,1-.29-.37,1.93,1.93,0,0,1,.29-.93q-.59.35-.84.21a1.14,1.14,0,0,1-.42-.33,1.56,1.56,0,0,0-.34-.34c-.11-.08-.3,0-.58.13-.06.28,0,.46.16.54a1.68,1.68,0,0,0,.55.17,1,1,0,0,1,.5.21C63.85,26.57,63.87,26.8,63.76,27.13Zm-2.27,14a.88.88,0,0,0,.42.08c.17,0,.25.09.25.26a1.21,1.21,0,0,0,1.26-1.35,1.52,1.52,0,0,0-.92-.92,4.92,4.92,0,0,0-.72,1A7.71,7.71,0,0,0,61.49,41.16Zm.33-20.41q.6.59,1,.42a.81.81,0,0,1,.89.25c-.12.39-.21.81-.3,1.26a1.16,1.16,0,0,1-.63.92.68.68,0,0,0,.8,0,1.86,1.86,0,0,0,.5-.79,4.41,4.41,0,0,0,.26-1.31c0-.5,0-1,0-1.42a4.25,4.25,0,0,0-1.64-.51C62.2,19.52,61.88,19.91,61.82,20.75Zm2.27,18.14a3.87,3.87,0,0,0,1.22-.17c.36-.11.49-.47.38-1.09C64.62,37.58,64.09,38,64.09,38.89ZM65,18.23c.44-1.12.78-2,1-2.69a16.19,16.19,0,0,0,.59-2.77,2.34,2.34,0,0,0-1.22,1,4.83,4.83,0,0,0-.63,1.56,5.35,5.35,0,0,0-.08,1.64A3.9,3.9,0,0,0,65,18.23Zm.33,5.71A.55.55,0,0,1,66,23.6a1.8,1.8,0,0,1-.5-1.13,7.2,7.2,0,0,1,.08-1c.06-.34.1-.64.13-.92a.68.68,0,0,0-.38-.68,1.88,1.88,0,0,0-.63,2A6.51,6.51,0,0,0,65.35,23.94ZM65,26.46a4.52,4.52,0,0,0,1.42.67c.45.12.73.65.84,1.6.51.11.8,0,.89-.38a3.75,3.75,0,0,0,0-1.22,1,1,0,0,1-.84-.17,3.44,3.44,0,0,1-.63-.58A6,6,0,0,0,66,25.7a2.85,2.85,0,0,0-1-.5Zm1.59-3.19a.55.55,0,0,1,.34.67,3.28,3.28,0,0,0,1.55-.17,1,1,0,0,0,.63-1.09,1.2,1.2,0,0,0-.59-.8,1.17,1.17,0,0,0-.88-.08,1.62,1.62,0,0,0-.8.5A1.18,1.18,0,0,0,66.61,23.27ZM69.8,35.36a2.61,2.61,0,0,0-.33-1.59h-.93a1.83,1.83,0,0,0,0,1.55C68.77,35.63,69.19,35.65,69.8,35.36Zm-1.26-9.49a4,4,0,0,0,.3,1,1.14,1.14,0,0,0,.63.63,8.86,8.86,0,0,0,.75-.84c.17-.23.14-.59-.08-1.09A2.06,2.06,0,0,0,68.54,25.87Zm2.86-1.34c.17-1.29.38-2.52.63-3.7a7.21,7.21,0,0,1,1.3-2.94,1.76,1.76,0,0,0-1.09-.5l-1.51-.17a12.53,12.53,0,0,0-.42,3.91A5.91,5.91,0,0,0,71.4,24.53Zm0-10.84a2.08,2.08,0,0,1,.71.46,1,1,0,0,0,.89.21,1.3,1.3,0,0,0,.33-1,1.34,1.34,0,0,0-.33-1h-.93a3.48,3.48,0,0,1-.33.67A4.59,4.59,0,0,0,71.4,13.69Zm2.86-1.26a.46.46,0,0,1,.42-.5c.28-.06.36-.31.25-.76a1.83,1.83,0,0,1-1-.33,1.18,1.18,0,0,0-.29,1A.57.57,0,0,0,74.26,12.43Z"/><path class="cls-1" d="M129.44,4.79q.26,4.37.26,8c0,2.44,0,4.79-.13,7.06s-.21,4.55-.38,6.84-.31,4.76-.42,7.39a6.31,6.31,0,0,0-3.23,0,7,7,0,0,1-3.4,0,3.4,3.4,0,0,0,3.06,1.31,18.15,18.15,0,0,0,3.32-.72,34.92,34.92,0,0,1,.25,4c0,1.24,0,2.43-.08,3.57s-.1,2.27-.13,3.36a20,20,0,0,0,.21,3.41.61.61,0,0,1-.67.29c-.34,0-.53.1-.59.38s0,.25.13.25a.48.48,0,0,0,.29-.13,2,2,0,0,1,.38-.21.51.51,0,0,1,.46.09q.09,3.69.42,6.3a37.72,37.72,0,0,1,.25,5.79,4.34,4.34,0,0,1-2.14.51c-.81,0-1.67,0-2.56-.09s-1.79-.12-2.69-.21a8.34,8.34,0,0,0-2.52.13,2.46,2.46,0,0,1-.59-2,4.59,4.59,0,0,0-.33-2.23,2.79,2.79,0,0,1-.38,1.13c-.2.31-.38.62-.55.93a3.09,3.09,0,0,0-.33.92,1.92,1.92,0,0,0,.33,1.22,1,1,0,0,0-.67-.29,8.65,8.65,0,0,0-.92,0,8.86,8.86,0,0,1-.93,0,1.06,1.06,0,0,1-.67-.29c.06-1.29.09-2.45.09-3.49s0-2-.13-3-.18-1.9-.29-2.86-.23-2-.34-3.1c.56,0,1,.11,1.39.16s.54-.3.54-1.09a.27.27,0,0,0-.33-.21,3.66,3.66,0,0,0-.59.17,5,5,0,0,1-.72.21,2.7,2.7,0,0,1-.63.08c0-1.28,0-2.42,0-3.4s-.06-1.92-.08-2.81-.09-1.75-.17-2.56-.18-1.7-.29-2.65a1.78,1.78,0,0,0-1.31-.8,1.73,1.73,0,0,1-1.3-.8,9.53,9.53,0,0,0-.92,1.39,1.29,1.29,0,0,1-1.26.8,1.49,1.49,0,0,1-.51-1,6,6,0,0,0-.25-1.18,1.41,1.41,0,0,0-.54-.75c-.26-.17-.69-.14-1.31.08a5.83,5.83,0,0,0,.68,2,2.18,2.18,0,0,1,0,1.85,20.65,20.65,0,0,0-4.67.16,10.89,10.89,0,0,1-4.24-.16,4.14,4.14,0,0,1-.5,1.13c-.28.48-.54.92-.76,1.34a3.11,3.11,0,0,0-.38,1.14c0,.33.18.5.63.5a2.12,2.12,0,0,0-1.3.76,1.68,1.68,0,0,1-1.55.5v3.19a1,1,0,0,0,.75-.08l.51-.34.54-.33a1.67,1.67,0,0,1,.8-.17,8.4,8.4,0,0,1,.59,2.9q.08,1.73,0,3.48a3.3,3.3,0,0,0-1.47-.25,2.18,2.18,0,0,1-1-.08.84.84,0,0,1,.92-.67c-.5-.28-1-.58-1.47-.89A5.89,5.89,0,0,0,91.81,50a.75.75,0,0,0-.17.55,1.52,1.52,0,0,0,.21.75,2.83,2.83,0,0,0,.51.67.94.94,0,0,0,.71.3c.06.22,0,.33-.12.33a3.34,3.34,0,0,1-.51,0,1.39,1.39,0,0,0-.5,0c-.14,0-.19.16-.13.38a8.58,8.58,0,0,0,2.73.42,14.13,14.13,0,0,1,2.4.17A20.81,20.81,0,0,0,97.06,58a23.63,23.63,0,0,1,.21,4.37q-2.94,0-6.93.09a53.2,53.2,0,0,1-7.43-.34Q82,48,81.82,33.31T82,3.78q4.29-.16,7.86-.13t7.77-.12Q97.52,7.06,97.4,10c-.09,2-.17,3.86-.25,5.71s-.16,3.68-.21,5.5-.06,3.77,0,5.84q3.53-.35,7.72-.34t8.24.34a9.67,9.67,0,0,0,.92-2.23,18.13,18.13,0,0,0,.5-2.56c.12-.9.2-1.78.26-2.65s.11-1.66.16-2.39a54.39,54.39,0,0,0,.09-6.76,40.46,40.46,0,0,1,.25-6.93,16.34,16.34,0,0,1,3.28,0c1.06.11,2.16.26,3.31.46s2.36.38,3.62.55A32.94,32.94,0,0,0,129.44,4.79ZM84.17,22a4.31,4.31,0,0,0,0-1.14.53.53,0,0,0-.59-.46.69.69,0,0,0-.29,1A1.13,1.13,0,0,0,84.17,22Zm.33,9.83c.11-.73-.19-1-.92-.93A1.17,1.17,0,0,0,83.71,32a2.33,2.33,0,0,0,.75.63,2.41,2.41,0,0,0,.93.3,1.7,1.7,0,0,0,.71,0,2.13,2.13,0,0,1-.21-1.55,5.32,5.32,0,0,0,.21-1.64H84.84a3,3,0,0,0,.08.67c.06.23.11.45.17.68a.69.69,0,0,1,0,.54A.8.8,0,0,1,84.5,31.84Zm-.33,17.55a8.81,8.81,0,0,0,2.14.46,4.89,4.89,0,0,1,1.72.47,1.18,1.18,0,0,0-.46-1,2.48,2.48,0,0,0-1.13-.5,3.41,3.41,0,0,0-1.35,0A1.26,1.26,0,0,0,84.17,49.39ZM86.44,9.24a14.86,14.86,0,0,0,2.73.08A1.8,1.8,0,0,0,90.89,8a3.47,3.47,0,0,1-1.43,0,7.06,7.06,0,0,0-1.22-.12,2.07,2.07,0,0,0-1,.25A2,2,0,0,0,86.44,9.24Zm.92,42.34a1.79,1.79,0,0,0,.13,1.34,1.51,1.51,0,0,0,.79.59A2.21,2.21,0,0,0,89,52.12c.08-.59.18-1.19.29-1.8h-1a2.06,2.06,0,0,1,.3,1C88.55,51.62,88.14,51.69,87.36,51.58ZM88,61.15a1.2,1.2,0,0,1,.13-.46,2.84,2.84,0,0,0,.17-.55.72.72,0,0,0,0-.42c0-.11-.25-.16-.58-.16a4.67,4.67,0,0,1-.26,1C87.33,60.84,87.53,61,88,61.15ZM87.7,22.26a2.65,2.65,0,0,1,.54.34q.21.16.72,0,.17-.77-.21-.93L88,21.34A1.72,1.72,0,0,1,87.7,22.26Zm14,7.39c-.22.51-.19.77.09.8a.52.52,0,0,1,.5.46,1.8,1.8,0,0,0-.59,1c-.11.42-.45.63-1,.63a2.12,2.12,0,0,1-1.1-.3l-1-.58a2.43,2.43,0,0,0-1-.38,1.65,1.65,0,0,0-1.09.25.91.91,0,0,0,.25,1,6.44,6.44,0,0,0,.88.59,2.9,2.9,0,0,1,.72.5c.17.17.08.45-.25.84a4.8,4.8,0,0,0-2.4-.76L93,33.52a19.74,19.74,0,0,1-2.69-.34,3.18,3.18,0,0,1-2-1.34,1.81,1.81,0,0,1-.25.67,5.19,5.19,0,0,0-.33.59,7.72,7.72,0,0,0,2.81,1.63,15.44,15.44,0,0,0,3,.63c1,.12,2.09.2,3.15.26a17.64,17.64,0,0,1,3.11.42,1.32,1.32,0,0,0,.21-.72.93.93,0,0,0-.17-.38,3.58,3.58,0,0,1-.25-.42,1.79,1.79,0,0,1-.12-.75h2.85V35.7a6,6,0,0,0,1.6-.67,4.42,4.42,0,0,1,1.59-.59V33.1a5.34,5.34,0,0,0-.88-.72,6.2,6.2,0,0,1-.88-.67,2.84,2.84,0,0,1-.67-.92,2.48,2.48,0,0,1-.09-1.47A1.83,1.83,0,0,0,101.72,29.65ZM88.28,21c.06-.22.28-.34.68-.34,0-.44-.12-.71-.34-.79a.61.61,0,0,0-.59,0,.64.64,0,0,0-.29.5C87.71,20.64,87.89,20.83,88.28,21ZM88,43h.59c0-.45.07-.7.21-.76s.07-.22-.21-.5H88c-.28.28-.35.45-.21.5S88,42.56,88,43Zm1.26,6.05a2,2,0,0,0,.17-1.6c-.17-.5-.65-.7-1.43-.59a.82.82,0,0,0,.09,1.22A5.27,5.27,0,0,0,89.29,49.06Zm0-30.24v1.26a1.57,1.57,0,0,0,.59-.3l.46-.38a1.07,1.07,0,0,1,.46-.21,1.22,1.22,0,0,1,.68.21V18.14a1,1,0,0,0-.93.47Q90.29,19.06,89.29,18.82Zm1.93,27c.11-.61,0-1-.46-1.09a5.82,5.82,0,0,0-1.47-.17A2.18,2.18,0,0,0,90,45.86.81.81,0,0,0,91.22,45.86ZM89.88,7.31a4.48,4.48,0,0,1,.29-.67,3.78,3.78,0,0,0,.3-.8,1.51,1.51,0,0,0,0-.67c-.06-.2-.25-.33-.59-.38-.06.17-.14.38-.25.63a3.15,3.15,0,0,0-.25.75,1.46,1.46,0,0,0,0,.72A.57.57,0,0,0,89.88,7.31Zm-.25,44.94c1.06,0,1.68-.42,1.85-1.26a4.5,4.5,0,0,1-1.31.33C89.7,51.38,89.51,51.69,89.63,52.25Zm0-31.25q.16.93,1,.84a.9.9,0,0,0,.89-.84.75.75,0,0,0-.84-.25A5,5,0,0,1,89.63,21Zm0,8.32v.58c.22.12.3.23.25.34h.67a.3.3,0,0,1,.34-.34v-.58c-.28,0-.4-.12-.34-.34h-.67C89.88,29.26,89.8,29.37,89.63,29.32Zm.92,19.74a1.8,1.8,0,0,1,1.26.33c-.11-.45,0-.7.25-.75a.48.48,0,0,0,.42-.51,6.46,6.46,0,0,0-.67-.29,1.8,1.8,0,0,0-.92,0A1.83,1.83,0,0,1,90.55,49.06Zm3.53-30.92H95a3.08,3.08,0,0,1,0-1c.06-.37-.14-.46-.58-.3a3.57,3.57,0,0,1-.34.55C94,17.57,94,17.81,94.08,18.14ZM110.29,37c.34,0,.52.13.55.38s.26.32.71.21a1.32,1.32,0,0,1-1.43,1c-.78,0-1.57.05-2.35.05a.76.76,0,0,1,.67-.51h.8a1.24,1.24,0,0,0,.67-.17C110.11,37.77,110.23,37.46,110.29,37Zm2.86-.34c.44,0,.7.07.75.21s.26.07.59-.21a.81.81,0,0,0-.12-.71.77.77,0,0,0-.55-.21.74.74,0,0,0-.55.21A.78.78,0,0,0,113.15,36.62Zm2.6,21.09a1.85,1.85,0,0,1,.93-1.18,10,10,0,0,0,1.26-.75,4.62,4.62,0,0,0-.26-1c-.11-.28-.45-.37-1-.25a2.16,2.16,0,0,1-.38.71,4.51,4.51,0,0,0-.51.8,3,3,0,0,0-.29.88A.86.86,0,0,0,115.75,57.71Zm.59-45.61a1.89,1.89,0,0,0,.92,0,3.65,3.65,0,0,0,.63-.29,1.81,1.81,0,0,1,.55-.21,1.38,1.38,0,0,1,.76.21,1.62,1.62,0,0,0,.37-1.26c0-.56-.35-.78-1-.67a1.14,1.14,0,0,1-.42.75,3.47,3.47,0,0,1-.72.42,6.8,6.8,0,0,0-.71.38A1,1,0,0,0,116.34,12.1Zm1,27.72a8.75,8.75,0,0,0,1.05-.72,2.77,2.77,0,0,1,1.13-.54,1.14,1.14,0,0,1-.54-.3c-.15-.14-.38-.15-.72,0a.59.59,0,0,1-.42.84,1.64,1.64,0,0,0-.42.21C117.32,39.35,117.29,39.54,117.35,39.82Zm.92-7V31.5a.75.75,0,0,0-.67.13.72.72,0,0,0,0,1.09A.75.75,0,0,0,118.27,32.84Zm0-4.53a1.75,1.75,0,0,0,1.43-.76c.28-.45.56-.92.84-1.43a1.19,1.19,0,0,0-1.05-.29,1.59,1.59,0,0,0-.92.59,2,2,0,0,0-.47,1A1.15,1.15,0,0,0,118.27,28.31Zm.93,22c.61-.06,1-.1,1.13-.13s.29.24.46.8a9.31,9.31,0,0,1,2.1-.3,6.77,6.77,0,0,0,2.1-.37c0-.68-.14-1-.42-1.14a1.5,1.5,0,0,0-1,.09,6.14,6.14,0,0,0-1.14.58,3,3,0,0,1-1,.47,1.35,1.35,0,0,0-.88-1.47,12.66,12.66,0,0,0-2-.47.64.64,0,0,0,.12.63,2.89,2.89,0,0,0,.47.38.9.9,0,0,1,.33.38C119.59,49.91,119.47,50.09,119.2,50.32Zm.67,6.38a1.48,1.48,0,0,0-.34,1.26c.06.56.39.79,1,.67-.11-.33-.1-.57,0-.71a2.1,2.1,0,0,1,.46-.34,4.4,4.4,0,0,0,.51-.29.65.65,0,0,0,.25-.59,5,5,0,0,0-1,.42C120.73,57.18,120.43,57,119.87,56.7Zm1.59-16.21a2.74,2.74,0,0,0,.34-1.6h-1.26C120.15,39.79,120.46,40.32,121.46,40.49Zm-.92,13.35h.92c.11-.78-.11-1.2-.67-1.26a1.48,1.48,0,0,1-.25.55C120.43,53.27,120.43,53.51,120.54,53.84Zm.59-34.77c.5.11.8,0,.88-.38a5.64,5.64,0,0,0,.13-1.22h-1a1.11,1.11,0,0,0,0,1.6Zm-.34,3.53a.55.55,0,0,1,.34.67,3.1,3.1,0,0,1,1-.25,3.14,3.14,0,0,1,1,.25c.11-.23.21-.45.29-.67a2,2,0,0,0,.05-.93,8.32,8.32,0,0,1-1.52.21A1.11,1.11,0,0,0,120.79,22.6Zm1.6-8.24a3.8,3.8,0,0,1,.33-.67,3.75,3.75,0,0,0,.34-.67c-.34,0-.52-.13-.55-.38s-.26-.32-.71-.21v1.26A.6.6,0,0,0,122.39,14.36Zm1,12.1a1.83,1.83,0,0,0-.13-1.34,1.56,1.56,0,0,0-.88-.59,2.25,2.25,0,0,0-.42,1.34C122,26.38,122.44,26.57,123.4,26.46Zm-.34,6c.61.11.92-.1.92-.63s-.31-.74-.92-.63ZM124,7c0,.34,0,.55.26.63a1,1,0,0,0,.67,0,1.2,1.2,0,0,0,.59-.33.59.59,0,0,0,.08-.67A2.66,2.66,0,0,0,124,7Zm.68,32.85a.78.78,0,0,0,.25.79,1.85,1.85,0,0,0,.84.42,2.46,2.46,0,0,0,1,0,1.38,1.38,0,0,0,.75-.34,2.89,2.89,0,0,0-1.22-1.05A1.38,1.38,0,0,0,124.66,39.82Zm0-16a1.87,1.87,0,0,1,.33.79q.09.47.21.93a1.39,1.39,0,0,0,.42.71,1.22,1.22,0,0,0,1,.17,6.26,6.26,0,0,1-.38-1.13,4.89,4.89,0,0,0-.29-.93,1.34,1.34,0,0,0-.42-.54A1,1,0,0,0,124.66,23.86Zm1.93,27.46c.11-1-.23-1.4-1-1.34C125.47,50.93,125.8,51.38,126.59,51.32Zm-.67-37h1.26a9.79,9.79,0,0,0-.09-1.38c-.06-.42-.33-.6-.84-.55a4.22,4.22,0,0,0-.12,1.09A2.36,2.36,0,0,1,125.92,14.36Zm1.59-7a2.25,2.25,0,0,0-.33-1.6h-.93C125.69,6.78,126.11,7.31,127.51,7.31Zm-.59,38.55c-.11.45,0,.75.21.89a1.71,1.71,0,0,0,1.05.12,1.7,1.7,0,0,0-.46-1A.5.5,0,0,0,126.92,45.86Zm.93-35.36a.65.65,0,0,0,.63-.13.86.86,0,0,1,.63-.21c0-.72-.37-1-1.26-.92Z"/><path class="cls-1" d="M142.8,22.51c-.28.23-.41.44-.38.63a2.67,2.67,0,0,0,.21.67,7.69,7.69,0,0,0,.38.76,1.12,1.12,0,0,1,.12.8.75.75,0,0,0-.88.38,2.82,2.82,0,0,0-.21,1.17,5.31,5.31,0,0,0,.17,1.35c.11.42.2.71.25.88h.93c.33.11.56.1.67,0a1.06,1.06,0,0,0,.21-.51c0-.19,0-.4.08-.63a.47.47,0,0,1,.3-.42,1.22,1.22,0,0,1,.46,1.05,10.61,10.61,0,0,0,.17,1.47,2,2,0,0,0,.54,1.09c.28.28.76.26,1.43-.08a2.71,2.71,0,0,0-.21-1.51q-.3-.59-.63-1.14a4.22,4.22,0,0,1-.5-1.21,4.12,4.12,0,0,1,.08-1.85c.9-.11,1.65-.18,2.27-.21s1.18,0,1.68,0a7.66,7.66,0,0,0,1.55-.17,10.18,10.18,0,0,0,1.81-.59,10.24,10.24,0,0,1,.33,2.6v2.65c0,.87.05,1.71.13,2.52a4.25,4.25,0,0,0,.8,2.14.93.93,0,0,1-.93.67,13.17,13.17,0,0,1,.51,2.9c.05,1,.1,2,.13,3s.09,2,.21,3a9.66,9.66,0,0,0,.75,2.85,6,6,0,0,0,3.11,3.2A10.45,10.45,0,0,0,163.08,51a8.83,8.83,0,0,0,4.63-1.39,6.42,6.42,0,0,0,2.81-4.12,18.24,18.24,0,0,0,.54-3.82c0-1.14.05-2.24.05-3.27s0-2.09.08-3.15a16.41,16.41,0,0,1,.59-3.45A1.14,1.14,0,0,0,173,31.5a1.3,1.3,0,0,1,1.09-.42c-.12-.34-.44-.45-1-.34a2.36,2.36,0,0,1-1.3,0,23.47,23.47,0,0,1-.13-5.08,9.8,9.8,0,0,0-.54-4.41c1.79-.17,3.57-.36,5.33-.59s3.71-.56,5.84-1a1.75,1.75,0,0,1,.33,1.68,3,3,0,0,1-.67,1.42c.06.23.14.34.25.34a1.13,1.13,0,0,0,.38-.08,2.87,2.87,0,0,1,.38-.13c.11,0,.22,0,.34.21-.4.9-.77,1.76-1.14,2.6a7.3,7.3,0,0,0-.46,3.2c-.9-.17-1.47-.09-1.72.25a1.78,1.78,0,0,0-.34,1.22c0,.47.07.95.13,1.42s-.06.77-.34.89c0,.61.21,1,.63,1.13a1.74,1.74,0,0,1,1,.8,1.43,1.43,0,0,0-.34,1.43,1.44,1.44,0,0,1-.33,1.42,6.86,6.86,0,0,1,1.3,1.14,6.22,6.22,0,0,0,1.3,1.13,1.56,1.56,0,0,0,0-.67,4.17,4.17,0,0,0-.17-.84,2,2,0,0,0-.42-.76.91.91,0,0,0-.71-.33c.84-.28,1.15-1,.92-2.19,0-.28-.07-.44-.21-.5a.68.68,0,0,0-.42,0l-.42.08q-.21,0-.21-.21a1.77,1.77,0,0,1,.59-1.47,5,5,0,0,0,1-1,2.31,2.31,0,0,1,1.18.59,4,4,0,0,1,.71,1c.2.39.38.78.55,1.17a2.57,2.57,0,0,0,.75,1,17.3,17.3,0,0,0-.67,4.08c-.06,1.37-.13,2.68-.21,3.94a19.89,19.89,0,0,1-.55,3.57A6.89,6.89,0,0,1,183,50.23a2.75,2.75,0,0,1-.25,1.26,10.14,10.14,0,0,1-.55,1c-.19.31-.38.63-.54,1a2.8,2.8,0,0,0-.26,1.26,10.64,10.64,0,0,0-2,1.68c-.65.68-1.32,1.33-2,2a11.74,11.74,0,0,1-2.18,1.59,4.37,4.37,0,0,1-2.65.47,18.51,18.51,0,0,1-5.54,2.85,19.77,19.77,0,0,1-7.56.67c-.4-.5-.73-1-1-1.38a1.26,1.26,0,0,0-1.26-.55.42.42,0,0,0-.3.34,4.83,4.83,0,0,0,0,.59v.63a.34.34,0,0,1-.25.37,24.19,24.19,0,0,1-9.57-5,36.42,36.42,0,0,1-6.73-7.81,1.1,1.1,0,0,1,.8-.51,8.76,8.76,0,0,1,1.18-.08,7.13,7.13,0,0,0,1.17-.09.82.82,0,0,0,.72-.58,1.11,1.11,0,0,0-.67-1,3.41,3.41,0,0,0-1.35-.17c-.5,0-1,.07-1.51.12a2.29,2.29,0,0,1-1.26-.16,10.19,10.19,0,0,0-.38-2.69c-.25-1-.46-1.91-.63-2.86a13,13,0,0,1-.21-2.73,3.3,3.3,0,0,1,.89-2.22,4.41,4.41,0,0,1-.85-2.23,20.38,20.38,0,0,1-.12-3c0-1.07.07-2.13.12-3.19A14.44,14.44,0,0,0,138,27a3.26,3.26,0,0,0,1.55-.33c.42-.23.86-.45,1.31-.67q-.09-.51-.42-.51a4.24,4.24,0,0,0-.8.09l-.88.16a.74.74,0,0,1-.76-.33,26,26,0,0,1,2.39-11.26,16.58,16.58,0,0,1,6.85-7.56c.34,0,.45-.3.34-.75s0-.73.25-.84a1.37,1.37,0,0,1,.71,0,.78.78,0,0,1,.34.25,4.18,4.18,0,0,1,.25.38.75.75,0,0,0,.3.29A5.07,5.07,0,0,1,150.15,4,3.5,3.5,0,0,1,151.24,3a4.61,4.61,0,0,1,1.43-.54l1.55-.34a1.15,1.15,0,0,1,.34,1.09,1.1,1.1,0,0,0,.34,1.09.6.6,0,0,0,.33-.67c-.06-.28-.13-.57-.21-.88a2.13,2.13,0,0,1-.08-.8c0-.22.21-.39.54-.5a12.66,12.66,0,0,1,1.94,1.85l1.59,2q.68-.58.42-1a4.29,4.29,0,0,0-.76-.84c-.33-.31-.67-.63-1-1a1.24,1.24,0,0,1-.25-1.34c1.34-.12,2.93-.17,4.78-.17a40.71,40.71,0,0,1,5.59.38,25.89,25.89,0,0,1,5.29,1.26,8,8,0,0,1,3.82,2.64V7.48a1.19,1.19,0,0,0,.3.88,4.71,4.71,0,0,0,.63.54,5,5,0,0,1,.63.59,1.4,1.4,0,0,1,.29.93,1.85,1.85,0,0,1-.75,0c-.34-.06-.71-.12-1.1-.17a2.82,2.82,0,0,0-1.09,0A1.36,1.36,0,0,0,175,11a4.34,4.34,0,0,0,2.69.59,7.65,7.65,0,0,0,2.1-1.17q.26.24.21.42a.76.76,0,0,1-.21.33l-.38.38a1.09,1.09,0,0,0-.29.46,4.83,4.83,0,0,1,.92.84,1.45,1.45,0,0,0,1.34.42,3.12,3.12,0,0,0,.26,2.52,15.28,15.28,0,0,1,1,2.52.49.49,0,0,1-.33.34,1.41,1.41,0,0,1-.59,0,2.26,2.26,0,0,1-.63-.17,1.2,1.2,0,0,1-.38-.21,2.85,2.85,0,0,1-1.93,1.18,10.43,10.43,0,0,1-2.44,0c-.83-.08-1.69-.14-2.56-.17a4.21,4.21,0,0,0-2.31.55,23.68,23.68,0,0,1-2-2.48,14.28,14.28,0,0,0-2.1-2.35,9.22,9.22,0,0,0-2.78-1.68,8.88,8.88,0,0,0-3.94-.46,4.34,4.34,0,0,0-1.77.54,8.14,8.14,0,0,1-1.76.72c-.28-.06-.41-.17-.38-.34a3,3,0,0,1,.17-.59,4.45,4.45,0,0,0,.17-.54c0-.14,0-.19-.21-.13a10,10,0,0,0-2.44,5,43.81,43.81,0,0,0-.76,5.88l-3.15.67a14.31,14.31,0,0,1-3,.33,8.91,8.91,0,0,1-2.64-.37A4,4,0,0,1,142.8,22.51Zm-1,9.83c-.06-.39,0-.64.21-.76s.24-.39.13-.84h-1.6a1.42,1.42,0,0,0,.38,1.1A2.55,2.55,0,0,0,141.79,32.34Zm1.34-9.83a6.3,6.3,0,0,1-.29-1.59,14.45,14.45,0,0,0-.17-1.64,4.06,4.06,0,0,0-.46-1.39,1.88,1.88,0,0,0-1-.84,17,17,0,0,0,.05,2.65c.08.92.18,1.86.29,2.81a.82.82,0,0,0,.54,0,2.7,2.7,0,0,0,.38-.17.75.75,0,0,1,.3-.08C142.84,22.26,143,22.34,143.13,22.51Zm0,14a2,2,0,0,1-.33,1.26,3.66,3.66,0,0,0,1.64-.38c.3-.19.71-.07,1.21.38a2.53,2.53,0,0,1,2.1-1.43,6.81,6.81,0,0,1,3,.17,1.5,1.5,0,0,0,.21-1.85,2.09,2.09,0,0,0-1.81-1.09,1.09,1.09,0,0,0-.38,1c0,.42,0,.85,0,1.3a19.19,19.19,0,0,0-2.69.5A8.58,8.58,0,0,1,143.13,36.54Zm1.52,13.36c-.17,1.34.36,2,1.59,1.93a1.3,1.3,0,0,1,.26-.88,1.28,1.28,0,0,0,.08-1.05c-.51-.17-.8-.21-.88-.13A2.3,2.3,0,0,1,144.65,49.9Zm1-28.06a1.41,1.41,0,0,1,.26-.55.9.9,0,0,0,.08-.71h-1C144.87,21.36,145.09,21.78,145.65,21.84Zm2.86,24.86q-.09,1.09,1.26.93c.11-.9-.2-1.32-.92-1.26C148.85,46.65,148.73,46.76,148.51,46.7ZM151,21.25c.11-.95-.2-1.4-.92-1.34C150,20.86,150.3,21.31,151,21.25Zm.67-15.62a.79.79,0,0,0,.17-1c-.17-.36-.53-.49-1.09-.38C150.67,5.24,151,5.68,151.7,5.63ZM152,51.16a1.52,1.52,0,0,0-.55,1.17,2,2,0,0,0,.42,1.09,3,3,0,0,0,1,.84,3.48,3.48,0,0,0,1.3.42,1.91,1.91,0,0,0,.63-1.21,1.67,1.67,0,0,0-.33-1.14,3.09,3.09,0,0,0-1.05-.84A3.22,3.22,0,0,0,152,51.16Zm.92-16H151.7c-.11.61.1.92.63.92S153.07,35.81,153,35.2Zm0-18.74a.54.54,0,0,1,.67-.33c.12-.67,0-1.07-.42-1.18a4.17,4.17,0,0,0-1.51-.08Q151.63,16.39,153,16.46ZM151.7,50.57c.45,0,.69-.13.72-.55a3,3,0,0,1,.21-1.05h-.93Zm.68-10.25H153c0-.45.07-.69.21-.71s.07-.21-.21-.55h-.58c-.29.34-.36.52-.21.55S152.38,39.87,152.38,40.32ZM154,10.42l.93-.34a1,1,0,0,0,.58-.67.68.68,0,0,0-1-.13A1.09,1.09,0,0,0,154,10.42Zm1.51,2.52a1.35,1.35,0,0,0,.51-1.31,1.4,1.4,0,0,0-.76-1.21,2,2,0,0,1,0,.84A5.7,5.7,0,0,1,155,12a1.18,1.18,0,0,0-.08.59C155,12.77,155.15,12.88,155.48,12.94Zm.34,42.67a1.23,1.23,0,0,1,.67-.21.53.53,0,0,1,.29.21A1.57,1.57,0,0,1,157,56a.52.52,0,0,0,.42.29c.11-.22.2-.45.29-.67a2,2,0,0,0,0-.93c-.45,0-.91,0-1.39,0S155.71,55.05,155.82,55.61Zm5.79-50a1.47,1.47,0,0,0,.09.5c.05.17.22.2.5.09a.78.78,0,0,0,0-.76,1.58,1.58,0,0,0-.55-.42l-.79-.38A2.12,2.12,0,0,1,160,4a1.77,1.77,0,0,0,.29,1.56C160.62,5.89,161.05,5.91,161.61,5.63Zm-.33,56c.5.11.82,0,1-.26a3.7,3.7,0,0,0,.29-1,1.34,1.34,0,0,1-.55-.26.9.9,0,0,0-.71-.08c-.11.5-.17.78-.17.84A7.72,7.72,0,0,0,161.28,61.66Zm1.93-52.25a.33.33,0,0,0,.5-.13,1.41,1.41,0,0,0,0-1.34.33.33,0,0,0-.5-.13Zm1.26-.59c-.06.73.36,1,1.26.92.11-.89-.2-1.31-.92-1.26C164.69,8.71,164.58,8.82,164.47,8.82ZM165.73,4c-.11.45,0,.7.29.76s.41.33.3.84c.56-.34.87-.48.92-.42a6.86,6.86,0,0,0,1,.42c.5-.62.5-1.08,0-1.39A10.43,10.43,0,0,1,167,3.36a3.39,3.39,0,0,0-.38,1S166.35,4.31,165.73,4Zm.34,3.19a3.33,3.33,0,0,0,.63,1.89,3.54,3.54,0,0,1,.63,1.89,1,1,0,0,0,.67,0,4.45,4.45,0,0,1,.54-.17.34.34,0,0,1,.34.13,1.18,1.18,0,0,1,0,.76,5,5,0,0,0,1-.42l.92-.59A4,4,0,0,1,168.46,9a11.94,11.94,0,0,1-1.13-2.44c0,.23,0,.34-.13.34a3.22,3.22,0,0,1-.5,0,1.45,1.45,0,0,0-.51,0C166.05,6.88,166,7,166.07,7.22Zm.25,46.2.71.34c.37.17.58.06.63-.34a.26.26,0,0,1-.29-.21,2.19,2.19,0,0,1,0-.46.54.54,0,0,0-.13-.38c-.08-.08-.27-.07-.55.05a1.72,1.72,0,0,1-.08.63A1.15,1.15,0,0,1,166.32,53.42Zm2.6-39.22a2,2,0,0,0,1.26-.51,2.88,2.88,0,0,0,.67-1.09C169.4,12.32,168.75,12.85,168.92,14.2Zm2.19-8q.24-1.51-1.26-1.26Q169.6,6.46,171.11,6.22Zm-.59,9.24a4.81,4.81,0,0,0,.92.71c.34.2.45.6.34,1.22-.28.17-.51.18-.67,0s-.33-.26-.46-.38a1.65,1.65,0,0,0-.34-.21c-.08,0-.13.16-.13.55a1.54,1.54,0,0,0,1.26.88,4.36,4.36,0,0,0,2.27-.21,3.82,3.82,0,0,1-.67-1,10.06,10.06,0,0,0-.72-1.22,2.1,2.1,0,0,0-.84-.75C171.18,14.94,170.85,15.06,170.52,15.46Zm2.18,39.81a1,1,0,0,0,.63-1.17,1.08,1.08,0,0,0-.88-1c-.11,0-.21.22-.29.5a4.17,4.17,0,0,0-.17.84,1.2,1.2,0,0,0,.12.72C172.23,55.34,172.42,55.38,172.7,55.27Zm1.35-46.79a.61.61,0,0,0,.63-.16.59.59,0,0,1,.63-.17c.11-.9-.23-1.32-1-1.26q.07.59-.21.75C173.89,7.76,173.88,8,174.05,8.48Zm5,22a1.42,1.42,0,0,0-1.31-.17,2,2,0,0,1-1.55-.16.57.57,0,0,0,.29.75,2.52,2.52,0,0,0,1,.3,2.33,2.33,0,0,0,1.05-.17C178.92,30.9,179.09,30.72,179.09,30.49ZM179.42,49q.51-.75.3-1.17A2,2,0,0,0,179,47a7.66,7.66,0,0,0-1.05-.59,1.79,1.79,0,0,1-.8-.67.86.86,0,0,0,0,.88,4.23,4.23,0,0,0,.68.76c.28.25.57.5.88.75A3.24,3.24,0,0,1,179.42,49Zm-.92-8a1.5,1.5,0,0,1,.54.25.92.92,0,0,0,.72.09v-1C179,40.21,178.55,40.43,178.5,41Zm.25,12.77a.68.68,0,0,0,.67-.17,1,1,0,0,0,.3-.54,1,1,0,0,0-.13-.59.54.54,0,0,0-.5-.3A2.35,2.35,0,0,0,178.75,53.76Zm0-47.21a14.47,14.47,0,0,1,7.65,10.5c-.57.12-.94.07-1.14-.12a2.2,2.2,0,0,0-.71-.47q-.42,0-.42.21a1.13,1.13,0,0,0,.12.47,4.08,4.08,0,0,1,.21.42c.06.11,0,.16-.25.16A8.55,8.55,0,0,1,182.78,15a5.44,5.44,0,0,1-.17-2.94,1.2,1.2,0,0,0-.25-1.13,8.1,8.1,0,0,0-1.09-1.14c-.45-.39-.91-.84-1.39-1.34A5.6,5.6,0,0,1,178.75,6.55Zm3.19,35v-.92a1.93,1.93,0,0,0-.84.21C181,41,181,40.66,181,40h-.93a1.16,1.16,0,0,0,.59,1.14A6.28,6.28,0,0,0,181.94,41.58Zm1.35,4.2c-.23,0-.37-.05-.42-.17a2.7,2.7,0,0,1-.17-.38,1.88,1.88,0,0,0-.21-.37c-.09-.12-.27-.14-.55-.09a.9.9,0,0,0,.34,1.22C182.73,46.3,183.06,46.23,183.29,45.78ZM187.07,19a12.25,12.25,0,0,0-.13,2.4c0,.87.07,1.75.13,2.64s.09,1.77.12,2.61a11.62,11.62,0,0,1-.12,2.27,4.85,4.85,0,0,0-1.81-.93,15.1,15.1,0,0,0-1.72-.08,4.23,4.23,0,0,1,.5-2.23,7.49,7.49,0,0,0,.84-1.89c-.11-.56-.24-1.16-.38-1.8a6.65,6.65,0,0,1-.16-1.77A1.35,1.35,0,0,1,185,19,2.93,2.93,0,0,1,187.07,19Zm-.67,10.17c.61.33.89.73.83,1.17s-.11,1-.16,1.77a1.74,1.74,0,0,1-1.85-.63,1.57,1.57,0,0,1-.09-1.64,4.65,4.65,0,0,1,1,.25C186.42,30.19,186.51,29.88,186.4,29.15Z"/><path class="cls-1" d="M221.25.34a5.63,5.63,0,0,1,1,1.72,7,7,0,0,1,.34,1.85c0,.64.05,1.3.08,2a20.17,20.17,0,0,0,.21,2.1,22.88,22.88,0,0,0,1,3.49,36,36,0,0,1,1.1,3.48,17.49,17.49,0,0,1,.54,3.61,9,9,0,0,1-.67,3.78,4.43,4.43,0,0,1,1.64,2.44,22.94,22.94,0,0,1,.71,3.36c.17,1.18.38,2.31.63,3.4a4.6,4.6,0,0,0,1.47,2.56q1.85-6.21,4.12-12t4.2-11.88a2.07,2.07,0,0,1,1.09-.25,1.25,1.25,0,0,0,1.09-.76,4.12,4.12,0,0,1-.5-2,8.36,8.36,0,0,1,.25-2.06,19.55,19.55,0,0,1,.63-2c.25-.67.46-1.31.63-1.93,1.79.11,3.67.27,5.63.46a20.52,20.52,0,0,0,5.46-.12A33.54,33.54,0,0,1,253.51,9,39.35,39.35,0,0,0,255,16.3a9.79,9.79,0,0,0,.84,1.76,7,7,0,0,1,.76,1.76c.39,1.29.75,2.6,1.09,3.91s.67,2.63,1,3.95.71,2.59,1.13,3.82a24.9,24.9,0,0,0,1.56,3.61,30.08,30.08,0,0,0,2.31-6.42q.79-3.4,1.55-6.85c.5-2.3,1.08-4.54,1.72-6.72A24.83,24.83,0,0,1,269.72,9a1.69,1.69,0,0,1,1.6.59,3.09,3.09,0,0,0,1.26,1q.59-.24.33-1.05c-.16-.53-.39-.82-.67-.88a11.07,11.07,0,0,0,1.09-.54,1.12,1.12,0,0,0,.51-1,3.83,3.83,0,0,0-.88.08,6.68,6.68,0,0,1-.8.13,8.45,8.45,0,0,1-1,0,12.69,12.69,0,0,1-1.43-.21,1.83,1.83,0,0,1,.3-.93.74.74,0,0,1,.5-.29,2.78,2.78,0,0,0,.59-.17,1.24,1.24,0,0,0,.54-.55.64.64,0,0,0-.21-.67,3,3,0,0,0-.63-.42,1.4,1.4,0,0,1-.46-.33c-.08-.12,0-.28.3-.51a4.6,4.6,0,0,1,2-.71,11.31,11.31,0,0,1,2.27,0l2.48.16a17.66,17.66,0,0,0,2.52,0c.11.51.05.86-.17,1s-.28.58-.17,1.14a.84.84,0,0,0,.92-.63,4.75,4.75,0,0,0,.09-1.56,1.4,1.4,0,0,0,1.09.09c.45-.11.92-.23,1.43-.34a7,7,0,0,1,1.51-.17,2.25,2.25,0,0,1,1.34.42q-2.1,6.14-3.61,12.31t-3.7,13.15a1.86,1.86,0,0,1-1.34-.26,1.86,1.86,0,0,0-1.18-.33q-.75,1.17.21,1.59a8.47,8.47,0,0,0,2,.59,8,8,0,0,1-.84,2.48,12.71,12.71,0,0,1-1.35,2,50,50,0,0,1-1.59,7.73q-1.1,3.78-2.39,7.52c-.87,2.49-1.76,5-2.65,7.48s-1.68,5-2.35,7.6c-1.74-.12-3.57-.18-5.5-.21s-4.14-.07-6.6-.13a57.54,57.54,0,0,0-2.1-5.37,36.42,36.42,0,0,1-2-5.8,4.68,4.68,0,0,1-.17-1.81,4.33,4.33,0,0,0-.17-1.72,1.64,1.64,0,0,0-.63-.92,1.63,1.63,0,0,1-.63-.93,22.4,22.4,0,0,1-1.09-4.41q-.34-2.31-.84-4.32a11,11,0,0,0-1.47-3.45,4.55,4.55,0,0,0-3-1.84,1.18,1.18,0,0,0,.16.71,1.93,1.93,0,0,0,.42.38A3.4,3.4,0,0,1,244,35a1,1,0,0,1,.21.71q-2.28,7-5.13,14t-5.37,14.4a12.26,12.26,0,0,1-2.57.3c-1,0-2.11,0-3.23,0l-3.28-.16c-1.06-.06-2-.09-2.68-.09q-3.19-10.5-5.59-21t-5-20.41a.52.52,0,0,1,.59-.42c.34,0,.47-.2.42-.59s-.07-.4-.21-.38a1,1,0,0,0-.38.17,2.86,2.86,0,0,1-.29.21c-.09.06-.13,0-.13-.25q-1.43-5.62-2.64-10.75T205.63,0c1.34,0,2.62,0,3.82.08s2.41.1,3.61.13l3.78.08C218.16.32,219.63.34,221.25.34Zm-12.43,8h1.26c.11-.56,0-.9-.25-1a4.26,4.26,0,0,0-1-.25Zm1.93,3.19c.51.11.83.05,1-.17a1.28,1.28,0,0,1,.63-.5,1.42,1.42,0,0,0,.5,1,4.9,4.9,0,0,0,.93.59l1,.51a1.65,1.65,0,0,1,.75.75,5.93,5.93,0,0,0-1.13.09.52.52,0,0,0-.46.58c.22.06.33.29.33.68a1.3,1.3,0,0,1,1.55.16,16.59,16.59,0,0,0,1.31,1.1c.05-.56.47-.79,1.26-.68a1.68,1.68,0,0,1,.16,1,3.21,3.21,0,0,0,.17,1.3,1.87,1.87,0,0,1,1,.42,8,8,0,0,1,.71.72,9.63,9.63,0,0,0,.72.71,1.54,1.54,0,0,0,1.05.34,1.75,1.75,0,0,0,.17-1,3.75,3.75,0,0,1,.16-1.47.72.72,0,0,0-.63,0,2.51,2.51,0,0,0-.42.34,2.23,2.23,0,0,1-.33.29c-.09.06-.16,0-.21-.25a1.94,1.94,0,0,0,0-1.59,5.09,5.09,0,0,0-.76-.89,5,5,0,0,1-.75-.84,1.74,1.74,0,0,1-.09-1.47,2.21,2.21,0,0,1-1.72.55,5.21,5.21,0,0,0-1.72,0,8.29,8.29,0,0,0-2-2.77c-.81-.73-1.66-1.48-2.56-2.27a2.16,2.16,0,0,1,.21.93,1.12,1.12,0,0,1-.25.5,3.58,3.58,0,0,0-.38.55A1.82,1.82,0,0,0,210.75,11.51ZM214,4.45a1.7,1.7,0,0,0-1.6-1.85A1.62,1.62,0,0,0,214,4.45Zm-.34,13.78,1.51.84a6.43,6.43,0,0,1,1.35,1,2.7,2.7,0,0,0-.21.92.76.76,0,0,1-.38.67q-.51.16-.63,0a1.18,1.18,0,0,1-.21-.42,1.64,1.64,0,0,0-.21-.42c-.09-.11-.27-.14-.55-.08V22a6.32,6.32,0,0,1,3.19,1.26q.25-.76.72-.84a2.29,2.29,0,0,1,1.09.12,8.87,8.87,0,0,1,1.34.59,4,4,0,0,0,1.31.46c-.06-.61-.05-1,0-1.05s.38,0,.88.13a1.74,1.74,0,0,0-.71-1.05,3.17,3.17,0,0,0-1.31-.5,4.1,4.1,0,0,0-2.77.54,2,2,0,0,0-.38-1.26c-.25-.33-.5-.66-.75-1a3.94,3.94,0,0,1-.59-1,1.57,1.57,0,0,1,.13-1.26,2.34,2.34,0,0,1-1.73.42A.91.91,0,0,0,213.61,18.23Zm2.52,6.3V23.27a.74.74,0,0,0-.67.12.64.64,0,0,0,0,1A.78.78,0,0,0,216.13,24.53Zm-.59,2.6a1,1,0,0,1,1-.25,7.17,7.17,0,0,0,.92.25,2.09,2.09,0,0,1-.25-1.05.94.94,0,0,0-.42-.88.64.64,0,0,1-.33.55l-.68.42a2,2,0,0,0-.5.42C215.18,26.73,215.26,26.91,215.54,27.13Zm1.6-14.36c1.34.17,2-.37,1.93-1.6a1.26,1.26,0,0,0-1.6-.17Q216.72,11.51,217.14,12.77Zm1.26-2.52a5.55,5.55,0,0,0,1-.09.63.63,0,0,0,.54-.58,1.16,1.16,0,0,0-1.09-.3C218.45,9.37,218.28,9.69,218.4,10.25Zm.67,19.4c-.11-.33-.13-.56,0-.67a1,1,0,0,1,.33-.29,2.06,2.06,0,0,1,.42-.21q.21-.09.21-.42c-.33.11-.53.11-.58,0a.77.77,0,0,1,0-.47,3.5,3.5,0,0,0,0-.54c0-.17-.12-.25-.34-.25a11.25,11.25,0,0,0-.63,1.51A1,1,0,0,0,219.07,29.65Zm2.18,17.56c.79,0,1.18-.27,1.18-.8a1.16,1.16,0,0,0-.84-1.13c-.23.45-.38.77-.46,1A1.38,1.38,0,0,0,221.25,47.21Zm0-31.59c.23.06.34.28.34.68a3.41,3.41,0,0,1,1.18-.47,4.72,4.72,0,0,0,1-.21c-.05-.39-.18-.63-.37-.71a1.1,1.1,0,0,0-.68,0,2.62,2.62,0,0,0-.79.33ZM236,38.56h.93c.11-.79-.12-1.21-.67-1.26a1.51,1.51,0,0,1-.26.54Q235.79,38.05,236,38.56Zm1.26-21.68c0,.34,0,.73,0,1.18a3.33,3.33,0,0,0,.33,1.3,3,3,0,0,0,.8,1.05,1.77,1.77,0,0,0,1.34.34,2.78,2.78,0,0,0,.26-1.09c0-.34,0-.68-.05-1s-.05-.67-.08-1a1.85,1.85,0,0,1,.21-1,.56.56,0,0,1-.42-.25c-.06-.11-.23-.14-.5-.08q-.26.91-.63.84Zm.93,10.25a2.72,2.72,0,0,0,.71,1.09c.31.28.6.56.88.84a2.38,2.38,0,0,0,0-1.26c-.11-.28-.22-.61-.33-1A2,2,0,0,0,238.14,27.13Zm1.93-11.51h1.26V14.36a1,1,0,0,0-.71-.33.82.82,0,0,0-.63.25,1,1,0,0,0-.3.63A.8.8,0,0,0,240.07,15.62Zm.34,15.63a.61.61,0,0,0,.54-.34,2.27,2.27,0,0,0,.3-.75,3.38,3.38,0,0,0,0-.84.75.75,0,0,0-.3-.59.89.89,0,0,0-.63.92A9.67,9.67,0,0,0,240.41,31.25Zm.92-18.82q-.42.77.63,1.26a7.87,7.87,0,0,0,1.89.67,2.07,2.07,0,0,0,.34-1.59c-.4-.17-.86-.35-1.39-.55A1.5,1.5,0,0,0,241.33,12.43Zm.67-2.18a.94.94,0,0,0,.55-.42,3.13,3.13,0,0,0,.33-.72,3.57,3.57,0,0,1,.34-.71,1,1,0,0,1,.63-.42,1.66,1.66,0,0,0-1.6-1.6,2.15,2.15,0,0,0-.25,1,5.62,5.62,0,0,0,.08.92,9.47,9.47,0,0,1,.13,1A1.85,1.85,0,0,1,242,10.25Zm1.26,7.64a2.83,2.83,0,0,0,.09,1.56q.24.63,1.17.63a1.28,1.28,0,0,1,.38-1,2,2,0,0,1,.88-.46,6.22,6.22,0,0,1,1.14-.17,4.83,4.83,0,0,0,1.13-.21v-1.6c-1,.28-1.72.48-2.31.59A24,24,0,0,0,243.26,17.89Zm.93-6.38,1.13-.34c.36-.11.52-.42.46-.92-.22-.06-.33-.28-.33-.67h-1.6c0,.39,0,.75,0,1.09A1.63,1.63,0,0,0,244.19,11.51Zm.67,2.52v.67c.22,0,.33.11.33.34h.59c0-.28.11-.39.34-.34V14a.3.3,0,0,1-.34-.34h-.59C245.08,14,245,14.08,244.86,14Zm1.59-8.91V6.38a1.8,1.8,0,0,0,.8.34,1.92,1.92,0,0,1,.8.34V4.79A2.34,2.34,0,0,0,246.45,5.12Zm1.94,21c.44.4.72.58.84.55a3.31,3.31,0,0,1,1,.13,1.16,1.16,0,0,0,.34-1.22,11.76,11.76,0,0,0-.34-1.3c-.78-.17-1.31-.09-1.59.25A1.94,1.94,0,0,0,248.39,26.12ZM250,16c.06-.73-.39-1-1.34-.92a1.42,1.42,0,0,0,.5,1A.56.56,0,0,0,250,16Zm1.26,6.38a3.24,3.24,0,0,0,0-2.52,1.44,1.44,0,0,0-1.39.17,1.35,1.35,0,0,0-.46,1,1.48,1.48,0,0,0,.46,1.05A1.46,1.46,0,0,0,251.24,22.34Zm-.33-4.11a6.08,6.08,0,0,0,.21-1.05c0-.31-.27-.49-.89-.55a1.19,1.19,0,0,0-.25.46.86.86,0,0,0,0,.55,1.19,1.19,0,0,0,.29.46A.69.69,0,0,0,250.91,18.23Zm.67-3.53h-1.35a.78.78,0,0,0,.13.67.72.72,0,0,0,1.09,0A.78.78,0,0,0,251.58,14.7Zm-.34,17.81a2.37,2.37,0,0,0,.59-1.85,2.24,2.24,0,0,0-1.6-.34,13.34,13.34,0,0,1,.09,1.56C250.32,32.41,250.62,32.62,251.24,32.51Zm0-21a8.11,8.11,0,0,1,.93-1.09,7,7,0,0,0,.92-1.18,2.52,2.52,0,0,0-1.18.13A2.17,2.17,0,0,0,251,10a1.18,1.18,0,0,0-.34.8C250.65,11,250.85,11.28,251.24,11.51Zm-.33,30.57c-.12.62,0,1,.29,1.18a1.88,1.88,0,0,0,1.3.08c.11-.78,0-1.26-.33-1.42A1.32,1.32,0,0,0,250.91,42.08Zm.92-34.69a2.71,2.71,0,0,0,.17-1.3,1.27,1.27,0,0,0-.76-1c.06.45.11.87.17,1.26A1.92,1.92,0,0,0,251.83,7.39Zm4.79,42a.51.51,0,0,1-.46-.5c0-.28-.3-.31-.8-.09v1.26a3,3,0,0,1,1.17-.08c.17.06.31.39.42,1a3,3,0,0,1,.63-.13,2.34,2.34,0,0,0,.68-.17,1.21,1.21,0,0,0,.46-.33,1,1,0,0,0,.17-.63,1.17,1.17,0,0,1-.63-.46,3.29,3.29,0,0,1-.47-.8l-.29-.72c-.08-.19-.16-.26-.21-.21a2,2,0,0,0-.25,1.05C257,49,256.9,49.28,256.62,49.39Zm2.27,2.27a1.82,1.82,0,0,1,.84.59,1.12,1.12,0,0,0,1.09.33,1.89,1.89,0,0,0,.12-.75,4.43,4.43,0,0,1,.13-1.09,2.19,2.19,0,0,0-1.6-.34l-.29.59C259.1,51.16,259,51.38,258.89,51.66ZM260.15,59q1.34.16,1.26-.93-.35,0-.42-.21t-.51-.12a1.17,1.17,0,0,1-.29.54C260.05,58.39,260,58.63,260.15,59Zm.92,4.45V62.16h-.92a2.54,2.54,0,0,0,0,1.09C260.27,63.53,260.56,63.59,261.07,63.42Zm-.92-8.57a2,2,0,0,0,1.26,1.26,1.38,1.38,0,0,0,.54-1.47,1.56,1.56,0,0,0-.88-1.38,2.13,2.13,0,0,1-.63.67A.88.88,0,0,0,260.15,54.85ZM263,52.58a3.19,3.19,0,0,0,1.09-1.13c.28-.47.56-.94.84-1.39a1,1,0,0,0-1-.67,1.56,1.56,0,0,1-.42.76,3.9,3.9,0,0,0-.59.71,2.25,2.25,0,0,0-.34.8A1.06,1.06,0,0,0,263,52.58Zm-.33-11.42a7.2,7.2,0,0,0,1.13-.08.53.53,0,0,0,.46-.59c-.28-.06-.43-.27-.46-.63s-.29-.46-.8-.3c.06.4,0,.65-.21.76S262.55,40.71,262.67,41.16Zm1.93,13c.61.11.92-.1.92-.63s-.31-.74-.92-.63c0,.45-.07.7-.21.76S264.32,53.9,264.6,54.18Zm.33-7a1.29,1.29,0,0,0,1.26-.63,3.41,3.41,0,0,0,.34-1.64c-.73-.11-1.18.08-1.34.59A5.2,5.2,0,0,0,264.93,47.21Zm1.26-3.53a3.13,3.13,0,0,0,.8-1.13,1.21,1.21,0,0,0-.12-1.39.89.89,0,0,0-.72.38,3.07,3.07,0,0,0-.46.8,1.52,1.52,0,0,0-.09.84A.64.64,0,0,0,266.19,43.68Zm.34-6.38c.45.05.7-.07.76-.38s.11-.6.16-.88q-.33,0-.42-.21c0-.14-.22-.18-.5-.13-.28.28-.34.49-.17.63S266.58,36.79,266.53,37.3Zm2.86-10.17a2.52,2.52,0,0,1-.89-.25c-.19-.11-.43,0-.71.25a9.31,9.31,0,0,1,.08,2.14,6.6,6.6,0,0,1-.75,2.31c.72-.39,1.27-.42,1.64-.08a3.73,3.73,0,0,1,.88,1.39l.71,1.84a2.16,2.16,0,0,0,1.3,1.31c.34-.34.39-.62.17-.84a1.17,1.17,0,0,1-.17-1.1h1.85a1,1,0,0,0,.38-.92c0-.39,0-.81,0-1.26-.62.22-1,.22-1.22,0a1.63,1.63,0,0,1-.38-.84,3.3,3.3,0,0,0-.29-.92c-.14-.28-.46-.34-1-.17a1.28,1.28,0,0,0,.08,1.05,1.3,1.3,0,0,1,.26.88c-.17.22-.33.45-.47.67s-.4.31-.79.25a5.85,5.85,0,0,0,.12-1.51c0-.45-.07-.89-.12-1.34a.64.64,0,0,0-.59.08l-.29.3a.63.63,0,0,1-.3.16q-.17,0-.42-.21a.34.34,0,0,0,.25-.37v-.63a3.33,3.33,0,0,1,.05-.59.39.39,0,0,1,.29-.34,3.43,3.43,0,0,1,1,.3,2,2,0,0,0,1.26,0,1.83,1.83,0,0,1,.33-1,1.66,1.66,0,0,0-.75-.38,1.7,1.7,0,0,1-.59-.17.47.47,0,0,1-.29-.37,1.82,1.82,0,0,1,.29-.93q-.58.35-.84.21a1.14,1.14,0,0,1-.42-.33,1.82,1.82,0,0,0-.34-.34c-.11-.08-.31,0-.59.13-.05.28,0,.46.17.54a1.68,1.68,0,0,0,.55.17,1.07,1.07,0,0,1,.5.21C269.48,26.57,269.5,26.8,269.39,27.13Zm-2.27,14a.88.88,0,0,0,.42.08c.17,0,.25.09.25.26a1.21,1.21,0,0,0,1.26-1.35,1.51,1.51,0,0,0-.93-.92,5.18,5.18,0,0,0-.71,1A7.71,7.71,0,0,0,267.12,41.16Zm.33-20.41q.58.59,1.05.42a.82.82,0,0,1,.89.25c-.12.39-.21.81-.3,1.26a1.16,1.16,0,0,1-.63.92.68.68,0,0,0,.8,0,2,2,0,0,0,.5-.79A4.41,4.41,0,0,0,270,21.5c0-.5,0-1,0-1.42a4.25,4.25,0,0,0-1.64-.51C267.83,19.52,267.51,19.91,267.45,20.75Zm2.27,18.14a3.91,3.91,0,0,0,1.22-.17c.36-.11.49-.47.38-1.09C270.25,37.58,269.72,38,269.72,38.89Zm.93-20.66c.44-1.12.78-2,1-2.69a16.19,16.19,0,0,0,.59-2.77,2.34,2.34,0,0,0-1.22,1,4.42,4.42,0,0,0-.63,1.56,5.35,5.35,0,0,0-.08,1.64A3.67,3.67,0,0,0,270.65,18.23Zm.33,5.71a.55.55,0,0,1,.67-.34,1.8,1.8,0,0,1-.5-1.13,7.2,7.2,0,0,1,.08-1c.06-.34.1-.64.13-.92a.68.68,0,0,0-.38-.68,1.88,1.88,0,0,0-.63,2A6.51,6.51,0,0,0,271,23.94Zm-.33,2.52a4.42,4.42,0,0,0,1.42.67c.45.12.73.65.84,1.6.51.11.8,0,.88-.38a3.48,3.48,0,0,0,0-1.22A1,1,0,0,1,273,27a3.44,3.44,0,0,1-.63-.58,6,6,0,0,0-.72-.68,2.85,2.85,0,0,0-1-.5Zm1.59-3.19a.55.55,0,0,1,.34.67,3.28,3.28,0,0,0,1.55-.17,1,1,0,0,0,.63-1.09,1.2,1.2,0,0,0-.59-.8,1.17,1.17,0,0,0-.88-.08,1.62,1.62,0,0,0-.8.5A1.15,1.15,0,0,0,272.24,23.27Zm3.19,12.09a2.61,2.61,0,0,0-.33-1.59h-.93a1.83,1.83,0,0,0,0,1.55C274.4,35.63,274.82,35.65,275.43,35.36Zm-1.26-9.49a4,4,0,0,0,.3,1,1.14,1.14,0,0,0,.63.63,8.86,8.86,0,0,0,.75-.84c.17-.23.14-.59-.08-1.09A2,2,0,0,0,274.17,25.87ZM277,24.53c.17-1.29.38-2.52.63-3.7a7.08,7.08,0,0,1,1.3-2.94,1.76,1.76,0,0,0-1.09-.5l-1.51-.17a12.53,12.53,0,0,0-.42,3.91A5.91,5.91,0,0,0,277,24.53Zm0-10.84a2.08,2.08,0,0,1,.71.46,1,1,0,0,0,.88.21,1.26,1.26,0,0,0,.34-1,1.3,1.3,0,0,0-.34-1h-.92a3.48,3.48,0,0,1-.33.67A4.59,4.59,0,0,0,277,13.69Zm2.86-1.26a.45.45,0,0,1,.42-.5c.27-.06.36-.31.25-.76a1.83,1.83,0,0,1-1-.33,1.14,1.14,0,0,0-.29,1A.57.57,0,0,0,279.89,12.43Z"/><path class="cls-1" d="M299.54,15.62c.11.4.24.62.38.68a.88.88,0,0,0,.46,0,1.85,1.85,0,0,0,.5-.17.56.56,0,0,1,.59.13,7.71,7.71,0,0,0-.21,2c0,.56.06,1.09.09,1.6s0,1,0,1.51a9,9,0,0,1-.25,1.85c-.45-.11-.61-.34-.47-.67s.07-.54-.21-.59a7.76,7.76,0,0,1-.25,2.52,7.9,7.9,0,0,1-1,2.39,5.43,5.43,0,0,1-1.72,1.72,3.17,3.17,0,0,1-2.39.42c-.11.34-.13.56,0,.68a1,1,0,0,0,.33.29,1.21,1.21,0,0,1,.34.29c.08.12.07.34,0,.68-.34.33-.62.32-.84-.05a1.34,1.34,0,0,0-1-.63,1.44,1.44,0,0,0-.09,1.89,8.3,8.3,0,0,1,1,1.64.94.94,0,0,1-1,.55c-.39-.09-.81-.18-1.26-.3a2,2,0,0,0-1.09,1.26,7.45,7.45,0,0,0-.29,1.81q0,1,0,1.89a2.92,2.92,0,0,1-.21,1.43,3.22,3.22,0,0,1-2.61-1.14,6.06,6.06,0,0,1-1-2.68,18.88,18.88,0,0,1-.17-3.7c.05-1.37.05-2.78,0-4.24-.11-2.52-.25-5-.42-7.39s-.25-4.51-.25-6.3a.78.78,0,0,1,.92-.21c.34.14.67,0,1-.47a.74.74,0,0,0-.55-.29l-.75-.08a.85.85,0,0,1-.59-.3c-.14-.17-.16-.47,0-.92q.24-.25.42-.21a.58.58,0,0,1,.29.17l.29.29a.64.64,0,0,0,.59.08,1.15,1.15,0,0,0-.63-.79c-.31-.14-.63-.3-1-.47a2.49,2.49,0,0,0,0-.79c0-.31-.06-.61-.09-.89a1.24,1.24,0,0,1,.09-.67c.08-.17.29-.22.63-.17a3.06,3.06,0,0,1-.8-1.63,9.86,9.86,0,0,1-.08-1.81c0-.62.07-1.25.12-1.89a6.45,6.45,0,0,0-.17-2.06q2.35.09,5,.42c1.8.23,3.63.46,5.51.72s3.8.46,5.79.63a53.4,53.4,0,0,0,5.92.16A12.15,12.15,0,0,1,308.53,7c-.11.93-.79,1.47-2,1.64a1.22,1.22,0,0,0,.09,1,1.38,1.38,0,0,1,.25.88,1.11,1.11,0,0,1-.93.3c-.39,0-.81,0-1.26,0a2.77,2.77,0,0,1-.33,1.89,5.37,5.37,0,0,1-1.3,1.51,7.19,7.19,0,0,1-1.77,1A4.81,4.81,0,0,1,299.54,15.62ZM289,18.23a.94.94,0,0,0-.34-1,.92.92,0,0,1-.33-1,1.55,1.55,0,0,1-1,0c-.45-.12-.64,0-.59.33a1.4,1.4,0,0,1,1.05.84A1.34,1.34,0,0,0,289,18.23Zm-1,1.26a.61.61,0,0,0,.17.63.61.61,0,0,1,.17.63,1.11,1.11,0,0,0,1.26-1.26,1.11,1.11,0,0,0-1.6,0Zm38.31,7A12.28,12.28,0,0,0,326,30q.09,1.71.21,3.36c.08,1.09.14,2.17.17,3.23a9.67,9.67,0,0,1-.38,3q-6.3-.59-12.35-.79t-10.58-.47a21.38,21.38,0,0,0-.67,5.38,22.3,22.3,0,0,0,.67,5.46c0,.17.05.27.17.29l.33.09a.65.65,0,0,1,.3.17.51.51,0,0,1,.12.37,18.7,18.7,0,0,1,5.17-.29q2.73.21,5.58.59t5.8.67a30.4,30.4,0,0,0,5.8,0,1.13,1.13,0,0,0,.88.51,11.36,11.36,0,0,0,1.34.08c.48,0,.95,0,1.43,0a2.45,2.45,0,0,1,1.13.3,9.16,9.16,0,0,0-.33,3.1c0,1.13.12,2.26.21,3.41s.12,2.26.12,3.36a6,6,0,0,1-.67,2.89,52.58,52.58,0,0,1-5.29-.25c-1.68-.17-3.33-.36-5-.59s-3.22-.44-4.78-.67a46.8,46.8,0,0,0-4.71-.42q-6.46-.26-11.67-.42c-3.48-.11-7-.28-10.67-.5,0-1.18,0-2.31,0-3.4s-.07-2.24-.13-3.45-.1-2.52-.13-4,0-3,0-4.83a5.61,5.61,0,0,1,1.56-1.34,13,13,0,0,1,2.05-1,11.13,11.13,0,0,1,2.19-.59,5.19,5.19,0,0,1,1.85,0,1.89,1.89,0,0,0,.75-.42c.17-.16.34-.32.51-.46a1.12,1.12,0,0,1,.63-.25,2.4,2.4,0,0,1,1.05.21c.16-.73.12-1.23-.13-1.51a2.86,2.86,0,0,0-.88-.67,2.93,2.93,0,0,1-.88-.68c-.26-.28-.27-.81-.05-1.59a1.54,1.54,0,0,1,1.1.5,3.65,3.65,0,0,0,.84.76,3,3,0,0,0-.21-2c-.31-.61-.63-1.22-1-1.8a6.35,6.35,0,0,1-.71-1.94,3.79,3.79,0,0,1,.54-2.47c.34-.34.56-.41.67-.21a1.2,1.2,0,0,0,.68.46c.28-.23.3-.55.08-1a1,1,0,0,1,.17-1.22c.5-.16.77-.07.8.3a.59.59,0,0,0,.46.63,1.54,1.54,0,0,0,.25-1.26,3.33,3.33,0,0,1,.08-1.6,11.47,11.47,0,0,1,5.3-1.76,35.38,35.38,0,0,1,6.25,0q3.33.3,6.93.76A44.23,44.23,0,0,0,326.34,26.46Zm-38-1.6a3.53,3.53,0,0,0,3.19,2.61,3.17,3.17,0,0,0-.21-1.64,7.9,7.9,0,0,0-.71-1.22c-.45,0-.89,0-1.31,0A1.18,1.18,0,0,0,288.37,24.86Zm2.85,24.87a2,2,0,0,0-1.21.12c-.2.14-.52.1-1-.12v1.59a3.91,3.91,0,0,0,3.19,0,7.38,7.38,0,0,1-.12-1.51,2.2,2.2,0,0,1,.71-1,.54.54,0,0,1,.38.13,2.32,2.32,0,0,1,.21.25,1,1,0,0,0,.21.25c.08.09.24.1.46,0v-1.6a9,9,0,0,0-2,.5A1.32,1.32,0,0,0,291.22,49.73Zm4.2-27.39c-.28-1-.75-1.56-1.42-1.68a27,27,0,0,0-2.78-.25,2.56,2.56,0,0,1,.21-1.59c.2-.23.66-.23,1.39,0V17.56c0-.39.22-.59.67-.59a2.45,2.45,0,0,0,1.3.71,10.73,10.73,0,0,0,1.89-.12.87.87,0,0,0-.46-.84,3.16,3.16,0,0,0-1.05-.34q-.59-.09-1.17-.21a1.18,1.18,0,0,1-.84-.55c.11-.72.19-1.54.25-2.43a2.53,2.53,0,0,0-.59-2,4.69,4.69,0,0,1-.46,2.35c-.37.79-.74,1.6-1.14,2.44a12.47,12.47,0,0,0-.88,2.69,5.43,5.43,0,0,0,.3,3,7.6,7.6,0,0,1,2.77-.38A3.78,3.78,0,0,1,295.42,22.34Zm-1-12.43a1.25,1.25,0,0,0,.33-.92c0-.39-.22-.62-.67-.67a1.18,1.18,0,0,0-.29,1A.57.57,0,0,0,294.42,9.91Zm1,41.16h.93a1.57,1.57,0,0,0,.33-1.13c0-.53-.22-.8-.67-.8a3.4,3.4,0,0,0-.84.76C294.89,50.23,295,50.62,295.42,51.07Zm2.19-33.85c-.06-.22,0-.36.17-.42a3.89,3.89,0,0,1,.54-.13.92.92,0,0,0,.46-.16c.12-.09.14-.27.09-.55a1.62,1.62,0,0,0-1,0,1.51,1.51,0,0,0-.71.38.46.46,0,0,0-.17.5C297.08,17,297.27,17.11,297.61,17.22Zm.33,26.46a.7.7,0,0,0,.68.34h2.1a.89.89,0,0,1,.75.33,1,1,0,0,0-.46-.84,2.75,2.75,0,0,0-1.09-.46,3.13,3.13,0,0,0-1.22,0A.94.94,0,0,0,297.94,43.68Zm1.94-9.24c-.06-.39-.13-.76-.21-1.09s-.35-.51-.8-.51a5.67,5.67,0,0,0,.12,1.22C299.08,34.43,299.37,34.55,299.88,34.44Zm.58,20.75v-1.6h-.92c-.11.51-.06.86.17,1A4.84,4.84,0,0,0,300.46,55.19Zm1.26,2.18a2,2,0,0,0,1.35-.25,1.29,1.29,0,0,0-1.35-1.34q-.42.49-.21.75A1.33,1.33,0,0,1,301.72,57.37Zm-.25-6c.28,0,.39.16.34.47s0,.49.25.54l.59-.59c.17-.16.19-.5.08-1C302,50.62,301.53,50.82,301.47,51.32ZM328.86,4.2c.05.67.14,1.5.25,2.48s.21,2,.29,3.19.14,2.31.17,3.49,0,2.26,0,3.27c-2-.33-4-.59-5.92-.75s-3.87-.31-5.8-.42-3.88-.24-5.84-.38-4-.38-6.05-.72c0-.16.12-.25.34-.25a2.1,2.1,0,0,0,.59-.08,9.43,9.43,0,0,1,2.48-3,33.28,33.28,0,0,1,3.23-2.31c1.12-.7,2.2-1.4,3.23-2.1a10.55,10.55,0,0,0,2.57-2.39c1.68.17,3.13.29,4.36.38s2.86.15,4.88.21c.22.11.37.12.46,0a.68.68,0,0,0,.17-.34.85.85,0,0,1,.12-.33C328.41,4.07,328.58,4.09,328.86,4.2ZM311.3,30.32q0-.5.42-.54c.28,0,.36-.27.25-.72a1.09,1.09,0,0,1-.54-.29c-.14-.14-.38-.15-.72,0a1.33,1.33,0,0,0-.21,1A1.63,1.63,0,0,0,311.3,30.32Zm3.19.68a4.76,4.76,0,0,0-.25-1.05c-.11-.31-.45-.41-1-.3a.84.84,0,0,0-.38.72,1,1,0,0,0,.3.63,1.09,1.09,0,0,0,.63.29A.85.85,0,0,0,314.49,31Zm-.59,29.9a2.63,2.63,0,0,1,1,0c.36.06.46-.14.29-.59a.26.26,0,0,0-.25-.29l-.5-.09a.88.88,0,0,1-.42-.16c-.11-.09-.14-.24-.09-.47a6.26,6.26,0,0,1,.68-.42,1.62,1.62,0,0,0,.58-.5.71.71,0,0,1-.63,0,1.76,1.76,0,0,1-.37-.29c-.12-.11-.24-.23-.38-.34a.6.6,0,0,0-.55-.08c-.28.33-.38.61-.29.84a2.54,2.54,0,0,0,.38.67l.5.71A1.1,1.1,0,0,1,313.9,60.9Zm.26-27.72c.44-.11.72-.07.84.13s.36.26.75.21a4.11,4.11,0,0,1,.17-.55c.06-.14.22-.18.5-.13a1.33,1.33,0,0,0-1.59-1.26,1.92,1.92,0,0,0-.34.8A1.86,1.86,0,0,1,314.16,33.18Zm1-23.6h1.26q0-1.1-1.26-1.26Zm2.52,25.2a9.31,9.31,0,0,0-.08-1.31q-.09-.63-.84-.63a3.3,3.3,0,0,0-.21,1.39C316.58,34.71,317,34.89,317.68,34.78Zm3.2-1.94c.39.4.75.52,1.09.38a2.35,2.35,0,0,0,.92-.75,9.41,9.41,0,0,0,.8-1.26A13.34,13.34,0,0,1,324.4,30a3.62,3.62,0,0,0-2.22,1A6.62,6.62,0,0,0,320.88,32.84ZM323.14,8V9a2.36,2.36,0,0,0,1.68.29c.73-.08,1.12-.4,1.18-1A2.88,2.88,0,0,0,323.14,8ZM326,55.78c-.06.39,0,.66.17.79a.69.69,0,0,0,.63.13,1.73,1.73,0,0,0,.71-.34,1,1,0,0,0,.42-.58c-.33-.34-.61-.4-.84-.17A1.15,1.15,0,0,1,326,55.78Z"/><path class="cls-1" d="M381.35,3.19a2.49,2.49,0,0,1-.54,1.09,4.63,4.63,0,0,1-.88.76,5.71,5.71,0,0,0-.93.76A1.86,1.86,0,0,0,378.5,7c-.45.11-.7,0-.76-.29s-.33-.41-.84-.3a1.29,1.29,0,0,0-.5.76,3.85,3.85,0,0,0-.09.8,1.84,1.84,0,0,1-.16.75,1.15,1.15,0,0,1-.84.55.77.77,0,0,0,.84.17,7.1,7.1,0,0,0,1-.42,4.82,4.82,0,0,1,1-.38,1.12,1.12,0,0,1,1,.29,1.34,1.34,0,0,1-.59.76c-.28.17-.57.34-.88.5a2.9,2.9,0,0,0-.76.59,1.54,1.54,0,0,0-.29,1c0,.62.2,1,.59,1.13a1.58,1.58,0,0,0,1.26-.12,4.49,4.49,0,0,0,0,1.38.94.94,0,0,0,.63.8,6,6,0,0,1,.55-1.68,11.91,11.91,0,0,1,.84-1.43c.3-.44.63-.93,1-1.47a7.86,7.86,0,0,0,.84-1.8q1.09-.16,1.47.33a1.83,1.83,0,0,0,1.05.68,18.64,18.64,0,0,1,1.77,4.32,23.32,23.32,0,0,0,1.76,4.58,6.21,6.21,0,0,0,1.68,2.06,8.65,8.65,0,0,1,1.85,2.06c.33.61.77,1.44,1.3,2.47s1.05,2.15,1.55,3.32,1,2.34,1.43,3.49.81,2.08,1.09,2.81a5.3,5.3,0,0,1,.38,2.14,4.05,4.05,0,0,1-.71,2.06,9.56,9.56,0,0,1,1.09,2,5.17,5.17,0,0,0,1.18,1.8.58.58,0,0,0,.5,0,.8.8,0,0,0,.25-.34.56.56,0,0,1,.25-.29.79.79,0,0,1,.59.08A10.25,10.25,0,0,0,402,45.49c.58,1.09,1.18,2.15,1.8,3.19a23.91,23.91,0,0,1,1.56,3.06,5,5,0,0,1,.29,3A23.4,23.4,0,0,1,408,58.34a14.38,14.38,0,0,1,1.43,4.41q-2.61.16-6.72,0a62.43,62.43,0,0,0-8.9.33,3.87,3.87,0,0,0-.68-1.68,3.4,3.4,0,0,1-.58-1.84,1.3,1.3,0,0,1,.88-.17,2.58,2.58,0,0,1,.75.29l.8.42a1.94,1.94,0,0,0,1.09.13c.23-.17.31-.32.26-.46a1.08,1.08,0,0,0-.26-.38,1.09,1.09,0,0,1-.25-.42c-.05-.17,0-.39.25-.67a10,10,0,0,0-4.11,0,13.35,13.35,0,0,0-.59-2.48,6.25,6.25,0,0,0-1.09-2,3.18,3.18,0,0,0-1.68-1,3.69,3.69,0,0,0-2.44.42c0-.45,0-.87,0-1.26s-.18-.59-.63-.59c-.16,0-.26.1-.29.3a3.81,3.81,0,0,0,0,.59,5.65,5.65,0,0,1,0,.58.42.42,0,0,1-.3.38,14.87,14.87,0,0,1-3,0c-1-.08-1.93-.19-2.86-.33l-2.73-.42a16.76,16.76,0,0,0-2.6-.21,5.14,5.14,0,0,0-3.36,1,5,5,0,0,0-1.43,2.39,33,33,0,0,0-.75,3.36,11.49,11.49,0,0,1-1.43,3.74,72.76,72.76,0,0,0-8.19.12,38.52,38.52,0,0,1-7.44-.12,34.5,34.5,0,0,1,.51-3.45A2.86,2.86,0,0,1,353.38,57a1,1,0,0,1-.33-.63,1.84,1.84,0,0,1,.12-.63,4.27,4.27,0,0,0,.21-.72,2.16,2.16,0,0,0,0-.88,38.65,38.65,0,0,0,2.44-5.92c.67-2.1,1.33-4.22,2-6.34s1.32-4.25,2-6.35a40.87,40.87,0,0,1,2.48-5.92,3.41,3.41,0,0,1,.29-2.43,4.41,4.41,0,0,0,.63-2.1c.28-.12.59-.23.92-.34a1,1,0,0,0,.68-.59.67.67,0,0,0-.09-.59,4.29,4.29,0,0,0-.38-.33,2.22,2.22,0,0,1-.37-.38.74.74,0,0,1-.09-.63,57.09,57.09,0,0,0,3.78-11.09A.3.3,0,0,1,368,11a4.49,4.49,0,0,1,.59.13,4.47,4.47,0,0,0,.54.12c.17,0,.31-.09.42-.37s0-.59-.16-.59a1.46,1.46,0,0,0-.42.08.86.86,0,0,1-.47,0c-.14,0-.21-.21-.21-.54a12.86,12.86,0,0,0,1.31-3.11c.3-1.12.6-2.3.88-3.53,1.17,0,2.19-.08,3.06-.08s1.7,0,2.48,0l2.4.08C379.27,3.26,380.23,3.25,381.35,3.19ZM357.83,52.92l.68-1.09a2.53,2.53,0,0,1,1.17-.84,3.43,3.43,0,0,1-1.17-.3c-.51-.19-.84-.09-1,.3a.25.25,0,0,1,.29.21,2.7,2.7,0,0,1,0,.54,4.09,4.09,0,0,1,0,.63A1.25,1.25,0,0,0,357.83,52.92ZM362,55.78h1.26c.11-.84-.08-1.26-.59-1.26a.47.47,0,0,1-.42.5C361.92,55.08,361.84,55.33,362,55.78Zm13.69-22.94c-.17,0-.26-.05-.29-.16s-.06-.24-.09-.38a.72.72,0,0,0-.16-.34.54.54,0,0,0-.38-.12,2.42,2.42,0,0,0-.17,1c0,.37,0,.72,0,1.05a9.47,9.47,0,0,0,.13,1q.07.47,0,.54a1,1,0,0,1-.84-.33,3.47,3.47,0,0,1-.42-.72,3,3,0,0,0-.42-.67,1.05,1.05,0,0,0-.93-.21,3,3,0,0,0,.3,1.47,3.32,3.32,0,0,0,.71.93,5.75,5.75,0,0,0,.84.63,7.7,7.7,0,0,1,.76.5,2.43,2.43,0,0,0,0,.8.38.38,0,0,1-.3.46,3.67,3.67,0,0,1-.67-.92,1.35,1.35,0,0,0-.92-.68.92.92,0,0,1-.68.55,3.25,3.25,0,0,0-.92.38.43.43,0,0,0,0,.54c.14.14.27.29.38.42a1.42,1.42,0,0,1,.21.34c0,.08-.07.18-.29.29a2.06,2.06,0,0,0-.68-.25,5,5,0,0,0-.88-.08,1.91,1.91,0,0,0-.84.17.73.73,0,0,0-.46.5c.17-.5.13-.77-.13-.8a.65.65,0,0,1-.54-.46,2.63,2.63,0,0,1-1.85.55,3.63,3.63,0,0,0-1.93.37v1.6c2.18-.05,4.13-.13,5.84-.21a10.55,10.55,0,0,1,5.25,1.22,5.06,5.06,0,0,1,3.65,0c1,.45,2,1,3.07,1.59a8.79,8.79,0,0,0,1.21-1.3,2.22,2.22,0,0,1,2-.63,20.22,20.22,0,0,0-.38-4.7,22.93,22.93,0,0,0-1.34-4.33,22.33,22.33,0,0,0-2.1-3.82,22.63,22.63,0,0,0-2.57-3.11,1.73,1.73,0,0,0-1.21,1.43,20.05,20.05,0,0,0-.3,2.35,14.11,14.11,0,0,1-.33,2.31A1.65,1.65,0,0,1,375.64,32.84Zm-10.5.93a6.11,6.11,0,0,1,1.18-.3,4.68,4.68,0,0,1,.75,0l.8.09a5.72,5.72,0,0,0,1.39-.13,1.83,1.83,0,0,1,.33-1.26,5.52,5.52,0,0,1-2.39.38,6.83,6.83,0,0,1-2.06-.71,1.3,1.3,0,0,0-.33,1A1.34,1.34,0,0,0,365.14,33.77ZM368,21.67a1.29,1.29,0,0,0-.93-.33h-1.26a4.17,4.17,0,0,1-.25,1,3.28,3.28,0,0,0-.21.8,1.47,1.47,0,0,0,.09.72,1.54,1.54,0,0,0,.63.67,2.25,2.25,0,0,1,1-1,4.33,4.33,0,0,1,1.3-.34c.51-.05,1.05-.09,1.64-.12a5.66,5.66,0,0,0,1.89-.46,3.6,3.6,0,0,1,.21,1q0,.63.72.54a1.15,1.15,0,0,0,.33-1.09,5.7,5.7,0,0,1,0-1.43c.62-.11,1.19-.24,1.72-.38s.69-.65.47-1.55a15.54,15.54,0,0,1-1.89.25c-.71.06-1.4.13-2.1.21a10.68,10.68,0,0,0-1.94.42A2.64,2.64,0,0,0,368,21.67Zm-.93-1a4.09,4.09,0,0,1,1.05-.46,4.85,4.85,0,0,0,1.14-.46V18.48a3.72,3.72,0,0,0-2,.59C366.62,19.46,366.57,20,367.07,20.66Zm.93,8.66a3.75,3.75,0,0,0,0-1.22c-.09-.37-.38-.49-.89-.38a3.49,3.49,0,0,0,.05,1.22C367.2,29.3,367.49,29.43,368,29.32Zm-.34,16.54a.8.8,0,0,0,.72-.12.74.74,0,0,0,.21-.51,1.17,1.17,0,0,0-.17-.58.76.76,0,0,0-.42-.38,2.81,2.81,0,0,1-.46.84Q367.24,45.44,367.66,45.86ZM369,30.58h1.51a1.34,1.34,0,0,0,.21-1c-.09-.2-.24-.52-.46-1H369a3.25,3.25,0,0,0-.26,1A3.25,3.25,0,0,0,369,30.58Zm0,5.12a1,1,0,0,0,.63.25,4.84,4.84,0,0,0,.63,0l.63-.08a1.07,1.07,0,0,1,.63.12.81.81,0,0,0-.34-.67,1.24,1.24,0,0,0-.76-.25,2.1,2.1,0,0,0-.84.17A1,1,0,0,0,369,35.7Zm1.84-25.2a1.3,1.3,0,0,1,.26-.88,2.91,2.91,0,0,0,.42-.72c-.34,0-.54-.12-.59-.37s-.28-.35-.67-.3a1.38,1.38,0,0,0-.3,1.35A1.19,1.19,0,0,0,370.85,10.5Zm.34.34c.39-.06.64,0,.76.21s.39.23.84.12a.78.78,0,0,0-.13-.67.77.77,0,0,0-.55-.29,1,1,0,0,0-.63.12A.55.55,0,0,0,371.19,10.84Zm1.26-1.94a1,1,0,0,0,.25-1.13,1.26,1.26,0,0,0-.84-.8,1.59,1.59,0,0,0-.38,1.26C371.51,8.79,371.83,9,372.45,8.9Zm-.59,7.31a1.33,1.33,0,0,1,1,.63c.22.37.5.38.84,0a5.7,5.7,0,0,1-.5-1.42,1.08,1.08,0,0,0-1.1-.84c-.16.5-.19.79-.08.88S372.08,15.82,371.86,16.21Zm2.19,29.32h-1.6a.73.73,0,0,0,.21.75.93.93,0,0,0,.63.26.79.79,0,0,0,.76-1Zm-.34-34.36a2.29,2.29,0,0,0,1.6-.46c.5-.36.42-.66-.26-.88a1.34,1.34,0,0,1-.71.59A1,1,0,0,0,373.71,11.17Zm0,33.43c.67-.22,1.1-.19,1.3.09a1.65,1.65,0,0,0,1,.59,1.73,1.73,0,0,1-.3-1.22,1.08,1.08,0,0,0-.37-1.05.81.81,0,0,1-.09.67,1.35,1.35,0,0,1-.46.29l-.63.26A.61.61,0,0,0,373.71,44.6Zm1.93-29.31a1.11,1.11,0,0,0-1.26,1.26,3.35,3.35,0,0,1,.55,1.47,2.1,2.1,0,0,0,.71,1.38,11.11,11.11,0,0,0,3,.09c.95-.11,1.89-.24,2.81-.38s1.85-.27,2.77-.38a10.16,10.16,0,0,1,2.9.09c.34-1,.31-1.71-.08-2.1a2.52,2.52,0,0,0-1.64-.68,5.93,5.93,0,0,0-2.23.3,6.26,6.26,0,0,0-1.85.88,1.77,1.77,0,0,0-.67-1,2.17,2.17,0,0,0-1.51-.29c-.23.11-.32.25-.29.42a1.73,1.73,0,0,0,.12.46,2.25,2.25,0,0,1,.13.42c0,.14-.07.24-.3.29A1.39,1.39,0,0,1,378,17a3,3,0,0,1-.33-.72,2.57,2.57,0,0,0-.38-.71,2.1,2.1,0,0,0-.93-.59c.34,0,.45-.25.34-.75a2.11,2.11,0,0,1,0-1.18c-.34,0-.53-.13-.59-.38s-.31-.32-.75-.21a2,2,0,0,0-.47,1.51A2.69,2.69,0,0,0,375.64,15.29Zm-.59,32.17a1.5,1.5,0,0,1,.21-.88,1.39,1.39,0,0,0,.05-1h-.93v1.3C374.38,47.25,374.6,47.46,375.05,47.46Zm-.33-41.75h.92c.11-.89-.2-1.31-.92-1.26ZM378.25,50A4.49,4.49,0,0,0,378.5,51c.11.31.44.41,1,.29V49.73A1.57,1.57,0,0,0,378.25,50Zm2.85-6.64a.79.79,0,0,0-.54-.25,2,2,0,0,0-.59.09l-.63.16a2,2,0,0,1-.84,0,5.88,5.88,0,0,0,.38,4.08,3.94,3.94,0,0,0,3.15,2,4,4,0,0,0-.13-1.59,2.62,2.62,0,0,0-.63-1,6.76,6.76,0,0,0-.92-.76,3.41,3.41,0,0,1-.84-.75,1.76,1.76,0,0,1,.12-.84.8.8,0,0,1,.34-.26l.5-.21A1.55,1.55,0,0,0,381.1,43.34Zm.59,8.57a1.55,1.55,0,0,0,1.3-.08,1.37,1.37,0,0,0,1-1.18.83.83,0,0,0-.63-.59,1.86,1.86,0,0,0-.93.09,1.28,1.28,0,0,0-.71.67A1.23,1.23,0,0,0,381.69,51.91Zm1.93-39.48a1.26,1.26,0,0,0,.34-1.09c-.06-.45-.4-.62-1-.5a.7.7,0,0,0-.13.92A1.44,1.44,0,0,0,383.62,12.43Zm.67,21c.23.06.31.28.26.67.78-.39,1.33-.46,1.63-.21a2.79,2.79,0,0,1,.76,1.1l.63,1.47a1.36,1.36,0,0,0,1.18.84,2.9,2.9,0,0,0,.25-1.89,10.57,10.57,0,0,0-.59-2.31,10.13,10.13,0,0,1-2.44-.26A1.55,1.55,0,0,0,384.29,33.43Zm1.6,16.3a1.06,1.06,0,0,0,.5-1.22,1.32,1.32,0,0,0-.84-1,.76.76,0,0,0-.5.46,2.1,2.1,0,0,0-.17.84,1.18,1.18,0,0,0,.25.76A.8.8,0,0,0,385.89,49.73Zm0-2.61a2.72,2.72,0,0,0,1.55-.08,1.12,1.12,0,0,0,.63-1.18.72.72,0,0,1-.25-.63c0-.3-.22-.4-.67-.29a5.72,5.72,0,0,0-1.22.8C385.57,46.05,385.55,46.51,385.89,47.12Zm.25-4.45h1.35a12.28,12.28,0,0,0,.33-1.26c.11-.5-.11-.81-.67-.92a2.18,2.18,0,0,0-1.18.8A1,1,0,0,0,386.14,42.67Zm2.61.34a10,10,0,0,1,1.26.75,3.18,3.18,0,0,0,1.59.51,1.18,1.18,0,0,0,.3-.76c0-.33,0-.73,0-1.17a10.51,10.51,0,0,0-2-.47C389.32,41.79,388.91,42.17,388.75,43Zm3.78-4.12a1.54,1.54,0,0,0-.55-1.64,4.75,4.75,0,0,0-1.64-.63,2.58,2.58,0,0,0,.42,2.19C391.21,39.37,391.8,39.4,392.53,38.89Zm1,2.19a.5.5,0,0,0,.63-.13,1.6,1.6,0,0,0,.42-.71,1,1,0,0,0-.08-.8,1.38,1.38,0,0,0-1-.55A1.67,1.67,0,0,0,393,40,1,1,0,0,0,393.53,41.08Zm.26-10.17c.61.11.92-.1.92-.63s-.31-.74-.92-.63Zm1.34,15.88V45.53c-.62-.11-.92.1-.92.63S394.51,46.9,395.13,46.79Zm.59-5.71a.68.68,0,0,0,.17.67.89.89,0,0,0,1.13.17.56.56,0,0,0,.29-.51,2.19,2.19,0,0,1-.75-.5C396.33,40.69,396.05,40.74,395.72,41.08Zm5.79,4.78A3.1,3.1,0,0,0,400,43.93q-1.14-.59-2.31-1.26a2.59,2.59,0,0,0,.42,1.47,3.47,3.47,0,0,0,1,1,5.18,5.18,0,0,0,1.26.59A2.49,2.49,0,0,0,401.51,45.86ZM398,48.72c.89.39,1.42.08,1.59-.92a1.57,1.57,0,0,1-.59-.3.63.63,0,0,0-.67,0,.86.86,0,0,1-.21.63A.65.65,0,0,0,398,48.72ZM400.51,57q.58-.09.75.21t.84.12a1.51,1.51,0,0,0,.3-1.34,1.07,1.07,0,0,0-.68-.72,1,1,0,0,0-.92.26C400.49,55.82,400.39,56.31,400.51,57Zm1.93-2.27a2.8,2.8,0,0,0-.09-1.18q-.17-.5-.84-.42a1.1,1.1,0,0,0-.25,1.22C401.43,54.87,401.82,55,402.44,54.77Zm-.93,5.79h1.26c.39-1,.06-1.7-1-2.26-.4.39-.56.71-.51,1S401.4,60,401.51,60.56ZM403.7,50a.37.37,0,0,0-.46-.29c-.26,0-.52,0-.8,0-.17.28-.19.5,0,.67a1,1,0,0,0,.54.34.66.66,0,0,0,.59-.13A.61.61,0,0,0,403.7,50Z"/><path class="cls-1" d="M457,53.42a3.14,3.14,0,0,0,.29,2.15,17.65,17.65,0,0,0,1.35,2.31l1.59,2.35a9.89,9.89,0,0,1,1.22,2.43c-2.18.12-4.7.17-7.56.17s-5.54.06-8.06.17V61.74a.81.81,0,0,0-.59,0,.76.76,0,0,0-.26.38,1.37,1.37,0,0,1-.2.42c-.09.11-.27.14-.55.08-.95-1.84-1.88-3.73-2.77-5.67s-1.78-3.86-2.65-5.79-1.78-3.84-2.73-5.71-2-3.69-3-5.42a13.51,13.51,0,0,0-3.41.08,2.4,2.4,0,0,0-2,1.51c-.05,2-.05,3.91,0,5.84s.1,3.84.13,5.71,0,3.67-.13,5.38a29.22,29.22,0,0,1-.67,4.75,18.18,18.18,0,0,1-3.45.54l-3.73.25c-1.26.09-2.51.18-3.74.3a30.21,30.21,0,0,0-3.44.5q-.35-6.56-.17-14.11t.38-15.37q.19-7.82.2-15.58T412.43,5A2.39,2.39,0,0,1,414,4.75c.64.08,1.3.14,2,.16a6.11,6.11,0,0,0,1.81-.16c.53-.14.85-.6,1-1.39a2.73,2.73,0,0,1-2.68.92A23.75,23.75,0,0,0,412.69,4a1.38,1.38,0,0,0-.13-.59,1.84,1.84,0,0,0-.29-.42,1,1,0,0,1-.26-.46,1.41,1.41,0,0,1,.09-.8q4-.24,8.23-.08t8.27.42c2.72.17,5.34.29,7.86.38a35.79,35.79,0,0,0,6.89-.38,1.83,1.83,0,0,1,.88.5c.19.23.43.48.71.76A22.46,22.46,0,0,1,450.19,5a14.15,14.15,0,0,1,4,2.77,17.48,17.48,0,0,1,2.52,3.53A22.53,22.53,0,0,1,458.63,16a20.92,20.92,0,0,1,.84,5.46,17.47,17.47,0,0,1-.84,5.84,7.69,7.69,0,0,1-1,1.81A23,23,0,0,1,456,31.25c-.65.73-1.3,1.43-2,2.1a19.81,19.81,0,0,1-1.76,1.59,4.86,4.86,0,0,1-1.09.63l-1,.42a2.15,2.15,0,0,0-.75.55,1.65,1.65,0,0,0-.38.92,3.47,3.47,0,0,0,.33,2.15c.34.64.72,1.29,1.14,1.93s.8,1.27,1.13,1.89a2.73,2.73,0,0,1,.25,2c.34.45.76,1,1.26,1.64s1,1.32,1.47,2a21.15,21.15,0,0,1,1.26,2.06c.37.67.63,1.2.8,1.59a.36.36,0,0,1-.12.42,2.75,2.75,0,0,0-.34.3q-.12.12,0,.12A4.83,4.83,0,0,0,457,53.42ZM414,23.1c.22.11.39.08.5-.08a1.06,1.06,0,0,0,.17-.63,1.27,1.27,0,0,0-.17-.68.34.34,0,0,0-.5-.12Zm3.11.34a1.16,1.16,0,0,0,.5.92,2.14,2.14,0,0,0,1,.29c.39,0,.83.05,1.3.05h1.39a1.06,1.06,0,0,0-.51-.93,3.12,3.12,0,0,0-1.21-.46,6,6,0,0,0-1.39-.08A3.14,3.14,0,0,0,417.14,23.44ZM419.74,62a2.65,2.65,0,0,0,.17-1.64,9.73,9.73,0,0,1-.17-1.55h-1a2.9,2.9,0,0,0,0,1.72A2.75,2.75,0,0,0,419.74,62Zm.34-5a.59.59,0,0,0,.63-.17.61.61,0,0,1,.63-.16c0-.45,0-.83,0-1.14s-.24-.46-.63-.46a2.84,2.84,0,0,1-.47.76A1.36,1.36,0,0,0,420.08,57Zm1.59-52.33a11.84,11.84,0,0,1,1.73.17,3,3,0,0,1,1.72.84A2.27,2.27,0,0,1,426.17,5c.42-.11.6-.45.54-1-.89-.11-1.82-.21-2.77-.29A2.48,2.48,0,0,0,421.67,4.62Zm1.26,51V53.09h-1c.05.62.08,1.2.08,1.76S422.32,55.66,422.93,55.61Zm0-13.69a1.16,1.16,0,0,0,.26-1c-.06-.45-.37-.65-.93-.59a1.13,1.13,0,0,0-.29,1.09Q422.09,42.09,422.93,41.92Zm1.26-15.29a.75.75,0,0,0,.47-.3.69.69,0,0,1,.46-.29,3.66,3.66,0,0,0-2.86-2.6,3.47,3.47,0,0,1,.42,1.09,7.16,7.16,0,0,0,.21.88,2,2,0,0,0,.38.67A2.24,2.24,0,0,0,424.19,26.63Zm-1.93,24.53a.47.47,0,0,1,.34.67,1.09,1.09,0,0,0,1-.42q.3-.42.63-.84h-1.26A.61.61,0,0,0,422.26,51.16Zm1.26,6.38a1.29,1.29,0,0,0,.3-1c0-.45-.33-.64-.89-.59a.83.83,0,0,0-.25,1A1.05,1.05,0,0,0,423.52,57.54Zm0-25.12c.34,0,.45.2.34.59a1.94,1.94,0,0,0,1.3-.08c.31-.17.4-.56.29-1.18h-1.26C423.8,31.75,423.58,32,423.52,32.42Zm1.6,24.2a1,1,0,0,1,1,.67,2,2,0,0,0,.63.92c.23-.22.32-.4.3-.54a1.45,1.45,0,0,0-.21-.47l-.34-.5a.89.89,0,0,1,0-.76C425.62,55.83,425.17,56.06,425.12,56.62Zm1-15.63a1.61,1.61,0,0,0,1.59-.67c-.33,0-.45-.2-.33-.59A1.11,1.11,0,0,0,426.13,41Zm.58-9.91a.6.6,0,0,1,.26-.46l.46-.38a.65.65,0,0,0,.25-.38c0-.14-.07-.26-.29-.38a.91.91,0,0,1-.34.34,2.82,2.82,0,0,0-.46.38.78.78,0,0,0-.25.46C426.31,30.83,426.43,31,426.71,31.08Zm13.7-2.86a20.39,20.39,0,0,0,1.89-1.38,6.79,6.79,0,0,0,1.59-1.93,8.27,8.27,0,0,0,.88-2.65,9.88,9.88,0,0,0-.17-3.61,6,6,0,0,0-2.85-2.35,14.71,14.71,0,0,0-4.33-1.1,28.79,28.79,0,0,0-4.83-.08,22.5,22.5,0,0,0-4.28.67,36.09,36.09,0,0,1,.38,6.72A36,36,0,0,0,429,28.9a54,54,0,0,1,5.46-.59C436.35,28.2,438.33,28.17,440.41,28.22ZM430.24,3.7v.92c.28,0,.6,0,1,0s.46-.18.29-.63a1.09,1.09,0,0,1-.54-.29C430.81,3.6,430.58,3.58,430.24,3.7Zm3.19,3.86c.34-.06.45-.32.34-.8a2,2,0,0,1,0-1.13h-1a1.41,1.41,0,0,1,0,.63,5.56,5.56,0,0,0,0,.67.89.89,0,0,0,.13.5C433,7.57,433.15,7.62,433.43,7.56Zm4.46,3.78a1.78,1.78,0,0,0,1.26-.34c.05-.72-.37-1-1.26-.92Zm1.59,40.15a7.47,7.47,0,0,1,2.14.59,9.82,9.82,0,0,0,2.65.67,2.31,2.31,0,0,0,.33-1.59,5.1,5.1,0,0,0-1-.47,5.45,5.45,0,0,0-1.39-.25,4.3,4.3,0,0,0-1.47.17A2.32,2.32,0,0,0,439.48,51.49Zm.93-41.75V11a2.49,2.49,0,0,0,.63-.37,3.92,3.92,0,0,0,.67-.68,1.16,1.16,0,0,0,.29-.67c0-.19-.2-.35-.59-.46C441.58,9.6,441.25,9.91,440.41,9.74Zm4.53,20.42V28.9a2.63,2.63,0,0,0-1.59-.34A1.64,1.64,0,0,0,444.94,30.16Zm.25,21V52.5a2.28,2.28,0,0,1,1.6-.08c.5.16.94.29,1.3.37a1.07,1.07,0,0,0,.93-.16c.25-.2.37-.77.37-1.73a10.24,10.24,0,0,0-2.18-.08C446.76,50.88,446.09,51,445.19,51.16Zm4.46-26.72a2.16,2.16,0,0,0,.71-1.59,9.26,9.26,0,0,1,.29-1.93,1.51,1.51,0,0,0-1,.67,2.08,2.08,0,0,0-.29,1.05,4.08,4.08,0,0,0,.13,1.05A7.41,7.41,0,0,0,449.65,24.44ZM451,50.57a1.34,1.34,0,0,1,.25-.55c.11-.14.11-.38,0-.71-.39-.23-.63-.3-.71-.21s-.38,0-.88-.13c-.12.62,0,1,.25,1.22A2.38,2.38,0,0,0,451,50.57Zm-1-20.08c-.11.51,0,.79.38.84a1.58,1.58,0,0,1,.88.42V30.16A2,2,0,0,0,450,30.49Z"/><path class="cls-1" d="M478.88,15.62c.11.4.23.62.38.68a.87.87,0,0,0,.46,0,2,2,0,0,0,.5-.17.56.56,0,0,1,.59.13,7.71,7.71,0,0,0-.21,2c0,.56,0,1.09.08,1.6s.05,1,.05,1.51a8.47,8.47,0,0,1-.26,1.85c-.45-.11-.6-.34-.46-.67s.07-.54-.21-.59a8,8,0,0,1-.25,2.52,8.16,8.16,0,0,1-1,2.39,5.54,5.54,0,0,1-1.72,1.72,3.17,3.17,0,0,1-2.39.42c-.12.34-.13.56-.05.68a1.21,1.21,0,0,0,.34.29,1.21,1.21,0,0,1,.34.29c.08.12.06.34-.05.68-.33.33-.61.32-.84-.05a1.32,1.32,0,0,0-1-.63,1.43,1.43,0,0,0-.09,1.89,8.8,8.8,0,0,1,1,1.64.94.94,0,0,1-1,.55c-.39-.09-.81-.18-1.26-.3a2,2,0,0,0-1.09,1.26,7,7,0,0,0-.29,1.81q0,1,0,1.89a3.17,3.17,0,0,1-.21,1.43,3.19,3.19,0,0,1-2.61-1.14,6.18,6.18,0,0,1-1-2.68,19.69,19.69,0,0,1-.17-3.7c.06-1.37.06-2.78,0-4.24-.11-2.52-.25-5-.42-7.39s-.25-4.51-.25-6.3a.8.8,0,0,1,.93-.21c.33.14.67,0,1-.47a.72.72,0,0,0-.54-.29L466.4,14a.87.87,0,0,1-.59-.3,1.12,1.12,0,0,1,0-.92q.25-.25.42-.21a.65.65,0,0,1,.3.17l.29.29a.64.64,0,0,0,.59.08,1.15,1.15,0,0,0-.63-.79c-.31-.14-.63-.3-1-.47a2.23,2.23,0,0,0,0-.79c0-.31-.05-.61-.08-.89a1.25,1.25,0,0,1,.08-.67c.09-.17.3-.22.63-.17a3.11,3.11,0,0,1-.79-1.63,9,9,0,0,1-.09-1.81c0-.62.07-1.25.13-1.89a6.75,6.75,0,0,0-.17-2.06q2.36.09,5,.42c1.79.23,3.63.46,5.5.72s3.81.46,5.8.63a53.4,53.4,0,0,0,5.92.16A11.69,11.69,0,0,1,487.86,7c-.11.93-.78,1.47-2,1.64a1.26,1.26,0,0,0,.08,1,1.32,1.32,0,0,1,.26.88,1.13,1.13,0,0,1-.93.3c-.39,0-.81,0-1.26,0a2.83,2.83,0,0,1-.33,1.89,5.41,5.41,0,0,1-1.31,1.51,7.13,7.13,0,0,1-1.76,1A4.85,4.85,0,0,1,478.88,15.62Zm-10.5,2.61a1,1,0,0,0-.34-1,.94.94,0,0,1-.34-1,1.52,1.52,0,0,1-1,0c-.45-.12-.65,0-.59.33a1.44,1.44,0,0,1,1.05.84A1.33,1.33,0,0,0,468.38,18.23Zm-1,1.26a.59.59,0,0,0,.17.63.61.61,0,0,1,.16.63A1.11,1.11,0,0,0,469,19.49a1.1,1.1,0,0,0-1.59,0Zm38.3,7a12.26,12.26,0,0,0-.33,3.49q.07,1.71.21,3.36c.08,1.09.14,2.17.16,3.23a9.67,9.67,0,0,1-.37,3Q499,39,493,38.77t-10.58-.47a21.38,21.38,0,0,0-.68,5.38,22.31,22.31,0,0,0,.68,5.46c0,.17,0,.27.16.29l.34.09a.58.58,0,0,1,.29.17.48.48,0,0,1,.13.37,18.68,18.68,0,0,1,5.17-.29c1.81.14,3.68.34,5.58.59s3.84.47,5.8.67a30.31,30.31,0,0,0,5.79,0,1.17,1.17,0,0,0,.89.51,11.23,11.23,0,0,0,1.34.08c.47,0,1,0,1.43,0a2.49,2.49,0,0,1,1.13.3,9.41,9.41,0,0,0-.34,3.1c.06,1.13.13,2.26.22,3.41s.12,2.26.12,3.36a6,6,0,0,1-.67,2.89,52.58,52.58,0,0,1-5.29-.25c-1.68-.17-3.34-.36-5-.59s-3.22-.44-4.79-.67a46.34,46.34,0,0,0-4.7-.42q-6.46-.26-11.68-.42c-3.47-.11-7-.28-10.67-.5,0-1.18,0-2.31,0-3.4s-.07-2.24-.12-3.45-.1-2.52-.13-4,0-3,0-4.83a5.71,5.71,0,0,1,1.55-1.34,13.12,13.12,0,0,1,2.06-1,11.13,11.13,0,0,1,2.19-.59,5.13,5.13,0,0,1,1.84,0,1.87,1.87,0,0,0,.76-.42c.17-.16.33-.32.5-.46a1.19,1.19,0,0,1,.63-.25,2.38,2.38,0,0,1,1.05.21c.17-.73.13-1.23-.12-1.51a2.79,2.79,0,0,0-.89-.67,3.06,3.06,0,0,1-.88-.68c-.25-.28-.26-.81,0-1.59a1.52,1.52,0,0,1,1.09.5,4.12,4.12,0,0,0,.84.76,2.9,2.9,0,0,0-.21-2c-.3-.61-.63-1.22-1-1.8a6.36,6.36,0,0,1-.72-1.94,3.74,3.74,0,0,1,.55-2.47c.33-.34.56-.41.67-.21a1.17,1.17,0,0,0,.67.46c.28-.23.31-.55.09-1a1,1,0,0,1,.16-1.22c.51-.16.77-.07.8.3s.18.57.46.63a1.55,1.55,0,0,0,.26-1.26,3.1,3.1,0,0,1,.08-1.6,11.43,11.43,0,0,1,5.29-1.76,35.5,35.5,0,0,1,6.26,0q3.31.3,6.93.76A44.11,44.11,0,0,0,505.67,26.46Zm-38-1.6a3.55,3.55,0,0,0,3.2,2.61,3.4,3.4,0,0,0-.21-1.64,8,8,0,0,0-.72-1.22c-.45,0-.88,0-1.3,0A1.21,1.21,0,0,0,467.7,24.86Zm2.86,24.87a2,2,0,0,0-1.22.12c-.19.14-.52.1-1-.12v1.59a3.42,3.42,0,0,0,1.59.34,3.47,3.47,0,0,0,1.6-.34,7.68,7.68,0,0,1-.13-1.51,2.34,2.34,0,0,1,.72-1,.5.5,0,0,1,.37.13,1.64,1.64,0,0,1,.22.25,1.16,1.16,0,0,0,.2.25c.09.09.24.1.47,0v-1.6a8.89,8.89,0,0,0-2,.5A1.32,1.32,0,0,0,470.56,49.73Zm4.2-27.39c-.28-1-.75-1.56-1.43-1.68a26.48,26.48,0,0,0-2.77-.25,2.48,2.48,0,0,1,.21-1.59c.2-.23.66-.23,1.39,0V17.56c0-.39.22-.59.67-.59a2.42,2.42,0,0,0,1.3.71,10.82,10.82,0,0,0,1.89-.12.87.87,0,0,0-.46-.84,3.16,3.16,0,0,0-1.05-.34c-.39-.06-.79-.13-1.18-.21a1.22,1.22,0,0,1-.84-.55c.11-.72.2-1.54.26-2.43a2.56,2.56,0,0,0-.59-2,4.7,4.7,0,0,1-.47,2.35c-.36.79-.74,1.6-1.13,2.44a12,12,0,0,0-.88,2.69,5.42,5.42,0,0,0,.29,3,7.65,7.65,0,0,1,2.78-.38A3.78,3.78,0,0,1,474.76,22.34Zm-1-12.43a1.21,1.21,0,0,0,.34-.92c0-.39-.23-.62-.67-.67a1.15,1.15,0,0,0-.3,1Q473.17,9.91,473.75,9.91Zm1,41.16h.93a1.57,1.57,0,0,0,.33-1.13c0-.53-.22-.8-.67-.8a3.4,3.4,0,0,0-.84.76C474.23,50.23,474.31,50.62,474.76,51.07Zm2.18-33.85c-.05-.22,0-.36.17-.42a4,4,0,0,1,.55-.13,1,1,0,0,0,.46-.16c.11-.09.14-.27.08-.55a1.58,1.58,0,0,0-1,0,1.54,1.54,0,0,0-.72.38.47.47,0,0,0-.16.5C476.41,17,476.61,17.11,476.94,17.22Zm.34,26.46A.69.69,0,0,0,478,44h2.1a.9.9,0,0,1,.76.33,1,1,0,0,0-.46-.84,2.75,2.75,0,0,0-1.09-.46,3.13,3.13,0,0,0-1.22,0A.91.91,0,0,0,477.28,43.68Zm1.93-9.24a8.11,8.11,0,0,0-.21-1.09c-.08-.34-.35-.51-.8-.51a5.64,5.64,0,0,0,.13,1.22C478.42,34.43,478.71,34.55,479.21,34.44Zm.59,20.75v-1.6h-.92c-.12.51-.06.86.16,1A5.48,5.48,0,0,0,479.8,55.19Zm1.26,2.18a2,2,0,0,0,1.35-.25,1.29,1.29,0,0,0-1.35-1.34q-.42.49-.21.75A1.33,1.33,0,0,1,481.06,57.37Zm-.25-6c.28,0,.39.16.34.47s0,.49.25.54l.58-.59c.17-.16.2-.5.09-1C481.28,50.62,480.86,50.82,480.81,51.32ZM508.19,4.2c.06.67.14,1.5.25,2.48s.22,2,.3,3.19.14,2.31.17,3.49,0,2.26-.05,3.27c-2-.33-4-.59-5.92-.75s-3.86-.31-5.79-.42-3.88-.24-5.84-.38-4-.38-6.05-.72c0-.16.11-.25.34-.25a2.1,2.1,0,0,0,.59-.08,9.53,9.53,0,0,1,2.47-3,34.68,34.68,0,0,1,3.24-2.31c1.12-.7,2.19-1.4,3.23-2.1a10.32,10.32,0,0,0,2.56-2.39c1.68.17,3.14.29,4.37.38s2.86.15,4.87.21c.23.11.38.12.47,0a.68.68,0,0,0,.16-.34.84.84,0,0,1,.13-.33C507.74,4.07,507.91,4.09,508.19,4.2ZM490.64,30.32q0-.5.42-.54c.28,0,.36-.27.25-.72a1.08,1.08,0,0,1-.55-.29c-.14-.14-.37-.15-.71,0a1.28,1.28,0,0,0-.21,1A1.58,1.58,0,0,0,490.64,30.32Zm3.19.68a5.4,5.4,0,0,0-.25-1.05c-.12-.31-.45-.41-1-.3a.81.81,0,0,0-.38.72,1,1,0,0,0,.92.92A.87.87,0,0,0,493.83,31Zm-.59,29.9a2.62,2.62,0,0,1,1,0c.36.06.46-.14.29-.59a.26.26,0,0,0-.25-.29l-.5-.09a.88.88,0,0,1-.42-.16c-.12-.09-.14-.24-.09-.47a6.15,6.15,0,0,1,.67-.42,1.65,1.65,0,0,0,.59-.5.71.71,0,0,1-.63,0,1.82,1.82,0,0,1-.38-.29,4.33,4.33,0,0,0-.38-.34.58.58,0,0,0-.54-.08q-.42.49-.3.84a2.85,2.85,0,0,0,.38.67c.17.22.34.46.51.71A1.14,1.14,0,0,1,493.24,60.9Zm.25-27.72c.45-.11.73-.07.84.13s.37.26.76.21a3,3,0,0,1,.17-.55c.05-.14.22-.18.5-.13a1.33,1.33,0,0,0-1.59-1.26,1.8,1.8,0,0,0-.34.8A1.87,1.87,0,0,1,493.49,33.18Zm1-23.6h1.26q0-1.1-1.26-1.26ZM497,34.78a11.11,11.11,0,0,0-.08-1.31q-.09-.63-.84-.63a3.3,3.3,0,0,0-.21,1.39C495.91,34.71,496.29,34.89,497,34.78Zm3.19-1.94c.39.4.76.52,1.1.38a2.35,2.35,0,0,0,.92-.75,10.53,10.53,0,0,0,.8-1.26,13.34,13.34,0,0,1,.71-1.22,3.62,3.62,0,0,0-2.22,1A6.65,6.65,0,0,0,500.21,32.84ZM502.48,8V9a2.34,2.34,0,0,0,1.68.29c.73-.08,1.12-.4,1.18-1A2.88,2.88,0,0,0,502.48,8Zm2.86,47.8c-.06.39,0,.66.17.79a.68.68,0,0,0,.63.13,1.79,1.79,0,0,0,.71-.34,1.07,1.07,0,0,0,.42-.58c-.34-.34-.62-.4-.84-.17A1.15,1.15,0,0,1,505.34,55.78Z"/></g></g></svg>