<svg xmlns="http://www.w3.org/2000/svg" viewBox="0 0 453.62 221.63"><defs><style>.cls-1{isolation:isolate;}.cls-2{fill:#373736;}</style></defs><g id="レイヤー_2" data-name="レイヤー 2"><g id="レイヤー_1-2" data-name="レイヤー 1"><g id="WHO_WE_ARE" data-name="WHO WE ARE" class="cls-1"><g class="cls-1"><path class="cls-2" d="M23.25,13a8.46,8.46,0,0,1,1.44,2.56,10.44,10.44,0,0,1,.5,2.75q.06,1.44.12,2.94a29.39,29.39,0,0,0,.31,3.12,34.53,34.53,0,0,0,1.44,5.19q.95,2.57,1.63,5.19a26.09,26.09,0,0,1,.81,5.37,13.71,13.71,0,0,1-1,5.63,6.48,6.48,0,0,1,2.44,3.62,38.09,38.09,0,0,1,1.06,5q.38,2.63.94,5.07a6.83,6.83,0,0,0,2.18,3.81Q37.88,54,41.25,45.44T47.5,27.75a3.13,3.13,0,0,1,1.62-.38,1.85,1.85,0,0,0,1.63-1.12A6.06,6.06,0,0,1,50,23.31a12.1,12.1,0,0,1,.38-3.06,26.5,26.5,0,0,1,.93-3c.38-1,.69-2,.94-2.88q4,.26,8.37.69a30.73,30.73,0,0,0,8.13-.19,50.37,50.37,0,0,1,2.5,11A59.16,59.16,0,0,0,73.5,36.75a14.65,14.65,0,0,0,1.25,2.62A10.88,10.88,0,0,1,75.88,42c.58,1.92,1.12,3.85,1.62,5.81L79,53.69q.75,2.94,1.69,5.68A36.78,36.78,0,0,0,83,64.75a44,44,0,0,0,3.44-9.56Q87.63,50.12,88.75,45t2.56-10a37.27,37.27,0,0,1,4.07-9.13,2.51,2.51,0,0,1,2.37.88,4.69,4.69,0,0,0,1.87,1.5c.59-.25.76-.77.5-1.56s-.58-1.23-1-1.32a14.56,14.56,0,0,0,1.63-.81A1.65,1.65,0,0,0,101.5,23a6.29,6.29,0,0,0-1.31.12,8.7,8.7,0,0,1-1.19.19,9.33,9.33,0,0,1-1.5,0A16.42,16.42,0,0,1,95.38,23a2.75,2.75,0,0,1,.43-1.38,1.16,1.16,0,0,1,.75-.43,3.77,3.77,0,0,0,.88-.25,1.93,1.93,0,0,0,.81-.82,1,1,0,0,0-.31-1A5.09,5.09,0,0,0,97,18.5a2,2,0,0,1-.69-.5c-.12-.17,0-.42.44-.75a6.92,6.92,0,0,1,2.94-1.06,17.76,17.76,0,0,1,3.37-.07l3.69.25a26.08,26.08,0,0,0,3.75,0c.17.75.08,1.28-.25,1.57s-.42.85-.25,1.68a1.26,1.26,0,0,0,1.38-.93,7.06,7.06,0,0,0,.12-2.32,2.08,2.08,0,0,0,1.62.13c.67-.17,1.38-.33,2.13-.5a10.14,10.14,0,0,1,2.25-.25,3.39,3.39,0,0,1,2,.62q-3.12,9.14-5.38,18.32t-5.5,19.56a2.78,2.78,0,0,1-2-.38,2.73,2.73,0,0,0-1.74-.5c-.76,1.17-.65,2,.31,2.38a11.87,11.87,0,0,0,2.93.87,11.45,11.45,0,0,1-1.24,3.69,22,22,0,0,1-2,2.94,76.42,76.42,0,0,1-2.38,11.5q-1.62,5.63-3.56,11.19T95,97.06q-2,5.56-3.5,11.31c-2.58-.16-5.31-.27-8.19-.31s-6.14-.1-9.81-.19c-.92-2.75-2-5.41-3.12-8a53.94,53.94,0,0,1-3-8.62,7,7,0,0,1-.26-2.69A6.38,6.38,0,0,0,66.88,86a2.6,2.6,0,0,0-.94-1.38A2.49,2.49,0,0,1,65,83.25a33.3,33.3,0,0,1-1.62-6.56q-.51-3.43-1.26-6.44a16.24,16.24,0,0,0-2.18-5.13,6.79,6.79,0,0,0-4.44-2.75,1.74,1.74,0,0,0,.25,1.07,2.65,2.65,0,0,0,.63.56,5.19,5.19,0,0,1,.68.56,1.46,1.46,0,0,1,.32,1.06Q54,76,49.75,86.44t-8,21.43a18,18,0,0,1-3.81.44c-1.55,0-3.15,0-4.82-.06L28.25,108c-1.58-.08-2.92-.13-4-.13q-4.76-15.62-8.31-31.25T8.5,46.25a.77.77,0,0,1,.88-.63c.5,0,.7-.29.62-.87,0-.42-.11-.6-.31-.56a1.33,1.33,0,0,0-.57.25l-.43.31c-.13.08-.19,0-.19-.38Q6.37,36,4.56,28.37T0,12.5c2,0,3.89,0,5.69.12s3.58.15,5.37.19l5.63.13Q19.62,13,23.25,13ZM4.75,24.87H6.62c.17-.83,0-1.33-.37-1.5A6.85,6.85,0,0,0,4.75,23Zm2.87,4.75c.76.17,1.23.09,1.44-.25a1.93,1.93,0,0,1,.94-.75,2.13,2.13,0,0,0,.75,1.5,7.45,7.45,0,0,0,1.37.88l1.5.75a2.45,2.45,0,0,1,1.13,1.12,9.93,9.93,0,0,0-1.69.13.77.77,0,0,0-.68.87c.33.09.5.42.5,1a2,2,0,0,1,2.31.25,22.51,22.51,0,0,0,1.93,1.63c.09-.83.71-1.17,1.88-1a2.46,2.46,0,0,1,.25,1.44,4.71,4.71,0,0,0,.25,1.93,2.8,2.8,0,0,1,1.44.63A13.25,13.25,0,0,1,22,40.81a11.78,11.78,0,0,0,1.06,1.06,2.25,2.25,0,0,0,1.56.5,2.5,2.5,0,0,0,.26-1.56,5.59,5.59,0,0,1,.24-2.19,1.11,1.11,0,0,0-.93-.06,3.45,3.45,0,0,0-.63.5,3.22,3.22,0,0,1-.5.44c-.12.08-.23,0-.31-.38a2.87,2.87,0,0,0,0-2.37,6.54,6.54,0,0,0-1.13-1.31,8.33,8.33,0,0,1-1.12-1.25A2.64,2.64,0,0,1,20.38,32a3.26,3.26,0,0,1-2.57.81,7.83,7.83,0,0,0-2.56.06,12.13,12.13,0,0,0-2.94-4.12L8.5,25.37a3.31,3.31,0,0,1,.31,1.38,1.65,1.65,0,0,1-.37.75,5.07,5.07,0,0,0-.56.81A2.65,2.65,0,0,0,7.62,29.62Zm4.76-10.5A2.52,2.52,0,0,0,10,16.37,2.42,2.42,0,0,0,12.38,19.12Zm-.5,20.5,2.24,1.25a8.87,8.87,0,0,1,2,1.5,5,5,0,0,0-.31,1.38,1.13,1.13,0,0,1-.56,1c-.5.17-.81.17-.94,0a2.31,2.31,0,0,1-.31-.63,2.24,2.24,0,0,0-.31-.62c-.13-.17-.4-.21-.81-.13v1.88a9.33,9.33,0,0,1,4.74,1.87c.26-.75.61-1.16,1.07-1.25a3.33,3.33,0,0,1,1.62.19,12.89,12.89,0,0,1,2,.88,6.11,6.11,0,0,0,1.94.68q-.12-1.36.06-1.56c.13-.12.57-.06,1.31.19a2.55,2.55,0,0,0-1.06-1.56,4.53,4.53,0,0,0-1.94-.75,6.08,6.08,0,0,0-4.12.81,3.08,3.08,0,0,0-.56-1.88c-.38-.5-.75-1-1.13-1.43A5.71,5.71,0,0,1,15.94,40a2.38,2.38,0,0,1,.18-1.88,3.38,3.38,0,0,1-2.56.63A1.35,1.35,0,0,0,11.88,39.62ZM15.62,49V47.12a1.16,1.16,0,0,0-1,.19.95.95,0,0,0,0,1.5A1.16,1.16,0,0,0,15.62,49Zm-.87,3.87a1.51,1.51,0,0,1,1.5-.37,10.56,10.56,0,0,0,1.37.37,3.05,3.05,0,0,1-.37-1.56A1.4,1.4,0,0,0,16.62,50a.92.92,0,0,1-.5.81l-1,.63a2.84,2.84,0,0,0-.74.62C14.21,52.27,14.33,52.54,14.75,52.87ZM17.12,31.5q3,.38,2.88-2.38a1.88,1.88,0,0,0-2.38-.25C16.88,29.37,16.71,30.25,17.12,31.5ZM19,27.75a8.19,8.19,0,0,0,1.56-.13,1,1,0,0,0,.82-.87,1.73,1.73,0,0,0-1.63-.44Q18.74,26.51,19,27.75Zm1,28.87c-.17-.5-.19-.83-.06-1a1.64,1.64,0,0,1,.5-.43,4.05,4.05,0,0,1,.62-.32c.21-.08.32-.29.32-.62-.5.17-.8.17-.88,0a1.15,1.15,0,0,1-.06-.69,6,6,0,0,0,.06-.81c0-.25-.17-.38-.5-.38a20.09,20.09,0,0,0-.94,2.25A1.54,1.54,0,0,0,20,56.62Zm3.25,26.13c1.17,0,1.75-.4,1.75-1.19a1.75,1.75,0,0,0-1.25-1.69q-.49,1-.69,1.44A2.18,2.18,0,0,0,23.25,82.75Zm0-47c.33.08.5.42.5,1a5,5,0,0,1,1.75-.69,8.19,8.19,0,0,0,1.5-.31c-.08-.58-.27-.94-.56-1.06a1.6,1.6,0,0,0-1-.07,4.22,4.22,0,0,0-1.19.5C23.83,35.37,23.5,35.58,23.25,35.75ZM45.12,69.87H46.5c.17-1.16-.17-1.79-1-1.87a2,2,0,0,1-.38.81C45,69,45,69.37,45.12,69.87ZM47,37.62c0,.5,0,1.09.06,1.75a5.3,5.3,0,0,0,.5,1.94,4.33,4.33,0,0,0,1.19,1.56,2.56,2.56,0,0,0,2,.5,4.1,4.1,0,0,0,.37-1.62q0-.75-.06-1.5l-.12-1.5a2.71,2.71,0,0,1,.31-1.5.91.91,0,0,1-.63-.38c-.08-.16-.33-.2-.74-.12-.26.92-.57,1.33-.94,1.25S47.92,37.79,47,37.62Zm1.38,15.25a4,4,0,0,0,1.06,1.63c.45.42.89.83,1.31,1.25a3.44,3.44,0,0,0,0-1.88,14.55,14.55,0,0,1-.5-1.5A3,3,0,0,0,48.38,52.87Zm2.87-17.12h1.87V33.87a1.49,1.49,0,0,0-1.06-.5,1.31,1.31,0,0,0-.94.38,1.55,1.55,0,0,0-.43.94A1.17,1.17,0,0,0,51.25,35.75ZM51.75,59a.94.94,0,0,0,.81-.5A3.21,3.21,0,0,0,53,57.37a4.36,4.36,0,0,0,.06-1.25,1.09,1.09,0,0,0-.44-.87,1.32,1.32,0,0,0-.93,1.37A14.78,14.78,0,0,0,51.75,59Zm1.37-28c-.41.75-.1,1.37.94,1.87a11.75,11.75,0,0,0,2.82,1,3.08,3.08,0,0,0,.5-2.37q-.89-.37-2.07-.81A2.19,2.19,0,0,0,53.12,31Zm1-3.25a1.3,1.3,0,0,0,.82-.63,5.42,5.42,0,0,0,.5-1.06,4.67,4.67,0,0,1,.5-1.06,1.39,1.39,0,0,1,.94-.63A2.46,2.46,0,0,0,54.5,22a3.23,3.23,0,0,0-.38,1.44,7.94,7.94,0,0,0,.13,1.37c.08.46.14.94.19,1.44A2.73,2.73,0,0,1,54.12,27.75ZM56,39.12a4.29,4.29,0,0,0,.12,2.32,1.69,1.69,0,0,0,1.76.93,1.9,1.9,0,0,1,.56-1.5,3,3,0,0,1,1.31-.68,9,9,0,0,1,1.69-.25,6.51,6.51,0,0,0,1.68-.32V37.25a34.48,34.48,0,0,1-3.43.87A35.2,35.2,0,0,0,56,39.12Zm1.38-9.5c.58-.16,1.14-.33,1.68-.5s.77-.62.69-1.37c-.33-.08-.5-.42-.5-1H56.88c0,.58,0,1.12.06,1.62A2.26,2.26,0,0,0,57.38,29.62Zm1,3.75v1a.44.44,0,0,1,.5.5h.87c0-.41.17-.58.5-.5v-1a.44.44,0,0,1-.5-.5h-.87C58.71,33.29,58.54,33.46,58.38,33.37Zm2.37-13.25V22a2.72,2.72,0,0,0,1.19.5,2.73,2.73,0,0,1,1.18.5V19.62A3.53,3.53,0,0,0,60.75,20.12Zm2.87,31.25c.67.59,1.09.86,1.26.82a5.72,5.72,0,0,1,1.5.18,1.72,1.72,0,0,0,.5-1.81c-.17-.79-.34-1.44-.5-1.94-1.17-.25-2-.12-2.38.38A3,3,0,0,0,63.62,51.37ZM66,36.25c.08-1.08-.58-1.54-2-1.38a2.13,2.13,0,0,0,.75,1.5A.84.84,0,0,0,66,36.25Zm1.88,9.5a4.87,4.87,0,0,0,0-3.75,2.11,2.11,0,0,0-2.07.25,2,2,0,0,0-.69,1.5,2.15,2.15,0,0,0,.69,1.56A2.21,2.21,0,0,0,67.88,45.75Zm-.5-6.13a10,10,0,0,0,.31-1.56c0-.46-.4-.73-1.31-.81a1.53,1.53,0,0,0-.38.69,1.4,1.4,0,0,0,0,.81,1.73,1.73,0,0,0,.44.69A1,1,0,0,0,67.38,39.62Zm1-5.25h-2a1.11,1.11,0,0,0,.18,1,1.06,1.06,0,0,0,1.63,0A1.18,1.18,0,0,0,68.38,34.37Zm-.5,26.5a3.51,3.51,0,0,0,.87-2.75,3.31,3.31,0,0,0-2.37-.5,22,22,0,0,1,.12,2.32Q66.5,61.13,67.88,60.87Zm0-31.25A12.49,12.49,0,0,1,69.25,28a9.4,9.4,0,0,0,1.37-1.75,3.6,3.6,0,0,0-1.74.19,3.28,3.28,0,0,0-1.38.87A1.79,1.79,0,0,0,67,28.5C67,28.92,67.29,29.29,67.88,29.62Zm-.5,45.5c-.17.92,0,1.5.43,1.75a2.88,2.88,0,0,0,1.94.13c.17-1.17,0-1.88-.5-2.13A2,2,0,0,0,67.38,75.12ZM68.75,23.5A4,4,0,0,0,69,21.56a1.87,1.87,0,0,0-1.12-1.44c.08.67.16,1.3.24,1.88A3.17,3.17,0,0,0,68.75,23.5ZM75.88,86a.77.77,0,0,1-.69-.75c0-.42-.44-.46-1.19-.13V87a4.74,4.74,0,0,1,1.75-.13q.38.13.63,1.5a4.65,4.65,0,0,1,.93-.18,3.57,3.57,0,0,0,1-.25,1.81,1.81,0,0,0,.69-.5,1.47,1.47,0,0,0,.25-.94,1.74,1.74,0,0,1-.94-.69,4.92,4.92,0,0,1-.69-1.19c-.16-.41-.31-.77-.43-1.06s-.23-.39-.31-.31a2.91,2.91,0,0,0-.38,1.56A1.14,1.14,0,0,1,75.88,86Zm3.37,3.37a2.63,2.63,0,0,1,1.25.88,1.7,1.7,0,0,0,1.62.5,2.92,2.92,0,0,0,.19-1.13A6.47,6.47,0,0,1,82.5,88a3.28,3.28,0,0,0-2.38-.5l-.43.87C79.56,88.62,79.42,89,79.25,89.37Zm1.87,10.88c1.34.17,2-.29,1.88-1.38-.33,0-.54-.1-.62-.31s-.34-.27-.76-.19a1.74,1.74,0,0,1-.43.82C81,99.4,81,99.75,81.12,100.25Zm1.38,6.62V105H81.12a4,4,0,0,0,.07,1.62C81.31,107,81.75,107.12,82.5,106.87ZM81.12,94.12A3,3,0,0,0,83,96a2,2,0,0,0,.81-2.19,2.34,2.34,0,0,0-1.31-2.06,3,3,0,0,1-.94,1A1.33,1.33,0,0,0,81.12,94.12Zm4.26-3.37A5,5,0,0,0,87,89.06c.42-.71.83-1.39,1.25-2.06a1.45,1.45,0,0,0-1.5-1,2.08,2.08,0,0,1-.63,1.12,7.28,7.28,0,0,0-.87,1.07,3.21,3.21,0,0,0-.5,1.18A1.61,1.61,0,0,0,85.38,90.75Zm-.5-17a9,9,0,0,0,1.68-.13.78.78,0,0,0,.69-.87c-.42-.08-.65-.4-.69-.94s-.44-.69-1.18-.44c.08.59,0,1-.32,1.13S84.71,73.08,84.88,73.75Zm2.87,19.37c.92.17,1.37-.14,1.37-.93s-.45-1.11-1.37-.94c0,.67-.11,1-.31,1.12S87.33,92.71,87.75,93.12Zm.5-10.37a1.91,1.91,0,0,0,1.87-.94,5.09,5.09,0,0,0,.5-2.44c-1.08-.16-1.74.13-2,.88A8.15,8.15,0,0,0,88.25,82.75Zm1.87-5.25a4.64,4.64,0,0,0,1.19-1.69,1.76,1.76,0,0,0-.19-2.06,1.32,1.32,0,0,0-1.06.56,4.74,4.74,0,0,0-.68,1.19,2.16,2.16,0,0,0-.13,1.25A.92.92,0,0,0,90.12,77.5Zm.5-9.5c.67.08,1-.1,1.13-.56s.17-.9.25-1.32c-.33,0-.54-.1-.62-.31s-.34-.27-.76-.19c-.41.42-.5.73-.24.94S90.71,67.25,90.62,68Zm4.26-15.13a3.69,3.69,0,0,1-1.32-.37c-.29-.17-.64,0-1.06.37a13.5,13.5,0,0,1,.12,3.19A9.74,9.74,0,0,1,91.5,59.5c1.08-.58,1.89-.63,2.44-.13a5.31,5.31,0,0,1,1.31,2.07c.33.87.69,1.79,1.06,2.75a3.17,3.17,0,0,0,1.94,1.93c.5-.5.58-.91.25-1.25a1.68,1.68,0,0,1-.25-1.62H101a1.51,1.51,0,0,0,.56-1.38c0-.58-.06-1.2-.06-1.87-.92.33-1.52.33-1.81,0a2.45,2.45,0,0,1-.57-1.25,5.06,5.06,0,0,0-.43-1.38c-.21-.41-.69-.5-1.44-.25a1.8,1.8,0,0,0,.13,1.57A2,2,0,0,1,97.75,60c-.25.33-.48.67-.69,1a1.08,1.08,0,0,1-1.18.37,9.11,9.11,0,0,0,.18-2.25c0-.66-.1-1.33-.18-2a1,1,0,0,0-.88.13l-.44.44a.92.92,0,0,1-.44.25c-.16,0-.37-.07-.62-.32a.53.53,0,0,0,.38-.56v-.94a4.57,4.57,0,0,1,.06-.87.58.58,0,0,1,.44-.5,4.81,4.81,0,0,1,1.5.44,3,3,0,0,0,1.87.06,2.71,2.71,0,0,1,.5-1.5,2.37,2.37,0,0,0-1.13-.56,2.77,2.77,0,0,1-.87-.25.77.77,0,0,1-.44-.57A2.91,2.91,0,0,1,96.25,51c-.58.33-1,.44-1.25.31a1.69,1.69,0,0,1-.62-.5,3.36,3.36,0,0,0-.5-.5c-.17-.12-.46-.06-.88.19-.08.42,0,.69.25.81a2.47,2.47,0,0,0,.81.25,1.58,1.58,0,0,1,.75.31C95,52,95,52.37,94.88,52.87ZM91.5,73.75a1.46,1.46,0,0,0,.62.12.33.33,0,0,1,.38.38,1.79,1.79,0,0,0,1.88-2A2.27,2.27,0,0,0,93,70.87a6.94,6.94,0,0,0-1.06,1.44A10,10,0,0,0,91.5,73.75ZM92,43.37q.87.89,1.56.63a1.2,1.2,0,0,1,1.32.37,18.57,18.57,0,0,0-.44,1.88,1.79,1.79,0,0,1-.94,1.37,1,1,0,0,0,1.19,0,2.93,2.93,0,0,0,.75-1.18,6.62,6.62,0,0,0,.37-1.94c0-.75.07-1.46.07-2.13a6.49,6.49,0,0,0-2.44-.75C92.56,41.54,92.08,42.12,92,43.37Zm3.38,27a6.09,6.09,0,0,0,1.81-.25c.54-.16.73-.7.56-1.62C96.17,68.42,95.38,69,95.38,70.37Zm1.37-30.75c.67-1.66,1.17-3,1.5-4a24,24,0,0,0,.87-4.12,3.44,3.44,0,0,0-1.81,1.44,6.46,6.46,0,0,0-.93,2.31,8.08,8.08,0,0,0-.13,2.44A5.58,5.58,0,0,0,96.75,39.62Zm.5,8.5a.82.82,0,0,1,1-.5,2.62,2.62,0,0,1-.75-1.68,10,10,0,0,1,.12-1.57c.09-.5.15-.95.19-1.37a1,1,0,0,0-.56-1,2.78,2.78,0,0,0-.94,2.94A9.65,9.65,0,0,0,97.25,48.12Zm-.5,3.75a6.76,6.76,0,0,0,2.13,1c.66.17,1.08,1,1.24,2.38.76.17,1.19,0,1.32-.56a5.44,5.44,0,0,0,.06-1.82,1.54,1.54,0,0,1-1.25-.25,6.38,6.38,0,0,1-.94-.87,7.93,7.93,0,0,0-1.06-1,4.4,4.4,0,0,0-1.5-.75Zm2.37-4.75a.8.8,0,0,1,.5,1,5,5,0,0,0,2.32-.25,1.56,1.56,0,0,0,.94-1.62,1.8,1.8,0,0,0-.88-1.19,1.75,1.75,0,0,0-1.31-.12,2.33,2.33,0,0,0-1.19.75A1.7,1.7,0,0,0,99.12,47.12Zm4.76,18a4,4,0,0,0-.5-2.37H102a2.72,2.72,0,0,0,0,2.31C102.33,65.52,103,65.54,103.88,65.12ZM102,51a5.58,5.58,0,0,0,.44,1.44,1.65,1.65,0,0,0,.94.93,11.64,11.64,0,0,0,1.12-1.25q.38-.49-.12-1.62A3.08,3.08,0,0,0,102,51Zm4.25-2q.38-2.88.94-5.5a10.6,10.6,0,0,1,1.93-4.38,2.73,2.73,0,0,0-1.62-.75l-2.25-.25a19.2,19.2,0,0,0-.63,5.82A8.87,8.87,0,0,0,106.25,49Zm0-16.13a3.14,3.14,0,0,1,1.06.69,1.45,1.45,0,0,0,1.31.31,2.31,2.31,0,0,0,0-2.87h-1.37a5.44,5.44,0,0,1-.5,1A8.4,8.4,0,0,0,106.25,32.87ZM110.5,31a.69.69,0,0,1,.62-.75c.42-.08.55-.46.38-1.13a2.64,2.64,0,0,1-1.5-.5,1.81,1.81,0,0,0-.44,1.44C109.6,30.69,109.92,31,110.5,31Z" transform="translate(0 -12.5)"/><path class="cls-2" d="M192.62,19.62q.38,6.51.38,11.94t-.19,10.5c-.12,3.38-.31,6.77-.56,10.19s-.46,7.08-.63,11a9.33,9.33,0,0,0-4.81,0,10.32,10.32,0,0,1-5.06,0,5.07,5.07,0,0,0,4.56,1.94,27.44,27.44,0,0,0,4.94-1.07,52.63,52.63,0,0,1,.37,6c0,1.84,0,3.61-.12,5.32s-.15,3.37-.19,5a30.47,30.47,0,0,0,.31,5.06.92.92,0,0,1-1,.44c-.5,0-.79.14-.87.56,0,.25.06.37.19.37a.77.77,0,0,0,.43-.18,2.62,2.62,0,0,1,.57-.32.71.71,0,0,1,.68.13,93.42,93.42,0,0,0,.63,9.37,55.91,55.91,0,0,1,.37,8.63,6.53,6.53,0,0,1-3.18.75c-1.21,0-2.48,0-3.82-.13s-2.66-.18-4-.31a12.51,12.51,0,0,0-3.75.19,3.68,3.68,0,0,1-.87-2.94,6.87,6.87,0,0,0-.5-3.31,4,4,0,0,1-.56,1.69c-.3.46-.57.91-.82,1.37a4.8,4.8,0,0,0-.5,1.38,3,3,0,0,0,.5,1.81,1.57,1.57,0,0,0-1-.44c-.41,0-.87-.06-1.37-.06s-1,0-1.38-.06a1.6,1.6,0,0,1-1-.44c.09-1.92.13-3.65.13-5.19s-.06-3-.19-4.44-.27-2.83-.44-4.25-.33-3-.5-4.62c.84.08,1.52.17,2.07.25s.81-.46.81-1.63a.41.41,0,0,0-.5-.31,5.3,5.3,0,0,0-.88.25,6.56,6.56,0,0,1-1.06.31,4.1,4.1,0,0,1-.94.13c0-1.92,0-3.6-.06-5.06s-.08-2.86-.12-4.19-.13-2.6-.25-3.81-.27-2.52-.44-3.94a2.59,2.59,0,0,0-1.94-1.19,2.58,2.58,0,0,1-1.94-1.19,15.09,15.09,0,0,0-1.37,2.07,1.9,1.9,0,0,1-1.88,1.18,2.21,2.21,0,0,1-.75-1.5,8.8,8.8,0,0,0-.37-1.75,2.12,2.12,0,0,0-.81-1.12c-.38-.25-1-.21-1.94.12a8.76,8.76,0,0,0,1,3,3.11,3.11,0,0,1,0,2.75,31.57,31.57,0,0,0-6.94.25,16.09,16.09,0,0,1-6.31-.25,5.78,5.78,0,0,1-.75,1.69c-.42.71-.79,1.38-1.13,2a4.52,4.52,0,0,0-.56,1.69c0,.5.27.75.94.75a3.19,3.19,0,0,0-1.94,1.12,2.47,2.47,0,0,1-2.31.75v4.75a1.51,1.51,0,0,0,1.12-.12l.75-.5c.25-.17.52-.33.82-.5a2.33,2.33,0,0,1,1.18-.25,12.44,12.44,0,0,1,.88,4.31q.12,2.56,0,5.19a4.82,4.82,0,0,0-2.19-.38,3.16,3.16,0,0,1-1.56-.12,1.25,1.25,0,0,1,1.37-1c-.75-.42-1.48-.85-2.18-1.31a8.5,8.5,0,0,0-2.57-1.07,1.16,1.16,0,0,0-.25.82,2.27,2.27,0,0,0,.32,1.12,3.91,3.91,0,0,0,.75,1,1.44,1.44,0,0,0,1.06.44c.08.33,0,.5-.19.5a5.6,5.6,0,0,1-.75-.06,2.34,2.34,0,0,0-.75,0c-.21,0-.27.23-.19.56a12.72,12.72,0,0,0,4.07.62,21.36,21.36,0,0,1,3.56.25,31.41,31.41,0,0,0,.19,6.75,36.66,36.66,0,0,1,.31,6.5c-2.92,0-6.36,0-10.31.13a78.14,78.14,0,0,1-11.07-.5Q122,83.88,121.75,62.06T122,18.12c4.25-.16,8.14-.22,11.69-.18s7.39,0,11.56-.19c-.08,3.5-.19,6.71-.31,9.62s-.25,5.75-.38,8.5-.23,5.48-.31,8.19-.08,5.61,0,8.69q5.25-.49,11.5-.5t12.25.5a13.79,13.79,0,0,0,1.37-3.31,25.08,25.08,0,0,0,.75-3.82c.17-1.33.3-2.64.38-3.93s.17-2.48.25-3.57a80.3,80.3,0,0,0,.12-10.06,61.82,61.82,0,0,1,.38-10.31,23.31,23.31,0,0,1,4.87,0c1.59.17,3.23.4,4.94.69s3.5.56,5.38.81A46.89,46.89,0,0,0,192.62,19.62ZM125.25,45.25a5.93,5.93,0,0,0,0-1.69.79.79,0,0,0-.88-.69,1,1,0,0,0-.43,1.44A1.7,1.7,0,0,0,125.25,45.25Zm.5,14.62c.17-1.08-.29-1.54-1.38-1.37a1.77,1.77,0,0,0,.19,1.56,3.49,3.49,0,0,0,1.13.94,3.44,3.44,0,0,0,1.37.44,2.6,2.6,0,0,0,1.06-.07,3.21,3.21,0,0,1-.31-2.31,7.83,7.83,0,0,0,.31-2.44h-1.87a4.21,4.21,0,0,0,.12,1c.09.34.17.67.25,1a1,1,0,0,1-.06.82A1.12,1.12,0,0,1,125.75,59.87ZM125.25,86a13.48,13.48,0,0,0,3.19.69,7.25,7.25,0,0,1,2.56.68,1.76,1.76,0,0,0-.69-1.43,3.59,3.59,0,0,0-1.69-.75,5.18,5.18,0,0,0-2,0A1.88,1.88,0,0,0,125.25,86Zm3.37-59.75a21.59,21.59,0,0,0,4.07.12,2.69,2.69,0,0,0,2.56-2,5.32,5.32,0,0,1-2.13.07,9.45,9.45,0,0,0-1.81-.19,2.61,2.61,0,0,0-2.69,2Zm1.38,63a2.64,2.64,0,0,0,.19,2,2.21,2.21,0,0,0,1.18.87,3.18,3.18,0,0,0,1.07-2.06c.12-.87.27-1.77.43-2.69h-1.5a3,3,0,0,1,.44,1.57C131.77,89.31,131.17,89.42,130,89.25Zm1,14.25a1.8,1.8,0,0,1,.19-.69,4.35,4.35,0,0,0,.25-.81,1,1,0,0,0-.07-.63c-.08-.16-.37-.25-.87-.25a6.06,6.06,0,0,1-.38,1.5C130,103,130.25,103.33,131,103.5Zm-.5-57.88a5.51,5.51,0,0,1,.81.5c.21.17.56.17,1.06,0,.17-.75.07-1.2-.31-1.37s-.73-.33-1.06-.5A2.54,2.54,0,0,1,130.5,45.62Zm20.87,11c-.33.75-.29,1.15.13,1.19a.77.77,0,0,1,.75.69,2.63,2.63,0,0,0-.88,1.44q-.24.93-1.5.93a3.17,3.17,0,0,1-1.62-.43c-.5-.29-1-.59-1.44-.88a3.82,3.82,0,0,0-1.44-.56,2.47,2.47,0,0,0-1.62.37,1.35,1.35,0,0,0,.37,1.5,8.66,8.66,0,0,0,1.32.88,4.84,4.84,0,0,1,1.06.75c.25.25.12.67-.38,1.25a7.08,7.08,0,0,0-3.56-1.13l-4.19-.25a28.75,28.75,0,0,1-4-.5,4.62,4.62,0,0,1-3-2,2.65,2.65,0,0,1-.37,1,8.62,8.62,0,0,0-.5.88,11.65,11.65,0,0,0,4.19,2.44,22.47,22.47,0,0,0,4.5.93c1.54.17,3.1.3,4.68.38a28.05,28.05,0,0,1,4.63.62,2,2,0,0,0,.31-1.06,1.29,1.29,0,0,0-.25-.56,4.38,4.38,0,0,1-.37-.63,2.51,2.51,0,0,1-.19-1.12h4.25v2.87a8.59,8.59,0,0,0,2.37-1,6.92,6.92,0,0,1,2.38-.87v-2a7.91,7.91,0,0,0-1.31-1.06,10.41,10.41,0,0,1-1.32-1,4.37,4.37,0,0,1-1-1.38,3.67,3.67,0,0,1-.12-2.19A2.7,2.7,0,0,0,151.37,56.62Zm-20-12.87c.09-.33.42-.5,1-.5,0-.67-.16-1.06-.5-1.19a.94.94,0,0,0-.87.06,1,1,0,0,0-.44.75C130.52,43.21,130.79,43.5,131.37,43.75ZM131,76.5h.87c0-.67.11-1,.32-1.13s.1-.33-.32-.75H131c-.42.42-.52.67-.31.75S131,75.83,131,76.5Zm1.87,9a3,3,0,0,0,.25-2.38c-.25-.75-1-1-2.12-.87a1.22,1.22,0,0,0,.12,1.81A7.61,7.61,0,0,0,132.87,85.5Zm0-45v1.87a2.07,2.07,0,0,0,.88-.43l.69-.57a1.46,1.46,0,0,1,.68-.31,1.59,1.59,0,0,1,1,.31V39.5a1.42,1.42,0,0,0-1.37.69C134.5,40.65,133.87,40.75,132.87,40.5Zm2.88,40.25c.17-.92-.06-1.46-.69-1.63a8.8,8.8,0,0,0-2.19-.25,3.26,3.26,0,0,0,1,1.88A1.23,1.23,0,0,0,135.75,80.75Zm-2-57.38a7.72,7.72,0,0,1,.44-1,5.31,5.31,0,0,0,.43-1.18,1.88,1.88,0,0,0,0-1q-.12-.44-.87-.57a8.81,8.81,0,0,1-.38.94,6.21,6.21,0,0,0-.37,1.13,2.37,2.37,0,0,0,0,1.06A.84.84,0,0,0,133.75,23.37Zm-.38,66.88c1.59,0,2.5-.63,2.75-1.88a6.84,6.84,0,0,1-1.93.5C133.48,89,133.21,89.42,133.37,90.25Zm0-46.5c.17.92.65,1.33,1.44,1.25a1.3,1.3,0,0,0,1.31-1.25,1.12,1.12,0,0,0-1.25-.38A6.06,6.06,0,0,1,133.37,43.75Zm0,12.37V57c.34.17.46.33.38.5h1a.44.44,0,0,1,.5-.5v-.88c-.42,0-.58-.16-.5-.5h-1C133.75,56,133.62,56.21,133.37,56.12Zm1.38,29.38a2.65,2.65,0,0,1,1.87.5c-.16-.67,0-1,.38-1.13a.69.69,0,0,0,.62-.75,9.71,9.71,0,0,0-1-.43,2.81,2.81,0,0,0-1.37-.07A2.68,2.68,0,0,1,134.75,85.5Zm5.25-46h1.37a4.33,4.33,0,0,1,0-1.44c.09-.54-.2-.69-.87-.44a4.52,4.52,0,0,1-.5.82C139.83,38.65,139.83,39,140,39.5Zm24.12,28c.5,0,.77.19.82.56s.39.48,1.06.31a2,2,0,0,1-2.13,1.44c-1.16,0-2.33.06-3.5.06a1.13,1.13,0,0,1,1-.75h1.19a1.93,1.93,0,0,0,1-.25C163.85,68.71,164,68.25,164.12,67.5Zm4.25-.5c.67,0,1,.1,1.13.31s.37.11.87-.31a1.19,1.19,0,0,0-.18-1.06,1.2,1.2,0,0,0-1.63,0A1.18,1.18,0,0,0,168.37,67Zm3.88,31.37a2.75,2.75,0,0,1,1.37-1.75,13,13,0,0,0,1.88-1.12,6.31,6.31,0,0,0-.38-1.5c-.16-.42-.66-.54-1.5-.38a2.91,2.91,0,0,1-.56,1.07,7.34,7.34,0,0,0-.75,1.18,5.13,5.13,0,0,0-.44,1.32A1.27,1.27,0,0,0,172.25,98.37Zm.87-67.87a3,3,0,0,0,1.38-.06,7.34,7.34,0,0,0,.94-.44,2.35,2.35,0,0,1,.81-.31,2.07,2.07,0,0,1,1.12.31,2.37,2.37,0,0,0,.57-1.88c-.05-.83-.52-1.16-1.44-1a1.66,1.66,0,0,1-.63,1.13,4.9,4.9,0,0,1-1.06.62,8.92,8.92,0,0,0-1.06.57A1.49,1.49,0,0,0,173.12,30.5Zm1.5,41.25a11.3,11.3,0,0,0,1.57-1.06,4.19,4.19,0,0,1,1.68-.82,1.67,1.67,0,0,1-.81-.43c-.21-.21-.56-.23-1.06-.07a1.19,1.19,0,0,1-.06.88,1.12,1.12,0,0,1-.57.37,2.25,2.25,0,0,0-.62.32C174.58,71.06,174.54,71.33,174.62,71.75ZM176,61.37v-2a1.14,1.14,0,0,0-1,.19,1.06,1.06,0,0,0,0,1.63A1.11,1.11,0,0,0,176,61.37Zm0-6.75a2.54,2.54,0,0,0,2.12-1.12c.42-.67.84-1.38,1.25-2.13a1.74,1.74,0,0,0-1.56-.43,2.39,2.39,0,0,0-1.37.87,3,3,0,0,0-.69,1.5A1.69,1.69,0,0,0,176,54.62Zm1.37,32.75c.92-.08,1.48-.14,1.69-.18s.44.35.69,1.18a13.74,13.74,0,0,1,3.12-.43,10,10,0,0,0,3.13-.57q0-1.5-.63-1.68a2.14,2.14,0,0,0-1.43.12,8.85,8.85,0,0,0-1.69.88,4.54,4.54,0,0,1-1.5.68,2,2,0,0,0-1.31-2.18,18.7,18.7,0,0,0-2.94-.69,1,1,0,0,0,.19.94,4.14,4.14,0,0,0,.68.56,1.24,1.24,0,0,1,.5.56C178,86.77,177.79,87,177.37,87.37Zm1,9.5a2.27,2.27,0,0,0-.5,1.88c.09.83.59,1.17,1.5,1-.16-.5-.14-.85.07-1.06a2.34,2.34,0,0,1,.68-.5,7.31,7.31,0,0,0,.75-.44,1,1,0,0,0,.38-.88,8.66,8.66,0,0,0-1.5.63Q179.63,97.62,178.37,96.87Zm2.38-24.12a4,4,0,0,0,.5-2.38h-1.88C178.79,71.71,179.25,72.5,180.75,72.75Zm-1.38,19.87h1.38c.17-1.16-.17-1.79-1-1.87a2,2,0,0,1-.38.81C179.21,91.77,179.21,92.12,179.37,92.62Zm.88-51.75c.75.17,1.19,0,1.31-.56a7.74,7.74,0,0,0,.19-1.81h-1.5a1.63,1.63,0,0,0-.5,1.19A1.61,1.61,0,0,0,180.25,40.87Zm-.5,5.25a.81.81,0,0,1,.5,1,3,3,0,0,1,2.87,0,8,8,0,0,0,.44-1,2.71,2.71,0,0,0,.06-1.37,11.21,11.21,0,0,1-2.25.31A1.65,1.65,0,0,0,179.75,46.12Zm2.37-12.25a6.6,6.6,0,0,1,.5-1,4.87,4.87,0,0,0,.5-1c-.5,0-.77-.18-.81-.56s-.39-.48-1.06-.31v1.87A.9.9,0,0,0,182.12,33.87Zm1.5,18a2.7,2.7,0,0,0-.18-2,2.38,2.38,0,0,0-1.32-.87,3.39,3.39,0,0,0-.62,2C181.5,51.75,182.21,52,183.62,51.87Zm-.5,9q1.38.26,1.38-.93c0-.79-.46-1.11-1.38-.94Zm1.38-38c-.08.5,0,.82.37.94a1.57,1.57,0,0,0,1,.06,1.81,1.81,0,0,0,.88-.5.85.85,0,0,0,.12-1A4,4,0,0,0,184.5,22.87Zm1,48.88a1.22,1.22,0,0,0,.37,1.19,2.94,2.94,0,0,0,1.25.62,3.46,3.46,0,0,0,1.5.06,2,2,0,0,0,1.13-.5,4.33,4.33,0,0,0-1.81-1.56A2.1,2.1,0,0,0,185.5,71.75Zm0-23.75a2.72,2.72,0,0,1,.5,1.19c.08.46.19.91.31,1.37a2,2,0,0,0,.63,1.06,1.8,1.8,0,0,0,1.43.25,10.34,10.34,0,0,1-.56-1.68,7.25,7.25,0,0,0-.44-1.38,1.82,1.82,0,0,0-.62-.81A1.54,1.54,0,0,0,185.5,48Zm2.87,40.87c.17-1.41-.33-2.08-1.5-2C186.71,88.29,187.21,89,188.37,88.87Zm-1-55h1.88a14.58,14.58,0,0,0-.13-2.06c-.08-.62-.5-.89-1.25-.81a6.22,6.22,0,0,0-.18,1.62A3.17,3.17,0,0,1,187.37,33.87Zm2.38-10.5a3.26,3.26,0,0,0-.5-2.37h-1.38Q186.63,23.37,189.75,23.37Zm-.88,57.38c-.16.67-.06,1.1.32,1.31a2.56,2.56,0,0,0,1.56.19,2.51,2.51,0,0,0-.69-1.56C189.69,80.31,189.29,80.33,188.87,80.75Zm1.38-52.63a1,1,0,0,0,.94-.18,1.25,1.25,0,0,1,.93-.32c.09-1.08-.54-1.54-1.87-1.37Z" transform="translate(0 -12.5)"/><path class="cls-2" d="M212.5,46c-.42.33-.61.65-.56.94a3.74,3.74,0,0,0,.31,1,11.69,11.69,0,0,0,.56,1.12,1.71,1.71,0,0,1,.19,1.19c-.67-.08-1.11.1-1.31.56a4.21,4.21,0,0,0-.32,1.75,7.56,7.56,0,0,0,.25,2c.17.63.29,1.06.38,1.31h1.37c.5.17.83.15,1-.06a1.59,1.59,0,0,0,.32-.75c0-.29.08-.6.12-.94a.67.67,0,0,1,.44-.62,1.84,1.84,0,0,1,.69,1.56,15.72,15.72,0,0,0,.25,2.19,2.91,2.91,0,0,0,.81,1.62c.41.42,1.12.38,2.12-.12a4.21,4.21,0,0,0-.31-2.25c-.29-.58-.61-1.15-.94-1.69a6.51,6.51,0,0,1-.75-1.81,6.33,6.33,0,0,1,.13-2.75c1.33-.17,2.45-.27,3.37-.31s1.75-.07,2.5-.07a11.11,11.11,0,0,0,2.32-.25,14.46,14.46,0,0,0,2.68-.87,15.1,15.1,0,0,1,.5,3.87v3.94c0,1.29.07,2.54.19,3.75A6.47,6.47,0,0,0,230,63.5a1.37,1.37,0,0,1-1.38,1,18.73,18.73,0,0,1,.75,4.31c.08,1.46.15,2.94.19,4.44s.14,3,.31,4.5A14.42,14.42,0,0,0,231,82a8.85,8.85,0,0,0,4.62,4.75,15.55,15.55,0,0,0,7.07,1.56,13.14,13.14,0,0,0,6.87-2.06,9.52,9.52,0,0,0,4.19-6.13,27.21,27.21,0,0,0,.81-5.68c0-1.71.06-3.34.06-4.88s0-3.1.13-4.69a24.18,24.18,0,0,1,.87-5.12,1.66,1.66,0,0,0,1.75-.38,2,2,0,0,1,1.63-.62c-.17-.5-.65-.67-1.44-.5a3.71,3.71,0,0,1-1.94,0,35.59,35.59,0,0,1-.18-7.56,14.63,14.63,0,0,0-.82-6.57q4-.37,7.94-.87c2.63-.33,5.52-.83,8.69-1.5a2.63,2.63,0,0,1,.5,2.5,4.6,4.6,0,0,1-1,2.12c.08.34.2.5.37.5a1.62,1.62,0,0,0,.57-.12,4.12,4.12,0,0,1,.56-.19c.16,0,.33.06.5.31-.59,1.34-1.15,2.63-1.69,3.88a10.87,10.87,0,0,0-.69,4.75c-1.33-.25-2.18-.13-2.56.37a2.71,2.71,0,0,0-.5,1.82c0,.71.1,1.41.19,2.12s-.09,1.15-.5,1.31c0,.92.31,1.48.94,1.69A2.54,2.54,0,0,1,269.37,64a2.13,2.13,0,0,0-.5,2.12,2.15,2.15,0,0,1-.5,2.13,9.39,9.39,0,0,1,1.94,1.69,9.66,9.66,0,0,0,1.94,1.68,2.56,2.56,0,0,0,.06-1,6.29,6.29,0,0,0-.25-1.25,3,3,0,0,0-.62-1.12,1.39,1.39,0,0,0-1.07-.5c1.25-.42,1.71-1.5,1.38-3.25,0-.42-.11-.67-.31-.75a1.14,1.14,0,0,0-.63-.06l-.62.12c-.21,0-.32-.06-.32-.31a2.6,2.6,0,0,1,.88-2.19,7.9,7.9,0,0,0,1.5-1.56,3.57,3.57,0,0,1,1.75.87,5.94,5.94,0,0,1,1.06,1.5c.29.59.56,1.17.81,1.75a3.87,3.87,0,0,0,1.13,1.5,24.84,24.84,0,0,0-1,6.07q-.13,3.06-.31,5.87a30.1,30.1,0,0,1-.82,5.31,10.47,10.47,0,0,1-2.62,4.63,4.15,4.15,0,0,1-.38,1.87q-.37.75-.81,1.44T270.25,92a4.15,4.15,0,0,0-.38,1.87,15.76,15.76,0,0,0-3.06,2.5q-1.44,1.5-3,2.94a17,17,0,0,1-3.25,2.38,6.47,6.47,0,0,1-3.94.68,27.56,27.56,0,0,1-8.25,4.25,29.34,29.34,0,0,1-11.25,1c-.58-.75-1.08-1.43-1.5-2.06a1.87,1.87,0,0,0-1.87-.81.6.6,0,0,0-.44.5,5.57,5.57,0,0,0-.06.87v.94a.53.53,0,0,1-.38.56,36.15,36.15,0,0,1-14.25-7.37,53.66,53.66,0,0,1-10-11.63,1.63,1.63,0,0,1,1.19-.75,12,12,0,0,1,1.75-.12,10.65,10.65,0,0,0,1.75-.13,1.23,1.23,0,0,0,1.06-.87,1.64,1.64,0,0,0-1-1.56,5.07,5.07,0,0,0-2-.25q-1.12.06-2.25.18a3.26,3.26,0,0,1-1.87-.25,15.9,15.9,0,0,0-.56-4c-.38-1.41-.69-2.83-.94-4.25a19.1,19.1,0,0,1-.31-4.06,5,5,0,0,1,1.31-3.31,6.34,6.34,0,0,1-1.25-3.31,30.16,30.16,0,0,1-.19-4.44c0-1.58.1-3.17.19-4.75a21.59,21.59,0,0,0-.13-4.13,4.82,4.82,0,0,0,2.32-.5l1.93-1c-.08-.5-.29-.75-.62-.75a7.15,7.15,0,0,0-1.19.13l-1.31.25a1.12,1.12,0,0,1-1.13-.5,38.47,38.47,0,0,1,3.57-16.75,24.58,24.58,0,0,1,10.18-11.25c.5-.08.67-.46.5-1.13s0-1.08.38-1.25a2.27,2.27,0,0,1,1.06,0,1.13,1.13,0,0,1,.5.38c.13.17.25.35.38.56a1,1,0,0,0,.43.44,7.7,7.7,0,0,1,1.07-2.75,5.11,5.11,0,0,1,1.62-1.56,6.8,6.8,0,0,1,2.13-.82c.79-.16,1.56-.33,2.31-.5a1.74,1.74,0,0,1,.5,1.63,1.67,1.67,0,0,0,.5,1.62.91.91,0,0,0,.5-1c-.09-.41-.19-.85-.31-1.31a3.07,3.07,0,0,1-.13-1.19q.06-.49.81-.75a19.57,19.57,0,0,1,2.88,2.75q.87,1.13,2.37,3c.67-.58.88-1.06.63-1.43a7.13,7.13,0,0,0-1.13-1.25q-.75-.69-1.5-1.44a1.87,1.87,0,0,1-.37-2q3-.25,7.12-.25a63.43,63.43,0,0,1,8.32.56,38.86,38.86,0,0,1,7.87,1.88,12,12,0,0,1,5.69,3.93v3.25a1.76,1.76,0,0,0,.44,1.32,9,9,0,0,0,.93.81,6.38,6.38,0,0,1,.94.87A2.06,2.06,0,0,1,266,28a2.62,2.62,0,0,1-1.13,0l-1.62-.25a4.4,4.4,0,0,0-1.63.06,2.05,2.05,0,0,0-1.25,1.06c1.83.84,3.17,1.13,4,.88A11.12,11.12,0,0,0,267.5,28c.25.25.35.46.31.62a1.09,1.09,0,0,1-.31.5l-.56.57a1.69,1.69,0,0,0-.44.68,6.69,6.69,0,0,1,1.37,1.25,2.19,2.19,0,0,0,2,.63,4.62,4.62,0,0,0,.38,3.75,22.86,22.86,0,0,1,1.5,3.75.76.76,0,0,1-.5.5,2.09,2.09,0,0,1-.88.06,3.19,3.19,0,0,1-.93-.25,1.9,1.9,0,0,1-.57-.31A4.26,4.26,0,0,1,266,41.5a14.64,14.64,0,0,1-3.63.06c-1.25-.12-2.52-.21-3.81-.25a6.33,6.33,0,0,0-3.44.81,36.49,36.49,0,0,1-3-3.68,21.27,21.27,0,0,0-3.12-3.5,13.69,13.69,0,0,0-4.13-2.5,13.28,13.28,0,0,0-5.87-.69,6.55,6.55,0,0,0-2.63.81,11.89,11.89,0,0,1-2.62,1.06c-.42-.08-.61-.25-.56-.5a4.22,4.22,0,0,1,.25-.87,7.5,7.5,0,0,0,.25-.81c0-.21-.07-.27-.32-.19a15,15,0,0,0-3.62,7.37,62.56,62.56,0,0,0-1.13,8.75l-4.68,1a20.7,20.7,0,0,1-4.44.5,13.08,13.08,0,0,1-3.94-.56A5.8,5.8,0,0,1,212.5,46ZM211,60.62c-.09-.58,0-.95.31-1.12s.35-.58.19-1.25h-2.38a2,2,0,0,0,.57,1.62A3.48,3.48,0,0,0,211,60.62ZM213,46a8.8,8.8,0,0,1-.44-2.38,21.26,21.26,0,0,0-.25-2.43,6.08,6.08,0,0,0-.69-2.07,2.78,2.78,0,0,0-1.5-1.25,24.93,24.93,0,0,0,.07,3.94c.12,1.38.26,2.77.43,4.19a1.41,1.41,0,0,0,.82,0l.56-.25a1,1,0,0,1,.44-.13C212.56,45.62,212.75,45.75,213,46Zm0,20.87a3,3,0,0,1-.5,1.88,5.65,5.65,0,0,0,2.44-.56c.45-.29,1.06-.11,1.81.56a3.72,3.72,0,0,1,3.12-2.13,10.26,10.26,0,0,1,4.5.25,2.21,2.21,0,0,0,.32-2.75A3.07,3.07,0,0,0,222,62.5a1.55,1.55,0,0,0-.56,1.44c0,.62.06,1.27.06,1.93a29.29,29.29,0,0,0-4,.75A12.63,12.63,0,0,1,213,66.87Zm2.25,19.88q-.37,3,2.37,2.87a2,2,0,0,1,.38-1.31,1.81,1.81,0,0,0,.12-1.56c-.75-.25-1.18-.31-1.31-.19A3.23,3.23,0,0,1,215.25,86.75ZM216.75,45a2,2,0,0,1,.37-.81,1.38,1.38,0,0,0,.13-1.07h-1.5C215.58,44.29,215.91,44.92,216.75,45ZM221,82c-.09,1.08.54,1.54,1.87,1.37.17-1.33-.29-2-1.37-1.87C221.5,81.92,221.33,82.08,221,82Zm3.75-37.88c.16-1.41-.3-2.08-1.38-2C223.2,43.54,223.66,44.21,224.75,44.12Zm1-23.25a1.17,1.17,0,0,0,.25-1.43c-.25-.54-.8-.73-1.63-.57C224.2,20.29,224.66,21,225.75,20.87Zm.5,67.75a2.24,2.24,0,0,0-.81,1.75,3,3,0,0,0,.62,1.63,4.52,4.52,0,0,0,1.5,1.25,5.57,5.57,0,0,0,1.94.62,2.89,2.89,0,0,0,.94-1.81,2.5,2.5,0,0,0-.5-1.69,4.44,4.44,0,0,0-1.57-1.25A4.72,4.72,0,0,0,226.25,88.62Zm1.37-23.75h-1.87c-.17.92.14,1.38.94,1.38S227.79,65.79,227.62,64.87Zm0-27.87a.81.81,0,0,1,1-.5c.17-1,0-1.58-.62-1.75a6.3,6.3,0,0,0-2.25-.13C225.66,36.12,226.29,36.92,227.62,37Zm-1.87,50.75c.66.08,1-.19,1.06-.81a5.07,5.07,0,0,1,.31-1.57h-1.37Zm1-15.25h.87c0-.67.11-1,.32-1.06s.1-.32-.32-.82h-.87c-.42.5-.52.78-.31.82S226.75,71.83,226.75,72.5ZM229.12,28c.5-.17,1-.33,1.38-.5a1.54,1.54,0,0,0,.87-1,1,1,0,0,0-1.5-.19A1.65,1.65,0,0,0,229.12,28Zm2.25,3.75a2,2,0,0,0,.75-1.94A2.08,2.08,0,0,0,231,28a3.29,3.29,0,0,1,0,1.25,8.49,8.49,0,0,1-.31,1.12,1.72,1.72,0,0,0-.13.88C230.6,31.5,230.87,31.67,231.37,31.75Zm.5,63.5a1.91,1.91,0,0,1,1-.31.74.74,0,0,1,.44.31,2.18,2.18,0,0,1,.31.56.81.81,0,0,0,.63.44c.16-.33.31-.67.44-1a3,3,0,0,0,.06-1.38c-.67,0-1.36,0-2.06.07S231.7,94.42,231.87,95.25Zm8.63-74.38a2.45,2.45,0,0,0,.12.75c.08.25.33.3.75.13a1.14,1.14,0,0,0-.06-1.13,2.56,2.56,0,0,0-.81-.62c-.34-.17-.73-.35-1.19-.56a3.17,3.17,0,0,1-1.19-.94,2.59,2.59,0,0,0,.44,2.31C239,21.27,239.66,21.29,240.5,20.87Zm-.5,83.38c.75.17,1.23,0,1.44-.38a4.93,4.93,0,0,0,.43-1.5,2,2,0,0,1-.81-.37,1.35,1.35,0,0,0-1.06-.13c-.17.75-.25,1.17-.25,1.25A9.31,9.31,0,0,0,240,104.25Zm2.87-77.75a.5.5,0,0,0,.75-.19,1.93,1.93,0,0,0,.25-1,2,2,0,0,0-.25-1,.51.51,0,0,0-.75-.19Zm1.88-.88c-.09,1.09.54,1.55,1.87,1.38.17-1.33-.29-2-1.37-1.88C245.08,25.46,244.91,25.62,244.75,25.62Zm1.87-7.12c-.17.67,0,1,.44,1.12s.6.5.44,1.25c.83-.5,1.29-.7,1.37-.62a8.21,8.21,0,0,0,1.5.62c.75-.91.75-1.6,0-2.06a15.63,15.63,0,0,1-1.87-1.31,4.71,4.71,0,0,0-.56,1.5C248,19.08,247.54,18.92,246.62,18.5Zm.5,4.75a5.11,5.11,0,0,0,.94,2.81,5.22,5.22,0,0,1,.94,2.81,1.57,1.57,0,0,0,1-.06,5.76,5.76,0,0,1,.81-.25.46.46,0,0,1,.5.19,1.73,1.73,0,0,1,.06,1.12,6.1,6.1,0,0,0,1.5-.62c.42-.25.88-.54,1.38-.88a5.89,5.89,0,0,1-3.56-2.5A17.22,17.22,0,0,1,249,22.25c.08.33,0,.5-.19.5a5.6,5.6,0,0,1-.75-.06,2.34,2.34,0,0,0-.75,0C247.1,22.73,247,22.92,247.12,23.25ZM247.5,92l1.06.5c.54.25.85.08.94-.5-.25,0-.4-.1-.44-.31A3.69,3.69,0,0,1,249,91a.73.73,0,0,0-.19-.56c-.12-.13-.4-.11-.81.06a2.73,2.73,0,0,1-.13.94A1.71,1.71,0,0,1,247.5,92Zm3.87-58.38a3,3,0,0,0,1.88-.75,4.47,4.47,0,0,0,1-1.62Q251,30.62,251.37,33.62Zm3.25-11.87c.25-1.5-.37-2.13-1.87-1.88C252.5,21.37,253.12,22,254.62,21.75Zm-.87,13.75a6.36,6.36,0,0,0,1.37,1.06c.5.29.67.9.5,1.81-.42.25-.75.28-1,.07l-.68-.57a2.06,2.06,0,0,0-.5-.31c-.13,0-.19.23-.19.81a2.29,2.29,0,0,0,1.87,1.32,6.45,6.45,0,0,0,3.38-.32,5.47,5.47,0,0,1-1-1.5,17,17,0,0,0-1.06-1.81,3.25,3.25,0,0,0-1.25-1.12C254.73,34.73,254.25,34.92,253.75,35.5ZM257,94.75a1.5,1.5,0,0,0,.94-1.75,1.64,1.64,0,0,0-1.32-1.5c-.17.08-.31.33-.43.75a6.15,6.15,0,0,0-.25,1.25,1.65,1.65,0,0,0,.18,1.06C256.29,94.85,256.58,94.92,257,94.75Zm2-69.63a.9.9,0,0,0,.94-.25.89.89,0,0,1,.93-.25c.17-1.33-.33-1.95-1.5-1.87.08.58,0,1-.31,1.12S258.75,24.46,259,25.12Zm7.5,32.75a2.08,2.08,0,0,0-1.94-.25,2.92,2.92,0,0,1-2.31-.25.85.85,0,0,0,.44,1.13,3.59,3.59,0,0,0,1.5.44,3.33,3.33,0,0,0,1.56-.25C266.25,58.48,266.5,58.21,266.5,57.87Zm.5,27.5c.5-.75.64-1.33.44-1.75a3.05,3.05,0,0,0-1.07-1.12,12,12,0,0,0-1.56-.88,2.6,2.6,0,0,1-1.19-1,1.25,1.25,0,0,0,0,1.32,5.93,5.93,0,0,0,1,1.12c.42.38.86.75,1.32,1.13A4.8,4.8,0,0,1,267,85.37ZM265.62,73.5a2.22,2.22,0,0,1,.82.37,1.35,1.35,0,0,0,1.06.13V72.5C266.33,72.33,265.7,72.67,265.62,73.5Zm.38,19a1.05,1.05,0,0,0,1-.25,1.49,1.49,0,0,0,.44-.81,1.42,1.42,0,0,0-.19-.88.82.82,0,0,0-.75-.44A3.46,3.46,0,0,0,266,92.5Zm0-70.25q9.12,4.76,11.37,15.62-1.25.26-1.68-.18a3.29,3.29,0,0,0-1.07-.69c-.42,0-.62.1-.62.31a1.5,1.5,0,0,0,.19.69c.12.25.22.46.31.62s-.05.25-.38.25A12.75,12.75,0,0,1,272,34.75a7.91,7.91,0,0,1-.25-4.38,1.83,1.83,0,0,0-.38-1.68A12.53,12.53,0,0,0,269.75,27a27.17,27.17,0,0,1-2.06-2A8.18,8.18,0,0,1,266,22.25Zm4.75,52.12V73a3.18,3.18,0,0,0-1.25.31c-.17.13-.21-.31-.13-1.31H268a1.71,1.71,0,0,0,.87,1.69A8.74,8.74,0,0,0,270.75,74.37Zm2,6.25c-.34,0-.55-.08-.63-.25s-.17-.35-.25-.56a2.18,2.18,0,0,0-.31-.56c-.12-.17-.4-.21-.81-.13a1.33,1.33,0,0,0,.5,1.82C271.91,81.4,272.41,81.29,272.75,80.62Zm5.62-39.87a18.4,18.4,0,0,0-.18,3.56c0,1.29.1,2.61.18,3.94s.15,2.62.19,3.87a17.07,17.07,0,0,1-.19,3.38,7.22,7.22,0,0,0-2.68-1.38,21.52,21.52,0,0,0-2.57-.12,6.17,6.17,0,0,1,.75-3.31,11.47,11.47,0,0,0,1.25-2.82c-.17-.83-.35-1.72-.56-2.68a10,10,0,0,1-.25-2.63,2.06,2.06,0,0,1,.94-1.75Q276.12,40.25,278.37,40.75Zm-1,15.12c.92.5,1.33,1.09,1.25,1.75s-.17,1.55-.25,2.63a2.58,2.58,0,0,1-2.75-.94,2.33,2.33,0,0,1-.12-2.44,6.82,6.82,0,0,1,1.5.38C277.41,57.42,277.54,57,277.37,55.87Z" transform="translate(0 -12.5)"/></g><g class="cls-1"><path class="cls-2" d="M23.25,138a8.46,8.46,0,0,1,1.44,2.56,10.44,10.44,0,0,1,.5,2.75q.06,1.44.12,2.94a29.39,29.39,0,0,0,.31,3.12,34.53,34.53,0,0,0,1.44,5.19q.95,2.56,1.63,5.19a26.09,26.09,0,0,1,.81,5.37,13.71,13.71,0,0,1-1,5.63,6.48,6.48,0,0,1,2.44,3.62,38.09,38.09,0,0,1,1.06,5q.38,2.63.94,5.07a6.83,6.83,0,0,0,2.18,3.81q2.76-9.25,6.13-17.81t6.25-17.69a3.13,3.13,0,0,1,1.62-.38,1.85,1.85,0,0,0,1.63-1.12,6.06,6.06,0,0,1-.75-2.94,12.1,12.1,0,0,1,.38-3.06,26.5,26.5,0,0,1,.93-3c.38-1,.69-2,.94-2.88q4,.25,8.37.69a30.73,30.73,0,0,0,8.13-.19,50.37,50.37,0,0,1,2.5,11,59.16,59.16,0,0,0,2.25,10.88,14.65,14.65,0,0,0,1.25,2.62A10.88,10.88,0,0,1,75.88,167c.58,1.92,1.12,3.85,1.62,5.81l1.5,5.88q.75,2.94,1.69,5.68A36.78,36.78,0,0,0,83,189.75a44,44,0,0,0,3.44-9.56q1.19-5.07,2.31-10.19t2.56-10a37.27,37.27,0,0,1,4.07-9.13,2.51,2.51,0,0,1,2.37.88,4.69,4.69,0,0,0,1.87,1.5c.59-.25.76-.77.5-1.56s-.58-1.23-1-1.32a14.56,14.56,0,0,0,1.63-.81,1.65,1.65,0,0,0,.75-1.56,6.29,6.29,0,0,0-1.31.12,8.7,8.7,0,0,1-1.19.19,9.33,9.33,0,0,1-1.5,0,16.42,16.42,0,0,1-2.12-.31,2.75,2.75,0,0,1,.43-1.38,1.16,1.16,0,0,1,.75-.43,3.77,3.77,0,0,0,.88-.25,1.93,1.93,0,0,0,.81-.82,1,1,0,0,0-.31-1,5.09,5.09,0,0,0-.94-.62,2,2,0,0,1-.69-.5c-.12-.17,0-.42.44-.75a6.92,6.92,0,0,1,2.94-1.06,17.76,17.76,0,0,1,3.37-.07l3.69.25a26.08,26.08,0,0,0,3.75,0c.17.75.08,1.28-.25,1.57s-.42.85-.25,1.68a1.26,1.26,0,0,0,1.38-.93,7.06,7.06,0,0,0,.12-2.32,2.08,2.08,0,0,0,1.62.13c.67-.17,1.38-.33,2.13-.5a10.14,10.14,0,0,1,2.25-.25,3.39,3.39,0,0,1,2,.62q-3.12,9.13-5.38,18.32t-5.5,19.56a2.78,2.78,0,0,1-2-.38,2.73,2.73,0,0,0-1.74-.5c-.76,1.17-.65,2,.31,2.38a11.87,11.87,0,0,0,2.93.87,11.45,11.45,0,0,1-1.24,3.69,22,22,0,0,1-2,2.94,76.42,76.42,0,0,1-2.38,11.5q-1.62,5.63-3.56,11.19T95,222.06q-2,5.56-3.5,11.31c-2.58-.16-5.31-.27-8.19-.31s-6.14-.1-9.81-.19c-.92-2.75-2-5.41-3.12-8a53.94,53.94,0,0,1-3-8.62,7,7,0,0,1-.26-2.69,6.38,6.38,0,0,0-.24-2.56,2.6,2.6,0,0,0-.94-1.38,2.49,2.49,0,0,1-.94-1.37,33.3,33.3,0,0,1-1.62-6.56q-.51-3.44-1.26-6.44a16.24,16.24,0,0,0-2.18-5.13,6.79,6.79,0,0,0-4.44-2.75,1.74,1.74,0,0,0,.25,1.07,2.65,2.65,0,0,0,.63.56,5.19,5.19,0,0,1,.68.56,1.46,1.46,0,0,1,.32,1.06Q54,201,49.75,211.44t-8,21.43a18,18,0,0,1-3.81.44c-1.55,0-3.15,0-4.82-.06L28.25,233c-1.58-.08-2.92-.13-4-.13q-4.76-15.62-8.31-31.25T8.5,171.25a.77.77,0,0,1,.88-.63c.5,0,.7-.29.62-.87,0-.42-.11-.6-.31-.56a1.33,1.33,0,0,0-.57.25l-.43.31c-.13.08-.19,0-.19-.38q-2.13-8.37-3.94-16T0,137.5c2,0,3.89,0,5.69.12s3.58.15,5.37.19l5.63.13Q19.62,138,23.25,138ZM4.75,149.87H6.62c.17-.83,0-1.33-.37-1.5a6.85,6.85,0,0,0-1.5-.37Zm2.87,4.75c.76.17,1.23.09,1.44-.25a1.93,1.93,0,0,1,.94-.75,2.13,2.13,0,0,0,.75,1.5,7.45,7.45,0,0,0,1.37.88l1.5.75a2.45,2.45,0,0,1,1.13,1.12,9.93,9.93,0,0,0-1.69.13.77.77,0,0,0-.68.87c.33.09.5.42.5,1a2,2,0,0,1,2.31.25,22.51,22.51,0,0,0,1.93,1.63c.09-.83.71-1.17,1.88-1a2.46,2.46,0,0,1,.25,1.44,4.71,4.71,0,0,0,.25,1.93,2.8,2.8,0,0,1,1.44.63A13.25,13.25,0,0,1,22,165.81a11.78,11.78,0,0,0,1.06,1.06,2.25,2.25,0,0,0,1.56.5,2.5,2.5,0,0,0,.26-1.56,5.59,5.59,0,0,1,.24-2.19,1.11,1.11,0,0,0-.93-.06,3.45,3.45,0,0,0-.63.5,3.22,3.22,0,0,1-.5.44c-.12.08-.23,0-.31-.38a2.87,2.87,0,0,0,0-2.37,6.54,6.54,0,0,0-1.13-1.31,8.33,8.33,0,0,1-1.12-1.25,2.64,2.64,0,0,1-.12-2.19,3.26,3.26,0,0,1-2.57.81,7.83,7.83,0,0,0-2.56.06,12.13,12.13,0,0,0-2.94-4.12L8.5,150.37a3.31,3.31,0,0,1,.31,1.38,1.65,1.65,0,0,1-.37.75,5.07,5.07,0,0,0-.56.81A2.65,2.65,0,0,0,7.62,154.62Zm4.76-10.5A2.52,2.52,0,0,0,10,141.37,2.42,2.42,0,0,0,12.38,144.12Zm-.5,20.5,2.24,1.25a8.87,8.87,0,0,1,2,1.5,5,5,0,0,0-.31,1.38,1.13,1.13,0,0,1-.56,1c-.5.17-.81.17-.94,0a2.31,2.31,0,0,1-.31-.63,2.24,2.24,0,0,0-.31-.62c-.13-.17-.4-.21-.81-.13v1.88a9.33,9.33,0,0,1,4.74,1.87c.26-.75.61-1.16,1.07-1.25a3.33,3.33,0,0,1,1.62.19,12.89,12.89,0,0,1,2,.88,6.11,6.11,0,0,0,1.94.68q-.12-1.37.06-1.56c.13-.12.57-.06,1.31.19a2.55,2.55,0,0,0-1.06-1.56,4.53,4.53,0,0,0-1.94-.75,6.08,6.08,0,0,0-4.12.81,3.08,3.08,0,0,0-.56-1.88c-.38-.5-.75-1-1.13-1.43a5.71,5.71,0,0,1-.87-1.44,2.38,2.38,0,0,1,.18-1.88,3.38,3.38,0,0,1-2.56.63A1.35,1.35,0,0,0,11.88,164.62ZM15.62,174v-1.88a1.16,1.16,0,0,0-1,.19.95.95,0,0,0,0,1.5A1.16,1.16,0,0,0,15.62,174Zm-.87,3.87a1.51,1.51,0,0,1,1.5-.37,10.56,10.56,0,0,0,1.37.37,3.05,3.05,0,0,1-.37-1.56,1.4,1.4,0,0,0-.63-1.31.92.92,0,0,1-.5.81l-1,.63a2.84,2.84,0,0,0-.74.62C14.21,177.27,14.33,177.54,14.75,177.87Zm2.37-21.37q3,.38,2.88-2.38a1.88,1.88,0,0,0-2.38-.25C16.88,154.37,16.71,155.25,17.12,156.5ZM19,152.75a8.19,8.19,0,0,0,1.56-.13,1,1,0,0,0,.82-.87,1.73,1.73,0,0,0-1.63-.44Q18.74,151.51,19,152.75Zm1,28.87c-.17-.5-.19-.83-.06-1a1.64,1.64,0,0,1,.5-.43,4.05,4.05,0,0,1,.62-.32c.21-.08.32-.29.32-.62-.5.17-.8.17-.88,0a1.15,1.15,0,0,1-.06-.69,6,6,0,0,0,.06-.81c0-.25-.17-.38-.5-.38a20.09,20.09,0,0,0-.94,2.25A1.54,1.54,0,0,0,20,181.62Zm3.25,26.13c1.17,0,1.75-.4,1.75-1.19a1.75,1.75,0,0,0-1.25-1.69q-.49,1-.69,1.44A2.18,2.18,0,0,0,23.25,207.75Zm0-47c.33.08.5.42.5,1a5,5,0,0,1,1.75-.69,8.19,8.19,0,0,0,1.5-.31c-.08-.58-.27-.94-.56-1.06a1.6,1.6,0,0,0-1-.07,4.22,4.22,0,0,0-1.19.5C23.83,160.37,23.5,160.58,23.25,160.75Zm21.87,34.12H46.5c.17-1.16-.17-1.79-1-1.87a2,2,0,0,1-.38.81C45,194,45,194.37,45.12,194.87ZM47,162.62c0,.5,0,1.09.06,1.75a5.3,5.3,0,0,0,.5,1.94,4.33,4.33,0,0,0,1.19,1.56,2.56,2.56,0,0,0,2,.5,4.1,4.1,0,0,0,.37-1.62q0-.75-.06-1.5l-.12-1.5a2.71,2.71,0,0,1,.31-1.5.91.91,0,0,1-.63-.38c-.08-.16-.33-.2-.74-.12-.26.92-.57,1.33-.94,1.25S47.92,162.79,47,162.62Zm1.38,15.25a4,4,0,0,0,1.06,1.63c.45.42.89.83,1.31,1.25a3.44,3.44,0,0,0,0-1.88,14.55,14.55,0,0,1-.5-1.5A3,3,0,0,0,48.38,177.87Zm2.87-17.12h1.87v-1.88a1.49,1.49,0,0,0-1.06-.5,1.31,1.31,0,0,0-.94.38,1.55,1.55,0,0,0-.43.94A1.17,1.17,0,0,0,51.25,160.75Zm.5,23.25a.94.94,0,0,0,.81-.5,3.21,3.21,0,0,0,.44-1.13,4.36,4.36,0,0,0,.06-1.25,1.09,1.09,0,0,0-.44-.87,1.32,1.32,0,0,0-.93,1.37A14.78,14.78,0,0,0,51.75,184Zm1.37-28c-.41.75-.1,1.37.94,1.87a11.75,11.75,0,0,0,2.82,1,3.08,3.08,0,0,0,.5-2.37q-.89-.37-2.07-.81A2.19,2.19,0,0,0,53.12,156Zm1-3.25a1.3,1.3,0,0,0,.82-.63,5.42,5.42,0,0,0,.5-1.06,4.67,4.67,0,0,1,.5-1.06,1.39,1.39,0,0,1,.94-.63A2.46,2.46,0,0,0,54.5,147a3.23,3.23,0,0,0-.38,1.44,7.94,7.94,0,0,0,.13,1.37c.08.46.14.94.19,1.44A2.73,2.73,0,0,1,54.12,152.75ZM56,164.12a4.29,4.29,0,0,0,.12,2.32,1.69,1.69,0,0,0,1.76.93,1.9,1.9,0,0,1,.56-1.5,3,3,0,0,1,1.31-.68,9,9,0,0,1,1.69-.25,6.51,6.51,0,0,0,1.68-.32v-2.37a34.48,34.48,0,0,1-3.43.87A35.2,35.2,0,0,0,56,164.12Zm1.38-9.5c.58-.16,1.14-.33,1.68-.5s.77-.62.69-1.37c-.33-.08-.5-.42-.5-1H56.88c0,.58,0,1.12.06,1.62A2.26,2.26,0,0,0,57.38,154.62Zm1,3.75v1a.44.44,0,0,1,.5.5h.87c0-.41.17-.58.5-.5v-1a.44.44,0,0,1-.5-.5h-.87C58.71,158.29,58.54,158.46,58.38,158.37Zm2.37-13.25V147a2.72,2.72,0,0,0,1.19.5,2.73,2.73,0,0,1,1.18.5v-3.38A3.53,3.53,0,0,0,60.75,145.12Zm2.87,31.25c.67.59,1.09.86,1.26.82a5.72,5.72,0,0,1,1.5.18,1.72,1.72,0,0,0,.5-1.81c-.17-.79-.34-1.44-.5-1.94-1.17-.25-2-.12-2.38.38A3,3,0,0,0,63.62,176.37ZM66,161.25c.08-1.08-.58-1.54-2-1.38a2.13,2.13,0,0,0,.75,1.5A.84.84,0,0,0,66,161.25Zm1.88,9.5a4.87,4.87,0,0,0,0-3.75,2.11,2.11,0,0,0-2.07.25,2,2,0,0,0-.69,1.5,2.15,2.15,0,0,0,.69,1.56A2.21,2.21,0,0,0,67.88,170.75Zm-.5-6.13a10,10,0,0,0,.31-1.56c0-.46-.4-.73-1.31-.81a1.53,1.53,0,0,0-.38.69,1.4,1.4,0,0,0,0,.81,1.73,1.73,0,0,0,.44.69A1,1,0,0,0,67.38,164.62Zm1-5.25h-2a1.11,1.11,0,0,0,.18,1,1.06,1.06,0,0,0,1.63,0A1.18,1.18,0,0,0,68.38,159.37Zm-.5,26.5a3.51,3.51,0,0,0,.87-2.75,3.31,3.31,0,0,0-2.37-.5,22,22,0,0,1,.12,2.32Q66.5,186.13,67.88,185.87Zm0-31.25A12.49,12.49,0,0,1,69.25,153a9.4,9.4,0,0,0,1.37-1.75,3.6,3.6,0,0,0-1.74.19,3.28,3.28,0,0,0-1.38.87,1.79,1.79,0,0,0-.5,1.19C67,153.92,67.29,154.29,67.88,154.62Zm-.5,45.5c-.17.92,0,1.5.43,1.75a2.88,2.88,0,0,0,1.94.13c.17-1.17,0-1.88-.5-2.13A2,2,0,0,0,67.38,200.12Zm1.37-51.62a4,4,0,0,0,.25-1.94,1.87,1.87,0,0,0-1.12-1.44c.08.67.16,1.3.24,1.88A3.17,3.17,0,0,0,68.75,148.5ZM75.88,211a.77.77,0,0,1-.69-.75c0-.42-.44-.46-1.19-.13V212a4.74,4.74,0,0,1,1.75-.13q.38.13.63,1.5a4.65,4.65,0,0,1,.93-.18,3.57,3.57,0,0,0,1-.25,1.81,1.81,0,0,0,.69-.5,1.47,1.47,0,0,0,.25-.94,1.74,1.74,0,0,1-.94-.69,4.92,4.92,0,0,1-.69-1.19c-.16-.41-.31-.77-.43-1.06s-.23-.39-.31-.31a2.91,2.91,0,0,0-.38,1.56A1.14,1.14,0,0,1,75.88,211Zm3.37,3.37a2.63,2.63,0,0,1,1.25.88,1.7,1.7,0,0,0,1.62.5,2.92,2.92,0,0,0,.19-1.13A6.47,6.47,0,0,1,82.5,213a3.28,3.28,0,0,0-2.38-.5l-.43.87C79.56,213.62,79.42,214,79.25,214.37Zm1.87,10.88c1.34.17,2-.29,1.88-1.38-.33,0-.54-.1-.62-.31s-.34-.27-.76-.19a1.74,1.74,0,0,1-.43.82C81,224.4,81,224.75,81.12,225.25Zm1.38,6.62V230H81.12a4,4,0,0,0,.07,1.62C81.31,232,81.75,232.12,82.5,231.87Zm-1.38-12.75A3,3,0,0,0,83,221a2,2,0,0,0,.81-2.19,2.34,2.34,0,0,0-1.31-2.06,3,3,0,0,1-.94,1A1.33,1.33,0,0,0,81.12,219.12Zm4.26-3.37A5,5,0,0,0,87,214.06c.42-.71.83-1.39,1.25-2.06a1.45,1.45,0,0,0-1.5-1,2.08,2.08,0,0,1-.63,1.12,7.28,7.28,0,0,0-.87,1.07,3.21,3.21,0,0,0-.5,1.18A1.61,1.61,0,0,0,85.38,215.75Zm-.5-17a9,9,0,0,0,1.68-.13.78.78,0,0,0,.69-.87c-.42-.08-.65-.4-.69-.94s-.44-.69-1.18-.44c.08.59,0,1-.32,1.13S84.71,198.08,84.88,198.75Zm2.87,19.37c.92.17,1.37-.14,1.37-.93s-.45-1.11-1.37-.94c0,.67-.11,1-.31,1.12S87.33,217.71,87.75,218.12Zm.5-10.37a1.91,1.91,0,0,0,1.87-.94,5.09,5.09,0,0,0,.5-2.44c-1.08-.16-1.74.13-2,.88A8.15,8.15,0,0,0,88.25,207.75Zm1.87-5.25a4.64,4.64,0,0,0,1.19-1.69,1.76,1.76,0,0,0-.19-2.06,1.32,1.32,0,0,0-1.06.56,4.74,4.74,0,0,0-.68,1.19,2.16,2.16,0,0,0-.13,1.25A.92.92,0,0,0,90.12,202.5Zm.5-9.5c.67.08,1-.1,1.13-.56s.17-.9.25-1.32c-.33,0-.54-.1-.62-.31s-.34-.27-.76-.19c-.41.42-.5.73-.24.94S90.71,192.25,90.62,193Zm4.26-15.13a3.69,3.69,0,0,1-1.32-.37c-.29-.17-.64,0-1.06.37a13.5,13.5,0,0,1,.12,3.19,9.74,9.74,0,0,1-1.12,3.44c1.08-.58,1.89-.63,2.44-.13a5.31,5.31,0,0,1,1.31,2.07c.33.87.69,1.79,1.06,2.75a3.17,3.17,0,0,0,1.94,1.93c.5-.5.58-.91.25-1.25a1.68,1.68,0,0,1-.25-1.62H101a1.51,1.51,0,0,0,.56-1.38c0-.58-.06-1.2-.06-1.87-.92.33-1.52.33-1.81,0a2.45,2.45,0,0,1-.57-1.25,5.06,5.06,0,0,0-.43-1.38c-.21-.41-.69-.5-1.44-.25a1.8,1.8,0,0,0,.13,1.57,2,2,0,0,1,.37,1.31c-.25.33-.48.67-.69,1a1.08,1.08,0,0,1-1.18.37,9.11,9.11,0,0,0,.18-2.25c0-.66-.1-1.33-.18-2a1,1,0,0,0-.88.13l-.44.44a.92.92,0,0,1-.44.25c-.16,0-.37-.07-.62-.32a.53.53,0,0,0,.38-.56v-.94a4.57,4.57,0,0,1,.06-.87.58.58,0,0,1,.44-.5,4.81,4.81,0,0,1,1.5.44,3,3,0,0,0,1.87.06,2.71,2.71,0,0,1,.5-1.5,2.37,2.37,0,0,0-1.13-.56,2.77,2.77,0,0,1-.87-.25.77.77,0,0,1-.44-.57,2.91,2.91,0,0,1,.44-1.37c-.58.33-1,.44-1.25.31a1.69,1.69,0,0,1-.62-.5,3.36,3.36,0,0,0-.5-.5c-.17-.12-.46-.06-.88.19-.08.42,0,.69.25.81a2.47,2.47,0,0,0,.81.25,1.58,1.58,0,0,1,.75.31C95,177,95,177.37,94.88,177.87ZM91.5,198.75a1.46,1.46,0,0,0,.62.12.33.33,0,0,1,.38.38,1.79,1.79,0,0,0,1.88-2A2.27,2.27,0,0,0,93,195.87a6.94,6.94,0,0,0-1.06,1.44A10,10,0,0,0,91.5,198.75Zm.5-30.38q.87.88,1.56.63a1.2,1.2,0,0,1,1.32.37,18.57,18.57,0,0,0-.44,1.88,1.79,1.79,0,0,1-.94,1.37,1,1,0,0,0,1.19,0,2.93,2.93,0,0,0,.75-1.18,6.62,6.62,0,0,0,.37-1.94c0-.75.07-1.46.07-2.13a6.49,6.49,0,0,0-2.44-.75C92.56,166.54,92.08,167.12,92,168.37Zm3.38,27a6.09,6.09,0,0,0,1.81-.25c.54-.16.73-.7.56-1.62C96.17,193.42,95.38,194,95.38,195.37Zm1.37-30.75c.67-1.66,1.17-3,1.5-4a24,24,0,0,0,.87-4.12,3.44,3.44,0,0,0-1.81,1.44,6.46,6.46,0,0,0-.93,2.31,8.08,8.08,0,0,0-.13,2.44A5.58,5.58,0,0,0,96.75,164.62Zm.5,8.5a.82.82,0,0,1,1-.5,2.62,2.62,0,0,1-.75-1.68,10,10,0,0,1,.12-1.57c.09-.5.15-1,.19-1.37a1,1,0,0,0-.56-1,2.78,2.78,0,0,0-.94,2.94A9.65,9.65,0,0,0,97.25,173.12Zm-.5,3.75a6.76,6.76,0,0,0,2.13,1c.66.17,1.08,1,1.24,2.38.76.17,1.19,0,1.32-.56a5.44,5.44,0,0,0,.06-1.82,1.54,1.54,0,0,1-1.25-.25,6.38,6.38,0,0,1-.94-.87,7.93,7.93,0,0,0-1.06-1,4.4,4.4,0,0,0-1.5-.75Zm2.37-4.75a.8.8,0,0,1,.5,1,5,5,0,0,0,2.32-.25,1.56,1.56,0,0,0,.94-1.62,1.8,1.8,0,0,0-.88-1.19,1.75,1.75,0,0,0-1.31-.12,2.33,2.33,0,0,0-1.19.75A1.7,1.7,0,0,0,99.12,172.12Zm4.76,18a4,4,0,0,0-.5-2.37H102a2.72,2.72,0,0,0,0,2.31C102.33,190.52,103,190.54,103.88,190.12ZM102,176a5.58,5.58,0,0,0,.44,1.44,1.65,1.65,0,0,0,.94.93,11.64,11.64,0,0,0,1.12-1.25q.38-.5-.12-1.62A3.08,3.08,0,0,0,102,176Zm4.25-2q.38-2.88.94-5.5a10.6,10.6,0,0,1,1.93-4.38,2.73,2.73,0,0,0-1.62-.75l-2.25-.25a19.2,19.2,0,0,0-.63,5.82A8.87,8.87,0,0,0,106.25,174Zm0-16.13a3.14,3.14,0,0,1,1.06.69,1.45,1.45,0,0,0,1.31.31,2.31,2.31,0,0,0,0-2.87h-1.37a5.44,5.44,0,0,1-.5,1A8.4,8.4,0,0,0,106.25,157.87ZM110.5,156a.69.69,0,0,1,.62-.75c.42-.08.55-.46.38-1.13a2.64,2.64,0,0,1-1.5-.5,1.81,1.81,0,0,0-.44,1.44C109.6,155.69,109.92,156,110.5,156Z" transform="translate(0 -12.5)"/><path class="cls-2" d="M139.75,160.75c.17.58.35.92.56,1a1.32,1.32,0,0,0,.69.06,2.45,2.45,0,0,0,.75-.25.82.82,0,0,1,.87.19,11.91,11.91,0,0,0-.31,3c0,.83.08,1.62.13,2.37s.06,1.5.06,2.25a12.61,12.61,0,0,1-.38,2.75c-.66-.16-.89-.5-.68-1s.1-.79-.32-.87a12.75,12.75,0,0,1-1.87,7.31,8.34,8.34,0,0,1-2.56,2.56,4.76,4.76,0,0,1-3.57.63c-.16.5-.18.83-.06,1a1.8,1.8,0,0,0,.5.44,1.64,1.64,0,0,1,.5.43c.13.17.11.5-.06,1-.5.5-.92.48-1.25-.06a2,2,0,0,0-1.5-.94,2.15,2.15,0,0,0-.13,2.82,12,12,0,0,1,1.5,2.43,1.39,1.39,0,0,1-1.5.82c-.58-.13-1.2-.27-1.87-.44a3,3,0,0,0-1.63,1.87,11,11,0,0,0-.43,2.69,26.33,26.33,0,0,0,0,2.81,4.42,4.42,0,0,1-.32,2.13,4.73,4.73,0,0,1-3.87-1.69,9.1,9.1,0,0,1-1.5-4,29,29,0,0,1-.25-5.5q.12-3.06,0-6.31-.25-5.62-.63-11t-.37-9.38a1.17,1.17,0,0,1,1.37-.31q.75.31,1.5-.69a1,1,0,0,0-.81-.43l-1.12-.13a1.27,1.27,0,0,1-.88-.44c-.21-.25-.23-.7-.06-1.37.25-.25.46-.35.62-.31a.85.85,0,0,1,.44.25l.44.43a.94.94,0,0,0,.87.13,1.75,1.75,0,0,0-.93-1.19q-.69-.31-1.44-.69a3.68,3.68,0,0,0,.06-1.18q-.06-.69-.12-1.32a1.82,1.82,0,0,1,.12-1c.13-.25.44-.33.94-.25a4.63,4.63,0,0,1-1.19-2.43,14.11,14.11,0,0,1-.12-2.69c0-.92.1-1.85.18-2.81a9.68,9.68,0,0,0-.25-3.07q3.51.13,7.5.63c2.67.33,5.4.69,8.19,1.06s5.67.69,8.63.94a78.76,78.76,0,0,0,8.81.25,17.89,17.89,0,0,1,.12,4.69q-.24,2.06-3,2.43a1.87,1.87,0,0,0,.13,1.57,2,2,0,0,1,.37,1.31,1.68,1.68,0,0,1-1.37.44c-.58,0-1.21-.07-1.88-.07a4.14,4.14,0,0,1-.5,2.82,7.85,7.85,0,0,1-1.93,2.25,10.67,10.67,0,0,1-2.63,1.5A7.24,7.24,0,0,1,139.75,160.75Zm-15.63,3.87a1.37,1.37,0,0,0-.5-1.43,1.42,1.42,0,0,1-.5-1.44,2.21,2.21,0,0,1-1.5,0c-.66-.17-1,0-.87.5a2.09,2.09,0,0,1,1.56,1.25A2,2,0,0,0,124.12,164.62Zm-1.5,1.88a.91.91,0,0,0,.25.94.88.88,0,0,1,.25.93A1.66,1.66,0,0,0,125,166.5a1.63,1.63,0,0,0-1.19-.5A1.65,1.65,0,0,0,122.62,166.5Zm57,10.37a18.81,18.81,0,0,0-.5,5.19c.09,1.71.19,3.38.32,5s.2,3.23.25,4.81a14.4,14.4,0,0,1-.57,4.5q-9.37-.87-18.37-1.18T145,194.5a31.71,31.71,0,0,0-1,8,33.13,33.13,0,0,0,1,8.12c0,.25.08.4.25.44l.5.13a.89.89,0,0,1,.44.25.77.77,0,0,1,.18.56,27.38,27.38,0,0,1,7.69-.44q4.06.31,8.31.88c2.84.37,5.71.71,8.63,1a46,46,0,0,0,8.62.06,1.67,1.67,0,0,0,1.32.75,15.7,15.7,0,0,0,2,.12c.7,0,1.41,0,2.12.07a3.7,3.7,0,0,1,1.69.43,13.88,13.88,0,0,0-.5,4.63c.08,1.67.19,3.35.31,5.06s.19,3.38.19,5a9,9,0,0,1-1,4.31q-4.12,0-7.88-.37c-2.5-.25-5-.54-7.37-.88s-4.79-.66-7.13-1a65.92,65.92,0,0,0-7-.62q-9.62-.37-17.37-.63t-15.88-.75c0-1.75,0-3.43-.06-5.06s-.1-3.33-.19-5.12-.14-3.75-.18-5.88-.07-4.52-.07-7.19a8.67,8.67,0,0,1,2.32-2,19.31,19.31,0,0,1,3.06-1.5,16.32,16.32,0,0,1,3.25-.87,7.42,7.42,0,0,1,2.75,0,2.87,2.87,0,0,0,1.12-.63c.25-.25.5-.47.75-.68a1.73,1.73,0,0,1,.94-.38,3.62,3.62,0,0,1,1.56.31,2.56,2.56,0,0,0-.18-2.25,4.61,4.61,0,0,0-1.32-1,4.39,4.39,0,0,1-1.31-1q-.56-.62-.06-2.37a2.26,2.26,0,0,1,1.62.75,5.43,5.43,0,0,0,1.25,1.12,4.33,4.33,0,0,0-.31-3c-.46-.91-.94-1.81-1.44-2.68a9.65,9.65,0,0,1-1.06-2.88,5.65,5.65,0,0,1,.81-3.69c.5-.5.84-.6,1-.31a1.75,1.75,0,0,0,1,.69c.42-.33.46-.81.13-1.44a1.5,1.5,0,0,1,.25-1.81c.75-.25,1.14-.1,1.19.44s.27.85.68.93a2.25,2.25,0,0,0,.38-1.87,4.74,4.74,0,0,1,.12-2.38,17,17,0,0,1,7.88-2.62,53.8,53.8,0,0,1,9.31.06q4.94.44,10.31,1.13A63.65,63.65,0,0,0,179.62,176.87Zm-56.5-2.37q.88,3.25,4.75,3.87a4.74,4.74,0,0,0-.31-2.43,11.19,11.19,0,0,0-1.06-1.82c-.67,0-1.31,0-1.94-.06A1.81,1.81,0,0,0,123.12,174.5Zm4.25,37a3,3,0,0,0-1.81.19c-.29.21-.77.14-1.44-.19v2.37a5.19,5.19,0,0,0,2.38.5,5.12,5.12,0,0,0,2.37-.5,10.92,10.92,0,0,1-.18-2.25,3.36,3.36,0,0,1,1.06-1.5.77.77,0,0,1,.56.19,2.07,2.07,0,0,1,.31.38,2.64,2.64,0,0,0,.32.37c.12.13.35.15.68.06v-2.37a13.67,13.67,0,0,0-3,.75A2,2,0,0,0,127.37,211.5Zm6.25-40.75c-.41-1.5-1.12-2.33-2.12-2.5a38,38,0,0,0-4.13-.38,3.65,3.65,0,0,1,.32-2.37c.29-.33,1-.33,2.06,0v-1.88c0-.58.33-.87,1-.87a3.56,3.56,0,0,0,1.94,1.06,16.18,16.18,0,0,0,2.81-.19,1.31,1.31,0,0,0-.69-1.25,4.76,4.76,0,0,0-1.56-.5c-.58-.08-1.17-.18-1.75-.31a1.79,1.79,0,0,1-1.25-.81c.17-1.08.29-2.29.37-3.63a3.7,3.7,0,0,0-.87-3,7.06,7.06,0,0,1-.69,3.5c-.54,1.17-1.1,2.38-1.69,3.63a18,18,0,0,0-1.31,4,8.16,8.16,0,0,0,.44,4.5,10.87,10.87,0,0,1,4.12-.56A5.47,5.47,0,0,1,133.62,170.75Zm-1.5-18.5a1.83,1.83,0,0,0,.5-1.38c0-.58-.33-.91-1-1a1.77,1.77,0,0,0-.43,1.44C131.23,151.94,131.54,152.25,132.12,152.25Zm1.5,61.25H135a2.35,2.35,0,0,0,.5-1.69c0-.79-.33-1.19-1-1.19a5.11,5.11,0,0,0-1.25,1.13C132.83,212.25,133,212.83,133.62,213.5Zm3.25-50.38c-.08-.33,0-.54.25-.62a4.7,4.7,0,0,1,.82-.19,1.37,1.37,0,0,0,.68-.25c.17-.12.21-.39.13-.81a2.38,2.38,0,0,0-1.44-.06,2.28,2.28,0,0,0-1.06.56.72.72,0,0,0-.25.75C136.08,162.75,136.37,163,136.87,163.12Zm.5,39.38a1,1,0,0,0,1,.5h3.13a1.32,1.32,0,0,1,1.12.5,1.5,1.5,0,0,0-.68-1.25,4.21,4.21,0,0,0-1.63-.69,4.59,4.59,0,0,0-1.81,0A1.42,1.42,0,0,0,137.37,202.5Zm2.88-13.75c-.08-.58-.19-1.13-.31-1.63s-.52-.75-1.19-.75a7.83,7.83,0,0,0,.19,1.82C139.06,188.73,139.5,188.92,140.25,188.75Zm.87,30.87v-2.37h-1.37c-.17.75-.08,1.27.25,1.56A8,8,0,0,0,141.12,219.62Zm1.88,3.25a3,3,0,0,0,2-.37,1.92,1.92,0,0,0-2-2c-.42.5-.52.87-.31,1.12A2,2,0,0,1,143,222.87Zm-.38-9c.42,0,.59.23.5.69s0,.73.38.81l.87-.87c.25-.25.3-.75.13-1.5C143.33,212.83,142.71,213.12,142.62,213.87Zm40.75-70.12c.09,1,.21,2.23.38,3.69s.31,3,.44,4.75.2,3.43.25,5.18,0,3.38-.07,4.88c-3-.5-5.93-.88-8.81-1.13s-5.75-.45-8.62-.62-5.77-.35-8.69-.56-5.92-.57-9-1.07c0-.25.17-.37.5-.37a2.57,2.57,0,0,0,.87-.13,14.32,14.32,0,0,1,3.69-4.5,48.39,48.39,0,0,1,4.81-3.43c1.67-1,3.27-2.09,4.82-3.13a15.71,15.71,0,0,0,3.81-3.56q3.75.38,6.5.56t7.25.31c.33.17.56.19.69.07a1.07,1.07,0,0,0,.25-.5,1.38,1.38,0,0,1,.18-.5Q182.76,143.5,183.37,143.75Zm-26.12,38.87c0-.5.21-.77.62-.81s.55-.39.38-1.06a1.64,1.64,0,0,1-.81-.44c-.21-.21-.57-.23-1.07-.06a2,2,0,0,0-.31,1.44A2.46,2.46,0,0,0,157.25,182.62Zm4.75,1a7.43,7.43,0,0,0-.38-1.56c-.16-.46-.66-.6-1.5-.44a1.23,1.23,0,0,0-.56,1.07,1.53,1.53,0,0,0,1.38,1.37A1.26,1.26,0,0,0,162,183.62Zm-.88,44.5a4.33,4.33,0,0,1,1.44,0c.54.09.69-.2.44-.87a.41.41,0,0,0-.38-.44l-.75-.12a1.45,1.45,0,0,1-.62-.25c-.17-.13-.21-.36-.13-.69a7.47,7.47,0,0,1,1-.63,2.32,2.32,0,0,0,.88-.75,1.1,1.1,0,0,1-.94.07,3,3,0,0,1-.56-.44c-.17-.17-.36-.33-.56-.5a.9.9,0,0,0-.82-.13c-.41.5-.56.92-.43,1.25a3.72,3.72,0,0,0,.56,1c.25.34.5.69.75,1.07A1.64,1.64,0,0,1,161.12,228.12Zm.38-41.25c.67-.16,1.08-.1,1.25.19s.54.4,1.12.31c.09-.33.17-.6.25-.81s.34-.27.75-.19a2,2,0,0,0-2.37-1.87,2.72,2.72,0,0,0-.5,1.19A2.68,2.68,0,0,1,161.5,186.87Zm1.5-35.12h1.87c0-1.08-.62-1.71-1.87-1.88Zm3.75,37.5a13.64,13.64,0,0,0-.13-1.94c-.08-.62-.5-.94-1.25-.94a5,5,0,0,0-.31,2.07C165.1,189.15,165.67,189.42,166.75,189.25Zm4.75-2.88q.87.88,1.62.57a3.51,3.51,0,0,0,1.38-1.13,13.1,13.1,0,0,0,1.19-1.87,20.7,20.7,0,0,1,1.06-1.82,5.43,5.43,0,0,0-3.31,1.44A9.52,9.52,0,0,0,171.5,186.37Zm3.37-37v1.5a3.5,3.5,0,0,0,2.5.44c1.09-.12,1.67-.6,1.75-1.44A4.3,4.3,0,0,0,174.87,149.37Zm4.25,71.13c-.08.58,0,1,.25,1.19a1,1,0,0,0,.94.18,2.65,2.65,0,0,0,1.06-.5,1.54,1.54,0,0,0,.63-.87c-.5-.5-.92-.58-1.25-.25A1.7,1.7,0,0,1,179.12,220.5Z" transform="translate(0 -12.5)"/><path class="cls-2" d="M261.49,142.25a3.54,3.54,0,0,1-.81,1.62,6.54,6.54,0,0,1-1.31,1.13,9.38,9.38,0,0,0-1.38,1.12,2.92,2.92,0,0,0-.75,1.75c-.66.17-1,0-1.12-.43s-.5-.61-1.25-.44a1.91,1.91,0,0,0-.75,1.12,6.45,6.45,0,0,0-.13,1.19,2.72,2.72,0,0,1-.25,1.13,1.71,1.71,0,0,1-1.25.81,1.14,1.14,0,0,0,1.25.25,12,12,0,0,0,1.5-.63,7.62,7.62,0,0,1,1.5-.56,1.66,1.66,0,0,1,1.5.44,1.94,1.94,0,0,1-.87,1.12l-1.31.75a4.1,4.1,0,0,0-1.13.88,2.22,2.22,0,0,0-.44,1.5c0,.92.3,1.48.88,1.69a2.32,2.32,0,0,0,1.87-.19,6.64,6.64,0,0,0,.07,2.06,1.41,1.41,0,0,0,.93,1.19,9.18,9.18,0,0,1,.82-2.5,17.23,17.23,0,0,1,1.25-2.13c.45-.66.93-1.39,1.43-2.18a12.12,12.12,0,0,0,1.25-2.69c1.09-.17,1.82,0,2.19.5a2.75,2.75,0,0,0,1.56,1,27.2,27.2,0,0,1,2.63,6.44A35.67,35.67,0,0,0,272,165a9.25,9.25,0,0,0,2.5,3.06,12.9,12.9,0,0,1,2.75,3.06c.5.92,1.15,2.15,1.94,3.69s1.56,3.19,2.31,4.94,1.46,3.48,2.13,5.19,1.21,3.1,1.62,4.18a8,8,0,0,1,.57,3.19,6,6,0,0,1-1.07,3.06,13.66,13.66,0,0,1,1.63,2.94,8,8,0,0,0,1.75,2.69.91.91,0,0,0,.75-.06,1.1,1.1,0,0,0,.37-.5.8.8,0,0,1,.38-.44,1.23,1.23,0,0,1,.87.12,15.32,15.32,0,0,0,1.69,5.07c.88,1.62,1.77,3.21,2.69,4.75a34.93,34.93,0,0,1,2.31,4.56,7.31,7.31,0,0,1,.44,4.5,35,35,0,0,1,3.5,5.31,21.17,21.17,0,0,1,2.12,6.56,96.85,96.85,0,0,1-10,0,92.37,92.37,0,0,0-13.25.5,5.58,5.58,0,0,0-1-2.5,5.07,5.07,0,0,1-.87-2.75,2,2,0,0,1,1.31-.25,4.4,4.4,0,0,1,1.13.44c.37.21.77.42,1.18.63a2.79,2.79,0,0,0,1.63.18c.33-.25.46-.47.37-.68a1.6,1.6,0,0,0-.37-.57,1.55,1.55,0,0,1-.38-.62c-.08-.25.05-.58.38-1a14.81,14.81,0,0,0-6.13,0,18.32,18.32,0,0,0-.87-3.69,9.3,9.3,0,0,0-1.63-3,4.66,4.66,0,0,0-2.5-1.56,5.53,5.53,0,0,0-3.62.62c0-.66,0-1.29.06-1.87s-.27-.88-.94-.88c-.25,0-.39.15-.43.44a5.22,5.22,0,0,0-.07.88,6.36,6.36,0,0,1-.06.87.63.63,0,0,1-.44.56,22.68,22.68,0,0,1-4.43.07c-1.46-.13-2.88-.29-4.25-.5l-4.07-.63a24.79,24.79,0,0,0-3.87-.31q-3.5.12-5,1.5a7.54,7.54,0,0,0-2.13,3.56c-.41,1.46-.79,3.13-1.12,5a16.36,16.36,0,0,1-2.13,5.56,107.18,107.18,0,0,0-12.18.19,57.64,57.64,0,0,1-11.07-.19c.17-1.75.42-3.45.75-5.12a4.31,4.31,0,0,1,2.63-3.38,1.4,1.4,0,0,1-.5-.93,2.58,2.58,0,0,1,.19-.94,8.2,8.2,0,0,0,.31-1.06,3.64,3.64,0,0,0,0-1.32,56.83,56.83,0,0,0,3.62-8.81q1.5-4.68,2.94-9.44t3-9.43a61.36,61.36,0,0,1,3.69-8.82,5.09,5.09,0,0,1,.44-3.62,6.42,6.42,0,0,0,.93-3.13c.42-.16.88-.33,1.38-.5a1.49,1.49,0,0,0,1-.87,1,1,0,0,0-.13-.88,7.26,7.26,0,0,0-.56-.5,3.3,3.3,0,0,1-.56-.56,1.12,1.12,0,0,1-.13-.94,85,85,0,0,0,5.63-16.5.45.45,0,0,1,.56-.31,7.31,7.31,0,0,1,.88.19,7.73,7.73,0,0,0,.81.19c.25,0,.46-.15.62-.57,0-.58-.08-.87-.25-.87a2.14,2.14,0,0,0-.62.12,1.3,1.3,0,0,1-.69.07c-.21,0-.31-.32-.31-.82a19,19,0,0,0,1.94-4.62q.67-2.5,1.31-5.25c1.75-.08,3.27-.13,4.56-.13s2.52,0,3.69.07l3.56.12C258.39,142.35,259.83,142.33,261.49,142.25Zm-35,74c.42-.67.75-1.21,1-1.63a4,4,0,0,1,1.75-1.25,5.29,5.29,0,0,1-1.75-.43c-.75-.29-1.25-.15-1.5.43a.39.39,0,0,1,.44.32,4.47,4.47,0,0,1,.06.81,7,7,0,0,1-.06.94A1.81,1.81,0,0,0,226.49,216.25Zm6.13,4.25h1.87c.17-1.25-.12-1.88-.87-1.88a.69.69,0,0,1-.63.75C232.58,219.46,232.45,219.83,232.62,220.5ZM253,186.37c-.25,0-.39-.08-.43-.25a5.22,5.22,0,0,1-.13-.56.92.92,0,0,0-.25-.5.77.77,0,0,0-.56-.19,3.81,3.81,0,0,0-.25,1.44q0,.81.06,1.56c0,.5.11,1,.19,1.44s.08.73,0,.81a1.45,1.45,0,0,1-1.25-.5,5.39,5.39,0,0,1-.63-1.06,3.91,3.91,0,0,0-.62-1,1.52,1.52,0,0,0-1.38-.31,4.65,4.65,0,0,0,.44,2.19,5.06,5.06,0,0,0,1.06,1.37,8.33,8.33,0,0,0,1.25.94,12.31,12.31,0,0,1,1.13.75,3.72,3.72,0,0,0-.06,1.19.55.55,0,0,1-.44.68,5.07,5.07,0,0,1-1-1.37,2,2,0,0,0-1.38-1,1.32,1.32,0,0,1-1,.81,5.19,5.19,0,0,0-1.37.56.65.65,0,0,0,.06.82,6.27,6.27,0,0,1,.56.62,2.18,2.18,0,0,1,.32.5c0,.13-.11.27-.44.44a2.82,2.82,0,0,0-1-.38,7,7,0,0,0-1.31-.12,3,3,0,0,0-1.25.25,1.11,1.11,0,0,0-.69.75c.25-.75.19-1.15-.19-1.19a1,1,0,0,1-.81-.69,3.8,3.8,0,0,1-2.75.82,5.46,5.46,0,0,0-2.88.56v2.37q4.88-.12,8.69-.31a15.7,15.7,0,0,1,7.81,1.81,7.65,7.65,0,0,1,5.44,0q2.19,1,4.56,2.38a13.4,13.4,0,0,0,1.82-1.94,3.24,3.24,0,0,1,2.93-.94,29.4,29.4,0,0,0-.56-7A33.11,33.11,0,0,0,261.56,180a33.29,33.29,0,0,0-3.82-4.63,2.61,2.61,0,0,0-1.81,2.13,29.57,29.57,0,0,0-.44,3.5,20.3,20.3,0,0,1-.5,3.44A2.45,2.45,0,0,1,253,186.37Zm-15.62,1.38a8.62,8.62,0,0,1,1.75-.44,5.22,5.22,0,0,1,1.12,0c.34,0,.73.09,1.19.13a8.29,8.29,0,0,0,2.06-.19,2.7,2.7,0,0,1,.5-1.88,8.34,8.34,0,0,1-3.56.57,10.41,10.41,0,0,1-3.06-1.07,2,2,0,0,0-.5,1.44A2,2,0,0,0,237.37,187.75Zm4.25-18a1.87,1.87,0,0,0-1.38-.5h-1.87a6.31,6.31,0,0,1-.38,1.5,4.77,4.77,0,0,0-.31,1.19,2,2,0,0,0,1.06,2.06,3.38,3.38,0,0,1,1.44-1.5,6.18,6.18,0,0,1,1.94-.5c.75-.08,1.56-.15,2.44-.19a8.29,8.29,0,0,0,2.81-.69,5.07,5.07,0,0,1,.31,1.57c0,.62.4.89,1.06.81a1.68,1.68,0,0,0,.5-1.63,9.39,9.39,0,0,1,0-2.12c.92-.17,1.77-.35,2.57-.56s1-1,.68-2.32a22.8,22.8,0,0,1-2.81.38c-1,.08-2.08.19-3.12.31a15.06,15.06,0,0,0-2.88.63A3.88,3.88,0,0,0,241.62,169.75Zm-1.38-1.5a5.55,5.55,0,0,1,1.57-.69,7,7,0,0,0,1.68-.69V165a5.52,5.52,0,0,0-3,.87C239.58,166.46,239.49,167.25,240.24,168.25Zm1.38,12.87a5.39,5.39,0,0,0-.06-1.81c-.13-.54-.57-.73-1.32-.56a5.12,5.12,0,0,0,.07,1.81C240.43,181.1,240.87,181.29,241.62,181.12Zm-.5,24.63a1.18,1.18,0,0,0,1.06-.19,1,1,0,0,0,.31-.75,1.7,1.7,0,0,0-.25-.87,1.17,1.17,0,0,0-.62-.57,3.66,3.66,0,0,1-.69,1.25C240.64,205,240.7,205.33,241.12,205.75Zm2-22.75h2.25c.33-.67.44-1.15.31-1.44s-.35-.77-.69-1.44h-1.87a2.92,2.92,0,0,0,0,2.88Zm0,7.62a1.58,1.58,0,0,0,.94.38,7.75,7.75,0,0,0,.93-.06l.94-.13a1.58,1.58,0,0,1,.94.19,1.19,1.19,0,0,0-.5-1,1.83,1.83,0,0,0-1.13-.38,3.52,3.52,0,0,0-1.25.25A1.63,1.63,0,0,0,243.12,190.62Zm2.75-37.5a2,2,0,0,1,.37-1.31,3.77,3.77,0,0,0,.63-1.06c-.5,0-.79-.19-.88-.56s-.41-.52-1-.44a2,2,0,0,0-.43,2A1.74,1.74,0,0,0,245.87,153.12Zm.5.5c.58-.08,1,0,1.12.32s.59.35,1.25.18a1.15,1.15,0,0,0-.18-1,1.21,1.21,0,0,0-.82-.43,1.5,1.5,0,0,0-.93.18A.81.81,0,0,0,246.37,153.62Zm1.87-2.87a1.46,1.46,0,0,0,.38-1.69,1.9,1.9,0,0,0-1.25-1.19,2.35,2.35,0,0,0-.56,1.88C246.85,150.58,247.33,150.92,248.24,150.75Zm-.87,10.87a2,2,0,0,1,1.5.94c.33.54.75.56,1.25.06a9.35,9.35,0,0,1-.75-2.12,1.6,1.6,0,0,0-1.63-1.25c-.25.75-.29,1.19-.12,1.31S247.7,161,247.37,161.62Zm3.25,43.63h-2.38a1.12,1.12,0,0,0,.32,1.12,1.41,1.41,0,0,0,.93.38,1.2,1.2,0,0,0,.88-.38A1.22,1.22,0,0,0,250.62,205.25Zm-.5-51.13a3.34,3.34,0,0,0,2.37-.68c.75-.54.63-1-.37-1.32a2,2,0,0,1-1.06.88A1.55,1.55,0,0,0,250.12,154.12Zm0,49.75c1-.33,1.64-.29,1.94.13a2.32,2.32,0,0,0,1.43.87,2.58,2.58,0,0,1-.43-1.81q.06-1.19-.57-1.56c.09.5,0,.83-.12,1a2.28,2.28,0,0,1-.69.44c-.29.12-.6.25-.94.37A1,1,0,0,0,250.12,203.87ZM253,160.25a1.65,1.65,0,0,0-1.87,1.87,4.86,4.86,0,0,1,.81,2.19,3.22,3.22,0,0,0,1.06,2.06,16.35,16.35,0,0,0,4.5.13c1.42-.17,2.82-.35,4.19-.56s2.75-.4,4.13-.57a15.34,15.34,0,0,1,4.31.13c.5-1.5.46-2.54-.13-3.13a3.77,3.77,0,0,0-2.43-1,8.75,8.75,0,0,0-3.32.44,9.66,9.66,0,0,0-2.75,1.31,2.7,2.7,0,0,0-1-1.56,3.31,3.31,0,0,0-2.25-.44c-.33.17-.48.38-.43.63a3.48,3.48,0,0,0,.18.69,2.94,2.94,0,0,1,.19.62c0,.21-.1.36-.44.44a2.12,2.12,0,0,1-1.31-.75,5.14,5.14,0,0,1-.5-1.06,3.66,3.66,0,0,0-.56-1.07,3,3,0,0,0-1.38-.87c.5,0,.67-.38.5-1.13a3.19,3.19,0,0,1,0-1.75c-.5,0-.79-.18-.87-.56s-.46-.48-1.13-.31a3,3,0,0,0-.68,2.25A3.92,3.92,0,0,0,253,160.25Zm-.87,47.87a2.24,2.24,0,0,1,.31-1.31,2,2,0,0,0,.06-1.56h-1.37v1.94C251.12,207.81,251.45,208.12,252.12,208.12Zm-.5-62.12H253c.17-1.33-.29-2-1.37-1.88Zm5.25,65.87a8.05,8.05,0,0,0,.37,1.57c.17.46.67.6,1.5.43V211.5A2.37,2.37,0,0,0,256.87,211.87Zm4.25-9.87a1.14,1.14,0,0,0-.81-.38,3.29,3.29,0,0,0-.88.13c-.29.08-.6.17-.94.25a3.25,3.25,0,0,1-1.25,0,8.74,8.74,0,0,0,.57,6.06,5.87,5.87,0,0,0,4.68,2.94,5.91,5.91,0,0,0-.18-2.38,4,4,0,0,0-.94-1.5A9.38,9.38,0,0,0,260,206a5.47,5.47,0,0,1-1.25-1.13,2.6,2.6,0,0,1,.19-1.25,1.17,1.17,0,0,1,.5-.37l.75-.31A2.5,2.5,0,0,0,261.12,202Zm.87,12.75a2.29,2.29,0,0,0,1.94-.13,2,2,0,0,0,1.44-1.75,1.18,1.18,0,0,0-.94-.87,2.67,2.67,0,0,0-1.37.12,1.93,1.93,0,0,0-1.07,1A1.86,1.86,0,0,0,262,214.75ZM264.87,156a1.86,1.86,0,0,0,.5-1.63q-.12-1-1.5-.75a1,1,0,0,0-.19,1.38A2.15,2.15,0,0,0,264.87,156Zm1,31.25c.33.08.46.42.37,1,1.17-.58,2-.69,2.44-.31a4,4,0,0,1,1.13,1.62q.44,1.06.93,2.19a2,2,0,0,0,1.75,1.25,4.15,4.15,0,0,0,.38-2.81,15.36,15.36,0,0,0-.88-3.44,15.12,15.12,0,0,1-3.62-.38A2.29,2.29,0,0,0,265.87,187.25Zm2.37,24.25a1.57,1.57,0,0,0,.75-1.81,2,2,0,0,0-1.25-1.57,1.16,1.16,0,0,0-.75.69,3.17,3.17,0,0,0-.25,1.25,1.68,1.68,0,0,0,.38,1.13A1.14,1.14,0,0,0,268.24,211.5Zm0-3.88a4.19,4.19,0,0,0,2.32-.12,1.66,1.66,0,0,0,.93-1.75,1.05,1.05,0,0,1-.37-.94c0-.46-.33-.6-1-.44a9.14,9.14,0,0,0-1.81,1.19C267.76,206,267.74,206.71,268.24,207.62Zm.38-6.62h2c.17-.5.33-1.13.5-1.88s-.17-1.2-1-1.37a3.22,3.22,0,0,0-1.75,1.19C267.87,199.56,268,200.25,268.62,201Zm3.87.5a13.93,13.93,0,0,1,1.88,1.12,4.62,4.62,0,0,0,2.37.75,1.72,1.72,0,0,0,.44-1.12c0-.5.06-1.08.06-1.75a16.51,16.51,0,0,0-2.93-.69C273.35,199.69,272.74,200.25,272.49,201.5Zm5.63-6.13a2.26,2.26,0,0,0-.81-2.43,6.65,6.65,0,0,0-2.44-.94,3.86,3.86,0,0,0,.62,3.25C276.16,196.08,277,196.12,278.12,195.37Zm1.5,3.25a.75.75,0,0,0,.94-.18,2.44,2.44,0,0,0,.62-1.07,1.47,1.47,0,0,0-.12-1.18,2.07,2.07,0,0,0-1.44-.82,2.52,2.52,0,0,0-.88,1.69A1.43,1.43,0,0,0,279.62,198.62ZM280,183.5c.92.17,1.38-.15,1.38-.94s-.46-1.1-1.38-.94Zm2,23.62v-1.87c-.91-.17-1.37.15-1.37.94S281.08,207.29,282,207.12Zm.88-8.5a1,1,0,0,0,.25,1,1.43,1.43,0,0,0,.81.44,1.37,1.37,0,0,0,.88-.19.79.79,0,0,0,.43-.75,3.16,3.16,0,0,1-1.12-.75C283.79,198,283.37,198.12,282.87,198.62Zm8.62,7.13a4.62,4.62,0,0,0-2.31-2.88c-1.12-.58-2.27-1.2-3.44-1.87a3.86,3.86,0,0,0,.63,2.19,5.35,5.35,0,0,0,1.5,1.5,8,8,0,0,0,1.87.87A3.85,3.85,0,0,0,291.49,205.75ZM286.24,210c1.34.58,2.13.12,2.38-1.38a2.13,2.13,0,0,1-.88-.43.94.94,0,0,0-1-.07,1.27,1.27,0,0,1-.31.94A1,1,0,0,0,286.24,210ZM290,222.37c.59-.08,1,0,1.13.32s.58.35,1.25.18a2.25,2.25,0,0,0,.44-2,1.55,1.55,0,0,0-1-1.06,1.5,1.5,0,0,0-1.38.38C290,220.56,289.83,221.29,290,222.37Zm2.88-3.37a4,4,0,0,0-.13-1.75c-.16-.5-.58-.71-1.25-.63a1.63,1.63,0,0,0-.37,1.82C291.37,219.15,292,219.33,292.87,219Zm-1.38,8.62h1.88c.58-1.41.08-2.54-1.5-3.37q-.87.87-.75,1.44C291.2,226.06,291.33,226.71,291.49,227.62Zm3.25-15.75a.55.55,0,0,0-.68-.43,11.28,11.28,0,0,1-1.19.06c-.25.42-.27.75-.06,1a1.46,1.46,0,0,0,.81.5.94.94,0,0,0,.87-.19A.89.89,0,0,0,294.74,211.87Z" transform="translate(0 -12.5)"/><path class="cls-2" d="M374.12,217a4.59,4.59,0,0,0,.44,3.19,25.72,25.72,0,0,0,2,3.43l2.37,3.5a14.66,14.66,0,0,1,1.81,3.63q-4.87.25-11.25.25t-12,.25v-1.88a.9.9,0,0,0-1.25.63,1.89,1.89,0,0,1-.31.62c-.12.17-.39.21-.81.13q-2.13-4.12-4.13-8.44t-3.93-8.62q-1.95-4.32-4.07-8.5t-4.5-8.07a20.26,20.26,0,0,0-5.06.13,3.57,3.57,0,0,0-2.94,2.25c-.08,2.92-.08,5.81,0,8.69s.15,5.71.19,8.5,0,5.46-.19,8a43.64,43.64,0,0,1-1,7.06,26.75,26.75,0,0,1-5.12.81l-5.56.38c-1.88.12-3.73.27-5.57.43a45.87,45.87,0,0,0-5.12.75q-.5-9.75-.25-21t.56-22.87q.31-11.62.31-23.19t-1-22.19a3.75,3.75,0,0,1,2.32-.31c.95.13,1.93.21,2.93.25a9.09,9.09,0,0,0,2.69-.25c.79-.21,1.27-.89,1.44-2.06a4.11,4.11,0,0,1-4,1.37,33.65,33.65,0,0,0-5-.37,1.9,1.9,0,0,0-.19-.88,2.23,2.23,0,0,0-.44-.62,1.62,1.62,0,0,1-.37-.69,2.19,2.19,0,0,1,.12-1.19,118.74,118.74,0,0,1,12.25-.12q6.25.25,12.32.62t11.68.57a53.54,53.54,0,0,0,10.25-.57,2.75,2.75,0,0,1,1.32.75c.29.34.64.71,1.06,1.13a33.61,33.61,0,0,1,7.81,2.5,21.14,21.14,0,0,1,5.94,4.12,27,27,0,0,1,3.75,5.25,33.65,33.65,0,0,1,2.87,6.94,31.71,31.71,0,0,1,1.25,8.13,26,26,0,0,1-1.25,8.68,11.74,11.74,0,0,1-1.43,2.69,33.33,33.33,0,0,1-2.5,3.19q-1.44,1.62-2.94,3.12A28.93,28.93,0,0,1,367,189.5a8.25,8.25,0,0,1-1.62.94c-.5.21-1,.41-1.44.62a3.27,3.27,0,0,0-1.12.81,2.64,2.64,0,0,0-.57,1.38,5.2,5.2,0,0,0,.5,3.19c.5,1,1.07,1.91,1.69,2.87s1.19,1.9,1.69,2.81a4.13,4.13,0,0,1,.37,3c.5.67,1.13,1.48,1.88,2.44s1.48,2,2.19,3,1.33,2.06,1.87,3.06.94,1.8,1.19,2.38a.52.52,0,0,1-.19.62c-.21.17-.37.32-.5.44s-.12.19,0,.19A7.84,7.84,0,0,0,374.12,217Zm-64-45.13q.5.25.75-.12a1.63,1.63,0,0,0,.25-.94,2,2,0,0,0-.25-1,.51.51,0,0,0-.75-.19Zm4.62.5a1.78,1.78,0,0,0,.75,1.38,3.34,3.34,0,0,0,1.5.44c.59,0,1.23.06,1.94.06H321a1.59,1.59,0,0,0-.75-1.38,4.65,4.65,0,0,0-1.81-.68,8.53,8.53,0,0,0-2.06-.13A5.55,5.55,0,0,0,314.74,172.37Zm3.88,57.38a3.89,3.89,0,0,0,.25-2.44,13.84,13.84,0,0,1-.25-2.31h-1.5a4.17,4.17,0,0,0,.06,2.56A4.11,4.11,0,0,0,318.62,229.75Zm.5-7.5a.91.91,0,0,0,.94-.25.89.89,0,0,1,.93-.25c0-.67,0-1.23-.06-1.69s-.35-.69-.94-.69a3.7,3.7,0,0,1-.68,1.13A2,2,0,0,0,319.12,222.25Zm2.37-77.88a17.94,17.94,0,0,1,2.57.25,4.6,4.6,0,0,1,2.56,1.25,3.52,3.52,0,0,1,1.56-.87q.94-.25.81-1.5c-1.33-.17-2.7-.31-4.12-.44A3.73,3.73,0,0,0,321.49,144.37Zm1.88,75.88V216.5h-1.5c.08.92.12,1.79.12,2.62S322.45,220.33,323.37,220.25Zm0-20.38a1.7,1.7,0,0,0,.37-1.5c-.08-.66-.54-1-1.37-.87a1.72,1.72,0,0,0-.44,1.62Q322.13,200.13,323.37,199.87Zm1.87-22.75a1,1,0,0,0,.69-.43,1.06,1.06,0,0,1,.69-.44,5.48,5.48,0,0,0-4.25-3.88A5,5,0,0,1,323,174a8.67,8.67,0,0,0,.32,1.31,2.81,2.81,0,0,0,.56,1A3.44,3.44,0,0,0,325.24,177.12Zm-2.87,36.5a.7.7,0,0,1,.5,1,1.63,1.63,0,0,0,1.44-.62c.29-.42.6-.83.93-1.25h-1.87A.91.91,0,0,0,322.37,213.62Zm1.87,9.5a1.84,1.84,0,0,0,.44-1.5c0-.66-.48-1-1.31-.87a1.23,1.23,0,0,0-.38,1.5A1.55,1.55,0,0,0,324.24,223.12Zm0-37.37c.5,0,.67.29.5.87a2.88,2.88,0,0,0,1.94-.12c.46-.25.61-.83.44-1.75h-1.88C324.66,184.75,324.33,185.08,324.24,185.75Zm2.38,36a1.55,1.55,0,0,1,1.44,1,3,3,0,0,0,.93,1.37c.34-.33.48-.6.44-.81a1.87,1.87,0,0,0-.31-.69l-.5-.75a1.26,1.26,0,0,1,0-1.12C327.37,220.58,326.7,220.92,326.62,221.75Zm1.5-23.25a2.41,2.41,0,0,0,2.37-1c-.5,0-.66-.29-.5-.88A1.66,1.66,0,0,0,328.12,198.5Zm.87-14.75a.91.91,0,0,1,.38-.69l.69-.56a1,1,0,0,0,.37-.56c0-.21-.1-.4-.44-.57a1.32,1.32,0,0,1-.5.5,4.19,4.19,0,0,0-.68.57,1.23,1.23,0,0,0-.38.68C328.39,183.37,328.58,183.58,329,183.75Zm20.38-4.25a27.77,27.77,0,0,0,2.81-2.06,10,10,0,0,0,2.38-2.88,12.27,12.27,0,0,0,1.31-3.94,15,15,0,0,0-.25-5.37,9,9,0,0,0-4.25-3.5,21.89,21.89,0,0,0-6.44-1.63,41,41,0,0,0-7.19-.12,33.27,33.27,0,0,0-6.37,1,53.28,53.28,0,0,1,.56,10,54.42,54.42,0,0,0,.44,9.5,80.74,80.74,0,0,1,8.12-.88Q344.75,179.38,349.37,179.5ZM334.24,143v1.37c.42,0,.9,0,1.44.07s.69-.27.44-.94a1.64,1.64,0,0,1-.81-.44C335.1,142.85,334.74,142.83,334.24,143Zm4.75,5.75c.5-.08.67-.48.5-1.19a3,3,0,0,1,0-1.69H338a2.15,2.15,0,0,1,.07.94,7.65,7.65,0,0,0-.07,1,1.49,1.49,0,0,0,.19.75C338.31,148.77,338.58,148.83,339,148.75Zm6.63,5.62a2.6,2.6,0,0,0,1.87-.5c.09-1.08-.54-1.54-1.87-1.37ZM348,214.12a11.45,11.45,0,0,1,3.19.88,14.89,14.89,0,0,0,3.94,1,3.5,3.5,0,0,0,.5-2.38,8.26,8.26,0,0,0-1.56-.68,7.84,7.84,0,0,0-2.07-.38,6.36,6.36,0,0,0-2.18.25A3.52,3.52,0,0,0,348,214.12ZM349.37,152v1.87a3.45,3.45,0,0,0,.94-.56,5.91,5.91,0,0,0,1-1,1.7,1.7,0,0,0,.43-1q0-.44-.87-.69Q351.25,152.38,349.37,152Zm6.75,30.37V180.5a4,4,0,0,0-2.38-.5A2.46,2.46,0,0,0,356.12,182.37Zm.37,31.25v2a3.4,3.4,0,0,1,2.38-.12,19.45,19.45,0,0,0,1.94.56,1.54,1.54,0,0,0,1.37-.25c.38-.29.56-1.14.56-2.56a15.71,15.71,0,0,0-3.25-.13C358.83,213.21,357.83,213.37,356.49,213.62Zm6.63-39.75a3.15,3.15,0,0,0,1.06-2.37,12.92,12.92,0,0,1,.44-2.88,2.26,2.26,0,0,0-1.56,1,3,3,0,0,0-.44,1.57,6.17,6.17,0,0,0,.19,1.56C362.93,173.25,363,173.62,363.12,173.87Zm2,38.88a2.17,2.17,0,0,1,.37-.81c.17-.21.17-.57,0-1.07-.58-.33-.93-.43-1.06-.31s-.56.06-1.31-.19c-.17.92,0,1.53.37,1.82A3.57,3.57,0,0,0,365.12,212.75Zm-1.5-29.88c-.17.75,0,1.17.56,1.25a2.35,2.35,0,0,1,1.31.63v-2.38A3,3,0,0,0,363.62,182.87Z" transform="translate(0 -12.5)"/><path class="cls-2" d="M406.62,160.75c.16.58.35.92.56,1a1.32,1.32,0,0,0,.69.06,2.45,2.45,0,0,0,.75-.25.82.82,0,0,1,.87.19,11.91,11.91,0,0,0-.31,3c0,.83.08,1.62.13,2.37s.06,1.5.06,2.25a12.61,12.61,0,0,1-.38,2.75c-.66-.16-.89-.5-.68-1s.1-.79-.32-.87a11.82,11.82,0,0,1-.37,3.75,12.27,12.27,0,0,1-1.5,3.56,8.34,8.34,0,0,1-2.56,2.56,4.76,4.76,0,0,1-3.57.63c-.16.5-.18.83-.06,1a1.8,1.8,0,0,0,.5.44,1.64,1.64,0,0,1,.5.43c.13.17.1.5-.06,1-.5.5-.92.48-1.25-.06a2,2,0,0,0-1.5-.94,2.15,2.15,0,0,0-.13,2.82,12,12,0,0,1,1.5,2.43,1.39,1.39,0,0,1-1.5.82c-.58-.13-1.21-.27-1.87-.44a3,3,0,0,0-1.63,1.87,11,11,0,0,0-.43,2.69,26.33,26.33,0,0,0,0,2.81,4.42,4.42,0,0,1-.32,2.13,4.73,4.73,0,0,1-3.87-1.69,9.1,9.1,0,0,1-1.5-4,28.15,28.15,0,0,1-.25-5.5q.12-3.06,0-6.31-.25-5.62-.63-11t-.37-9.38a1.17,1.17,0,0,1,1.37-.31q.75.31,1.5-.69a1,1,0,0,0-.81-.43l-1.12-.13a1.27,1.27,0,0,1-.88-.44c-.21-.25-.23-.7-.06-1.37.25-.25.46-.35.62-.31a.85.85,0,0,1,.44.25l.44.43a.94.94,0,0,0,.87.13,1.75,1.75,0,0,0-.93-1.19q-.69-.31-1.44-.69a3.68,3.68,0,0,0,.06-1.18q-.06-.69-.12-1.32a1.82,1.82,0,0,1,.12-1c.13-.25.44-.33.94-.25a4.63,4.63,0,0,1-1.19-2.43,14.11,14.11,0,0,1-.12-2.69c0-.92.1-1.85.18-2.81a9.68,9.68,0,0,0-.25-3.07q3.51.13,7.5.63c2.67.33,5.4.69,8.19,1.06s5.67.69,8.63.94a78.76,78.76,0,0,0,8.81.25,17.89,17.89,0,0,1,.12,4.69q-.24,2.06-3,2.43a1.87,1.87,0,0,0,.13,1.57,2,2,0,0,1,.37,1.31,1.68,1.68,0,0,1-1.37.44c-.59,0-1.21-.07-1.88-.07a4.14,4.14,0,0,1-.5,2.82,7.85,7.85,0,0,1-1.93,2.25,10.67,10.67,0,0,1-2.63,1.5A7.24,7.24,0,0,1,406.62,160.75ZM391,164.62a1.37,1.37,0,0,0-.5-1.43,1.42,1.42,0,0,1-.5-1.44,2.21,2.21,0,0,1-1.5,0c-.66-.17-1,0-.87.5a2.09,2.09,0,0,1,1.56,1.25A2,2,0,0,0,391,164.62Zm-1.5,1.88a.91.91,0,0,0,.25.94.88.88,0,0,1,.25.93,1.25,1.25,0,1,0-.5-1.87Zm57,10.37a18.81,18.81,0,0,0-.5,5.19c.09,1.71.19,3.38.32,5s.2,3.23.25,4.81a14.4,14.4,0,0,1-.57,4.5q-9.37-.87-18.37-1.18t-15.75-.69a31.71,31.71,0,0,0-1,8,33.13,33.13,0,0,0,1,8.12c0,.25.08.4.25.44l.5.13a.93.93,0,0,1,.44.25.77.77,0,0,1,.18.56,27.38,27.38,0,0,1,7.69-.44q4.06.31,8.31.88c2.84.37,5.71.71,8.63,1a46,46,0,0,0,8.62.06,1.67,1.67,0,0,0,1.32.75,15.7,15.7,0,0,0,2,.12c.7,0,1.41,0,2.12.07a3.7,3.7,0,0,1,1.69.43,13.63,13.63,0,0,0-.5,4.63c.08,1.67.19,3.35.31,5.06s.19,3.38.19,5a9.08,9.08,0,0,1-1,4.31q-4.12,0-7.88-.37t-7.37-.88c-2.42-.33-4.79-.66-7.13-1a65.92,65.92,0,0,0-7-.62c-6.41-.25-12.21-.46-17.37-.63s-10.46-.41-15.88-.75c0-1.75,0-3.43-.06-5.06s-.1-3.33-.19-5.12-.14-3.75-.18-5.88-.07-4.52-.07-7.19a8.67,8.67,0,0,1,2.32-2,18.89,18.89,0,0,1,3.06-1.5,16.14,16.14,0,0,1,3.25-.87,7.42,7.42,0,0,1,2.75,0,2.87,2.87,0,0,0,1.12-.63c.25-.25.5-.47.75-.68a1.73,1.73,0,0,1,.94-.38,3.62,3.62,0,0,1,1.56.31,2.56,2.56,0,0,0-.18-2.25,4.61,4.61,0,0,0-1.32-1,4.39,4.39,0,0,1-1.31-1c-.37-.41-.4-1.2-.06-2.37a2.26,2.26,0,0,1,1.62.75,5.43,5.43,0,0,0,1.25,1.12,4.33,4.33,0,0,0-.31-3c-.46-.91-.94-1.81-1.44-2.68a9.65,9.65,0,0,1-1.06-2.88,5.65,5.65,0,0,1,.81-3.69c.5-.5.84-.6,1-.31a1.75,1.75,0,0,0,1,.69c.42-.33.46-.81.13-1.44a1.48,1.48,0,0,1,.25-1.81c.75-.25,1.14-.1,1.19.44s.27.85.68.93a2.29,2.29,0,0,0,.38-1.87,4.74,4.74,0,0,1,.12-2.38,17,17,0,0,1,7.88-2.62,53.8,53.8,0,0,1,9.31.06q4.94.44,10.31,1.13A63.65,63.65,0,0,0,446.49,176.87ZM390,174.5q.88,3.25,4.75,3.87a4.74,4.74,0,0,0-.31-2.43,12,12,0,0,0-1.06-1.82c-.67,0-1.31,0-1.94-.06A1.81,1.81,0,0,0,390,174.5Zm4.25,37a3,3,0,0,0-1.81.19c-.29.21-.77.14-1.44-.19v2.37a5.89,5.89,0,0,0,4.75,0,10.92,10.92,0,0,1-.18-2.25,3.36,3.36,0,0,1,1.06-1.5.77.77,0,0,1,.56.19,2.07,2.07,0,0,1,.31.38,2.64,2.64,0,0,0,.32.37c.12.13.35.15.68.06v-2.37a13.67,13.67,0,0,0-3,.75A2,2,0,0,0,394.24,211.5Zm6.25-40.75c-.41-1.5-1.12-2.33-2.12-2.5a38,38,0,0,0-4.13-.38,3.65,3.65,0,0,1,.32-2.37c.29-.33,1-.33,2.06,0v-1.88c0-.58.33-.87,1-.87a3.56,3.56,0,0,0,1.94,1.06,16.23,16.23,0,0,0,2.81-.19,1.31,1.31,0,0,0-.69-1.25,4.76,4.76,0,0,0-1.56-.5c-.59-.08-1.17-.18-1.75-.31a1.77,1.77,0,0,1-1.25-.81c.16-1.08.29-2.29.37-3.63a3.73,3.73,0,0,0-.87-3,7.06,7.06,0,0,1-.69,3.5c-.54,1.17-1.1,2.38-1.69,3.63a18,18,0,0,0-1.31,4,8.07,8.07,0,0,0,.44,4.5,10.87,10.87,0,0,1,4.12-.56A5.47,5.47,0,0,1,400.49,170.75Zm-1.5-18.5a1.83,1.83,0,0,0,.5-1.38c0-.58-.33-.91-1-1a1.77,1.77,0,0,0-.43,1.44C398.1,151.94,398.41,152.25,399,152.25Zm1.5,61.25h1.38a2.35,2.35,0,0,0,.5-1.69c0-.79-.34-1.19-1-1.19a4.94,4.94,0,0,0-1.25,1.13C399.7,212.25,399.83,212.83,400.49,213.5Zm3.25-50.38c-.08-.33,0-.54.25-.62a4.7,4.7,0,0,1,.82-.19,1.37,1.37,0,0,0,.68-.25c.17-.12.21-.39.13-.81a2.38,2.38,0,0,0-1.44-.06,2.28,2.28,0,0,0-1.06.56.7.7,0,0,0-.25.75C403,162.75,403.24,163,403.74,163.12Zm.5,39.38a1,1,0,0,0,1,.5h3.13a1.32,1.32,0,0,1,1.12.5,1.5,1.5,0,0,0-.68-1.25,4.21,4.21,0,0,0-1.63-.69,4.59,4.59,0,0,0-1.81,0A1.4,1.4,0,0,0,404.24,202.5Zm2.88-13.75c-.09-.58-.19-1.13-.31-1.63s-.53-.75-1.19-.75a7.83,7.83,0,0,0,.19,1.82C405.93,188.73,406.37,188.92,407.12,188.75Zm.87,30.87v-2.37h-1.37c-.17.75-.09,1.27.25,1.56A8,8,0,0,0,408,219.62Zm1.88,3.25a3,3,0,0,0,2-.37,1.93,1.93,0,0,0-2-2c-.42.5-.52.87-.31,1.12A2,2,0,0,1,409.87,222.87Zm-.38-9c.42,0,.59.23.5.69s0,.73.38.81l.87-.87c.25-.25.29-.75.13-1.5C410.2,212.83,409.58,213.12,409.49,213.87Zm40.75-70.12c.09,1,.21,2.23.38,3.69s.31,3,.44,4.75.2,3.43.25,5.18,0,3.38-.07,4.88c-3-.5-5.93-.88-8.81-1.13s-5.75-.45-8.62-.62-5.78-.35-8.69-.56-5.92-.57-9-1.07c0-.25.16-.37.5-.37a2.57,2.57,0,0,0,.87-.13,14.32,14.32,0,0,1,3.69-4.5,48.39,48.39,0,0,1,4.81-3.43c1.67-1,3.27-2.09,4.82-3.13a15.71,15.71,0,0,0,3.81-3.56c2.5.25,4.66.44,6.5.56s4.25.23,7.25.31c.33.17.56.19.69.07a1.07,1.07,0,0,0,.25-.5,1.38,1.38,0,0,1,.18-.5Q449.63,143.5,450.24,143.75Zm-26.12,38.87c0-.5.21-.77.62-.81s.54-.39.38-1.06a1.59,1.59,0,0,1-.81-.44c-.21-.21-.57-.23-1.07-.06a2,2,0,0,0-.31,1.44A2.46,2.46,0,0,0,424.12,182.62Zm4.75,1a8.1,8.1,0,0,0-.38-1.56c-.16-.46-.66-.6-1.5-.44a1.23,1.23,0,0,0-.56,1.07,1.53,1.53,0,0,0,1.38,1.37A1.27,1.27,0,0,0,428.87,183.62Zm-.88,44.5a4.33,4.33,0,0,1,1.44,0c.54.09.69-.2.44-.87a.41.41,0,0,0-.38-.44l-.75-.12a1.4,1.4,0,0,1-.62-.25c-.17-.13-.21-.36-.13-.69a7.47,7.47,0,0,1,1-.63,2.32,2.32,0,0,0,.88-.75,1.1,1.1,0,0,1-.94.07,2.72,2.72,0,0,1-.56-.44c-.17-.17-.36-.33-.56-.5a.9.9,0,0,0-.82-.13c-.41.5-.56.92-.43,1.25a3.72,3.72,0,0,0,.56,1c.25.34.5.69.75,1.07A1.64,1.64,0,0,1,428,228.12Zm.38-41.25c.66-.16,1.08-.1,1.25.19s.54.4,1.12.31c.09-.33.17-.6.25-.81s.34-.27.75-.19a2,2,0,0,0-2.37-1.87,2.72,2.72,0,0,0-.5,1.19A2.8,2.8,0,0,1,428.37,186.87Zm1.5-35.12h1.87c0-1.08-.62-1.71-1.87-1.88Zm3.75,37.5a13.64,13.64,0,0,0-.13-1.94c-.08-.62-.5-.94-1.25-.94a5,5,0,0,0-.31,2.07C432,189.15,432.53,189.42,433.62,189.25Zm4.75-2.88q.87.88,1.62.57a3.51,3.51,0,0,0,1.38-1.13,14,14,0,0,0,1.19-1.87,18.46,18.46,0,0,1,1.06-1.82,5.43,5.43,0,0,0-3.31,1.44A9.52,9.52,0,0,0,438.37,186.37Zm3.37-37v1.5a3.5,3.5,0,0,0,2.5.44c1.09-.12,1.67-.6,1.75-1.44A4.3,4.3,0,0,0,441.74,149.37ZM446,220.5c-.08.58,0,1,.25,1.19a1,1,0,0,0,.94.18,2.65,2.65,0,0,0,1.06-.5,1.58,1.58,0,0,0,.63-.87c-.5-.5-.92-.58-1.25-.25A1.7,1.7,0,0,1,446,220.5Z" transform="translate(0 -12.5)"/></g></g></g></g></svg>