<svg xmlns="http://www.w3.org/2000/svg" viewBox="0 0 431.59 96.63"><defs><style>.cls-1{fill:#383736;}</style></defs><g id="レイヤー_2" data-name="レイヤー 2"><g id="レイヤー_1-2" data-name="レイヤー 1"><path class="cls-1" d="M23.25.5a8.46,8.46,0,0,1,1.44,2.56,10.52,10.52,0,0,1,.5,2.75q.06,1.44.12,2.94a29.83,29.83,0,0,0,.31,3.13,34.4,34.4,0,0,0,1.44,5.18q.95,2.57,1.63,5.19a26.09,26.09,0,0,1,.81,5.37,13.71,13.71,0,0,1-1,5.63,6.47,6.47,0,0,1,2.44,3.63,37.4,37.4,0,0,1,1.06,5c.25,1.74.56,3.43.94,5.06a6.83,6.83,0,0,0,2.18,3.81q2.76-9.26,6.13-17.81T47.5,15.25a3.13,3.13,0,0,1,1.62-.37,1.86,1.86,0,0,0,1.63-1.13A6,6,0,0,1,50,10.81a12.1,12.1,0,0,1,.38-3.06,26.5,26.5,0,0,1,.93-3c.38-1,.69-2,.94-2.87q4,.24,8.37.68a30.75,30.75,0,0,0,8.13-.18,50.11,50.11,0,0,1,2.5,11A59.23,59.23,0,0,0,73.5,24.25a15.08,15.08,0,0,0,1.25,2.63,10.65,10.65,0,0,1,1.13,2.62q.87,2.88,1.62,5.81L79,41.19c.5,2,1.06,3.85,1.69,5.69A37.14,37.14,0,0,0,83,52.25a44,44,0,0,0,3.44-9.56q1.19-5.07,2.31-10.19t2.56-10a37,37,0,0,1,4.07-9.12,2.48,2.48,0,0,1,2.37.87,4.69,4.69,0,0,0,1.87,1.5c.59-.25.76-.77.5-1.56s-.58-1.23-1-1.31a14.57,14.57,0,0,0,1.63-.82,1.65,1.65,0,0,0,.75-1.56,6.29,6.29,0,0,0-1.31.12,8.7,8.7,0,0,1-1.19.19,7.47,7.47,0,0,1-1.5,0,16.42,16.42,0,0,1-2.12-.31,2.78,2.78,0,0,1,.43-1.38,1.21,1.21,0,0,1,.75-.43,3.77,3.77,0,0,0,.88-.25,1.93,1.93,0,0,0,.81-.82,1,1,0,0,0-.31-1A5.65,5.65,0,0,0,97,6a2,2,0,0,1-.69-.5c-.12-.17,0-.42.44-.75a6.92,6.92,0,0,1,2.94-1.06,17.76,17.76,0,0,1,3.37-.07l3.69.26a29.33,29.33,0,0,0,3.75,0,1.54,1.54,0,0,1-.25,1.56c-.33.29-.42.85-.25,1.68a1.26,1.26,0,0,0,1.38-.93,7,7,0,0,0,.12-2.31,2.12,2.12,0,0,0,1.62.12c.67-.17,1.38-.33,2.13-.5a10.14,10.14,0,0,1,2.25-.25,3.33,3.33,0,0,1,2,.63q-3.12,9.12-5.38,18.31t-5.5,19.56a2.83,2.83,0,0,1-2-.37,2.67,2.67,0,0,0-1.74-.5c-.76,1.16-.65,1.95.31,2.37a11.87,11.87,0,0,0,2.93.87,11.45,11.45,0,0,1-1.24,3.69,21.41,21.41,0,0,1-2,2.94,76.42,76.42,0,0,1-2.38,11.5q-1.62,5.63-3.56,11.19T95,84.56q-2,5.56-3.5,11.32-3.87-.25-8.19-.32t-9.81-.18a85.1,85.1,0,0,0-3.12-8,54.42,54.42,0,0,1-3-8.63,7,7,0,0,1-.26-2.69,6.4,6.4,0,0,0-.24-2.56,2.6,2.6,0,0,0-.94-1.38A2.49,2.49,0,0,1,65,70.75a33.3,33.3,0,0,1-1.62-6.56q-.51-3.44-1.26-6.44a16.24,16.24,0,0,0-2.18-5.13,6.74,6.74,0,0,0-4.44-2.74,1.7,1.7,0,0,0,.25,1.06,2.65,2.65,0,0,0,.63.56,6.13,6.13,0,0,1,.68.56,1.46,1.46,0,0,1,.32,1.06Q54,63.5,49.75,73.94t-8,21.44a18.76,18.76,0,0,1-3.81.43c-1.55,0-3.15,0-4.82-.06l-4.87-.25c-1.58-.08-2.92-.12-4-.12q-4.76-15.63-8.31-31.26T8.5,33.75a.77.77,0,0,1,.88-.63c.5,0,.7-.29.62-.87,0-.42-.11-.6-.31-.56a1.33,1.33,0,0,0-.57.25l-.43.31c-.13.08-.19,0-.19-.37q-2.13-8.39-3.94-16T0,0C2,0,3.89,0,5.69.12s3.58.15,5.37.19l5.63.13Q19.62.5,23.25.5ZM4.75,12.38H6.62c.17-.84,0-1.34-.37-1.5a6.31,6.31,0,0,0-1.5-.38Zm2.87,4.74c.76.17,1.23.09,1.44-.24a1.89,1.89,0,0,1,.94-.76,2.13,2.13,0,0,0,.75,1.5,7.45,7.45,0,0,0,1.37.88l1.5.75a2.47,2.47,0,0,1,1.13,1.13,10,10,0,0,0-1.69.12.78.78,0,0,0-.68.88c.33.08.5.41.5,1a1.94,1.94,0,0,1,2.31.24,22.51,22.51,0,0,0,1.93,1.63c.09-.83.71-1.17,1.88-1a2.46,2.46,0,0,1,.25,1.44,4.71,4.71,0,0,0,.25,1.93,2.8,2.8,0,0,1,1.44.63A13.25,13.25,0,0,1,22,28.31a13.38,13.38,0,0,0,1.06,1.07,2.3,2.3,0,0,0,1.56.5,2.52,2.52,0,0,0,.26-1.57,5.59,5.59,0,0,1,.24-2.19,1.11,1.11,0,0,0-.93-.06,3.94,3.94,0,0,0-.63.5,3.22,3.22,0,0,1-.5.44c-.12.08-.23,0-.31-.38a2.87,2.87,0,0,0,0-2.37,6.54,6.54,0,0,0-1.13-1.31,8.33,8.33,0,0,1-1.12-1.25,2.64,2.64,0,0,1-.12-2.19,3.26,3.26,0,0,1-2.57.81,7.57,7.57,0,0,0-2.56.07,12.07,12.07,0,0,0-2.94-4.13C11.1,15.17,9.83,14,8.5,12.88a3.25,3.25,0,0,1,.31,1.37,1.65,1.65,0,0,1-.37.75,5.07,5.07,0,0,0-.56.81A2.68,2.68,0,0,0,7.62,17.12Zm4.76-10.5A2.51,2.51,0,0,0,10,3.88,2.41,2.41,0,0,0,12.38,6.62Zm-.5,20.5,2.24,1.26a8.31,8.31,0,0,1,2,1.5,4.82,4.82,0,0,0-.31,1.37,1.13,1.13,0,0,1-.56,1c-.5.17-.81.17-.94,0a2.18,2.18,0,0,1-.31-.63,2.39,2.39,0,0,0-.31-.62q-.19-.26-.81-.12v1.87a9.33,9.33,0,0,1,4.74,1.87c.26-.74.61-1.16,1.07-1.24a3.31,3.31,0,0,1,1.62.18,12.89,12.89,0,0,1,2,.88,6.11,6.11,0,0,0,1.94.68q-.12-1.36.06-1.56c.13-.12.57-.06,1.31.19a2.55,2.55,0,0,0-1.06-1.56,4.53,4.53,0,0,0-1.94-.75,6.08,6.08,0,0,0-4.12.81,3.05,3.05,0,0,0-.56-1.87c-.38-.5-.75-1-1.13-1.44a5.71,5.71,0,0,1-.87-1.44,2.38,2.38,0,0,1,.18-1.88,3.38,3.38,0,0,1-2.56.63A1.36,1.36,0,0,0,11.88,27.12Zm3.74,9.38V34.62a1.19,1.19,0,0,0-1,.19,1,1,0,0,0-.37.75,1,1,0,0,0,.37.75A1.16,1.16,0,0,0,15.62,36.5Zm-.87,3.88a1.5,1.5,0,0,1,1.5-.38,12.67,12.67,0,0,0,1.37.38,3.12,3.12,0,0,1-.37-1.57,1.4,1.4,0,0,0-.63-1.31.91.91,0,0,1-.5.81l-1,.63a3,3,0,0,0-.74.62C14.21,39.77,14.33,40,14.75,40.38ZM17.12,19q3,.38,2.88-2.38a1.87,1.87,0,0,0-2.38-.24C16.88,16.88,16.71,17.75,17.12,19ZM19,15.25a8.19,8.19,0,0,0,1.56-.13,1,1,0,0,0,.82-.87,1.73,1.73,0,0,0-1.63-.44Q18.74,14,19,15.25Zm1,28.87c-.17-.5-.19-.83-.06-1a1.64,1.64,0,0,1,.5-.43,3.26,3.26,0,0,1,.62-.31.61.61,0,0,0,.32-.63c-.5.17-.8.17-.88,0a1.14,1.14,0,0,1-.06-.69,6,6,0,0,0,.06-.81c0-.25-.17-.37-.5-.37a19.14,19.14,0,0,0-.94,2.24A1.54,1.54,0,0,0,20,44.12Zm3.25,26.13c1.17,0,1.75-.39,1.75-1.19a1.73,1.73,0,0,0-1.25-1.68c-.33.66-.56,1.14-.69,1.43A2.17,2.17,0,0,0,23.25,70.25Zm0-47c.33.08.5.42.5,1a5.17,5.17,0,0,1,1.75-.69,8.19,8.19,0,0,0,1.5-.31c-.08-.58-.27-.94-.56-1.06a1.6,1.6,0,0,0-1-.07,4.53,4.53,0,0,0-1.19.5C23.83,22.88,23.5,23.08,23.25,23.25ZM45.12,57.38H46.5c.17-1.17-.17-1.8-1-1.88a2,2,0,0,1-.38.81A1.21,1.21,0,0,0,45.12,57.38ZM47,25.12c0,.5,0,1.09.06,1.76a5.3,5.3,0,0,0,.5,1.93,4.45,4.45,0,0,0,1.19,1.57,2.64,2.64,0,0,0,2,.5,4.18,4.18,0,0,0,.37-1.63q0-.75-.06-1.5l-.12-1.5a2.71,2.71,0,0,1,.31-1.5.94.94,0,0,1-.63-.37c-.08-.17-.33-.21-.74-.13-.26.92-.57,1.33-.94,1.25S47.92,25.29,47,25.12Zm1.38,15.26A4,4,0,0,0,49.44,42c.45.42.89.83,1.31,1.25a3.4,3.4,0,0,0,0-1.87c-.17-.42-.33-.92-.5-1.5A2.9,2.9,0,0,0,48.38,40.38Zm2.87-17.13h1.87V21.38a1.45,1.45,0,0,0-1.06-.5,1.3,1.3,0,0,0-.94.37,1.55,1.55,0,0,0-.43.94A1.17,1.17,0,0,0,51.25,23.25Zm.5,23.25a.94.94,0,0,0,.81-.5A3.24,3.24,0,0,0,53,44.88a4.45,4.45,0,0,0,.06-1.26,1.09,1.09,0,0,0-.44-.87,1.33,1.33,0,0,0-.93,1.37A14.75,14.75,0,0,0,51.75,46.5Zm1.37-28c-.41.75-.1,1.38.94,1.88a12.2,12.2,0,0,0,2.82,1,3.12,3.12,0,0,0,.5-2.38q-.89-.37-2.07-.81A2.19,2.19,0,0,0,53.12,18.5Zm1-3.25a1.3,1.3,0,0,0,.82-.63,5.42,5.42,0,0,0,.5-1.06,4.67,4.67,0,0,1,.5-1.06,1.34,1.34,0,0,1,.94-.62A2.46,2.46,0,0,0,54.5,9.5a3.23,3.23,0,0,0-.38,1.44,7.85,7.85,0,0,0,.13,1.37c.08.46.14.94.19,1.44A2.73,2.73,0,0,1,54.12,15.25ZM56,26.62a4.29,4.29,0,0,0,.12,2.32,1.69,1.69,0,0,0,1.76.94,1.88,1.88,0,0,1,.56-1.5,2.91,2.91,0,0,1,1.31-.69,9,9,0,0,1,1.69-.25,6.51,6.51,0,0,0,1.68-.32V24.75a34.48,34.48,0,0,1-3.43.87A35.2,35.2,0,0,0,56,26.62Zm1.38-9.5c.58-.16,1.14-.33,1.68-.5s.77-.62.69-1.37c-.33-.08-.5-.42-.5-1H56.88c0,.58,0,1.13.06,1.63A2.23,2.23,0,0,0,57.38,17.12Zm1,3.76v1a.44.44,0,0,1,.5.5h.87c0-.42.17-.59.5-.5v-1a.44.44,0,0,1-.5-.5h-.87C58.71,20.79,58.54,21,58.38,20.88ZM60.75,7.62V9.5a2.72,2.72,0,0,0,1.19.5,2.73,2.73,0,0,1,1.18.5V7.12A3.53,3.53,0,0,0,60.75,7.62Zm2.87,31.26q1,.87,1.26.81a5.48,5.48,0,0,1,1.5.19,1.74,1.74,0,0,0,.5-1.82c-.17-.79-.34-1.44-.5-1.94-1.17-.24-2-.12-2.38.38A3,3,0,0,0,63.62,38.88ZM66,23.75c.08-1.08-.58-1.54-2-1.37a2.17,2.17,0,0,0,.75,1.5A.84.84,0,0,0,66,23.75Zm1.88,9.5a4.87,4.87,0,0,0,0-3.75,2.11,2.11,0,0,0-2.07.25,2,2,0,0,0-.69,1.5,2.14,2.14,0,0,0,.69,1.56A2.21,2.21,0,0,0,67.88,33.25Zm-.5-6.13a10,10,0,0,0,.31-1.56c0-.45-.4-.73-1.31-.81a1.53,1.53,0,0,0-.38.69,1.4,1.4,0,0,0,0,.81,1.73,1.73,0,0,0,.44.69A1,1,0,0,0,67.38,27.12Zm1-5.24h-2a1.13,1.13,0,0,0,.18,1,1.08,1.08,0,0,0,1.63,0A1.19,1.19,0,0,0,68.38,21.88Zm-.5,26.5a3.53,3.53,0,0,0,.87-2.76,3.31,3.31,0,0,0-2.37-.5,22.1,22.1,0,0,1,.12,2.32C66.5,48.23,67,48.54,67.88,48.38Zm0-31.26a12.49,12.49,0,0,1,1.37-1.62,9.4,9.4,0,0,0,1.37-1.75,3.6,3.6,0,0,0-1.74.19,3.28,3.28,0,0,0-1.38.87A1.79,1.79,0,0,0,67,16C67,16.42,67.29,16.79,67.88,17.12Zm-.5,45.5c-.17.92,0,1.5.43,1.76a3,3,0,0,0,1.94.12c.17-1.17,0-1.88-.5-2.12A2,2,0,0,0,67.38,62.62ZM68.75,11A4,4,0,0,0,69,9.06a1.87,1.87,0,0,0-1.12-1.44c.08.67.16,1.3.24,1.88A3.17,3.17,0,0,0,68.75,11Zm7.13,62.5a.77.77,0,0,1-.69-.75c0-.42-.44-.46-1.19-.13V74.5a4.44,4.44,0,0,1,1.75-.12q.38.12.63,1.5a4,4,0,0,1,.93-.19,3.57,3.57,0,0,0,1-.25,1.81,1.81,0,0,0,.69-.5,1.47,1.47,0,0,0,.25-.94,1.74,1.74,0,0,1-.94-.69,4.92,4.92,0,0,1-.69-1.19c-.16-.41-.31-.76-.43-1.06s-.23-.39-.31-.31a2.91,2.91,0,0,0-.38,1.56A1.14,1.14,0,0,1,75.88,73.5Zm3.37,3.38a2.55,2.55,0,0,1,1.25.87,1.7,1.7,0,0,0,1.62.5,2.92,2.92,0,0,0,.19-1.13,6.47,6.47,0,0,1,.19-1.62,3.28,3.28,0,0,0-2.38-.5c-.16.33-.31.62-.43.88A10.92,10.92,0,0,0,79.25,76.88Zm1.87,10.87c1.34.17,2-.29,1.88-1.37-.33,0-.54-.11-.62-.32s-.34-.27-.76-.18a1.76,1.76,0,0,1-.43.81C81,86.9,81,87.25,81.12,87.75Zm1.38,6.63V92.5H81.12a4,4,0,0,0,.07,1.62C81.31,94.54,81.75,94.62,82.5,94.38ZM81.12,81.62A3,3,0,0,0,83,83.5a2,2,0,0,0,.81-2.19,2.34,2.34,0,0,0-1.31-2.06,3,3,0,0,1-.94,1A1.33,1.33,0,0,0,81.12,81.62Zm4.26-3.37A5,5,0,0,0,87,76.56c.42-.7.83-1.39,1.25-2.06a1.45,1.45,0,0,0-1.5-1,2.08,2.08,0,0,1-.63,1.12,7.28,7.28,0,0,0-.87,1.07,3.19,3.19,0,0,0-.5,1.19A1.6,1.6,0,0,0,85.38,78.25Zm-.5-17a9,9,0,0,0,1.68-.13.78.78,0,0,0,.69-.87c-.42-.08-.65-.39-.69-.94s-.44-.69-1.18-.43c.08.58,0,.95-.32,1.12S84.71,60.58,84.88,61.25Zm2.87,19.37c.92.17,1.37-.14,1.37-.93s-.45-1.11-1.37-.94c0,.67-.11,1-.31,1.13S87.33,80.21,87.75,80.62Zm.5-10.37a1.91,1.91,0,0,0,1.87-.94,5,5,0,0,0,.5-2.43c-1.08-.17-1.74.12-2,.87A8.15,8.15,0,0,0,88.25,70.25ZM90.12,65a4.56,4.56,0,0,0,1.19-1.69,1.76,1.76,0,0,0-.19-2.06,1.32,1.32,0,0,0-1.06.56A4.74,4.74,0,0,0,89.38,63a2.16,2.16,0,0,0-.13,1.25A.92.92,0,0,0,90.12,65Zm.5-9.5c.67.08,1-.1,1.13-.56s.17-.9.25-1.32c-.33,0-.54-.1-.62-.31s-.34-.27-.76-.19c-.41.42-.5.74-.24.94S90.71,54.75,90.62,55.5Zm4.26-15.12A3.88,3.88,0,0,1,93.56,40c-.29-.17-.64,0-1.06.38a13.41,13.41,0,0,1,.12,3.18A9.74,9.74,0,0,1,91.5,47c1.08-.58,1.89-.62,2.44-.12a5.26,5.26,0,0,1,1.31,2.06c.33.87.69,1.79,1.06,2.75a3.17,3.17,0,0,0,1.94,1.93c.5-.5.58-.91.25-1.24a1.7,1.7,0,0,1-.25-1.63H101a1.5,1.5,0,0,0,.56-1.37c0-.59-.06-1.21-.06-1.88-.92.33-1.52.33-1.81,0a2.45,2.45,0,0,1-.57-1.25,4.88,4.88,0,0,0-.43-1.37c-.21-.42-.69-.5-1.44-.26-.17.76-.13,1.28.13,1.57a2,2,0,0,1,.37,1.31c-.25.33-.48.67-.69,1a1.1,1.1,0,0,1-1.18.38,9.22,9.22,0,0,0,.18-2.26c0-.66-.1-1.33-.18-2a1,1,0,0,0-.88.13l-.44.44a.92.92,0,0,1-.44.25c-.16,0-.37-.06-.62-.32a.52.52,0,0,0,.38-.56v-.94a4.57,4.57,0,0,1,.06-.87.58.58,0,0,1,.44-.5,4.81,4.81,0,0,1,1.5.44,3,3,0,0,0,1.87.06,2.71,2.71,0,0,1,.5-1.5,2.37,2.37,0,0,0-1.13-.56,2.77,2.77,0,0,1-.87-.25.77.77,0,0,1-.44-.56,2.91,2.91,0,0,1,.44-1.38c-.58.33-1,.44-1.25.31a1.69,1.69,0,0,1-.62-.5,3.92,3.92,0,0,0-.5-.5c-.17-.12-.46-.06-.88.19-.08.42,0,.69.25.81a2.47,2.47,0,0,0,.81.25,1.59,1.59,0,0,1,.75.32C95,39.54,95,39.88,94.88,40.38ZM91.5,61.25a1.46,1.46,0,0,0,.62.13c.26,0,.38.12.38.37a1.79,1.79,0,0,0,1.88-2A2.23,2.23,0,0,0,93,58.38a6.7,6.7,0,0,0-1.06,1.43A10.47,10.47,0,0,0,91.5,61.25ZM92,30.88c.58.58,1.1.79,1.56.62a1.19,1.19,0,0,1,1.32.38,17.75,17.75,0,0,0-.44,1.87,1.77,1.77,0,0,1-.94,1.37,1,1,0,0,0,1.19,0,2.86,2.86,0,0,0,.75-1.18A6.62,6.62,0,0,0,95.81,32c0-.75.07-1.46.07-2.12a6.33,6.33,0,0,0-2.44-.76C92.56,29,92.08,29.62,92,30.88Zm3.38,27a6.09,6.09,0,0,0,1.81-.26c.54-.16.73-.7.56-1.62C96.17,55.92,95.38,56.54,95.38,57.88Zm1.37-30.76c.67-1.66,1.17-3,1.5-4A24,24,0,0,0,99.12,19a3.44,3.44,0,0,0-1.81,1.44,6.46,6.46,0,0,0-.93,2.31,8.08,8.08,0,0,0-.13,2.44A5.58,5.58,0,0,0,96.75,27.12Zm.5,8.5a.82.82,0,0,1,1-.5,2.62,2.62,0,0,1-.75-1.68,9.86,9.86,0,0,1,.12-1.56c.09-.5.15-1,.19-1.38a1,1,0,0,0-.56-1,2.78,2.78,0,0,0-.94,2.94A9.57,9.57,0,0,0,97.25,35.62Zm-.5,3.76a7,7,0,0,0,2.13,1c.66.16,1.08.95,1.24,2.37.76.17,1.19,0,1.32-.56a5.39,5.39,0,0,0,.06-1.81,1.54,1.54,0,0,1-1.25-.26,5.88,5.88,0,0,1-.94-.87,7.93,7.93,0,0,0-1.06-1,4.4,4.4,0,0,0-1.5-.75Zm2.37-4.76a.8.8,0,0,1,.5,1,5.1,5.1,0,0,0,2.32-.24,1.58,1.58,0,0,0,.94-1.63,1.71,1.71,0,0,0-2.19-1.31,2.33,2.33,0,0,0-1.19.75A1.7,1.7,0,0,0,99.12,34.62Zm4.76,18a4,4,0,0,0-.5-2.37H102a2.72,2.72,0,0,0,0,2.31C102.33,53,103,53,103.88,52.62ZM102,38.5a5.58,5.58,0,0,0,.44,1.44,1.7,1.7,0,0,0,.94.94,11.59,11.59,0,0,0,1.12-1.26q.38-.49-.12-1.62A3.08,3.08,0,0,0,102,38.5Zm4.25-2q.38-2.88.94-5.5a10.6,10.6,0,0,1,1.93-4.38,2.66,2.66,0,0,0-1.62-.74c-.67-.09-1.42-.17-2.25-.26a19.2,19.2,0,0,0-.63,5.82A8.87,8.87,0,0,0,106.25,36.5Zm0-16.12a3,3,0,0,1,1.06.68,1.45,1.45,0,0,0,1.31.32,1.94,1.94,0,0,0,.5-1.44,1.91,1.91,0,0,0-.5-1.44h-1.37a5.44,5.44,0,0,1-.5,1A7.66,7.66,0,0,0,106.25,20.38Zm4.25-1.88a.69.69,0,0,1,.62-.75c.42-.08.55-.46.38-1.13a2.64,2.64,0,0,1-1.5-.5,1.81,1.81,0,0,0-.44,1.44C109.6,18.19,109.92,18.5,110.5,18.5Z"/><path class="cls-1" d="M126.25,33.5c-.42.33-.61.65-.56.94a3.74,3.74,0,0,0,.31,1c.17.37.35.75.56,1.12a1.71,1.71,0,0,1,.19,1.19c-.67-.08-1.11.11-1.31.56a4.24,4.24,0,0,0-.32,1.75,7.55,7.55,0,0,0,.26,2c.16.63.29,1.06.37,1.32h1.37c.5.16.84.14,1-.07a1.51,1.51,0,0,0,.32-.75c0-.29.08-.6.12-.94A.67.67,0,0,1,129,41a1.81,1.81,0,0,1,.69,1.56,15.54,15.54,0,0,0,.25,2.19,3,3,0,0,0,.81,1.63c.42.41,1.13.37,2.13-.13a4.2,4.2,0,0,0-.32-2.25c-.29-.58-.6-1.14-.94-1.69a6.21,6.21,0,0,1-.74-1.81,6.3,6.3,0,0,1,.12-2.75c1.33-.17,2.46-.27,3.38-.31s1.74-.06,2.5-.06a11.13,11.13,0,0,0,2.31-.26,14.53,14.53,0,0,0,2.69-.87,15.1,15.1,0,0,1,.5,3.87v3.94q0,1.95.18,3.75A6.47,6.47,0,0,0,143.75,51a1.37,1.37,0,0,1-1.37,1,19.36,19.36,0,0,1,.74,4.31c.09,1.46.15,2.94.19,4.44s.15,3,.31,4.5a14.73,14.73,0,0,0,1.13,4.25,8.83,8.83,0,0,0,4.63,4.75,15.36,15.36,0,0,0,7.06,1.56,13.14,13.14,0,0,0,6.87-2.06,9.5,9.5,0,0,0,4.19-6.13,27.21,27.21,0,0,0,.81-5.68c0-1.71.07-3.33.07-4.88s0-3.1.12-4.68a24.21,24.21,0,0,1,.88-5.13,1.67,1.67,0,0,0,1.74-.37,2,2,0,0,1,1.63-.63c-.17-.5-.65-.67-1.44-.5a3.67,3.67,0,0,1-1.93,0,35,35,0,0,1-.19-7.56,14.78,14.78,0,0,0-.81-6.57c2.66-.24,5.31-.54,7.93-.87s5.52-.83,8.69-1.5a2.63,2.63,0,0,1,.5,2.5,4.59,4.59,0,0,1-1,2.13c.08.33.21.5.38.5a1.65,1.65,0,0,0,.56-.13c.2-.08.39-.14.56-.19s.33.06.5.32c-.58,1.33-1.15,2.62-1.69,3.87a10.87,10.87,0,0,0-.69,4.75c-1.33-.25-2.18-.12-2.56.38a2.69,2.69,0,0,0-.5,1.81c0,.71.11,1.42.19,2.12s-.08,1.15-.5,1.31c0,.92.31,1.49.94,1.69a2.54,2.54,0,0,1,1.43,1.19,2.15,2.15,0,0,0-.5,2.12,2.15,2.15,0,0,1-.5,2.13,9.14,9.14,0,0,1,1.94,1.69A9.66,9.66,0,0,0,186,59.12a2.54,2.54,0,0,0,.06-1,6.06,6.06,0,0,0-.25-1.24,2.92,2.92,0,0,0-.62-1.13,1.39,1.39,0,0,0-1.07-.5c1.26-.42,1.71-1.5,1.38-3.25,0-.42-.11-.67-.31-.75a1.14,1.14,0,0,0-.63-.06l-.62.12c-.21,0-.32-.06-.32-.31a2.63,2.63,0,0,1,.88-2.19,7.64,7.64,0,0,0,1.5-1.56,3.57,3.57,0,0,1,1.75.87,5.7,5.7,0,0,1,1.06,1.5c.29.59.57,1.17.81,1.76a4.14,4.14,0,0,0,1.13,1.5,25.25,25.25,0,0,0-1,6.06c-.08,2-.19,4-.31,5.87a30.1,30.1,0,0,1-.82,5.31A10.37,10.37,0,0,1,186,74.75a4,4,0,0,1-.38,1.87,13.37,13.37,0,0,1-.81,1.44q-.44.69-.81,1.44a4.16,4.16,0,0,0-.38,1.88,15.4,15.4,0,0,0-3.06,2.5c-1,1-2,2-3,2.93a17,17,0,0,1-3.25,2.38,6.51,6.51,0,0,1-3.93.69,27.7,27.7,0,0,1-8.26,4.24,29.31,29.31,0,0,1-11.24,1c-.59-.74-1.09-1.43-1.5-2.06a1.88,1.88,0,0,0-1.88-.81.6.6,0,0,0-.44.5,5.57,5.57,0,0,0-.06.87v.94a.52.52,0,0,1-.38.56,36.17,36.17,0,0,1-14.24-7.37,53.39,53.39,0,0,1-10-11.63,1.55,1.55,0,0,1,1.18-.74,10.74,10.74,0,0,1,1.75-.13,10.65,10.65,0,0,0,1.75-.13,1.21,1.21,0,0,0,1.06-.87,1.63,1.63,0,0,0-1-1.56,5,5,0,0,0-2-.25c-.74,0-1.5.1-2.24.18a3.37,3.37,0,0,1-1.88-.24,15.78,15.78,0,0,0-.56-4c-.38-1.42-.69-2.84-.94-4.26a19.05,19.05,0,0,1-.31-4.06,5,5,0,0,1,1.31-3.31,6.43,6.43,0,0,1-1.25-3.31,30.16,30.16,0,0,1-.19-4.44c0-1.58.11-3.17.19-4.75a21.59,21.59,0,0,0-.13-4.13,4.82,4.82,0,0,0,2.32-.5c.62-.33,1.27-.66,1.94-1-.09-.5-.3-.74-.63-.74a7.12,7.12,0,0,0-1.19.12l-1.31.25a1.13,1.13,0,0,1-1.13-.5A38.47,38.47,0,0,1,122.69,21,24.6,24.6,0,0,1,132.88,9.75c.5-.08.66-.46.5-1.13s0-1.08.37-1.24a2,2,0,0,1,1.06,0,1,1,0,0,1,.5.37c.13.17.25.36.38.56a1.07,1.07,0,0,0,.43.44A7.89,7.89,0,0,1,137.19,6a5.11,5.11,0,0,1,1.62-1.56,6.8,6.8,0,0,1,2.13-.82c.79-.16,1.56-.33,2.31-.5a1.72,1.72,0,0,1,.5,1.63,1.72,1.72,0,0,0,.5,1.63.9.9,0,0,0,.5-1c-.08-.42-.19-.86-.31-1.32a3,3,0,0,1-.13-1.18c0-.34.31-.59.81-.76A18.11,18.11,0,0,1,148,4.88l2.38,3c.66-.59.87-1.07.62-1.44a7,7,0,0,0-1.12-1.25q-.75-.69-1.5-1.44a1.87,1.87,0,0,1-.38-2c2-.17,4.38-.25,7.12-.25a63.31,63.31,0,0,1,8.32.56,38.86,38.86,0,0,1,7.87,1.88A11.85,11.85,0,0,1,177,7.88v3.24a1.76,1.76,0,0,0,.44,1.32,8.17,8.17,0,0,0,.94.81,6.32,6.32,0,0,1,.93.87,2.06,2.06,0,0,1,.44,1.38,2.62,2.62,0,0,1-1.13,0L177,15.25a4.35,4.35,0,0,0-1.62.06,2.08,2.08,0,0,0-1.26,1.07c1.84.83,3.17,1.12,4,.87a11,11,0,0,0,3.13-1.75c.25.25.35.46.31.62a1,1,0,0,1-.31.5l-.56.57a1.66,1.66,0,0,0-.44.69,6.14,6.14,0,0,1,1.37,1.24,2.2,2.2,0,0,0,2,.63A4.66,4.66,0,0,0,184,23.5a21.21,21.21,0,0,1,1.5,3.75.74.74,0,0,1-.5.5,1.93,1.93,0,0,1-.88.06,3.19,3.19,0,0,1-.93-.25,2,2,0,0,1-.57-.31A4.21,4.21,0,0,1,179.75,29a14.63,14.63,0,0,1-3.63.06c-1.24-.12-2.52-.2-3.81-.25a6.3,6.3,0,0,0-3.43.81,33.94,33.94,0,0,1-3-3.68,20.88,20.88,0,0,0-3.13-3.5,13.57,13.57,0,0,0-4.13-2.5,13.28,13.28,0,0,0-5.87-.69,6.76,6.76,0,0,0-2.63.81,11.25,11.25,0,0,1-2.62,1.06c-.42-.08-.61-.24-.56-.5a4.4,4.4,0,0,1,.25-.87,7.5,7.5,0,0,0,.25-.81c0-.21-.06-.27-.32-.19a15,15,0,0,0-3.62,7.37,62.48,62.48,0,0,0-1.12,8.76c-1.59.33-3.15.66-4.69,1a21.28,21.28,0,0,1-4.44.5,13.07,13.07,0,0,1-3.94-.57A5.8,5.8,0,0,1,126.25,33.5Zm-1.5,14.62c-.08-.58,0-.95.31-1.12s.36-.58.19-1.25h-2.37a2.08,2.08,0,0,0,.56,1.63A3.6,3.6,0,0,0,124.75,48.12Zm2-14.62a8.8,8.8,0,0,1-.44-2.38,21.26,21.26,0,0,0-.25-2.43,6.08,6.08,0,0,0-.68-2.07,2.8,2.8,0,0,0-1.5-1.24,23.65,23.65,0,0,0,.06,3.93c.12,1.38.27,2.77.44,4.19a1.38,1.38,0,0,0,.81,0l.56-.25a1.07,1.07,0,0,1,.44-.13C126.31,33.12,126.5,33.25,126.75,33.5Zm0,20.88a3,3,0,0,1-.5,1.87,5.61,5.61,0,0,0,2.44-.56c.45-.29,1.06-.11,1.81.56a3.73,3.73,0,0,1,3.12-2.13,10.24,10.24,0,0,1,4.5.26,2.21,2.21,0,0,0,.32-2.76A3.07,3.07,0,0,0,135.75,50a1.55,1.55,0,0,0-.56,1.44c0,.62.06,1.27.06,1.94a27.87,27.87,0,0,0-4,.74A12.85,12.85,0,0,1,126.75,54.38ZM129,74.25q-.37,3,2.38,2.87a2,2,0,0,1,.37-1.31,1.84,1.84,0,0,0,.13-1.56c-.76-.25-1.19-.31-1.32-.19S129.92,74.25,129,74.25Zm1.5-41.75a2,2,0,0,1,.38-.81,1.43,1.43,0,0,0,.12-1.07h-1.5C129.33,31.79,129.67,32.42,130.5,32.5Zm4.25,37c-.08,1.08.54,1.54,1.87,1.38.17-1.34-.29-2-1.37-1.88C135.25,69.42,135.08,69.58,134.75,69.5Zm3.75-37.88c.17-1.41-.29-2.08-1.38-2C137,31,137.42,31.71,138.5,31.62Zm1-23.24a1.17,1.17,0,0,0,.25-1.44c-.25-.54-.79-.73-1.63-.56C138,7.79,138.42,8.46,139.5,8.38Zm.5,67.74a2.27,2.27,0,0,0-.81,1.76,3,3,0,0,0,.62,1.62,4.52,4.52,0,0,0,1.5,1.25,5.81,5.81,0,0,0,1.94.63,2.93,2.93,0,0,0,.94-1.82,2.48,2.48,0,0,0-.5-1.68,4.46,4.46,0,0,0-1.57-1.26A4.69,4.69,0,0,0,140,76.12Zm1.38-23.74H139.5c-.17.91.14,1.37.94,1.37S141.54,53.29,141.38,52.38Zm0-27.88a.81.81,0,0,1,1-.5c.16-1,0-1.58-.63-1.75a6.27,6.27,0,0,0-2.25-.13C139.42,23.62,140,24.42,141.38,24.5ZM139.5,75.25c.67.08,1-.19,1.06-.81a4.92,4.92,0,0,1,.32-1.56H139.5Zm1-15.25h.88c0-.67.1-1,.31-1.06s.1-.32-.31-.82h-.88c-.42.5-.52.78-.31.82S140.5,59.33,140.5,60Zm2.38-44.5c.5-.17,1-.33,1.37-.5a1.49,1.49,0,0,0,.87-1,1,1,0,0,0-1.5-.19A1.63,1.63,0,0,0,142.88,15.5Zm2.24,3.75a2,2,0,0,0,.76-1.94,2.09,2.09,0,0,0-1.13-1.81,3.29,3.29,0,0,1,0,1.25,7.66,7.66,0,0,1-.31,1.13,1.67,1.67,0,0,0-.13.87C144.35,19,144.62,19.17,145.12,19.25Zm.5,63.5a1.93,1.93,0,0,1,1-.31.74.74,0,0,1,.44.31,2.8,2.8,0,0,1,.32.56.8.8,0,0,0,.62.44,10.87,10.87,0,0,0,.44-1,3,3,0,0,0,.06-1.37c-.67,0-1.36,0-2.06.06S145.46,81.92,145.62,82.75Zm8.63-74.37a2.14,2.14,0,0,0,.13.74c.08.26.33.3.74.13a1.14,1.14,0,0,0-.06-1.13,2.72,2.72,0,0,0-.81-.62c-.33-.17-.73-.35-1.19-.56A3.14,3.14,0,0,1,151.88,6a2.58,2.58,0,0,0,.43,2.31C152.77,8.77,153.42,8.79,154.25,8.38Zm-.5,83.37c.75.17,1.23,0,1.44-.37a5.1,5.1,0,0,0,.43-1.5,2.18,2.18,0,0,1-.81-.38,1.32,1.32,0,0,0-1.06-.12,12.34,12.34,0,0,0-.25,1.24A9.31,9.31,0,0,0,153.75,91.75ZM156.62,14a.5.5,0,0,0,.76-.19,2,2,0,0,0,.24-1,2.08,2.08,0,0,0-.24-1,.52.52,0,0,0-.76-.19Zm1.88-.88c-.08,1.09.54,1.55,1.88,1.38.16-1.33-.3-2-1.38-1.88C158.83,13,158.67,13.12,158.5,13.12ZM160.38,6c-.17.67,0,1,.43,1.12s.61.5.44,1.26c.83-.5,1.29-.71,1.37-.63a9.59,9.59,0,0,0,1.5.63q1.14-1.38,0-2.07A15.31,15.31,0,0,1,162.25,5a4.71,4.71,0,0,0-.56,1.5C161.73,6.58,161.29,6.42,160.38,6Zm.5,4.75a5.08,5.08,0,0,0,.93,2.81,5.14,5.14,0,0,1,.94,2.82,1.64,1.64,0,0,0,1-.07,7.5,7.5,0,0,1,.81-.25.46.46,0,0,1,.5.19,1.69,1.69,0,0,1,.06,1.13,6.15,6.15,0,0,0,1.5-.63q.63-.37,1.38-.87a5.93,5.93,0,0,1-3.56-2.5,18.07,18.07,0,0,1-1.69-3.63c.08.33,0,.5-.19.5a5.6,5.6,0,0,1-.75-.06,2.34,2.34,0,0,0-.75,0C160.85,10.23,160.79,10.42,160.88,10.75Zm.37,68.75,1.06.5c.54.25.86.08.94-.5-.25,0-.4-.1-.44-.31a3.69,3.69,0,0,1-.06-.69.73.73,0,0,0-.19-.56q-.18-.19-.81.06a2.51,2.51,0,0,1-.13.94A1.56,1.56,0,0,1,161.25,79.5Zm3.87-58.38a3,3,0,0,0,1.88-.74,4.46,4.46,0,0,0,1-1.63C165.83,18.33,164.88,19.12,165.12,21.12Zm3.26-11.87c.24-1.5-.38-2.13-1.88-1.87C166.25,8.88,166.88,9.5,168.38,9.25ZM167.5,23a6.68,6.68,0,0,0,1.38,1.06c.5.3.66.9.5,1.82-.42.24-.76.27-1,.06l-.69-.56a2.18,2.18,0,0,0-.5-.32c-.13,0-.19.23-.19.82a2.32,2.32,0,0,0,1.88,1.31,6.5,6.5,0,0,0,3.37-.31,6.06,6.06,0,0,1-1-1.5,15.58,15.58,0,0,0-1.06-1.82,3.25,3.25,0,0,0-1.25-1.12C168.48,22.23,168,22.42,167.5,23Zm3.25,59.25a1.5,1.5,0,0,0,.94-1.75,1.65,1.65,0,0,0-1.31-1.5c-.17.08-.32.33-.44.75a6.15,6.15,0,0,0-.25,1.25,1.65,1.65,0,0,0,.19,1.06C170,82.36,170.33,82.42,170.75,82.25Zm2-69.63a.91.91,0,0,0,.94-.24.88.88,0,0,1,.93-.26c.17-1.33-.33-1.95-1.5-1.87.09.58,0,1-.31,1.13S172.5,12,172.75,12.62Zm7.5,32.76a2.09,2.09,0,0,0-1.94-.26,2.91,2.91,0,0,1-2.31-.24.84.84,0,0,0,.44,1.12,3.59,3.59,0,0,0,1.5.44,3.33,3.33,0,0,0,1.56-.25Q180.25,45.88,180.25,45.38Zm.5,27.5c.5-.76.64-1.34.44-1.76A3.05,3.05,0,0,0,180.12,70a13.28,13.28,0,0,0-1.56-.88,2.46,2.46,0,0,1-1.18-1,1.21,1.21,0,0,0,0,1.32,5.6,5.6,0,0,0,1,1.12c.41.38.85.75,1.31,1.13A4.66,4.66,0,0,1,180.75,72.88ZM179.38,61a2,2,0,0,1,.81.38,1.4,1.4,0,0,0,1.06.12V60C180.08,59.83,179.46,60.17,179.38,61Zm.37,19a1,1,0,0,0,1-.25,1.49,1.49,0,0,0,.44-.81,1.37,1.37,0,0,0-.19-.88.82.82,0,0,0-.75-.44A3.52,3.52,0,0,0,179.75,80Zm0-70.25q9.12,4.75,11.37,15.63c-.83.16-1.39.1-1.68-.19a3.35,3.35,0,0,0-1.06-.69c-.42,0-.63.11-.63.31a1.5,1.5,0,0,0,.19.69l.31.62c.08.17,0,.26-.37.26a12.92,12.92,0,0,1-2.13-4.13,8,8,0,0,1-.25-4.37,1.81,1.81,0,0,0-.38-1.69,11.4,11.4,0,0,0-1.62-1.69,27.17,27.17,0,0,1-2.06-2A8.34,8.34,0,0,1,179.75,9.75Zm4.75,52.13V60.5a3.24,3.24,0,0,0-1.25.31c-.17.13-.21-.31-.13-1.31h-1.37a1.71,1.71,0,0,0,.87,1.69A9.56,9.56,0,0,0,184.5,61.88Zm2,6.24c-.33,0-.54-.08-.62-.24s-.17-.36-.26-.57a2.35,2.35,0,0,0-.31-.56c-.12-.17-.39-.21-.81-.13a1.33,1.33,0,0,0,.5,1.82C185.67,68.9,186.17,68.79,186.5,68.12Zm5.62-39.87a19.23,19.23,0,0,0-.18,3.56c0,1.3.1,2.61.18,3.94s.15,2.63.19,3.87a17,17,0,0,1-.19,3.38,7.15,7.15,0,0,0-2.68-1.38,21.33,21.33,0,0,0-2.56-.12,6.17,6.17,0,0,1,.74-3.31,12,12,0,0,0,1.26-2.81c-.17-.84-.36-1.73-.57-2.69a10,10,0,0,1-.25-2.63,2.09,2.09,0,0,1,.94-1.75Q189.87,27.76,192.12,28.25Zm-1,15.13q1.38.75,1.26,1.74c-.09.67-.17,1.55-.26,2.63a2.55,2.55,0,0,1-2.74-.94,2.32,2.32,0,0,1-.13-2.43,6.33,6.33,0,0,1,1.5.37C191.17,44.92,191.29,44.46,191.12,43.38Z"/><path class="cls-1" d="M267.5,79.5a4.59,4.59,0,0,0,.44,3.19,25.72,25.72,0,0,0,2,3.43l2.37,3.5a14.66,14.66,0,0,1,1.81,3.63q-4.87.25-11.25.25t-12,.25V91.88a1.08,1.08,0,0,0-.87.06,1.12,1.12,0,0,0-.38.56,1.89,1.89,0,0,1-.31.62c-.12.17-.39.21-.81.13q-2.13-4.12-4.13-8.44t-3.93-8.62q-2-4.32-4.07-8.5t-4.5-8.07a20.26,20.26,0,0,0-5.06.13A3.57,3.57,0,0,0,223.87,62c-.08,2.92-.08,5.81,0,8.69s.15,5.71.19,8.5,0,5.46-.19,8a43.64,43.64,0,0,1-1,7.06,26.75,26.75,0,0,1-5.12.81l-5.56.38c-1.88.12-3.73.27-5.57.44a43.72,43.72,0,0,0-5.12.74q-.5-9.75-.25-21t.56-22.87q.31-11.62.31-23.19t-1-22.18a3.67,3.67,0,0,1,2.32-.32c.95.13,1.93.21,2.93.25a8.77,8.77,0,0,0,2.69-.25c.79-.2,1.27-.89,1.44-2.06a4.13,4.13,0,0,1-4,1.38,32.38,32.38,0,0,0-5-.38,1.93,1.93,0,0,0-.19-.88,2.38,2.38,0,0,0-.44-.62,1.57,1.57,0,0,1-.37-.69,2.19,2.19,0,0,1,.12-1.19,121.62,121.62,0,0,1,12.25-.12q6.25.25,12.32.62c4,.26,7.93.44,11.68.57a53.54,53.54,0,0,0,10.25-.57,2.69,2.69,0,0,1,1.32.76c.29.33.64.7,1.06,1.12a33.61,33.61,0,0,1,7.81,2.5,21.14,21.14,0,0,1,5.94,4.12A26.81,26.81,0,0,1,267,16.88a33.33,33.33,0,0,1,2.87,6.93,31.78,31.78,0,0,1,1.25,8.13,26,26,0,0,1-1.25,8.68,11.54,11.54,0,0,1-1.43,2.69,32.13,32.13,0,0,1-2.5,3.19q-1.44,1.62-2.94,3.12A28.93,28.93,0,0,1,260.37,52a8.25,8.25,0,0,1-1.62.94l-1.44.62a3.16,3.16,0,0,0-1.12.82,2.57,2.57,0,0,0-.57,1.37,5.2,5.2,0,0,0,.5,3.19c.5,1,1.07,1.92,1.69,2.87s1.19,1.9,1.69,2.81a4.13,4.13,0,0,1,.37,3c.5.67,1.13,1.49,1.88,2.44s1.48,2,2.19,3,1.33,2.06,1.87,3.06.94,1.8,1.19,2.38a.52.52,0,0,1-.19.62c-.21.17-.37.32-.5.44s-.12.19,0,.19A7.84,7.84,0,0,0,267.5,79.5Zm-64-45.12c.33.16.58.12.75-.13a1.63,1.63,0,0,0,.25-.94,2,2,0,0,0-.25-1,.51.51,0,0,0-.75-.19Zm4.62.5a1.78,1.78,0,0,0,.75,1.37,3.34,3.34,0,0,0,1.5.44c.59,0,1.23.06,1.94.06h2.06a1.56,1.56,0,0,0-.75-1.37,4.5,4.5,0,0,0-1.81-.69,8.53,8.53,0,0,0-2.06-.13A5.52,5.52,0,0,0,208.12,34.88ZM212,92.25a3.89,3.89,0,0,0,.25-2.44A13.74,13.74,0,0,1,212,87.5h-1.5a4.17,4.17,0,0,0,.06,2.56A4.11,4.11,0,0,0,212,92.25Zm.5-7.5a.91.91,0,0,0,.94-.25.89.89,0,0,1,.93-.25c0-.67,0-1.23-.06-1.69s-.35-.68-.94-.68a3.78,3.78,0,0,1-.68,1.12A2,2,0,0,0,212.5,84.75Zm2.37-77.87a17.7,17.7,0,0,1,2.57.24A4.55,4.55,0,0,1,220,8.38a3.44,3.44,0,0,1,1.56-.88q.94-.25.81-1.5c-1.33-.17-2.7-.31-4.12-.44A3.73,3.73,0,0,0,214.87,6.88Zm1.88,75.87V79h-1.5c.08.92.12,1.79.12,2.62S215.83,82.83,216.75,82.75Zm0-20.37a1.72,1.72,0,0,0,.37-1.5c-.08-.67-.54-1-1.37-.88a1.72,1.72,0,0,0-.44,1.62C215.44,62.29,215.92,62.54,216.75,62.38Zm1.87-22.76a1,1,0,0,0,.69-.43,1.06,1.06,0,0,1,.69-.44,5.46,5.46,0,0,0-4.25-3.87,4.91,4.91,0,0,1,.62,1.62,8.67,8.67,0,0,0,.32,1.31,2.81,2.81,0,0,0,.56,1A3.22,3.22,0,0,0,218.62,39.62Zm-2.87,36.5a.7.7,0,0,1,.5,1,1.63,1.63,0,0,0,1.44-.62c.29-.42.6-.83.93-1.25h-1.87A.91.91,0,0,0,215.75,76.12Zm1.87,9.5a1.84,1.84,0,0,0,.44-1.5c0-.66-.48-1-1.31-.87a1.23,1.23,0,0,0-.38,1.5A1.55,1.55,0,0,0,217.62,85.62Zm0-37.37c.5,0,.67.29.5.87a2.88,2.88,0,0,0,1.94-.12c.46-.25.61-.83.44-1.75h-1.88C218,47.25,217.71,47.58,217.62,48.25Zm2.38,36a1.55,1.55,0,0,1,1.44,1,3,3,0,0,0,.93,1.37c.34-.33.48-.6.44-.81a2,2,0,0,0-.31-.69c-.17-.24-.33-.5-.5-.74a1.29,1.29,0,0,1,0-1.13C220.75,83.08,220.08,83.42,220,84.25ZM221.5,61a2.41,2.41,0,0,0,2.37-1c-.5,0-.66-.29-.5-.88A1.66,1.66,0,0,0,221.5,61Zm.87-14.75a.91.91,0,0,1,.38-.69l.69-.56a1,1,0,0,0,.37-.56c0-.21-.1-.4-.44-.56a1.47,1.47,0,0,1-.5.5,3.69,3.69,0,0,0-.68.56,1.27,1.27,0,0,0-.38.68C221.77,45.88,222,46.08,222.37,46.25ZM242.75,42a27.77,27.77,0,0,0,2.81-2.06,10,10,0,0,0,2.38-2.88,12.27,12.27,0,0,0,1.31-3.94,15,15,0,0,0-.25-5.37,9,9,0,0,0-4.25-3.5,22.2,22.2,0,0,0-6.44-1.63,42,42,0,0,0-7.19-.12,33.27,33.27,0,0,0-6.37,1,53.28,53.28,0,0,1,.56,10,54.42,54.42,0,0,0,.44,9.5,80.74,80.74,0,0,1,8.12-.88Q238.13,41.88,242.75,42ZM227.62,5.5V6.88q.63,0,1.44.06c.54,0,.69-.27.44-.94a1.64,1.64,0,0,1-.81-.44C228.48,5.36,228.12,5.33,227.62,5.5Zm4.75,5.75c.5-.08.67-.48.5-1.19a3,3,0,0,1,0-1.68h-1.5a2.09,2.09,0,0,1,.07.93,7.65,7.65,0,0,0-.07,1,1.44,1.44,0,0,0,.19.75C231.69,11.27,232,11.33,232.37,11.25ZM239,16.88a2.65,2.65,0,0,0,1.87-.5c.09-1.09-.54-1.55-1.87-1.38Zm2.37,59.74a11.45,11.45,0,0,1,3.19.88,14.89,14.89,0,0,0,3.94,1,3.5,3.5,0,0,0,.5-2.38,9,9,0,0,0-1.56-.68,8.27,8.27,0,0,0-2.07-.38,6.62,6.62,0,0,0-2.18.25A3.52,3.52,0,0,0,241.37,76.62Zm1.38-62.12v1.88a3.53,3.53,0,0,0,.94-.57,5.91,5.91,0,0,0,1-1,1.68,1.68,0,0,0,.43-1q0-.44-.87-.69Q244.63,14.88,242.75,14.5Zm6.75,30.38V43a4,4,0,0,0-2.38-.5A2.48,2.48,0,0,0,249.5,44.88Zm.37,31.24v2a3.4,3.4,0,0,1,2.38-.12,19.45,19.45,0,0,0,1.94.56,1.51,1.51,0,0,0,1.37-.25c.38-.29.56-1.14.56-2.56a15.71,15.71,0,0,0-3.25-.13C252.21,75.71,251.21,75.88,249.87,76.12Zm6.63-39.74A3.18,3.18,0,0,0,257.56,34a12.92,12.92,0,0,1,.44-2.88,2.26,2.26,0,0,0-1.56,1,3,3,0,0,0-.44,1.57,6.17,6.17,0,0,0,.19,1.56C256.31,35.75,256.42,36.12,256.5,36.38Zm2,38.87a2.17,2.17,0,0,1,.37-.81c.17-.21.17-.56,0-1.06-.58-.34-.93-.44-1.06-.32s-.56.06-1.31-.18c-.17.91,0,1.52.37,1.81A3.57,3.57,0,0,0,258.5,75.25ZM257,45.38c-.17.74,0,1.16.56,1.24a2.35,2.35,0,0,1,1.31.63V44.88A2.92,2.92,0,0,0,257,45.38Z"/><path class="cls-1" d="M284.62,5.12a1.66,1.66,0,0,0,1.57.63A13.5,13.5,0,0,0,288,5.38a3.66,3.66,0,0,1,1.62-.13c.5.08.88.5,1.13,1.25a.52.52,0,0,0,.37-.56,2.47,2.47,0,0,1,.13-.82A4.94,4.94,0,0,1,295.5,7q-.37.75-.81,1.5a4.51,4.51,0,0,1-1.07,1.25c.17.42.63.52,1.38.31s1.21-.14,1.37.19c0,1.08-.18,1.5-.56,1.25a2.85,2.85,0,0,0-1.81-.25,3.85,3.85,0,0,0,.06,1.63.66.66,0,0,0,.63.5,2.51,2.51,0,0,0,1-.26l1.18-.5a1.32,1.32,0,0,0-.06,1.32q.31.81.69,1.68a3,3,0,0,1,.25,1.63c-.09.5-.54.87-1.38,1.13a1.27,1.27,0,0,0,1,1.37c.34,0,.48-.06.44-.19a1.3,1.3,0,0,0-.19-.37c-.08-.13-.1-.23-.06-.31s.31-.09.81,0a2.58,2.58,0,0,1-.06,1.68c-.21.71-.06,1.06.44,1.06a2.7,2.7,0,0,1-1.5.07c-.42-.13-.84-.27-1.25-.44a4.77,4.77,0,0,0-1.44-.31,5.08,5.08,0,0,0-1.94.31,1,1,0,0,0,.75.44,5.21,5.21,0,0,1,.94.19,1.16,1.16,0,0,1,.69.5,1.6,1.6,0,0,1,0,1.24,1.75,1.75,0,0,1,.81-.68.69.69,0,0,1,.56.12,7.16,7.16,0,0,0,.69.44,2,2,0,0,0,1.31.12,7.55,7.55,0,0,0,.19,3.32,6.54,6.54,0,0,0,2.69,3.37A17.69,17.69,0,0,1,303,31.62a7.63,7.63,0,0,1-.75.88c-.25.25-.29.75-.13,1.5a3.75,3.75,0,0,0,2.25-3.19A5.58,5.58,0,0,0,303,26.88a1.12,1.12,0,0,0-.63.81c-.08.37-.5.43-1.25.19a13.33,13.33,0,0,1-1.18-4.76,7.51,7.51,0,0,1,1.18-4.74c.92.24,1.19.64.82,1.18a2.61,2.61,0,0,0-.32,2.06,4.26,4.26,0,0,1,1.5.63,10.64,10.64,0,0,1,1.38,1.37.74.74,0,0,0,.44-.81,3.47,3.47,0,0,1,.06-1.19,4.39,4.39,0,0,1,.87,3c-.08,1.09-.21,2.19-.37,3.32a17.27,17.27,0,0,0-.19,3.25A3.82,3.82,0,0,0,306.87,34a1,1,0,0,0,.75-.25,5.51,5.51,0,0,0,.5-.56,1.82,1.82,0,0,1,.63-.5,1.54,1.54,0,0,1,1-.07,3.14,3.14,0,0,1-.5-2,15.6,15.6,0,0,0,2.87-2.87c.84-1.08,1.69-2.14,2.57-3.19a37.68,37.68,0,0,1,2.81-3,11.64,11.64,0,0,1,3.62-2.31,5.5,5.5,0,0,1,.94-2.87,10.21,10.21,0,0,1,1.88-2c.7-.59,1.41-1.19,2.12-1.82a6.72,6.72,0,0,0,1.69-2.31,3.35,3.35,0,0,1,2.19.19l1.56.81A9.85,9.85,0,0,0,331.69,9c-.05-.58-.57-1-1.57-1.12a4.08,4.08,0,0,1,2.13-2.07A7.4,7.4,0,0,1,335,5.44a15.34,15.34,0,0,1,3.19.5,18.63,18.63,0,0,0,3.31.56A4.13,4.13,0,0,1,339,9a5.5,5.5,0,0,1-4.13-.12v1.37a18.3,18.3,0,0,0,5.07.31c1.79-.12,3.56-.23,5.31-.31a1.33,1.33,0,0,0,.5-1.13V7.5a18.83,18.83,0,0,1,1.19,1.62,15.86,15.86,0,0,0,1.18,1.63c1.17.17,1.79-.17,1.88-1a4.87,4.87,0,0,1,1.5,1.87,18.71,18.71,0,0,1,.87,2.5c-.33.5-.71,1.05-1.12,1.63a13.51,13.51,0,0,1-1.38,1.63,4.31,4.31,0,0,1-1.68,1.06,2.88,2.88,0,0,1-1.94-.06,5.45,5.45,0,0,1-1.13,2.93,8.32,8.32,0,0,1-2.31,2.13,8.49,8.49,0,0,1-2.75,1.12,4.31,4.31,0,0,1-2.44-.06c-.16.75-.35,1.46-.56,2.12a7.85,7.85,0,0,1-.87,1.88,3.68,3.68,0,0,1-1.44,1.31,5,5,0,0,1-2.25.44,9.83,9.83,0,0,1-1.44,3.06c-.62.88-1.27,1.73-1.94,2.57a11.18,11.18,0,0,0,.5,4.24A3.76,3.76,0,0,0,332,42.5a124.66,124.66,0,0,0,6.62,13.06q3.63,6.19,7.32,12.32t7.31,12.43A142.77,142.77,0,0,1,360,93.75q-5.62.25-11.69.44a56.2,56.2,0,0,1-12.06-.94q-5.88-9.63-11.13-18.5T314.5,55.88a1.35,1.35,0,0,1-1.06-.13,2.17,2.17,0,0,0-.94-.37,46,46,0,0,1-3.75,4.24A44.63,44.63,0,0,0,305,63.88a45,45,0,0,0,.31,7.06q.44,3.69.94,7.44t.62,7.43a30.55,30.55,0,0,1-.5,6.94,2.14,2.14,0,0,0-1.31-.69,6.45,6.45,0,0,0-1.5.06l-1.75.26a8.85,8.85,0,0,1-2.06,0c.16-.76.08-1.23-.25-1.44s-.42-.69-.25-1.44a5.25,5.25,0,0,1-2.69,1.75,17.25,17.25,0,0,1-3.75.63c-1.37.08-2.81.1-4.31.06s-3-.06-4.38-.06c0-.92-.16-1.42-.5-1.5.34-5.26.44-10.21.32-14.88s-.32-9.25-.57-13.75-.5-9-.75-13.44a127.2,127.2,0,0,1,0-13.81q.25-5.62.63-10.69a88.23,88.23,0,0,1,1.37-10.19q1,.26,1.38-.24c.25-.34.71-.42,1.37-.26a11.9,11.9,0,0,0,.57-2.81,3.94,3.94,0,0,0-.57-2.81c-.75-.08-1.18.11-1.31.56s-.6.56-1.44.32Zm3.75,28.38c-.75-.17-1.23-.08-1.43.25s-.69.42-1.44.25a1.16,1.16,0,0,1-.13-.56A.45.45,0,0,0,285,33a2,2,0,0,0-.06.94,6.42,6.42,0,0,0,.18,1,1,1,0,0,0,.32.56c.12.08.31-.08.56-.5-.34-.17-.4-.25-.19-.25s.5,0,.88-.06a3.91,3.91,0,0,0,1.12-.31A.88.88,0,0,0,288.37,33.5ZM285,85.25c.75.17,1.23.08,1.44-.25s.68-.42,1.43-.25a1,1,0,0,0-.31-1.06,1.43,1.43,0,0,0-1.12-.19,2.4,2.4,0,0,0-1.19.56A1,1,0,0,0,285,85.25Zm5.75-66.87a1.48,1.48,0,0,0,.06-1.38,3.09,3.09,0,0,0-1-1.12,5.87,5.87,0,0,0-1.62-.82l-1.69-.56a1.88,1.88,0,0,0,.56,1.56,4.3,4.3,0,0,0,1.31.69c.5.17,1,.36,1.44.56A1.73,1.73,0,0,1,290.75,18.38ZM287.37,80.5a2.21,2.21,0,0,0,1.57-.06,2.7,2.7,0,0,0,1.06-.82,1.2,1.2,0,0,0,.19-1.12,1.35,1.35,0,0,0-.94-.88c.08.84-.19,1.36-.81,1.57A1.48,1.48,0,0,0,287.37,80.5Zm1-68.38a3.2,3.2,0,0,0,2.44,1.76,2.47,2.47,0,0,0,2.81-1.26,1.14,1.14,0,0,0-.75-1,5.78,5.78,0,0,0-1.68-.5,4.05,4.05,0,0,0-1.75.13A1.56,1.56,0,0,0,288.37,12.12Zm2.88,76a1.48,1.48,0,0,0,.31-1.74,2.06,2.06,0,0,0-1.31-1.13,2.18,2.18,0,0,0-.5,1.87C289.83,88,290.33,88.29,291.25,88.12Zm.37-33.74V52.5h-1.37C290.08,53.83,290.54,54.46,291.62,54.38Zm-1.37,5.74c.25.26,1.37.38,3.37.38a1.84,1.84,0,0,1,.38-1.38c-.75-.08-1.5-.18-2.25-.31S290.5,59.12,290.25,60.12ZM295,38.25a4.81,4.81,0,0,0,1.5-.44,3,3,0,0,1,1.87-.06c.25-.08.34-.29.25-.63s-.16-.64-.25-.93a.66.66,0,0,1,.13-.69c.16-.17.58-.21,1.25-.12a5,5,0,0,0-.81-1.76,2.74,2.74,0,0,0-1.57-1c-.41-.08-.58,0-.5.13a3.49,3.49,0,0,0,.32.5,1.67,1.67,0,0,1,.25.5c0,.17-.15.25-.57.25a3.7,3.7,0,0,1-2.93-1.06,8.48,8.48,0,0,0-2.32-1.82c.17.67.07,1.05-.31,1.13a.68.68,0,0,0-.56.75c.66-.42,1.14-.54,1.44-.38a2.08,2.08,0,0,1,.75.82,5.87,5.87,0,0,1,.5,1.31,2.4,2.4,0,0,0,.56,1.13,5.93,5.93,0,0,0,1.56-.44,2.85,2.85,0,0,1,1.81-.06,2.45,2.45,0,0,0,.13.93,1.75,1.75,0,0,0,.37.57.8.8,0,0,1-.81.31,7.25,7.25,0,0,1-1.19-.25c-.41-.13-.81-.23-1.18-.32s-.61,0-.69.26a.75.75,0,0,1,.69.62A1.24,1.24,0,0,0,295,38.25Zm-4.25,37a1.66,1.66,0,0,0,1.19.06,2.29,2.29,0,0,0,.75-.5,1.24,1.24,0,0,1,.62-.37.8.8,0,0,1,.69.31V73.38a3.78,3.78,0,0,0-1.88.68A12.32,12.32,0,0,0,290.75,75.25ZM294,45.38a1.39,1.39,0,0,0,.06-1.07.87.87,0,0,0-.69-.37,4.69,4.69,0,0,0-1.06,0,10,10,0,0,1-1.06.06c0,.58.08.94.25,1.06a.76.76,0,0,0,.62.13l.88-.13A1.35,1.35,0,0,1,294,45.38Zm0,13.24h1a14.73,14.73,0,0,0-.31,1.44c-.05.3.39.44,1.31.44V57.75C294.75,57.58,294.08,57.88,294,58.62Zm0,22.76a.51.51,0,0,0,.25.5,2.17,2.17,0,0,0,.56.18,1,1,0,0,1,.5.25.76.76,0,0,1,.19.57,1.21,1.21,0,0,0-1.5,1.37,5.78,5.78,0,0,1,1,.5,5.44,5.44,0,0,0,1,.5.73.73,0,0,0,.37-.63,2.39,2.39,0,0,0-.12-.74,4.87,4.87,0,0,1-.19-.69c0-.21.06-.31.31-.31s.52.12.57.37a.59.59,0,0,0,.43.5c.25-.67.48-1.31.69-1.94a7.29,7.29,0,0,0,.31-2.31,3.7,3.7,0,0,1-1.5.19,7.13,7.13,0,0,0-1.31,0,2.16,2.16,0,0,0-1,.37A1.85,1.85,0,0,0,294,81.38Zm3.87-8a1.31,1.31,0,0,1-.62-.44,6,6,0,0,1-.44-.63,1,1,0,0,0-.62-.43A2,2,0,0,0,295,72a6.89,6.89,0,0,0,.31,1.25c.13.33.23.63.31.87a2.47,2.47,0,0,1,.13.82,5.61,5.61,0,0,1-.25,1.31,1.72,1.72,0,0,1,1.37.75,1.6,1.6,0,0,0,1.5.62,4.65,4.65,0,0,1,0-2.12,3.66,3.66,0,0,1,.69-1.25,3,3,0,0,1,1-.75,5.88,5.88,0,0,0,1.06-.62c-.33-.09-.46-.38-.37-.88-.5.25-.86.31-1.06.19a2.5,2.5,0,0,1-.63-.57c-.21-.24-.42-.5-.62-.74a1.3,1.3,0,0,0-1.07-.38,1.09,1.09,0,0,0,0,1,2.19,2.19,0,0,0,.63.62,1,1,0,0,1,.44.57C298.48,72.9,298.29,73.12,297.87,73.38Zm-1.5-43.63c.34,0,.54.11.63.31a4.58,4.58,0,0,0,.31.63,1.8,1.8,0,0,0,.44.5c.16.12.5.1,1-.07V28.75A2.58,2.58,0,0,0,296.37,29.75ZM304.5,5.12A10.77,10.77,0,0,1,306,8.56a14,14,0,0,1,.31,3.5c0,1.21-.15,2.48-.31,3.82a24.77,24.77,0,0,0-.13,4.37,1.9,1.9,0,0,1-1.25-1.06,18.05,18.05,0,0,1-.68-1.69,6.09,6.09,0,0,0-.82-1.56,2.52,2.52,0,0,0-1.5-.94,3.41,3.41,0,0,0-.06-1.94c-.21-.79,0-1.23.56-1.31a1.94,1.94,0,0,0-.75-.81,9,9,0,0,0-1-.56,1.63,1.63,0,0,1-.75-.82,2.49,2.49,0,0,1,.13-1.68h-.69a2.86,2.86,0,0,1-.94-.19,1.4,1.4,0,0,1-.75-.69,2.34,2.34,0,0,1,0-1.5,7.71,7.71,0,0,0,3.69.69A5.62,5.62,0,0,0,304.5,5.12Zm-6.13,6.13a.39.39,0,0,1,.44.31,2.78,2.78,0,0,1,0,.82q-.06.49-.12.93a1.55,1.55,0,0,0,.06.81c-.67,0-1.06-.24-1.19-.74a7,7,0,0,1-.19-1.63C298,11.75,298.29,11.58,298.37,11.25Zm0,36.5a2.7,2.7,0,0,0,.44-1.87c0-.84-.52-1.17-1.44-1v1.93C297.37,47.44,297.71,47.75,298.37,47.75Zm.38-5.25q-.25,3,2.37,2.88a5.21,5.21,0,0,0-.06-2.44,1.78,1.78,0,0,0-1.31-1.32,1.64,1.64,0,0,1-.19.76C299.44,42.62,299.16,42.67,298.75,42.5Zm1.5,40.38a1,1,0,0,1,.19-.94,1.31,1.31,0,0,0,.31-.94,3.79,3.79,0,0,1-.94-.5c-.21-.17-.56-.17-1.06,0a7.74,7.74,0,0,0,.19,1.81C299.06,82.86,299.5,83,300.25,82.88Zm.5-4.26h1.37a4.27,4.27,0,0,1,0-1.43c.09-.54-.25-.73-1-.57a2.19,2.19,0,0,1-.37.94C300.58,77.77,300.58,78.12,300.75,78.62Zm.87,3.26c.75.16,1.23.08,1.44-.26s.69-.41,1.44-.24V80.5a.73.73,0,0,1-.56-.19,1.94,1.94,0,0,0-.44-.31c.08.42,0,.65-.25.69l-.81.12a2.13,2.13,0,0,0-.75.25C301.48,81.19,301.46,81.46,301.62,81.88ZM304,37.75a2.35,2.35,0,0,0,.69,2,1.54,1.54,0,0,0,1.68,0,3.58,3.58,0,0,1,.63-1.69,9.14,9.14,0,0,0,.75-1.18,1,1,0,0,0,.06-.88,3.51,3.51,0,0,0-1.44-1,4.59,4.59,0,0,1-.31,2.19C305.85,37.48,305.16,37.67,304,37.75Zm4.75,11.87a2.33,2.33,0,0,1,1,2.13v3.13a5,5,0,0,0,.94-1.76,16.91,16.91,0,0,0,.68-2.56,9.59,9.59,0,0,0,.19-2.37,2.24,2.24,0,0,0-.44-1.44c-.08.42-.25.67-.5.75a5.94,5.94,0,0,0-.75.31,4.66,4.66,0,0,0-.75.5A1.71,1.71,0,0,0,308.75,49.62Zm8.5-19.37c.5,0,.77.19.81.56s.4.48,1.06.31c-.08-.58,0-.95.32-1.12s.35-.58.18-1.25a1.11,1.11,0,0,0-1.56-.19A1.93,1.93,0,0,0,317.25,30.25ZM320.62,33a.4.4,0,0,1,.44.38c0,.24.08.5.13.74a2.26,2.26,0,0,0,.18.63c.09.17.29.25.63.25a1.93,1.93,0,0,0,.56-1.25,7.61,7.61,0,0,0-.06-1.63C321.33,32,320.71,32.25,320.62,33Zm3.25,26.62c.17.59.34,1.09.5,1.5a1.53,1.53,0,0,0,1,.88,1.36,1.36,0,0,1,.69-.94c.38-.2.44-.68.19-1.44a1.67,1.67,0,0,0-2.38,0Zm.5-41.74a2.64,2.64,0,0,1,1.5.5c.09-.34.15-.61.19-.82a1.32,1.32,0,0,0,0-.56c0-.17-.08-.35-.12-.56a4.42,4.42,0,0,1-.07-.94h-1.5ZM327.25,70a3.24,3.24,0,0,1-.25-1.44,13.06,13.06,0,0,0-.13-1.87,5.9,5.9,0,0,0-.5-1.75,2,2,0,0,0-1.5-1.06,17.43,17.43,0,0,1,.44,4C325.27,68.88,325.91,69.58,327.25,70Zm-1.38-11.88a1.85,1.85,0,0,0,1.32-.74,1.73,1.73,0,0,0,.31-1.32,2.2,2.2,0,0,0-.63-1.18,2,2,0,0,0-1.5-.5c0,.66,0,1.37-.06,2.12A1.83,1.83,0,0,0,325.87,58.12Zm.38-18.87a1.14,1.14,0,0,0,1.12-.31,1.58,1.58,0,0,0,.38-1.06,2.92,2.92,0,0,0-.31-1.26,1.36,1.36,0,0,0-.69-.74A9.51,9.51,0,0,1,326,37.5,1.41,1.41,0,0,0,326.25,39.25Zm0,11.37c1.5-.08,2.16-1,2-2.87h-2a7.92,7.92,0,0,1-.38,1.56A1.19,1.19,0,0,0,326.25,50.62Zm0,21.38a9.08,9.08,0,0,0,.12,1.56.79.79,0,0,0,.88.69,8.32,8.32,0,0,1,1.06-2.13,1.54,1.54,0,0,0-.06-2.12,4.25,4.25,0,0,1-.44,1.25A4.51,4.51,0,0,1,326.25,72Zm3.87-3.38V65.75h-1.87a2,2,0,0,0-.31,2.13C328.23,68.71,329,69,330.12,68.62Zm-1.5-14.24h1.5a2.57,2.57,0,0,1,.5-1.38c-.5,0-.79-.21-.87-.62s-.46-.55-1.13-.38c-.16.75-.25,1.15-.25,1.19S328.46,53.62,328.62,54.38ZM331,58.12c.75.17,1.19,0,1.31-.5a7,7,0,0,0,.19-1.74,2.71,2.71,0,0,1-1.5-.5Zm.5-43.62a1.33,1.33,0,0,1,.94.31,1,1,0,0,0,.93.19c-.16-.67-.08-1.08.25-1.25s.42-.54.25-1.13a2,2,0,0,1-.81-.37,1.35,1.35,0,0,0-1.06-.13A3.94,3.94,0,0,0,331.5,14.5Zm.5,12.38a4.16,4.16,0,0,1,1.37.18,4.94,4.94,0,0,1,.82.38,2,2,0,0,0,.75.25,2.89,2.89,0,0,0,1.31-.31,6.52,6.52,0,0,1-.56-3.19,34.34,34.34,0,0,0-.07-3.69,7.59,7.59,0,0,0-.81-3.06A3.08,3.08,0,0,0,332,16a14,14,0,0,0,.56,2.94,18.78,18.78,0,0,1,.63,2.81,10.09,10.09,0,0,1,0,2.69A4.78,4.78,0,0,1,332,26.88Zm1.37,42.74a1.34,1.34,0,0,0-.87-2.37,4.52,4.52,0,0,0,0,1.56A.94.94,0,0,0,333.37,69.62Zm5.25-55.12c.25-.75.17-1.19-.25-1.31a4,4,0,0,0-1.62-.07C336.66,14.29,337.29,14.75,338.62,14.5Zm1,6.25a1,1,0,0,1,.94.19,1.27,1.27,0,0,0,.94.31,17.71,17.71,0,0,0-.31-1.75c-.13-.5-.53-.71-1.19-.62a1,1,0,0,1-.19.93A1,1,0,0,0,339.62,20.75ZM350,16a1.64,1.64,0,0,0-.63-1.44c-.41-.29-.83-.6-1.25-.94a1.81,1.81,0,0,0,.44,1.63A3.71,3.71,0,0,0,350,16Zm1.87-14.25a3.32,3.32,0,0,1,1.88,2.87c-1.09.34-1.77.26-2.06-.24a4,4,0,0,0-1.19-1.26c-.09-.5.12-.74.62-.74S351.87,2.17,351.87,1.75Zm1,7.63a1,1,0,0,1,1,1.12,1.15,1.15,0,0,0,.88,1.25c.16.67.06,1-.31,1.06s-.61.31-.69.81a1.86,1.86,0,0,1-1.19-.87,1.6,1.6,0,0,1,0-1.06c.13-.38.25-.77.38-1.19A1.47,1.47,0,0,0,352.87,9.38Z"/><path class="cls-1" d="M361,82.88c2.25-2.09,4.39-4.27,6.43-6.57s4.15-4.52,6.32-6.69a28.24,28.24,0,0,0,6,3.44,34.44,34.44,0,0,0,6.31,2,63.09,63.09,0,0,0,6.44,1.06c2.16.26,4.29.46,6.37.63a2,2,0,0,1,2.06-.81,3.11,3.11,0,0,0,2.19-.19,8.3,8.3,0,0,0,4.13-4.13,10.51,10.51,0,0,0,1.06-5.74,8.25,8.25,0,0,0-2.38-5c-1.37-1.42-3.39-2-6.06-1.76-.42-.33-.56-.64-.44-.93a2.6,2.6,0,0,1,.57-.81,4.24,4.24,0,0,0,.56-.69c.12-.21,0-.48-.31-.81-.5-.09-.84,0-1,.24a2.79,2.79,0,0,0-.38.88,10,10,0,0,0-.19,1.12,2.07,2.07,0,0,1-.31,1q-6.5-.75-12.19-1.5a38,38,0,0,1-11.06-3.24c.08-.59,0-1-.31-1.13s-.31-.58-.06-1.25q-.63-.12-.75.06a2.58,2.58,0,0,0-.25.5,3.29,3.29,0,0,1-.25.5q-.13.19-.75-.06a15.9,15.9,0,0,1-6-7.44,28.5,28.5,0,0,1-2.19-10.12,36.12,36.12,0,0,1,1.19-10.56A23.68,23.68,0,0,1,370,16a23.27,23.27,0,0,1,2.87-2.88A49.17,49.17,0,0,1,377,9.94q2.25-1.56,4.5-2.82a37.15,37.15,0,0,1,4.12-2,26.94,26.94,0,0,1,7.25-1.74,24.12,24.12,0,0,1,7,.24,25.29,25.29,0,0,1,.63,2.63,12.82,12.82,0,0,0,.75,2.63c.41.08.68,0,.81-.13a1,1,0,0,1,.56-.37c.42-.34.61-.67.56-1a2.91,2.91,0,0,0-.37-1.07c-.21-.37-.42-.77-.63-1.19a1.77,1.77,0,0,1,.07-1.5c1.58.17,2.68.26,3.31.26a3.87,3.87,0,0,1,2.31,1.24,9.14,9.14,0,0,1,4.69-.24,8.48,8.48,0,0,1,3.31,1.62,11.4,11.4,0,0,1,2.38,2.69c.66,1,1.33,2.06,2,3.06.66-.33,1.35-.67,2.06-1a2.11,2.11,0,0,0,1.19-1.87l1.93,1.18,1.94,1.19a1,1,0,0,1-.12.87,3.75,3.75,0,0,1-.63.5,2.63,2.63,0,0,0-.62.57,1.1,1.1,0,0,0-.13.93c.25.34.48.42.69.26s.48,0,.81.62a51.2,51.2,0,0,1-5.62,5.31,32.27,32.27,0,0,0-5.38,5.57A30.75,30.75,0,0,1,413,24.94a29.55,29.55,0,0,0-3.44-1.44,21.65,21.65,0,0,0-3.94-.94,18.19,18.19,0,0,0-4.87.06c-.75.17-1.17,0-1.25-.5a3.06,3.06,0,0,0-.63-1.37c-.42.08-.58.37-.5.87a.81.81,0,0,1-.5,1c-3.33-.74-5.94-.43-7.81.94a8.9,8.9,0,0,0-3.56,5.25,11.15,11.15,0,0,0,.5,6.57,8.52,8.52,0,0,0,4.25,4.87l1.5-1.5A15.08,15.08,0,0,0,397.12,40c1.42.17,2.86.27,4.31.31s2.88,0,4.25,0a19.73,19.73,0,0,1,4.07.31,28.93,28.93,0,0,1,10.5,3.88,22.88,22.88,0,0,1,7.43,7.38,25.87,25.87,0,0,1,3.63,10.31,35.31,35.31,0,0,1-.69,12.56,15.74,15.74,0,0,1-1.31,3.69,22.43,22.43,0,0,1-1.88,3c-.7,1-1.43,1.92-2.18,2.87a23.61,23.61,0,0,0-2.13,3.31,49.26,49.26,0,0,1-7,3.94,53.65,53.65,0,0,1-8.31,3.06A51.14,51.14,0,0,1,388,96.12,17.66,17.66,0,0,1,383.62,95a7.3,7.3,0,0,0-4.62-.25,1.58,1.58,0,0,1-.57-1.44c.05-.62.07-1.27.07-1.93-.5-.17-.84-.19-1-.07a1.09,1.09,0,0,0-.38.57,5.68,5.68,0,0,0-.19.81.66.66,0,0,1-.31.56Q374,92,371.81,91.06a34.67,34.67,0,0,1-4-2,23.41,23.41,0,0,1-3.5-2.5A20.18,20.18,0,0,1,361,82.88Zm7-.5a1.57,1.57,0,0,0,1.37-.76,4.07,4.07,0,0,0,.63-1.68,4.79,4.79,0,0,0-.13-1.88,2.1,2.1,0,0,0-.87-1.31,15,15,0,0,0-.13,3.19A3.63,3.63,0,0,1,368,82.38Zm5.25-44.5c.33.16.6,0,.81-.38a3,3,0,0,0,.31-1.38,2.64,2.64,0,0,0-.31-1.31c-.21-.37-.48-.48-.81-.31Zm3.37-13.76c.08-1.16-.54-1.66-1.87-1.5a2,2,0,0,0,.62,1.57A.81.81,0,0,0,376.62,24.12Zm1.88,14.13c1.08.08,1.54-.54,1.37-1.87C378.79,36.29,378.33,36.92,378.5,38.25Zm1.37,51.25c.17-.33.36-.75.56-1.25a8.49,8.49,0,0,1,.63-1.25,1.08,1.08,0,0,1,.69-.56c.25,0,.58.18,1,.68a5.27,5.27,0,0,0-.57-1.93c-.29-.54-.58-1.07-.87-1.57s-.58-1-.88-1.56a5.47,5.47,0,0,1-.56-2.06H378.5c.25,2.08.45,4,.62,5.69A15,15,0,0,0,379.87,89.5Zm3.38-52.62a3.57,3.57,0,0,0,.5-2.38,1.14,1.14,0,0,0-1,.19,1.22,1.22,0,0,0-.44.81,1.47,1.47,0,0,0,.19.94A.8.8,0,0,0,383.25,36.88Zm7.62-15.13a2.88,2.88,0,0,1,0-1.19c.08-.54.15-1.08.19-1.62a3.89,3.89,0,0,0-.13-1.44c-.12-.42-.48-.58-1.06-.5a9.07,9.07,0,0,0,.13,2.62A5.26,5.26,0,0,0,390.87,21.75Zm7,58.25c1.17.08,1.73-.06,1.69-.44s-.11-1-.19-1.94h-1.5Zm3.88-24.62q1.62-.63,3.18-1.32A3.58,3.58,0,0,0,407,51.62c-.34,0-.52-.14-.57-.43a.64.64,0,0,0-.43-.57,2.21,2.21,0,0,1-.94,1.32l-1.38.87c-.45.3-.89.61-1.31.94A1.94,1.94,0,0,0,401.75,55.38Zm2.87,28.5h2.75a2.63,2.63,0,0,0-.19-2A2.28,2.28,0,0,0,406,81a1.31,1.31,0,0,1-.44.62,4.81,4.81,0,0,1-.63.44,1.06,1.06,0,0,0-.43.63A2,2,0,0,0,404.62,83.88ZM407,50.12a1.81,1.81,0,0,0,1.5-.62.84.84,0,0,0-.13-1.25C407.2,48.17,406.75,48.79,407,50.12Zm2.37-36.5c.17-1.33-.33-1.95-1.5-1.87C407.7,13.08,408.2,13.71,409.37,13.62Zm1.38,42.26c.66-.67.73-1.19.18-1.57a6.49,6.49,0,0,0-1.56-.81,5,5,0,0,0,.06,1.75Q409.63,56,410.75,55.88Zm-.5,3.74c1.16.09,1.62-.54,1.37-1.87h-1.37ZM411.62,16a1.85,1.85,0,0,0,.5-1.62c-.08-.67-.54-.92-1.37-.76a4.58,4.58,0,0,0,0,1.57A.94.94,0,0,0,411.62,16Zm-.87,52.62A18.94,18.94,0,0,0,414,70.5c-.09-.42,0-.69.18-.81a2.76,2.76,0,0,1,.82-.31,3.1,3.1,0,0,0,.81-.32c.21-.12.27-.44.19-.94a2.91,2.91,0,0,1-1.57-.74,4.79,4.79,0,0,1-.68-1c-.17-.34-.36-.69-.57-1.07a2.29,2.29,0,0,0-1.06-.93,3.85,3.85,0,0,1-.31,2.06C411.52,67.06,411.16,67.79,410.75,68.62ZM414.5,80.5c.16,0,.31-.14.43-.44a2.41,2.41,0,0,0,.19-1,1.17,1.17,0,0,0-.31-.87.65.65,0,0,0-.81-.07,1.39,1.39,0,0,0-.25.57,5.28,5.28,0,0,0-.19.93,1.31,1.31,0,0,0,.12.82C413.81,80.65,414.08,80.67,414.5,80.5Zm0-62.62a.58.58,0,0,0,.81-.19,1.67,1.67,0,0,0,.31-1,1.65,1.65,0,0,0-.31-1,.57.57,0,0,0-.81-.19ZM416,86.62q1.25.25,1.68-.18a2.93,2.93,0,0,0,.69-1.19,4,4,0,0,0-2.37-.5Zm.37-26c1.17.09,1.67-.58,1.5-2h-1.5Zm3.88,9.88c.16-.75.06-1.21-.32-1.38l-1.18-.5c-.59.92-.61,1.42-.07,1.5A9.73,9.73,0,0,1,420.25,70.5Zm1.87,2c.75.25,1.15.19,1.19-.19a1,1,0,0,1,.69-.81c.08-.67-.05-1.1-.38-1.31s-.67-.4-1-.57a1.51,1.51,0,0,0-.56,1.13A8.93,8.93,0,0,0,422.12,72.5Z"/></g></g></svg>